<svg width="28" height="28" viewBox="0 0 28 28" fill="none" xmlns="http://www.w3.org/2000/svg">
<path opacity="0.1" d="M14 22.8751C12.2447 22.8751 10.5288 22.3546 9.06932 21.3794C7.60983 20.4042 6.4723 19.0181 5.80057 17.3964C5.12885 15.7747 4.95309 13.9902 5.29553 12.2687C5.63798 10.5471 6.48324 8.9657 7.72443 7.72451C8.96562 6.48332 10.547 5.63805 12.2686 5.29561C13.9902 4.95317 15.7746 5.12892 17.3963 5.80065C19.018 6.47238 20.4041 7.60991 21.3793 9.06939C22.3545 10.5289 22.875 12.2448 22.875 14.0001C22.8728 16.3532 21.9371 18.6093 20.2732 20.2732C18.6093 21.9371 16.3531 22.8729 14 22.8751Z" fill="#8E9198"/>
<path d="M16.6253 13.875C16.3078 13.6536 15.9597 13.4795 15.592 13.3583C15.3003 13.2583 14.9753 13.1667 14.6337 13.075V10.8083C14.7418 10.8441 14.8432 10.8976 14.9337 10.9667C15.179 11.1857 15.3775 11.4522 15.517 11.75C15.6076 11.934 15.7225 12.1049 15.8587 12.2583C15.9921 12.3671 16.162 12.4207 16.3337 12.4083C16.4406 12.4105 16.5468 12.3893 16.6447 12.3461C16.7426 12.3029 16.8298 12.2388 16.9003 12.1583C17.0482 12.0005 17.1289 11.7913 17.1253 11.575C17.123 11.3248 17.0601 11.0789 16.942 10.8583C16.8041 10.5832 16.6079 10.3415 16.367 10.15C16.0753 9.90599 15.7383 9.72192 15.3753 9.60834C15.1436 9.52033 14.9034 9.45611 14.6587 9.41667V9.00001C14.6598 8.91723 14.6444 8.83506 14.6135 8.75827C14.5826 8.68148 14.5367 8.61159 14.4786 8.55267C14.4204 8.49374 14.3512 8.44696 14.2748 8.41503C14.1984 8.3831 14.1164 8.36666 14.0337 8.36667V8.36667C13.952 8.36557 13.8709 8.3807 13.7951 8.4112C13.7193 8.44169 13.6504 8.48694 13.5922 8.54432C13.5341 8.60169 13.4879 8.67004 13.4564 8.74541C13.4249 8.82078 13.4087 8.90165 13.4087 8.98334V9.41667C12.9957 9.44507 12.5888 9.53205 12.2003 9.67501C11.7307 9.85691 11.327 10.1764 11.042 10.5917C10.7773 10.9813 10.6458 11.4461 10.667 11.9167C10.6507 12.3737 10.7822 12.8237 11.042 13.2C11.3028 13.5647 11.6568 13.8525 12.067 14.0333C12.4968 14.2216 12.9432 14.3694 13.4003 14.475V17.2333C13.2859 17.2085 13.1742 17.1722 13.067 17.125C12.8445 17.0153 12.6526 16.8521 12.5087 16.65C12.3646 16.4259 12.2418 16.1887 12.142 15.9417C12.0739 15.7379 11.9599 15.5526 11.8087 15.4C11.6756 15.2825 11.5028 15.2199 11.3253 15.225C11.2184 15.2206 11.1117 15.2392 11.0126 15.2794C10.9134 15.3197 10.824 15.3807 10.7503 15.4583C10.6744 15.5298 10.6143 15.6164 10.5741 15.7126C10.5339 15.8088 10.5145 15.9124 10.517 16.0167C10.533 16.4312 10.6659 16.8328 10.9003 17.175C11.1373 17.5501 11.4564 17.8665 11.8337 18.1C12.2996 18.3547 12.8131 18.5108 13.342 18.5583V18.9667C13.3409 19.0494 13.3562 19.1316 13.3872 19.2084C13.4181 19.2852 13.4639 19.3551 13.5221 19.414C13.5802 19.4729 13.6495 19.5197 13.7259 19.5516C13.8023 19.5836 13.8842 19.6 13.967 19.6C14.0487 19.6011 14.1298 19.586 14.2055 19.5555C14.2813 19.525 14.3503 19.4797 14.4084 19.4224C14.4666 19.365 14.5128 19.2966 14.5443 19.2213C14.5758 19.1459 14.592 19.065 14.592 18.9833V18.5833C15.0412 18.5477 15.4824 18.4437 15.9003 18.275C16.395 18.0639 16.8177 17.7136 17.117 17.2667C17.3943 16.8343 17.5392 16.3303 17.5337 15.8167C17.5647 15.4145 17.496 15.0109 17.3337 14.6417C17.1655 14.3308 16.922 14.0672 16.6253 13.875ZM13.367 12.75C13.1891 12.6921 13.0163 12.6196 12.8503 12.5333C12.6982 12.447 12.5627 12.3341 12.4503 12.2C12.3648 12.0569 12.3242 11.8914 12.3337 11.725C12.3373 11.5769 12.3782 11.4322 12.4525 11.304C12.5267 11.1759 12.632 11.0685 12.7587 10.9917C12.9603 10.8613 13.1877 10.776 13.4253 10.7417V12.7417L13.367 12.75ZM15.2587 16.9167C15.0599 17.0551 14.8364 17.1542 14.6003 17.2083V14.8L14.7753 14.85C15.0366 14.9301 15.2741 15.0732 15.467 15.2667C15.5589 15.3613 15.6307 15.4736 15.678 15.5968C15.7253 15.72 15.747 15.8515 15.742 15.9833C15.7435 16.1665 15.7003 16.3473 15.616 16.5099C15.5318 16.6726 15.4091 16.8122 15.2587 16.9167V16.9167ZM14.0003 5.04167C12.2285 5.04167 10.4965 5.56707 9.02335 6.55142C7.55016 7.53578 6.40194 8.93488 5.72391 10.5718C5.04587 12.2087 4.86847 14.0099 5.21413 15.7477C5.55979 17.4854 6.41299 19.0817 7.66583 20.3345C8.91868 21.5874 10.5149 22.4405 12.2526 22.7862C13.9904 23.1319 15.7916 22.9545 17.4285 22.2764C19.0655 21.5984 20.4646 20.4502 21.4489 18.977C22.4333 17.5038 22.9587 15.7718 22.9587 14C22.9565 11.6248 22.0119 9.34748 20.3324 7.66794C18.6529 5.98841 16.3756 5.04388 14.0003 5.04167V5.04167ZM14.0003 21.7083C12.4758 21.7083 10.9854 21.2563 9.71781 20.4093C8.45018 19.5622 7.46218 18.3584 6.87876 16.9499C6.29533 15.5413 6.14268 13.9915 6.44011 12.4962C6.73754 11.0009 7.47169 9.62742 8.54971 8.54939C9.62774 7.47136 11.0012 6.73721 12.4965 6.43979C13.9918 6.14236 15.5417 6.29501 16.9502 6.87843C18.3587 7.46186 19.5626 8.44986 20.4096 9.71748C21.2566 10.9851 21.7087 12.4754 21.7087 14C21.7065 16.0437 20.8936 18.0031 19.4485 19.4482C18.0034 20.8933 16.044 21.7061 14.0003 21.7083V21.7083Z" fill="#8E9198"/>
</svg>
