<svg width="14" height="14" viewBox="0 0 14 14" fill="none" xmlns="http://www.w3.org/2000/svg">
<g clip-path="url(#clip0_36987_835)">
<path opacity="0.1" d="M12.1334 1.78853C12.3495 1.8872 12.5428 2.02955 12.7011 2.20662C12.8575 2.38959 12.9757 2.60207 13.0485 2.8315C13.1214 3.06092 13.1475 3.30263 13.1253 3.54233L12.7584 8.63863C12.7349 9.07866 12.5434 9.49289 12.2234 9.79583C11.9034 10.0988 11.4793 10.2673 11.0386 10.2667H4.2168C3.97832 10.2638 3.74305 10.2114 3.52594 10.1127C3.30882 10.014 3.1146 9.87121 2.95562 9.69343C2.79731 9.51339 2.67668 9.30344 2.60087 9.076C2.52505 8.84855 2.49559 8.60822 2.51421 8.36919L2.8811 3.27289C2.90837 2.90412 3.05074 2.55321 3.28812 2.26968L3.70819 1.98665L4.10215 1.73655C4.25871 1.67869 4.42285 1.64393 4.58942 1.63336H11.4456C11.6831 1.63703 11.9173 1.68987 12.1334 1.78853Z" fill="#8E9198"/>
<path d="M12.8258 2.12009C12.6644 1.93957 12.4674 1.79445 12.2471 1.69386C12.0268 1.59328 11.7881 1.53942 11.5459 1.53567H4.55627C4.38646 1.54645 4.21912 1.58188 4.05952 1.64087L3.65627 0.974628C3.61543 0.900297 3.55538 0.8383 3.48238 0.795121C3.40939 0.751941 3.32614 0.729164 3.24133 0.729172H1.18417C1.06245 0.742432 0.949926 0.800173 0.868175 0.891313C0.786424 0.982454 0.741211 1.10057 0.741211 1.22301C0.741211 1.34544 0.786424 1.46356 0.868175 1.5547C0.949926 1.64584 1.06245 1.70358 1.18417 1.71684H2.96665L3.22964 2.18438C2.98764 2.47343 2.8425 2.83116 2.8147 3.20711L2.44067 8.40261C2.42168 8.64629 2.45172 8.8913 2.52901 9.12317C2.6063 9.35505 2.72928 9.56908 2.89067 9.75263C3.05275 9.93387 3.25075 10.0794 3.47209 10.18C3.69343 10.2806 3.93328 10.3341 4.1764 10.337H11.131C11.5802 10.3377 12.0126 10.1659 12.3388 9.85702C12.6651 9.54818 12.8603 9.12589 12.8843 8.67729L13.2583 3.48179C13.2809 3.23743 13.2543 2.99102 13.18 2.75713C13.1057 2.52323 12.9853 2.30662 12.8258 2.12009ZM11.5459 2.54088C11.6556 2.53918 11.7643 2.56069 11.865 2.604C11.9658 2.64731 12.0562 2.71144 12.1304 2.79218C12.2015 2.87113 12.2563 2.96347 12.2914 3.06381C12.3265 3.16415 12.3413 3.27048 12.3349 3.3766L12.2531 4.54544H3.68549L3.77899 3.27725C3.79086 3.07876 3.87779 2.89223 4.02213 2.75548C4.16648 2.61873 4.35744 2.542 4.55627 2.54088H11.5459ZM11.1427 9.34938H4.18809C4.07808 9.34997 3.96918 9.32737 3.86848 9.28307C3.76779 9.23876 3.67755 9.17374 3.60367 9.09223C3.46101 8.93207 3.38748 8.72198 3.39912 8.50781L3.60951 5.58571H12.1421L11.9258 8.64223C11.9044 8.83549 11.8128 9.01418 11.6685 9.1445C11.5242 9.27481 11.3371 9.3477 11.1427 9.34938ZM6.292 12.2715C6.28855 12.4718 6.22598 12.6667 6.11217 12.8316C5.99835 12.9965 5.83835 13.1241 5.65226 13.1984C5.46617 13.2727 5.26228 13.2903 5.0662 13.2491C4.87011 13.2079 4.69056 13.1097 4.55009 12.9668C4.40963 12.8239 4.3145 12.6427 4.27667 12.446C4.23883 12.2492 4.25996 12.0457 4.33742 11.8609C4.41487 11.6761 4.54519 11.5183 4.71202 11.4073C4.87885 11.2963 5.07474 11.2371 5.27511 11.2371C5.40991 11.2378 5.54324 11.2652 5.66741 11.3177C5.79159 11.3702 5.90417 11.4467 5.99867 11.5428C6.09318 11.6389 6.16774 11.7528 6.21808 11.8779C6.26842 12.0029 6.29355 12.1367 6.292 12.2715ZM10.8505 12.2715C10.8459 12.4704 10.7827 12.6635 10.6688 12.8267C10.555 12.9898 10.3955 13.1158 10.2104 13.1887C10.0253 13.2617 9.82281 13.2784 9.62825 13.2368C9.43369 13.1952 9.25573 13.0971 9.11666 12.9548C8.9776 12.8125 8.8836 12.6324 8.84644 12.4369C8.80929 12.2414 8.83063 12.0394 8.90779 11.856C8.98496 11.6726 9.11451 11.5161 9.28023 11.406C9.44595 11.2959 9.64048 11.2371 9.83944 11.2371C9.97375 11.2386 10.1064 11.2665 10.2299 11.3194C10.3534 11.3722 10.4653 11.4488 10.5592 11.5449C10.6531 11.6409 10.7271 11.7545 10.7771 11.8792C10.8271 12.0039 10.852 12.1372 10.8505 12.2715Z" fill="#8E9198"/>
</g>
<defs>
<clipPath id="clip0_36987_835">
<rect width="14" height="14" fill="white"/>
</clipPath>
</defs>
</svg>
