<svg width="28" height="28" viewBox="0 0 28 28" fill="none" xmlns="http://www.w3.org/2000/svg">
<path opacity="0.1" d="M22.4477 10.9045C22.4046 10.5822 22.3214 10.2666 22.2 9.96489H22.2513L21.9352 9.40966C21.9133 9.38264 21.8933 9.3541 21.8754 9.32424L21.6021 8.85443C21.4182 8.62644 21.209 8.42011 20.9785 8.23941L20.9102 8.17962C20.7647 8.06936 20.6136 7.96671 20.4575 7.87211L16.084 5.30952C15.4549 4.94832 14.7422 4.75826 14.0168 4.75826C13.2914 4.75826 12.5787 4.94832 11.9497 5.30952L7.57618 7.87211L7.12346 8.17108L7.02095 8.26504C6.62746 8.5769 6.29203 8.95569 6.03008 9.38404L5.71403 9.93926H5.76528C5.58155 10.4104 5.486 10.9113 5.4834 11.417V16.5422C5.4834 17.2656 5.6736 17.9763 6.03492 18.6029C6.39624 19.2296 6.91597 19.7503 7.54201 20.1127L11.9155 22.6753C12.3926 22.9468 12.9175 23.1237 13.4616 23.1964V23.2391H13.9656H14.1962H14.5977H14.7173L15.1017 23.1537L15.2725 23.0939C15.375 23.0939 15.4775 23.0341 15.58 22.9914C15.7407 22.9231 15.8975 22.8461 16.0498 22.7608L20.4233 20.1982C21.07 19.8341 21.6065 19.3023 21.9763 18.6589C22.3461 18.0155 22.5356 17.2842 22.5246 16.5422V11.417C22.5107 11.2446 22.485 11.0734 22.4477 10.9045Z" fill="#1379F0"/>
<path d="M22.4477 10.9045C22.4046 10.5822 22.3214 10.2666 22.2 9.96489H22.2513L21.9352 9.40966C21.9133 9.38264 21.8933 9.3541 21.8754 9.32424L21.6021 8.85443C21.4182 8.62644 21.209 8.42011 20.9785 8.23941L20.9102 8.17962C20.7647 8.06936 20.6136 7.96671 20.4575 7.87211L16.084 5.30952C15.4549 4.94832 14.7422 4.75826 14.0168 4.75826C13.2914 4.75826 12.5787 4.94832 11.9497 5.30952L7.57618 7.87211L7.12346 8.17108L7.02095 8.26504C6.62746 8.5769 6.29203 8.95569 6.03008 9.38404L5.71403 9.93926H5.76528C5.58155 10.4104 5.486 10.9113 5.4834 11.417V16.5422C5.4834 17.2656 5.6736 17.9763 6.03492 18.6029C6.39624 19.2296 6.91597 19.7503 7.54201 20.1127L11.9155 22.6753C12.3926 22.9468 12.9175 23.1237 13.4616 23.1964V23.2391H13.9656H14.1962H14.5977H14.7173L15.1017 23.1537L15.2725 23.0939C15.375 23.0939 15.4775 23.0341 15.58 22.9914C15.7407 22.9231 15.8975 22.8461 16.0498 22.7608L20.4233 20.1982C21.07 19.8341 21.6065 19.3023 21.9763 18.6589C22.3461 18.0155 22.5356 17.2842 22.5246 16.5422V11.417C22.5107 11.2446 22.485 11.0734 22.4477 10.9045V10.9045ZM12.5561 6.45414C12.9907 6.20622 13.4824 6.07583 13.9827 6.07583C14.483 6.07583 14.9746 6.20622 15.4092 6.45414L19.7827 9.01673L20.1158 9.23882L20.2183 9.33278L20.4062 9.50362L16.5452 11.7672L13.9827 13.2365L7.53347 9.50362C7.59471 9.43669 7.66034 9.37391 7.72994 9.3157L7.8239 9.23028L8.15703 9.00819L12.5561 6.45414ZM12.5561 21.488L8.18266 18.9254C7.7615 18.6834 7.40979 18.337 7.16143 17.9196C6.91307 17.5022 6.77643 17.0278 6.76469 16.5422V11.417C6.76142 11.1273 6.80468 10.8389 6.89282 10.5628L13.3505 14.2957L13.4445 21.7443C13.1363 21.7083 12.8361 21.6217 12.5561 21.488V21.488ZM21.2006 16.5422C21.2022 17.0409 21.0719 17.5311 20.8229 17.9632C20.5738 18.3952 20.215 18.7537 19.7827 19.0023L15.4092 21.5649C15.1965 21.692 14.9662 21.787 14.7258 21.8468L14.6318 14.4153L21.0725 10.6141C21.1061 10.7173 21.1318 10.823 21.1494 10.9301C21.1446 10.9584 21.1446 10.9873 21.1494 11.0156C21.1578 11.1492 21.1578 11.2833 21.1494 11.417L21.2006 16.5422Z" fill="#1379F0"/>
<rect x="1" y="1.5" width="11" height="11" rx="5.5" fill="white"/>
<mask id="mask0_187_75135" style="mask-type:alpha" maskUnits="userSpaceOnUse" x="1" y="1" width="11" height="12">
<rect x="1" y="1.5" width="11" height="11" fill="#3398CD"/>
</mask>
<g mask="url(#mask0_187_75135)">
<path d="M5.85866 9.10834L9.08991 5.87709L8.44824 5.23542L5.85866 7.82501L4.55241 6.51875L3.91074 7.16042L5.85866 9.10834ZM6.50033 11.5833C5.8663 11.5833 5.27046 11.463 4.71283 11.2224C4.15519 10.9818 3.67012 10.6552 3.25762 10.2427C2.84512 9.83021 2.51855 9.34514 2.27793 8.78751C2.0373 8.22987 1.91699 7.63403 1.91699 7.00001C1.91699 6.36598 2.0373 5.77014 2.27793 5.21251C2.51855 4.65487 2.84512 4.1698 3.25762 3.7573C3.67012 3.3448 4.15519 3.01823 4.71283 2.77761C5.27046 2.53698 5.8663 2.41667 6.50033 2.41667C7.13435 2.41667 7.73019 2.53698 8.28783 2.77761C8.84546 3.01823 9.33053 3.3448 9.74303 3.7573C10.1555 4.1698 10.4821 4.65487 10.7227 5.21251C10.9633 5.77014 11.0837 6.36598 11.0837 7.00001C11.0837 7.63403 10.9633 8.22987 10.7227 8.78751C10.4821 9.34514 10.1555 9.83021 9.74303 10.2427C9.33053 10.6552 8.84546 10.9818 8.28783 11.2224C7.73019 11.463 7.13435 11.5833 6.50033 11.5833Z" fill="#1379F0"/>
</g>
</svg>
