<svg width="28" height="28" viewBox="0 0 28 28" fill="none" xmlns="http://www.w3.org/2000/svg">
<path opacity="0.1" d="M14.9375 5.12549C15.2005 5.12554 15.4612 5.17692 15.7041 5.27783C15.9471 5.3788 16.1678 5.52692 16.3535 5.71338C16.5392 5.89985 16.6862 6.1213 16.7861 6.36475C16.8861 6.6082 16.9366 6.86915 16.9356 7.13232V7.60303H17.6377C18.1652 7.60479 18.6828 7.7516 19.1328 8.02686C19.5826 8.30205 19.9487 8.69501 20.1904 9.16357L21.0986 10.9067L22.5029 13.6079C22.7324 14.0256 22.8548 14.4937 22.8584 14.9702V18.3237C22.8606 19.0912 22.5579 19.8285 22.0176 20.3735C21.4773 20.9185 20.743 21.2265 19.9756 21.231H19.2979C19.1692 21.703 18.8888 22.1204 18.5 22.4175C18.1113 22.7143 17.6356 22.8755 17.1465 22.8755C16.6574 22.8755 16.1817 22.7143 15.793 22.4175C15.4042 22.1204 15.1238 21.703 14.9951 21.231H12.7901C12.6614 21.703 12.381 22.1204 11.9922 22.4175C11.6034 22.7145 11.127 22.8755 10.6377 22.8755C10.1486 22.8754 9.67291 22.7144 9.28419 22.4175C8.89537 22.1204 8.61499 21.703 8.48634 21.231H8.02345C7.64214 21.2309 7.2643 21.1564 6.91212 21.0103C6.55989 20.864 6.24 20.6495 5.97071 20.3794C5.70141 20.1093 5.48799 19.7887 5.34279 19.436C5.19758 19.0833 5.12393 18.7051 5.12501 18.3237V8.93311C5.12501 7.92469 5.52504 6.95749 6.23732 6.24365C6.94956 5.52986 7.91549 5.12773 8.92384 5.12549H14.9375ZM19.624 12.0005C19.5728 12.0023 19.5233 12.0217 19.4854 12.0562C19.4476 12.0905 19.4237 12.1374 19.417 12.188V15.1167C19.4157 15.1446 19.4199 15.1726 19.4297 15.1987C19.4395 15.2248 19.4544 15.2489 19.4736 15.269C19.493 15.2893 19.5163 15.3059 19.542 15.3169C19.5678 15.3279 19.596 15.3335 19.624 15.3335H21.9209V15.2583C21.9289 14.9302 21.8513 14.6056 21.6953 14.3169L20.5654 12.0005H19.624Z" fill="#8E9198"/>
<path d="M22.5912 13.604L21.1739 10.8777L20.2568 9.11855C20.0127 8.64532 19.6434 8.24815 19.1892 7.97031C18.7349 7.69246 18.2131 7.5446 17.6806 7.54282H16.972V7.06761C16.9731 6.80195 16.9217 6.53869 16.8208 6.29294C16.7199 6.0472 16.5715 5.82379 16.384 5.63556C16.1965 5.44732 15.9737 5.29796 15.7284 5.19605C15.4831 5.09413 15.22 5.04167 14.9544 5.04167H8.88492C7.86702 5.04388 6.89157 5.44979 6.17258 6.17033C5.4536 6.89088 5.04981 7.86721 5.04982 8.88511V18.3645C5.04872 18.7495 5.1236 19.1309 5.27017 19.4869C5.41675 19.8429 5.63213 20.1665 5.90397 20.4391C6.17582 20.7117 6.49879 20.928 6.85437 21.0756C7.20996 21.2232 7.59117 21.2992 7.97617 21.2992H8.44305C8.57291 21.7757 8.85587 22.1963 9.24834 22.4961C9.64081 22.7959 10.121 22.9583 10.6149 22.9583C11.1088 22.9583 11.589 22.7959 11.9814 22.4961C12.3739 22.1963 12.6569 21.7757 12.7867 21.2992H15.0127C15.1426 21.7757 15.4256 22.1963 15.818 22.4961C16.2105 22.7959 16.6907 22.9583 17.1846 22.9583C17.6785 22.9583 18.1586 22.7959 18.5511 22.4961C18.9436 22.1963 19.2266 21.7757 19.3564 21.2992H20.0401C20.8147 21.2948 21.556 20.9834 22.1015 20.4332C22.6469 19.8831 22.952 19.1392 22.9497 18.3645V14.9796C22.9462 14.4984 22.823 14.0257 22.5912 13.604ZM21.4824 14.1792C21.6206 14.4349 21.6896 14.7223 21.6825 15.0129V15.0796H19.6482C19.6234 15.0797 19.5989 15.0747 19.576 15.0649C19.5532 15.0552 19.5326 15.0409 19.5155 15.023C19.4983 15.0051 19.485 14.9839 19.4763 14.9606C19.4676 14.9374 19.4637 14.9127 19.4648 14.8879V12.295C19.4707 12.25 19.4924 12.2086 19.5259 12.178C19.5595 12.1475 19.6029 12.1299 19.6482 12.1283H20.4819L21.4824 14.1792ZM6.30873 8.88511C6.30872 8.20032 6.5796 7.54333 7.06226 7.05755C7.54491 6.57177 8.20014 6.29665 8.88492 6.29225H14.9544C15.1586 6.29444 15.3537 6.3771 15.4973 6.52227C15.6409 6.66744 15.7214 6.8634 15.7214 7.06761V14.2876C15.7192 14.4896 15.6374 14.6825 15.4938 14.8246C15.3502 14.9666 15.1564 15.0463 14.9544 15.0463H6.30873V8.88511ZM10.6024 21.716C10.3953 21.721 10.1914 21.6641 10.0167 21.5527C9.8421 21.4412 9.70464 21.2803 9.62191 21.0903C9.53918 20.9004 9.51494 20.6901 9.55229 20.4863C9.58963 20.2826 9.68686 20.0945 9.83156 19.9463C9.97626 19.798 10.1619 19.6962 10.3647 19.654C10.5675 19.6117 10.7783 19.6308 10.9702 19.7089C11.1621 19.787 11.3263 19.9205 11.442 20.0924C11.5576 20.2643 11.6195 20.4667 11.6195 20.6739C11.6217 20.9466 11.5161 21.2092 11.3256 21.4044C11.1351 21.5996 10.8751 21.7116 10.6024 21.716ZM17.1721 21.716C16.8957 21.716 16.6306 21.6062 16.4352 21.4108C16.2397 21.2153 16.1299 20.9503 16.1299 20.6739C16.1299 20.3975 16.2397 20.1324 16.4352 19.937C16.6306 19.7415 16.8957 19.6317 17.1721 19.6317C17.4485 19.6317 17.7135 19.7415 17.909 19.937C18.1044 20.1324 18.2142 20.3975 18.2142 20.6739C18.2142 20.9503 18.1044 21.2153 17.909 21.4108C17.7135 21.6062 17.4485 21.716 17.1721 21.716ZM21.6825 18.3812C21.6825 18.8234 21.5068 19.2475 21.1941 19.5602C20.8814 19.8729 20.4573 20.0486 20.015 20.0486H19.3314C19.2015 19.5721 18.9186 19.1515 18.5261 18.8517C18.1336 18.5518 17.6535 18.3894 17.1596 18.3894C16.6657 18.3894 16.1855 18.5518 15.793 18.8517C15.4006 19.1515 15.1176 19.5721 14.9877 20.0486H12.77C12.6402 19.5721 12.3572 19.1515 11.9647 18.8517C11.5723 18.5518 11.0921 18.3894 10.5982 18.3894C10.1043 18.3894 9.62414 18.5518 9.23167 18.8517C8.8392 19.1515 8.55623 19.5721 8.42637 20.0486H7.97617C7.53393 20.0486 7.10982 19.8729 6.79711 19.5602C6.48441 19.2475 6.30873 18.8234 6.30873 18.3812V16.2969H14.9544C15.2189 16.298 15.4811 16.2468 15.7259 16.1463C15.9706 16.0458 16.1931 15.898 16.3805 15.7113C16.568 15.5246 16.7167 15.3028 16.8182 15.0584C16.9197 14.8141 16.972 14.5522 16.972 14.2876V8.7934H17.6806C17.984 8.79581 18.2809 8.88093 18.5395 9.03959C18.7981 9.19825 19.0084 9.42445 19.148 9.69382L19.7649 10.8777H19.6482C19.2671 10.8732 18.8997 11.0198 18.6263 11.2854C18.3529 11.5509 18.1958 11.9139 18.1892 12.295V14.7962C18.18 14.9921 18.2112 15.1879 18.2807 15.3714C18.3503 15.5548 18.4567 15.7221 18.5935 15.8627C18.7302 16.0034 18.8944 16.1145 19.0758 16.1892C19.2572 16.2638 19.4521 16.3005 19.6482 16.2969H21.7075L21.6825 18.3812Z" fill="#8E9198"/>
<rect x="1" y="1.5" width="11" height="11" rx="5.5" fill="white"/>
<mask id="mask0_187_75127" style="mask-type:alpha" maskUnits="userSpaceOnUse" x="1" y="1" width="11" height="12">
<rect x="1" y="1.5" width="11" height="11" fill="#3398CD"/>
</mask>
<g mask="url(#mask0_187_75127)">
<path d="M5.85866 9.10834L9.08991 5.87709L8.44824 5.23542L5.85866 7.82501L4.55241 6.51875L3.91074 7.16042L5.85866 9.10834ZM6.50033 11.5833C5.8663 11.5833 5.27046 11.463 4.71283 11.2224C4.15519 10.9818 3.67012 10.6552 3.25762 10.2427C2.84512 9.83021 2.51855 9.34514 2.27793 8.78751C2.0373 8.22987 1.91699 7.63403 1.91699 7.00001C1.91699 6.36598 2.0373 5.77014 2.27793 5.21251C2.51855 4.65487 2.84512 4.1698 3.25762 3.7573C3.67012 3.3448 4.15519 3.01823 4.71283 2.77761C5.27046 2.53698 5.8663 2.41667 6.50033 2.41667C7.13435 2.41667 7.73019 2.53698 8.28783 2.77761C8.84546 3.01823 9.33053 3.3448 9.74303 3.7573C10.1555 4.1698 10.4821 4.65487 10.7227 5.21251C10.9633 5.77014 11.0837 6.36598 11.0837 7.00001C11.0837 7.63403 10.9633 8.22987 10.7227 8.78751C10.4821 9.34514 10.1555 9.83021 9.74303 10.2427C9.33053 10.6552 8.84546 10.9818 8.28783 11.2224C7.73019 11.463 7.13435 11.5833 6.50033 11.5833Z" fill="#8E9198"/>
</g>
</svg>
