<svg width="16" height="16" viewBox="0 0 16 16" fill="none" xmlns="http://www.w3.org/2000/svg">
<path opacity="0.1" d="M6.21545 8.00049C8.98861 8.00049 11.1898 9.52006 11.1901 11.4663C11.1901 13.4127 8.98878 14.9331 6.21545 14.9331C3.44212 14.9331 1.26624 13.4127 1.26624 11.4663C1.2665 9.52006 3.44229 8.00049 6.21545 8.00049ZM11.0787 8.3335C13.179 8.3335 14.8258 9.50179 14.8258 10.9956C14.8257 12.2595 13.6255 13.3256 11.902 13.6001H11.8258C11.7121 13.6 11.6018 13.5595 11.5153 13.4858C11.3463 13.3418 11.3898 13.0874 11.4381 12.8706C11.7277 11.5695 11.4887 10.2004 10.7653 9.06982L10.6002 8.81201C10.6002 8.68507 10.6501 8.56291 10.7399 8.47314C10.8296 8.38338 10.9518 8.33352 11.0787 8.3335ZM10.8756 2.34717C11.5693 2.33188 12.2405 2.5931 12.7418 3.07275C13.2432 3.55249 13.5341 4.21201 13.5494 4.90576C13.5646 5.59936 13.3035 6.27068 12.8239 6.77197C12.3441 7.27335 11.6846 7.56331 10.9908 7.57861L10.9137 7.57275C10.7922 7.58272 10.67 7.58274 10.5485 7.57275C10.4858 7.56411 10.4253 7.54324 10.3707 7.51123C10.3161 7.47912 10.2682 7.4359 10.2301 7.38525C10.192 7.33462 10.1638 7.27671 10.1481 7.21533C10.1324 7.15412 10.1293 7.09037 10.1383 7.02783L10.1754 6.91943C10.5912 5.72267 10.6919 4.4409 10.4703 3.19775C10.4263 2.95078 10.3584 2.66515 10.5358 2.48779C10.6259 2.39779 10.7482 2.34717 10.8756 2.34717ZM6.16663 1.06689C6.58248 1.06689 6.99434 1.14897 7.37854 1.30811C7.76269 1.46724 8.11187 1.70061 8.40588 1.99463C8.69984 2.28864 8.93331 2.63787 9.09241 3.02197C9.25138 3.40591 9.33355 3.81736 9.33362 4.23291C9.33362 4.85922 9.1474 5.47192 8.79944 5.99268C8.45151 6.51335 7.95708 6.91902 7.37854 7.15869C6.79991 7.39837 6.16274 7.46154 5.54846 7.33936C4.93434 7.21712 4.37014 6.91494 3.92737 6.47217C3.48465 6.02934 3.18332 5.46522 3.06116 4.85107C2.93901 4.23697 3.00132 3.60048 3.24084 3.02197C3.48052 2.44334 3.88708 1.94806 4.40784 1.6001C4.92848 1.25235 5.54052 1.06691 6.16663 1.06689Z" fill="#FF8801"/>
<path d="M6.18823 7.95508C9.00633 7.95508 11.2429 9.4997 11.2429 11.4775C11.2428 13.4553 9.00625 15 6.18823 15C3.37039 14.9999 1.16003 13.4552 1.15991 11.4775C1.15991 9.49979 3.37032 7.95522 6.18823 7.95508ZM6.18823 8.92383C3.98434 8.92396 2.12964 10.0944 2.12964 11.4775C2.12979 12.8606 3.98442 14.0301 6.18823 14.0303C8.38574 14.0303 10.2408 12.8607 10.241 11.4775C10.241 10.0943 8.3923 8.92383 6.18823 8.92383ZM11.0554 8.31055C13.1819 8.31055 14.8494 9.49339 14.8494 11.0059C14.8492 12.2856 13.6345 13.3647 11.8894 13.6426H11.8123C11.6972 13.6425 11.5854 13.6019 11.4978 13.5273C11.4102 13.4527 11.3522 13.349 11.3337 13.2354C11.315 13.1088 11.3459 12.9797 11.4207 12.876C11.4955 12.7722 11.6082 12.7019 11.7341 12.6797C12.9815 12.4858 13.8805 11.7814 13.8806 11.0059C13.8806 10.0686 12.5873 9.28027 11.0554 9.28027C10.9269 9.28021 10.8035 9.22855 10.7126 9.1377C10.6219 9.04681 10.571 8.92338 10.571 8.79492C10.5711 8.66644 10.6218 8.54301 10.7126 8.45215C10.8035 8.36129 10.9269 8.31061 11.0554 8.31055ZM10.8875 2.3252C11.5869 2.30977 12.2638 2.57299 12.7693 3.05664C13.2747 3.54028 13.5673 4.20491 13.5828 4.9043C13.5981 5.60365 13.3349 6.28071 12.8513 6.78613C12.3677 7.29142 11.7029 7.58418 11.0037 7.59961L10.9265 7.59277C10.804 7.60284 10.6808 7.60282 10.5583 7.59277C10.495 7.58405 10.4338 7.56265 10.3787 7.53027C10.3236 7.49793 10.2755 7.45528 10.2371 7.4043C10.1987 7.35332 10.1709 7.29519 10.155 7.2334C10.1392 7.17161 10.1352 7.10709 10.1443 7.04395C10.165 6.91764 10.2335 6.80361 10.3357 6.72656C10.438 6.64951 10.5669 6.61488 10.6941 6.62988C10.7843 6.63651 10.8753 6.63653 10.9656 6.62988C11.1844 6.62474 11.4001 6.57671 11.6003 6.48828C11.8006 6.39983 11.9814 6.27256 12.1326 6.11426C12.2838 5.95581 12.4031 5.76872 12.4822 5.56445C12.5612 5.36035 12.5986 5.14263 12.5935 4.92383C12.5884 4.70484 12.5404 4.48846 12.4519 4.28809C12.3634 4.08784 12.2363 3.90703 12.0779 3.75586C11.9196 3.60474 11.7331 3.48631 11.5291 3.40723C11.3248 3.32813 11.1064 3.28983 10.8875 3.29492C10.7589 3.29488 10.6355 3.24322 10.5447 3.15234C10.4539 3.06146 10.4031 2.93801 10.4031 2.80957C10.4032 2.68114 10.4539 2.55762 10.5447 2.4668C10.6355 2.37599 10.759 2.32524 10.8875 2.3252ZM6.18823 1C6.61263 1 7.03344 1.08368 7.42554 1.24609C7.81741 1.40844 8.17341 1.6464 8.47339 1.94629C8.77349 2.24639 9.01215 2.60302 9.17456 2.99512C9.33689 3.38707 9.42061 3.8072 9.42065 4.23145C9.42065 4.87063 9.23084 5.49588 8.87573 6.02734C8.52064 6.55875 8.01601 6.97318 7.42554 7.21777C6.83507 7.46235 6.18519 7.52601 5.55835 7.40137C4.93145 7.27667 4.35505 6.96857 3.90308 6.5166C3.45133 6.06471 3.14397 5.489 3.01929 4.8623C2.89459 4.23543 2.9583 3.58562 3.20288 2.99512C3.44748 2.40459 3.86186 1.90003 4.39331 1.54492C4.92466 1.18988 5.54919 1.00008 6.18823 1ZM7.09448 2.05762C6.67025 1.88129 6.20347 1.83423 5.75269 1.92285C5.30167 2.01159 4.88623 2.23154 4.5603 2.55566C4.2344 2.87978 4.01189 3.29365 3.92065 3.74414C3.82945 4.19462 3.87446 4.66253 4.04858 5.08789C4.22275 5.51305 4.51839 5.87765 4.89917 6.13477C5.28001 6.39191 5.72872 6.53057 6.18823 6.5332C6.80655 6.53321 7.4002 6.28757 7.83862 5.85156C8.27684 5.41562 8.52462 4.82418 8.52808 4.20605C8.52807 3.7464 8.39256 3.29643 8.13745 2.91406C7.88234 2.53178 7.51884 2.23408 7.09448 2.05762Z" fill="#FF8801"/>
</svg>
