<svg width="16" height="16" viewBox="0 0 16 16" fill="none" xmlns="http://www.w3.org/2000/svg">
<path opacity="0.1" d="M5.33905 8.46704C5.92099 8.4671 6.47931 8.69812 6.89081 9.10962C7.30221 9.52115 7.53339 10.0795 7.53339 10.6614V12.4387C7.52855 13.018 7.29561 13.5722 6.88495 13.9807C6.47415 14.3892 5.91838 14.6197 5.33905 14.6213V14.6331H3.56073C2.97936 14.6313 2.42202 14.3996 2.01093 13.9885C1.59988 13.5774 1.36801 13.0201 1.36639 12.4387V10.6614C1.36639 10.0795 1.59763 9.52114 2.00897 9.10962C2.42042 8.69817 2.97887 8.46715 3.56073 8.46704H5.33905ZM12.4387 8.46704C13.0207 8.46704 13.5789 8.69807 13.9904 9.10962C14.4019 9.52116 14.633 10.0794 14.633 10.6614V12.4387C14.6282 13.0181 14.3953 13.5722 13.9846 13.9807C13.5737 14.3893 13.0181 14.6197 12.4387 14.6213V14.6331H10.6613C10.0798 14.6314 9.52271 14.3997 9.11151 13.9885C8.70031 13.5773 8.4686 13.0202 8.46698 12.4387V10.6614C8.46698 10.0794 8.69803 9.52116 9.10956 9.10962C9.52111 8.69807 10.0793 8.46704 10.6613 8.46704H12.4387ZM5.33905 1.36646C5.92094 1.36652 6.47932 1.59759 6.89081 2.00903C7.30226 2.42049 7.53328 2.97892 7.53339 3.56079V5.33911C7.52848 5.91835 7.29565 6.47262 6.88495 6.8811C6.47415 7.28961 5.91838 7.5191 5.33905 7.52075V7.53345H3.56073C2.97936 7.53172 2.42202 7.30001 2.01093 6.88892C1.59984 6.47778 1.36808 5.9205 1.36639 5.33911V3.56079C1.3665 2.97892 1.59752 2.42048 2.00897 2.00903C2.42042 1.59758 2.97887 1.36657 3.56073 1.36646H5.33905ZM12.4387 1.36646C13.0205 1.36646 13.5789 1.59766 13.9904 2.00903C14.4019 2.42049 14.6329 2.97892 14.633 3.56079V5.33911C14.6281 5.91841 14.3954 6.47261 13.9846 6.8811C13.5737 7.28963 13.018 7.51916 12.4387 7.52075V7.53345H10.6613C10.0799 7.53183 9.52269 7.29999 9.11151 6.88892C8.70037 6.47778 8.46866 5.92054 8.46698 5.33911V3.56079C8.46709 2.97892 8.69811 2.42049 9.10956 2.00903C9.52108 1.59766 10.0794 1.36646 10.6613 1.36646H12.4387Z" fill="#FF8801"/>
<path d="M5.35195 7.55211H3.5535C2.96518 7.55048 2.40143 7.31604 1.98542 6.90004C1.56941 6.48403 1.33498 5.92028 1.33334 5.33196V3.52731C1.33499 2.93956 1.56962 2.37645 1.9858 1.96143C2.40198 1.54641 2.96575 1.31335 3.5535 1.31335H5.35195C5.9397 1.31335 6.50346 1.54641 6.91965 1.96143C7.33583 2.37645 7.57046 2.93956 7.5721 3.52731V5.33196C7.57047 5.92028 7.33603 6.48403 6.92003 6.90004C6.50402 7.31604 5.94027 7.55048 5.35195 7.55211ZM3.5535 2.24359C3.21246 2.24358 2.8853 2.37863 2.64357 2.6192C2.40184 2.85977 2.26522 3.18628 2.26358 3.52731V5.33196C2.26358 5.67407 2.39948 6.00216 2.64139 6.24407C2.88329 6.48598 3.21139 6.62188 3.5535 6.62188H5.35195C5.69406 6.62188 6.02215 6.48598 6.26406 6.24407C6.50597 6.00216 6.64187 5.67407 6.64187 5.33196V3.52731C6.64023 3.18628 6.50361 2.85977 6.26188 2.6192C6.02015 2.37863 5.69299 2.24358 5.35195 2.24359H3.5535ZM12.4465 7.57072H10.6481C10.0593 7.57072 9.49455 7.33681 9.07819 6.92045C8.66183 6.50409 8.42792 5.93939 8.42792 5.35056V3.55211C8.42955 2.9638 8.66399 2.40004 9.07999 1.98404C9.496 1.56803 10.0598 1.3336 10.6481 1.33196H12.4465C13.0348 1.3336 13.5986 1.56803 14.0146 1.98404C14.4306 2.40004 14.665 2.9638 14.6667 3.55211V5.35056C14.6667 5.93939 14.4328 6.50409 14.0164 6.92045C13.6 7.33681 13.0353 7.57072 12.4465 7.57072ZM10.6481 2.26219C10.306 2.26219 9.97787 2.39809 9.73596 2.64C9.49405 2.88191 9.35815 3.21001 9.35815 3.55211V5.35056C9.35815 5.69267 9.49405 6.02077 9.73596 6.26268C9.97787 6.50458 10.306 6.64049 10.6481 6.64049H12.4465C12.7886 6.64049 13.1167 6.50458 13.3586 6.26268C13.6005 6.02077 13.7364 5.69267 13.7364 5.35056V3.55211C13.7364 3.21001 13.6005 2.88191 13.3586 2.64C13.1167 2.39809 12.7886 2.26219 12.4465 2.26219H10.6481ZM5.35195 14.6653H3.5535C2.96518 14.6637 2.40143 14.4292 1.98542 14.0132C1.56941 13.5972 1.33498 13.0335 1.33334 12.4451V10.6467C1.33334 10.0579 1.56725 9.49316 1.98361 9.0768C2.39997 8.66044 2.96468 8.42653 3.5535 8.42653H5.35195C5.94077 8.42653 6.50547 8.66044 6.92183 9.0768C7.33819 9.49316 7.5721 10.0579 7.5721 10.6467V12.4451C7.56721 13.0313 7.33133 13.5919 6.91568 14.0052C6.50003 14.4185 5.93813 14.6513 5.35195 14.6529V14.6653ZM3.5535 9.35677C3.21139 9.35677 2.88329 9.49267 2.64139 9.73457C2.39948 9.97648 2.26358 10.3046 2.26358 10.6467V12.4451C2.26358 12.7872 2.39948 13.1153 2.64139 13.3573C2.88329 13.5992 3.21139 13.7351 3.5535 13.7351H5.35195C5.69406 13.7351 6.02215 13.5992 6.26406 13.3573C6.50597 13.1153 6.64187 12.7872 6.64187 12.4451V10.6467C6.64187 10.3046 6.50597 9.97648 6.26406 9.73457C6.02215 9.49267 5.69406 9.35677 5.35195 9.35677H3.5535ZM12.4465 14.6839H10.6481C10.0603 14.6839 9.49656 14.4508 9.08037 14.0358C8.66419 13.6208 8.42956 13.0577 8.42792 12.4699V10.6529C8.42955 10.0646 8.66399 9.50082 9.07999 9.08481C9.496 8.6688 10.0598 8.43437 10.6481 8.43273H12.4465C13.0348 8.43437 13.5986 8.6688 14.0146 9.08481C14.4306 9.50082 14.665 10.0646 14.6667 10.6529V12.4575C14.665 13.0453 14.4304 13.6084 14.0142 14.0234C13.598 14.4384 13.0343 14.6715 12.4465 14.6715V14.6839ZM10.6481 9.37537C10.306 9.37537 9.97787 9.51127 9.73596 9.75318C9.49405 9.99509 9.35815 10.3232 9.35815 10.6653V12.4575C9.35979 12.7986 9.49641 13.1251 9.73814 13.3656C9.97987 13.6062 10.307 13.7413 10.6481 13.7413H12.4465C12.7876 13.7413 13.1147 13.6062 13.3564 13.3656C13.5982 13.1251 13.7348 12.7986 13.7364 12.4575V10.6529C13.7364 10.3108 13.6005 9.98268 13.3586 9.74078C13.1167 9.49887 12.7886 9.36297 12.4465 9.36297L10.6481 9.37537Z" fill="#FF8801"/>
</svg>
