<svg width="16" height="16" viewBox="0 0 16 16" fill="none" xmlns="http://www.w3.org/2000/svg">
<g clip-path="url(#clip0_169_52806)">
<path opacity="0.1" d="M7.93333 0.799988C6.49612 0.799988 5.09119 1.22617 3.89619 2.02464C2.70119 2.82311 1.76981 3.95801 1.21981 5.28582C0.669813 6.61363 0.525908 8.07471 0.806294 9.48431C1.08668 10.8939 1.77876 12.1887 2.79502 13.205C3.81129 14.2212 5.10608 14.9133 6.51568 15.1937C7.92527 15.4741 9.38635 15.3302 10.7142 14.7802C12.042 14.2302 13.1769 13.2988 13.9753 12.1038C14.7738 10.9088 15.2 9.50386 15.2 8.06665C15.1982 6.13996 14.432 4.2927 13.0697 2.93032C11.7073 1.56795 9.86002 0.801778 7.93333 0.799988Z" fill="#3398CD"/>
<path d="M8 1.62173C9.26151 1.62173 10.4947 1.99581 11.5436 2.69666C12.5925 3.39752 13.41 4.39367 13.8928 5.55915C14.3755 6.72463 14.5018 8.00709 14.2557 9.24436C14.0096 10.4816 13.4022 11.6181 12.5101 12.5102C11.6181 13.4022 10.4816 14.0096 9.24434 14.2558C8.00707 14.5019 6.72461 14.3756 5.55913 13.8928C4.39365 13.41 3.3975 12.5925 2.69664 11.5436C1.99579 10.4947 1.62171 9.26153 1.62171 8.00002C1.62171 6.30839 2.2937 4.68605 3.48986 3.48988C4.68603 2.29372 6.30837 1.62173 8 1.62173ZM7.36558 9.00963L5.27132 6.90855C5.14897 6.79391 4.9887 6.72834 4.82108 6.72436C4.69518 6.7256 4.57244 6.76388 4.46815 6.83443C4.36386 6.90497 4.28264 7.00465 4.23463 7.12104C4.18662 7.23744 4.17393 7.36539 4.19816 7.48894C4.22238 7.6125 4.28244 7.72619 4.37085 7.81583L6.91535 10.3672C7.04027 10.4784 7.20172 10.5398 7.36899 10.5398C7.53626 10.5398 7.69771 10.4784 7.82263 10.3672L11.6428 6.54017C11.7312 6.45053 11.7913 6.33684 11.8155 6.21328C11.8397 6.08973 11.827 5.96178 11.779 5.84539C11.731 5.72899 11.6498 5.62931 11.5455 5.55877C11.4412 5.48822 11.3185 5.44994 11.1926 5.4487C11.0249 5.45268 10.8647 5.51825 10.7423 5.63289L7.3724 9.04374M8 0.666687C6.5496 0.666687 5.13178 1.09678 3.92582 1.90258C2.71986 2.70837 1.77993 3.85368 1.22488 5.19367C0.669842 6.53367 0.524617 8.00815 0.807575 9.43068C1.09053 10.8532 1.78897 12.1599 2.81455 13.1855C3.84014 14.2111 5.14681 14.9095 6.56934 15.1924C7.99186 15.4754 9.46635 15.3302 10.8063 14.7751C12.1463 14.2201 13.2916 13.2802 14.0974 12.0742C14.9032 10.8682 15.3333 9.45041 15.3333 8.00002C15.3315 6.05565 14.5583 4.19144 13.1835 2.81657C11.8086 1.44169 9.94437 0.668493 8 0.666687Z" fill="#3398CD"/>
</g>
<defs>
<clipPath id="clip0_169_52806">
<rect width="16" height="16" fill="white"/>
</clipPath>
</defs>
</svg>
