<svg width="16" height="16" viewBox="0 0 16 16" fill="none" xmlns="http://www.w3.org/2000/svg">
<path opacity="0.1" d="M7.53052 1.11338C7.99686 1.02045 8.48098 1.06783 8.92017 1.2501C9.35929 1.43237 9.73482 1.74105 9.99829 2.13681C10.2181 2.46703 10.3494 2.84591 10.387 3.23838C10.4143 3.25196 10.4428 3.26434 10.47 3.27842L11.7239 3.92685C12.3988 4.43506 12.962 5.07733 13.3782 5.8126C13.7943 6.54782 14.0545 7.36107 14.1428 8.20127L14.0989 9.36338C14.0959 9.44185 14.0896 9.51989 14.0833 9.59775C14.3096 9.76343 14.5072 9.96727 14.6643 10.2032C14.9278 10.599 15.0679 11.0646 15.0667 11.5401C15.0649 12.173 14.8132 12.7794 14.3665 13.2276C13.9194 13.6759 13.313 13.9302 12.6799 13.9337C12.307 13.9357 11.9408 13.8489 11.6086 13.6856L10.4876 14.4776C9.71515 14.81 8.88211 14.9791 8.04126 14.9747C7.15557 14.9765 6.27997 14.7862 5.47486 14.4171L4.38208 13.6563C4.04478 13.8335 3.66752 13.9316 3.27954 13.9337C2.80417 13.9362 2.33908 13.7966 1.94263 13.5343C1.54609 13.2719 1.23645 12.8978 1.05298 12.4591C0.869534 12.0204 0.819734 11.537 0.911381 11.0704C1.00306 10.6039 1.23194 10.1756 1.56763 9.83896C1.69373 9.71252 1.8324 9.60058 1.98169 9.50596C1.97668 9.42064 1.97186 9.33507 1.97095 9.24912L1.96021 8.19443C2.04908 7.33937 2.31613 6.5121 2.74439 5.7667C3.17264 5.02135 3.75265 4.37371 4.44654 3.86631L5.53833 3.29306C5.5622 3.28053 5.58659 3.26908 5.6106 3.25693C5.61802 3.17242 5.62832 3.08779 5.64478 3.004C5.73644 2.53745 5.96528 2.10825 6.30103 1.77158C6.63662 1.43523 7.06457 1.20634 7.53052 1.11338Z" fill="#FF8801"/>
<path d="M8.03677 14.9703C7.15086 14.9721 6.27509 14.7818 5.46981 14.4125C5.34966 14.3543 5.2567 14.2518 5.21036 14.1266C5.16402 14.0013 5.1679 13.863 5.22117 13.7406C5.27814 13.6192 5.38053 13.5251 5.50625 13.4786C5.63196 13.4321 5.77093 13.4369 5.89315 13.4919C6.54826 13.79 7.25835 13.9482 7.97805 13.9563C8.69775 13.9644 9.41122 13.8223 10.0729 13.539C10.1953 13.4927 10.3308 13.4951 10.4514 13.5458C10.5721 13.5965 10.6687 13.6916 10.7213 13.8114C10.7738 13.9312 10.7784 14.0667 10.734 14.1898C10.6897 14.3129 10.5997 14.4143 10.4828 14.473C9.71036 14.8054 8.87764 14.9747 8.03677 14.9703ZM13.6881 8.75447C13.7544 8.74778 13.8188 8.72799 13.8774 8.69626C13.9361 8.66452 13.9878 8.62147 14.0297 8.5696C14.0716 8.51772 14.1027 8.45806 14.1214 8.39405C14.14 8.33005 14.1458 8.26298 14.1383 8.19673C14.05 7.35647 13.7897 6.5434 13.3735 5.80813C12.9573 5.07286 12.3942 4.43114 11.7192 3.92294C11.6108 3.8556 11.4812 3.83127 11.3557 3.85474C11.2303 3.87821 11.1182 3.94779 11.0415 4.04977C10.9648 4.15175 10.9291 4.27874 10.9413 4.40575C10.9536 4.53277 11.0129 4.65059 11.1077 4.73603C11.6694 5.16029 12.1381 5.69524 12.4848 6.30782C12.8316 6.9204 13.049 7.59759 13.1237 8.29753C13.1369 8.4223 13.1955 8.53785 13.2885 8.62213C13.3814 8.70641 13.5022 8.75352 13.6276 8.75447H13.6881ZM2.93644 8.29753C3.01367 7.58106 3.24086 6.88887 3.60324 6.266C3.96562 5.64313 4.45506 5.10352 5.03974 4.68228C5.10233 4.64675 5.1567 4.5984 5.1993 4.54039C5.24189 4.48237 5.27175 4.41602 5.2869 4.34566C5.30205 4.2753 5.30217 4.20254 5.28723 4.13214C5.27229 4.06173 5.24265 3.99528 5.20023 3.93714C5.15782 3.879 5.10359 3.83048 5.04111 3.79476C4.97863 3.75904 4.90931 3.73693 4.83768 3.72988C4.76606 3.72283 4.69376 3.73099 4.62551 3.75384C4.55726 3.77669 4.49462 3.81371 4.44168 3.86246C3.74775 4.3699 3.16794 5.01721 2.73968 5.76262C2.31142 6.50802 2.04423 7.33495 1.95535 8.19001C1.9479 8.25626 1.95367 8.32333 1.97233 8.38733C1.99098 8.45134 2.02215 8.511 2.06402 8.56288C2.1059 8.61475 2.15765 8.6578 2.21628 8.68954C2.27491 8.72127 2.33925 8.74106 2.40558 8.74775H2.45934C2.58026 8.74222 2.69528 8.69391 2.7839 8.61145C2.87251 8.52899 2.92895 8.41774 2.94316 8.29753H2.93644ZM10.4492 3.48615C10.4505 2.99886 10.307 2.52216 10.037 2.11654C9.76697 1.71092 9.38253 1.39465 8.93246 1.20787C8.48239 1.02109 7.98698 0.972214 7.50908 1.06745C7.03119 1.16268 6.59236 1.39773 6.24827 1.74276C5.90417 2.0878 5.67033 2.52728 5.57641 3.00543C5.48249 3.48358 5.53272 3.97886 5.72074 4.42841C5.90875 4.87797 6.22607 5.26155 6.63244 5.53047C7.0388 5.79939 7.51589 5.94154 8.00317 5.93888C8.65196 5.93533 9.27307 5.67557 9.73122 5.21617C10.1894 4.75677 10.4474 4.13495 10.4492 3.48615ZM9.44121 3.48615C9.4412 3.7738 9.35572 4.05495 9.19563 4.29393C9.03553 4.5329 8.80805 4.71893 8.54204 4.82838C8.27603 4.93783 7.9835 4.96578 7.70158 4.90868C7.41966 4.85157 7.16107 4.71199 6.95862 4.50765C6.75617 4.30331 6.619 4.04343 6.56453 3.76099C6.51005 3.47855 6.54072 3.1863 6.65264 2.92132C6.76456 2.65634 6.95269 2.43059 7.19315 2.27273C7.4336 2.11487 7.71554 2.03201 8.00317 2.03467C8.38579 2.03822 8.75154 2.1927 9.02084 2.46452C9.29015 2.73635 9.44122 3.10351 9.44121 3.48615ZM5.75204 11.5499C5.7587 11.0618 5.61998 10.5828 5.35352 10.1738C5.08706 9.76478 4.70491 9.44433 4.25574 9.25321C3.80657 9.0621 3.31069 9.00896 2.83122 9.10058C2.35176 9.19219 1.9104 9.42441 1.56334 9.76767C1.21628 10.1109 0.979207 10.5497 0.882313 11.0281C0.78542 11.5066 0.833085 12.003 1.01924 12.4542C1.2054 12.9055 1.52162 13.2911 1.92766 13.5621C2.33369 13.833 2.81117 13.977 3.29931 13.9758C3.95043 13.974 4.57428 13.7141 5.03406 13.253C5.49384 12.792 5.75204 12.1674 5.75204 11.5163V11.5499ZM4.74407 11.5499C4.73745 11.8357 4.64656 12.1133 4.4828 12.3476C4.31904 12.582 4.08971 12.7628 3.82359 12.8673C3.55747 12.9718 3.2664 12.9954 2.98692 12.9351C2.70743 12.8748 2.45198 12.7334 2.25261 12.5284C2.05324 12.3235 1.91883 12.0642 1.86626 11.7832C1.81368 11.5022 1.84528 11.2119 1.95708 10.9487C2.06888 10.6856 2.25591 10.4613 2.4947 10.3041C2.73349 10.1468 3.0134 10.0636 3.29931 10.0648C3.6831 10.0666 4.05057 10.2203 4.32132 10.4923C4.59207 10.7643 4.74407 11.1325 4.74407 11.5163V11.5499ZM15.1665 11.5499C15.1731 11.0621 15.0346 10.5833 14.7684 10.1745C14.5023 9.76563 14.1205 9.44518 13.6717 9.25386C13.223 9.06255 12.7274 9.00903 12.2481 9.1001C11.7689 9.19117 11.3275 9.42272 10.9802 9.7653C10.6328 10.1079 10.3952 10.546 10.2976 11.024C10.1999 11.502 10.2466 11.9982 10.4318 12.4496C10.6169 12.9009 10.9321 13.2871 11.3372 13.5588C11.7424 13.8306 12.2192 13.9757 12.707 13.9758C13.3593 13.9758 13.9849 13.7166 14.4461 13.2554C14.9074 12.7942 15.1665 12.1686 15.1665 11.5163V11.5499ZM14.1585 11.5499C14.1519 11.8355 14.0612 12.1127 13.8977 12.3469C13.7343 12.5812 13.5053 12.762 13.2396 12.8667C12.9739 12.9714 12.6831 12.9954 12.4038 12.9357C12.1245 12.8759 11.869 12.7351 11.6694 12.5309C11.4697 12.3266 11.3348 12.068 11.2815 11.7874C11.2281 11.5067 11.2588 11.2166 11.3696 10.9534C11.4803 10.6901 11.6663 10.4654 11.9042 10.3073C12.1421 10.1493 12.4214 10.0649 12.707 10.0648C13.092 10.0648 13.4612 10.2178 13.7334 10.49C14.0056 10.7622 14.1585 11.1314 14.1585 11.5163V11.5499Z" fill="#FF8801"/>
</svg>
