<svg xmlns="http://www.w3.org/2000/svg" fill="none" viewBox="86 33 241.39 169.44">
<path d="M164.639 195.68C162.196 195.976 159.884 196.35 157.658 194.451C156.857 193.758 154.989 194.311 153.603 194.295C153.378 194.762 153.059 195.221 152.522 195.26C151.027 195.377 149.362 197.424 148.078 195.385C146.895 193.501 147.175 191.486 149.167 190.03C152 188.513 154.958 188.178 158.11 188.878C160.888 189.501 161.581 188.73 160.896 186.014C160.639 185.003 160.125 184.123 159.573 183.251C158.623 181.765 157.036 180.131 159.106 178.582C160.997 177.165 163.207 177.235 165.13 178.839C165.628 179.251 165.846 179.889 165.947 180.543C164.896 183.983 164.32 187.376 165.371 191.003C165.791 192.427 166.064 194.319 164.639 195.68Z" fill="#F3C2DB"/>
<path d="M284.664 184.738C287.015 185.057 288.774 185.882 288.4 188.116C288.089 189.999 287.638 192.505 284.781 192.147C282.633 191.875 280.026 191.252 280.314 188.443C280.555 186.092 282.61 184.901 284.664 184.738Z" fill="#FDA20B"/>
<path d="M238.668 194.171C239.189 193.135 239.711 192.1 240.225 191.057C245.696 191.057 251.159 191.057 256.631 191.057C256.669 191.462 256.708 191.859 256.747 192.264C250.84 193.673 244.824 194.42 238.668 194.171Z" fill="#FDC4E2"/>
<path d="M146.093 198.7C146.42 198.903 146.732 199.206 147.09 199.292C147.961 199.494 147.883 199.035 147.487 198.552C146.747 197.657 146.654 196.708 147.066 195.649C147.969 196.397 148.187 198.459 150.094 197.19C152.872 199.292 155.806 200.981 159.503 200.942C154.911 202.981 150.421 203.074 146.008 200.397C146.031 199.837 146.062 199.268 146.093 198.7Z" fill="#91CBED"/>
<path d="M164.64 195.68C165.223 192.567 164.251 189.555 164.079 186.489C163.955 184.279 164.577 182.169 165.465 180.154C165.597 178.955 166.017 177.959 167.294 177.578C167.698 177.609 167.994 177.803 168.196 178.154C168.422 180.216 167.644 181.882 166.173 183.267C164.468 186.948 166.585 190.52 166.453 194.163C166.422 194.676 166.297 195.198 166.367 195.696C166.492 196.544 167.099 197.774 165.901 197.945C164.251 198.171 165.091 196.443 164.64 195.68Z" fill="#5B74BA"/>
<path d="M115.234 178.06C115.148 179.173 114.3 179.438 113.405 179.57C112.541 179.702 111.887 179.438 111.918 178.41C111.949 177.469 112.206 176.566 113.327 176.511C114.307 176.473 114.969 177.049 115.234 178.06Z" fill="#DF7535"/>
<path d="M226.208 194.941C228.698 193.447 231.415 194.466 234.022 194.233C231.531 195.688 228.815 194.715 226.208 194.941Z" fill="#FDC4E2"/>
<path d="M175.667 183.251C175.643 182.995 175.589 182.746 175.495 182.504C175.348 179.967 177.021 179.959 178.795 180.138C179.698 180.232 180.329 180.776 179.916 181.679C179.06 183.539 177.768 184.574 175.667 183.251Z" fill="#FEBF40"/>
<path d="M181.068 183.15C182.469 185.096 181.434 187.384 181.955 189.454C181.387 190.108 180.477 190.591 180.407 189.392C180.305 187.322 179.551 185.08 181.068 183.15Z" fill="#A2668A"/>
<path d="M242.591 178.683C243.587 178.893 245.019 178.084 245.431 179.687C245.665 180.613 244.91 181.018 244.085 181.026C242.342 181.049 242.528 179.819 242.614 178.667L242.591 178.683Z" fill="#75CBF6"/>
<path d="M174.142 138.08C174.858 136.329 173.254 136.259 172.383 135.745C170.071 134.36 167.744 133.045 165.814 131.099C161.137 126.398 161.059 122.351 165.682 117.495C166.39 116.755 167.137 116.047 167.869 115.323C169.207 114.872 170.087 115.588 170.873 116.506C178.453 125.386 188.322 130.313 199.443 133.13C200.774 133.465 202.876 133.27 202.237 135.784C201.335 139.006 199.482 141.435 195.56 142.851C204.813 144.945 213.219 144.96 221.523 141.972C221.866 141.746 222.224 141.722 222.597 141.894C224.231 144.758 227.313 146.937 226.823 150.813C225.516 151.77 223.951 151.972 222.426 152.284C218.784 152.042 216.433 154.689 213.585 156.237C210.783 157.327 207.895 157.234 204.985 156.93C199.973 153.918 197.14 148.968 194.058 144.314C191.808 140.913 189.232 138.329 184.96 138.033C181.489 137.138 178.492 137.987 175.939 140.485C173.815 141.8 171.589 142.555 169.075 141.785C167.627 140.376 168.81 139.839 169.931 139.403C171.301 138.89 172.889 138.999 174.142 138.08Z" fill="#FD9702"/>
<path d="M145.268 116.475C149.805 119.728 153.237 123.993 156.405 128.515C158.522 131.535 160.771 134.461 162.966 137.434C162.608 141.481 159.565 141.8 156.693 141.411C150.529 140.586 144.31 139.465 138.644 136.936C132.029 133.986 125.748 130.328 120.324 125.332C117.966 123.153 118.082 121.347 119.872 118.997C125.616 111.447 134.411 109.875 142.544 115.059C143.415 115.611 144.17 116.374 145.268 116.475Z" fill="#FD9702"/>
<path d="M128.254 169.203C128.176 168.472 128.098 167.748 128.028 167.016C127.304 163.615 128.277 160.129 127.491 156.735C126.612 152.004 129.491 149.964 133.313 148.595C133.974 147.178 135.375 147.264 136.589 147.046C141.22 146.213 145.726 144.633 150.489 144.555C151.447 144.82 151.96 145.419 151.921 146.439C149.82 149.124 148.186 152.004 148.147 155.537C147.166 157.234 145.485 156.767 144.006 156.821C141.329 156.914 138.605 156.518 136.029 157.701C138.55 156.595 141.22 157.016 143.827 156.798C146.722 156.564 148.528 157.576 149.151 160.479C149.672 161.818 150.116 163.18 150.178 164.627C150.302 166.651 149.983 168.705 150.629 170.698C150.941 172.317 151.112 173.943 151.135 175.593C151.081 176.029 150.863 176.364 150.505 176.605C148.077 177.274 146.014 175.951 143.812 175.383C141.92 174.893 139.99 175.025 138.068 175.025C136.34 175.009 134.791 175.936 133.087 175.99C128.067 176.348 128.09 176.356 129.873 170.814C130.316 169.421 128.705 169.842 128.254 169.203Z" fill="#027ADA"/>
<path d="M233.991 190.334C236.069 190.575 238.147 190.816 240.225 191.065C240.871 192.684 239.727 193.408 238.668 194.178C237.12 194.202 235.579 194.217 234.03 194.241C231.485 195.182 228.745 193.929 226.216 194.941C209.257 197.128 192.517 192.038 175.581 193.4C173.332 193.579 170.927 192.785 169.036 194.91C167.97 196.109 167.511 193.789 166.452 194.163C164.608 190.777 163.79 187.275 165.191 183.516C167.145 182.092 168.437 183.539 169.207 184.878C170.639 187.337 171.752 187.252 173.207 185.018C173.752 184.178 174.492 183.454 175.488 183.096C176.352 182.66 177.558 182.964 178.258 181.679C176.865 181.119 176.313 182.574 175.356 182.761C173.246 181.469 173.06 179.524 173.783 177.469C174.499 175.414 176.157 174.449 178.29 174.799C179.986 175.072 180.912 174.27 181.714 173.017C182.228 172.721 182.757 172.682 183.31 172.9C184.259 173.71 184.166 174.768 183.847 175.764C183.255 177.586 183.092 178.932 184.991 180.426C186.283 181.438 186.041 183.392 183.559 183.485C182.913 183.508 182.259 183.399 181.745 183.905C181.364 185.329 180.399 186.777 182.088 187.999C182.889 187.571 183.847 186.917 184.601 187.33C189.365 189.914 189.442 186.232 190.135 183.314C194.151 183.944 197.785 183.236 200.751 180.232C202.105 182.216 200.852 184.209 200.751 186.209C202.79 183.485 203 182.139 202.479 175.259C202.447 174.869 202.486 174.488 202.595 174.107C205.21 172.231 207.14 173.367 208.479 177.554C206.549 180.364 205.187 183.143 206.16 186.855C206.992 190.03 208.596 191.509 211.756 191.54C219.18 191.602 226.636 191.859 233.991 190.334Z" fill="#F5ABD3"/>
<path d="M150.6 145.069C144.95 146.789 139.089 147.482 133.314 148.595C127.711 148.424 122.457 147.015 117.539 144.283C108.028 139.006 106.627 129.963 114.262 122.172C116.613 119.767 119.165 117.557 121.64 115.285C128.045 109.385 132.147 108.786 139.914 112.716C141.86 113.705 143.837 114.732 145.269 116.483C143.868 117.822 143.222 116.148 142.366 115.674C136.817 112.599 131.221 112.117 125.415 114.981C122.714 116.312 121.461 118.935 119.632 121.052C118.691 122.141 119.212 122.904 120.294 123.869C128.933 131.543 138.498 137.31 150.164 138.999C152.444 139.325 154.499 140.485 156.912 140.579C159.667 140.68 161.698 139.956 162.959 137.442C166.508 140.656 170.391 138.158 174.135 138.088C173.178 140.633 169.458 138.617 168.64 141.403C166.679 144.338 163.41 143.956 160.546 144.626C159.208 144.571 157.9 145.054 156.554 144.921C155.814 144.797 155.184 144.462 154.616 143.987C153.721 142.61 152.219 143.085 150.958 142.804C146.576 141.754 142.124 141.014 137.875 139.427C130.528 136.687 124.092 132.337 117.539 128.181C114.27 128.297 112.55 132.235 114.542 135.481C116.114 138.041 118.387 139.971 120.924 141.621C125.858 144.82 131.314 145.131 136.972 145.022C139.743 144.968 139.525 141.886 141.587 141.388C144.234 141.201 146.74 142.252 149.355 142.267C150.172 142.579 150.693 143.162 150.935 144.003C151.059 144.423 150.942 144.781 150.6 145.069Z" fill="#F27704"/>
<path d="M287.553 128.725C289.942 128.819 293.25 127.503 292.635 132.157C292.526 132.99 293.514 133.325 294.184 133.698C295.429 135.629 294.806 137.792 294.962 139.862C294.978 140.267 294.97 140.672 294.962 141.077C295.258 144.618 292.651 146.384 290.331 148.097C287.047 150.509 284.206 153.389 281.327 156.206C280.338 157.171 279.272 156.946 278.377 157.529C276.315 158.728 274.221 159.833 271.769 159.973C269.069 159.529 266.851 158.191 264.944 156.276C264.827 155.918 264.812 155.552 264.913 155.179C265.613 154.237 266.321 153.537 267.746 153.716C272.213 154.276 273.271 153.202 272.867 148.852C272.797 148.081 272.836 147.318 273.116 146.579C273.357 146.057 273.746 145.692 274.299 145.505C277.326 145.629 278.47 144.151 277.972 141.232C277.801 140.213 277.731 139.178 278.743 138.469C280.401 137.746 282.027 137.201 282.455 139.8C282.626 140.827 282.984 141.528 284.16 141.318C284.992 141.162 285.576 140.648 285.498 139.746C285.413 138.781 284.922 137.893 283.864 137.979C282.074 138.119 280.657 137.372 279.218 136.524C278.657 136.22 278.12 135.885 277.529 135.652C272.299 133.621 272.12 132.484 276.4 128.601C279.552 127.519 280.766 131.091 283.303 131.48C284.471 132.072 284.751 133.091 284.65 134.368C284.992 133.231 285.42 132.212 286.136 131.34C286.673 130.523 286.93 129.519 287.553 128.725Z" fill="#067BD5"/>
<path d="M255.223 181.329C252.693 185.236 249.853 185.843 245.899 183.796C242.311 181.936 238.264 181.843 234.303 181.648C231.4 181.313 227.835 182.504 226.598 178.317C227.454 176.34 229.384 175.36 230.8 173.896C234.567 170.021 236.824 165.281 238.863 160.401C242.311 154.759 244.272 148.369 247.751 142.75C248.327 141.816 248.817 140.189 250.148 140.711C251.425 141.209 250.965 142.765 250.576 143.832C249.246 147.45 248.483 151.319 245.969 154.424C244.864 155.786 244.335 157.475 244.436 159.14C244.77 164.596 242.506 169.188 240.007 173.764C238.194 177.072 238.754 178.13 242.311 178.426C242.615 178.574 242.7 179.01 243.089 179.056C242.895 178.955 242.724 178.823 242.568 178.628C242.241 176.971 244.039 176.34 244.28 174.955C244.988 173.663 246.055 172.721 247.222 171.865C249.393 169.219 249.837 166.028 250.008 162.79C250.164 159.825 250.063 156.844 250.055 153.871C250.055 151.894 250.467 150.011 251.16 148.198C251.627 146.96 252.475 145.66 253.962 146.057C255.285 146.408 255.254 147.917 255.051 149.038C254.04 154.688 254.732 160.385 254.553 166.051C254.584 170.052 254.421 174.068 255.565 177.982C255.884 179.095 255.978 180.278 255.223 181.329Z" fill="#027BDC"/>
<path d="M146.007 200.405C145.423 199.906 144.684 199.51 144.279 198.895C141.508 194.638 137.967 193.408 133.08 195.237C131.943 195.665 130.823 195.75 129.663 195.735C125.281 195.68 120.978 194.568 116.557 194.902C115.452 194.988 113.934 194.708 113.81 193.338C113.677 191.914 115.249 191.454 116.277 191.345C119.343 191.011 122.332 189.96 125.468 190.295C127.476 190.513 128.363 189.571 128.153 187.579C127.904 185.174 128.799 182.644 127.383 180.364C127.492 179.983 127.632 179.609 127.928 179.36C129.072 178.387 130.091 176.55 131.702 177.173C133.072 177.702 132.519 179.679 132.784 181.01C132.932 181.749 133.165 182.504 133.134 182.963C132.994 182.084 132.955 180.846 132.659 179.687C132.122 177.609 132.636 176.076 134.66 175.29C136.769 174.472 138.442 175.204 139.633 177.08C141.306 179.718 142.131 182.745 143.493 185.524C144.061 186.684 144.31 188.038 145.197 188.979C146.886 190.754 147.369 192.622 146.466 194.972C145.999 196.179 146.614 197.517 146.723 198.801C146.692 199.44 146.505 199.992 146.007 200.405Z" fill="#F0E1EF"/>
<path d="M206.938 122.561C206.463 123.869 205.747 125.137 205.553 126.484C205.179 129.122 203.654 129.823 201.303 129.527C200.151 129.885 198.992 129.838 197.863 129.511C188.072 126.694 179.667 121.674 173.028 113.852C172.522 113.253 172.157 112.568 172.328 111.728C174.997 109.844 177.659 107.961 180.329 106.077C181.55 105.603 182.243 106.326 182.905 107.183C187.543 113.199 193.91 116.724 200.805 119.433C202.969 120.273 205.124 121.075 206.938 122.561Z" fill="#FDA102"/>
<path d="M226.776 178.091C228.379 181.189 231.811 180.411 234.302 181.648C230.675 183.072 232.924 186.574 231.819 188.94C231.282 190.1 233.01 190.201 233.991 190.334C231.033 192.046 227.803 192.629 224.441 192.629C219.81 192.629 215.18 192.661 210.549 192.606C207.366 192.567 205.825 190.878 205.14 187.742C204.214 183.477 204.237 179.726 208.268 177.017C210.774 177.002 212.969 175.858 215.257 175.048C216.479 175.118 217.281 175.873 218.02 176.737C218.627 177.842 219.919 178.465 220.184 179.819C219.709 181.578 216.347 181.866 217.623 184.403C218.736 186.629 221.165 186.076 223.134 186.364C224.457 186.559 225.78 186.466 226.387 184.987C226.932 183.664 226.605 182.434 225.585 181.461C224.41 180.333 223.593 179.064 223.865 177.391C224.091 176.013 224.488 174.69 226.332 175.943C226.893 176.566 226.97 177.305 226.776 178.091Z" fill="#FDC4E2"/>
<path d="M226.956 150.719C226.146 147.56 222.535 145.738 222.831 142.049C224.994 138.532 228.847 140.026 231.859 139.014C233.135 138.633 235.003 139.606 235.478 137.419C239.276 136.376 243.183 136.897 247.035 136.633C247.409 136.749 247.743 136.944 248.039 137.216C247.401 140.065 244.638 140.672 242.723 142.151C241.626 142.991 240.264 143.474 238.887 144.135C239.914 144.439 240.902 144.26 241.758 144.711C242.28 144.968 242.716 145.334 243.113 145.754C245.245 148.914 244.926 150.719 241.431 155.405C238.614 155.467 238.443 156.891 239.603 159C238.458 160.471 236.824 160.09 235.306 160.144C234.917 160.129 234.536 160.066 234.155 159.973C231.719 159.078 230.185 157.171 228.722 155.171C228.053 153.91 227.314 152.673 226.956 151.272C226.956 151.077 226.956 150.898 226.956 150.719Z" fill="#026FC7"/>
<path d="M199.84 55.6451C200.151 56.3378 200.743 57.0383 200.743 57.7309C200.727 62.2916 201.466 66.3153 206.712 67.7473C207.117 67.8563 207.607 68.4634 207.677 68.8992C208.588 74.6662 213.366 74.6818 217.561 75.7247C227.368 78.1529 230.745 81.0403 230.675 90.4108C230.667 91.4459 230.784 92.5744 231.889 93.0725C236.006 94.9248 237.252 99.0185 239.314 102.482C239.088 103.027 239.291 103.75 238.614 104.093C237.096 101.307 235.415 98.8784 232.037 97.8433C229.726 97.1273 228.348 94.8625 227.041 92.8156C226.76 92.6522 226.698 92.4343 226.869 92.1541C226.667 91.01 226.34 89.8815 226.278 88.7297C225.819 80.6823 224.457 79.4371 216.316 79.7717C209.265 80.0597 206.984 78.4798 204.369 71.9267C203.288 69.2105 201.77 66.9924 198.276 69.4051C196.867 70.3779 195.124 69.9966 194.158 68.5178C193.053 66.829 194.12 65.646 195.567 64.7121C198.042 63.1088 197.785 61.3343 195.824 59.4898C195.419 59.0462 195.411 58.5481 195.653 58.0267C197.248 57.5986 197.995 55.6685 199.84 55.6451Z" fill="#1089E7"/>
<path d="M192.704 85.2585C192.961 85.6944 193.474 86.1536 193.435 86.5583C192.82 92.4265 197.311 93.5783 201.327 95.1115C205.203 96.5825 208.939 98.3025 212.386 100.614C214.254 101.867 215.803 103.439 216.69 105.486C217.78 108.008 215.943 110.35 213.281 109.658C205.265 107.572 198.167 103.782 192.385 97.7188C190.992 96.2556 190.688 94.6134 191.225 92.7222C191.824 90.6287 191.653 88.6441 190.307 86.854C190.696 85.6944 191.318 84.9005 192.704 85.2585Z" fill="#EE7304"/>
<path d="M184.034 103.175C186.229 101.556 187.825 99.3532 189.584 97.283C195.21 105.797 203.546 109.665 213.15 111.946C211.617 114.366 210.418 116.763 208.208 118.444C207.515 118.989 206.651 118.857 205.997 118.654C198.036 116.148 190.922 112.164 184.914 106.311C184.066 105.486 183.521 104.451 184.034 103.175Z" fill="#FC9F05"/>
<path d="M278.368 157.529C283.699 153.599 287.816 148.299 293.241 144.47C294.245 143.762 293.747 142.283 294.074 141.185C295.623 141.092 296.105 143.17 297.88 142.968C297.56 141.435 295.49 141.435 295.288 139.94C295.444 139.574 295.693 139.294 296.027 139.092C298.603 137.528 301.506 139.224 304.137 138.251C307.219 137.271 310.254 137.286 313.157 138.82C314.348 139.442 315.399 140.384 315.048 141.87C314.667 143.489 313.157 143.466 311.889 143.411C310.052 143.334 308.293 142.797 306.892 141.559C304.977 139.87 302.876 139.411 300.456 140.182C300.432 140.438 300.292 140.804 300.401 140.89C305.149 145.124 305.211 145.271 299.273 147.49C295.763 148.797 292.774 150.953 289.101 152.821C292.315 152.875 294.798 153.762 296.019 156.58C296.627 157.981 296.634 159.203 294.447 158.852C291.412 158.37 288.462 157.918 288.26 153.856C288.221 153.054 287.692 152.058 286.711 151.817C286.384 151.739 285.785 152.183 285.528 152.548C284.898 153.428 285.777 153.918 286.19 154.51C287.038 155.724 288.774 157 287.272 158.487C285.746 159.989 283.987 158.634 282.314 158.035C281.092 157.599 279.629 158.245 278.368 157.529Z" fill="#468D6D"/>
<path d="M265.139 155.918C267.092 157.685 270.104 157.716 271.762 159.973C274.198 164.744 279.148 164.845 283.381 165.67C286.565 166.285 288.144 167.094 287.475 170.495C286.526 175.336 285.662 175.827 281.14 174.877C275.91 173.78 271.396 171.515 267.621 167.74C266.897 167.016 266.119 166.3 264.983 166.3C262.049 164.386 261.839 160.985 260.531 158.183C260.461 157.934 260.376 157.677 260.376 157.428C260.337 155.802 259.675 153.591 261.582 153C263.434 152.416 264.306 154.471 265.139 155.918Z" fill="#F48F0E"/>
<path d="M172.329 111.72C179.325 120.46 188.408 125.955 199.132 128.858C199.864 129.052 200.58 129.301 201.304 129.519C202.58 131.465 203.794 133.426 202.23 135.792C202.137 135.006 202.02 134.376 200.977 134.189C188.213 131.87 177.325 126.289 169.216 115.876C168.959 115.541 168.321 115.502 167.861 115.323C169.356 114.125 170.842 112.926 172.329 111.72Z" fill="#FDF8D8"/>
<path d="M266.267 170.83C267.403 172.69 268.586 174.519 269.668 176.41C271.022 178.768 270.734 180.278 267.59 180.465C265.683 180.574 263.768 181.189 262.064 179.788C257.581 172.488 255.091 164.573 254.709 156.004C254.803 153.716 254.476 151.404 255.075 149.139C255.394 147.941 256.04 146.929 257.278 146.758C258.842 146.54 258.99 148.011 259.356 149.023C260.266 151.575 260.476 154.245 260.546 156.93C260.663 157.319 260.756 157.724 260.827 158.121C262.827 162.269 263.737 166.9 266.267 170.83Z" fill="#028BE9"/>
<path d="M192.703 85.2585C191.901 85.7878 191.1 86.317 190.298 86.854C185.621 82.877 179.643 83.4063 174.157 82.3089C171.464 81.7719 168.872 81.1103 166.553 79.655C162.023 76.8142 161.914 76.1449 165.284 71.2651C169.643 77.2267 176.32 77.7482 182.757 78.9545C186.874 79.7094 190.843 80.8691 192.703 85.2585Z" fill="#FB9807"/>
<path d="M184.034 103.175C188.485 110.132 195.638 113.347 202.743 116.592C204.487 117.386 206.386 117.837 208.207 118.444C207.826 120.071 205.771 119.191 205.164 120.709C205.172 121.666 208.269 120.234 206.938 122.569C202.409 120.849 197.716 119.612 193.42 117.238C188.275 114.39 184.158 110.428 180.329 106.085C181.512 105.042 183.193 104.653 184.034 103.175Z" fill="#FDF8D9"/>
<path d="M238.77 131.877C240.256 131.947 241.743 132.017 243.229 132.095C244.607 132.593 245.51 132.274 246.49 131.005C247.844 129.254 250.024 128.422 252.063 127.643C253.736 126.997 255.067 127.799 255.939 129.332C256.195 130.873 254.966 131.239 253.977 131.768C252.981 132.297 251.759 132.554 251.487 133.916C251.222 135.986 251.23 138.321 247.992 137.38L248 137.395C247.774 137.076 247.448 136.671 247.121 136.749C242.186 137.901 237.322 136.22 232.419 136.453C228.637 135.761 224.846 134.897 221.227 137.123C219.601 138.127 218.846 137.426 218.799 135.706C218.752 134.041 218.612 132.336 220.13 131.114C224.232 135.014 229.376 133.823 234.24 133.979C235.104 134.01 235.594 133.566 235.906 132.694C236.443 131.177 237.61 131.434 238.77 131.877Z" fill="#026FC7"/>
<path d="M255.799 129.278C252.133 126.593 249.821 130.056 247.222 131.418C245.798 132.165 244.786 133.045 243.229 132.088C246.646 131.737 245.634 130.352 243.992 128.827C244.654 128.002 245.689 127.838 246.545 127.379C247.915 126.647 247.129 126.118 246.428 125.55C246.164 125.324 245.891 125.091 245.627 124.865C246.171 122.382 249.222 122.974 250.257 121.09C252.273 120.787 253.604 119.736 253.736 116.584C255.806 120.444 258.219 120.849 261.091 119.433C261.527 122.227 263.651 125.231 260.071 127.519C258.639 128.079 257.41 129.146 255.799 129.278Z" fill="#F2E8C8"/>
<path d="M149.876 190.24C148.016 191.376 147.65 193.462 148.638 194.809C150.101 196.786 151.954 194.809 153.611 194.295C153.666 196.747 150.638 195.478 150.094 197.206C148.358 199.369 147.961 197.735 147.323 196.334C146.638 197.572 149.774 198.614 147.774 199.836C147.004 200.311 146.451 199.416 146.093 198.716C145.852 198.28 145.315 197.758 145.408 197.408C147.424 189.828 140.933 184.987 139.276 178.589C138.855 176.986 137.54 174.784 135.026 175.648C132.613 176.472 132.886 178.418 133.392 180.465C133.851 182.294 134.014 184.201 134.458 187.003C132.139 183.703 132.1 180.784 131.921 177.858C129.742 177.617 129.244 180.247 127.383 180.379C126.66 180.247 125.36 180.208 125.313 179.959C125.173 179.103 125.71 178.317 126.52 177.834C128.878 177.928 130.146 175.243 132.551 175.461C134.217 174.986 135.882 174.503 137.548 174.029C141.221 175.733 141.875 179.547 143.54 182.644C143.782 183.096 143.867 183.617 144.077 184.084C144.895 185.866 144.972 189.003 147.268 188.715C149.72 188.403 150.483 185.446 151.222 183.088C151.86 181.033 149.977 178.792 151.79 176.869C155.409 179.469 155.674 183.812 152.46 188.077C151.775 188.987 150.957 189.781 149.876 190.24Z" fill="#4D6EBE"/>
<path d="M259.565 127.177C260.514 125.807 262.717 124.826 260.6 122.6C259.752 121.713 260.834 120.499 261.09 119.44C261.674 118.95 262.258 118.468 262.842 117.977C265.309 116.716 268.274 118.507 270.655 116.693C271.924 116.358 272.982 116.514 273.543 117.884C274.531 118.849 276.43 122.592 276.742 124.196C277.24 125.2 277.458 126.173 276.391 126.99C273.932 127.371 271.146 128.585 271.239 124.095C271.294 121.448 268.671 122.188 267.184 121.697C265.511 121.137 264.756 122.515 264.834 123.877C264.896 125.091 263.059 126.11 264.616 127.511C264.997 127.854 264.18 128.865 263.464 129.27C261.97 129.753 260.701 129.363 259.588 128.313C259.331 127.939 259.324 127.558 259.565 127.177Z" fill="#FAAC11"/>
<path d="M250.257 121.098C250.631 124.709 246.747 123.098 245.626 124.873C243.533 124.624 240 126.468 239.836 123.308C239.712 120.896 243.315 120.53 245.782 120.335C246.14 120.304 246.49 120.25 246.957 119.977C244.646 119.487 242.988 117.977 241.253 116.623C239.595 115.331 237.929 113.845 238.287 111.541C238.497 110.194 239.992 109.953 241.167 110.358C243.338 111.105 245.805 111.65 245.735 114.794C245.696 116.413 245.813 118.016 248.086 117.985C248.662 118.273 249.105 118.639 248.825 119.378C248.452 120.662 249.152 121.051 250.257 121.098Z" fill="#5C9470"/>
<path d="M238.771 131.877C238.381 131.924 237.767 131.83 237.65 132.033C234.428 137.512 229.369 133.908 225.213 134.718C221.719 135.395 221.018 133.426 220.139 131.099C221.944 127.916 224.972 128.507 227.665 129.005C231.408 129.706 235.074 130.897 238.771 131.877Z" fill="#06A5F6"/>
<path d="M191.132 46.2747C190.712 41.2159 191.654 36.7097 196.682 34.2425C197.966 33.6121 200.098 31.8454 200.892 34.1491C201.491 35.9003 202.908 39.0678 198.845 39.7761C196.697 40.1496 195.203 41.4883 194.643 43.7764C194.246 45.4108 193.421 46.8817 192.066 47.9869C190.634 48.0414 190.704 47.2553 191.132 46.2747Z" fill="#1897F5"/>
<path d="M288.486 108.257C287.49 117.456 291.988 118.079 298.3 118.009C301.351 117.97 302.347 115.697 303.958 113.977C304.884 114.514 304.448 115.495 304.69 116.257C301.755 120.803 298.448 122.235 293.319 121.231C292.439 121.059 291.521 121.067 290.626 120.989C290.463 120.974 290.291 120.95 290.128 120.935C290.906 119.153 289.856 118.748 288.4 118.654C287.365 118.32 286.641 117.759 286.883 116.514C287.941 113.86 286.447 110.716 288.486 108.257Z" fill="#7DCEF8"/>
<path d="M109.926 88.2939C108.175 88.037 105.934 87.4455 105.622 84.5192C105.373 82.161 107.778 79.7017 110.167 79.834C112.619 79.9663 114.565 81.196 114.588 83.7331C114.604 86.1069 113.732 88.3873 109.926 88.2939Z" fill="#0A5AE5"/>
<path d="M255.222 181.329C253.961 176.379 252.957 171.406 253.579 166.246C254.35 161.864 253.315 157.374 254.163 152.852C255.953 153.436 255.136 154.798 255.377 155.755C255.198 162.604 256.98 169.126 258.662 175.663C259.027 177.08 260.024 178.519 258.739 179.983C257.502 180.271 256.731 181.765 255.222 181.329Z" fill="#CE6017"/>
<path d="M274.384 101.602C276.407 99.9678 275.925 97.6486 275.839 95.555C275.738 93.1112 276.579 91.29 278.563 89.9748C279.038 89.6635 279.614 89.8658 279.785 90.4573C280.377 92.5353 280.198 94.59 279.077 96.4345C277.17 99.5787 274.469 102.404 275.31 107.089C276.695 105.058 277.769 103.182 279.878 102.482C280.633 102.233 281.458 102.061 282.003 102.809C282.423 103.384 282.05 103.999 281.785 104.606C280.423 107.743 277.575 108.023 274.454 108.342C274.454 106.077 274.454 103.805 274.454 101.54L274.384 101.602Z" fill="#418E8C"/>
<path d="M276.516 126.515C276.532 125.737 276.158 124.92 276.742 124.196C278.641 124.281 280.626 123.55 282.151 125.674C283.326 127.324 284.198 125.184 285.241 124.904C285.49 125.067 285.591 125.254 285.544 125.457C285.49 125.674 285.428 125.776 285.358 125.776C284.486 127.955 285.934 128.398 287.552 128.718C287.529 129.776 288.276 130.975 286.969 131.792C285.638 131.706 284.299 131.403 282.984 131.893C280.392 131.815 279.147 129.114 276.734 128.686C276.345 128.344 276.205 127.9 276.197 127.402C276.236 127.091 276.345 126.795 276.516 126.515Z" fill="#E6DFCE"/>
<path d="M238.605 104.093C238.839 103.556 239.072 103.019 239.306 102.482C243.532 105.657 248.785 107.315 252.443 111.346C252.848 111.798 253.634 111.922 253.58 112.739C249.385 113.471 240.917 108.583 238.605 104.093Z" fill="#0B5BB8"/>
<path d="M308.191 130.554C307.421 133.076 305.965 134.866 303.366 134.928C301.389 134.975 299.342 134.064 299.436 131.698C299.514 129.62 300.58 127.27 303.016 127.542C304.86 127.745 307.545 127.76 308.191 130.554Z" fill="#0D86EB"/>
<path d="M258.74 179.983C256.42 172.278 254.654 164.479 255.082 156.354C255.222 156.136 255.354 155.926 255.494 155.708C255.58 155.95 255.666 156.191 255.751 156.432C255.883 162.728 258.031 168.519 260.257 174.286C260.95 176.084 261.464 177.944 262.063 179.78C260.864 178.294 259.837 179.718 258.74 179.983Z" fill="#F5DE84"/>
<path d="M130.854 64.3306C133.337 64.8287 135.182 65.7237 135.127 68.5255C135.088 70.798 133.633 71.9032 131.687 71.7553C129.555 71.5919 126.916 70.977 126.94 68.2686C126.963 66.1751 128.839 64.8364 130.854 64.3306Z" fill="#FDE324"/>
<path d="M268.056 99.3298C267.34 101.384 266.421 103.564 264.087 103.532C261.845 103.501 260.296 101.828 260.437 99.3687C260.569 96.9716 262.195 95.5629 264.445 95.4851C266.826 95.3917 267.464 97.4542 268.056 99.3298Z" fill="#C0D8B2"/>
<path d="M195.77 58.1435C195.785 58.5949 195.793 59.0385 195.809 59.4899C188.516 59.3343 185.745 56.8749 186.555 51.3258C186.703 50.3063 187.154 49.6758 188.049 49.2789C189.886 48.7186 190.384 49.956 190.804 51.3102C190.688 54.5245 194.275 54.4856 195.451 56.5792C195.746 57.0617 195.855 57.5831 195.77 58.1435Z" fill="#065BBE"/>
<path d="M211.796 88.5895C209.671 88.0681 208.114 86.9084 208.216 84.4024C208.293 82.3477 209.188 80.799 211.515 81.1258C213.508 81.406 215.905 81.585 215.718 84.5658C215.562 86.8617 214.488 88.4728 211.796 88.5895Z" fill="#FEB10C"/>
<path d="M269.823 74.2458C272.126 74.6272 274.259 75.351 274.259 77.6002C274.259 79.9506 272.469 81.834 270.087 81.8807C268.048 81.9197 266.461 80.3787 266.492 78.0905C266.515 75.8647 267.893 74.6272 269.823 74.2458Z" fill="#FDE218"/>
<path d="M220.816 121.946C218.878 121.495 216.621 120.935 216.449 118.833C216.294 116.958 217.679 115.035 219.913 114.934C222.248 114.833 224.645 116.078 224.8 118.335C224.917 119.97 222.847 121.441 220.816 121.946Z" fill="#92D7FC"/>
<path d="M117.25 61.9725C114.005 61.5678 114.378 58.1045 113.896 56.3534C113.312 54.2287 116.674 54.6801 117.896 54.789C119.881 54.9603 121.406 57.3963 121.655 58.9139C122.06 61.3811 119.157 61.2176 117.25 61.9725Z" fill="#FBAF32"/>
<path d="M87.8786 59.163C90.0811 59.8401 93.0152 59.3731 93.093 62.7742C93.1397 64.9067 91.9256 66.2531 89.8243 66.362C86.9836 66.5099 86.0808 64.751 86.0107 62.1515C85.964 60.5561 85.9874 59.2719 87.8786 59.163Z" fill="#FAB210"/>
<path d="M304.689 116.257C303.802 115.705 304.238 114.724 303.958 113.977C304.005 113.743 304.028 113.51 304.044 113.276C304.121 107.424 302.837 105.494 297.81 103.922H297.802C296.51 102.676 294.12 104.801 293.194 102.427C297.288 100.474 300.993 101.159 304.16 104.295C307.227 107.323 307.304 110.801 304.689 116.257Z" fill="#189EEE"/>
<path d="M250.608 96.3336C252.491 95.8432 254.553 97.7189 256.452 96.2246C257.215 97.5866 258.756 99.0731 258.569 100.295C258.219 102.575 255.993 103.315 253.775 103.291C251.946 103.268 251.51 102.147 252.281 100.676C253.44 98.4894 249.946 98.3649 250.608 96.3336Z" fill="#F9943F"/>
<path d="M228.816 104.669C230.084 105.089 232.186 105.361 231.843 106.583C231.205 108.871 231.252 110.475 233.042 112.156C233.602 112.685 232.73 113.666 231.96 113.821C230.785 114.055 229.718 113.3 229.664 112.272C229.586 110.802 229.376 109.961 227.687 109.829C225.889 109.689 225.251 108.179 225.492 106.755C225.772 105.112 227.648 105.276 228.816 104.669Z" fill="#FDD33D"/>
<path d="M270.632 117.113C270.08 117.682 270.368 119.627 268.827 118.545C266.85 117.16 264.811 118.359 262.842 117.977C263.892 116.405 265.838 117.713 267.177 116.537C266.764 115.456 266.142 114.335 265.955 113.152C265.76 111.938 265.558 110.366 267.021 109.759C268.329 109.214 269.091 110.42 269.823 111.292C270.313 111.876 270.702 112.537 271.138 113.167C271.644 114.568 271.551 115.891 270.632 117.113Z" fill="#D6E1D0"/>
<path d="M315.18 120.927C314.947 122.507 315.25 124.997 312.97 124.608C311.04 124.281 308.433 123.02 308.448 120.546C308.464 118.693 310.402 117.681 312.425 117.658C314.675 117.627 315.321 118.95 315.18 120.927Z" fill="#FBB11C"/>
<path d="M190.237 51.7849C189.832 50.6642 189.599 49.4034 188.058 49.2788C189.365 48.5628 190.431 47.6055 191.132 46.2825C191.28 46.944 191.256 47.6989 192.074 47.9947C190.922 49.8703 191.591 50.6097 193.622 51.1C196.237 51.7382 198.868 52.641 199.833 55.6529C198.627 56.727 198.378 59.3497 195.77 58.1512C195.56 57.7932 195.358 57.4352 195.155 57.085C194.961 53.9641 191.801 53.6138 190.237 51.7849Z" fill="#61CEFB"/>
<path d="M270.632 117.113C270.796 115.798 270.967 114.483 271.131 113.167C271.955 111.611 272.236 110.272 270.741 108.731C269.706 107.673 268.632 106.124 269.994 103.999C271.823 107.65 274.812 110.63 271.932 114.685C273.995 115.456 275.302 111.876 276.501 114.187C277.614 116.335 275.894 117.713 273.543 117.884C272.578 117.627 271.605 117.37 270.632 117.113Z" fill="#7BA696"/>
<path d="M280.773 117.822C279.015 117.752 278.003 116.989 278.174 115.432C278.408 113.277 279.279 111.253 281.7 110.934C283.443 110.7 285.132 112.374 285.046 113.549C284.883 115.876 282.602 116.911 280.773 117.822Z" fill="#529B86"/>
<path d="M144.528 50.0961C146.629 50.9833 147.376 52.6099 146.777 54.719C146.217 56.6959 144.372 57.373 142.66 57.7388C140.559 58.1902 139.391 56.8126 138.784 54.9214C140.38 52.9368 142.753 51.8705 144.528 50.0961Z" fill="#0B59AD"/>
<path d="M324.348 116.576C322.2 116.724 320.753 115.674 320.597 113.596C320.465 111.844 321.531 110.739 323.515 110.848C325.687 110.965 327.29 111.603 327.391 114.156C327.477 116.397 326.092 116.678 324.348 116.576Z" fill="#FBB012"/>
<path d="M324.35 143.723C326.062 144.283 327.377 145.357 327.183 147.03C326.91 149.35 324.863 149.949 322.879 150.011C321.019 150.073 320.427 148.634 320.7 147.116C321.042 145.162 322.63 144.26 324.35 143.723Z" fill="#1786DA"/>
<path d="M171.931 47.8468C173.262 47.909 174.608 48.7963 174.632 50.5396C174.663 52.5398 173.184 53.3414 171.269 53.3648C169.324 53.3881 168.483 52.423 168.538 50.5241C168.592 48.5706 169.651 47.7923 171.931 47.8468Z" fill="#C1D5AF"/>
<path d="M285.357 125.783C285.318 125.488 285.279 125.2 285.24 124.904C286.594 123.238 288.065 121.721 290.128 120.927C290.291 121.012 290.455 121.028 290.626 120.981C291.365 122.476 293.544 123.822 292.167 125.62C290.198 128.196 287.661 126.281 285.357 125.783Z" fill="#6CB179"/>
<path d="M226.855 92.1463C226.932 92.3642 226.987 92.5821 227.026 92.8078C227.018 95.4462 225.781 96.7459 223.142 96.0221C221.601 95.594 220.2 94.5667 220.675 92.6755C221.158 90.7687 222.644 90.5041 224.349 91.1579C225.189 91.477 226.022 91.8194 226.855 92.1463Z" fill="#D67C3C"/>
<path d="M111.599 163.024C110.253 162.775 108.673 162.355 109 160.277C109.272 158.564 110.447 157.498 112.253 157.817C114.058 158.136 115.358 159.397 115.132 161.265C114.93 162.962 113.358 163.195 111.599 163.024Z" fill="#1699EA"/>
<path d="M126.908 171.943C123.383 172.737 120.293 173.414 117.203 174.13C116.581 174.27 116.145 174.044 116.036 173.523C115.865 172.667 115.468 171.328 115.857 170.986C117.172 169.834 120.098 168.978 120.495 169.694C122.036 172.503 124.542 171.227 126.908 171.943Z" fill="#F2A724"/>
<path d="M232.419 136.446C234.614 135.185 237.034 135.745 239.244 136.01C241.961 136.345 244.513 136.749 247.23 135.823C249.829 134.936 247.899 136.773 248.008 137.395C243.836 137.411 239.665 138.594 235.493 137.419C234.271 137.699 233.438 136.78 232.419 136.446Z" fill="#05509A"/>
<path d="M132.55 175.453C131.11 176.519 129.274 176.963 128.137 178.527C126.783 180.395 127.25 177.624 126.511 177.827C129.873 175.515 127.266 171.99 128.254 169.196C129.935 167.974 131.196 168.441 131.819 170.293C132.589 172.597 130.83 171.678 129.725 172.036C128.106 172.558 129.562 174.262 128.861 175.258C130.239 176.099 131.453 173.414 132.55 175.453Z" fill="#67B7E6"/>
<path d="M159.331 70.6814C159.285 72.2691 158.289 73.0707 156.607 73.0007C154.895 72.9306 153.992 71.8021 154.008 70.2222C154.024 68.8758 154.701 67.5916 156.319 67.6539C158.024 67.7162 159.261 68.5489 159.331 70.6814Z" fill="#FDE120"/>
<path d="M309.943 165.328C311.733 165.561 312.55 166.791 312.908 168.417C313.368 170.542 311.57 170.402 310.472 170.503C308.947 170.643 307.546 169.888 307.359 168.231C307.18 166.581 308.324 165.678 309.943 165.328Z" fill="#FDBF24"/>
<path d="M246.577 66.6422C245.41 66.3309 244.242 65.4126 245.044 64.5798C246.204 63.3657 244.328 60.4082 247.425 60.5872C248.772 60.6651 250.274 61.1009 249.76 62.7898C249.27 64.3852 248.671 66.2609 246.577 66.6422Z" fill="#FBAD39"/>
<path d="M226.831 60.2136C227.15 63.0621 230.94 63.9338 228.481 66.5177C226.847 68.2377 224.8 67.1169 223.866 65.576C222.161 62.7353 225.718 62.7119 226.831 60.2136Z" fill="#FAA823"/>
<path d="M257.938 86.0913C257.534 87.6557 256.771 88.9398 254.973 89.0644C253.455 89.1733 252.537 88.3328 252.537 86.7996C252.537 85.0329 253.479 83.8421 255.277 83.8032C256.662 83.7721 257.635 84.6126 257.938 86.0913Z" fill="#FEDA31"/>
<path d="M144.528 50.0959C144.263 53.6604 141.578 54.3531 138.792 54.929C138.278 53.995 137.002 52.7187 138.177 52.0494C140.076 50.9831 141.796 48.6716 144.528 50.0959Z" fill="#12A6F4"/>
<path d="M231.866 139.014C228.932 140.252 225.64 140.423 222.838 142.049C222.403 142.026 221.967 142.003 221.531 141.979C221.188 138.648 222.932 137.722 225.897 138.158C227.874 138.462 229.874 138.734 231.866 139.014Z" fill="#F4DC8B"/>
<path d="M139.517 90.006C140.692 91.0489 142.015 92.0918 142.178 93.8118C142.287 94.9792 141.462 95.7185 140.202 95.4851C138.832 95.236 137.143 94.9636 137.018 93.3137C136.917 91.905 137.96 90.7531 139.517 90.006Z" fill="#198BDC"/>
<path d="M177.87 63.9027C177.473 65.5449 176.274 66.2064 174.998 66.2064C173.566 66.2064 172.601 65.1169 172.741 63.6537C172.897 62.0271 174.212 61.7391 175.621 61.8481C176.975 61.957 177.667 62.7353 177.87 63.9027Z" fill="#B9D1A6"/>
<path d="M167.488 97.7188C167.333 99.3609 166.22 99.4932 164.99 99.4466C163.434 99.3921 162.064 98.9796 162.305 97.065C162.476 95.6797 163.441 94.5823 164.905 94.8236C166.368 95.0726 167.294 96.2089 167.488 97.7188Z" fill="#FDCF11"/>
<path d="M304.137 138.251C301.234 138.749 298.331 139.247 295.428 139.746C294.697 137.668 295.895 136.306 297.211 134.99C298.207 135.037 299.833 134.71 299.95 135.737C300.277 138.703 302.347 138.103 304.137 138.251Z" fill="#D0DFD3"/>
<path d="M176.383 37.2544C176.531 36.1104 176.041 34.4526 178.189 34.764C179.512 34.9585 180.967 35.4177 180.881 36.9431C180.773 38.8266 179.091 39.2313 177.496 39.2857C175.924 39.3402 175.893 38.4141 176.383 37.2544Z" fill="#1E77DC"/>
<path d="M286.891 116.514C287.397 117.23 287.903 117.938 288.409 118.654C287.934 119.448 287.327 120.242 286.408 120.32C284.891 120.452 284.237 123.565 282.828 121.993C281.793 120.849 283.933 119.199 284.533 117.72C284.93 116.724 285.583 115.899 286.891 116.514Z" fill="#518FAE"/>
<path d="M274.212 60.3927C275.73 60.7118 276.757 61.5134 276.804 63.1945C276.843 64.6187 276.384 65.9029 274.757 65.8328C272.749 65.7395 273.076 63.9728 272.897 62.6341C272.757 61.5446 272.71 60.5406 274.212 60.3927Z" fill="#F68D20"/>
<path d="M304.923 88.5818C303.919 88.504 303.133 87.7101 303.39 87.6634C305.701 87.2276 306.324 83.702 309.235 84.5347C310.013 84.7604 310.721 85.0873 310.69 86.0057C310.651 86.8696 309.982 87.4144 309.211 87.5156C307.616 87.7101 305.857 87.0252 304.923 88.5818Z" fill="#F59956"/>
<path d="M244.156 77.4836C245.502 77.9973 246.662 78.6666 246.514 80.2232C246.39 81.554 245.51 82.3167 244.094 82.13C242.739 81.951 241.969 81.0715 242.016 79.7562C242.07 78.4721 242.817 77.6237 244.156 77.4836Z" fill="#177EDD"/>
<path d="M297.211 134.99C297.88 137.045 296.059 138.174 295.428 139.746L295.483 139.699C295.109 140.127 294.884 140.944 294.082 140.221C294.113 138.049 294.144 135.878 294.175 133.706C295.662 133.021 296.323 134.267 297.211 134.99Z" fill="#578660"/>
<path d="M239.728 94.4967C238.397 94.5667 237.845 93.8507 237.837 92.6055C237.837 91.3291 238.179 90.2006 239.643 90.0527C241.121 89.8971 241.721 90.8466 241.775 92.2008C241.829 93.6172 241.113 94.3644 239.728 94.4967Z" fill="#C7DDB1"/>
<path d="M236.784 125.807C236.403 127.184 235.337 127.449 234.146 127.433C232.901 127.418 231.811 126.966 231.694 125.597C231.562 124.079 232.776 123.659 233.959 123.721C235.243 123.783 236.38 124.367 236.784 125.807Z" fill="#F88640"/>
<path d="M251.869 95.3995C250.67 95.345 249.503 95.2905 249.752 93.804C249.954 92.5899 250.818 91.7572 252.094 91.6871C253.48 91.6171 254.211 92.4421 254.188 93.7885C254.149 95.4618 252.841 95.3217 251.869 95.3995Z" fill="#96CFE0"/>
<path d="M215.726 136.236C215.446 137.31 215.002 138.228 213.726 138.166C212.418 138.104 211.492 137.434 211.586 136.049C211.663 134.811 212.442 133.784 213.734 133.823C215.08 133.862 215.438 135.123 215.726 136.236Z" fill="#D6E0A4"/>
<path d="M266.267 170.83C262.733 167.398 262.375 162.464 260.375 158.315C260.562 158.082 260.772 158.043 261.013 158.237C262.936 160.635 263.55 163.67 264.982 166.3C265.41 167.81 265.839 169.32 266.267 170.83Z" fill="#1B5789"/>
<path d="M246.428 125.558C247.393 125.55 248.225 124.406 249.494 125.332C248.521 127.877 246.824 129.177 243.992 128.826C243.532 126.795 245.159 126.312 246.428 125.558Z" fill="#6E8765"/>
<path d="M248.809 119.378C248.56 118.911 248.318 118.452 248.069 117.985C248.217 117.783 248.357 117.565 248.521 117.378C249.276 116.522 247.898 114.312 249.937 114.522C251.081 114.639 251.875 116.195 251.813 117.534C251.719 119.441 250.381 119.697 248.809 119.378Z" fill="#74ACD3"/>
<path d="M274.453 101.54C273.55 101.408 272.258 102.186 271.954 100.629C271.713 99.3842 271.48 97.9755 272.242 96.9093C272.92 95.9676 273.534 96.8081 273.885 97.4852C274.554 98.785 274.523 100.194 274.39 101.602C274.383 101.602 274.453 101.54 274.453 101.54Z" fill="#53937F"/>
<path d="M264.204 84.239C263.916 85.1496 263.449 85.9123 262.336 85.7567C261.503 85.64 260.904 85.064 260.873 84.2001C260.842 83.1261 261.581 82.4801 262.554 82.449C263.605 82.4101 264.111 83.1962 264.204 84.239Z" fill="#FA9545"/>
<path d="M264.337 110.195C265.66 111.65 264.897 113.105 265.084 114.405C265.161 114.973 265.286 115.798 264.344 115.79C263.877 115.79 263.356 115.51 262.967 115.214C262.204 114.646 262.562 114.14 263.239 113.845C264.912 113.113 263.418 111.533 264.337 110.195Z" fill="#D6E1D0"/>
<path d="M127.492 156.728C128.589 160.105 128.184 163.569 128.029 167.009C126.962 163.631 127.39 160.175 127.492 156.728Z" fill="#93BFDE"/>
<path d="M232.457 77.7249C233.306 77.9272 233.936 78.3864 233.788 79.2814C233.656 80.1142 232.979 80.6201 232.131 80.4644C231.492 80.3477 231.018 79.8262 231.018 79.1024C231.018 78.1685 231.625 77.8027 232.457 77.7249Z" fill="#ABB7A8"/>
<path d="M258.343 117.946C257.744 117.907 256.95 117.97 256.911 117.129C256.864 115.993 257.759 115.666 258.693 115.572C259.347 115.51 260.047 115.635 259.884 116.545C259.752 117.339 259.331 117.985 258.343 117.946Z" fill="#F2E8C8"/>
<path d="M293.196 102.42C294.433 103.836 296.659 102.209 297.803 103.914C295.367 103.75 292.916 103.525 290.768 105.089C290.752 103.455 291.92 102.887 293.196 102.42Z" fill="#7DCEF8"/>
<path d="M262.78 77.1098C262.772 77.8103 262.274 78.2384 261.387 78.2384C260.795 78.2384 260.46 77.8492 260.437 77.32C260.406 76.495 260.865 75.7634 261.628 75.6545C262.219 75.5689 262.702 76.1681 262.78 77.1098Z" fill="#DEBB60"/>
<path d="M215.375 175.414C213.274 177.119 211.196 178.948 208.269 177.017C207.46 175.694 205.849 175.344 204.962 173.935C203.709 171.943 203.296 174.037 202.658 174.76C201.662 173.352 199.607 173.694 198.603 172.293C198.665 171.274 199.311 170.651 200.074 170.106C203.265 168.464 204.098 165.896 202.985 162.588C202.782 156.237 199.389 152.128 193.825 149.536C193.552 149.093 193.389 148.602 193.179 148.128C191.023 143.349 190.711 143.155 185.513 144.517C178.874 146.252 172.508 148.82 166.017 151.023C164.678 151.482 163.386 152.136 161.9 151.949C160.413 151.443 160.39 150.198 161.526 149.77C165.332 148.338 168.476 146.237 170.928 142.937C171.628 141.995 173.286 141.964 174.57 141.863C176.477 141.707 176.399 140.462 176.251 139.108C178.952 137.683 181.894 137.317 184.874 137.177C189.24 136.664 191.926 139.341 193.957 142.501C197.031 147.272 200.588 151.646 204.176 156.012C204.798 156.455 205.475 156.844 205.95 157.436C207.514 159.366 209.04 159.312 210.69 157.529C211.289 156.883 212.091 156.448 213.025 156.377C213.39 156.448 213.71 156.619 213.959 156.899C214.293 158.354 213.562 159.887 214.534 161.335C216.029 163.561 212.456 163.351 212.651 165.009C214.145 166.246 215.5 165.701 216.877 164.791C218.387 163.794 219.912 163.312 221.29 165.047C222.527 167.312 221.228 168.332 218.862 168.962C221.165 171.414 224.201 173.219 223.383 176.838C223.018 178.449 221.726 179.422 219.92 179.414C218.153 179.656 218.021 178.099 217.383 177.103C219.975 173.515 219.819 173.126 214.861 171.453C214.651 172.869 215.974 174.076 215.375 175.414Z" fill="#045CB5"/>
<path d="M176.235 139.66C178.477 141.03 178.414 142.306 175.799 142.719C172.966 143.17 170.476 143.123 169.246 146.773C168.663 148.509 165.557 149.241 163.3 149.832C162.452 150.058 161.067 149.762 161.642 151.459C161.86 152.4 161.409 152.937 160.561 153.241C155.945 152.027 155.58 151.217 157.603 146.742C158.14 145.505 158.973 144.524 160.125 143.808C163.129 143.575 165.845 142.337 168.647 141.396C171.301 141.481 173.807 140.991 176.025 139.427L176.235 139.66Z" fill="#057EE2"/>
<path d="M212.854 156.759C212.651 156.914 212.441 157.047 212.262 157.218C207.803 161.491 207.803 161.491 204.176 156.035C207.304 155.864 210.433 155.693 213.57 155.521C213.858 156.23 213.429 156.533 212.854 156.759Z" fill="#F5F7EF"/>
<path d="M222.185 151.677C223.765 151.303 225.197 150.175 226.956 150.719L226.932 150.626C228.263 153.459 227.306 155.163 224.341 155.872C222.838 155.739 222.185 154.72 221.788 153.428C221.687 152.79 221.764 152.19 222.185 151.677Z" fill="#F7F7ED"/>
<path d="M222.184 151.677C222.239 152.12 222.301 152.556 222.355 153C219.312 153.755 216.962 156.051 213.919 156.813C213.569 156.798 213.211 156.774 212.86 156.759C213.094 156.346 213.335 155.934 213.576 155.521C215.927 153.078 218.464 151.054 222.184 151.677Z" fill="#66A1B4"/>
<path d="M176.235 139.66C176.235 139.66 176.017 139.434 176.025 139.434C178.538 136.944 181.387 135.792 184.874 137.201C182.29 139.053 178.826 137.823 176.235 139.66Z" fill="#D8D8B0"/>
<path d="M127.826 116.561C134.496 116.958 139.049 120.514 143.119 124.779C147.314 129.177 151.416 133.667 156.584 137.559C146.318 135.169 131.764 124.569 127.826 116.561Z" fill="#FDF6D6"/>
<path d="M151.424 176.838C152.778 181.127 152.459 185.026 149.501 188.754C147.571 191.182 146.466 190.606 144.987 188.559C143.983 187.174 143.462 185.609 142.979 184.022C141.843 180.317 140.193 176.9 137.547 174.013C142.349 172.612 146.411 175.632 150.879 176.262C151.252 176.27 151.447 176.457 151.424 176.838Z" fill="#F9E2F3"/>
<path d="M160.126 143.808C160.32 145.147 158.826 145.396 158.476 146.384C155.448 149.349 156.584 152.86 157.199 156.299C157.168 157.942 157.386 159.607 156.732 161.187C156.343 161.958 155.658 162.409 154.942 162.829C152.973 163.141 151.705 166.012 149.206 164.432C148.934 163.25 148.662 162.067 148.397 160.884C147.712 159.039 147.992 157.078 147.665 155.187C146.973 151.482 148 148.517 151.362 146.548C152.818 145.653 154.039 144.275 155.954 144.33C157.378 144.462 158.639 143.224 160.126 143.808Z" fill="#F8AF27"/>
<path d="M151.424 176.838C151.245 176.644 151.058 176.457 150.879 176.262C150.778 176.114 150.793 175.974 150.918 175.842C151.4 174.566 152.576 174.589 153.416 174.955C155.393 175.826 157.346 175.414 159.323 175.251C160.786 175.196 162.25 175.235 163.689 175.546C164.935 176.138 166.748 175.834 167.184 177.733C166.608 178.543 166.04 179.344 165.464 180.154C164.468 178.691 163.012 178.512 161.409 178.621C160.366 178.698 159.238 178.675 158.841 179.85C158.483 180.893 159.393 181.516 160.055 182.053C161.479 183.197 161.853 184.862 162.211 186.45C162.514 187.773 162.849 189.337 161.666 190.458C160.39 191.672 159.401 190.396 158.257 189.929C155.455 188.785 152.661 189.851 149.875 190.248C151.844 187.314 154.319 184.528 153.619 180.628C153.362 179.196 153.011 177.593 151.424 176.838Z" fill="#FBF1F8"/>
<path d="M159.518 176.301C156.584 177.352 153.829 175.126 150.918 175.842C149.424 174.488 150.568 172.62 149.984 171.087C149.331 169.188 149.362 167.289 149.946 165.39C151.829 164.97 151.969 166.487 152.343 167.639C152.662 168.604 152.654 169.663 153.051 170.612C153.393 171.429 153.744 172.425 154.864 172.246C155.798 172.099 155.79 171.165 155.892 170.418C156.063 169.172 155.884 167.826 156.934 166.83C160.063 168.55 158.53 172.044 159.845 174.457C159.946 175.111 159.869 175.733 159.518 176.301Z" fill="#E6A94F"/>
<path d="M141.407 164.082C141.772 166.441 139.982 167.452 138.262 167.351C136.636 167.258 135.585 165.499 134.83 163.95C136.356 163.413 136.06 160.269 138.177 161.133C139.336 161.6 142.442 160.806 141.407 164.082Z" fill="#D5EFFD"/>
<path d="M147.657 155.187C148.676 156.984 148.412 158.946 148.388 160.884C146.948 157.257 143.835 156.494 137.843 158.175C136.021 158.689 134.021 160.043 132.177 157.327C135.866 156.37 139.329 156.027 142.878 156.012C144.474 155.996 146.256 156.549 147.657 155.187Z" fill="#055296"/>
<path d="M150.794 165.623C148.888 167.203 150.646 169.32 149.985 171.079C148.639 168.993 149.105 166.69 149.199 164.433C151.285 164.37 152.584 162.495 154.538 162.121C156.592 162.518 155.783 163.608 154.927 164.339C153.783 165.32 152.366 165.834 150.794 165.623Z" fill="#516E7C"/>
<path d="M155.946 144.322C154.428 145.092 153.37 146.805 151.354 146.54C151.416 145.886 151.136 145.411 150.607 145.069C150.599 144.836 150.63 144.602 150.7 144.376C151.829 143.201 153.128 142.711 154.708 143.411C155.167 143.637 155.86 143.567 155.946 144.322Z" fill="#6A746A"/>
<path d="M134.154 152.26C133.928 152.899 133.547 153.443 132.831 153.467C131.944 153.49 131.344 152.984 131.399 152.074C131.446 151.21 132.216 151.202 132.847 151.21C133.516 151.218 134.107 151.42 134.154 152.26Z" fill="#9AE3FB"/>
<path d="M167.176 177.733C166.577 176.278 164.997 177.228 164.109 176.496C165.931 174.644 165.378 173.04 163.495 171.717C161.565 170.363 159.378 169.18 162.888 167.094C163.697 166.612 163.261 165.655 163.113 164.946C162.281 160.923 164.32 158.401 167.705 157.031C172.709 155.008 177.768 153.07 183.068 151.879C184.033 151.996 184.368 154.105 185.792 152.751C185.909 152.759 186.104 152.712 186.142 152.774C186.345 153.054 186.563 153.054 186.501 152.922C185.512 151.039 186.625 149.887 187.901 148.789C188.423 148.229 189.435 148.042 189.435 146.914C187.559 146.914 188.042 148.813 187.092 149.451C183.403 152.323 178.702 152.657 174.57 154.424C171.27 155.833 167.588 156.362 164.802 158.93C164.008 159.662 163.067 160.635 161.728 159.755C160.646 159.039 160.179 158.02 160.335 156.767C160.491 155.498 160.187 154.167 160.833 152.961C161.105 152.463 161.37 151.957 161.642 151.459C169.736 148.898 177.535 145.458 185.808 143.466C192.096 141.956 193.707 143.186 194.33 149.871C194.439 150.12 194.47 150.369 194.416 150.618C194.003 152.486 190.983 153.148 191.878 155.475C193.007 158.409 195.038 160.767 197.645 162.565C198.159 162.923 198.649 163.374 199.591 163.289C199.607 161.833 198.572 160.767 198.144 159.514C197.731 158.3 196.961 156.704 198.455 156.09C200.019 155.444 200.976 156.883 201.545 158.292C201.879 159.133 202.113 159.996 202.198 160.907C202.284 161.794 202.86 162.253 203.716 162.378C205.234 166.627 204.44 168.76 200.618 170.706C199.809 170.309 199.327 169.577 198.774 168.923C195.334 166.176 192.594 162.744 189.653 159.553C189.131 160.448 190.104 160.79 190.322 161.397C191.069 162.635 191.746 163.896 191.357 165.421C190.112 166.402 188.119 166.799 188.524 169.063C188.415 169.888 188.508 170.885 187.466 171.141C186.049 171.492 188.166 171.764 187.45 172.068C186.407 173.616 184.905 173.406 183.387 173.173C182.874 173.126 182.36 173.079 181.854 173.033C176.507 172.698 172.53 176.457 167.728 177.741C167.549 177.757 167.363 177.749 167.176 177.733Z" fill="#0797F3"/>
<path d="M183.403 173.188C184.36 171.702 186.197 172.643 187.364 171.733C191.116 169.141 194.898 166.666 199.754 168.838C200.385 169.305 200.86 169.849 200.618 170.713C200.011 171.281 199.404 171.85 198.797 172.425C197.902 174.503 196.883 176.434 194.143 176.286C193.458 176.169 194.61 173.896 192.789 175.118C190.438 176.69 189.294 178.8 189.995 181.679C190.15 182.169 190.252 182.675 190.182 183.197C190.236 184.1 190.337 185.002 190.345 185.905C190.368 190.31 190.158 190.489 186.314 188.598C184.516 187.719 183.13 187.789 181.947 189.462C180.274 187.555 181.403 185.251 181.06 183.158C181.138 182.636 181.278 182.263 181.955 182.216C182.928 182.154 184.282 183.765 184.796 182.045C185.348 180.2 183.699 180.815 182.671 180.582C181.504 180.325 181.901 179.111 182.095 178.317C182.523 176.605 183.488 175.025 183.403 173.188Z" fill="#FBE8F5"/>
<path d="M167.745 177.757C172.111 175.15 175.964 171.009 181.871 173.048C181.552 174.722 182.626 177.858 178.812 175.687C177.738 175.08 176.267 175.282 175.294 176.473C173.605 178.543 174.298 180.528 175.497 182.497C175.722 182.621 175.823 182.769 175.8 182.956C175.777 183.15 175.738 183.251 175.676 183.251C174.967 184.162 174.236 185.057 173.551 185.983C171.045 189.4 171.13 189.353 168.975 185.843C168.336 184.8 167.122 184.115 166.173 183.259C166.694 181.43 167.216 179.594 167.745 177.757Z" fill="#FCF6FB"/>
<path d="M194.253 176.216C196.323 175.609 196.915 173.235 198.814 172.418C202.402 171.678 202.402 171.678 202.666 174.752L203.016 174.737C202.939 176.885 202.308 178.768 200.495 180.099C196.798 185.423 196.798 185.423 190.206 183.181C190.05 183.018 189.871 182.909 189.669 182.839C189.801 179.679 190.984 177.227 194.253 176.216Z" fill="#15A1F1"/>
<path d="M200.486 180.107C201.327 178.317 202.167 176.535 203.008 174.745C204.3 178.955 203.973 183.057 202.144 187.034C201.7 187.999 201.016 189.003 199.809 188.505C198.509 187.976 199.583 186.956 199.685 186.178C199.949 184.154 200.813 182.209 200.486 180.107Z" fill="#FDC4E2"/>
<path d="M141.493 142.003C140.792 145.863 138.139 145.918 134.854 146.058C126.799 146.408 120.308 143.622 114.938 137.785C111.693 134.251 111.887 129.519 115.428 126.5C116.814 125.317 117.46 126.149 118.028 127.34C117.919 130.157 119.623 131.831 121.764 133.2C126.822 136.438 132.294 138.703 138.154 140.042C139.399 140.337 141.182 139.995 141.493 142.003Z" fill="#FD9702"/>
<path d="M141.493 142.003C133.889 140.072 126.371 137.901 119.896 133.224C117.911 131.784 115.771 130.219 118.028 127.348C128.254 134.282 138.987 140.065 151.385 142.096C151.447 143.403 150.809 143.357 149.937 142.843C147.151 142.197 144.209 143.209 141.493 142.003Z" fill="#FDF4DF"/>
<path d="M149.93 142.843C150.412 142.594 150.895 142.345 151.377 142.096C152.436 142.664 154.475 140.742 154.701 143.412C153.362 143.731 152.031 144.057 150.692 144.377C150.093 144.034 149.961 143.466 149.93 142.843Z" fill="#FD9702"/>
<path d="M276.517 126.515C276.501 126.772 276.494 127.021 276.478 127.278C275.256 128.468 273.645 129.029 272.221 129.885C270.197 131.115 269.979 133.473 271.956 134.663C273.567 135.636 276.143 135.831 276.213 138.065C276.307 140.75 276.782 143.738 274.493 145.995C274.065 146.275 273.645 146.556 273.217 146.836C272.61 146.89 272.034 146.758 271.474 146.556C269.427 145.723 267.069 146.703 265.1 145.443C263.8 143.583 263.909 141.263 263.06 139.255C263.037 138.866 263.084 138.493 263.208 138.119C268.594 133.66 268.594 133.66 263.621 128.686C264.002 126.204 262.765 123.604 264.843 121.184C265.769 120.102 265.753 119.542 267.185 120.499C268.205 121.184 269.979 122.943 271.007 119.401C270.376 122.273 273.808 123.682 272.042 126.095C273.474 126.92 275.023 126.351 276.517 126.515Z" fill="#EA7C07"/>
<path d="M274.493 146.011C274.018 145.155 273.784 143.941 274.625 143.575C277.66 142.244 273.434 140.711 274.952 138.672C276.166 137.037 273.185 136.259 271.302 135.73C268.43 134.928 270.033 131.986 269.27 130.118C268.601 128.476 270.57 129.574 271.341 129.332C273.099 128.772 274.244 126.694 276.477 127.278C276.563 127.752 276.648 128.227 276.734 128.702C276.244 129.441 275.823 130.235 275.255 130.92C273.668 132.835 273.123 134.321 276.539 134.228C278.127 134.189 279.154 135.029 280.088 136.127C280.532 137.1 280.633 137.963 279.396 138.423C277.971 139.216 278.656 140.205 278.952 141.341C279.987 145.264 278.579 146.68 274.493 146.011Z" fill="#F4AC15"/>
<path d="M272.057 145.801C272.446 146.151 272.836 146.501 273.217 146.851C274.423 148.237 273.217 150.439 275.007 151.77C275.606 152.214 274.571 153.288 273.949 153.467C272.47 153.887 271.139 154.245 270.267 155.755C269.793 156.58 268.75 156.191 268.415 155.405C267.473 153.179 266.353 155.21 265.325 155.187C263.932 154.883 263.621 153.778 263.395 152.603C262.881 150.649 263.769 149.023 264.586 147.373C265.154 146.322 265.878 145.209 267.216 145.762C268.89 146.431 270.462 145.427 272.057 145.801Z" fill="#EEEEED"/>
<path d="M279.388 138.423C279.621 137.652 279.847 136.889 280.08 136.119C281.108 136.469 281.8 138.127 283.092 137.201C284.462 136.228 285.388 135.917 285.567 137.995C285.661 139.1 288.346 139.512 286.563 140.843C285.482 141.652 284.501 143.754 282.423 142.275C281.769 141.808 280.15 141.769 281.022 140.648C283.528 137.465 280.018 139.069 279.388 138.423Z" fill="#BEE1F1"/>
<path d="M294.083 140.213C294.55 140.041 295.017 139.87 295.484 139.691C297.056 140.851 299.328 141.217 299.967 143.785C297.017 145.077 295.383 143.52 294.067 141.185C294.075 140.866 294.083 140.539 294.083 140.213Z" fill="#D0DFD3"/>
<path d="M264.125 152.408C264.522 153.334 264.927 154.253 265.324 155.179C265.332 155.444 265.269 155.693 265.137 155.926C263.549 155.677 263.277 153.482 261.487 153.42C260.452 154.969 261.588 156.697 261.005 158.238L260.701 158.37C260.701 158.37 260.374 158.323 260.374 158.315C260.382 158.168 260.382 158.027 260.374 157.88C259.923 156.914 260.094 155.887 260.071 154.883C259.977 150.61 260.25 150.447 264.125 152.408Z" fill="#788781"/>
<path d="M282.984 131.901C284.253 129.449 285.607 130.593 286.969 131.799C286.339 132.702 285.701 133.613 285.094 134.485C283.132 134.57 284.346 132.228 282.984 131.901Z" fill="#83ABDF"/>
<path d="M264.126 152.408C258.343 151.124 260.966 155.599 260.375 157.879C258.935 154.502 259.371 150.626 257.518 146.999C254.561 149.855 256.335 153.381 255.752 156.432L255.433 156.237L255.082 156.354C254.989 155.506 255.355 154.564 254.499 153.692C254.187 157.973 253.884 162.113 253.58 166.254C253.425 159.732 252.748 153.202 254.584 145.949C251.098 148.151 251.417 150.961 251.246 153.428C250.888 158.533 251.767 163.724 250.109 168.729C249.51 170.542 249.16 172.542 246.981 173.274C246.576 172.768 246.475 172.169 246.498 171.546C249.191 164.09 247.619 155.942 249.362 150.447C247.346 156.004 246.078 164.067 242.747 171.445C242.062 172.605 241.182 173.671 240.793 175.087C242.319 175.422 243.65 174.216 244.98 175.064C245.198 176.939 243.439 177.515 242.591 178.683L242.614 178.667C241.424 178.675 241.758 181.267 240.708 180.333C239.618 179.368 237.587 178.768 237.828 176.574C237.992 175.087 238.793 173.951 239.447 172.698C241.533 168.713 243.899 164.759 243.315 159.981C242.755 155.319 246.981 152.665 247.915 148.602C248.475 146.143 249.565 143.8 250.14 141.287C245.424 147.209 243.836 154.813 239.4 160.86C237.392 161.498 235.633 161.366 234.489 159.296C236.116 158.813 237.976 159.763 239.462 158.463C239.353 157.171 239.439 155.965 240.902 155.42C242.389 152.509 245.323 149.855 242.513 146.198C242.708 145.583 243.751 145.069 243.65 144.968C243.05 144.361 242.42 145.271 241.743 145.131C240.21 145.131 238.676 145.131 237.143 145.131C240.513 142.096 244.591 140.228 247.977 137.364C250.498 137.146 250.841 135.551 250.436 133.481C252.024 132.414 253.082 133.971 254.398 134.282C257.246 135.59 258.024 137.559 256.312 140.314C256.367 140.641 256.413 140.96 256.491 141.271C259.168 142.89 261.62 144.921 264.772 145.622C265.511 146.143 265.62 146.797 265.169 147.56C265.496 149.326 263.465 150.571 264.126 152.408Z" fill="#05509A"/>
<path d="M234.497 159.304C235.859 160.697 237.89 159.957 239.4 160.868C236.886 167.849 233.96 174.535 226.769 178.099C226.566 177.476 226.372 176.862 226.169 176.239C223.492 170.239 223.671 169.18 228.714 164.915C230.676 163.257 231.648 160.658 234.069 159.475C234.24 159.467 234.38 159.405 234.497 159.304Z" fill="#EE8813"/>
<path d="M247.518 171.025C247.339 171.772 247.159 172.527 246.98 173.274C246.311 173.873 245.65 174.472 244.98 175.064C243.112 175.624 241.245 176.192 238.287 177.08C239.89 174.535 240.871 172.978 241.852 171.429C243.961 174.301 245.587 170.519 247.518 171.025Z" fill="#D0A03C"/>
<path d="M234.085 159.467C232.692 162.565 230.785 165.374 227.719 166.861C225.057 168.145 224.94 169.873 225.882 172.106C226.458 173.484 226.396 174.838 226.194 176.231C224.295 177.087 223.828 179.072 225.633 180.107C228.342 181.656 228.295 183.851 227.4 185.983C226.481 188.17 224.326 187.711 222.372 187.252C221.392 187.026 220.286 187.306 219.314 187.049C217.679 186.621 216.224 185.967 216.068 183.819C215.936 181.928 216.652 180.987 218.411 180.52C218.971 180.372 219.43 179.804 219.928 179.43C227.205 173.632 218.605 172.029 216.87 168.729C218.053 167.102 222.333 169.74 221.002 165.39C222.03 163.779 222.59 164.853 223.003 165.802C223.594 167.18 223.454 168.736 223.828 169.888C223.579 166.627 223.322 163.086 224.007 159.545C225.454 157.607 226.832 155.584 229.244 154.673C230.855 156.268 232.466 157.872 234.085 159.467Z" fill="#FAF6F2"/>
<path d="M215.375 175.414C214.433 173.92 213.616 172.379 213.546 170.355C216.285 170.947 219.523 170.745 220.41 174.006C220.838 175.57 219.445 177.088 217.383 177.119C216.713 176.551 216.044 175.982 215.375 175.414Z" fill="#0DA3F7"/>
<path d="M229.235 154.673C228.465 156.798 226.441 157.677 224.893 159.031C224.013 158.837 223.624 158.175 223.344 157.405C223.204 156.595 223.196 155.833 224.021 155.342C226.901 154.953 226.877 152.766 226.94 150.634C228.099 151.747 228.877 153.093 229.235 154.673Z" fill="#FBA71B"/>
<path d="M240.918 155.428C240.436 156.44 239.953 157.459 239.478 158.471C237.836 158.323 236.599 157.49 237.276 155.817C238.031 153.949 239.541 154.175 240.918 155.428Z" fill="#84D0EF"/>
<path d="M241.759 145.139C241.891 144.929 242 144.688 242.164 144.501C242.934 143.629 243.798 142.82 245.051 143.155C245.627 143.31 245.409 143.995 245.269 144.478C244.872 145.879 244.133 146.735 242.521 146.205C242.272 145.847 242.016 145.497 241.759 145.139Z" fill="#B0B8BB"/>
<path d="M235.672 150.431C235.68 151.326 235.275 151.918 234.364 152.004C233.524 152.081 232.707 151.731 232.582 150.898C232.419 149.848 233.205 149.28 234.185 149.116C235.158 148.945 235.555 149.552 235.672 150.431Z" fill="#77D4F6"/>
<path d="M266.234 160.603C271.387 164.915 277.372 167.46 283.738 169.203C284.788 169.491 286.08 169.655 285.645 170.962C285.255 172.13 284.127 171.172 283.31 171.056C276.103 170.059 270.281 166.767 266.234 160.603Z" fill="#FDE774"/>
<path d="M297.81 103.922C302.993 104.147 305.515 107.938 304.044 113.277C303.507 109.128 301.748 105.797 297.81 103.922Z" fill="#7DCEF8"/>
<path d="M254.522 135.193C253.16 134.624 251.806 134.064 250.452 133.496C250.39 131.574 252.047 131.535 253.23 131.037C254.219 130.624 255.542 130.756 255.799 129.286C256.6 127.768 257.97 127.27 259.566 127.176C259.612 127.55 259.659 127.924 259.706 128.297C258.297 130.827 256.382 132.99 254.522 135.193Z" fill="#EA7C07"/>
<path d="M252.834 125.815C255.052 124.639 251.597 121.55 254.5 121.028C255.682 120.81 257.068 121.939 257.044 122.982C256.998 125.317 254.118 124.499 252.834 125.815Z" fill="#F9BF3A"/>
<path d="M254.522 135.193C254.935 131.909 256.772 129.69 259.706 128.297C261.005 128.437 262.305 128.578 263.613 128.718C267.037 129.317 268.819 130.92 268.415 134.819C268.072 138.143 264.788 136.625 263.652 138.36C261.472 141.302 258.453 141.014 255.379 140.493C255.277 140.01 254.997 139.162 255.098 139.108C259.114 137.154 255.425 136.376 254.522 135.193Z" fill="#F5EDD4"/>
<path d="M190.237 51.7848C193.21 51.6369 194.618 53.8706 196.136 55.8007C196.86 56.7269 196.027 57.0537 195.155 57.0771C193.692 56.1198 192.322 54.9368 190.735 54.2753C188.999 53.5515 189.458 52.7966 190.237 51.7848Z" fill="#D3F2FC"/>
<path d="M203.725 162.386C202.682 164.767 201.942 162.674 201.67 162.067C201.094 160.806 200.907 159.374 200.542 158.012C200.277 157.031 199.483 156.113 198.658 156.471C197.475 156.977 198.401 157.973 198.744 158.751C199.615 160.728 201.063 162.464 201.405 164.728C197.141 164.394 190.704 158.51 190.432 154.712C190.229 151.941 193.537 151.902 194.339 149.887C195.631 149.132 196.58 149.552 197.716 150.47C201.561 153.544 203.694 157.413 203.725 162.386Z" fill="#DAF5FD"/>
<path d="M224.022 155.335C223.999 156.074 223.975 156.806 223.952 157.545C222.574 163.11 217.679 166.176 211.305 165.468C211.048 163.335 211.048 163.335 214.846 162.362C210.714 160.829 212.908 158.79 213.92 156.813C216.278 154.525 218.574 152.12 222.357 153C222.839 153.825 223.041 154.852 224.022 155.335Z" fill="#EBFAFD"/>
<path d="M211.304 165.468C216.682 164.682 221.281 162.658 223.951 157.545C224.636 157.802 224.745 158.424 224.892 159.024C224.208 163.755 224.542 168.55 224.285 173.359C222.643 171.344 222.628 168.915 222.106 166.643C221.966 166.02 222.379 164.915 221.001 165.39C219.694 164.184 218.612 164.534 217.374 165.67C215.366 167.515 213.265 167.367 211.304 165.468Z" fill="#1C8DE6"/>
<path d="M208.728 168.557C207.289 168.596 206.168 168.114 205.973 166.534C205.833 165.429 206.277 164.184 207.413 164.222C209.047 164.269 210.168 165.553 210.503 167.118C210.767 168.308 209.67 168.487 208.728 168.557Z" fill="#1C8DE6"/>
<path d="M187.995 149.085C187.116 150.338 186.33 151.544 187.194 153.21C187.466 153.747 186.999 154.113 186.478 153.459C186.322 153.264 186.143 153.085 185.972 152.899C185.007 153.07 184.112 152.93 183.357 152.253C179.598 153.537 175.839 154.813 172.08 156.105C163.721 158.977 163.285 159.693 164.702 168.308C163.908 169.632 162.219 166.534 161.775 168.752C161.425 170.488 163.091 170.005 164.001 170.495C165.783 171.453 166.515 173.383 166.492 175.375C166.468 176.986 164.873 176.021 164.11 176.488C162.585 176.426 161.052 176.364 159.518 176.301C159.44 175.92 159.363 175.531 159.285 175.149C158.219 168.651 156.218 162.308 156.125 155.654C155.02 152.089 155.137 148.828 158.468 146.384C158.46 146.641 158.561 146.976 158.436 147.139C155.829 150.494 157.806 151.941 160.834 152.961C161.487 154.261 161.985 155.545 161.153 156.992C160.678 157.825 161.207 158.471 161.853 158.969C162.375 159.374 162.912 159.716 163.542 159.101C167.612 155.109 173.216 154.471 178.189 152.447C181.287 151.186 184.454 150.105 187.591 148.945C187.723 148.992 187.863 149.038 187.995 149.085Z" fill="#045CB5"/>
<path d="M150.793 165.623C152.038 164.985 153.315 164.394 154.529 163.701C155.33 163.242 155.681 162.65 154.536 162.121C155.042 161.872 155.54 161.623 156.046 161.374C157.354 162.977 157.868 164.713 156.996 166.705C156.988 168.106 157.019 169.515 156.949 170.916C156.895 172.099 157.416 173.647 155.447 173.865C153.673 174.06 152.708 173.359 152.077 171.562C151.384 169.608 151.976 167.429 150.793 165.623Z" fill="#F6D692"/>
<path d="M156.989 166.705C156.669 164.931 156.358 163.156 156.039 161.374C156.07 159.467 156.094 157.56 156.125 155.654C157.3 162.129 159.253 168.48 159.285 175.142C157.72 172.55 158.327 169.367 156.989 166.705Z" fill="#39292D"/>
<path d="M199.755 168.838C195.326 168.519 191.451 170.566 187.365 171.733C186.781 171.624 186.197 171.507 185.162 171.305C186.656 170.853 187.8 170.534 188.143 169.25C189.552 168.254 190.641 167.001 191.24 165.351C190.719 164.051 190.198 162.759 189.676 161.46C189.598 160.386 188.945 159.452 188.882 158.37C189.536 157.452 190.353 157.669 190.688 158.471C192.564 162.954 196.743 165.39 199.755 168.838Z" fill="#045CC0"/>
<path d="M179.559 161.304C180.283 164.02 177.855 164.441 176.788 164.518C175.037 164.643 173.115 163.203 172.983 161.46C172.881 160.168 173.885 157.631 175.769 158.152C177.131 158.533 180.501 158.051 179.559 161.304Z" fill="#F0F8FC"/>
<path d="M191.233 165.359C192.276 168.308 190.898 169.336 188.135 169.258C186.252 165.639 188.563 165.359 191.233 165.359Z" fill="#7ACCF3"/>
<path d="M187.996 149.085C187.879 148.976 187.739 148.929 187.583 148.937C186.322 147.334 186.571 146.128 188.517 145.357C189.949 144.797 190.976 145.52 191.124 146.773C191.389 149.038 189.56 148.999 187.996 149.085Z" fill="#BEEBFA"/>
<path d="M183.357 152.26C184.345 152.003 185.279 151.957 185.972 152.906C185.816 153.832 185.941 155.155 184.501 154.922C183.03 154.673 183.201 153.381 183.357 152.26Z" fill="#9DD7F5"/>
<path d="M188.881 158.378C189.722 159.257 191.419 159.919 189.675 161.467C188.702 160.619 187.208 159.903 188.881 158.378Z" fill="#ACDDF5"/>
<path d="M194.253 176.216C192.813 178.488 190.618 180.232 189.661 182.839C187.832 177.547 189.521 174.651 195.288 173.422C194.914 174.402 194.587 175.313 194.253 176.216Z" fill="#F5ABD3"/>
<path d="M264.157 145.91C263.62 146.198 263.083 146.486 262.538 146.774C261.168 143.435 257.199 144.089 255.082 141.909C255.012 141.839 255.246 141.474 255.339 141.248C258.133 140.61 261.129 140.641 263.581 138.835C265.519 140.695 265.317 142.944 264.756 145.264C264.748 145.653 264.554 145.871 264.157 145.91Z" fill="#F5EDD4"/>
<path d="M264.156 145.91C264.359 145.692 264.561 145.474 264.763 145.264C267.184 145.559 269.698 144.742 272.064 145.808C270.53 146.338 269.332 148.579 267.277 146.4C266.561 145.637 265.806 146.991 265.191 147.583C265.02 146.906 264.896 146.221 264.156 145.91Z" fill="#788781"/>
<path d="M263.59 138.827C261.333 141.287 258.562 142.026 255.348 141.24C255.402 140.991 255.418 140.742 255.379 140.485C258.064 139.481 261.146 140.018 263.652 138.345C263.714 138.524 263.691 138.68 263.59 138.827Z" fill="#DDB26B"/>
<path d="M247.518 171.025C246.638 171.756 245.798 172.55 244.856 173.188C244.062 173.725 243.307 174.97 242.249 174.301C241.291 173.694 241.93 172.418 241.852 171.437C245.284 163.281 246.163 154.229 250.67 146.431C249.012 154.564 250.358 163.063 247.518 171.025Z" fill="#F4E6A6"/>
<path d="M258.928 132.484C260.757 133.784 262.71 134.321 264.78 134.329C265.473 134.329 266.088 134.313 266.29 135.053C266.368 135.341 266.158 135.917 265.917 136.033C263.714 137.123 261.169 137.932 259.005 136.928C257.106 136.049 258.507 134.056 258.928 132.484Z" fill="#F7C445"/>
<path d="M216.97 157.42C217.943 157.389 218.418 157.864 218.379 158.798C218.348 159.444 218.231 160.206 217.32 159.778C216.682 159.475 215.865 158.985 215.686 158.409C215.46 157.654 216.394 157.576 216.97 157.42Z" fill="#2191E0"/>
</svg>