<svg width="18" height="18" viewBox="0 0 18 18" fill="none" xmlns="http://www.w3.org/2000/svg">
<path opacity="0.1" fill-rule="evenodd" clip-rule="evenodd" d="M9.8441 1.01221C10.0807 1.01226 10.315 1.05918 10.5336 1.1499C10.7523 1.24077 10.9514 1.37464 11.1185 1.54248C11.2855 1.71026 11.4182 1.90942 11.5082 2.12842C11.598 2.34743 11.6439 2.58211 11.6429 2.81885V3.24268H12.2748C12.7494 3.24431 13.2146 3.37591 13.6195 3.62354C14.0245 3.87127 14.354 4.226 14.5716 4.64795L15.389 6.21631L16.6527 8.64697C16.8593 9.02299 16.9698 9.4445 16.973 9.87354V12.8911C16.975 13.5818 16.7024 14.2453 16.2162 14.7358C15.7299 15.2263 15.069 15.5044 14.3783 15.5083H13.7689C13.6531 15.9332 13.4001 16.3084 13.0502 16.5757C12.7004 16.8428 12.2725 16.9878 11.8324 16.9878C11.392 16.9878 10.9636 16.843 10.6136 16.5757C10.2637 16.3084 10.0117 15.9331 9.89586 15.5083H7.91051C7.7947 15.9331 7.54262 16.3084 7.19274 16.5757C6.84285 16.8429 6.41425 16.9878 5.97399 16.9878C5.5339 16.9877 5.10597 16.8428 4.75621 16.5757C4.40633 16.3084 4.15425 15.9331 4.03844 15.5083H3.62145C3.27828 15.5083 2.93841 15.4406 2.62145 15.3091C2.30441 15.1775 2.01617 14.9848 1.77379 14.7417C1.53141 14.4986 1.34003 14.2095 1.20934 13.8921C1.07868 13.5747 1.01109 13.2344 1.01207 12.8911V4.43994C1.01207 3.53235 1.37296 2.6615 2.01403 2.01904C2.65508 1.37668 3.52448 1.01418 4.43199 1.01221H9.8441ZM14.0619 7.19971C14.0158 7.20132 13.971 7.21945 13.9369 7.25049C13.9028 7.28151 13.8813 7.32396 13.8754 7.36963V10.0054C13.8742 10.0305 13.8782 10.056 13.8871 10.0796C13.8959 10.103 13.9098 10.124 13.9271 10.1421C13.9445 10.1603 13.9654 10.1752 13.9886 10.1851C14.0117 10.1949 14.0368 10.1997 14.0619 10.1997H16.1293V10.1323C16.1365 9.83694 16.0666 9.5446 15.9261 9.28467L14.9095 7.19971H14.0619Z" fill="#BCBFC5"/>
<path d="M16.7323 8.64355L15.4567 6.18992L14.6313 4.60669C14.4116 4.18078 14.0793 3.82333 13.6704 3.57327C13.2616 3.32321 12.792 3.19014 12.3128 3.18854H11.675V2.76084C11.676 2.52175 11.6297 2.28482 11.5389 2.06365C11.4481 1.84247 11.3145 1.64141 11.1458 1.472C10.9771 1.30258 10.7766 1.16816 10.5558 1.07644C10.335 0.984713 10.0982 0.937498 9.85913 0.9375H4.39661C3.4805 0.939487 2.60259 1.3048 1.95551 1.95329C1.30842 2.60179 0.945016 3.48048 0.945018 4.39659V12.928C0.944031 13.2745 1.01143 13.6178 1.14334 13.9382C1.27525 14.2586 1.4691 14.5498 1.71376 14.7952C1.95842 15.0406 2.24909 15.2352 2.56912 15.3681C2.88914 15.5009 3.23224 15.5692 3.57873 15.5692H3.99893C4.1158 15.9981 4.37047 16.3766 4.72369 16.6465C5.07691 16.9163 5.50908 17.0625 5.95358 17.0625C6.39808 17.0625 6.83024 16.9163 7.18346 16.6465C7.53668 16.3766 7.79136 15.9981 7.90823 15.5692H9.91165C10.0285 15.9981 10.2832 16.3766 10.6364 16.6465C10.9896 16.9163 11.4218 17.0625 11.8663 17.0625C12.3108 17.0625 12.743 16.9163 13.0962 16.6465C13.4494 16.3766 13.7041 15.9981 13.821 15.5692H14.4362C15.1334 15.5653 15.8006 15.285 16.2915 14.7899C16.7824 14.2948 17.0569 13.6252 17.0549 12.928V9.88162C17.0517 9.44856 16.9408 9.0231 16.7323 8.64355ZM15.7343 9.16129C15.8587 9.39143 15.9208 9.6501 15.9144 9.91164V9.97166H14.0836C14.0612 9.97169 14.0392 9.96718 14.0186 9.95842C13.9981 9.94966 13.9795 9.93682 13.9641 9.92069C13.9487 9.90456 13.9367 9.88547 13.9288 9.86456C13.921 9.84366 13.9175 9.82139 13.9185 9.79908V7.46551C13.9238 7.425 13.9433 7.38769 13.9735 7.36021C14.0038 7.33274 14.0427 7.31687 14.0836 7.31544H14.8339L15.7343 9.16129ZM2.07804 4.39659C2.07803 3.78028 2.32182 3.18899 2.75621 2.75179C3.1906 2.31459 3.78031 2.06698 4.39661 2.06302H9.85913C10.0429 2.06499 10.2185 2.13939 10.3477 2.27004C10.477 2.40069 10.5495 2.57706 10.5494 2.76084V9.25884C10.5475 9.44062 10.4739 9.61428 10.3446 9.74212C10.2154 9.86996 10.0409 9.94166 9.85913 9.94165H2.07804V4.39659ZM5.94232 15.9444C5.75592 15.9489 5.57242 15.8977 5.41524 15.7974C5.25807 15.6971 5.13436 15.5522 5.0599 15.3813C4.98545 15.2103 4.96363 15.0211 4.99724 14.8377C5.03085 14.6543 5.11836 14.4851 5.24859 14.3516C5.37882 14.2182 5.54586 14.1266 5.72839 14.0886C5.91092 14.0505 6.10065 14.0677 6.27335 14.138C6.44605 14.2083 6.59388 14.3284 6.69797 14.4831C6.80207 14.6378 6.85769 14.82 6.85774 15.0065C6.85976 15.252 6.76467 15.4883 6.5932 15.664C6.42173 15.8397 6.18778 15.9405 5.94232 15.9444ZM11.855 15.9444C11.6063 15.9444 11.3677 15.8456 11.1918 15.6697C11.0159 15.4938 10.9171 15.2552 10.9171 15.0065C10.9171 14.7577 11.0159 14.5192 11.1918 14.3433C11.3677 14.1674 11.6063 14.0686 11.855 14.0686C12.1038 14.0686 12.3424 14.1674 12.5183 14.3433C12.6942 14.5192 12.793 14.7577 12.793 15.0065C12.793 15.2552 12.6942 15.4938 12.5183 15.6697C12.3424 15.8456 12.1038 15.9444 11.855 15.9444ZM15.9144 12.943C15.9144 13.341 15.7563 13.7227 15.4749 14.0042C15.1934 14.2856 14.8117 14.4437 14.4137 14.4437H13.7984C13.6816 14.0149 13.4269 13.6363 13.0737 13.3665C12.7205 13.0967 12.2883 12.9505 11.8438 12.9505C11.3993 12.9505 10.9671 13.0967 10.6139 13.3665C10.2607 13.6363 10.006 14.0149 9.88914 14.4437H7.89322C7.77635 14.0149 7.52168 13.6363 7.16846 13.3665C6.81523 13.0967 6.38307 12.9505 5.93857 12.9505C5.49407 12.9505 5.06191 13.0967 4.70868 13.3665C4.35546 13.6363 4.10079 14.0149 3.98392 14.4437H3.57873C3.18072 14.4437 2.79902 14.2856 2.51758 14.0042C2.23615 13.7227 2.07804 13.341 2.07804 12.943V11.0672H9.85913C10.0972 11.0682 10.3332 11.0221 10.5535 10.9317C10.7737 10.8412 10.974 10.7082 11.1427 10.5402C11.3114 10.3722 11.4453 10.1725 11.5366 9.95259C11.6279 9.73271 11.675 9.49694 11.675 9.25884V4.31406H12.3128C12.5858 4.31622 12.853 4.39283 13.0857 4.53563C13.3184 4.67842 13.5078 4.882 13.6334 5.12443L14.1886 6.18992H14.0836C13.7406 6.1859 13.4099 6.31782 13.1639 6.55683C12.9178 6.79585 12.7764 7.12253 12.7705 7.46551V9.71655C12.7622 9.89292 12.7903 10.0691 12.8528 10.2342C12.9154 10.3993 13.0112 10.5498 13.1343 10.6764C13.2574 10.803 13.4051 10.903 13.5684 10.9702C13.7317 11.0375 13.907 11.0704 14.0836 11.0672H15.9369L15.9144 12.943Z" fill="#BCBFC5"/>
</svg>
