<svg xmlns="http://www.w3.org/2000/svg" fill="none" viewBox="48.58 53.68 314.42 127.49">
<path d="M324.3 77.0523C324.439 77.5819 324.578 78.1028 324.708 78.6324C324.813 80.6379 323.146 80.9157 321.852 81.2543C308.335 84.7964 295.164 89.5193 281.699 93.2438C274.137 95.3361 266.801 93.7213 259.456 92.7923C251.183 91.7505 242.865 90.9257 234.679 89.2762C230.911 87.8264 226.908 87.6875 223.87 87.0537C222.394 87.21 222.993 88.1215 222.837 87.5659C222.785 87.3749 222.863 87.2794 223.062 87.262C226.257 86.9148 229.226 88.2952 232.352 88.4949C235 89.936 237.978 91.0733 238.021 94.8325C236.719 96.1348 235.521 95.119 234.557 94.4505C227.672 89.6582 219.703 89.2588 211.776 88.6772C209.623 88.5209 207.435 88.7727 205.282 88.6077C203.563 88.4775 200.75 89.1807 200.733 86.8453C200.716 84.9527 203.45 85.3868 205.126 85.3C206.359 85.2392 207.6 85.3781 208.824 85.1958C205.23 85.7167 201.167 84.1366 198.163 87.6267C197.521 88.3733 196.253 87.5485 195.428 86.9321C187.641 81.1067 178.742 80.2211 169.531 81.48C166.284 81.9228 163.636 80.6726 160.745 79.9954C149.901 79.0665 139.136 77.443 128.31 76.3578C125.202 75.559 123.222 73.1195 120.869 71.2268C118.187 67.8496 114.037 67.4242 110.356 66.0959C109.062 65.6271 107.439 66.122 106.44 64.759C114.758 63.9342 123.118 63.3872 131.392 62.2152C144.466 60.366 157.307 62.7014 170.243 63.665C172.769 63.856 175.703 65.2277 177.796 62.3801C179.393 63.7519 181.286 63.7084 183.213 63.5174C186.278 63.9776 189.403 65.549 192.26 62.9271C193.44 63.1875 193.779 64.6027 194.96 64.8805C197.226 65.8615 199.413 65.6098 201.549 64.5072C202.86 64.4551 203.468 62.493 205.056 63.2049C205.864 65.3493 207.67 64.7937 209.276 64.759C210.404 66.0786 212.202 66.3737 213.469 67.485C220.632 68.2837 227.742 69.6034 235 69.204C236.658 67.9972 238.446 69.178 240.148 68.9262C243.378 68.5876 246.607 70.3153 249.837 68.9262C251.322 69.0304 252.059 66.6603 253.831 67.7107C255.228 70.7667 257.937 70.8101 260.706 70.6886C261.696 70.6712 262.669 70.4455 263.667 70.4889C265.629 70.8188 267.582 71.1834 269.571 71.331C271.177 71.6609 272.965 71.3918 274.267 72.7288C278.547 73.3365 282.836 75.2118 287.116 72.7375C288.948 73.4146 290.902 72.9892 292.777 73.3278C295.781 74.7256 298.915 74.1352 302.023 73.9095C303.317 74.1439 304.506 72.9198 305.834 73.6143C307.579 75.7153 309.941 74.8211 312.094 74.8819C313.214 75.0815 314.151 75.8716 315.332 75.8976C316.669 76.0626 318.006 75.5938 319.334 75.8716C320.828 76.9394 322.668 76.5574 324.3 77.0523Z" fill="#FEC14A"/>
<path d="M354.782 106.657C354.2 125.141 358.463 143.06 361.163 161.161C361.536 161.83 361.536 162.489 361.12 163.132C357.534 164.486 357.196 161.578 356.883 159.503C355.607 151.021 353.584 142.66 352.82 134.1C352.69 132.659 353.141 130.784 350.91 130.376C347.003 132.242 342.827 133.423 338.955 135.342C336.767 136.366 337.254 138.424 337.106 140.195C336.689 145.352 337.662 150.448 337.948 155.579C337.887 160.597 338.408 165.571 338.842 170.546C339.025 172.656 339.146 174.852 337.922 176.806C337.028 177.648 336.003 177.682 334.909 177.274C333.651 176.528 333.373 175.33 333.26 173.967C331.827 156.36 329.952 138.788 330.23 121.069C330.317 115.756 329.049 110.538 327.443 105.468C325.733 103.367 325.672 100.719 325.09 98.2444C325.082 96.0132 323.345 93.9036 324.587 91.5769C325.542 87.9739 328.32 85.8817 331.506 85.0482C340.153 82.7996 348.818 80.3774 357.899 80.6292C362.908 80.7681 364.167 82.9559 361.944 87.5138C361.059 87.4096 360.373 86.8453 359.583 86.5067C358.958 86.2636 358.324 86.1942 357.664 86.3678C356.857 86.6109 356.067 86.9321 355.225 87.019C354.183 87.2447 353.315 88.1563 352.125 87.8437C348.904 87.4878 347.472 89.1026 346.777 92.1238C345.163 99.1821 345.249 106.466 343.739 113.533C342.914 115.512 342.723 117.865 340.553 119.063C338.408 118.933 338.339 117.275 338.2 115.764C338.035 113.967 338.13 112.153 338.104 110.347C338.139 106.492 339.016 102.724 339.25 98.8956C340.396 96.1174 342.272 93.5824 342.133 90.3875C340.891 88.3125 339.441 90.5698 338.13 90.1965C331.775 90.8737 331.584 91.1254 332.123 98.1055C332.322 103.219 333.564 108.202 334.015 113.281C334.666 116.832 335.404 120.366 335.309 124.012C335.265 125.87 336.099 127.38 338.156 126.738C343.365 125.123 348.904 123.83 351.17 117.848C352.186 115.313 353.002 112.769 352.985 109.965C352.976 108.715 352.724 106.961 354.782 106.657Z" fill="#FBA710"/>
<path d="M234.305 88.2778C247.398 89.9274 260.481 91.6897 273.599 93.1656C278.565 93.7213 283.123 91.438 287.776 90.0836C299.358 86.7151 310.922 83.2684 322.486 79.8218C323.276 79.5874 323.971 79.0318 324.709 78.6324C326.584 79.3356 329.839 77.3301 330.291 80.143C330.751 83.0167 328.381 85.3434 325.828 86.8887C324.856 87.4791 323.754 87.8437 322.712 88.3125C322.364 89.1199 321.861 89.7711 320.958 89.9968C318.961 90.4917 316.869 90.0142 314.881 90.6132C314.499 90.7521 314.108 90.865 313.717 90.9778C310.905 91.6377 308.326 92.9313 305.635 93.8949C302.57 94.685 299.592 95.7875 296.484 96.3692C294.583 96.5515 293.038 97.3937 291.883 98.9216C290.129 101.613 291.97 105.086 289.955 107.708C288.94 108.376 287.872 108.419 286.761 107.994C285.302 107.1 285.25 105.581 285.337 104.183C285.571 100.58 283.904 100.302 281.187 101.596C277.48 103.158 274.528 105.997 270.89 107.682C269.779 107.195 268.711 106.631 267.834 105.763C267.496 102.325 265.186 101.5 262.2 101.309C260.646 101.205 259.101 100.858 257.52 101.023C256.01 100.962 254.551 100.667 253.093 100.293C249.117 98.7654 244.784 99.0171 240.747 97.7843C239.063 97.2461 238.047 96.1522 237.9 94.3377C236.337 92.3756 234.505 90.7087 232.422 89.311C232.378 87.7396 233.22 87.783 234.305 88.2778Z" fill="#D16907"/>
<path d="M52.1712 96.048C54.0291 94.8238 54.168 92.5492 55.3314 90.891C55.5224 91.0386 55.7134 91.1775 55.913 91.3164C56.6423 93.7647 58.6044 94.4071 60.8356 94.7457C67.6942 95.7875 74.5701 96.3258 81.5069 95.8744C83.5123 95.7441 85.5612 95.5358 87.4365 96.6036C88.5217 97.6888 88.0616 98.8522 87.6362 100.024C86.5944 102.62 87.176 105.329 87.1066 107.994C87.4191 113.741 85.8564 119.376 86.1516 125.123C86.2124 126.252 85.9085 127.415 84.832 128.144C80.4303 128.388 82.9827 124.897 82.1753 123.204C81.0814 121.902 81.2898 120.392 81.4808 118.89C82.3837 113.516 82.3924 108.142 81.5503 102.776C78.5551 101.604 76.6277 102.377 76.0894 105.728C75.3254 112.96 76.1068 120.218 75.6814 127.441C75.638 127.684 75.5946 127.919 75.5425 128.162C74.5007 129.499 77.7042 133.866 72.5907 132.303C71.601 127.033 71.9135 121.633 71.1322 116.346C70.4897 112.647 70.837 108.862 70.0903 105.146C69.6649 103.011 68.7707 101.978 66.5569 101.509C56.7725 99.4339 56.8507 99.3731 55.6439 109.374C55.0188 114.54 54.7757 119.732 54.1246 124.889C53.9423 126.313 54.0465 127.806 52.9178 128.934C52.6574 130.315 52.64 131.956 50.539 131.695C48.985 131.504 48.3339 130.567 48.6551 129.004C51.3551 124.151 50.1397 118.699 50.8689 113.559C51.6764 107.786 51.7632 101.891 52.1712 96.048Z" fill="#743609"/>
<path d="M182.867 64.0644C180.757 64.7763 178.248 66.6603 177.788 62.3888C178.457 61.4772 178.934 60.2184 179.837 59.6975C189.291 54.2801 199.44 52.3527 210.136 54.6013C214.086 55.4347 214.885 58.9074 214.616 62.4583C214.486 64.1512 213.861 65.8094 213.461 67.485C211.604 67.268 208.947 68.4834 208.93 64.9586C208.851 64.8371 208.765 64.7242 208.695 64.594C207.888 63.1355 209.963 60.6698 207.705 60.0534C205.995 59.5846 206.16 62.5711 204.615 63.1789C203.408 63.231 204.702 67.0943 202.01 64.8892C201.593 64.4464 201.576 63.8821 201.437 63.3351C201.125 62.1544 203.208 60.2271 200.769 59.8451C198.685 59.5239 196.384 59.8364 195.62 62.5538C195.317 63.6303 195.447 64.8718 194.483 65.7053C192.512 65.8181 192.747 64.2554 192.486 63.0747C192.017 61.1908 191.201 60.9216 189.3 61.729C187.216 62.6232 185.159 63.7171 182.867 64.0644Z" fill="#E26F0B"/>
<path d="M315.029 76.9221C313.813 76.8874 312.78 76.5488 312.338 75.2726C311.296 73.8574 312.259 72.5204 312.494 71.1487C312.685 69.994 314.031 68.3879 312.242 67.7976C310.523 67.2333 308.457 67.3374 307.328 69.4037C306.59 70.7667 306.825 72.5986 305.314 73.5883C304.498 74.0311 304.255 76.4967 302.71 74.3089C301.043 72.9979 303.126 69.8638 301.225 69.5426C298.612 69.0998 296.025 70.5497 293.984 72.4683C293.472 72.9545 293.003 73.5015 292.291 73.7012C290.373 74.3783 288.315 75.8108 287.108 72.7288C287.239 71.7738 287.334 70.8014 288.089 70.0809C289.235 68.275 291.163 67.3374 292.934 66.6168C300.426 63.5695 308.118 61.5207 316.392 62.684C321.896 63.4654 324.405 66.9641 325.69 71.8606C325.23 73.5883 324.761 75.3246 324.301 77.0523C322.365 77.7816 320.377 78.8928 318.979 76.2189C318.206 74.4304 319.422 72.8938 319.63 71.2355C319.734 70.4021 320.038 69.3256 319.014 69.013C317.92 68.6744 317.686 69.7944 317.382 70.5584C316.54 72.6594 316.696 75.125 315.029 76.9221Z" fill="#C55D09"/>
<path d="M121.442 70.923C123.951 71.713 125.383 73.9876 127.519 75.2899C128.457 76.5227 128.604 77.7295 127.389 78.8842C125.288 79.2228 124.472 77.3649 123.161 76.3751C120.227 74.1613 117.171 72.3729 113.272 73.2758C112.873 73.3886 112.465 73.4581 112.057 73.5015C109.131 73.5188 106.509 71.7999 103.549 72.0429C103.011 72.0864 102.455 71.6002 101.943 72.1124C102.49 72.4249 102.707 72.9458 102.88 73.5102C103.375 76.3404 103.401 79.2314 104.148 82.027C104.591 84.9353 104.487 87.8611 104.391 90.7868C104.174 92.6361 103.853 94.4158 101.561 94.8065C99.9807 94.52 99.7637 93.2351 99.5119 91.9849C99.0865 88.0087 98.5482 84.0498 97.9752 80.0909C97.7408 78.5629 97.6627 77.0002 97.272 75.4896C96.9247 73.8574 96.8813 72.1818 96.6208 70.541C97.2893 67.9365 93.7472 67.9365 93.6777 65.8008C94.2073 65.766 94.7456 65.7313 95.2752 65.7053C103.618 65.1931 111.64 66.8252 119.541 69.2822C120.374 69.5252 120.964 70.1937 121.442 70.923Z" fill="#F8971A"/>
<path d="M274.259 72.7288C272.419 72.5725 270.378 73.4928 268.824 71.7478C267.869 70.5844 268.46 69.2908 268.529 68.0493C268.581 67.1725 268.599 66.1914 267.626 65.8876C266.576 65.5577 266.185 66.5127 265.794 67.2767C265.161 68.5182 265.074 70.0809 263.693 70.8796C262.843 71.1574 261.992 71.4352 261.141 71.713C260.62 71.1227 260.681 70.4194 260.681 69.6989C260.672 68.2577 262.226 66.3564 260.195 65.4795C258.346 64.6808 256.236 64.8458 254.595 66.4432C254.187 66.8426 253.796 67.268 253.249 67.4763C251.99 67.4156 253.267 71.1835 250.714 69.1519C249.976 66.9294 248.735 66.2088 246.321 67.0596C244.064 67.8583 242.006 69.1519 239.636 69.6468C236.216 69.4037 236.754 67.4937 238.082 65.5837C239.28 63.8474 241.269 63.2483 243.257 62.7708C249.273 61.3297 255.411 60.6959 261.549 60.3399C266.376 60.0621 271.134 60.6959 273.313 66.1741C273.573 66.8339 274.346 67.1378 274.971 67.4937C275.379 69.3256 274.606 71.0011 274.259 72.7288Z" fill="#C9600B"/>
<path d="M274.953 67.4937C273.443 68.6223 271.811 69.8552 271.706 66.5474C271.62 63.6911 270.109 62.6145 267.461 62.1284C258.319 60.4528 249.594 62.6927 240.843 64.7503C239.315 65.1062 237.891 66.1914 237.934 68.058C237.969 69.4905 239.323 69.1953 240.261 69.3516C240.513 69.4731 240.626 69.6207 240.582 69.8031C240.539 69.9941 240.487 70.0982 240.417 70.0982C238.612 69.8031 236.797 69.5166 234.991 69.2214C235.165 65.6792 236.901 63.1528 240.287 62.1718C249.446 59.5325 258.762 58.0393 268.294 59.6714C273.191 60.5049 274.832 62.5885 274.953 67.4937Z" fill="#F58314"/>
<path d="M325.69 71.8606C324.448 70.4715 322.564 69.8638 322.46 67.2506C322.373 65.2451 319.812 64.4985 317.763 64.0557C308.613 62.0849 300.235 64.7416 292.013 68.3445C290.702 68.9175 289.391 69.5078 288.089 70.0808C289.174 66.6776 292.1 65.2451 295.017 64.0991C302.561 61.1473 310.444 60.4181 318.432 61.564C324.474 62.4409 326.757 65.8876 325.69 71.8606Z" fill="#F28315"/>
<path d="M360.147 85.7601C361.05 86.0379 361.553 86.7238 361.944 87.5225C359.053 93.7126 355.971 99.8246 354.79 106.648C353.488 110.677 354.521 115.191 352.229 119.011C350.51 118.603 350.311 117.075 349.798 115.764C349.451 109.791 350.988 104.157 352.889 98.5831C354.955 95.6573 356.804 92.6187 357.786 89.1113C358.168 87.7569 358.584 86.3331 360.147 85.7601Z" fill="#C1570C"/>
<path d="M121.442 70.923C112.934 68.1101 104.079 67.0249 95.2666 65.6879C98.9216 64.6027 102.698 64.9586 106.431 64.7763C111.232 63.7432 114.992 67.0596 119.35 67.9278C120.565 68.1709 121.39 69.4731 121.442 70.923Z" fill="#FBBD41"/>
<path d="M93.6782 65.7834C94.9892 67.1725 99.087 66.2262 97.3593 70.1677C95.6663 71.6175 93.3049 71.1748 91.4731 72.2339C90.0753 72.7288 89.0248 71.8953 87.8701 71.3397C85.2309 70.0635 83.3122 70.6191 82.5048 73.6578C82.0794 73.8053 81.7321 73.7098 81.4717 73.3365C81.5411 71.3657 81.6106 69.4037 81.68 67.4329C83.1993 65.9918 85.0659 66.8165 86.7762 66.6342C88.773 67.4069 90.3357 67.0336 91.2126 64.9152C92.0287 65.2104 92.8535 65.4969 93.6782 65.7834Z" fill="#FBBD41"/>
<path d="M320.898 89.2502C321.497 88.929 322.105 88.6164 322.704 88.2952C322.825 89.6756 322.799 91.1515 324.579 91.5769C325.742 93.5129 325.664 95.7094 325.925 97.8451C323.225 97.793 320.611 97.4978 318.788 95.1277C317.903 92.6013 318.493 90.6045 320.898 89.2502Z" fill="#1D3F6F"/>
<path d="M80.7683 60.4007C73.467 60.4354 66.1656 60.4702 58.8643 60.5049C66.1569 59.0811 73.4583 59.2374 80.7683 60.4007Z" fill="#FDBF69"/>
<path d="M337.818 176.484C338.765 177.63 337.818 178.447 337.324 179.349C336.065 179.332 334.806 179.315 333.547 179.297C333.052 178.551 332.21 177.943 332.557 176.849C333.408 176.102 334.285 176.311 335.162 176.797C336.039 176.693 336.924 176.589 337.818 176.484Z" fill="#414658"/>
<path d="M231.51 178.342C231.501 178.985 231.501 179.636 231.492 180.278C230.303 181.164 228.957 181.303 227.542 181.077C227.047 180.218 226.214 179.419 226.943 178.299C228.48 177.63 230.008 177.179 231.51 178.342Z" fill="#324579"/>
<path d="M231.51 178.342C229.982 178.75 228.472 178.611 226.952 178.299C227.369 171.449 227.777 164.599 228.194 157.749C227.36 156.49 226.952 155.119 227.065 153.608C227.213 151.09 228.02 148.642 227.899 146.09C227.907 144.822 227.812 143.563 227.508 142.33C227.482 137.425 223.28 137.547 220.224 136.288C218.436 135.489 216.552 135.003 214.598 134.803C212.046 134.352 209.806 132.668 207.071 132.971C204.831 135.142 206.307 137.859 205.995 140.299C205.526 143.954 206.915 147.817 204.788 151.299C204.293 157.211 203.789 163.132 203.295 169.044C202.018 170.155 200.725 170.147 199.431 169.088C200.013 161.361 200.595 153.634 201.176 145.899C201.046 144.319 199.813 142.955 200.239 141.254C201.853 135.003 201.35 128.466 202.808 122.189C202.878 121.711 202.991 121.242 203.13 120.782C203.911 118.386 203.407 115.903 203.598 113.472C203.729 111.814 203.277 109.904 205.335 108.975C207.714 110.173 207.54 112.456 207.644 114.575C207.757 116.867 207.688 119.167 207.705 121.459C207.722 123.708 208.929 124.863 211.013 125.288C215.692 126.582 220.181 128.474 224.947 129.49C227.369 130.002 228.723 129.646 228.828 126.729C228.967 122.744 229.904 118.812 229.644 114.792C229.722 113.073 229.453 111.354 229.635 109.635C230.208 108.133 231.423 106.9 231.467 105.173C231.84 102.95 232.413 100.771 233.16 98.6525C233.603 97.1679 233.09 96.1174 231.693 95.5184C228.776 94.2682 225.746 93.4001 222.594 93.0267C220.537 92.7837 219.729 93.921 219.764 95.8396C219.773 96.43 219.773 97.0203 219.799 97.6107C219.842 98.4268 220.094 99.1995 220.293 99.9808C220.502 100.814 220.615 101.665 220.675 102.525C220.597 104.582 221.535 106.483 221.544 108.532C221.596 110.434 221.561 112.335 221.596 114.236C221.604 114.974 221.691 115.712 221.622 116.459C221.544 118.456 221.752 120.478 221.431 122.449C221.162 124.099 220.684 125.748 218.41 124.316C215.788 121.147 216.873 117.084 215.805 113.542C215.762 109.921 215.562 106.301 214.928 102.733C214.711 100.745 215.171 98.7046 214.485 96.7599C213.817 95.0669 213.513 93.1917 212.107 91.8634C209.537 90.5871 206.793 91.4901 204.154 91.2383C202.114 91.2296 200.126 91.6029 198.259 92.393C196.045 93.3306 194.674 92.5666 193.823 90.4743C192.85 87.1752 186.018 83.8241 183.222 85.3C181.46 86.2376 182.684 87.8524 182.45 89.1373C182.467 90.6045 182.701 92.0544 182.892 93.5042C183.379 97.4805 183.544 101.483 183.926 105.476C183.778 106.414 183.405 107.273 182.988 108.116C182.25 109.036 182.207 111.258 180.809 110.755C178.769 110.008 179.507 107.612 179.22 105.867C178.187 101.379 178.43 96.6904 177.154 92.2454C176.346 89.4585 177.597 85.9685 174.341 84.0151C171.693 83.0167 169.054 82.9472 166.467 84.1713C165.729 84.5186 165.381 85.4128 165.824 85.9511C166.206 86.4286 166.918 85.2131 167.665 85.6559C168.924 87.1926 169.427 89.0939 170.243 90.8476C172.275 95.5965 172.639 100.814 174.471 105.624C174.766 107.777 174.827 109.939 174.506 112.083C174.367 113.029 174.271 114.262 172.934 114.297C171.988 114.323 171.407 113.559 171.094 112.708C170.608 111.363 169.861 110.078 170.113 108.619C172.171 117.718 169.262 115.964 178.595 118.942C180.93 119.688 183.335 120.201 185.731 120.704C188.544 121.303 189.803 120.183 189.76 117.318C189.725 114.722 189.716 112.127 189.699 109.522C189.647 105.016 190.593 100.649 191.583 96.3084C192.043 94.2943 193.111 93.1049 195.229 94.8065C196.41 98.8956 194.014 102.907 194.986 106.996C194.587 111.857 194.951 116.728 194.743 121.59C194.578 131.053 195.299 140.533 194.092 149.97C193.623 155.492 193.154 161.014 192.685 166.544C191.34 168.02 189.959 169.114 188.31 166.9C187.954 160.423 190.15 153.973 188.57 147.479C188.049 145.916 187.659 144.345 188.067 142.678C189.013 140.794 188.952 138.771 188.892 136.748C188.562 134.23 190.072 131.878 189.551 129.464C189.421 130.419 189.985 131.6 188.935 132.72C186.738 132.112 187.008 129.421 185.375 128.405C184.134 127.606 182.693 127.632 181.312 127.398C179.897 127.077 178.491 126.747 177.093 126.382C174.74 125.835 172.726 124.168 170.165 124.377C167.838 125.809 168.481 128.301 168.455 130.245C168.351 136.922 165.633 143.294 166.319 150.031C166.085 153.374 165.842 156.716 165.607 160.059C164.374 161.682 163.011 161.465 161.596 160.319C162.048 152.809 162.508 145.3 162.959 137.79C162.134 136.739 162.039 135.533 162.178 134.265C162.933 130.063 162.898 125.757 163.897 121.59C164.722 119.263 165.737 116.971 165.416 114.393C165.39 113.481 165.451 112.569 165.399 111.666C165.659 108.437 165.13 105.32 163.958 102.308C163.636 100.727 163.723 99.1213 163.697 97.5239C163.688 96.8814 163.697 96.239 163.714 95.6052C163.775 92.7576 163.263 90.1357 160.806 88.2778C159.712 87.1145 158.028 86.8627 156.891 85.7688C157.976 83.225 159.183 80.7594 161.327 78.8929C164.904 81.2369 168.698 79.8826 172.526 79.8478C180.974 79.7784 189.543 79.9954 196.341 86.3244C196.853 86.8019 198.007 87.4878 198.094 86.9756C199.127 81.0633 203.095 86.0292 205.491 85.0135C207.193 84.2929 209.45 84.8746 211.473 85.1003C208.235 86.5154 204.371 84.5794 200.404 87.3576C209.059 87.6006 216.795 87.0797 224.435 88.9897C228.124 89.91 231.58 90.8389 234.688 93.1222C235.478 93.7039 236.294 95.4924 237.909 94.3203C238.707 95.1364 239.506 95.9525 240.305 96.7772C239.81 98.9737 239.723 101.266 238.786 103.367C238.178 104.669 237.414 105.893 236.815 107.195C235.886 110.165 235.695 112.786 239.567 113.785C240.279 113.967 240.713 114.566 240.4 115.417C239.567 116.164 238.525 116.25 237.501 116.398C234.74 116.928 235.591 119.411 234.966 121.104C234.306 124.368 234.731 127.658 234.696 130.94C234.818 135.289 234.427 139.639 234.992 143.971C235.599 146.376 235.33 148.833 235.33 151.446C241.668 150.865 247.051 146.88 253.388 146.611C255.446 147.331 256.028 148.616 254.916 150.561C248.127 151.985 241.954 155.301 235.243 156.977C232.943 157.549 232.995 159.381 232.847 161.048C232.335 166.83 231.944 172.586 231.51 178.342Z" fill="#F99414"/>
<path d="M161.31 78.8929C160.025 81.1327 160.294 84.371 157.134 85.4128C156.891 86.1247 156.3 86.3765 155.641 86.5241C152.376 86.5154 149.398 84.9614 146.16 84.7617C144.597 84.6662 142.948 84.1453 142.705 86.5241C142.653 87.8003 143.243 88.9637 143.313 90.2138C143.495 92.1585 143.286 94.1467 143.955 96.048C144.632 98.4355 145.344 100.814 145.848 103.245C146.16 106.918 147.523 110.494 146.855 114.254C145.839 115.226 144.841 115.174 143.851 114.219C142.375 110.59 141.68 106.735 140.639 102.976C140.231 100.875 140.17 98.7393 139.996 96.621C140.43 94.3898 140.092 92.2541 139.189 90.1965C138.841 88.6685 138.815 87.0884 138.546 85.5517C138.199 83.5723 137.053 82.27 135.013 82.9038C132.92 83.5549 131.445 82.7302 129.899 81.671C128.953 80.5597 126.201 81.3845 126.687 78.7105C127.902 77.7989 127.321 76.4446 127.529 75.2899C137.148 75.6545 146.629 77.3475 156.179 78.3546C157.889 78.5369 159.599 78.7105 161.31 78.8929Z" fill="#CC660E"/>
<path d="M234.305 88.2778C233.541 88.382 232.803 88.5296 232.404 89.311C228.975 88.5904 225.546 87.8611 222.116 87.1405C226.292 86.7325 230.346 87.0884 234.305 88.2778Z" fill="#F99414"/>
<path d="M86.7333 99.3644C87.0632 98.5397 87.3931 97.7236 87.7317 96.8988C86.959 95.4316 87.4886 94.0859 88.1224 92.7489C88.4349 92.4538 88.7995 92.2801 89.2249 92.2367C90.8658 92.4798 90.9873 93.8081 91.2044 95.0496C91.4388 96.4039 91.3259 97.8972 92.715 98.7741C96.917 101.162 101.701 101.709 106.232 103.037C109.236 103.914 109.011 101.5 109.471 99.7898C110.174 95.7354 109.705 91.6637 109.766 87.6007C109.731 85.4302 109.749 83.2598 109.827 81.0893C109.853 79.9781 109.888 78.8668 110.209 77.7903C111.094 76.1407 112.388 74.6909 112.718 72.7549L112.935 72.5986C114.532 72.1298 115.956 72.7028 117.371 73.3279C118.465 74.5693 119.003 75.9497 118.456 77.608C117.996 78.589 116.85 78.8321 116.251 79.6655C115.539 80.7421 115.635 81.9575 115.678 83.1556C115.67 86.1855 115.93 89.2068 115.4 92.2107C115.01 93.8081 114.758 95.4316 114.445 97.0377C113.56 100.042 113.951 103.072 114.202 106.11C113.959 110.738 113.898 115.374 113.959 120.01C114.011 121.199 113.925 122.371 113.76 123.543C113.421 125.731 112.648 127.841 112.588 130.089C112.197 135.437 111.798 140.785 111.407 146.142C110.096 147.956 108.568 147.661 106.962 146.611C107.205 140.542 108.559 134.508 107.682 128.388C107.578 126.764 106.276 125.418 106.614 123.691C107.535 122.805 108.316 121.859 108.186 120.461C108.177 119.497 107.995 118.56 107.917 117.613C108.412 111.284 108.134 110.85 103.194 110.442C101.805 110.199 100.702 109.21 99.3305 108.932C96.5958 108.15 93.887 107.308 91.2999 106.154C89.4073 107.534 89.8674 109.756 89.7806 111.502C89.3378 119.767 87.0545 127.823 87.1153 136.14C87.1326 138.528 85.7002 139.031 83.6426 138.45C84.0333 135.012 84.4239 131.582 84.8233 128.144C84.5802 121.173 85.5699 114.271 86.004 107.334C87.4191 104.791 86.4121 102.021 86.7333 99.3644Z" fill="#F8971A"/>
<path d="M144.016 113.681C144.719 114.523 145.682 114.384 146.611 114.375C150.996 113.993 152.046 111.328 151.543 107.404C151.326 105.737 151.473 104.009 151.491 102.299C152.229 95.501 154.043 93.6431 158.87 94.7544C159.287 94.8499 159.582 95.1972 159.842 95.5358C159.382 97.6715 160.32 100.172 158.236 101.917C155.215 103.844 156.743 106.883 156.439 109.453C156.231 111.172 156.535 112.908 157.003 114.601C157.168 115.269 157.255 115.947 157.299 116.641C157.498 119.315 157.316 121.98 157.359 124.646C157.472 127.797 156.457 130.827 156.413 133.953C156.161 136.236 155.467 138.45 155.302 140.742C154.929 146.341 154.555 151.95 154.182 157.55C152.94 159.034 151.551 158.869 150.084 157.914C149.98 151.542 151.404 145.239 150.944 138.849C150.093 137.842 149.893 136.67 150.084 135.402C150.666 132.893 150.614 130.341 150.622 127.788C150.579 126.929 150.631 126.069 150.648 125.219C151.03 120.991 147.757 121.043 145.04 120.452C143.564 120.044 142.305 119.115 140.803 118.794C139.753 118.456 138.668 118.308 137.574 118.212C136.393 117.926 135.62 116.615 134.223 116.893C132.009 118.004 133.276 120.504 132.148 122.032C131.227 125.731 128.623 128.83 128.328 132.772C128.267 133.571 127.868 134.456 126.713 134.335C126.695 131.4 126.669 128.466 126.652 125.523C126.218 124.324 124.568 123.83 124.759 122.258C127.216 118.239 126.505 113.672 126.991 109.305C127.216 107.352 128.223 105.633 128.605 103.723C129.725 102.525 129.456 97.767 132.747 102.091C132.955 102.967 132.964 103.87 132.99 104.764C132.573 107.838 134.17 109.348 136.888 110.39C139.336 111.311 142.349 111.102 144.016 113.681Z" fill="#F4820E"/>
<path d="M177.171 125.54C178.734 125.349 180.167 125.731 181.512 126.504C183.11 129.099 183.014 132.155 183.83 134.968C184.021 135.819 184.108 136.67 184.065 137.538C183.249 140.038 183.535 141.844 186.713 142.096C187.416 142.148 188.44 142.244 188.397 143.442C189.326 144.753 189.474 146.09 188.553 147.479C186.652 147.157 184.751 146.836 182.849 146.515C181.365 147.47 180.254 146.715 179.212 145.708C176.685 144.24 173.812 143.85 171.068 143.016C167.604 141.957 166.389 143.216 166.571 146.593C166.632 147.73 166.397 148.885 166.302 150.031C164.791 143.598 166.996 137.304 167.083 130.923C167.109 128.709 167.075 126.339 168.03 124.16C168.551 122.979 168.837 121.859 170.339 123.126C171.181 124.29 170.704 125.592 170.825 126.842C170.947 128.17 168.742 130.541 172.093 130.688C174.046 130.775 176.703 131.426 176.052 127.719C175.904 126.912 176.312 126.009 177.171 125.54Z" fill="#9E4609"/>
<path d="M204.796 151.29C204.796 145.603 204.735 139.917 204.839 134.23C204.865 132.728 204.475 130.306 207.496 131.556C208.121 132.433 208.112 133.397 208.06 134.43C207.982 135.871 206.81 137.929 209.015 138.458C210.943 138.927 213.07 138.502 214.042 136.192C214.32 135.533 214.546 134.847 215.11 134.361C217.037 133.692 218.704 134.508 220.371 135.281C221.144 136.279 221.387 137.399 221.196 138.632C220.467 142.139 220.449 145.656 221.152 149.172C222.446 152.314 226.492 150.856 228.159 153.365C228.167 154.823 228.185 156.282 228.193 157.74C225.745 157.168 223.288 156.603 220.84 156.03C218.912 156.933 217.506 156.273 216.447 154.563C212.566 153.478 208.677 152.384 204.796 151.29Z" fill="#BE570A"/>
<path d="M126.73 134.317C127.512 129.672 129.309 125.401 131.471 121.268C131.896 121.286 132.174 121.494 132.278 121.911C132.426 122.718 131.479 123.508 132.235 124.333C132.426 126.043 131.358 128.058 133.441 129.299C134.726 129.924 136.228 129.794 137.478 130.515C139.77 131.878 142.41 131.93 144.901 132.572C147.063 133.128 149.572 133.032 150.944 135.35C150.952 136.514 150.961 137.677 150.961 138.849C144.901 139.005 139.64 135.854 133.875 134.699C131.253 134.178 130.186 134.387 129.969 137.243C129.639 141.688 128.996 146.116 128.493 150.552C127.329 151.863 126.157 151.828 124.977 150.569C125.558 145.152 126.149 139.735 126.73 134.317Z" fill="#D26007"/>
<path d="M99.7387 108.255C101.267 107.899 102.187 108.758 102.96 109.887C104.184 110.468 104.323 111.684 104.349 112.743C104.418 115.86 106.267 117.058 109.011 117.448C109.141 118.438 109.271 119.437 109.401 120.426C108.386 121.598 105.226 121.433 106.962 124.324C108.785 125.401 108.742 126.816 107.682 128.405C107.266 128.309 106.667 127.997 106.467 128.162C104.01 130.202 102.187 130.645 101.258 126.721C101.119 126.156 99.2785 125.878 98.1846 125.67C95.8145 125.21 93.427 124.88 91.0482 124.507C90.1019 124.107 88.5653 124.854 88.2093 123.361C87.8447 121.824 89.1122 121.216 90.2495 120.643C90.8052 120.504 90.0846 120.626 90.6489 120.496C97.9068 118.846 97.9068 118.846 98.6187 111.363C98.7229 110.225 98.749 109.062 99.7387 108.255Z" fill="#763E13"/>
<path d="M200.533 142.096C201.297 143.268 203.173 144.249 201.185 145.89C198.649 146.966 195.229 146.489 194.083 149.979C192.702 144.883 193.727 139.691 193.545 134.552C193.388 130.089 193.562 125.618 193.597 121.147C194.196 121.051 194.63 121.347 195.038 121.72C195.758 122.527 196.696 123.092 197.477 123.83C198.953 125.818 196.809 127.771 197.451 129.759C196.87 132.668 196.071 135.533 196.314 138.563C196.453 140.247 196.653 141.74 198.858 141.653C199.257 141.627 199.648 141.671 200.039 141.766C200.204 141.87 200.368 141.983 200.533 142.096Z" fill="#C56113"/>
<path d="M125.22 122.901C127.069 123.013 128.058 123.604 126.669 125.514C121.868 126.703 117.067 127.91 112.588 130.107C110.912 127.884 112.145 125.731 112.753 123.569C116.859 122.484 120.974 121.416 125.22 122.901Z" fill="#944308"/>
<path d="M90.128 121.529C86.8984 123.621 89.9543 123.76 91.0482 124.498C89.4595 124.489 88.5392 124.88 88.4524 126.868C88.2788 130.818 87.7231 134.751 87.3238 138.693C86.3514 140.663 85.0578 140.82 83.4951 139.353C83.5472 139.057 83.5906 138.754 83.6427 138.458C85.9086 137.929 86.8029 136.722 86.7595 134.187C86.5858 124.811 88.3482 115.573 89.2164 106.266C89.364 104.678 89.9109 103.54 91.5171 104.044C92.9495 104.495 91.0569 104.886 91.2045 105.433C92.255 110.902 90.51 116.172 90.128 121.529Z" fill="#C4620F"/>
<path d="M155.311 140.733C153.791 138.528 154.746 136.409 155.528 134.282C156.457 133.293 157.637 132.963 158.948 132.998C160.372 133.223 161.865 133.084 163.176 133.84C163.098 135.159 163.02 136.47 162.933 137.79C160.424 138.84 157.299 138.319 155.311 140.733Z" fill="#954D1B"/>
<path d="M179.202 145.699C180.418 145.968 181.633 146.237 182.849 146.506C182.727 148.104 183.977 150.734 180.817 150.326C177.874 149.962 178.786 147.592 179.202 145.699Z" fill="#35586D"/>
<path d="M71.974 128.214C72.0174 124.168 72.0521 120.122 72.0955 116.068C73.4151 121.451 72.8248 126.894 72.573 132.32C71.2187 131.114 72.4341 129.542 71.974 128.214Z" fill="#A68E6E"/>
<path d="M150.101 157.905C151.49 158.027 152.871 158.123 154.199 157.541C154.876 159.303 154.729 160.883 152.524 161.022C150.57 161.144 149.641 159.928 150.101 157.905Z" fill="#3D3F4E"/>
<path d="M106.962 146.619C108.446 146.463 109.931 146.307 111.407 146.15C112.119 147.861 111.537 149.007 109.74 149.189C108.038 149.363 106.536 148.929 106.962 146.619Z" fill="#3A3840"/>
<path d="M199.431 169.07C200.716 169.053 202.01 169.044 203.295 169.027C204.31 171.605 202.591 171.987 200.786 171.848C199.119 171.727 198.155 170.841 199.431 169.07Z" fill="#414764"/>
<path d="M161.57 160.319C162.907 160.232 164.244 160.145 165.581 160.059C166.137 161.769 166.006 163.167 163.775 163.21C161.865 163.245 160.936 162.324 161.57 160.319Z" fill="#593B1C"/>
<path d="M216.447 154.572C217.914 155.058 219.373 155.553 220.84 156.039C220.614 157.949 219.347 158.227 217.81 157.888C215.848 157.445 216.1 156.004 216.447 154.572Z" fill="#244971"/>
<path d="M83.4864 139.353C84.8321 139.544 86.1344 139.483 87.3151 138.693C87.7492 140.186 87.7665 141.592 85.7524 141.645C84.3893 141.688 82.7832 141.549 83.4864 139.353Z" fill="#252B38"/>
<path d="M124.976 150.569C126.148 150.943 127.32 150.917 128.492 150.552C128.892 152.314 128.258 153.417 126.383 153.252C124.776 153.104 124.186 152.123 124.976 150.569Z" fill="#3E3F44"/>
<path d="M188.292 166.908C189.794 167.334 191.243 167.134 192.667 166.544C192.962 168.02 192.528 169.027 190.879 169.174C189.247 169.313 188.109 168.862 188.292 166.908Z" fill="#243B67"/>
<path d="M335.153 176.806C334.285 176.823 333.416 176.84 332.548 176.858C332.158 171.38 331.697 165.901 331.394 160.415C331.246 157.688 330.222 156.256 327.287 155.978C319.934 155.292 312.901 152.974 305.748 151.325C302.813 150.648 302.24 151.516 302.11 154.103C301.867 158.852 302.336 163.653 301.207 168.35C299.653 169.322 298.134 169.548 296.71 168.107C296.771 165.849 296.84 163.592 296.901 161.335C297.717 158.939 296.832 156.421 297.439 154.007C297.969 145.985 297.179 137.981 297.326 129.959C297.37 127.615 297.361 125.227 300.417 124.62C304.984 124.081 309.134 126.017 313.483 126.816C316.305 127.337 319.092 128.032 321.93 128.457C328.346 129.429 330.117 127.571 328.911 121.216C328.398 118.386 328.667 115.46 327.877 112.665C327.704 110.017 326.037 107.378 327.869 104.73C329.944 104.712 329.388 106.709 329.527 107.534C330.534 113.75 331.689 119.914 331.619 126.313C331.446 142.391 332.991 158.409 334.259 174.427C334.319 175.234 334.849 176.007 335.153 176.806Z" fill="#C75C05"/>
<path d="M270.856 107.447C273.321 104.148 277.245 102.872 280.414 100.545C282.09 102.82 281.447 105.442 281.517 107.959C281.526 109.444 281.569 110.937 281.534 112.43C281.473 113.411 281.491 114.393 281.5 115.365C281.595 116.823 281.526 118.282 281.517 119.732C281.882 125.861 280.874 132.043 282.237 138.128C282.81 139.969 280.492 140.785 280.675 142.504C280.588 142.678 280.492 142.851 280.397 143.025C278.73 143.989 279.529 145.603 279.511 146.897C279.407 153.504 279.286 160.119 279.477 166.717C279.572 169.886 278.279 171.354 275.327 171.336C272.297 171.319 270.639 169.982 270.769 166.544C270.995 160.519 270.864 154.485 270.882 148.451C270.074 147.557 269.762 146.558 269.814 145.317C270.257 134.717 269.345 124.125 269.475 113.524C269.501 111.432 269.041 109.157 270.856 107.447Z" fill="#E1790F"/>
<path d="M254.891 150.595C254.439 149.519 254.969 148.191 254.04 147.236C251.965 144.805 252.329 141.844 252.269 138.979C252.156 133.996 252.034 134.248 247.433 135.385C241.581 136.826 237.831 140.716 234.132 144.9C232.717 140.255 233.672 135.498 233.507 130.792C240.522 131.791 246.66 128.648 253.041 126.66C254.891 126.087 256.61 124.602 258.737 125.748C258.216 139.917 260.325 153.929 261.124 168.02C259.405 169.504 257.834 169.695 256.514 167.525C255.967 161.89 255.429 156.239 254.891 150.595Z" fill="#C75E07"/>
<path d="M258.528 122.197C259.465 123.135 259.265 124.324 259.239 125.47C259.014 125.462 258.84 125.557 258.727 125.757C251.99 128.136 245.357 130.801 238.308 132.225C236.363 132.616 234.627 132.876 233.498 130.801C233.698 127.363 233.159 123.882 234.08 120.487C235.096 121.051 235.191 122.067 235.356 123.057C236.172 128.066 236.172 128.049 241.207 126.677C245.618 125.479 250.141 124.62 254.117 122.145C255.532 121.26 257.069 121.077 258.528 122.197Z" fill="#0B2A74"/>
<path d="M268.321 125.731C268.243 121.685 268.165 117.631 268.078 113.585C266.75 111.076 268.156 108.237 267.114 105.693C267.435 105.372 267.817 105.242 268.26 105.337C269.432 105.659 270.709 105.85 270.847 107.447C270.856 121.112 270.865 134.777 270.873 148.451C269.137 148.173 268.017 147.73 268.477 145.386C269.762 138.849 268.92 132.286 268.321 125.731Z" fill="#5F3316"/>
<path d="M296.641 144.692C296.736 140.351 296.832 136.01 296.936 131.669C297.865 131.747 298.064 132.381 298.064 133.154C298.021 140.177 298.36 147.201 297.83 154.224C297.344 156.568 298.203 159.086 296.91 161.326C296.814 155.778 296.727 150.239 296.641 144.692Z" fill="#AA9072"/>
<path d="M296.71 168.098C298.212 168.176 299.705 168.254 301.207 168.341C301.52 171.206 299.419 171.241 297.648 171.032C295.755 170.815 295.39 169.6 296.71 168.098Z" fill="#213264"/>
<path d="M256.496 167.534C257.981 168.219 259.5 168.506 261.106 168.028C261.914 170.216 260.733 170.885 258.866 170.737C256.982 170.589 255.532 169.904 256.496 167.534Z" fill="#284183"/>
<path d="M350.511 116.172C351.084 117.119 351.657 118.065 352.221 119.011C348.966 125.609 342.454 126.738 336.308 128.396C334.406 128.908 334.346 127.415 334.241 126.043C333.912 121.763 333.521 117.492 333.156 113.22C333.564 111.467 335.118 111.771 336.334 111.449C337.167 111.371 338.035 111.146 338.73 111.866C339.138 114.08 338.539 116.363 339.051 118.56C339.615 120.973 340.388 119.263 341.065 118.577C341.395 116.876 341.23 115.018 342.645 113.655C343.739 112.404 344.894 112.76 346.075 113.507C347.125 114.297 347.429 115.92 348.992 116.12C349.495 116.12 350.008 116.103 350.511 116.172Z" fill="#0952AF"/>
<path d="M327.869 104.721C328.146 107.386 328.433 110.06 328.711 112.726C326.176 114.41 323.588 114.21 320.984 112.917C319.673 107.143 317.303 101.457 319.517 95.3882C321.583 96.3953 324.109 96.2216 325.941 97.8451C326.584 100.137 327.226 102.429 327.869 104.721Z" fill="#FCFBFA"/>
<path d="M354.939 159.459C353.689 150.812 352.439 142.165 351.18 133.518C350.98 132.129 350.772 130.74 350.563 129.351C352.187 127.615 353.168 127.294 353.585 130.271C354.852 139.344 356.172 148.408 357.778 157.419C358.125 159.347 356.806 162.776 360.834 162.828C361.285 164.347 360.886 165.485 359.176 165.554C357.535 165.615 355.972 165.163 355.521 163.262C355.226 162.021 355.121 160.727 354.939 159.459Z" fill="#6A3B0F"/>
<path d="M343.2 90.3527C343.513 93.5042 342.506 96.1435 340.179 98.2879C339.024 99.1474 337.783 99.703 336.298 99.5294C334.518 99.1126 332.496 99.3818 331.167 97.7062C329.457 90.3875 330.351 89.3717 338.686 89.2415C340.04 90.2225 342.124 88.2344 343.2 90.3527Z" fill="#043388"/>
<path d="M346.23 114.358C348.028 105.251 349.868 96.1522 352.95 87.3576C353.853 87.6441 353.836 85.6993 354.964 86.5241C356.718 90.1704 354.808 93.6084 353.792 96.8033C351.735 103.228 350.32 109.687 349.998 116.407C346.951 119.029 346.994 115.947 346.23 114.358Z" fill="#F1730B"/>
<path d="M331.167 97.7062C332.999 98.1316 334.987 97.7062 336.698 98.7393C338.886 103.384 338.642 108.011 336.646 112.639C335.482 112.838 334.319 113.029 333.156 113.22C331.871 108.133 331.089 102.976 331.167 97.7062Z" fill="#F6F6F6"/>
<path d="M339.033 134.126C339.172 135.055 339.302 135.975 339.441 136.904C339.511 141.914 339.563 146.914 339.649 151.924C339.684 153.955 339.597 155.796 336.758 155.396C335.977 149.554 335.899 143.667 335.708 137.781C335.621 135.281 336.35 133.909 339.033 134.126Z" fill="#0D1E3D"/>
<path d="M349.998 116.407C348.939 108.046 352.377 100.389 353.74 92.4017C354.079 90.4309 354.548 88.4862 354.964 86.5241C355.737 86.2376 356.501 85.9511 357.274 85.6646C358.68 86.7238 357.933 87.9653 357.517 89.1286C356.362 92.3322 355.494 95.6399 354.035 98.7306C351.926 104.356 350.927 110.199 350.511 116.164L350.311 116.459L349.998 116.407Z" fill="#F3C773"/>
<path d="M336.646 112.647C336.663 108.011 336.68 103.375 336.698 98.748C337.896 98.8696 338.911 97.6194 340.179 98.2879C340.578 102.229 339.632 106.067 339.207 109.939C338.747 110.512 339.094 111.423 338.373 111.884C337.8 112.135 337.227 112.387 336.646 112.647Z" fill="#10203E"/>
<path d="M354.036 98.7393C354.184 94.1553 356.337 90.0663 357.274 85.6733C358.264 84.6662 359.21 85.1003 360.148 85.7601C358.429 90.2399 357.344 95.0148 354.036 98.7393Z" fill="#6A3A0F"/>
<path d="M338.382 111.875C338.66 111.224 338.937 110.581 339.215 109.93C339.276 112.04 339.319 114.141 339.415 116.25C339.467 117.344 339.346 118.638 341.064 118.586C341.377 120.531 341.186 122.215 338.382 123.204C338.382 119.167 338.382 115.521 338.382 111.875Z" fill="#8A4D37"/>
<path d="M343.201 90.3528C341.647 90.1791 339.928 90.6479 338.678 89.2328C339.598 88.8769 340.518 88.5122 341.43 88.1476C344.39 86.9929 343.861 88.6164 343.201 90.3528Z" fill="#F2F0EA"/>
<path d="M280.302 112.509C280.276 111.25 280.25 109.982 280.215 108.723C281.778 106.683 283.705 106.197 286.014 107.378C287.195 107.352 288.376 107.317 289.556 107.291C293.107 105.259 296.563 106.735 300.044 107.577C304.029 110.642 304.176 111.354 301.407 114.245C295.547 115.191 289.652 114.592 283.766 114.627C282.22 114.627 280.97 114.002 280.302 112.509Z" fill="#043B9C"/>
<path d="M319.508 95.3968C320.194 101.153 320.871 106.9 321.557 112.656C320.914 114.531 319.516 114.445 317.988 114.045C316.634 113.307 316.417 111.831 315.792 110.625C315.584 107.161 312.779 105.016 311.442 102.125C313.969 101.057 315.592 99.5554 314.16 96.5428C313.821 94.3203 313.63 92.1065 314.342 89.9186C316.382 88.2778 318.718 89.4064 320.905 89.2502C319.464 91.082 318.917 93.1049 319.508 95.3968Z" fill="#743A0A"/>
<path d="M300.408 108.515C296.788 108.107 293.176 107.699 289.556 107.291C290.563 104.122 288.132 100.38 291.153 97.5412C294.791 97.9493 298.48 98.2097 301.563 100.554C302.7 103.427 302.717 106.145 300.408 108.515Z" fill="#FCFDFD"/>
<path d="M314.334 89.9274C315.949 92.1846 314.334 94.7891 315.09 97.1332C315.775 99.2863 314.135 99.677 312.763 99.7811C307.467 100.163 302.136 100.571 297.11 98.2358C295.981 97.7149 293.88 97.4978 295.833 95.4837C299.185 94.8499 302.293 93.1917 305.765 93.0615C309.438 95.0496 312.146 94.2161 313.822 90.3267C314.022 90.2225 314.195 90.0923 314.334 89.9274Z" fill="#0A53B6"/>
<path d="M253.318 103.723C253.37 102.299 253.431 100.884 253.483 99.4599C254.863 99.6249 256.313 99.4946 257.52 100.389C258.996 104.139 263.12 103.054 265.663 104.843C261.461 108.098 257.225 111.363 251.694 111.944C247.953 112.335 244.176 112.352 240.443 111.936C238.394 111.71 235.911 111.649 235.659 108.628C240.078 107.022 244.645 108.22 249.133 108.046C252.259 107.916 253.665 106.848 253.318 103.723Z" fill="#5F3316"/>
<path d="M295.841 95.475C296.467 98.2792 299.314 98.0535 300.946 98.2965C305.148 98.9129 309.489 98.6265 313.778 98.6265C314.603 98.6265 314.855 97.8104 315.089 97.1332C316.435 101.926 316.417 101.952 311.252 102.238C309.446 103.61 307.709 102.403 305.947 102.099C304.515 101.17 302.839 100.944 301.25 100.441C297.838 99.6335 294.088 100.024 291.153 97.5412C292.438 96.2129 294.027 95.6052 295.841 95.475Z" fill="#12305E"/>
<path d="M286.015 107.378C284.079 107.829 282.151 108.272 280.215 108.723C279.963 105.989 279.911 103.263 280.406 100.545C282.334 100.05 284.261 99.5641 286.31 99.0432C286.779 101.978 286.388 104.678 286.015 107.378Z" fill="#FBFAF9"/>
<path d="M313.821 90.318C313.109 91.9936 314.134 94.8673 311.807 95.2319C309.802 95.5531 306.902 96.1261 305.765 93.0528C308.291 91.655 310.757 90.1183 313.821 90.318Z" fill="#E8ECEE"/>
<path fill-rule="evenodd" clip-rule="evenodd" d="M58.8653 60.5049C66.1664 59.8278 73.4675 60.0184 80.7686 60.4004C84.6407 60.9995 89.1988 60.01 91.213 64.9151C91.3605 68.5267 88.982 67.8319 86.8116 67.502C85.3097 67.3718 83.1476 64.5418 82.6788 68.544C82.6186 70.2905 82.7109 72.0453 82.3155 73.7666C82.0293 73.6313 81.751 73.4881 81.4727 73.3448C79.7067 76.8686 80.7552 81.1861 78.2618 85.503C78.0432 85.4543 77.8625 85.3673 77.712 85.25C77.7657 77.8382 79.0643 71.5269 80.0401 65.0108C78.8854 64.8892 77.7393 64.8452 76.628 64.6455C72.9644 63.9857 71.3845 65.1234 71.8272 69.1602C72.2787 73.3014 72.1832 77.5127 72.1485 81.6973C72.1408 82.9591 72.6128 84.5241 70.9805 85.8067C70.7257 85.8051 70.4983 85.7712 70.294 85.71C70.033 84.1013 69.7457 82.7375 69.6827 81.3672C69.483 76.8963 69.2575 72.4251 69.3008 67.9541C69.3529 62.5801 65.5235 65.002 63.1534 64.8457C59.4121 64.5942 61.3044 67.1987 61.5909 68.6485C62.3722 72.6072 63.4143 76.505 64.2911 80.4463C64.7339 82.4692 65.2374 84.5446 64.1348 86.6455C62.3985 85.7774 62.6764 84.3272 62.4073 83.1465C61.2614 78.0853 60.1762 73.0154 59.0216 67.9541C58.7524 66.7995 58.9953 64.9503 57.0596 65.2452C55.4101 65.5056 55.5832 67.1117 55.5919 68.4053C55.6526 75.6198 55.7225 82.8256 55.7833 90.0401C55.972 90.182 56.1635 90.2861 56.3555 90.3623C56.341 90.4198 56.3283 90.478 56.3126 90.5352C55.4358 92.7664 55.5307 95.7267 52.171 96.0479C52.1362 85.9685 52.0934 75.8978 52.0587 65.8184C52.0413 61.1389 55.3839 60.722 58.8653 60.5049Z" fill="#EB780D"/>
<path d="M55.7825 90.0402C66.0964 85.9338 76.775 87.7048 87.3667 88.0781C89.2073 89.2762 89.6153 90.8129 88.478 92.7142L88.2609 92.5753C87.5317 94.902 85.7085 95.5618 83.5467 95.6052C75.4814 95.7528 67.4074 96.0741 59.4722 94.0599C57.7272 93.6171 56.069 93.2438 55.6696 91.1428C55.6089 90.9865 55.496 90.8997 55.3311 90.891C55.4786 90.6132 55.6349 90.3267 55.7825 90.0402Z" fill="#0552BA"/>
<path d="M86.7671 66.6429C85.2391 67.9885 83.442 67.6587 81.6709 67.4416C82.7474 63.1789 84.8745 65.6532 86.7671 66.6429Z" fill="#F8F0DB"/>
<path d="M55.6693 91.1428C59.2462 93.9383 63.7173 93.6866 67.789 94.1641C73.2932 94.8152 78.9364 94.3116 84.5188 94.3898C86.1336 94.4071 87.1754 93.5216 88.2606 92.584C88.469 94.0685 88.3387 95.5097 87.7223 96.8988C78.7541 97.5065 69.7771 97.5933 60.8957 96.0306C58.3867 95.5879 54.0892 96.2911 55.6693 91.1428Z" fill="#062662"/>
<path d="M75.2818 104.791C75.2992 112.578 75.3165 120.357 75.3339 128.144C74.023 120.357 74.3008 112.578 75.2818 104.791Z" fill="#8D7552"/>
<path d="M82.4706 118.864C82.3925 112.804 82.3057 106.744 82.2275 100.675C84.3372 101.952 83.2693 104.018 83.2607 105.667C83.2259 110.078 83.7816 114.531 82.4706 118.864Z" fill="#D3A872"/>
<path d="M86.7336 99.3644C87.7841 102.143 88.6089 104.903 86.0043 107.352C86.3429 104.695 84.2853 101.821 86.7336 99.3644Z" fill="#F7CE85"/>
<path d="M110.269 100.571C110.634 104.339 109.262 105.181 105.581 104.053C101.101 102.672 96.4476 101.83 92.1762 99.7811C90.5093 96.3432 93.574 94.6936 94.963 92.4103C96.5344 91.6897 98.0624 90.5524 99.8509 91.8807C100.354 92.7923 100.849 93.6952 101.353 94.6068C102.343 95.1364 102.412 96.2563 102.95 97.0985C103.193 95.0496 103.107 92.9399 104.478 91.2036C104.912 90.9692 105.364 90.8215 105.85 90.7521C109.583 90.2572 111.059 91.9155 110.582 95.5705C110.373 97.22 110.859 98.9303 110.269 100.571Z" fill="#0549B8"/>
<path d="M131.93 102.247C131.6 101.526 131.375 100.293 130.454 101.839C130.029 102.559 129.717 103.349 129.352 104.113C129.178 103.966 129.005 103.818 128.831 103.662C128.215 102.646 128.171 101.509 128.128 100.372C128.154 98.366 127.702 96.4387 127.234 94.5026C126.313 90.8129 126.009 86.9842 124.803 83.3553C124.568 80.7941 122.788 80.1864 120.627 79.9607C118.83 79.7697 116.859 80.2993 115.374 78.7539C115.904 77.8684 116.841 78.0507 117.649 77.8858C122.398 75.7067 117.501 75.0468 116.989 73.6925C115.643 73.3278 114.289 72.9545 112.943 72.5899C119.212 70.8188 123.188 74.2221 126.687 78.6932C126.86 81.0372 129.517 78.9276 130.072 80.5771C131.184 84.4665 131.626 88.5036 132.564 92.4277C132.694 92.8531 132.79 93.2785 132.859 93.7213C132.946 95.7528 133.814 97.6628 133.754 99.7117C133.519 100.84 133.606 102.186 131.93 102.247Z" fill="#9B4C1D"/>
<path d="M98.9055 79.6829C92.099 79.3877 92.1338 79.3877 93.2884 86.1942C93.5923 88.0087 93.6531 89.8579 93.8267 91.6984C92.9932 94.112 91.3003 93.1309 90.9096 91.8981C89.234 86.6283 88.1922 81.1848 88.8694 75.6025C88.9736 74.769 89.8505 74.2481 90.6926 73.9442C93.2624 73.7533 95.7888 73.8227 98.1415 75.0729C99.2528 76.4619 98.9402 78.0941 98.9055 79.6829Z" fill="#104596"/>
<path d="M112.717 72.7548C114.775 75.0642 113.16 76.0452 111.224 76.9134C107.717 77.1825 104.018 77.9465 102.23 73.5709C101.093 71.9301 100.216 70.6973 103.515 70.8014C106.753 70.9056 109.575 72.5118 112.717 72.7548Z" fill="#BECBD8"/>
<path d="M102.23 73.5796C104.452 76.7658 108.559 74.8992 111.224 76.9221C111.05 78.1636 110.877 79.4137 110.712 80.6639C108.116 80.5337 105.555 80.5945 103.133 81.7144C101.865 79.1012 101.883 76.3578 102.23 73.5796Z" fill="#043099"/>
<path d="M98.141 75.0642C95.823 75.1944 93.4876 75.5504 91.2477 74.578C90.232 73.7098 90.3622 72.7896 91.1262 71.8346C92.576 68.9436 95.25 70.6191 97.3597 70.1764C98.7314 71.6175 98.115 73.3886 98.141 75.0642Z" fill="#968C9F"/>
<path d="M103.394 91.1515C103.654 91.3164 103.923 91.4814 104.184 91.6463C104.184 94.3463 104.184 97.0377 104.184 100.163C101.597 98.7741 101.571 96.647 101.362 94.6068C102.882 93.9383 102.942 92.4364 103.394 91.1515Z" fill="#887173"/>
<path d="M91.1259 71.8259C91.1693 72.7375 91.204 73.6577 91.2474 74.5693C89.0162 75.0121 89.3201 76.6269 89.5458 78.2157C90.0928 82.1398 90.6137 86.0727 91.204 89.9881C91.4211 91.4467 91.369 93.5824 93.8346 91.6897C94.3555 92.011 94.8851 92.3322 95.406 92.6534C94.4857 95.093 92.1677 96.8988 92.1937 99.7638C90.1796 99.2429 90.3619 97.5673 90.1709 96.0306C90.0059 94.7544 90.6484 93.0094 88.4953 92.7142C88.122 91.1688 87.7574 89.6235 87.384 88.0781C87.1062 85.2392 86.7676 82.409 86.5766 79.57C86.377 76.7051 84.8143 74.934 82.3486 73.7793C82.4528 72.2253 82.557 70.6799 82.6872 68.7525C85.5435 69.9246 88.5734 70.133 91.1259 71.8259Z" fill="#A04E13"/>
<path d="M220.475 116.042C220.493 115.547 220.51 115.052 220.527 114.549C220.849 114.141 221.248 113.82 221.717 113.585C224.764 113.064 227.829 112.422 230.668 114.349C231.197 119.402 229.93 124.377 230.043 129.412C230.086 131.305 229.114 131.365 227.542 131.131C221.812 130.271 216.421 128.292 210.986 126.451C206.367 123.864 206.142 123.257 207.47 116.902C209.432 116.572 209.163 118.751 210.3 119.419C210.925 118.404 210.43 117.301 210.569 116.25C210.613 113.186 211.62 111.146 215.214 111.866C215.961 112.109 216.43 112.63 216.655 113.377C218.496 116.685 217.332 120.583 218.774 123.969C219.659 125.349 220.658 125.653 220.762 123.691C220.892 121.164 221.222 118.568 220.475 116.042Z" fill="#074BAF"/>
<path d="M234.124 144.9C236.746 136.409 244.62 135.42 251.383 132.911C253.467 132.138 253.258 134.057 253.336 135.237C253.614 139.231 253.814 143.233 254.04 147.236C248.587 148.92 243.109 150.543 237.692 152.323C235.009 153.2 233.273 153.391 234.063 149.606C234.375 148.104 234.124 146.472 234.124 144.9Z" fill="#D5E7F6"/>
<path d="M190.845 110.243C190.819 112.995 190.549 115.764 190.819 118.482C191.157 121.859 190.037 122.935 186.738 122.128C181.685 120.886 176.624 119.74 171.727 117.935C170.599 117.518 169.158 117.119 169.47 115.773C170.382 111.883 168.567 108.15 168.967 103.523C171.641 106.944 170.442 111.041 172.925 114.314C174.566 111.076 173.386 108.116 173.646 105.294C175.461 104.244 177.31 104.365 179.176 105.103C181.069 107.682 178.994 111.093 181.13 113.264C181.512 111.588 181.703 109.453 182.067 107.352C182.484 106.805 182.901 106.258 183.326 105.719C183.682 105.442 184.09 105.32 184.542 105.337C186.426 105.65 188.492 105.068 190.176 106.431C190.766 107.629 190.046 109.071 190.845 110.243Z" fill="#0A43AD"/>
<path d="M265.62 105.251C266.106 105.372 266.592 105.502 267.078 105.624C270.76 107.855 268.068 110.894 268.077 113.585C265.906 113.255 263.832 114.08 261.731 114.141C257.45 114.271 256.235 116.346 257.147 120.209C255.749 121.763 254.447 121.077 253.153 120.053C252.276 117.961 250.739 117.258 248.456 117.223C245.643 117.179 242.709 117.11 240.382 115.061C234.557 113.524 233.992 112.43 236.006 106.475C236.467 106.961 236.501 107.491 236.128 108.046C235.737 110.26 237.569 110.399 238.828 110.529C245.548 111.258 252.38 111.892 258.588 108.558C260.897 107.326 262.633 105.042 265.62 105.251Z" fill="#AE4E04"/>
<path d="M253.206 119.194C254.36 120.14 255.628 120.687 257.156 120.218C257.764 120.782 258.502 121.242 258.528 122.206C256.722 121.989 255.281 122.684 253.744 123.639C248.665 126.816 242.631 127.242 237.066 129.039C235.174 129.655 234.141 128.587 234.201 126.495C234.254 124.489 234.132 122.484 234.08 120.478C234.54 118.577 232.448 115.539 236.433 115.209C240.331 115.886 244.281 116.233 248.144 117.136C249.95 117.561 251.817 117.787 253.206 119.194Z" fill="#014FC1"/>
<path d="M159.634 96.3432C153.713 95.0148 153.053 95.5618 152.61 102.221C150.075 102.438 147.592 103.158 145.023 103.089C144.337 100.771 143.651 98.4615 142.956 96.1435C145.222 92.9226 149.042 93.3653 152.194 92.2193C152.749 92.063 152.09 91.247 152.272 91.7939C152.307 91.8981 152.263 91.9675 152.133 92.0023C148.73 93.0875 145.7 92.3582 142.974 90.1183C142.349 89.1547 141.524 88.2604 141.915 86.9582C146.611 85.8209 151.039 87.6267 155.58 88.165C157.516 88.7466 159.434 89.12 161.284 87.8958C164.669 89.3023 164.6 92.393 164.904 95.31C163.471 97.2808 161.726 97.6888 159.634 96.3432Z" fill="#0B2D6B"/>
<path d="M190.845 110.243C190.506 109.097 190.159 107.942 189.82 106.796C187.676 101.222 189.794 96.1869 191.8 91.1254C192.433 90.2833 193.215 89.7103 194.335 89.8145C195.116 91.0647 195.316 92.6881 197.747 91.3598C199.448 90.4309 201.671 89.5627 203.919 90.1183C204.206 90.4396 204.449 90.7868 204.666 91.1601C205.491 93.565 205.647 96.1261 206.359 98.5657C206.654 99.5641 206.967 100.571 207.262 101.57C207.557 103.818 208.521 105.989 208.087 108.333C207.652 109.696 206.654 109.505 205.621 109.227C203.893 111.38 205.256 113.863 204.892 116.164C204.614 117.917 205.482 119.871 204.006 121.425C203.398 120.999 203.103 120.383 202.93 119.688C202.6 117.735 202.686 115.756 202.756 113.802C202.843 111.189 202.07 109.114 199.665 107.838C198.311 105.989 198.398 103.792 198.485 101.708C198.606 98.8522 197.599 96.7946 195.116 95.4316C193.258 93.7647 192.746 94.8152 192.529 96.6731C191.982 101.196 191.409 105.719 190.845 110.243Z" fill="#995520"/>
<path d="M199.588 107.291C202.374 107.239 203.772 108.567 203.763 111.397C203.755 114.089 203.824 116.789 203.859 119.489C200.924 121.225 197.764 122.119 194.344 122.085C194.092 121.772 193.832 121.468 193.58 121.156C193.97 116.224 192.981 111.241 194.179 106.345C196.141 105.815 197.955 106.023 199.588 107.291Z" fill="#034DB6"/>
<path d="M156.074 114.306C154.65 110.546 155.614 106.666 155.492 102.846C155.423 100.814 156.742 101.023 158.097 101.578C159.746 101.37 161.396 100.962 163.08 101.3C163.722 101.431 164.261 101.761 164.721 102.212C167.238 105.034 166.492 108.454 166.483 111.745C163.653 115.165 160.015 115.339 156.074 114.306Z" fill="#0447B2"/>
<path d="M236.128 108.046C236.085 107.525 236.042 107.004 236.007 106.475C236.658 105.355 237.3 104.235 237.952 103.124C243.074 103.323 248.205 103.523 253.327 103.723C255.966 108.168 255.48 109.357 250.471 109.236C245.678 109.105 240.747 110.277 236.128 108.046Z" fill="#0442A7"/>
<path d="M234.314 98.8088C233.68 101.075 233.047 103.341 232.413 105.598C228.923 106.961 225.398 105.919 221.899 105.693C220.007 105.572 220.102 103.766 219.685 102.464C219.607 101.544 219.521 100.623 219.442 99.7117C219.538 97.3242 221.483 97.7496 222.872 97.6281C225.823 97.3589 228.801 97.7496 231.753 97.3242C232.248 97.2026 232.743 97.194 233.238 97.2634C233.95 97.5239 234.653 97.8104 234.314 98.8088Z" fill="#0648A9"/>
<path d="M177.935 91.6116C175.052 91.3685 172.17 91.1341 169.288 90.891C168.359 89.2849 167.083 87.8003 167.473 85.7254C166.353 83.7807 166.978 82.7475 169.158 82.7128C170.859 82.6868 172.569 82.4871 174.262 82.8951C176.615 82.7215 177.423 83.989 177.492 86.1508C177.535 87.9913 177.779 89.7971 177.935 91.6116Z" fill="#043C9A"/>
<path d="M194.335 89.8145C193.866 90.1965 193.406 90.5785 192.937 90.9691C188.718 92.827 185.071 90.9344 181.399 89.1894C180.617 83.2424 180.626 83.199 186.582 84.345C188.674 84.7444 190.749 85.3087 192.763 86.0119C194.56 86.6283 195.837 87.7135 194.335 89.8145Z" fill="#0855C3"/>
<path d="M206.403 101.717C205.674 100.866 205.622 99.8332 205.578 98.7914C205.622 98.2271 205.587 97.6541 205.656 97.0898C206.082 93.6866 206.811 93.2698 209.502 95.2753C211.395 96.6818 213.157 97.411 215.31 96.0567C216.352 97.9493 215.875 100.024 216.014 102.021C211.812 105.364 211.69 107.447 215.484 111.224C215.866 111.606 216.387 111.97 215.736 112.552C211.777 111.857 211.603 114.453 211.655 117.249C208.348 114.913 209.372 111.458 209.528 108.341C209.667 105.468 209.797 102.828 206.403 101.717Z" fill="#464451"/>
<path d="M215.318 96.0567C214.684 100.944 211.793 97.4023 210.048 97.2547C209.128 97.1766 208.338 95.5965 207.496 94.7023C205.56 95.6226 207.122 97.9059 205.577 98.8001C204.891 96.2216 203.745 93.7213 204.075 90.9518C207.174 90.3093 210.274 90.1878 213.364 90.9952C214.024 92.6708 214.667 94.3637 215.318 96.0567Z" fill="#0135A8"/>
<path d="M163.184 133.84C161.474 134.031 159.79 134.89 158.045 134.022C156.934 131.14 157.48 128.205 157.819 125.288C159.825 120.565 160.797 120.018 164.782 121.347C164.235 125.505 164.313 129.751 163.184 133.84Z" fill="#F4F7F6"/>
<path d="M199.587 107.291C197.686 107.551 195.802 107.673 194.187 106.336C193.518 102.62 193.614 98.9651 195.098 95.4316C198.146 94.3464 199.3 96.0567 199.483 98.6612C199.682 101.517 199.57 104.409 199.587 107.291Z" fill="#FDFAF7"/>
<path d="M197.035 129.16C194.448 127.493 198.711 125.557 196.818 123.864C198.798 121.972 201.046 121.147 203.746 122.085C203.251 127.198 202.756 132.312 202.253 137.417C202.088 139.118 202.01 140.863 200.525 142.087L200.49 142.079C198.832 140.455 199.492 138.337 199.266 136.401C199.023 134.335 200.013 132.095 198.372 130.245C197.886 129.933 197.426 129.586 197.035 129.16Z" fill="#843A07"/>
<path d="M181.407 89.1894C185.253 89.7798 189.09 90.3788 192.936 90.9691C190.48 95.9611 189.915 101.335 189.82 106.796C187.849 106.197 185.652 107.082 183.777 105.876C185.27 105.19 187.806 106.648 188.353 104.808C189.273 101.726 189.499 98.4007 189.646 95.1624C189.698 94.1033 188.049 94.2943 187.12 94.0946C185.323 93.7213 183.508 93.4174 181.702 93.0788C181.173 91.8026 181.138 90.509 181.407 89.1894Z" fill="#182650"/>
<path d="M164.781 121.347C162.229 121.373 159.494 121.112 159.034 124.715C158.062 123.76 157.193 125.08 156.256 124.854C156.299 121.885 156.343 118.907 156.386 115.938C159.781 115.625 163.088 114.714 166.483 114.358C166.743 116.884 166.848 119.376 164.781 121.347Z" fill="#9C4707"/>
<path d="M177.17 125.54C176.867 131.817 176.867 131.817 169.357 132.051C169.053 129.004 169.626 126.052 170.329 123.118C172.812 123.361 174.991 124.437 177.17 125.54Z" fill="#FAF9F7"/>
<path d="M215.111 134.361C214.894 135.845 216.118 137.981 214.607 138.701C212.497 139.709 209.98 139.986 207.592 140.264C206.394 140.403 206.603 139.083 206.672 138.319C206.88 136.062 207.21 133.814 207.488 131.556C210.275 131.852 212.706 133.084 215.111 134.361Z" fill="#E8EBEF"/>
<path d="M234.314 98.8088C234.036 98.4528 233.749 98.1056 233.472 97.7496C230.147 96.8727 226.761 97.5673 223.41 97.3329C221.751 97.22 219.963 97.5325 218.782 95.8917C217.654 92.0457 219.286 90.9344 222.854 91.8634C225.884 92.6534 228.931 93.4 231.892 94.4071C233.845 95.0756 235.538 96.2303 234.314 98.8088Z" fill="#46536E"/>
<path d="M220.163 138.649C220.232 137.529 220.302 136.401 220.38 135.281C223.792 136.6 228.61 136.14 228.567 141.801C228.428 142.044 228.341 142.348 228.141 142.53C226.145 144.336 223.696 145.525 221.222 144.353C218.843 143.216 220.232 140.629 220.163 138.649Z" fill="#F0F2F4"/>
<path d="M228.159 153.365C225.615 152.011 221.803 153.738 220.206 150.092C220.788 145.985 223.375 144.622 228.914 145.508C229.183 148.182 228.723 150.778 228.159 153.365Z" fill="#BDD1E7"/>
<path d="M230.667 114.349C227.499 114.853 224.347 114.627 221.187 114.28C220.371 107.942 221.725 106.987 229.322 108.524C229.53 108.697 229.738 108.871 229.947 109.045C231.015 110.703 230.919 112.517 230.667 114.349Z" fill="#FEFDFC"/>
<path d="M215.744 112.552C212.219 110.859 210.891 107.751 211.837 103.74C212.462 101.075 214.728 102.802 216.03 102.021C216.916 105.772 217.124 109.565 216.673 113.385C216.36 113.108 216.048 112.83 215.744 112.552Z" fill="#F0F0F1"/>
<path d="M219.685 102.472C220.493 104.461 221.96 104.973 224.052 104.825C226.857 104.626 229.722 104.365 232.422 105.607C232.309 107.265 232.283 108.975 229.956 109.053L229.939 109.079C226.917 108.029 223.696 109.401 220.675 108.333C220.007 106.431 219.538 104.504 219.685 102.472Z" fill="#192235"/>
<path d="M188.396 143.442C187.433 143.303 186.469 143.155 185.497 143.025C182.276 142.608 180.418 141.532 183.083 138.181C185.045 136.027 187.355 135.932 189.872 137.026C189.421 139.179 191.27 141.862 188.396 143.442Z" fill="#C9DEEE"/>
<path d="M189.873 137.035C187.607 137.417 185.349 137.807 183.084 138.189C183.075 137.356 183.058 136.514 183.049 135.68C185.341 133.388 184.221 129.872 186.001 127.398C188.301 127.997 187.39 130.645 188.883 131.843C189.117 130.983 189.352 130.133 189.873 128.275C189.873 131.947 189.873 134.491 189.873 137.035Z" fill="#63492D"/>
<path d="M228.915 145.508C226.041 147.088 221.335 145.195 220.207 150.092C218.87 146.281 219.226 142.469 220.163 138.649C220.849 144.292 219.078 145.291 228.567 141.801C229.54 142.955 229.166 144.24 228.915 145.508Z" fill="#383C3E"/>
<path d="M186.001 127.398C185.81 130.445 187.746 134.239 183.049 135.68C181.694 132.763 181.451 129.664 181.503 126.504C183.058 126.538 184.707 126.069 186.001 127.398Z" fill="#E1DBD6"/>
<path d="M163.175 102.229C161.483 101.986 159.685 102.629 158.097 101.578C160.319 100.337 157.029 97.4718 159.633 96.3432C161.396 96.0046 163.28 96.2997 164.912 95.31C164.851 95.9525 164.799 96.6036 164.738 97.2461C163.419 98.6525 164.547 100.84 163.175 102.229Z" fill="#3A3132"/>
<path d="M253.206 119.194C247.615 117.865 242.032 116.537 236.441 115.209C237.752 115.157 239.072 115.113 240.383 115.061C243.795 115.504 247.189 116.381 250.671 115.816C253.709 115.321 253.623 117.119 253.206 119.194Z" fill="#E8ECE9"/>
<path d="M166.484 114.349C163.402 116.667 160.033 117.205 156.387 115.929C156.283 115.391 156.178 114.853 156.074 114.306C159.547 113.464 163.245 113.559 166.484 111.745C166.484 112.613 166.484 113.481 166.484 114.349Z" fill="#05205B"/>
<path d="M203.745 122.093C201.436 122.684 199.127 123.274 196.817 123.873C195.775 123.569 194.482 123.63 194.352 122.076C197.208 120.062 200.49 119.602 203.867 119.48C203.91 120.122 203.954 120.774 203.997 121.425C203.901 121.642 203.823 121.868 203.745 122.093Z" fill="#062765"/>
<path d="M218.782 95.9004C222.515 95.9699 226.249 95.9785 229.973 96.1435C231.284 96.1956 233.003 95.7181 233.472 97.7583C232.986 98.0014 232.491 98.2445 232.005 98.4875C227.698 97.8017 223.314 98.939 219.025 97.8711C218.938 97.2113 218.86 96.5515 218.782 95.9004Z" fill="#E4E7EE"/>
<path d="M205.612 109.218C206.029 108.307 206.567 108.784 207.088 109.088C209.302 111.441 210.04 114.011 208.199 116.945C206.472 120.895 207.314 124.09 210.986 126.46C207.566 126.26 206.567 124.446 206.671 121.095C206.802 117.136 206.671 113.108 205.612 109.218Z" fill="#464451"/>
<path d="M179.367 105.78C179.523 105.607 179.714 105.546 179.949 105.598C180.209 107.03 180.47 108.454 180.756 110.026C181.512 109.14 181.025 107.873 182.076 107.343C182.267 110.685 181.92 114.037 182.302 117.431C178.647 114.175 180.001 109.73 179.367 105.78Z" fill="#876E68"/>
<path d="M161.3 87.8958C160.736 92.2367 158.47 90.2833 156.447 89.2067C155.084 88.3473 154.772 87.2273 155.631 85.8296C156.135 85.6906 156.638 85.5517 157.142 85.4128C159.052 85.3607 160.484 86.1161 161.3 87.8958Z" fill="#EEF3F6"/>
<path d="M174.263 82.9125C172.865 82.9559 171.459 83.1643 170.078 83.0167C167.891 82.7823 167.43 83.963 167.465 85.7341C166.996 86.6891 166.519 87.6527 166.015 88.6685C163.003 83.7112 163.472 82.5826 168.811 82.3308C170.617 82.244 172.553 81.7578 174.263 82.9125Z" fill="#9F5725"/>
<path d="M219.017 97.8711C223.349 98.0708 227.672 98.2792 232.004 98.4875C227.872 99.5467 223.444 97.4978 219.442 99.7204C219.303 99.104 219.164 98.4876 219.017 97.8711Z" fill="#46536E"/>
<path d="M220.666 108.333C223.774 108.341 226.969 107.291 229.93 109.079C228.931 109.045 227.933 109.001 226.934 108.966C221.352 108.793 221.352 108.801 221.187 114.28C221.005 114.453 220.779 114.54 220.527 114.549C220.579 112.483 220.623 110.408 220.666 108.333Z" fill="#A28378"/>
<path d="M220.475 116.042C221.639 118.647 221.048 121.416 221.239 124.116C221.292 124.924 221.439 126.113 220.258 126.122C219.06 126.13 218.626 125.149 218.774 123.977C219.824 124.324 220.31 124.064 220.302 122.84C220.293 120.574 220.415 118.308 220.475 116.042Z" fill="#A28378"/>
<path d="M213.374 90.9865C210.275 90.9692 207.175 90.9605 204.085 90.9431C203.946 90.6826 203.894 90.4048 203.928 90.1184C207.08 90.3007 210.362 89.1981 213.374 90.9865Z" fill="#464451"/>
<path d="M163.176 102.229C162.855 100.302 162.612 98.4007 164.747 97.2548C164.799 98.9043 165.312 100.562 164.73 102.212C164.209 102.221 163.688 102.221 163.176 102.229Z" fill="#EFE9CA"/>
<path d="M144.015 113.681C141.272 112.795 138.563 111.788 135.785 111.041C132.399 110.138 131.149 108.159 132.112 104.791C133.988 101.361 136.557 100.884 141.558 103.028C142.643 106.518 144.284 109.878 144.015 113.681Z" fill="#0D479C"/>
<path d="M145.022 103.08C147.418 101.596 149.849 100.476 152.61 102.212C153.235 104.799 152.766 107.395 152.679 109.982C152.497 115.721 152.367 115.799 146.611 114.366C145.734 110.659 144.753 106.961 145.022 103.08Z" fill="#0D479C"/>
<path d="M131.8 93.0267C131.018 88.9116 128.909 84.9787 130.072 80.5858C131.652 81.3237 132.798 82.4089 135.116 81.6189C138.545 80.4469 140.316 83.8849 139.622 89.7971C138.38 90.8389 137.234 90.0836 136.071 89.6235C135.107 88.9289 134.847 88.0174 134.908 87.262C134.647 87.7222 134.873 88.9116 134.048 89.6322C132.954 90.5351 133.006 92.2107 131.8 93.0267Z" fill="#0D479C"/>
<path d="M155.631 85.8383C155.9 86.9669 156.178 88.0868 156.447 89.2154C151.611 88.4601 146.767 87.7048 141.931 86.9582C140.473 83.772 141.601 82.9472 144.857 83.4073C148.521 83.9283 152.115 84.6489 155.631 85.8383Z" fill="#0967D6"/>
<path d="M141.559 103.028C138.399 103.566 134.787 101.656 132.113 104.791C132.052 103.94 131.991 103.098 131.931 102.247C132.79 101.587 132.547 100.563 132.79 99.6943C134.101 98.6786 133.259 97.0725 133.858 95.8483C134.049 95.475 134.318 95.1798 134.691 94.9802C135.525 94.7978 136.35 94.9541 137.183 95.0062C138.425 95.1798 139.796 95.0236 140.638 96.2824C141.698 98.4355 141.194 100.788 141.559 103.028Z" fill="#2C292E"/>
<path d="M142.982 90.1183C146.238 90.7348 149.502 91.3511 153.079 92.0283C149.953 94.6242 146.064 94.4332 142.956 96.1348C142.157 94.1293 141.931 92.1238 142.982 90.1183Z" fill="#E6E4E3"/>
<path d="M140.629 96.2911C139.162 96.2129 137.695 96.1261 136.227 96.048C135.437 94.3637 134.873 92.61 134.838 90.7521C134.821 89.8839 134.76 88.6251 136.366 89.2675C137.451 89.4498 138.528 89.6235 139.613 89.8058C141.671 91.6984 141.732 93.9036 140.629 96.2911Z" fill="#E9DDCE"/>
<path d="M125.22 122.901C121.079 123.395 116.981 124.75 112.753 123.569C112.779 122.545 112.805 121.52 112.831 120.487C114.133 111.258 115.661 109.783 125.15 108.619C126.019 108.515 126.878 108.437 127.616 109.045C128.84 113.247 127.156 117.379 127.191 121.555C127.199 121.998 125.906 122.449 125.22 122.901Z" fill="#FEFDFC"/>
<path d="M114.532 92.5058C119.055 93.2091 123.578 93.9036 128.101 94.6068C129.282 96.3952 129.577 98.3486 129.178 100.424C124.412 103.853 119.263 105.52 113.386 103.879C113.117 101.63 113.073 99.3731 113.42 97.1245C113.854 95.6139 113.099 93.7907 114.532 92.5058Z" fill="#024EBD"/>
<path d="M127.625 109.045C126.808 109.322 126.018 109.678 125.185 109.861C119.151 111.189 112.805 112.127 112.831 120.487C112.996 115.599 112.119 110.668 113.456 105.824C113.638 105.685 113.812 105.555 113.994 105.416C119.16 106.041 123.961 103.445 129.083 103.714C129.161 103.853 129.248 103.992 129.344 104.122C129.456 105.997 128.753 107.595 127.625 109.045Z" fill="#AC5209"/>
<path d="M109.01 117.44C104.062 119.081 104.062 119.081 103.411 113.741C103.254 112.456 103.115 111.172 102.968 109.887C108.611 108.359 110.278 110.434 109.01 117.44Z" fill="#FCFBFA"/>
<path d="M125.913 83.2511C122.284 82.0443 118.508 82.3569 114.783 82.1659C114.757 80.9938 114.228 79.735 115.365 78.7626C117.093 78.7192 118.82 78.7452 120.539 78.6324C123.882 78.4066 125.757 79.8131 125.913 83.2511Z" fill="#16366B"/>
<path d="M106.962 124.324C105.946 123.89 103.949 124.429 104.462 122.38C105.139 119.671 107.544 120.574 109.401 120.426C109.349 122.197 109.575 124.151 106.962 124.324Z" fill="#D4E0E5"/>
<path d="M116.98 73.7012C117.397 73.7967 117.823 73.8661 118.231 73.9963C119.741 74.4738 122.328 73.9616 122.12 76.3404C121.868 79.2401 119.255 77.6079 117.649 77.8944C118.491 76.3317 117.067 75.125 116.98 73.7012Z" fill="#D3AA79"/>
<path d="M105.112 91.4814C107.126 90.4135 111.233 92.3322 110.677 87.592C110.755 91.9242 111.459 96.2737 110.261 100.562C110.191 99.4252 109.922 98.2531 110.104 97.1592C110.747 93.1743 109.531 90.9605 105.112 91.4814Z" fill="#887173"/>
<path d="M113.412 97.1419C113.49 99.4512 113.569 101.761 113.647 104.079C114.133 104.565 114.15 105.077 113.734 105.607L113.456 105.824C112.327 102.933 112.397 100.042 113.412 97.1419Z" fill="#AC5209"/>
<path d="M137.182 131.035C135.654 130.697 133.961 131.348 132.563 130.271C132.954 128.197 134.552 127.467 136.331 127.259C139.509 126.894 140.551 125.236 139.969 122.206C139.7 120.817 139.292 119.332 140.542 118.126C142.409 117.388 143.529 118.655 144.718 119.697C145.091 119.923 145.517 120.227 145.534 120.617C145.673 124.055 147.288 125.349 150.665 124.307C151.038 124.186 151.455 124.533 151.715 124.889C151.75 125.722 151.785 126.556 151.811 127.389C147.583 131.235 142.921 133.293 137.182 131.035Z" fill="#572F10"/>
<path d="M140.534 118.126C140.751 119.523 140.977 120.921 141.185 122.319C141.689 125.635 141.975 128.752 136.94 127.979C135.004 127.684 134.127 129.698 132.555 130.271C129.656 128.509 131.262 126.174 131.748 123.977C133.545 122.371 134.682 124.533 136.089 124.819C137.33 122.571 136.132 119.862 137.73 117.787C138.815 116.676 139.631 117.726 140.534 118.126Z" fill="#D2DEE6"/>
<path d="M137.183 131.035C137.608 130.949 138.068 130.714 138.45 130.81C143.538 132.103 147.392 128.665 151.811 127.389C151.716 130.063 152.827 132.867 150.943 135.35C147.21 134.465 143.477 133.579 139.744 132.702C138.676 132.451 137.33 132.659 137.183 131.035Z" fill="#C8DFE6"/>
<path d="M137.729 117.778C137.729 120.852 138.563 124.081 135.871 127.059C135.099 125.028 133.866 123.795 131.748 123.977C130.975 123.231 131.86 122.614 131.913 121.937C133.935 120.47 132.711 117.666 134.352 116.042C136.253 115.13 136.861 116.711 137.729 117.778Z" fill="#582D0D"/>
<path d="M151.707 124.889C145.257 126.747 145.257 126.747 144.71 119.697C150.752 119.775 151.621 120.426 151.707 124.889Z" fill="#F6F3EF"/>
<path d="M156.256 124.845C157.211 124.411 157.003 122.597 158.427 122.901C158.748 122.97 158.835 124.081 159.034 124.715C158.67 127.806 159.712 131.053 158.045 134.022C157.203 134.109 156.369 134.196 155.527 134.291C155.128 131.088 156.074 127.997 156.256 124.845Z" fill="#30281E"/>
<path d="M134.361 116.033C133.501 117.978 136.01 121.321 131.921 121.928C131.878 121.642 131.73 121.416 131.479 121.268C132.729 119.68 129.334 115.539 134.361 116.033Z" fill="#DCCFBE"/>
<path d="M169.193 139.431C166.736 139.483 166.501 138.693 168.576 137.469C170.174 136.531 172.023 136.036 173.629 135.125C176.893 133.275 177.232 135.029 176.989 137.677C174.983 140.855 171.632 138.102 169.193 139.431Z" fill="#CFE6EF"/>
<path d="M169.192 139.431C171.589 137.955 174.636 139.344 176.997 137.677C177.631 138.762 178.265 139.847 179.072 141.228C175.565 140.585 172.379 140.012 169.192 139.431Z" fill="#A5A19A"/>
<path d="M217.984 150.205C213.261 151.247 210.466 148.191 206.724 148.043C204.571 147.956 206.029 145.022 207.384 144.24C209.467 143.042 211.863 142.252 214.216 141.653C216.621 141.045 215.692 143.181 215.805 144.188C216.057 146.289 214.155 148.859 217.984 150.205Z" fill="#ABC3D3"/>
<path d="M197.035 129.16C197.59 129.047 198.146 128.934 198.71 128.822C199.83 128.995 200.021 129.811 199.978 130.74C199.787 134.612 200.429 138.51 199.604 142.365C194.873 143.659 194.586 143.502 195.003 138.684C195.272 135.446 194.89 132.016 197.035 129.16Z" fill="#DBEFF7"/>
<path d="M199.596 142.365C199.431 137.842 200.256 133.258 198.702 128.83C200.951 127.823 200.204 129.733 200.23 130.541C200.386 134.387 200.412 138.241 200.491 142.087C200.195 142.174 199.892 142.27 199.596 142.365Z" fill="#9D9D97"/>
<path d="M317.65 113.464C319.039 113.62 320.419 113.724 321.557 112.656C323.936 112.682 326.323 112.708 328.702 112.734C330.256 115.512 329.561 118.638 330.03 121.581C330.351 127.415 330.351 127.493 324.691 126.92C316.981 126.139 309.42 124.481 301.91 122.623C300.512 122.276 299.071 121.911 298.811 120.122C298.819 118.681 299.757 117.9 300.877 117.249C304.853 115.66 308.942 114.401 313.118 113.455C314.611 113.108 316.148 112.378 317.65 113.464Z" fill="#035AC6"/>
<path d="M301.216 118.004C300.582 118.516 299.94 119.029 299.306 119.541C297.404 122.423 300.721 123.508 301.355 125.514C298.802 125.505 298.464 127.042 298.498 129.186C298.603 136.019 298.577 142.86 298.524 149.693C298.516 151.212 298.985 152.861 297.821 154.216C297.752 148.225 297.708 142.226 297.587 136.236C297.552 134.699 297.934 133.076 296.927 131.661C296.328 120.366 296.328 120.357 285.111 119.654C283.54 119.558 281.951 119.662 280.38 119.68C280.371 118.16 280.362 116.641 280.354 115.13C286.778 113.559 293.272 114.54 299.749 114.601C301.164 115.339 301.693 116.459 301.216 118.004Z" fill="#9B4708"/>
<path d="M301.355 125.523C296.788 123.465 296.51 122.658 299.306 119.549C299.453 120.27 299.688 120.991 300.504 121.156C308.752 122.796 316.939 124.689 325.299 125.852C329.345 126.417 330.274 125.01 330.039 121.572C331.203 128.917 329.232 131.061 322.052 129.777C315.124 128.535 308.248 126.946 301.355 125.523Z" fill="#042574"/>
<path d="M325.177 137.755C327.2 134.508 328.363 137.217 328.693 138.615C329.552 142.235 329.917 145.977 330.412 149.675C330.577 150.934 330.264 152.158 328.632 151.863C326.262 151.446 323.258 152.514 321.93 149.415C321.609 148.677 321.826 147.713 321.8 146.845C325.012 146.324 326.184 144.648 325.038 141.445C324.604 140.273 324.283 138.953 325.177 137.755Z" fill="#EDF5F8"/>
<path d="M317.685 149.328C316.921 143.719 312.936 138.823 314.004 132.807C315.975 132.39 317.294 133.77 317.754 135.099C319.117 139.014 320.203 143.042 321.062 147.097C321.687 150.04 319.855 150.153 317.685 149.328Z" fill="#6B3609"/>
<path d="M325.177 137.755C325.585 139.422 325.993 141.089 326.41 142.756C327.616 147.548 326.809 148.26 321.791 146.845C321.548 144.336 321.209 141.836 321.105 139.327C321.053 138.172 320.384 136.488 321.747 135.932C323.18 135.359 324.309 136.6 325.177 137.755Z" fill="#6B3609"/>
<path d="M300.209 115.13C293.593 115.825 286.969 115.061 280.354 115.13C280.336 114.254 280.319 113.377 280.293 112.5C287.343 114.523 294.548 113.247 301.685 113.464C301.85 113.55 302.006 113.629 302.171 113.715C302.015 114.879 301.242 115.191 300.209 115.13Z" fill="#0B1B35"/>
<path d="M281.95 139.274C283.114 139.405 284.077 139.908 284.902 140.863C283.582 142.304 281.681 142.244 280.032 142.791C278.955 140.69 279.337 139.37 281.95 139.274Z" fill="#42230D"/>
<path d="M301.25 100.441C302.926 99.5033 304.437 99.321 305.461 101.353C305.834 101.787 306.121 102.255 306.156 102.846C306.52 108.524 306.52 108.524 311.807 109.262C313.162 109.878 315.714 109.513 315.627 111.232C315.523 113.307 313.049 113.029 311.477 112.951C308.361 112.786 305.409 114.853 302.24 113.576C302.049 113.585 301.867 113.542 301.693 113.472C304.228 111.05 300.912 110.147 300.408 108.515C300.686 105.824 300.973 103.132 301.25 100.441Z" fill="#482F1B"/>
<path d="M311.999 110.329C311.86 110.295 311.721 110.251 311.582 110.234C304.037 109.27 304.038 109.27 305.461 101.353C307.389 101.648 309.325 101.943 311.252 102.238C315.115 103.393 316.114 106.501 316.522 110.008C315.072 110.902 313.518 110.338 311.999 110.329Z" fill="#F7F7F5"/>
<path d="M311.999 110.329C313.51 110.217 315.02 110.112 316.522 110C317.373 110.998 317.755 112.153 317.651 113.464C312.173 114.974 306.694 116.494 301.216 118.004C300.886 117.049 300.548 116.085 300.218 115.13C300.895 114.61 301.572 114.097 302.249 113.576C306.278 112.066 310.462 111.554 314.838 111.666C314.326 110.208 312.52 111.58 311.999 110.329Z" fill="#DE690C"/>
<path d="M113.733 105.598C113.707 105.086 113.681 104.573 113.646 104.07C118.951 103.393 124.108 102.117 129.169 100.432C129.135 101.526 129.109 102.62 129.074 103.714C124.108 105.476 119.177 107.629 113.733 105.598Z" fill="#06206C"/>
<path d="M131.8 93.0267C132.156 91.7939 130.515 89.7103 133.293 89.5106C135.525 90.9257 135.803 92.8097 134.596 95.0409L134.283 95.2493C132.573 95.5705 132.373 94.1293 131.809 93.1222L131.8 93.0267Z" fill="#CEDBDE"/>
<path d="M131.809 93.1309C132.633 93.8428 133.458 94.546 134.283 95.2579C133.814 96.7512 135.993 99.1387 132.781 99.703C132.46 97.5065 132.139 95.3187 131.809 93.1309Z" fill="#0D479C"/>
<path d="M208.208 116.945C208.468 114.236 207.479 111.71 207.097 109.097C207.817 106.544 206.02 104.235 206.411 101.717C210.292 100.528 211.255 102.36 210.908 105.876C210.526 109.687 209.91 113.55 211.663 117.249C211.377 118.916 212.679 121.902 210.734 121.98C208.225 122.085 209.302 118.586 208.208 116.945Z" fill="#E2782E"/>
<path d="M134.596 95.0409C134.544 93.1135 134.188 91.247 133.294 89.5106C133.988 88.6511 134.726 87.809 134.692 86.5154C135.282 87.4878 135.829 88.3733 136.367 89.2675C134.535 91.4901 137.609 93.8168 136.228 96.048C135.681 95.7181 135.143 95.3795 134.596 95.0409Z" fill="#CB6A36"/>
</svg>