<svg xmlns="http://www.w3.org/2000/svg" fill="none" viewBox="67 43 278.98 148.3">
<path d="M218.6 102.483C220.99 102.943 223.38 103.413 225.76 103.873C231.69 102.883 237.05 104.853 242.22 107.323C244.26 108.303 245.16 110.333 245.08 112.673C244.26 115.283 241.95 115.863 239.74 116.613C231.31 119.513 222.46 119.633 213.74 120.593C210.29 120.973 207.34 118.993 204.07 118.613C200.54 118.543 197.21 117.413 193.82 116.623C190.58 115.873 187.08 114.093 184.1 114.903C178.72 116.363 176.81 112.893 174.04 109.893C167.72 103.043 164.79 94.6234 162.46 85.9034C160.05 76.9134 157.64 67.9234 154.69 59.0934C153.77 56.3334 153.21 53.6335 154.81 50.9435C172.54 43.2535 191.55 50.4235 199.2 67.8335C202.46 75.2435 205.41 82.7934 208.5 90.2734C205.69 92.0334 204.13 89.8335 202.66 88.1935C199.67 84.8635 196.26 84.5935 192.25 85.8835C185.6 88.0235 180.87 92.5935 176.71 97.8635C174.93 100.123 174.53 102.713 176.78 105.103C177.95 106.363 179.27 107.613 181.08 107.003C190.37 103.873 200.02 104.083 209.61 103.663C211.26 103.593 212.86 103.013 214.53 102.953C215.88 102.793 217.29 103.083 218.6 102.483Z" fill="#10B6F6"/>
<path d="M322.58 85.4835C328.21 87.5035 334.28 86.6035 340 88.0435C342.18 88.5935 344.62 88.6735 345.51 91.3535C341.45 95.2235 323.93 100.043 318.7 98.7335C318.22 98.6135 317.75 98.4635 317.27 98.3335C310.79 95.4435 303.88 94.4034 296.92 93.7134C291.06 93.1334 286.95 90.0135 284.22 85.1435C278.06 74.1535 275.45 61.8435 271.61 50.0035C270.93 47.9035 271.35 45.7035 272.61 43.7835C289.37 42.0235 298.29 41.8535 306.56 58.5335C309.57 64.5935 311.8 71.0335 314.38 77.3035C312.23 78.7435 310.97 77.1135 309.75 75.8335C307.54 73.5035 305.24 73.4035 302.64 75.1035C299.58 77.1035 296.6 79.2035 293.82 81.5735C292.47 82.7235 290.77 84.0435 291.9 86.1635C292.85 87.9335 294.68 87.6134 296.35 87.4334C305.08 86.4634 313.8 85.6235 322.58 85.4835Z" fill="#1970D6"/>
<path d="M307.64 159.283C300.31 162.443 292.23 162.553 284.71 164.963C279.68 166.573 274.5 167.713 269.39 169.063C267.4 166.283 268.01 162.963 267.75 159.913C266.66 147.053 266.04 134.163 265.14 121.283C264.98 118.993 264.9 116.623 266.07 114.473C269.64 111.943 273.74 112.333 277.77 112.383C280.26 113.653 279.2 115.743 278.85 117.573C277.6 124.193 275.71 130.663 274.47 137.283C274.21 138.663 273.53 140.023 274.05 141.523C275.05 141.133 275.35 139.973 276.34 139.663C282.62 137.053 289.4 136.703 295.96 135.373C297.45 135.073 298.89 135.433 300.16 136.323C302.62 138.463 302.76 141.593 303.57 144.423C304.97 149.363 305.7 154.493 307.64 159.283Z" fill="#E1EDF8"/>
<path d="M275.68 93.4734C275.99 93.3634 276.3 93.2835 276.62 93.2335C284.3 92.7135 291.71 94.1734 298.94 96.5434C302.24 97.6234 303.05 100.523 303.03 103.763C303.01 106.813 302.23 109.323 299.1 110.543C298.02 110.963 296.99 111.513 295.91 111.923C292.36 112.823 288.7 112.723 285.08 113.033C277.9 112.413 271.21 110.263 264.74 107.043C259.82 104.593 254.37 103.713 248.84 103.523C241.42 103.273 232.6 94.4635 231.96 86.8035C238.88 81.6735 243.72 74.4434 250.03 68.7134C252.06 66.8734 253.86 63.9034 257.49 65.2134C260.29 71.1834 263.09 77.1435 265.89 83.1135C265.26 84.0335 264.26 84.3435 263.28 84.2635C256.42 83.6635 250.79 86.9834 245.09 89.9734C243.2 90.9634 240.13 91.6635 241.48 94.8335C242.58 97.4235 245.06 97.2034 247.51 96.7234C255.95 95.0734 264.42 93.5835 273.09 93.9535C273.95 93.9835 275.04 94.8034 275.68 93.4734Z" fill="#FCA60F"/>
<path d="M154.809 50.9435C154.439 56.8935 157.329 62.0835 158.769 67.6035C160.769 75.2835 163.429 82.8034 165.179 90.5234C167.259 99.6534 172.959 106.443 178.609 113.363C178.879 113.693 179.329 114.273 179.519 114.213C187.529 111.553 194.529 116.403 202.069 117.173C202.559 117.223 203.059 117.243 203.559 117.273C204.279 117.673 205.199 117.943 205.619 118.613C209.839 125.383 215.769 125.903 222.839 123.953C226.339 122.983 230.229 121.613 233.819 124.223C233.709 126.043 232.249 126.173 230.969 126.543C225.809 127.963 220.489 128.423 215.229 129.203C213.439 129.473 211.649 129.773 209.829 129.903C206.359 129.053 202.159 131.133 199.419 127.333C199.899 126.943 200.359 126.333 201.009 127.113C200.839 126.743 200.519 126.583 200.169 126.713C197.369 127.773 194.339 127.283 191.499 128.053C185.379 128.303 179.459 125.993 173.309 126.583C171.149 125.783 168.919 125.153 166.839 124.133C166.819 123.973 166.859 123.723 166.769 123.653C157.759 116.363 159.709 105.493 157.969 95.9435C155.859 84.3635 154.409 72.6534 152.959 60.9634C152.529 57.5734 150.769 53.6235 154.809 50.9435Z" fill="#0161AB"/>
<path d="M92.7295 98.4535C97.1195 95.2335 98.9295 90.3835 100.72 85.5735C102.63 80.4535 104.22 75.2135 106.15 70.1035C110.86 57.6735 115.57 54.3435 128.71 53.9535C130.68 53.8935 132.659 54.0634 134.639 54.1234C136.709 55.3634 136.939 57.2335 136.389 59.3335C134.479 66.7335 133.089 74.2734 131.009 81.6234C127.749 93.1434 124.569 93.0535 114.179 92.8035C109.559 92.6935 106.329 93.3634 103.049 96.1534C101.549 97.4334 99.8195 98.4834 98.1795 99.6234C97.4495 100.013 96.6695 100.213 95.8395 100.283C94.5495 100.133 93.0095 100.373 92.7295 98.4535Z" fill="#6A3A13"/>
<path d="M257.49 65.2134C251.36 67.6234 247.63 72.7434 243.48 77.4434C240.34 80.9934 237.71 85.2734 232.49 86.2634C231.05 86.3334 230.38 85.2934 229.96 84.2234C225.62 73.2134 222.2 61.8935 218.85 50.5535C218.62 49.7835 219.13 48.9134 218.75 48.1034C219.2 47.6534 219.57 46.9834 220.11 46.7834C234.59 41.4634 248.24 46.6834 255.31 60.2434C256.15 61.8534 256.77 63.5534 257.49 65.2134Z" fill="#FDAC15"/>
<path d="M95.6403 99.3235C96.3503 99.2335 97.0703 99.1534 97.7803 99.0634C99.5903 98.0034 101.51 97.7335 103.55 98.1935C106.72 99.2235 110 98.7235 113.23 98.8235C113.89 98.7935 114.56 98.8134 115.22 98.8734C124.13 99.7034 126.38 98.2034 129.17 89.4734C132.26 79.8235 133.88 69.7435 137.71 60.3035C138.45 58.4935 138.72 56.3734 140.79 55.4034C142.82 56.8634 142.14 59.0335 141.98 60.8835C140.83 74.7335 139.54 88.5634 138.34 102.403C138.04 105.803 137.04 108.853 134.61 111.343C133.39 113.433 131.15 113.553 129.16 114.163C124.93 114.613 120.71 115.093 116.57 116.163C114.95 116.493 113.32 116.593 111.67 116.563C108.64 116.423 105.71 117.233 102.73 117.503C100.82 117.613 98.9103 117.563 97.0303 117.203C91.7303 115.943 86.3003 115.553 80.9003 114.933C79.1803 114.523 77.3003 114.603 75.8903 113.273C69.7503 110.823 69.2303 109.903 70.8403 104.243C71.8303 103.843 72.7903 104.043 73.7403 104.363C86.5803 108.673 99.3803 109.833 112.61 103.443C107.34 104.183 102.97 102.473 98.4903 101.413C97.2903 101.143 95.7403 101.183 95.6403 99.3235Z" fill="#CB5406"/>
<path d="M294.96 111.163C295.72 110.563 296.48 109.463 297.24 109.463C301.61 109.473 301.62 106.553 301.85 103.413C302.11 99.7135 300.37 97.7935 296.98 97.1635C291.79 96.1935 286.57 95.3334 281.36 94.4934C279.73 94.2334 278.06 94.2234 276.63 93.2434C273.12 78.9234 271.47 64.2735 269.09 49.7635C268.67 47.2335 269.94 44.8935 272.62 43.7935C272.33 47.6635 273.05 51.3234 274.38 55.0034C277.31 63.1134 279.89 71.3534 282.74 79.4934C286.07 89.0134 293.12 93.0835 302.94 93.2335C308.13 93.3135 313.02 94.8934 317.64 97.2434C320.15 99.6434 318.07 100.843 316.28 101.863C314.72 102.753 312.85 102.493 311.11 102.683C307.45 102.483 306.13 104.333 306.14 107.843C306.16 116.833 306.25 125.813 306.1 134.803C306.61 140.433 307.78 145.953 308.88 151.483C309.39 154.043 309.91 156.633 308.39 159.073C308.11 159.003 307.87 159.073 307.67 159.283C304.8 159.023 305.25 156.633 304.75 154.813C303.14 148.923 302.56 142.733 299.84 137.153C296.87 128.733 294.21 120.263 294.96 111.163Z" fill="#022C87"/>
<path d="M218.76 48.1035C222.41 58.7235 226.02 69.3535 229.73 79.9535C230.48 82.1135 230.74 84.5234 232.5 86.2534C234.64 95.1434 242.39 101.553 251.15 102.253C257.09 102.723 262.86 104.123 268.18 107.163C273.27 110.073 279.01 111.033 284.77 111.763C284.69 112.323 284.39 112.723 283.89 112.973C282.18 113.583 280.48 114.393 278.61 113.543C274.54 113.803 270.47 114.063 266.4 114.323C264.69 115.863 262.62 115.543 260.59 115.473C255.94 114.213 251.07 115.123 246.39 114.083C245.53 113.763 245.01 113.103 244.6 112.333C243.7 109.383 241.68 107.753 238.71 107.063C234.39 106.063 230.09 104.943 225.78 103.883C223.26 87.1935 220.74 70.5034 218.22 53.8134C217.91 51.8534 217.26 49.8735 218.76 48.1035Z" fill="#DF6501"/>
<path d="M247.8 180.303C232.09 183.483 216.64 187.933 200.73 190.193C197.35 182.263 197.6 174.053 198.88 165.773C200.88 163.153 203.83 163.923 206.48 163.623C208.31 163.853 209.59 166.323 211.84 164.923C219.56 165.383 226.29 169.323 233.65 171.073C236.2 171.673 238.63 173.033 241.35 171.913C243.62 171.853 243.59 173.783 244.09 175.183C244.68 176.823 244.97 178.613 246.91 179.303C247.3 179.563 247.59 179.903 247.8 180.303Z" fill="#DDEBF7"/>
<path d="M197.67 191.153C193.01 191.893 188.99 189.633 184.84 188.213C174.71 184.743 164.65 181.063 154.3 178.293C152.39 177.783 149.39 177.643 149.48 175.743C149.59 173.433 152.52 173.283 154.69 173.193C157.37 175.343 158.07 171.443 160.06 171.423C170.11 169.363 180.26 167.843 190.34 165.963C191.93 165.663 193.61 165.203 195.13 166.333C198.04 174.393 198.12 182.743 197.67 191.153Z" fill="#DCEBF7"/>
<path d="M143.9 159.033C138.96 161.113 133.61 160.903 128.45 161.723C118.24 163.343 108.01 164.743 97.7796 166.233C95.2696 160.493 97.0396 154.933 98.4596 149.363C104.87 149.973 110.78 149.563 113.07 141.983C115.51 143.273 114.66 145.693 115.25 147.853C115.28 141.263 115.22 134.823 115.28 128.393C115.3 126.273 114.98 124.043 116.51 122.193C119.49 122.473 118.9 124.913 118.99 126.663C119.24 131.643 119.21 136.633 119.04 141.613C118.9 145.593 120.53 147.633 124.39 148.713C130.28 150.363 136.33 151.673 141.73 154.773C143.13 155.843 144.17 157.103 143.9 159.033Z" fill="#DFEBF7"/>
<path d="M268.66 169.353C264.23 170.363 259.81 171.413 255.37 172.373C252.01 173.103 248.98 174.003 249.31 178.473C249.35 179.043 248.32 179.693 247.79 180.313L247.44 180.003C246.86 179.413 246.09 178.873 245.93 178.063C243.97 168.363 241.39 158.763 241.04 148.793C244.74 147.823 248.48 147.003 252.23 146.293C256.43 145.493 260.43 144.573 263.26 141.013C266.41 145.153 265.08 150.193 265.95 154.783C266.87 159.633 266.7 164.683 268.66 169.353Z" fill="#DDECF8"/>
<path d="M311.45 101.313C313.96 100.643 318.25 102.663 317.62 97.2434C321.9 98.6634 325.79 98.0934 330 96.2134C334.91 94.0234 340.31 92.9235 345.5 91.3535C346.67 94.7535 345.71 97.5235 342.34 98.6135C339.29 99.6035 339.25 101.413 339.6 103.913C341.27 115.783 342.9 127.653 344.43 139.533C344.61 140.913 346.19 143.193 343.56 143.653C341.08 144.083 341.53 141.623 341.25 140.113C339.16 128.483 337 116.873 335.06 105.223C334.51 101.923 333.49 100.603 329.94 101.773C327.29 102.643 324.38 102.743 321.59 103.183C320.71 112.543 320.97 121.913 321.46 131.283C321.55 136.413 321.67 141.553 321.73 146.683C321.75 148.273 322.33 150.053 320.61 151.233C316.89 152.133 317.62 149.093 317.21 147.263C315.81 141.063 316.74 134.653 315.61 128.433C315.07 122.813 314.57 117.183 314.32 111.553C314.16 107.773 313.54 104.413 311.45 101.313Z" fill="#05409D"/>
<path d="M175.6 105.203C171.84 102.733 173.82 99.3635 175.37 97.3935C180.12 91.3835 185.6 86.0735 193.51 84.1735C197.64 83.1835 200.95 83.8735 203.53 87.4535C204.71 89.0935 206.2 90.4635 208.5 90.2635C211.42 94.7035 213.6 99.7635 218.61 102.473C218.34 104.413 216.91 104.163 215.57 104.083C213.26 102.733 211.1 101.223 209.62 98.9135C207.52 95.6235 204.45 95.3835 200.88 95.7035C193.27 96.3935 187.35 100.993 180.68 103.883C179.06 104.583 177.64 106.103 175.6 105.203Z" fill="#058ADB"/>
<path d="M140.8 55.4034C136.37 66.1534 134.07 77.5435 130.77 88.6335C130.68 88.9535 130.67 89.2935 130.57 89.6035C127.63 99.4635 125.11 101.013 113.67 100.093C110.36 98.9635 106.85 100.363 103.54 99.3035C101.62 99.2235 99.7003 99.1435 97.7803 99.0635C100.04 95.2235 105.02 94.4935 107.38 90.7035C107.64 90.2835 109.17 90.0934 109.65 90.4334C113.04 92.8334 116.63 91.1735 120.15 91.3135C124.59 91.4935 127.24 89.3635 128.33 85.5835C130.96 76.4135 133.19 67.1334 135.57 57.9034C135.93 56.5134 135.2 55.3335 134.65 54.1335C136.85 53.8235 139.06 53.5034 140.8 55.4034Z" fill="#411E02"/>
<path d="M275.68 93.4735C276.42 95.5135 274.94 95.1735 273.84 95.1735C264.36 95.1735 255.02 96.2335 245.81 98.5735C242.41 99.4335 240.59 97.1034 239.33 94.4634C238.06 91.8134 240.35 90.9235 242.06 90.0535C249.56 86.2535 256.78 81.4135 265.9 83.1135C268.69 87.0035 270.79 91.5635 275.68 93.4735Z" fill="#DF6501"/>
<path d="M322.58 85.4835C316.59 88.7235 309.84 86.4135 303.58 88.0735C300.94 88.7735 297.999 88.2235 295.239 89.0835C293.089 89.7535 291.26 88.8934 290.15 86.9634C288.91 84.8134 290.059 83.1935 291.609 81.7335C295.249 78.3235 299.41 75.6135 303.59 72.9435C306.06 71.3635 308.3 72.1835 310.22 74.2835C311.39 75.5535 312.04 77.6235 314.38 77.3035C316.37 80.7635 318.98 83.6235 322.58 85.4835Z" fill="#0243A3"/>
<path d="M197.67 191.153C195.72 186.633 196.6 181.723 195.82 177.043C195.22 173.453 194.96 169.813 194.55 166.203C193.11 164.763 193.33 162.863 193.08 161.083C191.74 151.563 191.37 141.953 190.48 132.393C190.31 130.533 190.3 128.743 191.64 127.233C194.79 125.083 198.25 126.873 201.96 125.963C201.35 126.673 201.2 126.993 200.97 127.073C200.51 127.233 200.01 127.273 199.52 127.363C200.7 133.433 200.02 139.563 200.16 145.673C200.27 150.463 199.98 155.273 200.79 160.043C201.1 161.873 200.99 163.693 199.66 165.203C199.32 173.573 200.1 181.893 200.71 190.223C199.88 191.053 198.77 191.083 197.67 191.153Z" fill="#03339B"/>
<path d="M95.6396 99.3235C100.72 100.353 105.54 102.653 110.91 102.273C112.83 102.133 114.89 102.043 116.14 104.133C100.99 110.333 85.9296 111.773 70.8496 104.263C72.3396 101.353 75.3596 101.933 77.7696 101.423C82.7396 100.383 87.8496 100.013 92.7296 98.4634C93.6996 98.7434 94.6696 99.0335 95.6396 99.3235Z" fill="#FC8D26"/>
<path d="M159.48 171.923C159.22 172.683 158.89 173.423 158.73 174.203C158.39 175.773 157.38 176.403 155.9 176.253C153.66 176.013 154.99 174.263 154.69 173.193C158.9 159.763 160.92 145.813 164.59 132.253C165.32 129.543 166.08 126.833 166.83 124.123C169.12 124.053 171.78 122.953 172.84 126.293C174 127.853 173.41 129.473 172.92 131.043C169.03 143.363 165.34 155.743 161.61 168.113C161.19 169.523 160.87 171.033 159.48 171.923Z" fill="#04257F"/>
<path d="M268.66 169.353C265.29 169.273 265.96 166.553 265.7 164.623C264.65 156.763 263.71 148.893 262.74 141.023C261.3 139.863 261.32 138.163 261.09 136.553C260.27 130.883 259.67 125.193 259.21 119.483C259.07 117.703 259.13 115.863 260.37 114.333C262.38 114.323 264.39 114.323 266.4 114.313C267.38 129.913 268.39 145.503 269.33 161.113C269.49 163.753 269.38 166.413 269.39 169.063C269.09 169.023 268.85 169.113 268.66 169.353Z" fill="#052686"/>
<path d="M316.78 127.993C317.33 134.353 317.86 140.713 318.45 147.073C318.6 148.723 317.84 150.923 320.62 151.233C316.42 153.673 311.42 154.853 308.36 159.083C308.49 152.403 305.96 146.143 305.23 139.593C305.07 138.123 304.88 136.653 304.71 135.183C306.2 133.793 308.1 133.603 309.87 133.973C313.66 134.783 315.55 133.483 315.68 129.583C315.7 128.913 316.21 128.383 316.78 127.993Z" fill="#DBE9F8"/>
<path d="M95.0304 166.963C89.3304 165.023 83.6503 163.043 77.9303 161.153C75.4503 160.333 73.0703 159.203 70.3703 159.083C68.9403 159.013 66.9703 158.583 67.0003 156.863C67.0503 154.253 69.3903 155.503 70.8103 155.243C73.0503 157.413 74.0403 154.483 75.6503 154.033C79.0603 152.653 82.7004 152.363 86.2704 151.873C93.9404 150.813 93.9504 150.863 95.7004 158.363C96.0504 161.273 96.6604 164.203 95.0304 166.963Z" fill="#DCE9F6"/>
<path d="M95.0298 166.963C93.8898 164.073 95.2797 161.073 94.6197 158.163C93.9297 157.103 94.1497 155.993 94.3997 154.873C94.4797 150.013 94.1697 145.153 94.1997 140.293C94.1397 138.243 94.2397 136.193 94.6097 134.173C95.7497 130.123 95.1597 126.003 95.1397 121.893C95.3797 119.833 94.6797 117.433 97.1697 116.163C98.8997 116.203 100.62 116.233 102.35 116.273C104.63 118.563 103.22 121.303 103.12 123.793C102.83 131.043 101.83 138.233 101.04 145.443C100.9 146.763 100.7 148.083 99.5198 148.963C98.1898 154.643 98.3097 160.463 97.7597 166.213C96.8597 166.473 95.9498 166.713 95.0298 166.963Z" fill="#1A4874"/>
<path d="M143.9 159.033C143.19 158.073 142.48 157.113 141.77 156.163C139.34 152.833 139.06 148.713 137.72 144.993C134.84 137.023 132.72 128.813 130.03 120.773C129.21 118.343 127.92 115.773 129.53 113.113C131.23 112.523 132.93 111.943 134.62 111.353C137.65 124.363 140.67 137.383 143.72 150.393C144.02 151.673 144.46 152.923 144.83 154.193C145.54 155.903 147.79 157.753 144.35 159.053L143.9 159.033Z" fill="#4B7885"/>
<path d="M74.7503 155.163C74.1703 156.433 74.1703 158.383 72.0303 158.033C70.4203 157.773 70.7703 156.373 70.8103 155.243C73.1703 145.863 73.1303 136.173 74.5303 126.673C75.1803 122.243 75.4503 117.743 75.9003 113.283C77.5503 113.143 79.2003 112.963 80.6603 114.023C81.9503 115.663 81.4103 117.523 81.1603 119.263C79.6203 129.873 77.8103 140.433 76.3003 151.053C76.0903 152.533 75.7903 153.993 74.7503 155.163Z" fill="#204E7C"/>
<path d="M321.47 131.273C320.52 121.903 319.76 112.533 321.6 103.173C321.56 112.543 321.52 121.903 321.47 131.273Z" fill="#7195C0"/>
<path d="M144.36 159.043C146.35 157.603 144.78 155.813 144.84 154.183C146.01 155.133 148.4 155.233 148.17 157.103C147.95 158.853 146.02 159.133 144.36 159.043Z" fill="#DFEBF7"/>
<path d="M175.6 105.203C183.58 101.823 190.4 96.0035 199.4 94.6635C204.43 93.9135 208.6 93.7834 211.14 99.0034C212.16 101.093 215.11 101.503 215.56 104.083C207.11 105.793 198.43 104.903 189.95 106.243C187.67 106.603 184.83 106.373 183.26 107.653C178.99 111.143 177.41 108.283 175.6 105.203Z" fill="#0265BF"/>
<path d="M244.59 112.313C244.96 112.473 245.32 112.623 245.69 112.783C247.93 118.443 246.49 121.213 239.53 124.653C237.55 124.773 235.5 125.753 233.64 124.203C228.63 123.833 223.73 124.683 218.95 126.003C213.99 127.363 209.97 126.623 207.02 122.103C205.94 120.443 204.71 118.883 203.55 117.283C206.75 116.193 208.9 119.443 211.99 119.233C221.82 118.593 231.63 117.883 241.09 114.883C242.5 114.433 243.92 113.843 244.59 112.313Z" fill="#039BE3"/>
<path d="M283.43 112.403C281.26 121.613 277.68 130.463 276.49 139.923C276.06 141.163 275.77 142.473 275.16 143.613C274.65 144.553 273.6 144.883 272.57 144.363C271.59 143.873 271.98 143.043 272.16 142.223C274.33 132.663 276.46 123.103 278.6 113.543C280.11 112.723 281.68 112.183 283.43 112.403Z" fill="#092575"/>
<path d="M241.72 172.023C239.35 161.183 236.97 150.333 234.41 138.643C232 143.733 230.939 148.343 229.739 152.893C229.269 154.673 228.909 157.033 226.479 156.253C224.079 155.473 225.91 153.443 226.21 152.053C227.62 145.573 229.05 139.093 230.71 132.673C231.37 130.123 231.32 127.783 230.33 125.413C231.47 125.113 232.8 125.333 233.63 124.203C235.47 124.633 237.089 122.583 238.989 123.733C239.069 131.103 241.16 138.173 242.28 145.393C242.43 146.373 242.37 147.353 241.69 148.183C243.6 158.793 245.519 169.393 247.429 180.003C245.489 180.633 244.009 180.683 243.479 178.053C243.089 176.013 243.07 173.803 241.72 172.023Z" fill="#032385"/>
<path d="M207.53 164.173C207.63 161.563 207.72 158.953 207.82 156.343C208.76 152.643 207.6 148.823 208.47 145.123C209.27 139.853 207.66 134.393 209.72 129.223C211.27 128.163 213.02 128.133 214.8 128.223C213.71 140.863 212.62 153.513 211.53 166.153C208.37 169.173 207.8 166.973 207.53 164.173Z" fill="#041970"/>
<path d="M112.83 141.893C112.42 133.083 112 124.263 111.59 115.453C113.18 115.303 114.78 115.153 116.37 115.003C116.51 117.393 116.65 119.783 116.78 122.173C116.77 130.983 116.81 139.793 116.71 148.603C116.69 150.043 117.58 152.513 115.01 152.443C112.95 152.393 113.69 150.153 113.55 148.773C113.34 146.493 113.73 144.123 112.83 141.893Z" fill="#11406E"/>
<path d="M103.54 99.3134C106.93 99.4434 110.41 98.3834 113.67 100.103C110.28 99.9734 106.82 100.823 103.54 99.3134Z" fill="#6A3A13"/>
<path d="M94.7597 155.403C94.7997 150.323 93.7197 145.183 95.5197 140.193C95.5197 145.283 95.7897 150.373 94.7597 155.403Z" fill="#DCE9F6"/>
<path d="M95.8297 134.283C95.5797 130.193 95.0396 126.083 96.4996 122.093C96.6796 126.183 97.1397 130.283 95.8297 134.283Z" fill="#88A5B1"/>
</svg>