<svg width="207" height="194" viewBox="0 0 207 194" fill="none" xmlns="http://www.w3.org/2000/svg">
<path d="M140.067 113.01C147.42 121.487 162.219 106.547 171.445 100.131C180.672 93.7149 189.055 83.1304 186.385 72.2181C183.107 58.8237 164.935 52.0328 164.373 38.2636C164.139 32.0347 167.745 26.4146 169.666 20.5135C171.586 14.6125 170.977 6.6039 165.31 4.07488C163.624 3.32553 161.704 3.18503 159.83 3.04452C151.119 2.48252 142.408 1.87367 133.697 1.31167C122.223 0.562324 110.374 -0.140195 99.5553 3.70018C84.1938 9.17974 73.422 22.8552 59.8402 31.9878C57.9669 33.2524 55.9531 34.47 53.705 34.5637C46.961 34.8447 44.0104 25.8995 38.1093 22.5743C32.3488 19.2959 24.4338 22.4806 21.0617 28.1943C17.6897 33.908 18.0176 41.1673 20.1719 47.443C22.3263 53.7188 26.0731 59.292 29.3514 65.0525C32.6298 70.8131 35.4866 77.0889 35.6271 83.6924C35.7676 90.858 32.6297 97.6958 29.2577 104.018C25.8856 110.341 121.801 91.9352 140.067 113.01Z" fill="#F4F6F9"/>
<path d="M90.8465 97.9752L92.3453 83.0352C92.3453 83.0352 80.6368 84.9554 71.9257 93.9006C72.5345 94.0411 73.1902 94.2284 73.799 94.4158C75.5319 94.931 77.4521 95.4461 78.9507 96.5702C80.2153 97.5537 81.0583 99.1928 80.6368 100.832C80.1685 102.471 78.4824 103.174 76.8901 103.08C75.0167 102.986 73.2371 102.097 71.5042 101.441C70.0523 100.879 68.5536 100.411 66.9612 100.551C66.6334 101.16 66.3055 101.722 66.0245 102.378C66.5397 102.612 67.0549 102.846 67.5701 103.08C70.0523 104.345 72.394 105.937 74.5015 107.857C76.1875 109.403 79.6533 112.4 77.1243 114.695C76.5623 115.163 75.9533 115.444 75.2977 115.538C76.1407 116.521 76.89 117.739 76.609 119.097C76.328 120.502 74.9699 121.298 73.6117 121.252C72.0194 121.205 70.5206 120.221 69.1156 119.519C68.3194 119.144 67.5232 118.769 66.7271 118.442C66.8676 118.535 67.0549 118.629 67.1954 118.769C68.0384 119.331 68.8346 119.94 69.584 120.643C70.0991 121.158 70.6611 121.72 70.8485 122.422C71.5041 124.624 68.3663 124.905 67.0081 124.951C65.6031 124.998 64.2449 124.858 62.8867 124.577C63.0272 126.169 62.4652 128.043 63.4487 129.12C64.2449 130.01 65.7436 130.572 66.1183 131.883C66.5398 133.382 65.3689 136.238 65.9309 137.503C70.2864 147.385 78.0609 150.616 82.6974 150.851L85.6948 133.288C85.6948 133.288 102.414 133.99 103.632 116.1C104.709 99.8485 90.8465 97.9752 90.8465 97.9752Z" fill="#FF8801"/>
<path d="M61.3827 124.578C61.3827 124.437 61.3827 124.297 61.3358 124.109H61.2891C61.3359 124.25 61.3359 124.39 61.3827 124.578Z" fill="#16202C"/>
<path d="M65.8346 92.6832C70.5648 87.3441 76.7468 83.3633 83.5846 81.2558C83.7251 81.2089 83.8188 81.1621 83.8656 81.0684C86.1137 81.3494 88.3617 81.8646 90.516 82.5671C83.3036 85.0025 76.6064 88.7492 70.7522 93.5731C71.3142 93.7136 71.923 93.8541 72.485 93.9946C78.3861 89.2644 85.177 85.6581 92.4363 83.457C92.6236 83.4101 92.7173 83.3165 92.811 83.2228C93.3261 83.0355 93.4666 82.0988 92.7641 81.8646C89.8135 80.8343 86.8162 80.0381 83.6784 79.7102C83.4442 79.6634 83.2568 79.8039 83.1163 79.9912C75.9038 82.2393 69.394 86.5011 64.4765 92.2149C64.3828 92.3085 64.3359 92.449 64.2891 92.5427C64.7574 92.5427 65.3194 92.5895 65.8346 92.6832Z" fill="#16202C"/>
<path d="M84.987 135.676C83.0668 134.88 81.8023 133.1 80.6783 131.461C80.0695 130.618 79.5075 129.728 78.8519 128.932C78.243 128.136 77.4937 127.246 76.6507 126.73C75.714 126.168 74.4026 126.075 73.7469 127.152C73.1381 128.136 73.5596 129.447 73.7469 130.477C74.2621 132.913 75.0115 135.301 76.0418 137.596C77.2127 140.265 78.7582 142.701 80.5847 144.996C81.1467 145.698 82.1303 144.715 81.5682 144.012C78.6645 140.406 76.6039 136.191 75.4798 131.742C75.1988 130.711 74.871 129.541 74.871 128.463C74.8241 127.105 76.0886 127.948 76.6038 128.463C77.962 129.775 78.9455 131.461 80.0695 132.959C81.2872 134.645 82.6922 136.191 84.6592 136.987C85.0339 137.128 85.4086 136.847 85.5022 136.519C85.5959 136.144 85.3149 135.816 84.987 135.676Z" fill="#16202C"/>
<path d="M93.0416 110.433C92.1518 109.262 91.3556 108.044 90.5594 106.78C87.0937 101.113 84.7989 94.7901 83.7685 88.2334C83.628 87.3436 82.2698 87.7183 82.4103 88.6081C83.2533 94.1813 85.0799 99.5672 87.6558 104.532C88.9671 107.014 90.4657 109.402 92.1517 111.65C92.8542 112.54 93.9314 113.852 93.3226 115.069C93.1352 115.444 92.7606 115.819 92.2923 115.725C91.7303 115.631 91.4025 114.929 91.1683 114.46C90.3721 113.055 89.6227 111.65 88.8734 110.292C88.2177 109.074 87.6089 107.716 86.7191 106.639C86.0166 105.749 84.9394 105.047 83.7685 105.328C82.5977 105.609 81.8952 106.733 81.8015 107.857C81.661 109.215 82.3635 110.479 82.9724 111.65C83.6749 113.009 84.3305 114.367 84.9394 115.772C86.157 118.582 87.1406 121.485 87.8899 124.436C88.0304 124.998 88.2178 125.56 88.1241 126.169C88.0304 126.918 87.4683 126.637 87 126.263C85.8292 125.232 84.7988 124.014 83.8153 122.797C81.8014 120.315 80.1622 117.551 78.8977 114.648C78.5231 113.805 77.3054 114.554 77.6801 115.35C78.8978 118.02 80.3964 120.596 82.1761 122.937C83.0659 124.108 84.0495 125.279 85.0799 126.356C85.9229 127.246 87.1405 128.651 88.5456 127.902C89.5759 127.34 89.6227 126.075 89.4353 125.045C89.2012 123.546 88.6861 122.047 88.2177 120.642C87.2342 117.598 86.0165 114.601 84.5647 111.744C84.0027 110.573 82.8787 109.121 83.2065 107.763C83.3002 107.295 83.628 106.826 84.0963 106.733C84.7052 106.639 85.2204 107.154 85.5482 107.576C85.9229 108.044 86.2039 108.559 86.4849 109.074C86.9064 109.871 87.3747 110.667 87.7962 111.463C88.5455 112.868 89.2948 114.32 90.1379 115.678C90.7467 116.708 91.8239 117.551 93.0884 117.083C94.1656 116.662 94.9149 115.444 94.8212 114.273C94.8681 112.728 93.8847 111.557 93.0416 110.433Z" fill="#16202C"/>
<path d="M64.103 128.229C63.9625 127.058 63.9156 125.841 63.9625 124.67C63.4941 124.623 63.0258 124.529 62.5574 124.436C62.5106 125.56 62.5574 126.684 62.6511 127.808" fill="#16202C"/>
<path d="M65.6016 139.235C73.095 149.539 79.6517 150.382 82.1339 151.131C83.0238 151.365 83.3985 150.007 82.5086 149.773C75.2494 147.665 69.2546 142.373 66.2104 135.582" fill="#16202C"/>
<path d="M118.986 110.81C119.08 110.107 119.361 109.405 119.782 108.843C121 107.25 123.107 106.594 124.934 106.032C125.964 105.705 126.995 105.424 128.025 105.189L123.529 87.4395L116.035 89.3128L111.914 106.126C111.914 106.126 115.989 107.016 118.986 110.81Z" fill="#3398CD"/>
<path d="M122.787 121.535C123.724 120.458 124.754 119.427 125.832 118.491C127.283 117.273 128.829 116.149 130.515 115.212L129.719 112.121C128.22 112.543 126.768 113.292 125.316 113.76C123.958 114.229 122.272 114.603 120.867 114.088C121.757 116.336 122.225 119.24 121.851 122.893C122.132 122.471 122.46 121.956 122.787 121.535Z" fill="#3398CD"/>
<path d="M131.214 136.052C130.418 135.959 129.481 135.725 129.013 135.022C128.638 134.46 128.779 133.757 129.06 133.195C129.856 131.744 131.495 130.666 132.9 129.777C131.823 130.245 130.746 130.713 129.716 131.275C128.357 131.978 126.906 132.774 125.313 132.446C123.861 132.165 122.925 130.901 123.065 129.449C123.159 128.465 123.721 127.622 124.377 126.826C123.44 126.686 122.644 126.264 122.035 125.327C121.848 125.046 121.754 124.765 121.707 124.484C121.613 125.187 121.473 125.936 121.286 126.686C117.164 144.248 102.224 147.62 102.224 147.62L99.6016 166.307L141.096 156.94L135.804 135.959C134.259 136.24 132.76 136.287 131.214 136.052Z" fill="#3398CD"/>
<path d="M98.2901 144.295C98.0559 143.967 98.2433 143.546 98.5243 143.312C98.8521 143.077 99.2736 143.265 99.5077 143.546C100.398 144.904 101.334 146.215 102.224 147.574C102.458 147.901 102.271 148.323 101.99 148.557C101.662 148.791 101.241 148.604 101.007 148.323C100.117 146.965 99.2268 145.653 98.2901 144.295ZM121.473 145.372C122.597 146.918 125.173 149.962 123.065 151.742C122.129 152.538 120.77 152.163 119.974 151.32C119.084 150.384 118.522 149.119 117.726 148.089C116.977 147.105 116.087 146.028 115.057 145.325C114.682 145.044 113.933 144.67 113.464 145.138C113.09 145.56 113.511 146.262 113.745 146.637C114.448 147.855 115.291 149.025 116.087 150.243C116.93 151.508 117.773 152.819 118.616 154.083C119.131 154.833 117.914 155.535 117.398 154.786C116.462 153.381 115.572 151.976 114.635 150.571C114.167 149.868 113.698 149.166 113.23 148.463C112.809 147.855 112.387 147.246 112.106 146.543C111.731 145.466 111.966 144.248 113.09 143.78C114.214 143.265 115.338 143.78 116.228 144.482C117.258 145.326 118.148 146.356 118.944 147.386C119.365 147.948 119.74 148.463 120.115 149.072C120.442 149.587 120.723 150.243 121.192 150.618C121.613 150.946 122.175 150.992 122.363 150.43C122.55 149.915 122.316 149.4 122.035 148.932C121.426 147.808 120.63 146.731 119.834 145.653C118.288 143.546 116.555 141.626 114.635 139.846C111.638 143.546 107.797 146.543 103.442 148.463C102.505 154.552 101.568 160.64 100.632 166.729C100.491 167.572 99.3204 167.291 99.2736 166.494C99.1799 166.448 99.0862 166.354 99.0394 166.26C97.9154 164.527 96.6509 162.935 95.199 161.436C94.9649 161.202 94.9648 160.921 95.0585 160.734C96.042 154.88 97.0724 149.025 98.0559 143.124C98.1496 142.703 98.4775 142.562 98.7585 142.656C102.88 141.953 106.767 140.361 110.186 137.926C114.26 135.022 117.633 130.854 119.506 126.124C119.6 125.702 119.646 125.281 119.693 124.859C119.74 124.672 119.881 124.484 120.068 124.391C120.396 123.407 120.63 122.424 120.77 121.393C121.286 118.209 120.864 114.883 119.178 112.12C117.539 109.498 114.729 107.718 111.685 107.25C111.497 107.296 111.263 107.296 111.076 107.203C110.888 107.203 110.701 107.156 110.561 107.156C109.905 107.156 109.718 106.407 109.999 106.032C109.062 105.048 108.125 104.065 107.142 103.081C106.673 103.128 106.205 102.8 106.346 102.238C108.219 96.2904 109.437 90.1552 109.999 83.9263C109.811 83.5048 110.045 82.9428 110.607 82.9428C110.701 82.896 110.842 82.896 110.935 82.9428C112.762 82.896 114.541 82.5681 116.274 81.9593C116.415 81.8188 116.649 81.7251 116.836 81.7719C117.117 81.7251 117.445 81.9593 117.539 82.1935C119.365 83.739 121.239 85.2845 123.065 86.7832C123.065 86.7832 123.065 86.83 123.112 86.83C123.206 86.83 123.299 86.83 123.393 86.83C123.768 86.8768 124.096 87.111 124.096 87.5325C124.096 87.8603 123.768 88.2818 123.393 88.235C121.239 88.0008 119.084 88.3755 117.164 89.4059C116.836 89.5932 116.555 89.4995 116.368 89.2654C116.321 89.3122 116.274 89.359 116.181 89.4059C115.057 94.9791 113.745 100.505 112.247 105.985C115.806 106.641 118.944 108.889 120.677 112.12C123.065 116.569 122.55 121.768 120.723 126.358C120.396 128.278 119.834 130.151 119.084 131.978C118.101 134.366 116.836 136.614 115.291 138.675C117.726 140.689 119.693 142.937 121.473 145.372ZM121.192 86.83C119.74 85.6123 118.335 84.4415 116.883 83.2238C115.291 83.7858 113.652 84.1136 112.012 84.2073C113.511 85.5655 115.057 86.8768 116.555 88.235C116.602 88.1882 116.649 88.1882 116.696 88.1414C118.054 87.392 119.599 86.9705 121.192 86.83ZM108.219 102.004C109.202 103.035 110.233 104.065 111.216 105.095C112.668 99.7093 113.933 94.3234 115.057 88.8439C115.057 88.797 115.057 88.797 115.103 88.7502C113.886 87.673 112.668 86.5958 111.45 85.5187C110.842 91.0451 109.718 96.5246 108.125 101.864C108.125 101.911 108.172 101.957 108.219 102.004ZM117.492 132.54C113.183 138.488 106.58 142.609 99.3673 143.874C98.4306 149.447 97.4471 155.067 96.5104 160.64C97.6344 161.811 98.6648 163.076 99.6015 164.434C100.398 159.282 101.194 154.13 101.99 148.979C101.147 149.306 100.772 147.948 101.615 147.62C101.849 147.527 102.084 147.433 102.271 147.339C102.411 147.058 102.692 147.012 102.927 147.058C104.519 146.356 106.065 145.466 107.516 144.482C111.872 141.485 115.338 137.317 117.492 132.54ZM114.635 155.161C114.448 154.833 113.979 154.692 113.652 154.926C113.324 155.114 113.183 155.535 113.417 155.91C114.214 157.174 115.01 158.486 115.853 159.75C116.04 160.078 116.508 160.219 116.836 159.984C117.164 159.797 117.305 159.376 117.07 159.001C116.274 157.736 115.478 156.425 114.635 155.161ZM125.501 99.8967C124.517 98.3043 123.393 96.8524 122.129 95.4943C121.473 94.7918 120.77 94.1361 120.068 93.4804C119.412 92.9184 118.71 92.2159 117.913 91.9817C117.117 91.7944 116.274 92.1691 116.04 93.0121C115.806 93.8082 116.134 94.7449 116.368 95.5411C116.883 97.4145 117.539 99.241 118.382 101.021C119.318 102.988 120.396 104.908 121.66 106.688C122.175 107.437 123.393 106.734 122.878 105.985C120.443 102.613 118.663 98.8195 117.633 94.7918C117.539 94.5107 117.258 93.8082 117.398 93.4804C117.586 93.1526 118.148 93.6677 118.335 93.8551C119.131 94.4639 119.834 95.1664 120.536 95.869C121.988 97.3208 123.206 98.9131 124.283 100.646C124.751 101.395 125.969 100.693 125.501 99.8967Z" fill="#16202C"/>
<path d="M46.774 151.167C61.5465 110.428 -1.82939 107.099 36.787 77.8453C43.1537 73.3512 50.4359 68.6906 52.4749 61.2003C54.3891 54.1262 51.0601 46.7608 51.0185 39.3954C56.5529 -0.51104 104.283 8.39404 130.082 24.3316C140.527 29.5748 152.303 36.6489 153.51 48.2588C153.968 52.7946 152.678 57.4968 154.176 61.8245C162.249 77.8037 186.8 70.3967 190.878 99.8999C193.167 132.732 160.626 128.779 152.595 149.336" fill="#F4F6F9"/>
<path d="M161.871 143.803C152.758 131.569 140.482 120.126 132.368 114.466C128.29 111.595 124.17 109.473 120.092 107.891C118.094 102.149 116.222 96.5312 114.349 90.331C116.222 90.2061 118.053 89.4571 119.343 88.1255C124.336 82.7991 119.509 74.9343 113.351 75.3921C114.266 68.2763 115.764 61.119 111.645 54.8355C94.7498 36.1931 76.1907 69.2334 64.3728 78.1385C64.3728 78.1385 74.6927 82.1749 79.7694 84.1307C79.7694 84.1307 78.8539 102.94 78.5626 111.262C68.1178 117.005 59.4624 125.826 53.8863 135.231H5.11648C2.03715 135.231 -0.126719 138.768 0.830369 142.222L12.1491 183.169C12.7732 185.374 14.4793 186.872 16.4351 186.872H18.2661C19.3896 190.367 22.677 192.947 26.5469 192.947H95.7486C100.7 192.989 104.487 188.869 104.487 184.042C107.608 187.247 125.502 192.947 138.11 192.947C146.433 192.947 166.407 191.2 169.32 189.618C179.015 184.375 177.434 161.655 161.871 143.803ZM78.0216 181.338C78.0216 180.838 77.9384 180.38 77.8135 179.881L74.984 169.686C75.941 169.395 76.8565 169.145 77.772 168.937C78.2297 169.312 78.8955 169.644 79.8526 169.769C83.5561 170.144 87.6341 168.646 90.9631 171.059C92.9189 172.474 93.7928 174.888 95.1244 176.885C96.4976 178.841 98.4118 180.38 100.576 181.338C96.8721 181.338 88.2999 181.338 78.0216 181.338ZM104.487 182.544C104.446 182.586 104.446 182.586 104.404 182.628C104.362 182.544 104.362 182.503 104.321 182.419C104.404 182.419 104.487 182.461 104.612 182.461C104.529 182.503 104.529 182.503 104.487 182.544Z" fill="white"/>
<path d="M38.3667 73.3535L19.2665 79.096C16.1039 80.0531 12.8165 78.2638 11.8595 75.1013C10.7359 70.1078 5.15988 60.412 12.9414 57.9985L32.0415 52.256C35.2041 51.2989 38.4915 53.0882 39.4486 56.2508C40.5721 61.2443 46.1482 70.94 38.3667 73.3535Z" fill="#FF8801"/>
<path d="M10.444 63.0759C14.7301 65.5311 19.0994 67.903 23.5103 70.1085C24.0513 70.3998 24.5923 70.6494 25.1332 70.8991C25.591 71.1488 26.0903 71.4401 26.5897 71.5649C27.3803 71.7314 28.2126 71.5649 28.7952 71.0239C29.1281 70.691 29.2944 70.3165 29.4609 69.9004C29.7106 69.3178 30.0019 68.7353 30.2931 68.1527C30.8341 66.9875 31.3751 65.864 31.9161 64.6988C33.1229 62.0772 34.3712 59.4973 35.5779 56.8757C35.9108 56.1683 34.829 55.5025 34.4961 56.2515C32.457 60.5792 30.4596 64.8653 28.4206 69.193C28.0877 69.8588 27.8381 70.6078 26.9226 70.3998C26.5065 70.3165 26.1319 70.0252 25.7574 69.8588C25.2165 69.6091 24.6754 69.3178 24.1345 69.0682C22.0538 68.0278 19.9732 66.9459 17.8926 65.8224C15.6039 64.574 13.3153 63.3256 11.0682 61.994C10.3608 61.6195 9.73659 62.7014 10.444 63.0759Z" fill="#16202C"/>
<path d="M85.9688 10.0189C84.8453 7.97987 81.974 7.77181 80.3512 9.35309C79.5605 10.1437 79.2692 11.2256 79.394 12.266C79.0611 11.8498 78.6034 11.5169 78.0625 11.3505C77.2302 11.1008 76.2315 11.2673 75.5241 11.7666C74.775 12.3076 74.2341 13.1398 74.2757 14.0969C74.3173 15.3453 75.2329 16.2608 76.2316 16.9266C76.9806 17.4259 77.8544 17.7588 78.7283 18.0501C79.9351 18.4662 81.1418 18.7159 82.3901 18.924C82.8063 19.0072 83.1808 19.0488 83.597 19.0904C83.9299 19.132 84.2211 18.7575 84.2211 18.4662C84.2211 18.3414 84.1795 18.2582 84.1379 18.1749C84.2628 16.7601 85.1366 15.5533 85.7191 14.305C86.4265 12.9734 86.7595 11.4337 85.9688 10.0189ZM84.4708 14.1385C83.8882 15.3037 83.1808 16.4688 82.9311 17.8004C81.9324 17.634 80.8921 17.4259 79.8934 17.1762C79.4356 17.0514 78.9363 16.885 78.4786 16.7185C78.3954 16.6769 78.2705 16.6353 78.1873 16.5937H78.1457C78.1041 16.552 78.0209 16.5521 77.9793 16.5104C77.8128 16.4272 77.6464 16.344 77.4799 16.2608C77.1886 16.0943 76.8973 15.9279 76.606 15.7198C76.606 15.7198 76.4811 15.6366 76.5644 15.6782C76.6476 15.7614 76.5644 15.6782 76.5228 15.6366C76.4812 15.595 76.3979 15.5533 76.3563 15.5117C76.2731 15.4285 76.1483 15.3453 76.065 15.2205C76.0234 15.1788 75.9818 15.1372 75.9402 15.0956L75.8986 15.054C75.857 14.9708 75.7737 14.8876 75.7321 14.7627C75.6905 14.7211 75.6905 14.6795 75.6489 14.6379C75.6073 14.5546 75.5657 14.4714 75.5657 14.3466C75.5657 14.305 75.5657 14.305 75.5657 14.2634C75.5657 14.2634 75.5657 14.2634 75.5657 14.2217C75.5657 14.1385 75.5657 14.0553 75.5657 13.9721V14.0137V13.9721C75.5657 13.8889 75.5657 13.9305 75.5657 13.9721C75.5657 13.9305 75.5657 13.9305 75.5657 13.8888C75.5657 13.8056 75.6073 13.7224 75.6489 13.6392C75.6489 13.5976 75.6906 13.556 75.6906 13.556C75.7322 13.4727 75.7738 13.3895 75.8154 13.3479C75.857 13.3063 75.857 13.3063 75.8986 13.2647C75.9402 13.1814 76.0234 13.1398 76.065 13.0982C76.1067 13.0566 76.1066 13.0566 76.1482 13.015C76.2315 12.9734 76.2731 12.9318 76.3563 12.8902C76.4395 12.8485 76.4811 12.8069 76.5644 12.7653C76.606 12.7653 76.6476 12.7237 76.6892 12.7237C76.7725 12.6821 76.8557 12.6821 76.9389 12.6405C76.9806 12.6405 76.9805 12.6405 77.0222 12.6405C77.0222 12.6405 77.0222 12.6405 77.0638 12.6405C77.147 12.6405 77.2302 12.6405 77.3134 12.6405C77.355 12.6405 77.3967 12.6405 77.4383 12.6405C77.5215 12.6405 77.6048 12.6821 77.688 12.6821C77.7296 12.6821 77.7711 12.7237 77.8127 12.7237C77.896 12.7653 77.9792 12.8069 78.0625 12.8485C78.1041 12.8485 78.1041 12.8902 78.1457 12.8902C78.1457 12.8902 78.1873 12.8901 78.1873 12.9318C78.2705 13.015 78.3538 13.0566 78.3954 13.1398L78.4369 13.1814C78.4369 13.223 78.4786 13.2647 78.5202 13.2647C78.6035 13.3479 78.645 13.4727 78.6867 13.556C78.7283 13.5976 78.7282 13.6392 78.7699 13.6808C78.7699 13.7224 78.7699 13.7224 78.8115 13.764C78.8531 13.8889 78.8948 14.0137 78.9364 14.1801C79.0196 14.513 79.394 14.7211 79.6853 14.5963C80.0182 14.513 80.2263 14.1385 80.1014 13.8472C80.0598 13.7224 80.0183 13.5976 79.9767 13.4727C80.3928 13.5559 80.8921 13.223 80.7256 12.7237C80.6424 12.474 80.6008 12.266 80.5592 12.0163C80.5592 11.7666 80.5593 11.5585 80.6009 11.3921C80.6841 11.0176 80.8505 10.6431 81.1002 10.435C81.6412 9.85244 82.3485 9.56115 83.1392 9.60276C83.4721 9.60276 83.805 9.7276 84.1379 9.93566C84.4708 10.1437 84.7205 10.435 84.9285 10.8095C85.5111 11.8914 85.0117 13.0982 84.4708 14.1385Z" fill="#16202C"/>
<path d="M75.8984 15.0117C75.9403 15.0117 75.9403 15.0117 75.8984 15.0117C75.9403 15.0536 75.9403 15.0536 75.9403 15.0536C75.9822 15.0536 75.9403 15.0117 75.8984 15.0117Z" fill="#16202C"/>
<path d="M146.895 43.6823C147.685 43.5574 148.018 44.7642 147.228 44.889C145.563 45.1803 143.857 45.1387 142.193 44.9722C140.487 44.8058 138.739 44.5145 137.074 44.0152C135.618 43.5574 134.161 42.9748 132.996 41.9761C132.039 41.1439 131.415 40.0204 131.582 38.7304C131.831 37.0243 133.163 35.651 134.453 34.6107C134.411 34.7772 134.328 34.902 134.286 35.0685C134.245 34.153 133.953 33.404 133.454 32.6549C133.08 32.114 132.663 31.573 132.539 30.9072C132.414 30.1166 132.747 29.4092 133.246 28.785C133.621 28.3272 134.037 27.9111 134.494 27.495C134.578 27.4118 134.744 27.3285 134.827 27.2037C134.91 27.1205 134.911 26.8292 134.911 26.7044C134.994 26.4131 135.077 26.1218 135.16 25.8305C135.701 24.0412 136.7 22.2934 138.364 21.378C141.818 19.5054 145.979 21.7525 148.767 23.8331C148.476 24.0828 148.143 24.2908 147.852 24.5405C147.519 22.5015 147.935 20.296 148.767 18.3819C149.433 16.8006 150.64 15.0945 152.471 14.8032C152.929 14.72 153.386 14.7616 153.844 14.8448C154.385 14.9696 154.676 15.1777 155.009 15.6354C155.425 16.2596 155.592 17.0919 155.592 17.8409C155.592 19.6718 154.926 21.4196 154.926 23.2505C154.884 25.9137 156.258 28.036 158.214 29.7837C158.838 30.3246 157.922 31.1985 157.34 30.6575C155.259 28.8266 153.803 26.5379 153.678 23.7499C153.594 21.9605 154.135 20.2544 154.302 18.5067C154.344 17.9241 154.385 17.2583 154.177 16.6757C154.094 16.5093 153.969 16.3428 153.886 16.1764C153.844 16.0932 153.719 16.0516 153.927 16.1764C153.844 16.1348 153.719 16.1348 153.595 16.0932C153.303 16.0099 152.97 16.0099 152.679 16.0932C151.181 16.3845 150.265 18.049 149.808 19.3806C149.267 20.8786 148.892 22.6679 149.142 24.2492C149.225 24.707 148.726 25.3311 148.227 24.9566C145.522 22.9176 140.736 20.2544 137.865 23.5002C137.282 24.166 136.866 25.0399 136.575 25.8721C136.367 26.4547 136.242 26.9956 136.117 27.5782C135.992 28.1608 135.285 28.5353 134.869 28.993C134.411 29.4508 133.829 30.075 133.87 30.6992C133.87 30.824 133.995 31.0737 134.12 31.2401C134.245 31.4898 134.411 31.6979 134.578 31.9475C134.994 32.5717 135.327 33.2375 135.493 33.9449C135.576 34.4027 135.784 35.1101 135.451 35.4846C135.16 35.8175 134.744 36.0672 134.453 36.4001C133.953 36.8994 133.454 37.482 133.163 38.1478C132.955 38.5639 132.871 39.1049 132.913 39.4378C133.08 40.3949 133.87 41.1023 134.744 41.6432C135.909 42.3507 137.282 42.7668 138.614 43.0997C141.152 43.7655 144.232 44.14 146.895 43.6823ZM154.302 47.3026C154.843 44.3481 155.467 41.3936 156.549 38.5639C157.09 37.1491 157.797 35.7343 158.796 34.6107C159.212 34.153 159.67 33.6953 160.253 33.404C160.502 33.2791 160.752 33.1543 161.002 33.0711C161.334 32.9878 161.667 33.1127 161.959 33.2791C163.29 34.0282 163.457 35.9007 163.373 37.2323C163.29 38.1062 163.165 38.8968 162.999 39.8123C162.5 42.3507 161.792 44.9306 160.627 47.2193C160.128 48.218 159.462 49.3416 158.546 49.9241C158.13 50.1738 157.839 50.2987 157.381 50.257C157.007 50.2154 156.507 50.0074 156.091 49.6745C155.467 49.1751 154.593 50.049 155.217 50.5483C160.419 54.668 163.207 44.3481 163.956 41.0191C164.497 38.5223 165.288 35.3598 163.623 33.1127C163.082 32.4053 162.375 31.9059 161.501 31.7395C160.752 31.6146 159.961 31.9891 159.337 32.4053C158.005 33.2791 157.048 34.6107 156.299 36.0256C154.552 39.3962 153.761 43.1829 153.054 46.8864C152.97 47.7603 154.177 48.0932 154.302 47.3026Z" fill="#16202C"/>
<path d="M199.285 117.794L175.066 121.789C170.572 122.538 166.286 119.458 165.537 114.964C164.497 108.098 160.877 97.7783 170.78 95.7809L194.999 91.7861C199.493 91.0371 203.779 94.1164 204.528 98.6106C205.568 105.477 209.189 115.797 199.285 117.794Z" fill="#3398CD"/>
<path d="M178.893 101.691C179.601 103.897 180.1 106.144 180.558 108.391C180.807 109.806 181.015 111.221 181.431 112.594C181.681 113.426 182.139 114.342 183.096 114.508C184.178 114.674 185.26 113.884 186.092 113.343C188.381 111.803 190.461 110.014 192.584 108.266C192.833 108.058 192.792 107.6 192.584 107.392C189.712 104.355 185.926 102.149 181.848 101.192C181.057 101.026 180.724 102.232 181.515 102.399C185.426 103.314 188.963 105.353 191.71 108.266C191.71 107.975 191.71 107.684 191.71 107.392C189.879 108.89 188.006 110.43 186.092 111.845C185.551 112.261 184.969 112.635 184.386 112.968C184.261 113.01 184.178 113.093 184.053 113.135C183.97 113.176 184.011 113.176 183.845 113.218C183.762 113.26 183.679 113.26 183.595 113.301C183.554 113.301 183.512 113.301 183.471 113.343C183.554 113.343 183.595 113.343 183.471 113.343C183.429 113.343 183.221 113.343 183.304 113.343C183.387 113.343 183.221 113.301 183.179 113.301C183.346 113.384 183.179 113.301 183.138 113.26C183.304 113.384 183.138 113.218 183.054 113.176C182.971 113.093 183.096 113.26 183.054 113.176C183.013 113.135 183.013 113.093 182.971 113.093C182.93 113.01 182.888 112.927 182.846 112.844C182.763 112.677 182.846 112.844 182.763 112.677C182.722 112.552 182.68 112.469 182.638 112.344C182.264 111.096 182.097 109.764 181.848 108.474C181.39 106.102 180.849 103.73 180.142 101.4C179.85 100.609 178.643 100.942 178.893 101.691Z" fill="#16202C"/>
<path d="M61.6695 48.5498C61.4615 48.2585 61.6279 47.884 61.8776 47.6759C62.1689 47.4678 62.5433 47.6343 62.7514 47.884C62.793 47.9672 62.8347 48.0504 62.9179 48.092C62.7931 47.9672 62.9595 48.1336 63.0011 48.1752C63.0843 48.3001 63.1675 48.3833 63.2924 48.4665C63.334 48.5081 63.4172 48.5498 63.4588 48.5914C63.3756 48.5081 63.4172 48.5498 63.4588 48.5914L63.5004 48.633C63.5837 48.7162 63.7085 48.7578 63.8334 48.7994C63.875 48.7994 63.875 48.841 63.9166 48.841C64.0414 48.8827 63.7501 48.7994 63.8749 48.841C63.9165 48.841 63.9582 48.8827 63.9998 48.8827C64.083 48.9243 64.2079 48.9243 64.3327 48.9659C64.2079 48.9243 64.2078 48.9659 64.291 48.9659C64.3327 48.9659 64.3327 48.9659 64.3744 48.9659C64.416 48.9659 64.4575 48.9659 64.5408 48.9659C64.5824 48.9659 64.624 48.9659 64.6656 48.9659C64.7072 48.9659 64.832 48.9659 64.7072 48.9659C64.5823 48.9659 64.6656 48.9659 64.7072 48.9659C64.7904 48.9659 64.8737 48.9243 64.9569 48.8827C64.9985 48.8827 65.0401 48.841 65.0817 48.841H65.1233C65.2065 48.7994 65.0401 48.8827 65.0401 48.8827C65.1233 48.841 65.2066 48.7994 65.2898 48.7578C65.373 48.7162 65.4563 48.6746 65.4979 48.633C65.5811 48.5914 65.373 48.7162 65.4562 48.6746L65.4979 48.633C65.5395 48.5914 65.5811 48.5914 65.6227 48.5498C65.6643 48.5081 65.7475 48.4249 65.7891 48.3833C65.8307 48.3417 65.8724 48.3001 65.914 48.2585C65.8308 48.3833 65.9556 48.1752 65.914 48.2585C65.9556 48.1752 65.9972 48.092 66.0388 48.0504C66.0805 47.9672 66.122 47.884 66.1636 47.8007C66.2052 47.7175 66.1221 47.884 66.1221 47.884C66.1221 47.8423 66.1636 47.8423 66.1636 47.8007C66.1636 47.7591 66.2053 47.7175 66.2053 47.6759C66.2469 47.5927 66.2468 47.5094 66.2885 47.3846C66.2885 47.1765 66.2885 47.3014 66.2885 47.3846C66.2885 47.343 66.2885 47.3014 66.2885 47.2598C66.2885 47.1765 66.2885 47.0933 66.2885 46.9685C66.2885 46.9269 66.2885 46.8853 66.2885 46.8436C66.2885 46.7604 66.3301 47.0101 66.2885 46.9269V46.8853C66.2885 46.802 66.2469 46.6772 66.2053 46.594C66.122 46.4275 66.2053 46.5524 66.2053 46.594C66.1636 46.5524 66.1637 46.5107 66.1221 46.4691C66.0804 46.3859 66.0388 46.3027 65.9555 46.2195L65.914 46.1778C65.8308 46.0946 65.9972 46.2611 65.9555 46.2195C65.9139 46.1778 65.8723 46.1362 65.8723 46.0946C65.7891 46.0114 65.7059 45.9282 65.6227 45.8449C65.5811 45.8449 65.581 45.8033 65.5394 45.8033C65.5394 45.8033 65.6643 45.8866 65.5811 45.8449C65.5395 45.8033 65.4563 45.7617 65.4147 45.7201C65.2898 45.6369 65.1649 45.5953 65.0401 45.512C64.9985 45.4704 64.9153 45.4704 64.8737 45.4288C64.8321 45.4288 64.7905 45.3872 64.7905 45.3872C64.8321 45.3872 64.9153 45.4288 64.7905 45.3872C64.7489 45.3872 64.7488 45.3872 64.7072 45.3872C64.7488 45.3872 64.7489 45.3872 64.7905 45.3872C64.7489 45.3872 64.7072 45.3872 64.6656 45.3872C64.5824 45.3872 64.5408 45.3872 64.4576 45.3872C64.4159 45.3872 64.3743 45.3872 64.3327 45.3872C64.3327 45.3872 64.4992 45.3456 64.3744 45.3872C64.2911 45.3872 64.2079 45.4288 64.1663 45.4288C64.0831 45.4288 63.9998 45.4704 63.9582 45.512C63.8334 45.5537 64.0415 45.4704 63.9582 45.512C63.9166 45.512 63.875 45.5537 63.8334 45.5537C63.7085 45.6369 63.5836 45.6785 63.4588 45.7617C63.334 45.8449 63.5421 45.6785 63.4172 45.7617C63.3756 45.8033 63.334 45.8033 63.2924 45.8449C63.2508 45.8866 63.2091 45.9282 63.1675 45.9698C63.1259 46.0114 63.0427 46.0946 63.0011 46.1362C62.9179 46.2611 63.0427 46.053 63.0011 46.1362C62.9595 46.1778 62.9595 46.2195 62.9179 46.2195C62.8347 46.3443 62.7098 46.5107 62.7098 46.6356C62.7515 46.5107 62.7515 46.594 62.7098 46.594C62.7098 46.6356 62.6682 46.6772 62.6682 46.7188C62.6266 46.802 62.6265 46.8436 62.6265 46.9269C62.6265 46.9685 62.6266 47.0101 62.585 47.0517C62.5434 47.2182 62.585 46.9269 62.585 47.0517C62.585 47.0933 62.585 47.1765 62.585 47.2182C62.585 47.2598 62.6266 47.4262 62.585 47.4678C62.585 47.4262 62.5434 47.343 62.585 47.4262C62.585 47.4678 62.5849 47.5094 62.6265 47.5511C62.7098 47.884 62.5433 48.2169 62.2104 48.3001C61.9191 48.3833 61.5031 48.1752 61.4615 47.884C61.0453 46.053 62.5017 44.2637 64.291 44.0556C64.4575 44.0556 64.624 44.014 64.7905 44.0556C65.0401 44.0972 65.2482 44.1388 65.4979 44.2637C65.7475 44.3885 65.9972 44.5133 66.2469 44.6798C66.7463 45.0543 67.1208 45.512 67.3704 46.0946C67.7449 46.9685 67.5368 48.0504 66.9959 48.7994C66.4133 49.6317 65.5395 50.1726 64.5408 50.2143C63.334 50.3391 62.3353 49.5068 61.6695 48.5498ZM194.039 157.616C194.705 158.532 195.662 159.239 196.827 159.156C197.826 159.073 198.7 158.532 199.282 157.741C199.823 156.992 200.031 155.952 199.74 155.078C199.573 154.578 199.24 154.079 198.824 153.746C198.533 153.497 198.242 153.288 197.909 153.164C197.618 153.039 197.285 152.997 196.952 152.997C195.454 152.997 193.914 154.079 193.706 155.619C193.664 155.952 193.789 156.285 194.122 156.368C194.413 156.451 194.83 156.285 194.871 155.952C194.871 155.827 194.913 155.702 194.954 155.577C194.954 155.536 194.954 155.536 194.996 155.494C194.996 155.452 194.996 155.452 194.996 155.536C194.996 155.494 195.079 155.411 195.079 155.327C195.121 155.286 195.121 155.244 195.162 155.161C195.162 155.119 195.204 155.119 195.204 155.078C195.287 154.995 195.204 155.078 195.204 155.119C195.246 154.995 195.412 154.87 195.495 154.828C195.495 154.828 195.662 154.703 195.579 154.745C195.495 154.828 195.62 154.703 195.62 154.703C195.662 154.703 195.662 154.662 195.703 154.662C195.828 154.578 195.953 154.537 196.036 154.454C196.078 154.454 196.078 154.412 196.12 154.412C195.995 154.454 196.036 154.454 196.078 154.412C196.161 154.37 196.203 154.37 196.286 154.329C196.369 154.329 196.411 154.287 196.494 154.287C196.536 154.287 196.536 154.287 196.577 154.287C196.619 154.287 196.744 154.246 196.619 154.287C196.536 154.329 196.661 154.287 196.661 154.287C196.702 154.287 196.702 154.287 196.744 154.287C196.785 154.287 196.869 154.287 196.91 154.287C196.952 154.287 197.035 154.287 197.077 154.287C196.993 154.246 197.201 154.287 197.077 154.287C197.118 154.287 197.16 154.287 197.201 154.287C197.285 154.287 197.326 154.329 197.41 154.329C197.451 154.329 197.618 154.412 197.534 154.37C197.451 154.329 197.576 154.412 197.576 154.412C197.618 154.412 197.618 154.454 197.659 154.454C197.701 154.495 197.784 154.537 197.826 154.578C197.867 154.62 197.909 154.62 197.784 154.578C197.826 154.578 197.826 154.62 197.867 154.62C197.909 154.662 197.95 154.703 197.992 154.745C198.075 154.828 198.159 154.911 198.242 154.995L198.283 155.036C198.325 155.078 198.2 154.911 198.242 154.995C198.283 155.036 198.283 155.078 198.325 155.119C198.367 155.203 198.408 155.286 198.491 155.369C198.45 155.286 198.575 155.494 198.491 155.369C198.491 155.411 198.533 155.452 198.533 155.494C198.575 155.577 198.575 155.66 198.616 155.785C198.616 155.619 198.658 155.91 198.616 155.785C198.616 155.827 198.616 155.868 198.616 155.91C198.616 155.993 198.616 156.076 198.616 156.201C198.616 156.368 198.658 156.076 198.616 156.201C198.616 156.243 198.616 156.285 198.575 156.326C198.575 156.409 198.533 156.493 198.491 156.617C198.491 156.659 198.45 156.701 198.45 156.742C198.408 156.826 198.533 156.617 198.45 156.742C198.408 156.826 198.367 156.909 198.325 156.992C198.283 157.075 198.242 157.158 198.159 157.242C198.117 157.325 198.242 157.117 198.159 157.242C198.117 157.283 198.075 157.325 198.075 157.366C198.034 157.45 197.951 157.491 197.909 157.533C197.867 157.575 197.867 157.575 197.826 157.616C197.701 157.741 197.909 157.575 197.826 157.616C197.659 157.699 197.534 157.783 197.368 157.866C197.285 157.907 197.534 157.824 197.368 157.866C197.326 157.866 197.285 157.907 197.243 157.907C197.16 157.949 197.077 157.949 196.952 157.991H196.91C196.827 158.032 197.035 157.991 196.952 157.991C196.91 157.991 196.869 157.991 196.785 157.991C196.702 157.991 196.577 157.991 196.494 157.991C196.369 157.991 196.661 158.032 196.494 157.991C196.452 157.991 196.411 157.991 196.328 157.949C196.286 157.949 196.203 157.907 196.161 157.907C196.12 157.907 196.12 157.907 196.12 157.866C195.995 157.824 196.12 157.907 196.161 157.866C196.12 157.866 195.912 157.741 195.87 157.699C195.828 157.658 195.787 157.616 195.703 157.616C195.662 157.575 195.662 157.575 195.745 157.658C195.745 157.616 195.662 157.616 195.662 157.575C195.579 157.491 195.454 157.408 195.37 157.283C195.329 157.242 195.287 157.2 195.246 157.117C195.162 156.992 195.204 157.075 195.246 157.117C195.204 157.075 195.204 157.034 195.162 156.992C194.954 156.742 194.622 156.576 194.289 156.784C193.997 156.95 193.831 157.366 194.039 157.616ZM166.741 83.8372C166.741 83.7539 166.699 83.7123 166.699 83.6291C166.741 83.7956 166.699 83.7123 166.699 83.6707C166.699 83.6291 166.699 83.6291 166.699 83.5875C166.699 83.5459 166.699 83.4627 166.699 83.421C166.699 83.3794 166.741 83.2546 166.699 83.4627C166.699 83.421 166.699 83.3794 166.699 83.3378C166.699 83.2962 166.741 83.213 166.741 83.1714C166.741 83.1298 166.866 82.9217 166.741 83.0881C166.824 82.9633 166.866 82.8385 166.949 82.7552L166.991 82.7136C167.032 82.672 167.116 82.6304 166.991 82.7136C167.032 82.672 167.074 82.6304 167.116 82.5472C167.157 82.5056 167.199 82.464 167.24 82.4223C167.282 82.3807 167.282 82.3807 167.324 82.3391C167.24 82.3807 167.449 82.2143 167.324 82.3391C167.407 82.2559 167.532 82.2143 167.615 82.1311C167.657 82.1311 167.698 82.0894 167.698 82.0894C167.698 82.0894 167.532 82.1311 167.657 82.1311C167.74 82.0894 167.781 82.0894 167.865 82.0478C167.906 82.0478 167.989 82.0062 168.031 82.0062C168.156 81.9646 167.865 82.0062 167.99 82.0062C168.031 82.0062 168.073 82.0062 168.073 82.0062C168.114 82.0062 168.198 82.0062 168.239 82.0062C168.281 82.0062 168.322 82.0062 168.322 82.0062C168.198 82.0062 168.198 82.0062 168.239 82.0062C168.281 82.0062 168.281 82.0062 168.322 82.0062C168.281 82.0062 168.281 81.9646 168.239 81.9646C168.239 81.9646 168.281 81.9646 168.281 82.0062C168.322 82.0062 168.322 82.0478 168.364 82.0478C168.406 82.0894 168.447 82.0894 168.53 82.1311C168.614 82.1727 168.739 82.2559 168.822 82.3391C168.863 82.3391 168.863 82.3807 168.905 82.3807C168.739 82.2559 168.822 82.3391 168.863 82.3391C168.905 82.3807 168.947 82.3807 168.947 82.4223C169.03 82.5056 169.071 82.5472 169.155 82.6304L169.196 82.672C169.071 82.5056 169.113 82.5888 169.155 82.6304C169.196 82.672 169.196 82.672 169.238 82.7136C169.28 82.7969 169.321 82.8801 169.363 82.9217C169.404 83.0049 169.279 82.7552 169.321 82.8385C169.321 82.8385 169.321 82.8801 169.363 82.8801C169.363 82.9217 169.404 82.9633 169.404 82.9633C169.404 83.0049 169.404 83.0465 169.446 83.0881C169.446 83.1714 169.446 83.2962 169.446 83.0465C169.446 83.1298 169.446 83.1714 169.446 83.2546C169.446 83.2962 169.446 83.3378 169.446 83.3794V83.421C169.446 83.5459 169.446 83.3378 169.446 83.3378C169.404 83.3794 169.404 83.5043 169.404 83.5459C169.404 83.6291 169.363 83.7123 169.321 83.7539C169.279 83.8372 169.404 83.5875 169.363 83.6707C169.363 83.6707 169.363 83.7123 169.321 83.7123C169.321 83.7539 169.279 83.7956 169.279 83.7956C169.238 83.8788 169.196 83.9204 169.155 84.0036C169.155 84.0452 169.113 84.0452 169.113 84.0868C169.155 84.0036 169.238 83.8788 169.113 84.0868C169.071 84.1285 168.988 84.2117 168.947 84.2533C168.905 84.2949 168.697 84.4614 168.905 84.2949C168.822 84.3365 168.78 84.3781 168.697 84.4197C168.655 84.4614 168.572 84.503 168.489 84.503C168.364 84.5862 168.614 84.4614 168.53 84.503C168.489 84.503 168.447 84.5446 168.406 84.5446C168.322 84.5862 168.281 84.5862 168.198 84.5862C168.114 84.5862 167.989 84.5862 168.239 84.5862C168.198 84.5862 168.156 84.5862 168.114 84.5862C168.031 84.5862 167.948 84.5862 167.865 84.5862C167.823 84.5862 167.74 84.5446 167.948 84.5862H167.906C167.865 84.5862 167.823 84.5862 167.781 84.5446C167.74 84.5446 167.698 84.503 167.657 84.503C167.657 84.503 167.615 84.503 167.615 84.4613C167.49 84.4197 167.74 84.5446 167.657 84.503C167.573 84.4614 167.49 84.4197 167.407 84.3781C167.365 84.3365 167.324 84.3365 167.282 84.2949C167.49 84.4197 167.324 84.2949 167.24 84.2533C167.157 84.1701 167.074 84.0868 166.991 84.0036L166.949 83.962C166.866 83.8372 167.032 84.0452 166.949 83.962C166.908 83.9204 166.866 83.8372 166.824 83.7956C166.741 83.6707 166.7 83.5459 166.616 83.421C166.45 83.1297 166.034 83.0049 165.742 83.213C165.451 83.421 165.368 83.7539 165.534 84.0868C165.992 85.0023 166.783 85.7513 167.865 85.793C168.655 85.8346 169.487 85.4184 169.987 84.8359C170.528 84.1701 170.819 83.2962 170.528 82.464C170.361 82.0062 170.112 81.5901 169.737 81.2988C169.529 81.1324 169.28 80.9659 169.03 80.7995C168.947 80.7578 168.863 80.7162 168.78 80.6746C168.655 80.633 168.53 80.5914 168.364 80.5914C168.239 80.5914 168.073 80.5914 167.948 80.5914C167.282 80.6746 166.616 81.0075 166.159 81.5069C165.701 82.0062 165.41 82.672 165.451 83.3794C165.451 83.5459 165.493 83.7539 165.534 83.9204C165.618 84.2533 165.992 84.4614 166.283 84.3365C166.616 84.503 166.824 84.1701 166.741 83.8372ZM0.998465 89.33C1.7891 89.7878 2.74617 89.9126 3.57842 89.4965C4.20261 89.1636 4.66031 88.4562 4.78514 87.7487C4.90998 86.9581 4.74357 86.1675 4.20261 85.5849C3.91132 85.2936 3.53677 85.0855 3.12064 84.9607C2.87097 84.8775 2.62137 84.8775 2.3717 84.8359C2.0388 84.8359 1.74749 84.9191 1.41459 85.0439C0.166215 85.6265 -0.416401 87.4158 0.332624 88.581C0.499074 88.8723 0.91524 88.9971 1.20653 88.7891C1.49782 88.6226 1.62265 88.2481 1.41459 87.9152C1.37298 87.8736 1.373 87.832 1.33139 87.7904C1.28977 87.7071 1.33139 87.832 1.33139 87.832C1.33139 87.832 1.28973 87.7904 1.28973 87.7487C1.28973 87.7071 1.24808 87.6239 1.24808 87.5823C1.24808 87.5407 1.24808 87.5407 1.24808 87.4991C1.24808 87.4158 1.24808 87.6239 1.24808 87.5407C1.24808 87.4158 1.24808 87.3326 1.24808 87.2078V87.1246C1.28969 87.2078 1.20647 87.2494 1.24808 87.1662C1.24808 87.0829 1.28973 87.0413 1.28973 86.9581C1.28973 86.9165 1.33139 86.8749 1.33139 86.7917L1.37294 86.7084C1.37294 86.7084 1.33132 86.8333 1.37294 86.75C1.41455 86.6252 1.49784 86.542 1.53945 86.4588L1.581 86.3755C1.581 86.3755 1.49784 86.5004 1.53945 86.4171C1.58106 86.3755 1.62259 86.3339 1.6642 86.2923C1.70582 86.2507 1.74745 86.2091 1.78906 86.1675C1.87229 86.0842 1.74751 86.2091 1.74751 86.2091C1.74751 86.2091 1.83072 86.1675 1.83072 86.1259C1.87233 86.0842 1.91396 86.0842 1.95557 86.0426C1.99719 86.0426 1.99717 86.001 2.03878 86.001C2.122 85.9594 1.99713 86.0426 1.99713 86.001C1.99713 86.001 2.12202 85.9594 2.16364 85.9594C2.20525 85.9594 2.20523 85.9594 2.24684 85.9594C2.122 85.9594 2.37168 85.9178 2.24684 85.9594C2.33007 85.9594 2.45488 85.9594 2.53811 85.9594C2.57972 85.9594 2.5797 85.9594 2.62131 85.9594C2.62131 85.9594 2.45488 85.9178 2.53811 85.9594C2.57972 85.9594 2.62135 85.9594 2.66297 86.001C2.74619 86.001 2.82936 86.0426 2.91258 86.0842C2.95419 86.0842 2.99583 86.1259 3.03744 86.1259C3.03744 86.1259 2.87101 86.0426 2.95423 86.0842C2.95423 86.0842 2.99589 86.0842 2.99589 86.1259C3.07911 86.1675 3.12072 86.2091 3.20395 86.2507C3.24556 86.2507 3.24554 86.2923 3.28715 86.2923C3.28715 86.2923 3.16234 86.1675 3.20395 86.2507L3.2455 86.2923C3.28711 86.3339 3.32875 86.3755 3.37036 86.4171C3.37036 86.4171 3.45358 86.542 3.37036 86.4171C3.28713 86.3339 3.3704 86.4171 3.41201 86.4588C3.45362 86.5004 3.49522 86.5836 3.49522 86.6252C3.49522 86.6668 3.57844 86.75 3.49522 86.6252C3.4536 86.5004 3.49522 86.6252 3.49522 86.6668C3.53683 86.7084 3.53677 86.7917 3.53677 86.8749C3.53677 86.9165 3.53677 86.9165 3.53677 86.9581C3.57838 87.0829 3.53677 86.7917 3.53677 86.9165C3.53677 87.0413 3.53677 87.1662 3.53677 87.291C3.53677 87.4158 3.57838 87.1662 3.53677 87.2494C3.53677 87.291 3.53677 87.291 3.53677 87.3326C3.53677 87.4158 3.49522 87.4575 3.49522 87.5407C3.49522 87.5823 3.45362 87.6655 3.41201 87.7071C3.49524 87.4575 3.41197 87.7071 3.37036 87.7487C3.32875 87.7904 3.32877 87.8736 3.28715 87.9152C3.28715 87.9568 3.2455 87.9568 3.2455 87.9984C3.28711 87.9152 3.37034 87.832 3.2455 87.9984C3.20389 88.04 3.16226 88.0816 3.12064 88.1233C3.07903 88.1233 3.07905 88.1649 3.03744 88.1649C2.99583 88.2065 3.12064 88.1233 3.12064 88.1233L3.07909 88.1649C3.03748 88.2065 2.95419 88.2481 2.91258 88.2897C2.82936 88.3313 2.74617 88.3313 2.95423 88.2897C2.91262 88.2897 2.87099 88.3313 2.82938 88.3313C2.74615 88.3729 2.70454 88.3729 2.62131 88.3729C2.53809 88.4146 2.70452 88.3729 2.70452 88.3729C2.6629 88.3729 2.66293 88.3729 2.62131 88.3729C2.5797 88.3729 2.53807 88.3729 2.49645 88.3729C2.41323 88.3729 2.33007 88.3729 2.24684 88.3729C2.28845 88.3729 2.4549 88.3729 2.24684 88.3729C2.20523 88.3729 2.1636 88.3729 2.12198 88.3313C2.03876 88.2897 1.91394 88.2481 1.83072 88.2481C2.03878 88.2897 1.83068 88.2481 1.78906 88.2065C1.74745 88.1649 1.66427 88.1649 1.62265 88.1233C1.33137 87.9568 0.9152 88.04 0.74875 88.3313C0.623912 88.7891 0.707178 89.1636 0.998465 89.33Z" fill="#16202C"/>
<path d="M108.609 82.4237C110.607 80.4679 113.478 79.4692 116.266 79.8438C116.599 79.8854 116.89 80.0934 116.89 80.4679C116.89 80.7592 116.599 81.1337 116.266 81.0921C113.811 80.7592 111.273 81.5915 109.483 83.3392C108.942 83.8802 108.068 83.0063 108.609 82.4237ZM96.2922 90.7879L96.2505 90.7462C96.2505 90.7462 96.2506 90.7879 96.2922 90.7879ZM92.2973 66.1532C92.4638 66.4445 92.88 66.5694 93.1712 66.3613C93.4625 66.1532 93.5458 65.8203 93.3793 65.4874C93.088 64.9465 92.7967 64.4055 92.5054 63.8646C92.3389 63.5733 91.9229 63.4484 91.6316 63.6565C91.3403 63.8646 91.2571 64.1975 91.4235 64.5304C91.7148 65.0713 92.0061 65.6123 92.2973 66.1532ZM91.7564 93.4927C91.7564 93.5343 91.7564 93.5343 91.7564 93.4927C91.7564 93.5343 91.7564 93.5343 91.7564 93.4927C91.7564 93.5343 91.7564 93.4927 91.7564 93.4927ZM91.7564 93.4927C91.7564 93.5343 91.7564 93.5343 91.7564 93.4927V93.4927ZM104.698 183.209C104.739 183.209 104.739 183.209 104.698 183.209C104.698 183.209 104.739 183.209 104.698 183.209ZM98.9138 123.87C99.2467 125.201 98.7889 126.616 97.707 127.448C96.4586 128.364 94.5444 128.239 93.4209 127.157C92.3805 126.2 92.1309 124.577 92.6303 123.287C93.1712 121.789 94.5028 120.874 96.0841 120.915C96.5002 120.915 96.7083 121.29 96.6666 121.623C96.9995 121.706 97.3325 121.831 97.6654 122.039C98.2896 122.455 98.7057 123.121 98.9138 123.87ZM96.6251 126.616C96.6251 126.616 96.7083 126.575 96.6251 126.616V126.616ZM97.7486 124.827C97.7486 124.702 97.7486 124.577 97.7486 124.494C97.7486 124.452 97.7486 124.452 97.7486 124.452V124.411C97.7486 124.369 97.707 124.286 97.707 124.244C97.6654 124.119 97.6237 123.995 97.5821 123.911C97.5821 123.87 97.5406 123.87 97.5406 123.828C97.4989 123.787 97.499 123.703 97.4573 123.662C97.4157 123.62 97.4157 123.579 97.374 123.537L97.3325 123.495C97.2493 123.412 97.1661 123.287 97.0412 123.204L96.9996 123.162C96.958 123.121 96.9163 123.121 96.8747 123.079C96.8331 123.038 96.7499 122.996 96.6666 122.996C96.625 122.996 96.6251 122.996 96.5834 122.954C96.4586 122.913 96.3338 122.871 96.1673 122.871C96.1257 122.871 96.1257 122.871 96.0841 122.871C96.0009 122.871 95.9176 122.871 95.8344 122.871C95.7512 122.871 95.668 122.871 95.5848 122.871C95.5432 122.871 95.335 122.913 95.4183 122.871C95.127 122.913 94.8357 122.788 94.7109 122.538C94.6277 122.58 94.586 122.621 94.5028 122.663C94.5028 122.663 94.5028 122.663 94.4612 122.663L94.4196 122.705C94.2948 122.788 94.2115 122.913 94.0867 123.038C94.0867 123.079 94.045 123.079 94.045 123.121C94.0034 123.204 93.9619 123.246 93.9203 123.329C93.8787 123.37 93.837 123.454 93.837 123.495L93.7954 123.579V123.62C93.7538 123.745 93.7122 123.911 93.6706 124.036C93.6706 124.119 93.6289 124.161 93.6289 124.244C93.6289 124.286 93.6289 124.286 93.6289 124.328C93.6289 124.452 93.6289 124.577 93.6289 124.744C93.6289 124.827 93.6289 124.91 93.6289 124.952V124.993C93.6289 124.993 93.6289 124.993 93.6289 125.035C93.6705 125.16 93.6706 125.285 93.7122 125.409C93.7538 125.493 93.7538 125.534 93.7954 125.618C93.7954 125.659 93.837 125.659 93.837 125.701C93.8786 125.826 93.9618 125.909 94.045 126.034L94.0867 126.117C94.1283 126.158 94.1699 126.2 94.2115 126.283C94.2532 126.325 94.2947 126.367 94.378 126.408L94.4196 126.45C94.4196 126.45 94.4196 126.45 94.4612 126.45C94.586 126.533 94.7109 126.616 94.8357 126.658C94.8773 126.658 94.9189 126.699 94.9189 126.699C95.0022 126.741 95.0854 126.741 95.127 126.783C95.2102 126.824 95.2935 126.824 95.3767 126.824H95.4183C95.4599 126.824 95.5015 126.824 95.5015 126.824C95.6679 126.824 95.7928 126.824 95.9593 126.824C95.9593 126.824 95.9593 126.824 96.0009 126.824C96.0425 126.824 96.0841 126.824 96.1257 126.783C96.2089 126.783 96.2505 126.741 96.3337 126.741C96.417 126.741 96.4586 126.699 96.5418 126.658C96.5834 126.658 96.5835 126.616 96.6251 126.616C96.7499 126.575 96.8331 126.491 96.9164 126.45C96.958 126.45 96.9996 126.408 96.9996 126.367C97.0412 126.325 97.0828 126.283 97.1244 126.242C97.166 126.2 97.2077 126.158 97.2493 126.117L97.2908 126.075C97.3741 125.95 97.4157 125.867 97.4573 125.742C97.4573 125.742 97.4573 125.701 97.4989 125.701C97.4989 125.701 97.4989 125.701 97.4989 125.659C97.4989 125.618 97.5406 125.534 97.5406 125.493C97.5822 125.368 97.5821 125.285 97.6238 125.16C97.6238 125.118 97.6238 125.118 97.6238 125.118C97.6238 125.118 97.6238 125.118 97.6238 125.077C97.7486 124.952 97.7486 124.868 97.7486 124.827ZM121.759 135.771C122.05 137.352 120.76 138.434 119.429 139.017C120.011 139.891 120.427 140.848 120.469 141.888C120.511 142.595 120.261 143.386 119.678 143.844C119.137 144.302 118.388 144.426 117.723 144.218C116.225 143.761 115.642 142.179 115.559 140.681C115.143 140.889 114.643 140.973 114.144 140.931C112.604 140.848 111.065 139.599 111.231 137.935C111.356 136.936 111.938 136.104 112.937 135.813C113.561 135.646 114.186 135.688 114.727 135.979C114.477 135.064 114.394 134.106 114.768 133.233C115.351 131.901 117.057 131.61 118.139 132.567C118.638 133.025 118.846 133.566 118.846 134.106C120.136 133.774 121.509 134.398 121.759 135.771ZM120.011 135.313C119.97 135.313 120.011 135.313 120.011 135.313V135.313ZM115.933 133.815C115.975 133.774 115.975 133.774 115.933 133.815V133.815ZM118.472 143.095C118.555 143.095 118.555 143.095 118.472 143.095V143.095ZM119.013 142.804C118.971 142.845 118.971 142.845 119.013 142.804V142.804ZM120.552 136.27C120.552 136.229 120.552 136.146 120.552 136.104C120.552 136.104 120.552 136.104 120.552 136.062C120.552 136.021 120.511 135.979 120.511 135.896L120.469 135.813C120.469 135.771 120.427 135.729 120.427 135.729C120.386 135.688 120.386 135.646 120.344 135.605C120.386 135.646 120.386 135.646 120.303 135.563C120.261 135.521 120.219 135.48 120.178 135.438C120.136 135.396 120.094 135.396 120.053 135.355C120.053 135.355 120.053 135.355 120.011 135.355C119.97 135.355 119.886 135.313 119.845 135.313C119.803 135.313 119.762 135.313 119.762 135.313C119.72 135.313 119.678 135.313 119.637 135.313C119.637 135.313 119.554 135.313 119.512 135.313C119.47 135.313 119.387 135.313 119.387 135.355C119.346 135.355 119.262 135.396 119.221 135.396C119.221 135.396 119.179 135.396 119.179 135.438C119.137 135.48 119.054 135.521 119.013 135.521C118.971 135.521 118.846 135.646 118.846 135.646C118.805 135.688 118.721 135.729 118.68 135.771C118.597 135.813 118.555 135.896 118.513 135.979C118.264 136.52 117.889 137.019 117.556 137.435C117.348 137.685 116.974 137.644 116.724 137.477C116.474 137.269 116.433 136.936 116.557 136.686C116.807 136.187 117.098 135.646 117.515 135.188C117.556 135.147 117.556 135.064 117.556 135.064C117.598 134.98 117.598 134.856 117.639 134.772C117.639 134.731 117.639 134.689 117.681 134.647C117.681 134.564 117.681 134.481 117.681 134.398C117.681 134.315 117.639 134.106 117.681 134.273C117.681 134.231 117.639 134.148 117.639 134.106C117.639 134.065 117.598 134.023 117.598 133.94C117.598 133.94 117.598 133.898 117.556 133.898C117.514 133.857 117.473 133.774 117.473 133.732L117.431 133.69C117.39 133.649 117.348 133.607 117.306 133.566C117.265 133.524 117.182 133.482 117.14 133.482H117.098C117.015 133.482 116.932 133.441 116.849 133.399H116.807C116.766 133.399 116.724 133.399 116.641 133.399C116.599 133.399 116.557 133.441 116.474 133.441H116.433C116.391 133.482 116.349 133.482 116.308 133.524C116.308 133.524 116.308 133.524 116.266 133.566C116.225 133.607 116.183 133.649 116.141 133.69L116.1 133.732C116.1 133.732 116.1 133.69 116.141 133.69L116.1 133.732C116.1 133.732 116.1 133.732 116.1 133.69V133.732C116.058 133.774 116.058 133.815 116.016 133.857C116.016 133.857 115.975 133.898 115.975 133.94C115.933 134.023 115.933 134.065 115.892 134.148C115.892 134.19 115.85 134.273 115.85 134.315C115.85 134.356 115.85 134.439 115.85 134.481C115.85 134.689 115.85 134.856 115.85 135.064C115.85 135.105 115.85 135.105 115.85 135.105C115.85 135.105 115.85 135.105 115.85 135.147C115.85 135.188 115.85 135.272 115.892 135.313C115.933 135.438 115.933 135.521 115.975 135.646C116.058 135.896 116.141 136.146 116.225 136.395C116.349 136.728 116.1 137.061 115.808 137.144C115.767 137.144 115.725 137.144 115.684 137.144C115.642 137.311 115.517 137.435 115.392 137.519C115.059 137.685 114.727 137.56 114.518 137.311C114.227 136.895 113.478 136.936 113.02 137.227C112.812 137.352 112.687 137.519 112.604 137.768C112.563 137.852 112.563 137.935 112.563 138.018C112.521 138.143 112.563 138.018 112.563 138.101C112.563 138.185 112.563 138.226 112.563 138.309C112.563 138.351 112.563 138.393 112.563 138.393C112.563 138.476 112.604 138.517 112.604 138.601L112.646 138.684C112.688 138.809 112.771 138.892 112.812 139.017C112.812 139.058 112.854 139.058 112.854 139.1C112.896 139.142 112.937 139.183 112.979 139.225C113.062 139.308 113.062 139.308 113.187 139.391C113.603 139.683 114.019 139.766 114.56 139.724C114.643 139.724 114.56 139.724 114.685 139.724C114.768 139.724 114.851 139.683 114.893 139.683C115.059 139.641 115.059 139.641 115.184 139.558C115.434 139.433 115.6 139.308 115.808 139.058C116.141 138.642 116.932 138.975 116.89 139.516C116.849 140.057 116.807 140.764 116.89 141.181C116.932 141.43 116.974 141.638 117.057 141.888C117.057 141.93 117.098 142.013 117.14 142.054C117.182 142.138 117.223 142.221 117.265 142.304C117.306 142.387 117.348 142.471 117.431 142.554C117.431 142.595 117.473 142.595 117.473 142.595C117.473 142.595 117.473 142.595 117.515 142.637C117.598 142.72 117.681 142.804 117.764 142.887C117.806 142.928 117.847 142.97 117.889 142.97C117.931 143.012 118.014 143.012 118.056 143.053H118.097C118.139 143.053 118.222 143.095 118.264 143.095H118.305C118.305 143.095 118.305 143.095 118.347 143.095C118.388 143.095 118.472 143.095 118.513 143.095H118.555C118.596 143.095 118.68 143.053 118.721 143.053H118.763C118.805 143.012 118.846 143.012 118.929 142.97C118.929 142.97 118.971 142.97 118.971 142.928C119.013 142.887 119.054 142.845 119.096 142.804L119.137 142.762C119.137 142.762 119.137 142.762 119.137 142.72C119.179 142.679 119.179 142.637 119.221 142.554C119.221 142.554 119.221 142.554 119.221 142.512C119.221 142.512 119.221 142.512 119.221 142.471C119.221 142.429 119.262 142.346 119.262 142.304C119.262 142.263 119.304 142.096 119.304 142.138C119.304 142.096 119.304 142.013 119.304 141.971C119.304 141.888 119.304 141.805 119.304 141.722C119.304 141.68 119.304 141.638 119.304 141.597C119.137 140.598 118.638 139.766 118.014 138.934C117.764 138.601 118.055 138.101 118.388 138.018C118.888 137.893 119.304 137.727 119.72 137.435C119.928 137.311 119.928 137.269 120.095 137.144C120.136 137.103 120.219 137.019 120.261 136.978L120.303 136.936L120.344 136.895C120.386 136.811 120.427 136.77 120.469 136.686L120.511 136.603C120.552 136.52 120.552 136.395 120.594 136.312C120.552 136.312 120.552 136.27 120.552 136.27ZM119.221 141.68C119.221 141.722 119.221 141.763 119.221 141.68V141.68ZM175.938 178.008C175.689 181.42 174.815 184.957 172.651 187.703C171.819 188.744 170.737 189.742 169.489 190.283C168.407 190.783 167.2 190.991 166.035 191.199C161.957 191.948 157.795 192.364 153.634 192.739C149.265 193.113 144.896 193.446 140.485 193.571C135.949 193.696 131.413 193.279 126.961 192.489C122.175 191.657 117.431 190.408 112.812 188.827C111.023 188.203 109.234 187.495 107.528 186.663C106.487 186.164 105.447 185.623 104.531 184.874C104.157 189.326 100.537 192.988 95.8761 192.988H95.8344H26.6328C22.7628 192.988 19.4755 190.45 18.3519 186.913H16.521C14.5652 186.913 12.8175 185.415 12.2349 183.209L0.916313 142.263C-0.0407746 138.809 2.123 135.272 5.20232 135.272H53.2232C55.0542 132.151 57.1764 129.196 59.4651 126.408C63.0022 122.122 67.0801 118.294 71.5743 115.048C73.6133 113.55 75.7772 112.177 77.9827 110.97C78.0243 109.43 78.1075 107.849 78.1491 106.309C78.3571 101.482 78.5652 96.6552 78.8149 91.8282C78.9398 89.4146 79.023 87.0427 79.1478 84.6292C77.9827 84.1715 76.8175 83.7137 75.6523 83.256C71.824 81.7995 68.0372 80.3015 64.2089 78.8034C63.6679 78.5954 63.6264 78.0128 64.0425 77.6799C64.417 77.3886 64.7915 77.0973 65.166 76.7644C69.244 73.269 72.6978 69.0661 76.2765 65.1129C79.3975 61.7007 82.6017 58.2469 86.222 55.2924C86.971 49.9244 96.2505 42.6006 102.201 46.9283C118.18 40.8528 130.664 61.0349 124.755 74.2677C123.881 76.4731 122.799 78.5954 121.551 80.6344C122.342 82.9647 122.134 85.6695 120.178 88.083C123.34 92.6604 130.081 94.3249 134.95 91.2456C135.616 90.8295 136.615 90.455 137.031 91.0791C135.033 98.1949 126.628 103.147 119.554 104.603C119.886 105.56 120.219 106.517 120.552 107.474C120.76 107.558 120.927 107.599 121.135 107.683C126.961 110.054 132.245 113.425 137.156 117.337C141.983 121.207 146.477 125.451 150.763 129.904C154.883 134.19 158.794 138.725 162.373 143.511C164.121 145.55 165.785 147.714 167.283 149.961C170.279 154.497 172.651 159.49 174.191 164.692C175.522 168.978 176.271 173.514 175.938 178.008ZM89.3013 52.8788C90.5912 51.9634 91.9229 51.1311 93.3793 50.4653C91.8812 51.0063 90.4664 51.8385 89.3013 52.8788ZM79.9801 83.5057C80.2298 83.5889 80.4378 83.7969 80.4378 84.0882C80.3962 85.0037 80.3545 85.9192 80.3129 86.8347C80.1049 91.204 79.8968 95.5317 79.7304 99.901C79.5639 104.062 79.3559 108.223 79.231 112.385C81.9359 113.342 84.7239 114.091 87.5536 114.59C98.5809 116.546 110.191 114.882 120.219 109.888C119.637 108.265 119.054 106.642 118.513 105.019C116.89 100.359 115.392 95.6565 113.936 90.9543H113.894C112.188 90.9543 110.524 90.4549 109.15 89.4562C108.859 89.2482 108.817 88.8737 109.026 88.5824C109.234 88.2911 109.608 88.2495 109.899 88.4576C112.521 90.4133 116.682 90.0388 118.971 87.6669C121.759 84.7124 121.135 81.0089 119.304 78.6786C117.431 76.3483 113.977 74.8919 110.482 76.9309C110.191 77.0973 109.816 77.0141 109.65 76.7228C109.483 76.4315 109.567 76.057 109.858 75.849C110.191 75.6409 110.524 75.4744 110.857 75.3496C110.482 73.269 110.149 71.1884 109.816 69.1077C97.6238 69.3574 91.2987 61.7839 96.417 50.5486C93.2545 51.5889 90.3832 53.5447 87.8448 55.5421C83.2674 59.2456 79.3143 63.6149 75.4027 67.9842C72.3234 71.3964 69.2857 75.0167 65.707 77.9296C65.7902 77.9712 65.915 78.0128 65.9982 78.0544C70.6172 79.8854 75.3195 81.7163 79.9801 83.5057ZM73.5302 185.623C74.4456 185.623 75.2779 185.165 75.902 184.333C76.7343 183.209 77.0256 181.628 76.6511 180.172L65.3324 139.225C64.8747 137.56 63.6263 136.437 62.2531 136.437H5.24397C4.3285 136.437 3.49627 136.895 2.87208 137.727C2.03983 138.85 1.74852 140.432 2.12304 141.888L13.4416 182.835C13.8994 184.499 15.1478 185.623 16.521 185.623H73.5302ZM72.7811 155.87C72.573 155.87 72.365 155.911 72.1569 155.87C71.5743 155.787 71.1998 155.537 70.9501 155.204L74.7785 169.103C75.4027 168.936 75.9853 168.77 76.6094 168.603C76.443 168.312 76.3597 167.937 76.3597 167.563C76.2765 165.649 78.3156 164.608 79.9801 164.484C81.1452 164.4 82.352 164.65 83.5172 164.234C84.0165 164.067 84.4326 163.735 84.5158 163.194C84.599 162.819 84.599 162.445 84.5158 162.07C84.2245 160.738 82.5184 160.447 81.3117 160.322C79.6472 160.156 77.8995 160.281 76.235 159.948C74.3624 159.573 72.6147 157.826 72.7811 155.87ZM75.153 170.268L77.8162 179.88C77.941 180.38 78.0242 180.879 78.0242 181.337C87.179 181.337 94.9606 181.337 99.2051 181.337C97.4157 180.338 95.7928 178.965 94.6277 177.259C93.0464 175.012 92.1309 172.099 89.4677 170.892C86.8461 169.727 83.85 170.476 81.1036 170.434C80.0217 170.434 78.6485 170.226 77.6497 169.56C76.8175 169.81 75.9853 170.018 75.153 170.268ZM103.283 183.417V183.376V183.334C103.283 183.126 103.2 182.96 103.075 182.835C102.784 182.752 102.492 182.71 102.201 182.627C100.245 182.627 90.2999 182.627 77.941 182.627C77.5249 184.999 75.7772 186.913 73.4885 186.913H19.6419C20.7239 189.742 23.4287 191.74 26.5912 191.74H95.7928H95.8344C97.915 191.74 99.8292 190.908 101.244 189.368C102.742 187.745 103.45 185.581 103.283 183.417ZM105.28 180.713C106.071 179.672 106.737 178.549 107.319 177.425C108.485 175.136 109.317 172.598 109.567 170.06C109.65 168.936 109.691 167.813 109.442 166.689C109.358 166.315 109.275 165.94 109.15 165.524C108.068 163.984 106.945 162.528 105.738 161.155C102.992 157.95 99.9541 154.913 96.5834 152.374C93.5041 150.044 90.0503 147.963 86.3052 147.048C83.0178 146.257 79.6055 146.632 76.8175 148.588C76.5262 148.796 76.1933 149.045 75.902 149.295C80.2297 148.047 84.8904 148.38 89.01 150.294C89.759 150.627 89.0932 151.709 88.3858 151.376C84.0165 149.337 78.7317 149.253 74.3207 151.209C74.1543 151.292 74.0295 151.292 73.9046 151.251C73.7798 151.292 73.655 151.376 73.5302 151.417C73.1556 151.667 72.7811 151.958 72.5314 152.333C72.1569 152.874 71.7823 153.664 71.9904 154.289C72.032 154.455 72.1569 154.621 72.3233 154.663C72.6978 154.788 73.0723 154.663 73.4468 154.538C73.4885 154.538 73.4885 154.538 73.5302 154.538C77.1921 150.086 83.5171 152.499 87.4287 155.204C88.0945 155.662 87.4703 156.744 86.8045 156.286C83.3507 153.914 77.6497 151.417 74.404 155.412C74.3623 155.495 74.2792 155.537 74.2375 155.537C74.2375 155.537 74.2375 155.537 74.2375 155.579C73.6966 156.827 74.9033 158.159 75.9853 158.616C76.6927 158.908 77.525 158.908 78.3156 158.949C80.1049 159.032 82.0607 158.949 83.7668 159.573C85.3064 160.156 86.1387 161.404 85.9723 163.069C85.889 163.651 85.8058 164.151 85.3481 164.608C84.9735 165.025 84.5158 165.274 84.0165 165.441C82.8929 165.815 81.6861 165.774 80.521 165.732C79.6887 165.732 78.7733 165.898 78.1907 166.523C77.8162 166.939 77.6497 167.48 77.8578 167.937C78.1907 168.728 79.1895 169.061 79.9801 169.144C81.3117 169.352 82.7264 169.186 84.058 169.103C86.8045 168.936 89.6342 169.061 91.8397 170.934C93.8787 172.681 94.6693 175.386 96.3754 177.383C97.9567 179.298 100.12 180.629 102.492 181.337C102.617 181.337 102.659 181.337 102.659 181.337C103.033 181.337 103.408 181.462 103.699 181.628C103.949 181.67 104.198 181.711 104.448 181.753C104.698 181.462 104.989 181.087 105.28 180.713ZM174.482 171.641C173.858 166.897 172.401 162.237 170.362 157.909C167.991 152.79 164.87 148.088 161.124 143.844C160.958 143.636 160.916 143.428 161 143.22L160.584 143.095C159.626 141.805 158.628 140.556 157.587 139.35C153.343 134.19 148.682 129.279 143.814 124.702C139.777 120.957 135.574 117.337 130.997 114.257C127.876 112.177 124.589 110.387 121.135 108.973C121.26 109.347 121.384 109.722 121.509 110.096C121.593 110.346 121.509 110.554 121.385 110.679C121.426 110.803 121.468 110.928 121.426 111.053C120.968 113.3 119.928 115.339 118.472 117.087C115.933 120.041 112.23 121.872 108.401 122.289C104.448 122.705 100.453 121.498 97.4989 118.835C96.9163 118.294 97.7902 117.42 98.3728 117.961C99.9125 119.334 101.743 120.291 103.741 120.79C110.648 122.455 118.305 118.252 120.095 111.344C117.556 112.593 114.893 113.592 112.146 114.424C101.036 117.711 88.8435 117.378 77.941 113.342C77.6081 113.217 77.4833 112.926 77.5249 112.634C73.6133 114.923 69.9514 117.628 66.6224 120.666C62.6692 124.286 59.1738 128.364 56.1777 132.775C55.6367 133.607 55.0958 134.439 54.5965 135.272H62.0867C64.0425 135.272 65.7901 136.77 66.3727 138.975L70.4924 153.956C70.4924 153.207 70.7836 152.374 71.1582 151.792C71.4911 151.334 71.8657 150.96 72.2818 150.627C72.4898 150.46 72.7395 150.335 72.9892 150.211C73.0308 150.169 73.114 150.169 73.1556 150.127C73.1972 150.127 73.2805 150.044 73.3221 150.044C73.3637 150.002 73.4469 149.878 73.4885 149.836C74.1543 149.045 74.9449 148.338 75.7772 147.714C78.8149 145.467 82.6432 145.009 86.2635 145.841C90.3415 146.757 94.0867 149.045 97.374 151.542C100.953 154.289 104.199 157.493 107.07 160.988C107.736 161.779 108.401 162.611 109.026 163.485C109.358 162.486 110.232 161.779 111.106 161.196C112.355 160.406 113.603 159.698 115.101 159.407C118.014 158.866 120.927 159.698 123.798 160.239C124.006 160.281 124.173 160.322 124.381 160.364C124.464 160.364 124.547 160.406 124.63 160.406C124.713 160.406 124.838 160.364 124.922 160.364C125.213 160.281 125.463 160.239 125.712 160.156C126.336 159.948 127.002 159.74 127.626 159.49C129.208 158.908 130.789 158.242 132.329 157.576C135.866 156.119 139.444 154.621 143.189 153.664C144.396 153.373 145.728 153.082 147.059 152.957C146.935 152.707 146.768 152.499 146.643 152.291C146.518 152.125 146.394 151.958 146.186 151.792C146.144 151.75 146.144 151.75 146.186 151.792C146.144 151.75 146.102 151.709 146.019 151.667C145.936 151.584 145.853 151.459 145.769 151.334C145.645 151.168 145.52 151.001 145.395 150.876C144.313 149.628 142.981 148.712 141.483 148.005C139.111 146.923 136.199 146.59 134.243 144.759C131.455 142.179 132.62 137.477 133.452 134.356C133.66 133.566 134.867 133.898 134.659 134.689C134.118 136.686 133.619 138.85 133.827 140.931C133.951 142.179 134.368 143.22 135.241 144.01C136.032 144.718 137.197 145.134 138.238 145.508C141.109 146.507 143.938 147.464 146.061 149.794C146.227 149.961 146.352 150.127 146.518 150.335C146.643 150.502 146.893 150.71 146.935 150.918C146.976 150.918 146.976 150.96 147.018 150.96C147.059 151.001 147.101 151.043 147.143 151.043C147.226 151.126 147.309 151.209 147.392 151.292C147.808 151.792 148.141 152.374 148.474 152.957V152.999C149.806 153.04 151.137 153.331 152.261 153.997C153.509 154.746 154.342 155.995 154.758 157.368C154.883 157.742 154.966 158.159 155.007 158.575C155.049 158.908 155.091 159.116 154.924 159.407C154.841 159.573 154.716 159.781 154.591 159.948C154.175 160.489 153.676 160.988 152.968 161.071C151.595 161.238 150.638 159.823 150.014 158.824C149.098 157.368 148.433 155.787 147.684 154.247C147.434 154.247 147.184 154.247 146.976 154.289C143.481 154.58 140.027 155.828 136.781 157.118C133.619 158.367 130.539 159.781 127.335 160.947C126.752 161.155 126.212 161.363 125.587 161.488C125.338 161.571 125.088 161.612 124.88 161.654C124.297 161.779 123.59 161.529 123.049 161.404C120.303 160.863 117.39 160.031 114.602 160.822C113.353 161.196 112.105 161.904 111.106 162.736C110.399 163.318 110.024 163.984 110.149 164.9C110.232 165.441 110.44 165.982 110.524 166.481C110.648 167.022 110.69 167.563 110.732 168.104C110.773 169.269 110.69 170.476 110.482 171.641C110.024 174.096 109.15 176.51 107.944 178.715C107.361 179.797 106.695 180.796 105.946 181.753C105.572 182.211 105.197 182.668 104.781 183.043C104.573 183.209 104.781 183.043 104.656 183.168C104.656 183.168 104.656 183.168 104.615 183.168V183.209C104.656 183.251 104.656 183.292 104.698 183.376C104.698 183.417 104.74 183.417 104.74 183.459C104.74 183.459 104.739 183.459 104.781 183.501C104.823 183.584 104.906 183.625 104.989 183.709C105.072 183.792 105.156 183.875 105.239 183.917C105.322 184 105.405 184.042 105.447 184.083C106.529 184.874 107.777 185.498 109.026 186.039C112.854 187.745 116.974 188.952 121.052 189.95C125.754 191.116 130.539 191.99 135.366 192.281C139.236 192.489 143.189 192.239 147.059 191.99C151.47 191.698 155.881 191.324 160.292 190.783C162.04 190.575 163.829 190.325 165.577 189.992C166.243 189.867 166.909 189.742 167.574 189.576C167.824 189.493 168.074 189.451 168.323 189.368C168.448 189.326 168.531 189.285 168.656 189.243C168.698 189.243 168.823 189.16 168.864 189.16C171.361 188.036 172.942 185.373 173.733 182.876C174.94 179.298 174.94 175.386 174.482 171.641ZM124.672 160.364H124.714C124.63 160.364 124.589 160.364 124.672 160.364ZM153.926 158.741C153.926 158.699 153.926 158.699 153.926 158.658C153.884 158.491 153.842 158.283 153.801 158.075C153.717 157.742 153.634 157.368 153.468 157.035C152.677 155.162 151.054 154.413 149.223 154.205C149.723 155.246 150.222 156.286 150.763 157.285C151.096 157.909 151.429 158.491 151.886 159.032C152.053 159.24 152.261 159.449 152.427 159.532C152.469 159.573 152.552 159.615 152.594 159.615C152.677 159.657 152.635 159.615 152.635 159.657C152.677 159.657 152.719 159.698 152.802 159.698C152.802 159.698 152.802 159.698 152.844 159.698C152.885 159.698 152.927 159.698 152.927 159.698C152.968 159.698 153.01 159.698 153.052 159.657C153.052 159.657 153.135 159.615 153.26 159.532C153.385 159.449 153.634 159.116 153.801 158.908C153.842 158.908 153.884 158.824 153.926 158.741ZM153.926 158.741C153.926 158.824 153.967 158.824 153.926 158.741V158.741ZM42.2375 157.867C43.2778 159.573 43.4858 161.945 42.4455 163.735C41.4052 165.607 38.9917 166.523 37.0359 165.524C35.3298 164.65 34.4976 162.569 34.4976 160.738C34.4976 159.282 34.9969 157.909 35.9956 156.993C36.0372 156.827 36.1205 156.702 36.2869 156.577C37.3273 155.87 38.6173 155.495 39.824 155.828C40.8227 156.161 41.6965 156.952 42.2375 157.867ZM40.9059 158.117C40.4481 157.534 39.9072 157.16 39.1998 156.993C38.9502 156.952 38.4924 156.952 38.1595 157.035C38.1179 157.035 38.1178 157.035 38.0762 157.077C37.993 157.16 37.9098 157.201 37.8266 157.243C36.1621 157.867 35.5379 159.698 35.746 161.363C35.8292 162.028 36.0789 162.778 36.495 163.402C36.8279 163.943 37.3689 164.4 37.9515 164.567C38.6173 164.775 39.4079 164.692 40.1153 164.359C40.8227 163.984 41.3636 163.277 41.6133 162.569C42.1542 161.113 41.863 159.324 40.9059 158.117ZM95.0854 118.294C95.4183 117.586 94.3364 116.921 94.0035 117.67C92.7135 120.374 90.1335 122.08 87.2206 122.538C84.6407 122.954 81.7278 122.247 80.0216 120.166C78.9397 118.876 78.5652 117.212 78.6069 115.547C78.6069 114.757 77.3585 114.757 77.3585 115.547C77.3169 117.253 77.6914 119.001 78.6901 120.458C79.5639 121.748 80.8123 122.663 82.2688 123.246C85.1817 124.411 88.6355 123.953 91.2987 122.372C92.9632 121.415 94.2947 120 95.0854 118.294ZM91.7564 93.3262V93.3678V93.3262ZM83.1426 75.0167C83.5171 75.0999 83.7668 74.8919 83.8916 74.6006C84.391 73.3522 84.9319 72.0622 85.4313 70.8138C85.5561 70.5226 85.3064 70.1064 85.0151 70.0648C84.6406 69.9816 84.3909 70.1897 84.2661 70.4809C83.7667 71.7293 83.2258 73.0193 82.7265 74.2677C82.6016 74.559 82.8513 74.9335 83.1426 75.0167ZM90.716 94.1585C90.1335 93.2014 90.8409 91.953 91.7564 91.4953C92.0476 91.3288 92.3806 91.2456 92.7135 91.204C92.7967 89.9972 94.1283 89.165 95.2519 89.0817C95.9177 89.0401 96.625 89.2898 97.0828 89.7475C97.2908 89.9556 97.4573 90.2469 97.5821 90.5382C98.3727 89.5811 98.9969 88.4576 99.3715 87.2508C99.6211 86.5018 100.828 86.8347 100.578 87.5837C100.162 88.9153 99.4547 90.1637 98.6224 91.2456C98.7473 91.3288 98.8305 91.4537 98.8721 91.5785C99.205 92.5772 99.2883 93.6591 99.1218 94.6994C98.8722 96.0726 97.9566 97.5291 96.4586 97.7788C94.7525 98.07 93.4625 96.7801 92.6303 95.4485C91.2987 95.8646 89.8838 96.0726 88.4274 95.9894C87.6367 95.9478 87.6367 94.6994 88.4274 94.741C89.3428 94.7827 90.2168 94.6994 91.0906 94.533C90.9242 94.4498 90.7993 94.3249 90.716 94.1585ZM91.7564 93.5343C91.798 93.5759 91.8396 93.6175 91.7564 93.5343V93.5343ZM97.0412 92.9101C96.0841 93.784 94.9605 94.4914 93.7538 94.9907C93.9202 95.2404 94.0867 95.4485 94.2531 95.6565C94.4196 95.823 94.5444 95.9478 94.7109 96.1143C94.7109 96.1143 94.7109 96.1143 94.7525 96.1559C94.7941 96.1975 94.8357 96.1975 94.8357 96.2391C94.919 96.2807 95.0021 96.3639 95.0854 96.4055C95.127 96.4472 95.1686 96.4472 95.2102 96.4888C95.2102 96.4888 95.2519 96.4888 95.2519 96.5304C95.2935 96.5304 95.3767 96.572 95.4183 96.572C95.5015 96.572 95.5431 96.6136 95.6263 96.6136C95.6263 96.6136 95.7512 96.6136 95.7512 96.6552C95.7928 96.6552 95.876 96.6552 95.9176 96.6552C95.9592 96.6552 96.0425 96.6552 96.0841 96.6552H96.1257C96.1673 96.6552 96.2506 96.6136 96.2922 96.6136C96.3338 96.6136 96.4586 96.572 96.4586 96.572C96.5002 96.572 96.5418 96.5304 96.5834 96.5304C96.6251 96.4888 96.7082 96.4888 96.7499 96.4472C96.7499 96.4472 96.8332 96.4055 96.8332 96.3639L96.8747 96.3223C96.9163 96.2807 96.9163 96.2807 96.9579 96.2391C96.9995 96.1975 97.0412 96.1559 97.0828 96.1143C97.1244 96.0726 97.166 96.031 97.166 95.9894C97.166 95.9894 97.2493 95.9062 97.2493 95.8646C97.3325 95.7397 97.4157 95.5733 97.4989 95.4485C97.4989 95.4068 97.5405 95.3236 97.5821 95.3236C97.6237 95.282 97.6238 95.1988 97.6654 95.1572C97.707 94.9907 97.7486 94.8243 97.7902 94.6578C97.8318 94.4914 97.8319 94.3665 97.8735 94.2833C97.9151 93.7007 97.8734 93.2014 97.7902 92.702C97.7069 92.9101 97.4573 93.0765 97.2076 93.0765C97.166 92.9517 97.1245 92.9517 97.0412 92.9101ZM93.9203 91.3704C93.9203 91.412 93.9203 91.4537 93.9203 91.4953C94.4612 91.7866 94.919 92.2443 95.2519 92.7436C95.7096 92.4107 96.1673 92.0362 96.5834 91.6617C96.5418 91.4953 96.5002 91.2872 96.4586 91.1207V91.0791C96.4586 91.0375 96.417 91.0375 96.417 90.9959C96.3754 90.9127 96.3338 90.8711 96.2922 90.7879C96.2506 90.7462 96.2505 90.7462 96.2505 90.7462L96.209 90.7046C96.1674 90.663 96.1257 90.6214 96.0425 90.5798C96.0008 90.5798 96.0009 90.5382 95.9593 90.5382C95.9176 90.4966 95.8761 90.4966 95.7928 90.455H95.7512C95.7096 90.455 95.6264 90.4133 95.5848 90.4133H95.5431C95.5015 90.4133 95.4183 90.4133 95.3767 90.4133C95.3351 90.4133 95.2518 90.4133 95.2102 90.4133H95.1687C95.0438 90.455 94.919 90.4549 94.8357 90.4966C94.7941 90.4966 94.7941 90.4966 94.7525 90.5382C94.7109 90.5798 94.6693 90.5798 94.6277 90.6214C94.5444 90.663 94.4196 90.7462 94.3364 90.7879L94.2948 90.8295C94.2531 90.8711 94.2115 90.9127 94.1699 90.9543C94.1699 90.9543 94.1283 90.9959 94.0867 91.0375C94.0867 91.0791 94.045 91.0791 94.045 91.1207C94.0034 91.1624 94.0034 91.204 93.9618 91.2456V91.2872C93.9618 91.2456 93.9203 91.2872 93.9203 91.3704ZM92.7135 92.494C92.7551 92.494 92.7551 92.494 92.7551 92.494H92.7135ZM91.7148 93.3678V93.4094V93.451C91.6732 93.4094 91.7148 93.4094 91.7148 93.451V93.4927C91.7148 93.4927 91.7148 93.4927 91.7148 93.451C91.7564 93.4927 91.7564 93.4927 91.798 93.5343C91.8396 93.5759 91.8812 93.5759 91.9229 93.6175C92.0477 93.6591 92.1309 93.6591 92.2558 93.7007C92.2974 93.7007 92.3389 93.7007 92.3805 93.7007C92.4638 93.7007 92.5054 93.7007 92.5886 93.7007C92.7551 93.7007 92.9215 93.784 93.0047 93.8672C93.3792 93.7007 93.7122 93.5343 94.0867 93.3678C93.6706 93.1182 93.2544 92.8269 93.0047 92.4107C93.0047 92.4107 93.0048 92.4107 92.9632 92.4107C92.9216 92.4107 92.8799 92.4107 92.8383 92.4107C92.7967 92.4107 92.7551 92.4107 92.7135 92.4107H92.6719C92.6303 92.4107 92.4221 92.4524 92.3805 92.494C92.3805 92.494 92.5054 92.4107 92.4222 92.4524C92.4222 92.4524 92.3805 92.4524 92.3805 92.494C92.3389 92.494 92.2974 92.5356 92.2558 92.5772C92.2142 92.6188 92.1725 92.6188 92.1309 92.6604C92.0477 92.702 92.006 92.7853 91.9644 92.8269C91.9644 92.8269 91.9645 92.8269 91.9229 92.8685C91.9229 92.9101 91.8812 92.9101 91.8812 92.9517C91.8396 92.9933 91.8397 93.0349 91.8397 93.0765C91.8397 93.1182 91.798 93.1598 91.798 93.2014C91.7564 93.2846 91.7148 93.2846 91.7148 93.3678ZM86.5964 75.5993C86.971 75.6825 87.2206 75.4744 87.3455 75.1832C87.8032 74.018 88.2193 72.8529 88.6771 71.7293C88.8019 71.438 88.5522 71.0219 88.2609 70.9803C87.8864 70.8971 87.6367 71.1051 87.5119 71.3964C87.0542 72.5616 86.6381 73.7267 86.1803 74.8503C86.0555 75.0999 86.3052 75.5161 86.5964 75.5993ZM87.5119 61.451C87.8448 61.451 88.1361 61.451 88.469 61.451C88.6355 61.451 88.8019 61.3678 88.9268 61.2846C89.0516 61.1597 89.1348 60.9933 89.0932 60.8268C89.0932 60.6604 89.0516 60.4939 88.9268 60.3691C88.8019 60.2443 88.6355 60.2027 88.469 60.2027C88.1361 60.2027 87.8448 60.2027 87.5119 60.2027C87.3454 60.2027 87.1791 60.2859 87.0542 60.3691C86.9294 60.4939 86.8461 60.6604 86.8877 60.8268C86.8877 60.9933 86.9294 61.1597 87.0542 61.2846C87.1791 61.4094 87.3454 61.451 87.5119 61.451Z" fill="#16202C"/>
<path d="M34.8769 49.8304C34.1744 49.3153 34.8769 48.0976 35.5794 48.6128C40.5438 52.3126 45.5083 56.0593 50.5195 59.7592C51.222 60.2744 50.5195 61.4921 49.817 60.9769C44.8526 57.2302 39.8413 53.5303 34.8769 49.8304ZM50.1917 50.3456C52.8612 52.8278 55.5307 55.31 58.2471 57.7922C58.9028 58.401 59.8862 57.4175 59.2305 56.8087C56.561 54.3265 53.8915 51.8443 51.1751 49.3621C50.5195 48.7532 49.536 49.7368 50.1917 50.3456ZM155.802 68.4235C160.298 65.0983 164.841 61.7731 169.337 58.4479C170.039 57.9327 169.337 56.715 168.634 57.2302C164.138 60.5554 159.596 63.8806 155.1 67.2058C154.35 67.7678 155.053 68.9855 155.802 68.4235ZM160.626 73.2942C162.78 72.3107 164.935 71.374 167.089 70.3905C167.417 70.25 167.51 69.7348 167.323 69.407C167.136 69.0323 166.714 68.9855 166.34 69.1728C164.185 70.1563 162.031 71.093 159.877 72.0765C159.549 72.217 159.455 72.7322 159.642 73.06C159.877 73.3879 160.298 73.4347 160.626 73.2942ZM40.4033 64.5831C41.4805 65.0983 42.5578 65.6603 43.6349 66.1754C43.9628 66.3628 44.4311 66.2691 44.6184 65.9413C44.8057 65.6134 44.7121 65.1451 44.3842 64.9578C43.307 64.4426 42.2299 63.8806 41.1527 63.3654C40.8249 63.1781 40.3565 63.2718 40.1692 63.5996C39.9818 63.9274 40.0287 64.3958 40.4033 64.5831Z" fill="#16202C"/>
</svg>
