<svg width="166" height="162" viewBox="0 0 166 162" fill="none" xmlns="http://www.w3.org/2000/svg">
<path d="M114.847 96.2835C121.152 103.552 133.842 90.7416 141.753 85.2399C149.665 79.7381 156.853 70.6623 154.564 61.3053C151.753 49.8199 136.171 43.9969 135.689 32.1903C135.488 26.8492 138.581 22.0301 140.227 16.9701C141.874 11.9101 141.352 5.043 136.492 2.87443C135.047 2.23189 133.4 2.11141 131.794 1.99093C124.324 1.50903 116.855 0.986963 109.385 0.505058C99.5465 -0.13748 89.3864 -0.73987 80.1097 2.55314C66.9377 7.25171 57.7012 18.978 46.0551 26.809C44.4488 27.8933 42.722 28.9374 40.7944 29.0177C35.0116 29.2587 32.4816 21.5884 27.4216 18.7371C22.4821 15.926 15.6952 18.6568 12.8038 23.5561C9.91233 28.4555 10.1935 34.6801 12.0408 40.0614C13.8881 45.4426 17.1008 50.2215 19.9119 55.161C22.723 60.1005 25.1727 65.4818 25.2931 71.1442C25.4136 77.2885 22.7229 83.1516 19.8315 88.573C16.9401 93.9944 99.1851 78.2121 114.847 96.2835Z" fill="#635BFF" fill-opacity="0.1"/>
<path d="M157.528 149.616C155.44 144.194 159.536 137.648 156.966 132.468C154.838 128.171 149.296 127.046 145.601 123.994C143.111 121.906 141.505 119.015 139.617 116.364C137.73 113.714 135.24 111.224 132.027 110.662L132.068 110.421C129.658 106.405 126.164 102.67 124.397 99.4172C123.032 96.9676 134.035 91.3855 134.035 91.3855C125.883 83.3136 107.129 68.5352 96.3263 64.6398C95.9247 59.0176 95.4028 45.203 95.4028 45.203C99.6997 44.1188 108.374 41.8297 108.374 41.8297C103.314 35.565 97.8122 28.3364 92.1097 21.2283C90.2222 18.859 87.6922 16.7707 84.8008 15.9675L75.6045 14.0801L71.6288 30.9467C69.3799 29.9026 66.4484 30.3443 64.6814 32.1113C62.5931 34.1594 62.3521 37.8139 64.1191 40.1431C65.2435 41.6289 67.0507 42.4321 68.898 42.5124L68.8578 42.6731C65.7656 49.9819 62.9545 56.0459 59.8221 62.3909L59.7819 62.2303C49.5415 66.7683 39.9436 70.7038 30.5866 76.9686C21.2698 83.1932 12.8767 91.2249 7.81667 101.265C7.81667 101.265 14.2019 99.3369 20.1454 101.746C19.7036 102.228 19.3422 102.75 19.0209 103.313C17.6153 105.762 17.3745 108.694 16.5713 111.385C13.6397 121.103 3.51971 127.328 0.507812 137.046C0.507812 137.046 5.2465 147.648 38.2168 152.949C39.301 153.109 39.3011 151.061 39.542 150.057C39.7428 149.053 39.5822 147.969 38.8191 147.206C38.4979 146.885 38.0963 146.684 37.6144 146.523C38.3774 145.8 39.1003 145.038 39.6625 144.194C40.9878 142.387 41.6705 140.218 40.9878 138.251C40.546 137.006 39.6223 135.962 38.8191 134.877C34.3615 128.813 42.9555 127.046 47.2927 123.392C48.4974 122.348 49.5415 121.023 50.2644 119.657C52.192 121.986 54.6416 123.914 57.3724 125.239C59.7418 127.087 62.2317 128.01 64.2396 128.372C64.5609 128.492 64.9223 128.613 65.2838 128.693L65.1231 128.492C65.2435 128.492 65.4042 128.532 65.5247 128.532L68.0949 113.473C68.0949 113.473 82.4314 114.075 83.4756 98.7345C83.6362 96.2447 83.3952 94.1966 82.8732 92.4296C87.3308 91.8674 91.2262 92.028 94.72 92.3895C95.6035 93.0722 96.5272 93.9958 97.2902 95.1604C97.3304 95.4817 97.4909 95.803 97.7319 96.0841C97.8122 96.1644 97.8524 96.2046 97.9327 96.2849C99.2579 98.9353 99.9005 102.67 98.6556 107.971C97.5713 112.629 95.6036 116.083 93.3948 118.693C93.3145 118.653 93.2744 118.573 93.194 118.533L93.2743 118.854C88.3348 124.597 82.311 125.922 82.311 125.922L80.0621 141.945L115.643 133.914L110.944 115.32C112.149 115.159 113.354 114.838 114.558 114.477C114.438 115.24 114.438 116.043 114.518 116.846C114.759 118.693 115.562 120.46 116.807 121.826H117.129C117.329 131.424 118.414 141.022 120.422 150.379C121.225 154.153 122.349 158.21 125.482 160.458C125.482 160.458 131.425 148.933 145.079 154.555C158.733 160.177 165.319 154.555 165.319 154.555C161.946 154.836 158.693 152.708 157.528 149.616ZM106.687 98.7345L105.724 94.9195C105.884 94.8793 106.085 94.799 106.246 94.7588C108.133 94.3171 110.422 94.5982 111.506 96.2045C111.546 96.2849 111.587 96.3652 111.627 96.4455C109.9 97.0479 108.253 97.8109 106.687 98.7345ZM109.418 109.577C111.667 108.654 114.036 107.891 116.325 107.248C114.438 107.931 111.828 109.216 109.659 110.581L109.418 109.577Z" fill="white"/>
<path d="M72.6416 83.3927L73.9267 70.582C73.9267 70.582 63.887 72.2285 56.4175 79.8988C56.9396 80.0193 57.5018 80.1799 58.0238 80.3406C59.5097 80.7823 61.1562 81.2241 62.4413 82.1879C63.5256 83.0312 64.2485 84.4368 63.887 85.8423C63.4855 87.2479 62.0397 87.8503 60.6743 87.7699C59.068 87.6896 57.542 86.9266 56.0561 86.3644C54.8112 85.8825 53.526 85.4809 52.1606 85.6014C51.8795 86.1234 51.5984 86.6053 51.3575 87.1676C51.7992 87.3683 52.241 87.5691 52.6827 87.7699C54.8111 88.8542 56.8191 90.2196 58.6262 91.8661C60.0719 93.1914 63.0437 95.7615 60.8751 97.7293C60.3932 98.1309 59.8711 98.3718 59.3089 98.4522C60.0318 99.2955 60.6743 100.34 60.4334 101.504C60.1924 102.709 59.0278 103.392 57.8632 103.351C56.4978 103.311 55.2127 102.468 54.008 101.866C53.3253 101.544 52.6425 101.223 51.9598 100.942C52.0803 101.022 52.2409 101.103 52.3614 101.223C53.0843 101.705 53.767 102.227 54.4096 102.829C54.8513 103.271 55.3332 103.753 55.4938 104.355C56.056 106.243 53.3654 106.484 52.2008 106.524C50.9961 106.564 49.8314 106.444 48.6668 106.203C48.7873 107.568 48.3054 109.175 49.1487 110.098C49.8314 110.861 51.1166 111.343 51.4379 112.468C51.7993 113.753 50.7953 116.202 51.2772 117.287C55.0119 125.76 61.6783 128.531 65.654 128.732L68.2241 113.672C68.2241 113.672 82.5608 114.275 83.6049 98.934C84.5285 84.999 72.6416 83.3927 72.6416 83.3927Z" fill="#635BFF"/>
<path d="M47.383 106.202C47.383 106.082 47.383 105.961 47.3428 105.801H47.3027C47.3429 105.921 47.3429 106.042 47.383 106.202Z" fill="#121C25"/>
<path d="M51.1963 78.8544C55.2524 74.2763 60.5533 70.8628 66.4164 69.0557C66.5369 69.0155 66.6173 68.9753 66.6574 68.895C68.5851 69.136 70.5126 69.5777 72.3599 70.1801C66.1755 72.2684 60.4328 75.4811 55.413 79.6174C55.8949 79.7379 56.417 79.8584 56.8989 79.9788C61.9589 75.9228 67.7819 72.8306 74.0065 70.9431C74.1671 70.903 74.2475 70.8227 74.3278 70.7423C74.7695 70.5817 74.89 69.7785 74.2876 69.5777C71.7576 68.6942 69.1875 68.0116 66.4968 67.7304C66.296 67.6903 66.1353 67.8107 66.0149 67.9714C59.8304 69.899 54.2484 73.5534 50.0318 78.4528C49.9515 78.5331 49.9113 78.6536 49.8711 78.7339C50.2727 78.7339 50.7546 78.7741 51.1963 78.8544Z" fill="#121C25"/>
<path d="M67.621 115.719C65.9745 115.037 64.8903 113.511 63.9264 112.105C63.4044 111.382 62.9225 110.619 62.3603 109.936C61.8382 109.254 61.1957 108.491 60.4729 108.049C59.6697 107.567 58.5452 107.487 57.9829 108.41C57.4609 109.254 57.8223 110.378 57.9829 111.262C58.4247 113.35 59.0673 115.398 59.9508 117.366C60.9547 119.655 62.28 121.743 63.8461 123.711C64.328 124.313 65.1714 123.47 64.6895 122.868C62.1997 119.775 60.4327 116.161 59.4689 112.346C59.2279 111.462 58.9468 110.459 58.9468 109.535C58.9066 108.37 59.9909 109.093 60.4327 109.535C61.5973 110.659 62.4406 112.105 63.4044 113.39C64.4485 114.836 65.6533 116.161 67.3399 116.844C67.6612 116.964 67.9825 116.723 68.0628 116.442C68.1431 116.121 67.9021 115.84 67.621 115.719Z" fill="#121C25"/>
<path d="M74.5276 94.075C73.7646 93.071 73.0819 92.0269 72.3992 90.9426C69.4275 86.0834 67.4597 80.662 66.5762 75.0398C66.4557 74.2768 65.2911 74.5981 65.4115 75.3611C66.1344 80.14 67.7007 84.7582 69.9094 89.015C71.0338 91.1434 72.3189 93.1915 73.7646 95.1191C74.367 95.8821 75.2906 97.0066 74.7685 98.0507C74.6079 98.372 74.2867 98.6933 73.8851 98.6129C73.4032 98.5326 73.1221 97.9302 72.9213 97.5286C72.2386 96.3239 71.596 95.1191 70.9535 93.9545C70.3912 92.9104 69.8692 91.7458 69.1062 90.8222C68.5038 90.0592 67.5802 89.4568 66.5762 89.6977C65.5722 89.9387 64.9699 90.9025 64.8896 91.8663C64.7691 93.0309 65.3715 94.1152 65.8935 95.1191C66.4959 96.2837 67.0581 97.4484 67.5802 98.6531C68.6243 101.063 69.4677 103.552 70.1102 106.082C70.2307 106.564 70.3913 107.046 70.311 107.568C70.2307 108.211 69.7487 107.97 69.3471 107.649C68.3432 106.765 67.4596 105.721 66.6163 104.677C64.8895 102.549 63.4839 100.179 62.3997 97.6893C62.0784 96.9664 61.0343 97.609 61.3556 98.2917C62.3997 100.581 63.6847 102.789 65.2108 104.797C65.9738 105.801 66.8172 106.805 67.7007 107.729C68.4235 108.492 69.4676 109.697 70.6724 109.054C71.5559 108.572 71.596 107.488 71.4353 106.605C71.2346 105.319 70.7929 104.034 70.3913 102.83C69.548 100.219 68.5038 97.6491 67.2589 95.1995C66.777 94.1955 65.8132 92.9506 66.0943 91.786C66.1746 91.3844 66.4557 90.9828 66.8573 90.9025C67.3794 90.8222 67.8211 91.2639 68.1023 91.6253C68.4235 92.0269 68.6645 92.4687 68.9054 92.9104C69.2669 93.5931 69.6684 94.2758 70.0298 94.9585C70.6723 96.1633 71.3149 97.4082 72.0377 98.5728C72.5598 99.4563 73.4835 100.179 74.5677 99.7775C75.4914 99.4161 76.1339 98.372 76.0536 97.368C76.0938 96.0428 75.2505 95.0388 74.5276 94.075Z" fill="#121C25"/>
<path d="M49.7102 109.335C49.5897 108.331 49.5495 107.287 49.5897 106.283C49.1881 106.243 48.7865 106.162 48.3849 106.082C48.3447 107.046 48.3849 108.01 48.4652 108.973" fill="#121C25"/>
<path d="M50.9941 118.773C57.4195 127.608 63.0418 128.331 65.1702 128.973C65.9332 129.174 66.2545 128.009 65.4915 127.809C59.2669 126.002 54.1265 121.464 51.5162 115.641" fill="#121C25"/>
<path d="M96.7808 94.3966C96.8611 93.7942 97.102 93.1918 97.4635 92.7099C98.5076 91.3445 100.315 90.7823 101.881 90.3004C102.764 90.0193 103.648 89.7783 104.531 89.5775L100.676 74.3574L94.2508 75.9638L90.7168 90.3807C90.7168 90.3807 94.2106 91.1437 96.7808 94.3966Z" fill="#FF8801"/>
<path d="M100.033 103.593C100.836 102.67 101.72 101.786 102.644 100.983C103.888 99.939 105.214 98.9751 106.659 98.172L105.977 95.5215C104.692 95.8829 103.447 96.5255 102.202 96.927C101.037 97.3286 99.5915 97.6499 98.3867 97.2082C99.1497 99.1358 99.5514 101.626 99.2301 104.758C99.471 104.397 99.7522 103.955 100.033 103.593Z" fill="#FF8801"/>
<path d="M107.261 116.042C106.579 115.962 105.775 115.761 105.374 115.159C105.053 114.677 105.173 114.074 105.414 113.593C106.097 112.348 107.502 111.424 108.707 110.661C107.783 111.063 106.86 111.464 105.976 111.946C104.812 112.548 103.567 113.231 102.201 112.95C100.956 112.709 100.153 111.625 100.274 110.38C100.354 109.537 100.836 108.814 101.398 108.131C100.595 108.011 99.9123 107.649 99.3903 106.846C99.2296 106.605 99.1493 106.364 99.1092 106.123C99.0289 106.725 98.9083 107.368 98.7477 108.011C95.2137 123.07 82.4031 125.961 82.4031 125.961L80.1543 141.985L115.735 133.953L111.197 115.962C109.872 116.203 108.587 116.243 107.261 116.042Z" fill="#FF8801"/>
<path d="M79.0321 123.109C78.8313 122.827 78.992 122.466 79.2329 122.265C79.514 122.064 79.8754 122.225 80.0762 122.466C80.8392 123.631 81.6424 124.755 82.4054 125.92C82.6062 126.201 82.4456 126.562 82.2046 126.763C81.9235 126.964 81.5621 126.803 81.3613 126.562C80.5983 125.398 79.8353 124.273 79.0321 123.109ZM98.9107 124.032C99.8745 125.357 102.083 127.968 100.276 129.494C99.4728 130.177 98.3083 129.855 97.6256 129.132C96.8626 128.329 96.3807 127.245 95.698 126.361C95.0554 125.518 94.2924 124.594 93.4089 123.992C93.0877 123.751 92.4451 123.43 92.0435 123.831C91.7222 124.193 92.0837 124.795 92.2845 125.117C92.8869 126.161 93.6097 127.165 94.2924 128.209C95.0153 129.293 95.7381 130.417 96.4609 131.502C96.9027 132.144 95.8586 132.747 95.4169 132.104C94.6137 130.899 93.8506 129.695 93.0475 128.49C92.6459 127.887 92.2443 127.285 91.8427 126.683C91.4813 126.161 91.1199 125.639 90.8789 125.036C90.5577 124.113 90.7584 123.068 91.7222 122.667C92.686 122.225 93.6499 122.667 94.4129 123.269C95.2964 123.992 96.0593 124.876 96.742 125.759C97.1035 126.241 97.4247 126.683 97.746 127.205C98.0271 127.647 98.2681 128.209 98.6697 128.53C99.0311 128.811 99.513 128.851 99.6736 128.369C99.8343 127.928 99.6335 127.486 99.3925 127.084C98.8705 126.12 98.1878 125.197 97.5051 124.273C96.1799 122.466 94.694 120.82 93.0475 119.294C90.4773 122.466 87.1843 125.036 83.4496 126.683C82.6464 131.903 81.8432 137.124 81.0401 142.345C80.9196 143.067 79.9155 142.826 79.8754 142.144C79.7951 142.104 79.7148 142.023 79.6746 141.943C78.7108 140.457 77.6265 139.092 76.3816 137.807C76.1808 137.606 76.1808 137.365 76.2611 137.204C77.1044 132.184 77.988 127.165 78.8313 122.105C78.9116 121.743 79.1928 121.623 79.4337 121.703C82.9677 121.101 86.3008 119.735 89.2324 117.647C92.7262 115.157 95.6177 111.583 97.224 107.527C97.3043 107.166 97.3445 106.804 97.3846 106.443C97.4248 106.282 97.5453 106.121 97.7059 106.041C97.987 105.198 98.1878 104.355 98.3083 103.471C98.75 100.74 98.3885 97.8889 96.9428 95.5196C95.5373 93.2707 93.1278 91.7447 90.5174 91.3431C90.3568 91.3833 90.1561 91.3832 89.9955 91.3029C89.8348 91.3029 89.6741 91.2628 89.5537 91.2628C88.9914 91.2628 88.8308 90.6202 89.0718 90.299C88.2686 89.4556 87.4654 88.6123 86.6221 87.769C86.2205 87.8091 85.8189 87.528 85.9394 87.0461C87.5457 81.946 88.5899 76.6852 89.0718 71.3441C88.9112 70.9827 89.112 70.5007 89.5939 70.5007C89.6742 70.4606 89.7946 70.4606 89.875 70.5007C91.4411 70.4606 92.9671 70.1795 94.453 69.6574C94.5735 69.5369 94.7743 69.4566 94.9349 69.4968C95.1758 69.4566 95.457 69.6574 95.5373 69.8582C97.1035 71.1834 98.7098 72.5087 100.276 73.7938C100.276 73.7938 100.276 73.8339 100.316 73.8339C100.397 73.8339 100.477 73.8339 100.557 73.8339C100.878 73.8741 101.159 74.0749 101.159 74.4363C101.159 74.7174 100.878 75.0788 100.557 75.0387C98.7098 74.8379 96.8626 75.1591 95.2161 76.0426C94.935 76.2033 94.6939 76.123 94.5333 75.9222C94.4931 75.9623 94.453 76.0025 94.3727 76.0426C93.4089 80.8215 92.2845 85.5602 90.9994 90.2588C94.0515 90.821 96.7421 92.7486 98.228 95.5196C100.276 99.3347 99.8343 103.792 98.2681 107.728C97.987 109.374 97.5051 110.981 96.8625 112.547C96.0192 114.595 94.935 116.523 93.6097 118.29C95.698 120.016 97.3846 121.944 98.9107 124.032ZM98.6697 73.8339C97.4247 72.7898 96.22 71.7858 94.9751 70.7417C93.6097 71.2236 92.2042 71.5047 90.7986 71.585C92.0837 72.7496 93.4089 73.8741 94.694 75.0387C94.7342 74.9985 94.7743 74.9985 94.8145 74.9584C95.9791 74.3158 97.3043 73.9544 98.6697 73.8339ZM87.5457 86.8453C88.3891 87.7288 89.2725 88.6123 90.1159 89.4958C91.3608 84.8775 92.4451 80.2593 93.4089 75.5607C93.4089 75.5206 93.4089 75.5206 93.449 75.4804C92.4049 74.5568 91.3608 73.6331 90.3166 72.7095C89.7946 77.4482 88.8308 82.1468 87.4654 86.7248C87.4654 86.765 87.5056 86.8052 87.5457 86.8453ZM95.4972 113.029C91.8026 118.129 86.1402 121.663 79.9558 122.747C79.1526 127.526 78.3092 132.345 77.5061 137.124C78.4699 138.128 79.3534 139.212 80.1566 140.377C80.8393 135.959 81.5219 131.542 82.2046 127.124C81.4818 127.406 81.1605 126.241 81.8833 125.96C82.0841 125.88 82.285 125.799 82.4456 125.719C82.5661 125.478 82.807 125.438 83.0078 125.478C84.3732 124.876 85.6984 124.113 86.9434 123.269C90.6781 120.699 93.6499 117.125 95.4972 113.029ZM93.0475 132.425C92.8868 132.144 92.4853 132.024 92.2042 132.225C91.9231 132.385 91.8026 132.747 92.0034 133.068C92.6861 134.152 93.3688 135.277 94.0916 136.361C94.2523 136.642 94.6538 136.763 94.9349 136.562C95.216 136.401 95.3365 136.04 95.1357 135.718C94.453 134.634 93.7703 133.51 93.0475 132.425ZM102.364 85.0382C101.521 83.6728 100.557 82.4279 99.4728 81.2633C98.9106 80.6609 98.3083 80.0987 97.7059 79.5364C97.1437 79.0545 96.5413 78.4522 95.8586 78.2514C95.1759 78.0907 94.453 78.412 94.2522 79.1349C94.0514 79.8175 94.3325 80.6207 94.5333 81.3034C94.9751 82.9098 95.5373 84.476 96.2601 86.002C97.0633 87.6887 97.987 89.3352 99.0713 90.8612C99.513 91.5037 100.557 90.9013 100.115 90.2588C98.0272 87.3674 96.5012 84.1145 95.6177 80.6609C95.5374 80.4199 95.2964 79.8175 95.4169 79.5364C95.5775 79.2553 96.0594 79.6971 96.22 79.8577C96.9027 80.3798 97.5051 80.9822 98.1075 81.5845C99.3524 82.8295 100.397 84.1948 101.32 85.6807C101.722 86.3232 102.766 85.7209 102.364 85.0382Z" fill="#121C25"/>
<path d="M118.942 112.467C119.665 112.226 119.987 113.391 119.264 113.632C115.449 114.917 111.352 116.644 107.256 116.041C106.574 115.961 105.77 115.76 105.369 115.158C105.047 114.676 105.168 114.074 105.409 113.592C106.132 112.226 107.698 111.263 108.983 110.459C110.67 109.375 112.477 108.411 114.324 107.568C115.609 107.006 117.055 106.243 118.501 106.162C119.264 106.122 119.264 107.327 118.501 107.367C118.461 107.367 118.3 107.407 118.38 107.367C118.461 107.367 118.26 107.367 118.26 107.407C118.139 107.447 117.979 107.447 117.858 107.488C117.537 107.568 117.175 107.688 116.854 107.809C116.011 108.09 115.208 108.451 114.445 108.853C112.718 109.656 111.071 110.58 109.465 111.584C108.822 112.026 108.18 112.467 107.577 112.989C107.096 113.391 106.734 113.752 106.453 114.234C106.373 114.355 106.413 114.315 106.413 114.274C106.413 114.315 106.373 114.355 106.373 114.395C106.292 114.596 106.373 114.435 106.373 114.395C106.373 114.435 106.373 114.475 106.373 114.515C106.373 114.475 106.373 114.515 106.373 114.515C106.292 114.435 106.493 114.596 106.373 114.556C106.413 114.596 106.453 114.636 106.533 114.636C106.614 114.676 106.574 114.676 106.574 114.676C106.694 114.716 106.814 114.756 106.975 114.796C107.658 114.957 108.341 114.997 109.023 114.957C112.477 114.917 115.77 113.552 118.942 112.467ZM83.0004 26.9293C83.402 27.853 83.8437 28.7766 84.2453 29.7003C84.3658 29.9814 84.8075 30.0617 85.0886 29.9011C85.3697 29.7003 85.45 29.379 85.2894 29.0577C84.8878 28.1341 84.4461 27.2104 84.0445 26.2868C83.9241 26.0057 83.4823 25.9254 83.2012 26.086C82.9201 26.2868 82.8799 26.608 83.0004 26.9293ZM85.9722 26.1261C85.8115 25.845 85.932 25.4836 86.173 25.2828C86.4541 25.1222 86.8556 25.2427 87.0162 25.4836C87.6588 26.5679 88.1005 27.8128 88.3013 29.0577C88.3415 29.379 88.221 29.7003 87.8997 29.7806C87.6186 29.8609 87.2171 29.6601 87.1769 29.379C87.0966 28.7766 86.9359 28.2144 86.7351 27.6522C86.695 27.4915 86.6147 27.3711 86.5746 27.2104C86.6147 27.2908 86.5344 27.1301 86.5344 27.1301C86.4942 27.0498 86.454 26.9695 86.4139 26.8892C86.2934 26.6482 86.1328 26.3671 85.9722 26.1261ZM80.2295 24.56C80.0688 24.8411 79.7074 24.9214 79.3861 24.7608C79.105 24.6001 79.0247 24.1985 79.1853 23.9174C79.6672 23.0741 80.3499 22.3914 81.1932 21.8693C81.4743 21.7087 81.8358 21.8292 82.0366 22.0701C82.1972 22.3512 82.0768 22.7127 81.8358 22.9135C81.6752 22.9938 81.5547 23.1142 81.394 23.2347C81.4342 23.1946 81.4744 23.1544 81.5145 23.1544C81.1531 23.4355 80.8319 23.7568 80.5508 24.1182C80.5909 24.0781 80.6311 24.0379 80.6311 23.9977C80.4704 24.1985 80.3499 24.3993 80.2295 24.56ZM85.4902 20.9457C85.5705 21.267 85.4099 21.5882 85.0886 21.6685C84.8075 21.7489 84.406 21.5481 84.3658 21.267C84.2453 20.7449 84.6469 20.3835 85.1288 20.3835C85.3698 20.3835 85.6509 20.4236 85.932 20.4638C86.4942 20.5441 87.0966 20.6244 87.6588 20.7449C87.9801 20.8252 88.1407 21.1866 88.0604 21.4678C87.9801 21.789 87.6186 21.9497 87.3375 21.8693C86.9359 21.789 86.5343 21.7087 86.0926 21.6284C86.0524 21.6284 86.0525 21.6284 86.1328 21.6284C86.0926 21.6284 86.0525 21.6284 86.0525 21.6284C86.0123 21.6284 85.9721 21.6284 85.8918 21.6284C85.8115 21.6284 85.691 21.5882 85.6107 21.5882C85.4902 21.5882 85.4099 21.5882 85.2894 21.5481C85.2492 21.5481 85.2092 21.5481 85.169 21.5481C85.1288 21.5481 85.169 21.5481 85.2493 21.5481C85.4099 21.5079 85.4903 21.3874 85.5706 21.2268C85.4903 21.1063 85.4902 21.026 85.4902 20.9457C85.4902 20.9055 85.4902 20.9055 85.4902 20.9457ZM165.406 155.317C163.197 155.397 161.069 154.554 159.382 153.108C157.695 151.622 156.732 149.574 156.491 147.365C156.049 143.309 157.776 139.333 157.294 135.318C157.053 133.43 156.21 131.824 154.804 130.539C153.479 129.294 151.832 128.45 150.266 127.567C148.62 126.683 146.973 125.8 145.487 124.635C143.76 123.27 142.435 121.463 141.19 119.616C138.982 116.363 136.612 112.467 132.596 111.423C132.034 112.588 131.351 113.712 130.548 114.756C127.456 118.812 122.878 121.583 117.858 122.427C117.938 125.398 118.099 128.41 118.34 131.382C118.782 136.964 119.585 142.506 120.629 148.008C121.432 152.184 122.195 157.325 125.89 160.055C126.492 160.497 125.89 161.541 125.287 161.099C123.239 159.614 121.994 157.405 121.151 155.076C120.308 152.746 119.866 150.297 119.424 147.887C118.862 145.036 118.42 142.185 118.019 139.333C117.256 133.792 116.814 128.209 116.694 122.627C116.493 122.587 116.412 122.427 116.372 122.226C115.85 121.623 115.408 121.021 115.047 120.298C114.164 118.571 113.802 116.644 114.043 114.756C114.445 114.636 114.886 114.515 115.288 114.395C114.846 116.845 115.569 119.455 117.216 121.383C117.216 121.383 117.216 121.383 117.256 121.383C118.581 121.182 119.906 120.86 121.151 120.419C125.689 118.732 129.504 115.278 131.592 110.901C131.592 110.821 131.592 110.781 131.592 110.7C131.311 110.218 130.99 109.736 130.669 109.255C129.022 106.805 127.255 104.436 125.569 102.026C124.806 100.942 124.043 99.8575 123.32 98.733C122.637 97.6487 122.035 96.4841 121.272 95.44C119.545 93.0305 117.055 90.7816 114.204 89.8981C112.838 89.4564 111.272 89.6572 109.867 89.8178C108.3 90.0186 106.774 90.3399 105.248 90.7013C103.522 91.1029 101.714 91.5446 100.068 92.3076C99.3851 92.6289 98.7025 93.0706 98.3009 93.7132C97.9796 94.2754 97.8189 95.1188 98.2607 95.681C99.1843 96.966 101.433 96.0826 102.558 95.6408C104.124 95.0384 105.61 94.3156 107.256 94.1148C108.622 93.9541 110.148 94.1549 111.272 94.9983C111.593 95.2392 111.875 95.5203 112.075 95.8416C113.36 95.44 114.645 95.1187 115.971 94.9179C116.734 94.7975 117.055 95.9621 116.292 96.0826C113.842 96.444 111.433 97.207 109.184 98.2511C107.216 99.2149 105.329 100.38 103.682 101.825C102.839 102.548 102.036 103.311 101.313 104.114C100.63 104.837 99.8268 105.921 100.951 106.684C101.473 107.046 102.076 107.046 102.678 106.925C106.413 103.311 111.232 100.781 116.372 99.8575C117.135 99.6968 117.457 100.861 116.694 101.022C114.043 101.504 111.513 102.387 109.144 103.673C107.055 104.797 105.128 106.203 103.401 107.889C102.638 108.612 101.393 109.656 101.554 110.861C101.754 112.186 103.481 111.865 104.325 111.463C105.489 110.941 106.614 110.339 107.778 109.817C108.983 109.295 110.148 108.813 111.393 108.371C113.882 107.447 116.412 106.725 119.023 106.162C119.786 106.002 120.107 107.166 119.344 107.327C116.171 108.01 113.039 108.973 110.027 110.178C108.702 110.7 107.377 111.303 106.092 111.945C104.927 112.548 103.682 113.23 102.317 112.949C101.072 112.708 100.269 111.624 100.389 110.379C100.469 109.536 100.951 108.813 101.514 108.13C100.71 108.01 100.028 107.648 99.5056 106.845C98.7828 105.721 99.3851 104.516 100.188 103.592C100.991 102.669 101.875 101.785 102.799 100.982C105.208 98.9338 107.979 97.2873 110.951 96.203C110.067 95.2794 108.581 95.1187 107.337 95.2794C105.61 95.4802 104.003 96.4038 102.357 96.966C100.911 97.448 99.0638 97.8495 97.7386 96.8054C96.4937 95.8014 96.6543 93.914 97.578 92.7092C98.6221 91.3438 100.429 90.7816 101.995 90.2997C103.762 89.7375 105.57 89.3359 107.377 88.9745C108.943 88.6934 110.509 88.4122 112.115 88.3721C113.641 88.3319 115.007 88.6933 116.372 89.376C119.264 90.8218 121.593 93.2714 123.28 96.0424C124.685 98.4118 126.211 100.62 127.817 102.829C129.504 105.199 131.271 107.528 132.757 110.018C132.837 110.058 132.918 110.138 132.998 110.259C137.616 111.383 140.226 115.881 142.756 119.535C143.961 121.302 145.327 122.949 147.053 124.194C148.579 125.278 150.266 126.081 151.913 127.005C153.479 127.888 155.085 128.812 156.33 130.137C157.655 131.543 158.418 133.269 158.659 135.157C159.181 139.173 157.535 143.068 157.856 147.044C158.017 149.012 158.82 150.819 160.306 152.144C161.752 153.429 163.639 154.152 165.567 154.072C166.169 154.112 166.169 155.317 165.406 155.317ZM116.934 77.6096C118.742 79.1758 120.468 80.8223 122.155 82.5089C122.717 83.0711 123.561 82.1876 122.998 81.6656C117.135 75.8426 110.75 70.622 103.321 66.9675C101.273 65.9635 99.1442 65.0801 97.0158 64.2769C96.6142 58.5342 96.4134 52.7915 96.1724 47.089C96.1724 46.6472 96.1322 46.2055 96.1322 45.7637C99.9072 44.7999 103.722 43.796 107.497 42.8322C107.859 42.7518 108.26 42.6314 108.622 42.551C109.104 42.4306 109.144 41.8684 108.903 41.5471C105.931 37.8525 103.04 34.1579 100.108 30.4231C98.5418 28.4554 97.0157 26.4876 95.4496 24.5198C94.0039 22.7127 92.6385 20.7449 90.9518 19.1386C89.8675 18.0944 88.703 17.2109 87.3777 16.4881C88.2612 16.2873 89.225 15.966 90.1888 15.4038C92.759 13.8777 95.4094 7.53269 92.1566 3.11523C86.4139 11.1871 81.2334 5.28381 72.9607 9.21936C66.5755 12.2313 66.8165 24.1182 69.5874 29.9412C67.6598 29.8207 65.692 30.4633 64.3266 31.8287C62.0375 34.1177 61.7564 38.0533 63.7242 40.6234C64.7683 42.029 66.4148 42.8723 68.1417 43.1534C65.4912 49.4583 62.5998 55.6829 59.5879 61.8272C59.5879 61.8272 59.5879 61.8272 59.5478 61.8272C51.1948 65.5218 42.7614 69.0558 34.8903 73.7142C27.6216 78.0111 20.7946 83.2318 15.2125 89.617C12.1605 93.1108 9.51004 96.9259 7.42178 101.062C7.06036 101.745 8.10452 102.347 8.46595 101.665C12.1605 94.3156 17.6623 88.091 23.927 82.8302C30.6737 77.208 38.3038 72.8708 46.2151 69.0959C50.6727 66.9675 55.2106 65.0399 59.7485 63.032C59.7485 63.032 59.7485 63.032 59.7886 63.032C59.7083 63.2729 59.7887 63.5139 60.0698 63.6344C68.9449 67.4494 78.8239 68.7345 88.3817 67.329C91.0723 66.9274 93.7228 66.325 96.2929 65.5218C96.3732 65.4817 96.4536 65.4415 96.4937 65.4013C100.269 66.8069 103.963 68.4935 107.417 70.5818C110.79 72.5897 113.963 74.9993 116.934 77.6096ZM68.222 65.1202C65.6518 64.4777 63.1219 63.6343 60.6722 62.5902C60.6321 62.5902 60.5919 62.5501 60.5517 62.5501C63.6841 56.1648 66.6558 49.7394 69.3866 43.1936C70.4308 43.1534 71.4347 42.9125 72.3583 42.3904C72.6394 42.2298 72.76 41.8683 72.5993 41.5872C72.4387 41.3061 72.0773 41.1857 71.7961 41.3463C69.5473 42.6314 66.2944 41.9487 64.6881 39.9006C63.1219 37.8123 63.3227 34.5193 65.17 32.672C67.0173 30.8247 70.3103 30.6239 72.3985 32.1901C72.6796 32.3909 73.041 32.3507 73.2418 32.0696C73.4426 31.7885 73.4025 31.4271 73.1214 31.2263C72.9608 31.1058 72.8001 31.0255 72.6796 30.905L73.6836 30.9452C77.8601 28.375 77.1773 24.2788 78.2616 21.2268C79.8278 16.8495 82.1571 16.9298 84.9682 16.729C89.1447 18.0141 91.7549 21.7087 94.3251 24.9616C97.337 28.7365 100.269 32.5515 103.281 36.3666C104.646 38.0934 106.011 39.8203 107.377 41.5471C104.485 42.3101 101.554 43.0731 98.6623 43.8361C97.5378 44.1172 96.4134 44.3983 95.289 44.6795C95.048 44.7598 94.8472 45.0007 94.8472 45.2417C95.048 50.141 95.2488 55.0404 95.4898 59.9397C95.5701 61.3855 95.6503 62.8713 95.7306 64.3171C86.8957 67.1282 77.2577 67.4093 68.222 65.1202ZM73.4426 36.5674C73.6434 36.8083 73.6835 37.1698 73.4426 37.4107C73.2418 37.6115 72.8001 37.6517 72.5993 37.4107C71.3544 35.8446 69.4267 34.9209 67.4188 34.9611C66.6558 34.9611 66.6558 33.7563 67.4188 33.7563C69.7078 33.7161 71.9567 34.7603 73.4426 36.5674ZM79.9082 53.4742C79.5066 54.0766 78.8641 54.4782 78.1412 54.5987C76.7758 54.7994 75.4104 54.1569 74.6473 52.9923C73.7639 51.6671 73.6835 49.9402 73.6434 48.3741C73.6434 47.611 74.8481 47.611 74.8481 48.3741C74.8883 49.9001 74.8883 51.7474 76.0529 52.8317C76.4143 53.1931 77.0971 53.3939 77.579 53.434C77.6593 53.434 77.6994 53.434 77.7797 53.434C77.8199 53.434 77.8601 53.434 77.9002 53.434C77.9806 53.434 78.0609 53.3939 78.1412 53.3939L78.3018 53.3537C78.5829 53.2332 78.7034 53.1128 78.8239 52.912C78.9846 52.6309 79.3459 52.5104 79.6672 52.7112C79.9483 52.8317 80.0688 53.1931 79.9082 53.4742ZM62.4392 82.1475C61.1942 81.1837 59.5076 80.7419 58.0217 80.3002C56.4555 79.8183 54.8492 79.497 53.2429 79.2159C51.8373 78.9348 50.3915 78.6938 48.9458 78.6537C47.5804 78.6135 46.3356 78.8143 45.0906 79.3766C43.8056 79.9388 42.6409 80.7018 41.5566 81.6254C40.4322 82.5892 39.4282 83.7137 38.5448 84.9184C37.7014 86.0831 37.0588 87.3681 36.2958 88.5729C34.569 91.2635 32.6816 93.8738 30.9146 96.5243C30.5532 97.0865 30.1917 97.6487 29.8704 98.211C28.8263 97.8897 27.6216 97.8897 26.5774 98.0102C24.2081 98.2913 21.919 99.3354 20.2324 101.022C18.2244 102.99 17.4615 105.68 16.8591 108.371C16.2969 110.941 15.5338 113.351 14.2488 115.64C13.044 117.768 11.5983 119.736 10.0723 121.664C7.02024 125.519 3.60671 129.173 1.39799 133.631C0.875923 134.715 0.394058 135.84 0.0326303 136.964C-0.208322 137.687 0.95624 138.008 1.19719 137.285C4.12878 127.969 13.1244 122.226 16.6985 113.23C17.7024 110.7 17.9835 107.97 18.867 105.399C19.7103 103.07 21.2765 101.223 23.4853 100.098C24.5294 99.5764 25.6538 99.2551 26.8184 99.1346C27.5413 99.0543 28.4649 99.0543 29.1878 99.2149C28.3444 100.781 27.983 102.548 28.6657 104.275C29.3484 105.962 30.7138 107.247 32.2399 108.13C33.806 109.054 35.5329 109.616 37.34 109.937C39.2676 110.299 41.2354 110.5 43.2032 110.218C44.7292 110.018 46.3756 109.496 47.1387 108.17C47.3796 108.291 47.5805 108.451 47.7812 108.612C49.6687 110.218 50.9939 112.588 50.9939 115.118C50.9538 117.567 49.749 120.017 48.1426 121.824C46.7772 123.39 44.9702 124.435 43.2032 125.479C40.633 126.965 36.4967 128.932 37.0589 132.547C37.4605 134.956 39.7896 136.362 40.5125 138.651C41.396 141.422 39.3479 144.072 37.5006 145.919C36.4163 145.678 35.1312 145.839 34.2879 146.682C33.4847 147.486 33.284 148.851 34.2478 149.614C34.5289 149.855 34.81 149.855 35.0911 149.614C35.9746 148.891 36.9384 148.128 37.8219 147.325C37.862 147.365 37.9424 147.365 37.9826 147.405C40.111 148.61 38.6653 151.22 37.7818 152.746C37.3802 153.429 38.4243 154.031 38.8258 153.349C39.5889 152.064 40.4322 150.658 40.3117 149.092C40.2314 147.968 39.629 147.044 38.7455 146.442C39.7094 145.478 40.5527 144.393 41.1551 143.189C41.7574 141.944 42.1188 140.538 41.918 139.133C41.7172 137.687 40.8739 136.562 40.0306 135.438C39.0266 134.113 37.7416 132.426 38.5448 130.739C39.2676 129.254 40.9141 128.33 42.2393 127.487C43.926 126.483 45.6529 125.599 47.2191 124.394C49.2672 122.828 50.8333 120.7 51.6766 118.29C52.5199 115.881 52.3995 113.311 51.2349 111.022C50.6325 109.817 49.749 108.773 48.745 107.889C48.4639 107.648 48.1829 107.367 47.8214 107.207C47.6608 107.126 47.5403 107.046 47.3797 107.006C47.4198 106.604 47.3797 106.203 47.2994 105.841C48.9057 106.243 50.512 106.524 52.1585 106.443C53.3231 106.403 56.054 106.162 55.4516 104.275C55.2508 103.673 54.809 103.15 54.3672 102.749C53.7247 102.146 53.042 101.624 52.3192 101.143C52.1987 101.062 52.0381 100.982 51.9176 100.861C52.6003 101.143 53.2829 101.464 53.9656 101.785C55.1704 102.347 56.4154 103.231 57.8209 103.271C58.9855 103.311 60.1501 102.628 60.391 101.424C60.632 100.259 60.0297 99.2149 59.2667 98.3716C59.8289 98.2913 60.3911 98.0905 60.8328 97.6488C63.0014 95.681 60.0296 93.1108 58.5839 91.7856C56.8169 90.1792 54.8091 88.7737 52.6405 87.6894C51.7168 87.2476 50.7931 86.846 49.8695 86.4846C50.3514 85.9626 51.0341 85.6814 51.8373 85.561C53.283 85.3602 54.6885 85.8019 56.0138 86.324C57.4996 86.8862 58.9855 87.6492 60.632 87.7296C61.9974 87.8099 63.4431 87.2477 63.8447 85.8019C64.2865 84.3964 63.5234 82.9908 62.4392 82.1475ZM34.8903 148.289C34.8501 147.927 35.1312 147.526 35.4927 147.325C35.7336 147.164 36.0549 147.084 36.336 147.044C35.8541 147.486 35.3722 147.887 34.8903 148.289ZM59.7083 86.324C58.1823 85.9224 56.7367 85.1996 55.2508 84.7177C53.0822 84.035 50.1104 84.0751 48.6647 86.0429C47.4198 85.6413 46.0946 85.32 44.8095 85.1192C44.0465 84.9988 43.7252 86.1634 44.4883 86.2838C48.8655 86.9665 53.042 88.7737 56.4957 91.5044C57.339 92.1871 58.1824 92.91 58.9454 93.7132C59.5477 94.3156 60.873 95.44 60.3107 96.4038C59.869 97.207 58.9453 97.2471 58.102 97.1267C56.4957 95.5605 54.6484 94.1951 52.6806 93.0706C50.1104 91.6249 47.2994 90.5808 44.408 90.0587C43.6449 89.8981 43.3237 91.0627 44.0867 91.2234C48.7852 92.1068 53.2026 94.2754 56.6964 97.4881C57.1382 97.8897 57.5398 98.2913 57.9414 98.6929C58.3832 99.1748 58.9052 99.6567 59.106 100.299C59.5477 101.504 58.5036 102.227 57.3791 102.026C56.7366 101.906 56.1744 101.584 55.6122 101.303C55.05 101.022 54.4476 100.741 53.8853 100.46C52.6806 99.8976 51.4759 99.3755 50.231 98.9338C48.3033 98.1708 46.2954 97.5283 44.2875 97.0062C44.2473 97.0062 44.2071 96.966 44.1268 96.966C43.4842 96.7251 42.8417 96.5243 42.159 96.444C42.1189 96.444 42.0386 96.444 41.9984 96.444C41.9181 96.444 41.8378 96.4038 41.7574 96.3637C40.9944 96.203 40.6731 97.3676 41.4362 97.5283C42.2795 97.6889 43.0826 97.8897 43.926 98.1306C44.4882 98.3314 45.0906 98.5724 45.6528 98.8535C47.3395 99.6165 49.0262 100.5 50.5924 101.504C51.3152 101.946 51.9979 102.428 52.6806 102.95C52.9617 103.15 53.2428 103.391 53.4838 103.632C53.6444 103.793 53.9657 104.114 54.0058 104.195C54.0862 104.275 54.1263 104.395 54.2066 104.476C54.2066 104.476 54.2468 104.516 54.2468 104.556C54.2468 104.596 54.2869 104.636 54.2869 104.677C54.2869 104.677 54.2869 104.676 54.2869 104.717C54.2869 104.717 54.2869 104.757 54.2869 104.797L54.2468 104.837C54.2067 104.877 54.0861 104.917 54.0861 104.917C53.6845 105.078 53.2428 105.118 52.8011 105.158C48.986 105.52 45.2513 103.913 41.7574 102.709C41.0346 102.468 40.7133 103.632 41.4362 103.873C42.922 104.395 44.4481 104.917 45.9741 105.399C46.0143 105.48 46.0142 105.56 46.0544 105.64C46.215 106.243 46.2954 106.885 46.0544 107.488C46.0142 107.608 46.0143 107.688 46.0143 107.769C45.4119 108.572 44.1669 108.893 43.2433 109.014C41.5566 109.255 39.8298 109.134 38.1432 108.853C35.1714 108.371 31.7178 107.207 30.1114 104.436C29.0673 102.628 29.5492 100.701 30.6736 99.0945C32.3201 96.4038 34.1675 93.8337 35.9344 91.2234C36.6975 90.0989 37.4605 88.9343 38.1432 87.7296C38.866 86.4846 39.629 85.2799 40.5527 84.1956C41.4763 83.1515 42.4803 82.2278 43.6449 81.4648C44.7292 80.7821 45.934 80.0592 47.2191 79.8584C48.5443 79.6576 49.9499 79.8183 51.2349 80.0191C52.6405 80.2199 54.0058 80.501 55.4114 80.8223C57.0177 81.1837 58.6241 81.6254 60.1501 82.2278C61.3549 82.7097 62.7604 83.553 62.7202 85.0389C62.7604 86.6854 60.8328 86.6453 59.7083 86.324Z" fill="#121C25"/>
<path d="M24.6499 42.1098C24.0475 41.6681 24.6499 40.624 25.2523 41.0657C29.5091 44.2383 33.766 47.4509 38.063 50.6235C38.6653 51.0652 38.063 52.1094 37.4606 51.6676C33.2038 48.4549 28.9067 45.2824 24.6499 42.1098ZM37.7819 42.5516C40.0709 44.68 42.3599 46.8084 44.6891 48.9368C45.2514 49.4589 46.0946 48.6155 45.5324 48.0935C43.2434 45.9651 40.9543 43.8367 38.6251 41.7082C38.0629 41.1862 37.2196 42.0295 37.7819 42.5516ZM128.34 58.0528C132.195 55.2016 136.09 52.3503 139.945 49.499C140.548 49.0573 139.945 48.0132 139.343 48.4549C135.488 51.3062 131.593 54.1574 127.737 57.0087C127.095 57.4906 127.697 58.5347 128.34 58.0528ZM132.476 62.2293C134.323 61.386 136.171 60.5828 138.018 59.7395C138.299 59.619 138.379 59.1773 138.219 58.8962C138.058 58.5749 137.697 58.5347 137.375 58.6954C135.528 59.5387 133.681 60.3419 131.833 61.1852C131.552 61.3057 131.472 61.7474 131.633 62.0285C131.833 62.3097 132.195 62.3498 132.476 62.2293ZM29.3886 54.7598C30.3123 55.2016 31.236 55.6835 32.1597 56.1252C32.4408 56.2859 32.8423 56.2055 33.0029 55.9244C33.1636 55.6433 33.0832 55.2417 32.8021 55.0811C31.8785 54.6394 30.9549 54.1574 30.0312 53.7157C29.7501 53.5551 29.3485 53.6354 29.1879 53.9165C29.0272 54.1976 29.0674 54.5992 29.3886 54.7598Z" fill="#121C25"/>
</svg>
