<svg xmlns="http://www.w3.org/2000/svg" fill="none" viewBox="109.32 41.55 192.68 150.95">
<path d="M274.709 119.987C272.578 122.268 271.885 124.105 274.498 127.027C278.376 131.372 277.57 137.087 276.795 142.365C276.185 146.514 274.867 150.558 273.858 154.654C273.301 154.691 272.631 154.323 272.781 153.938C273.617 151.8 271.539 150.46 271.456 148.615C271.132 145.851 271.983 142.99 270.809 140.294C269.98 138.879 268.828 137.712 267.812 136.439C266.66 134.993 265.613 133.119 263.301 133.826C260.711 134.617 258.068 135.837 257.985 138.939C257.865 143.713 255.026 145.264 250.99 146.205C242.082 148.276 233.227 149.21 224.312 146.303C221.804 145.49 219.32 144.684 216.978 143.442C212.513 141.07 209.802 137.832 210.344 132.35C210.54 130.415 211.293 127.441 207.551 127.418C205.713 127.185 205.698 125.92 205.902 124.527C206.85 123.217 206.632 122.035 205.676 120.785C204.456 119.188 203.53 117.411 202.852 115.499C202.792 114.542 203.108 113.737 203.861 113.119C203.981 113.104 204.17 113.029 204.222 113.082C206.459 115.439 210.163 115.747 211.986 118.744C212.618 119.791 213.815 120.468 214.93 120.988C217.979 122.404 220.667 124.331 223.16 126.56C228.19 130.001 232.881 127.637 237.617 125.566C232.798 126.575 228.024 126.409 223.273 125.25C222.46 124.527 219.997 124.55 222.023 122.524C222.874 122.223 223.732 122.343 224.606 122.464C231.187 123.375 237.512 122.795 243.332 119.241C244.183 118.722 245.102 118.322 246.111 118.217C247.76 118.774 249.846 118.029 251.08 119.866C251.705 120.792 252.059 119.956 252.413 119.61C253.362 118.669 254.356 117.75 254.8 116.425C255.403 113.104 257.466 110.89 260.229 109.196C263.339 109.362 265.53 111.184 267.39 113.413C268.678 114.957 269.928 116.003 272.134 115.371C273.557 114.957 274.875 115.612 275.628 116.914C276.32 118.157 276.192 119.309 274.709 119.987Z" fill="#25303C"/>
<path d="M117.232 92.1183C117.985 89.5732 119.423 87.4196 121.095 85.4092C123.158 85.6426 122.329 87.1862 121.855 87.8338C117.842 93.308 118.76 99.1135 120.485 104.678C120.914 102.991 120.191 101.131 119.626 99.2565C119.212 97.8786 119.099 96.5383 120.191 95.3862C120.891 94.6483 121.674 93.8878 122.774 94.2341C123.866 94.5805 123.595 95.6422 123.617 96.478C123.753 101.147 124.972 105.597 126.064 110.099C126.637 112.486 127.894 115.536 123.775 116.899C125.921 117.893 126.501 120.046 127.736 121.718C128.963 123.375 129.904 123.397 131.102 121.567C132.291 119.753 132.803 117.283 135.356 116.613C139.573 118.435 140.19 119.474 139.324 123.322C139.241 123.691 139.046 124.112 139.264 124.406C141.847 127.953 139.076 129.18 136.207 130.626C137.683 130.513 138.421 129.828 139.166 129.233C141.222 127.614 143.368 127.207 145.845 128.276C147.69 129.075 149.7 129.346 151.673 129.715C154.798 130.302 157.787 130.814 160.664 128.645C161.823 127.772 163.57 127.787 165.046 127.772C168.013 127.749 170.739 127.162 173.284 125.596C174.654 124.752 176.115 124.361 177.132 126.213C177.29 128.879 176.333 131.386 176.047 133.992C175.859 135.746 174.571 136.921 173.058 137.613C161.334 143.035 149.565 144.232 137.766 137.817C137.329 137.576 136.952 137.162 136.47 137.064C129.302 135.663 124.86 131.123 122.269 124.165C120.635 126.424 122.164 129.135 120.161 130.739C119.709 130.663 119.363 130.43 119.114 130.046C118.278 127.132 117.955 124.24 119.513 121.439C120.025 120.912 120.5 120.348 121.049 119.873C122.442 118.668 121.14 117.592 120.831 116.553C120.327 114.873 119.295 116.191 118.482 116.342C115.447 116.906 112.127 118.503 110.545 114.053C110.214 113.164 110.026 111.432 111.027 111.899C114.732 113.616 113.836 110.679 113.761 109.279C113.61 106.711 112.292 103.82 116.9 104.143C117.337 104.173 116.027 102.856 116.637 102.035L116.554 101.945C117.631 98.7294 116.426 95.3561 117.232 92.1183Z" fill="#2A3643"/>
<path d="M168.69 67.1119C169.044 67.2173 169.458 67.5035 169.751 67.4131C177.364 65.1165 182.402 69.5591 187.409 74.0996C188.471 75.7562 189.796 77.2546 190.436 79.1672C190.707 79.9804 191.166 80.9216 190.263 81.5466C189.472 82.0963 188.892 81.2529 188.35 80.8388C186.867 79.6943 185.429 78.5045 183.742 78.1808C185.203 79.5888 187.371 80.3343 189.156 81.6671C190.202 82.4426 191.151 83.5194 190.602 84.8145C189.939 86.3807 188.666 85.191 187.703 84.9727C185.88 84.5661 184.141 83.8733 182.334 83.3989C179.465 80.771 178.531 76.7049 175.233 73.8737C175.339 75.6131 176.34 76.5016 177.101 77.4579C182.627 84.3628 185.331 92.0884 182.868 100.808C181.829 104.482 182.876 107.381 184.246 110.476C183.682 114.919 183.245 115.288 179.066 114.226C177.251 113.767 176.272 114.889 175.203 115.883C173.185 117.75 171.197 119.64 168.215 119.783C164.97 119.723 161.777 120.566 158.524 120.363C156.055 120.212 156.122 122.471 155.234 123.834C151.484 124.444 148.02 120.325 149.316 116.801C150.558 115.8 151.906 115.446 153.487 115.935C163.487 119.015 171.129 116.53 176.867 108.368C183.192 98.6167 181.144 85.6202 171.943 77.3073C171.491 76.9609 171.069 76.5845 170.647 76.2004C158.976 66.5623 143.871 71.1103 136.537 80.9819C132.11 86.9379 132.675 93.9106 134.399 100.778C134.79 102.133 135.197 103.481 135.905 104.716C137.998 109.038 141.575 111.877 145.528 114.339C146.326 114.859 147.042 115.431 147.23 116.44C146.898 119.316 145.227 119.557 142.953 118.608C142.493 118.413 143.006 118.736 142.629 118.42C138.533 115.047 134.693 111.402 131.221 107.381C131.47 105.363 131.116 103.458 130.476 101.501C129.505 98.5339 128.706 95.4692 129.843 92.3067C129.994 91.8474 129.053 92.0582 129.52 92.2389C129.73 92.3218 129.761 92.3971 129.746 92.4874C129.648 93.2931 129.459 94.1063 128.405 93.5868C126.621 92.7133 128.488 94.4377 127.848 94.3473C127.743 94.9798 127.645 95.7177 126.982 95.8834C125.95 96.1394 125.664 95.1756 125.664 94.5355C125.657 90.8986 122.908 86.4937 128.39 84.3251C129.693 80.0105 133.533 77.0588 134.632 72.6388C135.649 71.5922 137.441 71.9762 138.329 70.6359C137.772 69.6194 136.846 70.3949 136.138 70.1615C136.214 69.1977 137.027 68.7911 137.697 68.9191C141.206 69.5817 143.834 67.4809 146.823 66.3439C152.99 63.9946 159.27 64.3635 165.474 66.3815C166.544 66.7053 167.485 67.4432 168.69 67.1119Z" fill="#404A54"/>
<path d="M212.734 71.2227C211.793 71.1926 211.055 70.8312 210.596 69.9728C207.516 64.1598 203.676 58.7232 201.522 52.4509C200.837 50.4705 199.58 48.2794 201.598 46.2388C204.504 43.8142 208.149 44.7328 211.447 44.0702C212.636 44.0175 213.834 43.9648 215.023 43.9196C216.115 43.513 217.169 43.528 218.269 43.9798C217.93 45.8171 216.364 45.9903 215.219 46.6002C211.146 48.7839 209.963 51.5548 211.356 55.8694C212.373 59.0018 217.794 62.6689 221.107 62.3225C224.835 61.9309 228.554 61.4264 232.274 60.9596C236.589 60.4099 241.009 55.6134 241.468 51.2386C241.777 48.2944 240.211 46.5249 236.596 45.7719C234.669 45.3728 232.485 45.3277 232.515 42.504C232.937 42.4739 233.366 42.4362 233.788 42.4061C237.379 42.0823 240.964 41.8338 244.548 42.519C247.484 43.3699 248.697 45.4632 248.576 48.3622C248.411 52.4509 248.32 56.5471 247.462 60.568C247.108 61.1328 247.198 61.7728 247.183 62.3902C247.093 67.2395 247.093 67.2395 251.513 68.3463C250.549 69.7469 249.013 70.3869 247.914 71.5089C246.859 71.7573 245.896 71.4185 245.022 70.9366C235.851 65.8841 226.8 66.4865 217.817 71.4562C216.138 72.3823 214.361 72.9847 212.734 71.2227Z" fill="#1C222C"/>
<path d="M272.393 148.584C272.882 150.602 273.372 152.628 273.854 154.646C272.22 160.127 271.105 165.73 270.074 171.354C269.403 174.991 267.084 177.491 264.117 179.487C263.869 180.059 263.771 180.744 263.289 181.151C259.389 184.419 254.909 186.994 251.618 191C251.061 191.685 249.992 191.542 249.103 191.557C240.572 192.332 232.59 188.929 224.247 188.281C223.735 188.342 224.262 189.004 224.142 188.522C224.089 188.311 224.164 188.206 224.375 188.229C228.132 188.643 231.747 189.772 236.046 189.998C234.465 192.076 232.741 191.376 231.272 191.572C226.468 191.768 221.898 190.849 217.651 188.598C216.454 187.965 214.782 187.438 215.415 185.42C221.145 184.411 226.694 185.428 232.191 186.949C236.257 187.461 240.346 187.852 244.367 188.658C247.379 189.26 249.969 188.643 251.467 185.917C253.455 182.303 257.973 182.333 260.307 179.351C262.589 177.002 265.676 175.202 265.879 170.903C261.121 172.943 257.649 176.098 254.532 179.728C253.101 181.663 251.046 182.386 248.787 182.837C243.072 183.989 237.274 184.818 231.739 186.768C226.34 185.239 220.896 184.321 215.287 185.518C210.219 185.729 205.867 184.132 202.35 180.42C199.692 178.869 196.989 177.401 194.399 175.752C192.253 174.381 190.649 172.589 191.169 169.728C189.617 168.041 190.145 165.963 190.077 163.998C190.197 151.528 193.638 139.684 197.034 127.839C197.494 126.228 198.495 124.963 200.114 124.308C202.403 124.18 202.004 125.46 201.115 126.567C199.798 128.201 199.421 130.113 199.188 132.169C199.353 128.088 201.266 125.377 205.219 124.293C205.611 124.27 205.934 124.406 206.206 124.685C206.921 125.249 206.13 126.409 207.064 126.891C207.094 127.418 206.951 127.945 206.499 128.178C201.981 130.528 200.995 134.812 200.204 139.3C199.737 141.935 199.482 144.759 197.049 146.581C194.361 145.211 197.192 143.321 196.507 142.078C195.558 144.157 196.236 146.272 197.079 148.682C198.171 151.807 196.944 155.338 197.757 158.636C200.777 166.761 206.198 172.642 214.142 176.173C215.746 176.889 217.177 177.905 218.562 178.99C219.533 179.856 220.452 180.789 221.717 181.249C227.929 181.61 234.126 181.73 240.316 181.143C243.305 180.42 246.49 180.503 249.261 178.914C254.713 174.939 259.517 170.142 265.307 166.58C267.566 165.195 268.033 162.507 268.47 159.992C269.132 156.174 269.863 152.364 271.384 148.757C271.67 148.456 272.009 148.396 272.393 148.584Z" fill="#3F4551"/>
<path d="M232.528 42.4892C233.334 44.1231 234.629 44.6954 236.459 44.8008C241.451 45.0794 243.665 48.4528 242.167 53.2192C240.585 58.2566 235.939 61.7279 230.503 62.0968C227.898 62.27 225.292 62.5336 222.725 62.9853C215.729 64.2202 209.909 59.3259 209.924 52.2629C209.931 49.4618 210.79 47.4212 213.516 46.3369C214.886 45.7948 216.189 45.0794 217.8 44.3039C216.663 44.1457 215.85 44.0253 215.029 43.9123C220.789 42.5419 226.64 42.2859 232.528 42.4892Z" fill="#303F49"/>
<path d="M215.203 185.503C217.063 188.402 220.285 188.749 223.169 189.63C225.684 190.398 228.275 190.88 230.933 190.91C237.295 190.571 243.65 191.648 250.013 190.978C254.298 186.625 259.297 183.162 264.124 179.479C266.767 181.949 270.268 181.181 273.348 181.633C276.24 182.055 278.943 182.83 281.631 183.794C282.798 184.216 284.176 184.863 284.161 186.249C284.146 187.74 282.813 188.786 281.533 189.11C278.529 189.856 275.456 190.405 272.377 190.782C256.203 192.777 239.946 192.694 223.711 192.19C212.658 191.851 201.551 191.346 190.731 188.598C190.008 188.417 189.255 188.297 188.585 187.988C187.448 187.476 186.108 186.911 186.175 185.451C186.236 184.11 187.636 183.802 188.653 183.485C191.378 182.627 194.097 181.648 197.041 181.784C198.938 181.866 200.761 181.58 202.342 180.413C206.333 182.906 210.881 183.997 215.248 185.564L215.203 185.503Z" fill="#C1CEE1"/>
<path d="M168.691 67.1119C168.894 68.5275 168.736 69.2203 167.027 68.3845C159 64.469 151.101 64.5217 143.39 69.3106C142.246 70.0185 141.147 70.6961 139.626 69.77C138.602 69.145 137.231 69.1826 136.177 70.1465C134.061 70.2142 134.309 68.3845 134.053 67.2324C132.796 61.6227 131.667 55.9904 130.56 50.3506C129.822 46.6007 131.441 44.3794 135.258 44.0029C137.239 43.8071 139.249 43.9351 141.252 43.9201C142.833 43.4382 144.377 43.634 146.026 43.8448C145.664 45.8628 144.091 46.4049 143.059 47.3913C140.386 49.9515 139.43 53.8896 140.808 57.0069C141.854 59.3788 146.41 62.0218 149.294 61.5775C152.291 61.1182 155.288 61.073 158.292 61.0806C160.867 61.0881 162.561 59.8833 163.548 57.5717C163.947 56.653 164.323 55.7193 164.7 54.7931C166.959 49.2437 166.959 49.2437 162.147 45.8854C160.942 45.0496 159.851 44.1836 161.025 42.5497C161.236 42.4442 161.462 42.384 161.703 42.3915C165.506 41.9924 169.316 41.9623 173.118 42.4141C175.106 43.5285 175.867 45.027 175.091 47.3462C172.885 53.9122 170.814 60.5233 168.691 67.1119Z" fill="#1C222B"/>
<path d="M161.017 42.5496C160.776 44.3191 161.974 44.8537 163.314 45.441C167.877 47.4515 168.178 48.2873 166.378 53.0311C166.115 53.7314 165.889 54.4392 165.595 55.1244C162.666 62.0593 162.666 62.0593 155.28 62.0744C153.412 62.0819 151.59 62.1196 149.73 62.6165C147.042 63.3319 140.913 60.207 139.919 57.9104C138.209 53.9497 139.181 49.2586 142.268 46.6608C143.194 45.8853 144.166 45.1624 145.34 44.2438C143.812 44.1158 142.524 44.0103 141.236 43.9049C147.787 42.8056 154.383 42.3914 161.017 42.5496Z" fill="#32424C"/>
<path d="M274.711 119.986C275.314 118.841 275.886 117.689 274.538 116.658C273.559 115.912 272.535 115.732 271.421 116.402C270.223 117.117 268.981 117.343 268.183 115.92C266.391 112.712 263.371 111.033 260.307 109.376C259.569 107.132 259.96 105.137 261.602 103.413C264.794 104.06 265.374 107.373 267.437 109.196C268.748 110.348 269.034 113.073 271.458 112.388C274.116 111.635 276.451 110.242 277.136 107.08C278.792 99.3993 277.655 92.4945 271.895 86.7492C271.451 86.3125 270.976 85.9059 270.743 85.2959C270.894 84.3171 271.601 84.1364 272.422 84.1138C274.259 84.7237 275.826 85.9285 277.851 86.1694C280.155 86.448 280.652 88.6919 281.684 90.3108C282.474 91.5608 283.084 92.9011 283.657 94.2564C284.876 97.562 285.501 100.966 285.434 104.505C285.321 110.182 289.771 116.417 295.049 118.367C296.585 118.932 297.082 118.45 297.376 117.102C297.835 115.031 297.963 112.893 298.505 110.845C298.792 109.775 298.355 108.164 300.23 108.028C300.538 110.001 300.855 111.974 301.163 113.939C301.532 116.5 301.6 119.052 301.126 121.605C299.68 125.362 296.028 125.558 293.265 125.136C286.932 124.157 280.471 123.209 274.711 119.986Z" fill="#1B1F28"/>
<path d="M182.756 83.2558C185.392 82.6535 187.568 84.3552 190.527 84.8296C188.283 80.5828 182.734 80.3644 180.972 75.4549C183.878 77.9925 187.899 77.6762 189.767 81.2002C189.932 78.4292 187.673 76.5995 187.402 74.0996C189.744 74.2954 189.48 78.4518 192.274 77.5558C194.352 76.8856 196.22 75.5302 198.147 74.4158C203.17 71.5168 204.292 71.8406 206.965 77.0287C208.749 79.0542 207.755 80.1159 205.639 80.7032C205.052 80.8689 204.382 80.6279 203.772 80.7559C200.022 81.5466 198.817 84.8748 201.257 87.6758C201.762 88.2556 202.213 88.8354 202.289 89.6261C200.361 96.6137 200.768 103.33 204.623 109.648C205.007 110.83 205.233 111.975 203.87 112.72C201.995 112.306 200.361 111.319 198.23 111.319C195.625 111.319 193.878 109.181 193.539 106.689C193.125 103.594 192.259 100.605 191.77 97.5474C191.017 92.8865 190.233 92.1335 185.497 92.4046C183.336 89.724 182.478 86.6593 182.756 83.2558Z" fill="#2C3541"/>
<path d="M300.23 108.029C298.92 110.89 299.032 114.037 298.46 117.042C297.926 119.865 297.429 120.814 294.296 119.097C289.688 116.567 286.194 113.239 284.613 108.352C283.596 105.227 285.027 101.711 283.83 98.4506C283.371 97.1856 283.25 95.7926 282.971 94.4523C282.083 92.5623 283.627 92.2912 284.756 91.9976C287.083 91.3876 289.229 90.4464 291.322 89.2793C293.897 87.8411 295.689 88.7597 297.316 91.094C300.094 95.0697 299.514 99.3768 299.07 102.878C299.078 104.226 299.831 103.721 299.341 103.842C299.221 103.872 299.093 103.752 299.161 103.556C299.62 102.306 298.197 100.559 300.185 99.7232C300.207 102.487 300.215 105.258 300.23 108.029Z" fill="#434D58"/>
<path d="M134.664 72.6311C136.147 73.7832 135.688 74.9578 134.611 76.0271C132.254 78.3688 130.891 81.3055 129.521 84.2572C129.107 85.1457 129.024 87.1185 127.27 85.3264C126.758 86.4559 125.696 87.6606 125.846 88.6998C126.148 90.8081 126.336 92.9014 126.441 95.0173C126.441 95.07 126.682 95.1754 126.682 95.1679C126.878 94.9043 127.059 94.6257 127.239 94.3546C129.754 96.1618 129.355 99.0608 129.98 101.583C129.754 105.431 131.193 108.729 133.241 111.877C134.272 113.458 136.019 114.791 135.455 117.072C133.301 118.563 132.51 121.04 131.275 123.156C130.259 124.903 129.348 125.566 128.12 123.676C126.261 120.792 123.392 118.495 122.338 115.069C124.039 114.203 123.994 116.583 125.139 115.837C126.012 115.273 125.621 114.233 125.621 113.405C125.636 109.354 123.512 105.762 123.158 101.734C122.955 99.4373 122.496 97.1633 122.835 94.6182C120.365 95.5895 119.393 97.0729 120.568 99.3093C122.134 102.291 121.313 105.183 120.455 108.112C119.055 101.388 115.681 94.6408 120.862 87.9694C121.321 87.382 122.458 86.3956 121.095 85.4393C122.27 83.8581 123.279 82.1112 124.649 80.7257C128.211 77.1415 129.86 73.1883 127.036 68.2563C128.881 68.2186 128.663 69.0996 128.828 69.7924C129.995 74.7244 130.003 74.7244 134.664 72.6311Z" fill="#5B6572"/>
<path d="M201.672 89.189C201.513 89.0008 201.37 88.7975 201.19 88.6394C199.782 87.4195 196.943 86.4256 198.396 84.2419C199.767 82.1712 201.107 78.9711 204.819 79.8219C207.492 80.4394 207.357 78.8129 206.973 77.0359C209.104 75.304 211.98 74.3176 212.74 71.2229C214.231 71.9307 215.745 71.6069 216.995 70.8615C226.829 64.9505 236.678 64.8301 246.617 70.5527C247.144 70.8539 247.784 70.9593 248.364 71.1551C248.628 71.4262 248.831 71.7349 248.989 72.0738C251.85 76.4335 255.487 80.2662 257.257 85.3639C260.05 93.4283 259.907 101.335 256.353 109.038C255.118 111.726 254.757 114.196 255.803 116.906C255.374 118.435 254.072 119.271 253.04 120.295C252.189 121.131 251.09 123.292 250.397 120.054C249.998 118.186 246.979 121.349 246.843 118.442C246.564 116.628 248.07 115.83 248.997 114.723C252.009 111.131 254.621 107.343 255.307 102.547C255.909 98.8046 255.788 95.0698 255.367 91.3275C253.763 77.1489 234.562 66.1252 220.549 74.5887C218.523 75.8085 216.603 77.2467 214.405 78.188C211.603 77.9395 209.766 79.5057 208.155 81.5086C207.229 82.6532 206.649 84.0914 205.293 84.8594C203.178 85.5371 204.345 88.9632 201.672 89.189Z" fill="#3D4750"/>
<path d="M300.191 99.716C298.715 101.501 300.056 103.827 298.791 106.681C298.791 103.345 298.625 100.981 298.828 98.6393C299.115 95.3713 296.788 93.1576 295.764 90.4242C295.365 89.3701 294.047 88.7677 292.91 89.5432C289.988 91.5311 286.781 92.7058 283.362 93.4362C283.174 93.4738 283.099 94.0913 282.978 94.4452C282.12 92.9693 281.148 91.5537 280.426 90.0176C279.537 88.1276 278.664 86.5464 276.103 86.8551C274.439 87.0584 273.747 85.191 272.391 84.6187C272.316 83.3387 270.863 81.7875 273.092 80.9442C274.334 84.6263 276.63 84.2724 279.522 82.8568C282.76 81.268 286.216 80.131 289.476 78.5798C291.939 77.4052 293.746 78.2033 294.86 80.2514C298.143 86.2979 300.959 92.5326 300.191 99.716Z" fill="#25303C"/>
<path d="M191.017 163.682C191.062 165.692 191.114 167.703 191.16 169.713C190.346 172.959 188.042 173.29 185.053 173.606C177.041 174.464 169.045 175.248 160.98 174.976C160.701 173.245 162.064 172.996 163.186 172.59C164.926 171.965 166.688 171.415 167.825 169.796C169.828 166.769 173.148 165.775 176.273 164.698C178.848 163.81 181.386 162.838 183.923 161.844C186.401 161.988 188.75 162.695 191.017 163.682Z" fill="#BECBDD"/>
<path d="M146.101 174.864C135.115 175.172 124.279 173.734 113.519 171.769C112.104 171.505 110.063 171.099 109.928 169.043C109.792 167.055 111.75 166.754 113.03 166.332C116.17 165.301 119.408 164.578 122.608 163.727C123.067 163.456 123.602 163.335 124.023 163.614C129.114 166.927 135.077 168.034 140.597 170.248C142.855 171.151 145.22 172.198 146.101 174.864Z" fill="#C5D1E1"/>
<path d="M273.083 80.944C271.893 81.9907 273.723 83.602 272.382 84.6186C271.765 84.6562 271.177 84.7541 270.884 85.4017C269.543 85.9664 268.557 85.1833 267.736 84.3701C267.051 83.6849 266.569 83.8731 265.959 84.3174C262.398 84.7014 260.801 81.3883 258.64 79.7468C255.214 77.1565 251.389 74.9879 248.34 71.8781C248.347 71.6296 248.347 71.3887 248.355 71.1402C246.743 68.3015 249.687 69.1749 251.412 68.2713C249.251 68.2713 247.91 68.2713 246.276 68.2713C247.255 65.666 246.035 62.9553 247.474 60.5608C247.496 61.0578 247.579 61.5623 247.541 62.0592C247.112 67.8798 247.105 67.8948 252.835 67.3527C253.799 67.2623 254.582 67.0741 255.636 67.6162C262.255 71.0423 268.429 74.9804 273.083 80.944Z" fill="#4C535E"/>
<path d="M146.101 174.863C139.392 168.772 129.581 169.254 122.601 163.727C119.709 160.903 116.343 158.396 115.861 153.908C116.298 153.486 116.803 153.456 117.345 153.674C120.055 157.68 122.729 161.724 127.337 163.877C129.859 164.932 132.043 167.341 135.198 165.782C136.711 165.203 137.351 167.326 138.805 166.934C139.671 166.791 140.416 167.025 141.034 167.642C142.833 168.704 145.25 167.228 146.854 169.065C146.771 170.052 146.109 170.24 144.874 170.187C152.607 171.731 159.933 173.131 167.094 169.487C167.787 169.449 168.201 169.803 168.404 170.436C167.569 172.326 165.761 172.808 164.052 173.357C162.915 173.726 161.628 173.726 160.98 174.984C156.01 176.091 151.056 175.36 146.101 174.863Z" fill="#4F5765"/>
<path d="M116.63 102.035C118.309 103.24 118.414 104.829 117.834 106.583C116.185 106.93 117.127 103.714 115.312 104.738C113.723 105.634 113.979 106.99 114.815 108.571C115.696 110.243 114.582 112.065 113.942 113.563C113.174 115.355 112.037 114.602 111.366 113.134C111.223 112.818 111.171 111.899 110.689 112.953C110.538 113.277 110.591 113.691 110.546 114.06C109.845 113.39 109.913 112.487 109.808 111.636C108.753 103.616 108.746 103.616 116.63 102.035Z" fill="#4D5867"/>
<path d="M117.234 153.893C116.782 153.901 116.323 153.908 115.871 153.916C115.811 152.944 115.743 151.981 115.683 151.009C115.329 145.174 115.344 139.338 115.675 133.495C116.119 129.783 114.982 125.815 117.497 122.441C119.139 122.682 118.853 123.985 118.71 124.971C118.326 127.539 118.469 130.114 118.363 132.689C118.341 133.563 118.28 134.436 118.07 135.287C117.196 138.931 117.814 142.629 117.663 146.296C117.061 148.803 119.169 151.461 117.234 153.893Z" fill="#232833"/>
<path d="M117.374 132.885C116.365 129.391 118.465 125.935 117.487 122.441C117.735 121.236 118.488 121.07 119.512 121.447C119.527 124.504 119.55 127.561 119.565 130.618C119.55 130.784 119.527 130.95 119.512 131.115C119.188 133.005 120.626 135.204 118.518 136.778C116.651 135.919 118.473 133.977 117.374 132.885Z" fill="#7F8490"/>
<path d="M115.673 133.494C115.673 139.33 115.681 145.166 115.681 151.009C114.747 145.173 114.634 139.338 115.673 133.494Z" fill="#8D9297"/>
<path d="M211.453 44.0706C208.17 44.7935 204.887 45.5164 201.604 46.2392C204.239 42.5647 208.064 44.3191 211.453 44.0706Z" fill="#303F49"/>
<path d="M173.112 42.414C169.309 42.4065 165.499 42.3989 161.696 42.3914C165.506 41.5405 169.309 41.0135 173.112 42.414Z" fill="#92969C"/>
<path d="M244.56 42.5119C240.976 42.4743 237.392 42.4366 233.8 42.399C237.399 41.7439 240.991 41.2018 244.56 42.5119Z" fill="#303F49"/>
<path d="M117.232 92.1184C116.848 95.3788 118.098 98.7597 116.547 101.945C116.968 98.6844 115.786 95.3111 117.232 92.1184Z" fill="#949A9D"/>
<path d="M301.133 121.613C301.148 119.06 301.155 116.5 301.17 113.947C302.097 116.507 302.458 119.06 301.133 121.613Z" fill="#898C94"/>
<path d="M255.969 102.826C255.427 109.497 250.909 113.834 246.827 118.428C239.222 123.766 230.849 124.956 221.896 123.028C220.059 122.644 218.207 122.298 217.077 120.536C217.642 112.562 221.896 110.551 228.176 112.976C233.741 115.122 239.298 113.857 243.665 109.309C244.516 107.532 242.588 107.6 241.971 106.824C241.165 105.815 239.275 104.919 240.284 103.601C241.346 102.208 242.671 103.88 243.816 104.445C244.26 104.663 244.636 105.002 245.013 105.318C245.495 105.687 245.856 106.214 246.421 106.493C248.635 99.7837 250.457 98.978 255.788 102.329C255.863 102.494 255.916 102.66 255.969 102.826Z" fill="#C9AB47"/>
<path d="M248.348 71.8855C251.819 73.7303 255.042 75.7935 258.144 78.3536C260.561 80.349 262.753 83.4814 266.405 83.9257C270.636 85.2509 273.633 87.7659 274.522 92.3139C274.205 94.3846 272.903 94.0985 271.909 93.1196C269.326 90.5971 265.923 90.1754 262.76 89.1589C261.179 88.8125 262.339 89.8743 262.369 90.1152C262.933 94.6105 263.626 99.0983 261.947 103.518C261.397 105.469 260.855 107.419 260.306 109.376C259.063 112.042 255.336 113.217 255.795 116.899C253.205 114.263 254.018 111.794 255.404 108.676C260.569 97.0953 258.784 86.2599 250.886 76.3883C249.801 75.033 248.25 73.911 248.348 71.8855Z" fill="#727D8C"/>
<path d="M203.17 115.514C198.517 116.545 194.759 113.586 190.55 112.652C189.165 112.344 187.892 111.041 186.454 112.479C184.489 111.99 184.353 110.235 183.864 108.722C182.659 102.999 184.361 97.6303 185.829 92.2314C186.07 90.605 187.101 90.4092 188.223 91.1772C189.737 92.2164 192.832 91.7495 192.523 94.5205C192.086 98.4812 194.488 101.832 194.285 105.785C194.112 109.211 196.958 111.101 200.249 110.145C202.801 109.399 202.282 112.351 203.848 112.547C204.036 112.66 204.119 112.795 204.089 112.953C204.059 113.119 204.021 113.202 203.968 113.202C203.705 113.978 203.441 114.746 203.17 115.514Z" fill="#191E26"/>
<path d="M203.974 113.21C203.967 112.984 203.921 112.765 203.854 112.554C204.426 111.816 204.238 111.056 203.914 110.288C203.778 107.366 201.572 105.153 201.248 102.246C200.766 97.8637 200.45 93.5717 202.717 89.5433C205.683 88.5945 206.301 89.1216 206.037 92.2917C205.668 96.659 205.119 101.041 206.354 105.363C206.685 105.431 206.971 105.582 207.227 105.8C208.68 110.672 211.67 114.505 215.382 117.84C216.285 118.623 216.767 119.715 217.453 120.656C219.034 121.266 220.608 121.891 221.903 123.043C221.692 124.339 223.002 124.068 223.522 124.61C223.936 125.604 223.522 126.296 222.723 126.854C218.853 123.54 213.469 122.418 210.201 118.224C209.599 117.449 208.974 116.696 208.372 115.943C207.272 116.636 208.959 117.923 207.747 118.232C206.64 118.51 206.429 117.411 206.158 116.575C205.729 115.25 205.269 113.955 203.974 113.21Z" fill="#52606D"/>
<path d="M222.718 126.846C222.981 126.101 223.252 125.348 223.516 124.602C228.335 124.964 233.162 125.762 237.936 124.218C238.764 123.947 239.419 124.173 239.758 124.994C240.104 125.829 239.841 126.5 238.93 126.688C234.577 127.622 230.579 130.167 225.775 129.135C224.186 128.796 223.463 127.983 222.718 126.846Z" fill="#838D98"/>
<path d="M273.093 138.035C271.128 136.168 269.177 134.3 267.205 132.448C265.714 131.04 265.925 130.167 267.988 129.835L267.943 129.79C268.711 131.281 270.202 132.109 271.203 133.337C272.265 134.632 274.268 135.761 273.093 138.035Z" fill="#ACB0B6"/>
<path d="M273.092 138.035C272.994 134.278 268.83 133.058 267.941 129.783C270.697 131.296 272.67 133.623 274.5 136.439C274.831 135.536 275.072 134.865 275.321 134.203C276.051 136.341 275.132 137.516 273.092 138.035Z" fill="#63686F"/>
<path d="M274.147 146.423C273.138 144.247 272.694 142.116 274.516 138.938C275.073 142.139 274.945 144.292 274.147 146.423Z" fill="#9EA4AE"/>
<path d="M269.214 128.247C269.153 128.924 268.687 129.097 268.107 129.127C266.157 127.99 264.605 126.522 263.461 123.698C266.157 125.016 266.985 127.554 269.214 128.247Z" fill="#63686F"/>
<path d="M271.834 148.781C271.781 145.731 271.729 142.674 271.684 139.624C273.287 142.501 272.135 145.603 272.399 148.585C272.218 148.675 272.03 148.743 271.834 148.781Z" fill="#A7AAAE"/>
<path d="M179.842 123.842C178.893 124.61 177.937 125.385 176.988 126.153C176.197 125.89 175.384 125.054 174.556 125.807C171.356 128.736 167.282 128.6 163.404 129.015C161.74 129.195 160.543 129.768 159.105 130.709C156.138 132.652 152.832 130.378 149.639 130.415C148.796 130.423 147.847 130.182 147.125 129.76C143.683 127.742 140.769 128.435 138.126 131.213C137.155 132.237 135.913 132.298 134.655 131.846C134.444 131.771 134.203 131.176 134.294 130.95C134.753 129.82 135.687 129.361 136.869 129.045C139.294 128.397 141.221 127.448 138.119 124.971C137.705 124.64 137.291 123.495 137.419 123.397C142.192 119.565 136.492 119.023 135.453 117.05C133.224 113.021 130.032 109.497 129.219 104.738C129.06 103.82 128.24 102.946 129.256 102.058C131.026 103.308 131.764 105.047 131.666 107.186C135.476 110.664 139.233 114.188 143.111 117.592C144.964 119.211 146.304 118.721 146.718 116.206C148.021 115.453 148.924 116.018 149.677 117.095C149.489 117.554 149.007 118.27 149.15 118.443C150.874 120.461 152.2 122.953 155.008 123.781C156.251 122.659 157.802 122.742 159.285 122.818C162.485 122.983 165.46 121.937 168.472 121.191C169.368 120.973 167.5 119.926 168.524 119.294C171.032 118.194 173.178 116.628 175.12 114.663C176.589 113.179 177.824 111.997 180.655 113.902C183.117 115.559 183.215 112.027 183.501 110.145C183.418 109.52 183.644 109.264 184.277 109.49C185.858 109.866 185.549 111.598 186.43 112.472C185.519 113.857 186.551 115.062 186.777 116.342C185.986 117.253 184.781 117.554 183.863 118.285C181.4 119.316 180.692 121.628 179.842 123.842Z" fill="#1D242E"/>
<path d="M120.236 130.521C120.244 133.066 120.251 135.604 120.259 138.149C118.203 135.777 119.333 133.141 119.619 130.574L119.574 130.626C119.792 130.589 120.011 130.559 120.236 130.521Z" fill="#7F8490"/>
<path d="M133.805 101.282C129.604 92.2768 132.721 80.6507 141.388 74.7549C150.717 68.4073 162.645 67.5338 171.342 75.7865C170.393 77.4054 169.301 78.9415 168.089 80.342C167.253 81.3059 166.01 83.2711 164.949 80.3722C164.881 80.1914 165.16 79.7171 164.444 79.9957C160.13 81.6899 155.431 79.7698 151.116 81.2908C149.776 81.7576 149.038 83.1732 149.038 84.762C147.314 85.8237 146.757 83.6401 145.559 83.738C145.605 83.8585 146.004 83.8886 146.26 84.1069C147.08 84.8148 148.684 85.4397 148.089 86.5843C147.246 88.1956 145.981 86.7725 145.19 86.4638C144.694 86.2379 144.806 86.2454 145.1 86.524C146.199 87.5481 148.985 88.0375 147.946 89.7393C146.915 91.441 144.837 89.6414 143.278 89.039C142.532 88.6851 141.96 88.5119 141.636 89.6414C140.936 92.0509 140.16 94.4228 140.145 96.9754C140.123 101.697 138.293 102.909 133.805 101.282Z" fill="#C7A848"/>
<path d="M149.685 117.102C148.698 116.809 147.712 116.508 146.725 116.214C146.228 115.777 145.731 115.34 145.234 114.911C145.362 113.465 146.462 112.728 147.448 111.922C148.148 111.41 148.962 111.033 149.474 110.288C151.951 106.696 155.287 105.906 159.338 107.163C162.124 108.029 164.962 108.036 167.809 107.404C167.929 106.229 166.875 106.267 166.431 105.755C166.115 105.559 165.798 105.371 165.535 105.115C164.865 104.467 163.577 103.88 164.164 102.841C164.812 101.689 166.099 102.193 167.139 102.607C167.703 102.833 168.23 103.157 168.742 103.488C171.461 105.333 174.503 106.508 177.53 107.72C177.733 107.923 177.801 108.134 177.741 108.345C177.673 108.556 177.613 108.661 177.545 108.661C173.946 116.899 162.35 119.64 155.844 118.352C153.803 117.938 152.177 115.581 149.685 117.102Z" fill="#CEB04C"/>
<path d="M177.539 108.654C177.547 108.42 177.539 108.195 177.531 107.961C174.407 106.726 171.538 105.009 168.646 103.33C168.322 103.134 168.006 102.924 167.705 102.705C166.719 101.99 165.039 101.305 165.642 99.987C166.41 98.3079 167.991 99.362 169.234 99.8364C171.154 101.124 173.172 102.253 175.882 104.023C173.669 101.606 171.952 100.032 169.821 98.9404C169.181 98.594 168.616 98.1799 168.33 97.4721C168.3 96.8772 168.601 96.5007 169.113 96.2598C169.813 95.3712 171.417 97.457 171.771 95.439C171.282 92.9617 172.577 89.7615 168.887 88.6095C168.488 88.489 168.865 88.8052 168.609 88.3836C167.818 87.1035 170.717 86.7872 169.482 85.846C167.088 84.0313 169.663 83.5946 169.934 82.6684C169.685 82.7738 170.25 82.3145 170.19 82.3522C168.481 83.4666 166.786 84.1819 167.901 81.042C168.578 79.1369 169.836 77.2244 172.117 76.5542C181.831 83.3009 184.64 99.9569 177.539 108.654Z" fill="#C7A848"/>
<path d="M172.117 76.5542C170.77 78.5571 168.676 80.0631 167.991 82.6308C168.345 82.5856 168.578 82.6157 168.759 82.5329C169.949 81.9907 170.822 79.3177 172.238 81.1851C173.134 82.3597 170.634 82.8793 169.798 83.8205C169.497 84.1593 169.226 84.5358 168.955 84.8822C170.107 85.8987 171.53 83.2407 172.14 85.1006C172.855 87.2842 170.009 86.6592 169.339 87.8941C172.69 88.7074 173.285 90.3488 172.276 95.9812C168.292 96.4254 166.809 95.3863 166.749 91.3578C166.696 87.9619 164 87.3445 161.937 86.3505C159.889 85.3641 157.397 83.5419 155.243 86.4409C154.889 86.9152 154.287 87.2164 154.031 86.8625C152.751 85.1006 150.424 86.23 149.016 84.9349C148.406 84.0163 147.796 83.0976 147.179 82.1639C148.112 81.1775 148.579 83.1353 149.566 82.3296C150.153 81.3507 148.308 80.1761 149.468 79.0014C151.162 78.6701 151.019 80.7483 152.171 81.1399C153.85 77.7665 156.968 79.777 159.159 79.7017C161.651 79.6113 163.94 80.4245 165.198 77.5707C167.073 78.6701 164.904 80.0255 165.92 81.1926C168.563 80.2514 168.315 76.2982 171.342 75.7937C171.598 76.0422 171.861 76.2982 172.117 76.5542Z" fill="#DBC883"/>
<path d="M147.545 112.577C146.77 113.352 146.002 114.128 145.234 114.903C140.866 112.697 137.471 109.527 135.385 105.039C137.553 100.8 142.636 99.038 146.198 101.297C146.913 101.967 147.613 102.66 148.283 103.383C150.693 107.261 150.527 109.354 147.545 112.577Z" fill="#F7F7ED"/>
<path d="M184.292 109.497C184.036 109.716 183.772 109.934 183.516 110.152C183.366 109.964 183.17 109.806 183.072 109.595C181.318 105.77 181.039 105.717 182.252 99.7463C184.029 90.9815 181.212 83.768 175.716 77.217C174.112 75.2969 174.119 75.2894 174.262 72.0139C178.75 74.687 180.166 79.4308 182.756 83.2635C183.78 86.2528 184.804 89.2497 185.821 92.239C186.634 98.1048 183.479 103.624 184.292 109.497Z" fill="#73808F"/>
<path d="M145.944 102.013C144.287 100.334 142.51 100.349 140.62 101.599C138.881 102.751 137.134 103.888 135.387 105.032C134.34 104.001 133.904 102.713 133.806 101.275C138.949 101.154 139.031 101.154 139.167 95.8683C139.235 93.1425 140.439 90.6727 140.628 87.9093C140.741 86.2151 142.698 87.6006 143.685 88.4364C144.046 89.355 144.905 89.596 145.718 89.9047C146.426 90.1683 147.48 90.5899 147.397 91.1998C146.892 94.7916 147.849 98.4736 146.621 101.998C146.554 102.171 146.192 102.133 145.944 102.013Z" fill="#DECA7C"/>
<path d="M168.539 119.294C169.984 120.943 169.683 121.718 167.5 122.471C163.396 123.879 159.239 123.962 155.015 123.781C154.217 120.024 155.949 118.684 159.458 119.331C162.507 119.903 165.512 117.584 168.539 119.294Z" fill="#818F9C"/>
<path d="M131.673 107.185C130.868 105.476 130.07 103.767 129.264 102.058C128.586 99.4823 127.908 96.9071 127.238 94.3319C127.238 93.3455 127.238 92.3591 127.238 91.3351C128.481 91.4028 127.728 92.9314 128.917 93.1046C129.881 92.3742 128.692 90.7402 130.032 89.927C130.107 94.5729 130.326 99.0833 132.155 103.383C132.637 104.527 132.916 106.063 131.673 107.185Z" fill="#99AABB"/>
<path d="M231.737 186.211C236.948 183.154 242.979 183.222 248.634 181.859C250.901 181.309 252.843 180.556 254.236 178.659C256.578 178.598 259.003 177.8 261.134 179.502C259.914 181.324 258.34 182.68 256.134 183.101C253.852 183.538 253.084 185.586 251.932 187.115C250.238 189.366 248.085 190.247 245.419 189.855C241.112 189.215 236.82 188.455 232.528 187.74C232.008 187.356 231.263 187.092 231.737 186.211Z" fill="#B2C3D9"/>
<path d="M218.199 179.54C219.622 178.433 221.173 177.966 223.041 177.996C229.908 178.101 236.783 178.019 243.658 178.041C245.879 178.049 248.115 178.147 249.915 179.75C247.151 181.527 243.959 181.437 240.879 181.859C234.072 182.296 227.258 182.401 220.451 181.814C219.464 181.294 218.764 180.488 218.199 179.54Z" fill="#D3DDEC"/>
<path d="M250.013 190.985C243.65 192.197 237.287 191.888 230.932 190.917C232.159 190.819 233.387 190.729 234.614 190.631C230.789 190.209 227.092 189.313 223.478 187.988C232.385 188.41 241.03 191.241 250.013 190.985Z" fill="#6A7583"/>
<path d="M231.738 186.211C232.001 186.723 232.265 187.227 232.521 187.74C226.911 185.729 220.978 186.218 215.202 185.503L215.247 185.556C216.354 182.883 218.681 184.2 220.428 184.163C223.251 184.095 226.105 184.825 228.899 184.6C230.578 184.456 230.299 186.64 231.738 186.211Z" fill="#B4C0CE"/>
<path d="M197.004 146.243C197.019 150.587 197.034 154.925 197.049 159.269C196.906 152.907 194.7 146.597 196.063 139.338C198.42 142.109 195.837 144.285 197.004 146.243Z" fill="#A5A9AE"/>
<path d="M200.828 124.376C202.537 122.064 203.93 124.805 205.504 124.67C202.101 126.454 199.187 128.623 199.48 133.992C197.297 129.564 200.873 127.373 200.828 124.376Z" fill="#A1A6AE"/>
<path d="M220.459 181.814C227.266 181.829 234.08 181.844 240.887 181.859C234.073 182.973 227.266 182.973 220.459 181.814Z" fill="#98A2B0"/>
<path d="M273.89 92.1935C272.58 88.3608 269.748 85.9061 266.398 83.9258C266.42 83.4438 265.464 82.1939 266.97 82.8113C268.385 83.3987 269.59 84.5131 270.885 85.4016C275.915 87.4497 277.241 92.1182 278.332 96.6436C279.003 99.4372 278.859 102.442 278.543 105.431C278.069 109.941 275.283 112.072 271.601 113.669C269.929 114.391 268.822 113.473 268.235 112.215C266.669 108.91 263.634 106.703 261.947 103.511C261.639 97.9011 262.625 92.186 260.366 86.7043C261.895 86.5687 261.812 88.037 262.625 88.4662C264.267 90.8833 264.041 93.7597 264.259 96.4177C264.545 99.904 266.292 101.583 269.44 102.329C271.616 102.841 273.897 103.112 275.644 104.731C276.457 105.905 275.998 107.012 275.923 107.298C275.825 103.887 276.811 99.633 274.989 95.4916C273.528 94.7612 274.854 93.1046 273.89 92.1935Z" fill="#25303C"/>
<path d="M203.02 89.9271C200.866 95.838 201.348 101.659 203.539 107.464C203.863 108.315 205.49 109.143 203.908 110.28C199.594 103.631 199.165 96.5608 201.665 89.1891C203.216 88.0145 202.583 85.3188 204.835 84.6411C205.716 86.9076 204.097 88.3307 203.02 89.9271Z" fill="#A9B4BE"/>
<path d="M213.77 77.9395C221.466 71.6897 229.937 68.3314 239.748 72.1491C252.526 77.1263 258.949 87.0732 255.967 102.826L255.749 102.585C253.957 100.649 251.585 100.747 249.318 100.996C247.782 101.161 246.427 101.146 245.132 100.288C243.716 97.7806 245.983 98.5787 246.977 98.2399C247.444 98.2474 247.925 98.2022 248.4 98.2775C247.895 98.1194 247.361 98.2474 246.849 98.1345C246.51 98.0517 246.201 97.9086 245.915 97.7053C244.929 94.5428 245.486 90.9284 243.091 88.18C243.031 88.1123 243.099 87.9466 243.121 87.8186C243.536 85.8985 243.144 85.1455 241.269 83.9709C239.402 82.7962 241.201 81.6366 241.344 80.477C240.908 81.3279 240.388 82.0658 239.244 81.8324C235.795 80.7782 232.188 80.5975 228.649 80.5147C226.503 80.4695 225.404 79.9349 224.937 77.9545C225.871 81.8399 225.863 81.8701 222.309 81.0644C220.178 80.5825 219.094 81.1849 219.5 83.504C219.689 84.5808 220.336 86.1846 218.341 85.5898C215.698 84.8067 212.573 85.1004 210.6 82.5628C210.525 80.2361 211.677 78.7602 213.77 77.9395Z" fill="#C9AB47"/>
<path d="M213.772 77.9398C212.793 79.4609 211.814 80.9894 210.835 82.5104C211.054 83.7227 210.383 84.664 209.864 85.6353C207.01 90.9288 205.768 96.5159 206.784 102.51C206.972 103.624 207.078 104.738 206.272 105.695C205.843 106.997 205.602 106.719 205.316 105.619C204.134 101.124 204.45 96.6063 205.128 92.1034C205.414 90.1984 205.798 88.6473 203.012 89.9273C203.622 88.1653 204.224 86.3958 204.834 84.6339C206.453 82.8041 207.311 80.3494 209.352 78.8961C210.647 77.9775 211.874 76.2381 213.772 77.9398Z" fill="#2C3541"/>
<path d="M179.842 123.842C178.645 122.072 180.52 118.955 183.486 117.773C184.187 118.24 184.232 118.947 184.209 119.685C183.23 123.631 186.212 125.047 188.629 126.952C189.074 126.153 188.72 125.581 188.592 124.986C187.974 122.878 186.272 120.845 188.117 118.556C191.543 122.908 192.417 127.915 192.033 133.299C191.732 137.531 191.393 141.785 191.453 146.017C191.551 152.598 188.629 157.733 184.405 162.379C181.084 164.653 177.041 165.165 173.449 166.807C171.469 167.71 169.752 168.757 168.419 170.444C168.201 170.195 167.983 169.947 167.764 169.691C162.418 168.87 157.147 170.685 151.808 170.113C150.107 169.932 148.292 170.384 146.831 169.073C144.791 168.96 142.758 168.847 140.717 168.719C140.687 168.719 140.642 168.509 140.664 168.411C140.694 168.298 140.792 168.207 140.868 168.11C145.762 166.28 150.973 167.289 155.98 166.423C157.682 166.129 159.496 166.174 161.213 166.408C166.017 167.063 170.264 165.196 174.616 163.75C179.895 161.114 183.11 156.13 187.485 152.47C189.239 149.345 189.826 145.949 189.924 142.44C189.819 141.921 189.217 142.636 189.676 142.433C189.902 142.327 190.022 142.395 189.992 142.621C189.668 144.895 189.608 147.222 188.825 149.586C187.394 148.893 187.748 147.967 188.012 147.064C188.08 143.442 187.786 139.767 188.298 136.206C189.292 129.293 184.495 126.696 179.842 123.842Z" fill="#3A404A"/>
<path d="M174.602 163.742C171.929 166.189 168.879 167.349 165.159 167.379C157.057 167.447 148.955 167.838 140.853 168.102C140.047 167.884 139.242 167.673 138.428 167.454C137.178 166.498 135.575 165.843 135.379 163.961C135.703 163.366 136.207 163.012 136.885 163.012C148.752 162.952 160.626 161.784 172.493 163.019C173.216 163.095 173.901 163.494 174.602 163.742Z" fill="#B8C9DD"/>
<path d="M146.817 169.066C152.765 168.81 158.706 168.501 164.655 168.358C165.717 168.335 167.592 167.266 167.75 169.683C160.069 174.886 152.216 172.544 144.279 170.037C145.13 169.721 145.974 169.389 146.817 169.066Z" fill="#A7BAD0"/>
<path d="M127.18 164.42C128.49 164.149 130.192 164.872 130.884 162.997C132.978 163.102 134.822 163.576 135.41 165.971C134.853 168.275 133.181 167.417 131.916 167.033C130.184 166.513 128.512 165.737 127.18 164.42Z" fill="#B0BCCD"/>
<path d="M135.409 165.971C134.121 164.638 132.728 163.478 130.883 162.996C130.017 162.221 129.159 161.438 128.293 160.662C130.981 161.076 133.044 162.816 135.386 163.968C136.403 165.135 137.419 166.294 138.436 167.462C136.779 168.267 136.606 166.076 135.409 165.971Z" fill="#3A404A"/>
<path d="M117.226 135.001C116.985 138.811 117.933 142.681 116.744 146.454C116.714 142.621 116.028 138.773 117.226 135.001Z" fill="#A9ABB1"/>
<path d="M126.026 158.472C121.922 156.838 119.279 154.014 119.038 149.443C118.82 145.227 118.789 140.995 118.669 136.771C118.918 135.295 118.933 133.812 118.549 132.358C118.278 131.357 118.36 130.634 119.61 130.566C119.851 133.089 118.963 135.709 120.25 138.141C120.303 140.498 120.589 142.87 120.371 145.204C119.866 150.701 121.463 155.189 126.026 158.472Z" fill="#40424B"/>
<path d="M246.149 97.3893C246.368 97.427 246.586 97.4646 246.812 97.5023C247.249 97.8712 248.047 98.0595 247.535 98.9104C245.472 98.9631 245.472 98.9631 245.298 99.7462C245.321 101.794 247.934 104.144 244.576 105.793C243.303 105.077 242.031 104.362 240.351 103.413C241.36 105.951 243.634 106.523 244.899 108.097C245.336 108.646 246.24 109.279 244.636 109.414C242.716 108.533 240.856 107.585 238.657 108.82C234.937 110.905 231.165 110.07 227.408 108.827C226.112 108.398 224.81 107.939 223.402 108.149C221.519 106.478 220.352 104.098 218.086 102.796C218.229 100.077 217.807 97.3065 217.144 94.7991C216.406 91.998 218.47 90.0703 218.296 87.6081C218.274 87.2693 219.087 87.1337 219.592 87.1111C223.1 88.6849 225.51 90.7405 225.043 95.2584C224.554 99.9269 226.579 102.457 229.96 102.562C234.84 102.72 239.094 99.1513 239.124 94.8367C239.132 93.6018 238.409 92.7133 237.46 92.0657C236.232 91.2375 234.983 90.5598 234.177 89.1442C233.567 88.0674 232.37 88.4288 231.18 88.7602C229.448 89.2345 227.347 90.4318 226.128 87.7888C226.203 86.6669 225.796 85.5675 225.849 84.4757C225.924 83.045 225.932 82.6459 228.13 82.8492C230.66 83.0751 233.514 85.6202 236.33 82.8492C238.183 81.0346 237.964 84.2121 239.079 84.4983C240.351 88.5568 244.35 91.2751 244.591 95.8683C244.636 96.4707 245.562 96.9376 246.149 97.3893Z" fill="#EDE2A8"/>
<path d="M223.545 108.051C224.486 106.463 226.173 107.201 226.964 107.615C231.03 109.768 235.148 109.527 239.049 107.818C241.722 106.643 243.236 107.238 244.629 109.414C240.359 114.791 232.874 116.349 226.436 113.209C223.598 111.824 220.676 112.803 219.261 115.785C218.515 117.343 218.041 119.022 217.446 120.649C216.264 120.551 215.714 119.655 215.112 118.819C214.6 117.69 214.66 116.538 215.428 115.619C217.815 112.758 220.014 109.685 223.545 108.051Z" fill="#D7C06A"/>
<path d="M244.576 105.793C246.956 104.031 243.432 101.568 245.299 99.7461C247.468 100.348 249.681 100.522 251.933 100.529C253.484 100.529 255.314 100.364 255.75 102.577C248.567 100.461 247.761 101.041 247.535 108.496C246.195 107.954 245.337 106.93 244.576 105.793Z" fill="#DDCA7C"/>
<path d="M275.442 104.98C272.347 103.797 268.906 103.775 265.947 102.118C264.591 101.358 263.371 100.507 263.432 98.775C263.552 95.3112 262.182 91.968 262.626 88.4817C266.286 89.0314 270.005 89.4229 272.588 92.6156C273.236 93.4137 273.793 93.3836 273.898 92.1939C275.178 92.8113 274.252 94.5432 275.434 95.2134C276.549 98.4662 276.707 101.727 275.442 104.98Z" fill="#384351"/>
<path d="M238.561 84.686C237.386 85.5444 237.386 85.5444 237.507 84.4601C237.559 84.0083 237.642 83.5566 237.845 82.2313C235.564 84.7387 233.968 87.0353 231.038 83.9105C229.329 82.0882 230.112 85.5068 228.719 85.5896C228.2 84.8216 227.605 83.9406 226.965 82.9918C225.61 84.5354 228.335 86.3351 226.498 87.698C225.662 88.0594 225.15 87.1784 224.367 87.1558C224.39 88.466 226.762 89.5428 225.474 90.5744C223.855 91.877 223.155 89.4449 221.98 88.7747C221.302 88.3907 221.077 87.1408 219.909 87.7055C218.524 87.7733 218.215 88.3756 218.825 89.6256C219.33 90.6722 220.339 91.9975 218.004 92.1857C217.402 92.2384 217.003 92.6225 217.477 93.1044C219.736 95.3558 217.372 98.5409 219.141 100.92C219.759 101.749 218.434 102.005 218.117 102.599C214.789 105.001 211.371 107.102 206.981 105.86C206.747 105.807 206.506 105.747 206.273 105.694C204.624 97.3437 205.159 89.4148 210.836 82.5024C213.351 84.0309 216.544 83.4813 219.292 85.1604C218.019 83.5716 217.432 82.0958 219.051 80.4317C221.265 78.1501 222.823 80.7781 224.759 81.0943C225.331 79.0085 222.695 77.4875 223.817 75.4394C224.811 75.0554 224.811 75.8159 225.075 76.3355C225.948 78.0372 225.625 81.3127 229.382 79.0462C230.286 78.4965 232.251 80.266 234.178 79.7691C235.127 79.5281 236.151 80.8383 237.732 79.7916C239.291 78.7601 239.156 80.7329 239.314 81.7494C240.285 83.0295 239.848 83.9632 238.561 84.686Z" fill="#D8BF6B"/>
<path d="M206.98 105.868C210.964 105.717 214.292 103.293 218.117 102.607C221.513 102.841 222.334 105.634 223.539 108.051C221.4 110.325 219.277 112.622 217.116 114.873C216.039 115.995 215.293 117.245 215.12 118.804C211.092 115.325 207.455 111.591 206.98 105.868Z" fill="#F8F4D6"/>
<path d="M188.004 147.056C188.11 147.41 188.132 147.816 188.328 148.118C188.674 148.645 188.674 148.313 188.727 147.929C189.051 145.625 189.412 143.329 190.052 141.085C190.211 145.106 190.798 149.232 187.477 152.462C187.477 150.64 187.236 148.803 188.004 147.056Z" fill="#838994"/>
<path d="M145.945 102.012C147.052 98.6464 145.493 95.0923 146.833 91.6136C147.315 90.3711 143.505 90.8455 143.678 88.451C145.011 88.9555 146.344 89.4525 147.684 89.957C147.752 89.7763 147.827 89.588 147.895 89.4073C146.118 88.0971 144.341 86.7869 142.082 85.1228C144.71 84.4226 145.757 86.6966 148.023 86.7267C146.818 84.6334 144.288 84.1289 143.407 81.6968C145.463 82.879 147.232 83.903 149.009 84.9271C151.11 84.0837 153.173 83.3985 154.295 87.5399C154.77 85.2057 153.663 81.7269 156.961 84.4301C157.194 84.6184 157.797 84.6711 158.023 84.5054C160.718 82.5552 161.825 85.5822 163.572 86.3879C164.084 86.6213 164.784 87.555 165.304 87.4571C168.399 86.8622 166.667 90.2205 168.195 90.838C166.064 95.3107 169.551 95.3484 172.269 95.9884C173.225 97.3212 173.21 97.4642 172.442 97.3739C171.381 97.2534 170.349 96.8995 169.302 96.6435C167.683 96.6284 166.147 96.1766 164.182 95.5215C165.959 96.2143 167.473 96.3423 168.557 97.4416C169.031 97.7278 169.513 98.0064 169.988 98.2925C170.688 99.3843 170.868 100.311 169.227 100.634C168.15 100.619 167.307 99.4069 165.801 100.16C167.021 101.101 168.12 101.944 169.212 102.795C169.626 103.571 169.182 103.932 168.534 104.181C167.269 103.744 166.2 102.743 164.272 102.795C165.342 103.744 166.102 104.429 166.863 105.107C166.546 107.14 165.048 106.297 164.016 106.146C159.755 105.529 155.59 104.068 151.178 104.881C149.687 105.152 148.784 103.691 147.428 103.496C146.939 102.999 146.442 102.509 145.945 102.012Z" fill="#F2E9BC"/>
<path d="M147.433 103.496C153.268 103.932 159.187 103.593 164.864 105.423C165.595 105.657 166.31 105.89 166.867 105.107C168.019 105.785 169.171 106.462 170.737 107.389C166.355 109.218 162.402 109.158 158.456 107.961C154.91 106.876 152.169 107.539 150.332 110.943C149.744 112.027 148.668 112.366 147.546 112.577C149.059 109.527 150.061 106.485 147.433 103.496Z" fill="#DFCD84"/>
<path d="M168.531 104.181C168.757 103.714 168.983 103.255 169.216 102.788C172.07 104.385 175.142 105.62 177.529 107.961C173.99 107.969 171.265 106.071 168.531 104.181Z" fill="#DFCD84"/>
<path d="M169.225 100.634C170.075 100.047 170.068 99.181 169.993 98.2925C172.831 99.6253 175.602 101.018 176.559 105.077C173.712 103.496 171.182 102.562 169.225 100.634Z" fill="#DFCD84"/>
<path d="M168.554 97.4421C167.101 97.1183 165.557 96.9752 163.991 95.1379C166.235 95.6951 167.899 95.5973 169.307 96.6439C169.059 96.9074 168.803 97.171 168.554 97.4421Z" fill="#DFCD84"/>
<path d="M275.442 104.979C275.442 101.719 275.435 98.466 275.435 95.2056C276.685 94.784 276.541 95.9887 276.7 96.4857C277.4 98.707 276.858 106.192 275.45 108.669C275.442 107.449 275.442 106.214 275.442 104.979Z" fill="#1B1F28"/>
<path d="M238.559 84.6861C238.807 83.7073 239.056 82.7208 239.304 81.742C240.938 81.117 240.802 78.8957 242.67 78.075C242.888 80.1005 241.345 81.358 241.013 83.2931C242.301 83.3458 243.762 81.4558 244.771 83.2103C245.418 84.3322 243.634 84.6861 243.581 85.8156C244.906 86.1545 245.298 84.5581 246.382 84.4301C246.977 85.3563 246.126 85.9813 245.667 86.2448C243.566 87.427 244.168 89.2417 245.125 90.3486C246.736 92.2235 246.969 93.8876 245.817 95.9658C245.644 96.2821 246.021 96.9146 246.141 97.3965C244.025 97.1254 242.723 96.4477 243.265 93.7972C243.476 92.7807 242.685 90.8832 241.827 90.4615C239.259 89.1965 239.485 86.6815 238.559 84.6861Z" fill="#DDCA7C"/>
<path d="M247.535 98.918C247.294 98.4512 247.053 97.9768 246.812 97.51C248.138 97.5024 249.508 97.2088 250.773 98.0822C249.9 99.6334 248.59 98.7147 247.535 98.918Z" fill="#DDCA7C"/>
<path d="M183.705 120.107C186.107 121.267 187.614 123.443 189.496 125.19C190.219 126.364 190.143 127.494 189.368 128.616C183.532 125.077 182.576 123.623 183.705 120.107Z" fill="#828790"/>
<path d="M219.917 87.7134C220.136 87.3971 218.509 85.9664 220.286 86.7721C222.101 87.5929 223.11 89.7765 225.218 90.6274C225.459 89.3247 224.382 89.0612 224.021 88.3684C223.652 87.6456 221.995 87.2766 223.08 86.1622C224.126 85.093 225.09 85.7255 225.76 86.8851C225.941 87.2013 226.25 87.4348 226.506 87.7058C227.944 87.8865 229.555 88.5642 230.775 88.135C232.868 87.3971 234.073 87.495 235.06 89.3097C235.383 89.9045 236.121 90.3187 236.724 90.7178C239.141 92.299 240.489 93.1424 239.48 97.2913C238.463 101.47 236.061 101.779 233.652 102.833C228.027 105.28 223.735 102.487 224.194 96.3726C224.495 92.2764 223.027 89.7615 219.917 87.7134Z" fill="#F8F4D2"/>
</svg>