<svg xmlns="http://www.w3.org/2000/svg" fill="none" viewBox="153 33 106.96 169.24">
<path d="M165.957 159.801C159.639 157.959 156.782 153.554 155.583 147.229C153.433 135.864 152.369 124.451 153.393 112.943C154.806 97.1174 158.631 81.8553 167.21 68.3472C175.234 55.7122 186.354 47.0216 201.885 45.339C203.449 44.3787 205.179 44.6803 206.87 44.7041C208.314 44.8073 209.663 45.3708 211.092 45.5851C211.489 45.6644 211.87 45.7914 212.251 45.9343C214.243 46.7835 216.298 47.5057 218.013 48.8946C223.997 52.101 230.037 55.2122 235.156 59.7916C235.521 61.1487 236.679 61.9186 237.497 62.9424C238.235 63.8789 238.418 64.9742 237.695 65.871C236.735 67.0774 235.791 66.0615 234.981 65.4821C233.148 64.1805 231.989 62.236 230.941 61.0614C231.164 61.2678 231.711 61.9821 231.973 62.8948C233.56 66.5932 234.418 70.7203 238.037 73.2282C242.235 76.387 242.902 81.4743 244.322 85.9347C244.727 87.2125 243.711 89.6649 244.354 91.6253C245.124 93.0221 243.767 95.4586 246.465 95.8952C246.83 95.9428 247.172 96.0618 247.497 96.2285C248.156 96.7602 248.283 97.411 247.934 98.173C247.259 98.9428 246.013 99.1095 245.719 100.284C245.672 106.538 245.537 112.784 245.695 119.022C245.719 119.824 244.703 121.983 247.251 121.165C248.711 118.332 247.386 114.887 249.267 112.173C251.783 111.752 251.807 113.546 251.6 115.102C251.386 116.8 251.283 118.491 251.259 120.181C251.259 121.237 251.211 122.38 252.791 122.213C253.87 122.102 254.481 121.332 254.275 120.332C253.775 117.975 254.418 115.372 252.775 113.276C252.037 111.951 250.751 111.562 249.386 111.316C248.553 110.975 247.838 110.475 247.195 109.848C246.584 109.197 245.87 108.61 245.83 107.61C246.394 104.34 247.878 104.903 249.664 106.673C250.83 107.665 252.18 108.284 253.696 108.538C254.029 108.625 254.354 108.745 254.672 108.871C258.759 109.371 259.045 109.721 259.164 114.316C258.108 116.483 257.537 118.586 258.727 120.991C259.378 122.316 259.783 123.967 258.648 125.419C256.688 127.332 254.148 126.729 251.823 126.999C249.894 127.753 249.719 129.594 250.299 130.927C251.029 132.626 252.553 131.213 253.719 130.959C254.481 130.792 255.227 130.515 256.021 130.459C257.053 130.38 258.013 130.57 258.886 131.142C259.14 132.086 259.132 132.991 258.489 133.8C254.989 136.872 250.703 136.396 246.545 136.443C244.648 136.626 242.275 135.189 241.14 138.023C240.505 139.158 240.116 140.38 239.854 141.65C239.156 143.919 238.394 146.15 237.124 147.467C240.822 147.38 245.005 148.467 249.029 147.142C251.759 146.808 252.815 147.832 251.791 150.547L251.846 150.515C250.068 151.999 247.791 151.213 245.83 151.864C243.489 152.364 241.116 152.427 238.806 151.785C236.672 151.189 234.933 151.523 233.521 153.261C230.116 156.547 226.703 159.824 222.473 162.086C222.108 162.301 221.727 162.467 221.322 162.586C213.87 164.872 206.227 164.364 198.631 164.007C191.56 163.666 184.56 162.412 177.488 162.102C173.488 161.943 169.861 160.229 165.957 159.801Z" fill="#FBA40B"/>
<path d="M253.95 109.268C252.069 109.538 250.656 108.578 249.283 107.506C248.212 104.483 246.505 101.57 247.696 98.165C247.696 97.411 247.577 96.7126 246.791 96.3475C245.085 95.0221 245.362 92.9348 244.815 91.1649C244.656 90.657 244.513 90.3078 244.656 90.8157C244.656 90.8237 244.481 90.8792 244.386 90.9348C244.196 91.2761 244.013 91.6094 243.608 91.6967C243.791 90.0062 240.243 88.1411 243.838 86.5776C243.934 86.5379 243.942 85.9427 243.862 85.9188C240.934 84.7522 242.759 81.8791 241.743 80.0775C240.45 77.7997 238.965 75.633 237.561 73.4187C234.37 70.6409 233.561 66.379 231.156 63.117C230.973 61.0535 228.751 60.1884 228.061 58.4186C228.354 58.1408 228.656 57.8709 228.949 57.5931C231.418 60.5376 233.894 63.4821 236.545 66.6488C238.537 63.0615 234.6 62.1408 235.164 59.7916C250.347 72.5298 256.164 89.8554 259.021 108.602C259.291 110.379 260.188 112.118 259.593 113.999C259.347 114.324 259.109 114.324 258.878 113.983C258.759 111.546 258.561 109.229 255.029 110.364C254.823 110.427 254.354 109.689 254.013 109.324C255.029 107.816 254.331 106.411 253.775 104.84C253.093 106.467 255.013 107.792 253.95 109.268Z" fill="#CA6809"/>
<path d="M245.204 151.237C247.291 149.856 249.624 150.713 251.847 150.523C247.021 159.586 238.95 164.61 229.64 167.824C225.315 169.317 220.83 170.682 216.1 170.404C213.481 168.602 211.068 169.063 208.806 171.094C201.386 169.793 193.759 169.571 186.584 166.959C186.552 162.61 187.235 162.094 191.83 162.872C198.235 163.951 204.727 163.697 211.172 163.769C213.624 163.793 215.822 163.824 217.886 165.197C218.346 165.507 218.481 165.436 218.402 164.65C218.33 163.983 218.664 163.69 219.116 163.428C220.18 162.793 222.346 164.118 222.346 161.594L222.33 161.57C224.354 160.412 226.521 159.499 228.188 157.769C229.497 156.412 231.283 156.61 232.965 156.555C235.95 156.451 238.95 156.777 241.902 155.991C243.22 155.642 244.529 155.467 244.251 153.618C244.561 151.983 245.791 151.832 247.029 151.777C246.537 151.475 245.688 151.927 245.204 151.237Z" fill="#984604"/>
<path d="M208.806 171.094C211.164 166.904 213.045 166.721 216.092 170.404C215.656 176.404 215.672 176.253 221.457 176.864C230.823 177.856 240.339 177.991 249.299 181.452C250.299 182.087 251.378 182.69 252.109 183.602C252.815 184.483 253.656 185.595 251.926 186.412C245.767 183.817 239.164 184.856 232.783 184.095C225.513 183.229 218.211 182.706 210.886 182.436C209.275 182.38 207.719 182.142 206.941 180.42C207.362 178.277 209.402 176.65 208.933 174.213C208.902 173.182 208.854 172.134 208.806 171.094Z" fill="#02539C"/>
<path d="M252.568 186.126C252.29 184.007 250.179 183.158 249.306 181.452C255.6 182.809 258.012 185.039 258.068 189.563C257.131 190.491 256.401 191.682 255.02 192.087C243.457 196.65 231.306 198.031 219.028 198.38C210.194 198.634 201.337 198.23 192.504 198.484C183.424 198.745 174.646 197.547 166.123 194.396C165.011 193.984 163.884 193.603 162.678 193.523C161.107 193.198 159.686 192.539 158.408 191.587C156.638 188.055 157.075 186.682 160.718 184.301C162.178 184.404 162.662 185.658 163.416 186.595C163.988 187.452 164.773 188.102 165.519 188.793C168.297 190.761 171.559 191.38 174.781 192.015C190.535 195.118 206.425 194.968 222.361 193.991C230.528 193.491 238.639 192.793 246.528 190.483C248.044 190.039 249.584 189.666 250.941 188.817C251.885 188.174 252.306 187.198 252.568 186.126Z" fill="#16A0EF"/>
<path d="M158.765 190.904C159.829 191.46 160.892 192.007 161.956 192.563C171.369 196.785 181.289 198.468 191.536 198.484C201.702 198.499 211.901 198.999 222.028 198.349C233.544 197.618 245.195 196.745 255.671 190.936C256.473 190.476 257.274 190.007 258.076 189.547C257.274 193.579 254.243 195.309 250.774 196.491C240.044 200.158 228.893 201.007 217.671 201.357C210.202 201.785 202.726 201.769 195.258 201.372C190.067 201.19 184.853 201.468 179.726 200.333C173.599 199.769 167.448 199.214 162.027 195.928C160.218 194.849 157.813 193.888 158.765 190.904Z" fill="#062D62"/>
<path d="M222.354 161.594C222.688 164.094 221.116 164.213 219.275 163.872C218.878 165.324 220.989 164.975 220.664 166.324C219.648 166.277 218.18 166.65 217.64 166.102C214.322 162.769 210.005 165.531 206.41 164.063C205.703 163.777 204.465 163.69 204.378 165.142C204.314 166.198 203.624 166.229 203.156 165.626C200.886 162.761 197.783 163.713 195.179 164.293C193.227 164.729 192.275 163.015 190.814 163.269C189.425 163.515 185.798 161.451 187.608 165.856C187.687 166.047 186.949 166.578 186.592 166.951C179.536 165.086 172.727 162.499 165.965 159.793C169.774 158.975 173.29 160.856 177.052 160.999C185.648 161.332 194.211 162.444 202.791 163.086C209.37 163.586 215.894 162.92 222.354 161.594Z" fill="#D16603"/>
<path d="M251.783 150.547C251.473 149.158 251.886 147.031 249.227 148.062C248.211 145.848 246.156 146.054 244.204 145.737C241.926 145.364 240.505 144.38 243.172 142.34C245.235 142.189 247.021 140.912 249.124 140.919C249.783 140.896 250.418 140.8 250.973 140.388C251.632 139.904 252.18 139.364 251.902 138.443C251.823 138.189 251.616 137.927 251.362 137.935C250.124 137.983 251.037 139.11 250.553 139.61C250.172 140.007 249.862 140.356 249.267 140.261C248.973 139.983 248.823 139.634 248.68 139.269C248.457 138.713 248.958 138.189 248.696 137.65C248.553 139.483 246.577 137.475 246.227 138.816C245.862 140.229 245.521 141.642 243.862 142.118C241.973 142.888 240.1 143.57 238.997 140.983C239.068 139.665 239.6 138.562 240.521 137.634C243.307 139.483 244.029 136.959 245.211 135.419C249.704 135.459 254.164 135.213 258.481 133.792C256.981 139.673 256.005 145.761 251.783 150.547Z" fill="#BF6C16"/>
<path d="M158.766 190.904C160.21 194.849 163.782 196.095 167.234 197.182C171.322 198.476 175.552 199.309 179.719 200.333C171.417 201.38 163.901 199.055 157.004 194.674C152.956 192.11 152.734 188.523 156.266 185.198C159.901 181.777 164.139 179.579 169.345 179.936C168.901 181.88 166.806 181.626 165.703 182.69C164.314 183.444 163.083 184.618 161.306 184.317C158.782 185.88 157.25 187.801 158.766 190.904Z" fill="#C6EBFB"/>
<path d="M165.044 182.245C166.115 180.809 168.076 181.031 169.338 179.944C180.743 177.372 192.282 176.023 203.981 175.856C205.743 175.833 207.743 176.102 208.949 174.213C209.513 176.206 210.79 178.452 207.259 179.007C207.036 179.055 206.814 179.094 206.592 179.142C193.917 178.269 181.497 180.007 169.163 182.729C167.742 183.047 166.306 183.364 165.044 182.245Z" fill="#1D96E4"/>
<path d="M207.584 45.6327C205.687 45.5375 203.79 45.4422 201.893 45.3391C201.687 43.2279 203.084 41.0216 201.242 38.9898C199.853 37.458 198.996 35.4342 201.004 33.8707C203.218 32.1484 205.123 33.1564 206.496 35.3628C206.472 35.5374 206.457 35.712 206.433 35.8866C205.369 38.0691 206.711 39.9104 207.274 41.8628C207.441 43.1168 208.163 44.3232 207.584 45.6327Z" fill="#0A60AB"/>
<path d="M218.012 48.8947C215.687 48.8312 213.766 47.6962 211.838 46.5851C210.449 44.3788 209.076 42.1644 207.25 40.2755C205.996 38.9739 205.274 37.5057 206.226 35.6882C206.314 35.585 206.401 35.4739 206.488 35.3707C210.861 39.4263 216.163 42.6962 218.012 48.8947Z" fill="#0A60AB"/>
<path d="M250.68 125.903C253.378 125.546 256.196 126.253 258.791 124.975C259.18 125.268 259.212 125.602 258.878 125.967C258.878 127.697 258.878 129.419 258.878 131.142C257.839 131.181 256.799 131.221 255.759 131.269C254.711 128.872 252.045 128.007 250.68 125.903Z" fill="#9A4A16"/>
<path d="M258.886 125.967C258.854 125.634 258.823 125.308 258.799 124.975C259.084 123.649 258.934 122.356 258.053 121.316C255.695 118.546 256.473 116.189 258.878 113.983C259.116 113.975 259.354 113.983 259.592 113.999C259.323 117.991 260.981 122.086 258.886 125.967Z" fill="#A25208"/>
<path d="M195.25 201.38C202.718 201.372 210.195 201.372 217.663 201.365C210.195 202.69 202.718 202.357 195.25 201.38Z" fill="#738BAA"/>
<path d="M159.775 145.443C157.378 140.808 158.06 135.491 156.52 130.642C155.822 128.443 158.727 128.403 159.56 127.007C159.497 126.626 159.64 126.356 160.005 126.213C160.338 126.118 160.687 126.086 161.036 126.11C162.052 126.268 163.092 126.173 164.116 126.253C166.521 126.054 168.814 124.792 171.37 126.054C172.497 126.61 173.6 125.729 173.711 124.229C173.798 123.07 173.695 121.887 174.116 120.768C174.798 119.975 174.195 119.26 173.957 118.522C173.862 118.165 173.806 117.816 173.775 117.451C173.529 115.086 174.013 112.729 173.751 110.379C173.576 108.998 170.886 109.348 171.624 107.332C174.076 106.538 175.164 104.824 175.195 102.284C175.219 100.014 173.671 99.4428 171.91 99.0301C171.552 98.9587 171.211 98.8476 170.862 98.7444C169.854 98.3634 168.79 98.2444 167.727 98.165C167.179 98.1095 166.656 97.9666 166.171 97.6888C165.878 97.4428 165.703 97.1412 165.656 96.7602C165.727 95.9825 166.092 95.3634 166.632 94.8237C166.933 94.6015 167.267 94.4586 167.632 94.3872C167.997 94.3555 168.362 94.3713 168.727 94.4189C176.306 95.5618 176.306 95.5618 178.124 88.1332C179.1 87.5141 178.187 86.6887 178.354 85.9744C179.346 83.2125 180.132 80.3791 181.314 77.6807C183.037 76.6965 179.83 76.6172 180.949 75.7441C183.783 73.7044 183.949 70.2758 185.259 67.4504C185.68 66.7202 185.307 65.7282 186.029 65.0853C187.568 63.4265 190.267 62.2757 188.608 59.2043C188.18 57.8233 185.886 56.7995 187.814 54.982C189.076 54.7757 190.124 55.3868 191.195 55.8868C192.338 56.4265 192.981 55.6725 193.465 54.8868C194.172 53.7518 192.957 53.6963 192.418 53.2756C191.442 52.728 192.584 51.8709 192.124 51.2439C193.648 49.5058 195.68 49.5692 197.719 49.6645C198.545 50.6486 200.148 49.2042 200.878 50.7439C200.87 52.0772 198.942 52.4423 199.061 53.9185C197.838 57.7995 197.87 57.8392 201.989 57.4662C203.458 56.0614 204.831 56.3788 206.156 57.6646C207.426 57.4027 208.719 57.8551 209.958 57.4185C210.069 57.0296 210.037 56.6408 210.1 56.2598C210.291 55.0534 208.577 53.5693 210.045 52.7677C211.664 51.8788 212.847 53.2915 213.783 54.5693C214.029 56.0852 215.204 57.236 215.45 58.7598C215.735 59.609 216.323 60.3154 216.68 61.1329C217.474 63.2916 218.315 65.4266 218.561 67.7361C218.815 70.3631 219.569 72.8711 220.458 75.3394C220.743 76.0378 221.029 76.7283 221.243 77.4505C221.386 78.0061 221.426 78.5775 221.434 79.141C221.648 81.7839 221.712 84.4506 222.37 87.0379C222.751 88.8713 222.188 90.8316 223.148 92.5776C223.997 93.7205 223.688 95.3951 225.124 96.6253C226.315 94.9666 227.355 93.0935 229.609 95.9269C230.371 96.8793 233.347 96.5301 234.958 94.9745C235.72 94.2364 235.696 92.9348 236.775 92.4269C240.267 96.3714 239.196 101.554 240.474 106.102C240.188 106.602 239.91 107.11 239.188 106.927C238.672 106.625 238.386 106.157 238.228 105.602C237.974 104.467 238.363 103.332 238.172 102.332C238.331 101.681 237.648 101.967 238.172 101.99C238.244 101.99 238.212 102.117 238.18 102.371C238.053 103.379 238.085 104.475 236.64 104.554C235.466 103.673 235.926 102.094 235.117 100.848C233.982 101.538 233.664 106.173 231.402 101.633C230.49 99.7999 228.005 100.895 226.283 101.038C224.386 101.197 224.942 102.943 224.894 104.181C224.839 105.744 225.061 107.34 224.386 108.84C222.18 111.284 220.474 110.927 219.235 107.927C218.132 101.133 218.132 101.117 211.251 101.379C209.41 101.451 207.569 101.554 205.743 101.451C203.426 101.324 201.934 102.133 201.6 104.57C201.442 104.935 201.219 105.252 200.942 105.538C199.727 106.276 198.473 106.832 197.029 106.244C195.672 104.871 198.053 102.054 195.1 101.308C191.203 100.602 187.243 100.895 183.33 100.609C181.941 100.506 180.989 100.927 180.727 102.348C180.513 103.49 180.219 104.649 180.759 105.792C183.068 104.046 183.997 107.578 186.156 107.141C189.172 106.522 191.894 108.094 194.664 109.07C194.965 109.935 194.561 110.594 194.029 111.213C192.711 112.467 191.132 112.078 189.608 111.872C187.624 111.602 185.751 112.07 183.878 112.586C182.584 112.443 181.275 110.538 180.084 112.07C178.576 114.022 178.727 116.372 179.822 118.602C179.973 119.324 179.838 120.038 179.783 120.76C179.791 123.062 178.854 125.673 181.894 126.935C182.354 127.245 182.695 127.657 182.878 128.181C182.862 129.356 181.926 129.602 181.092 129.896C179.513 130.459 179.711 131.499 180.291 132.665C181.021 134.554 182.41 134.911 184.299 134.673C186.108 134.451 188.148 133.729 189.513 135.816C189.711 136.721 189.568 137.523 188.814 138.142C184.537 139.269 180.116 139.229 175.759 139.681C172.465 139.507 169.156 139.792 165.878 139.546C162.687 139.316 161.148 140.459 161.409 143.729C161.092 144.554 161.116 145.673 159.775 145.443Z" fill="#C5640A"/>
<path d="M193.576 111.102C193.901 110.419 194.218 109.729 194.544 109.046C193.893 108.34 194.274 107.752 194.742 107.165C195.401 106.57 196.076 105.99 197.012 105.864C198.282 105.903 199.441 104.824 200.774 105.475C203.639 109.475 207.457 111.149 212.393 110.546C215.211 110.197 217.877 110.76 220.1 112.824C221.862 114.467 223.877 114.316 225.989 113.356C228.87 112.038 231.798 110.768 235.012 110.618C236.782 110.53 238.751 110.054 240.124 111.832C240.116 113.594 240.465 115.372 239.893 117.11C239.981 124.292 238.259 131.102 235.655 137.737C232.632 139.792 229.211 138.959 226.036 138.681C221.203 138.269 216.409 137.443 211.695 135.991C205.52 134.086 199.195 134.459 192.956 136.253C191.829 136.578 190.409 138.324 189.441 135.975C188.909 134.015 189.441 132.134 189.837 130.237C190.052 129.443 190.329 128.673 190.552 127.88C191.329 125.594 191.06 123.134 191.79 120.84C191.893 120.03 191.901 119.221 191.917 118.403C191.837 115.816 191.861 113.268 193.576 111.102Z" fill="#0B7DD6"/>
<path d="M175.472 138.665C180.051 138.324 184.639 137.975 189.218 137.634C200.544 137.197 211.877 136.729 223.163 138.292C225.806 138.658 228.433 138.435 231.068 138.562C232.48 138.634 234.052 138.284 234.925 139.904C234.56 141.213 233.877 142.34 232.949 143.324C229.623 145.459 225.385 145.118 222.099 147.364C217.266 149.943 212.425 150.713 207.488 147.586C206.353 146.864 204.956 146.8 203.639 146.88C195.742 147.372 187.877 146.158 179.956 146.65C175.535 146.919 171.043 146.007 166.559 145.896C164.464 145.848 162.773 144.832 161.845 142.824C162.083 139.348 164.869 139.316 167.257 139.007C169.964 138.65 172.75 139.308 175.472 138.665Z" fill="#32ADFA"/>
<path d="M161.916 142.507C164.051 144.491 166.551 144.951 169.456 144.975C181.464 145.07 193.464 145.435 205.465 145.705C205.988 145.713 206.703 145.546 207.012 145.816C211.957 150.197 217.123 148.435 222.306 146.467C220.56 154.92 216.417 156.555 207.933 156.483C205.465 154.602 202.806 154.316 199.734 154.816C195.393 155.531 191.195 153.737 186.885 153.443C185.988 153.38 185.044 152.634 184.202 152.912C177.21 155.221 170.353 151.372 163.409 152.539C162.115 152.753 161.107 152.174 160.258 151.261C158.758 149.435 159.877 147.396 159.774 145.451C159.964 145.07 160.162 144.689 160.353 144.308C161.075 143.88 160.432 142.269 161.916 142.507Z" fill="#1492EB"/>
<path d="M181.099 75.8394C180.941 76.5537 182.885 76.4584 181.758 77.5458C180.607 78.2204 180.369 80.1013 178.583 79.9426C177.361 78.8315 175.71 78.4505 174.433 77.3156C173.472 76.4664 171.917 75.4505 170.512 76.506C169.012 77.6251 168.298 79.3791 167.885 81.1966C167.758 81.768 168.282 82.5299 168.591 82.3791C172.218 80.6093 174.663 85.3236 178.147 84.0538C178.655 84.6807 178.655 85.4268 178.631 86.1728C178.702 86.6887 179.536 87.1411 178.766 87.7284C177.187 89.0617 174.02 88.8792 174.528 92.2364C174.591 92.6729 174.147 93.292 173.552 93.2364C172.552 93.1491 172.433 92.2364 172.321 91.4983C172.044 89.6014 172.345 87.3633 169.448 87.2681C169.091 87.2443 168.742 87.1887 168.393 87.1332C167.869 87.0617 167.361 86.9506 166.845 86.8554C163.702 88.1411 163.655 90.5776 164.448 93.3078C165.051 93.8634 165.861 94.0697 166.504 94.538C166.599 94.665 166.702 94.7999 166.798 94.9269C166.734 95.6253 166.552 96.2602 165.829 96.5777C164.425 98.5698 160.536 98.6333 161.345 102.363C161.496 103.038 160.71 104.046 161.893 104.34C163.297 104.689 163.25 103.49 163.472 102.633C163.726 101.649 163.671 100.435 165.123 100.3C166.766 101.363 165.401 103.633 166.917 104.737C167.218 104.816 167.504 104.943 167.766 105.102C168.107 105.435 168.385 105.816 168.702 106.165C169.345 106.76 170.242 106.729 170.98 107.086C171.306 107.26 171.496 107.53 171.544 107.903C172.448 108.84 174.639 107.752 174.758 109.935C174.194 110.467 173.544 110.221 172.909 110.173C172.425 110.133 171.948 110.086 171.464 110.07C170.972 110.078 170.488 110.07 169.996 110.07C169.663 110.086 169.337 110.078 169.004 110.062C168.504 110.046 168.012 109.991 167.528 109.887C166.893 109.752 166.282 109.538 165.647 109.419C165.178 109.364 164.71 109.332 164.242 109.348C163.774 109.403 163.313 109.491 162.877 109.689C161.829 112.165 161.813 114.633 162.853 117.086C163.139 117.213 163.424 117.34 163.726 117.419C164.718 117.618 165.686 117.276 166.678 117.356C166.861 117.372 167.044 117.403 167.226 117.419C167.417 117.459 167.591 117.499 167.782 117.538C170.075 118.038 172.631 116.975 174.694 118.745C174.774 119.268 175.583 119.729 174.829 120.316C174.417 120.634 174.012 121.11 173.496 121.086C169.528 120.88 167.234 122.721 166.861 126.784C163.956 125.856 166.044 122.292 163.52 121.483C162.099 121.514 162.369 122.641 162.226 123.491C162.036 124.626 162.305 125.919 161.051 126.657C160.813 126.642 160.583 126.642 160.345 126.642C158.52 124.951 161.067 121.975 158.536 120.499C157.615 122.308 158.79 124.451 157.575 126.38C155.909 125.61 156.496 124.102 156.551 123.014C157.083 113.03 158.091 103.11 160.742 93.4189C162.821 85.8236 165.464 78.6728 169.591 71.7124C173.79 64.6409 179.155 59.3313 185.456 54.6169C187.417 53.1487 189.893 52.3629 192.139 51.2677C192.496 51.3629 192.853 51.4661 193.211 51.5613C192.869 51.9105 192.528 52.2518 192.187 52.601C191.536 54.5931 190.187 55.4979 188.091 55.2439C186.695 56.8789 189.814 57.363 189.012 58.8471C188.456 60.1487 187.433 59.4265 186.71 59.236C183.639 58.4106 182.353 60.3392 180.758 62.4662C184.441 63.4107 184.441 63.4107 185.766 65.7123C186.004 66.2599 186.647 66.8631 185.575 67.252C183.512 68.7758 181.568 67.5377 179.599 66.9821C176.726 66.1647 173.623 68.2996 173.512 71.1806C173.448 72.8314 174.726 73.006 175.837 73.3394C177.107 73.7203 178.369 73.8235 179.718 73.5854C181.861 73.2044 181.956 74.2917 181.099 75.8394Z" fill="#AB560F"/>
<path d="M234.918 139.904C221.925 138.665 208.902 138.507 195.87 138.538C193.671 138.546 191.187 139.673 189.219 137.634C189.227 136.927 189.235 136.213 189.243 135.507C189.346 135.15 189.552 135.054 189.87 135.277C189.846 135.983 189.901 136.729 190.885 136.15C197.108 132.467 204.092 132.673 210.37 134.451C218.751 136.816 227.068 137.824 235.648 137.737C235.751 138.57 235.568 139.316 234.918 139.904Z" fill="#013385"/>
<path d="M220.767 78.7839C220.759 78.3156 220.743 77.8553 220.735 77.387C220.799 76.8632 221.005 76.3791 221.084 75.8632C221.426 73.6647 221.934 71.8234 224.783 73.5298C225.854 74.1727 227.045 73.4822 228.251 73.5616C227.457 72.3393 226.973 70.9504 225.942 69.9663C224.703 68.7758 223.259 69.3076 221.886 69.7758C220.473 70.26 220.307 71.3234 220.537 72.6171C220.735 73.7679 221.005 74.9663 219.957 75.9108C218.362 73.3949 217.878 70.5774 217.688 67.6806C217.941 65.4028 220.322 64.1408 220.489 61.8154C220.767 61.5535 221.092 61.4662 221.457 61.5376C222.068 62.2519 221.997 63.2519 222.537 63.998C222.005 63.1011 222.021 61.9583 221.203 61.1884C221.203 60.3789 221.291 59.6408 222.426 59.9344C225.767 64.5853 230.116 68.6171 231.529 74.4664C231.878 75.9029 233.45 75.6806 234.116 76.633C233.838 78.7918 235.275 80.7363 234.926 82.903C235.934 86.0062 236.87 89.1332 236.791 92.4507C236.608 93.538 236.434 94.6174 236.251 95.7047C234.315 94.9745 234.95 93.1412 234.64 91.7681C234.204 89.8078 233.164 88.9427 231.156 88.8316C225.91 88.5379 224.267 89.3316 222.569 93.284C220.608 91.3475 221.973 88.9109 221.576 86.7363C225.307 86.4506 228.116 83.2283 231.981 83.3633C230.473 78.5854 230.259 78.5061 225.45 79.1727C223.902 79.387 222.172 80.6013 220.767 78.7839Z" fill="#A0581B"/>
<path d="M160.25 151.253C167.988 150.062 175.512 153.554 183.441 151.912C187.258 151.118 191.679 152.753 195.719 153.737C197.203 154.102 198.338 154.253 199.806 153.816C202.925 152.888 205.989 152.769 208.116 155.959C206.679 157.475 204.766 156.959 203.012 157.15C193.671 156.864 184.338 156.229 174.988 156.015C171.829 155.943 168.687 155.872 165.591 155.174C163.345 154.515 161.337 153.515 160.25 151.253Z" fill="#0770C3"/>
<path d="M203.084 156.11C204.767 156.062 206.441 156.007 208.124 155.959C214.91 155.856 219.83 152.983 222.306 146.459C225.378 143.808 229.195 143.697 232.934 143.324C231.997 145.237 231.172 147.221 229.441 148.602C225.695 155.055 220.552 158.824 212.632 157.626C210.568 157.316 208.425 157.634 206.314 157.555C205.084 157.523 203.568 157.912 203.084 156.11Z" fill="#046FC0"/>
<path d="M203.084 156.11C208.671 157.396 214.338 157.078 219.957 156.602C222.902 156.356 224.561 153.785 226.362 151.674C227.299 150.578 228.41 149.626 229.442 148.602C227.203 154.316 223.227 158.404 216.981 158.372C200.425 158.293 183.87 157.824 167.393 155.904C166.774 155.832 166.195 155.42 165.6 155.166C178.116 154.761 190.584 156.055 203.084 156.11Z" fill="#0E2756"/>
<path d="M205.726 59.1487C204.806 58.1328 204.147 56.0455 202.417 58.3471C201.575 56.4582 201.607 53.8312 198.575 53.8074C197.488 51.9423 199.456 51.8153 200.298 51.0375C199.687 49.982 198.179 50.8232 197.75 49.6645C203.726 47.4899 208.901 50.6566 214.322 52.1566C214.703 53.736 216.949 53.9264 216.996 55.7598C216.845 56.109 216.591 56.3471 216.226 56.4582C215.02 56.482 213.988 56.2042 213.576 54.8868C212.528 54.2518 211.48 53.6169 209.996 52.7201C210.822 54.8947 212.099 56.5852 210.56 58.4027C207.655 54.7201 207.655 54.7201 205.726 59.1487Z" fill="#AB560F"/>
<path d="M239.004 140.991C240.37 142.364 242.028 142.308 243.743 141.935L244.02 142.197L243.774 142.491C243.052 142.824 242.298 143.245 242.497 144.15C242.671 144.912 243.489 144.808 244.108 144.832C245.005 144.864 245.917 144.935 246.806 144.832C249.513 144.515 250.37 145.515 249.219 148.047C244.949 149.721 240.719 148.999 236.282 147.808C237.211 145.507 238.108 143.253 239.004 140.991Z" fill="#605A51"/>
<path d="M245.203 151.237C245.822 151.332 246.442 151.42 247.092 151.515C246.648 152.729 244.957 152.459 244.656 153.729C244.656 153.864 244.695 154.007 244.656 154.118C244.211 155.451 242.822 156.253 241.926 155.848C238.791 154.428 235.838 157.666 232.822 155.959C231.005 154.935 231.886 153.88 232.838 152.84C233.973 150.554 235.6 149.697 238.164 150.642C240.41 151.475 242.838 151.213 245.203 151.237Z" fill="#45494D"/>
<path d="M232.83 152.84C231.632 155.459 234.187 156.039 235.179 155.642C237.608 154.682 239.909 155.007 242.314 155.031C243.092 155.039 243.87 154.181 244.648 153.729C246.267 155.221 245.616 156.269 243.878 156.777C242.386 157.213 240.79 157.523 239.243 157.515C233.774 157.491 228.235 156.991 223.877 161.396C223.6 161.682 222.87 161.523 222.346 161.57C225.838 158.666 229.338 155.753 232.83 152.84Z" fill="#DB6D05"/>
<path d="M247.719 109.237C248.266 109.792 248.806 110.356 249.354 110.911C249.766 111.3 249.814 111.729 249.512 112.205C249.163 115.633 248.814 119.062 248.465 122.491C246.227 123.324 244.719 123.292 244.925 120.157C245.124 117.181 244.989 114.181 244.965 111.197C244.941 109.165 245.528 108.102 247.719 109.237Z" fill="#307DC4"/>
<path d="M242.163 133.237C242.719 130.903 243.282 128.784 243.711 126.634C244.052 124.895 245.195 124.681 246.623 124.888C248.338 125.134 248.695 126.205 248.33 127.729C248.147 128.491 247.822 129.276 247.893 130.015C248.131 132.681 247.187 133.61 244.528 132.769C243.925 132.57 243.123 133.023 242.163 133.237Z" fill="#6B6D65"/>
<path d="M250.68 125.903C253.275 126.84 256.291 127.372 255.759 131.269C255.148 131.475 254.529 131.657 253.934 131.903C252.267 132.578 249.505 133.943 249.021 132.618C248.291 130.626 248.394 127.713 250.68 125.903Z" fill="#64767E"/>
<path d="M253.306 112.546C255.973 115.324 255.068 118.911 255.251 122.157C255.338 123.761 253.354 123.467 252.037 123.499C250.164 123.546 249.719 122.657 250.195 121.03C252.267 119.483 251.037 117.11 251.656 115.189C251.981 114.157 251.243 112.491 253.306 112.546Z" fill="#677E90"/>
<path d="M247.696 98.165C248.235 101.276 249.831 104.213 249.283 107.506C248.077 106.443 246.942 105.816 246.227 107.967C244.894 105.07 245.148 101.903 244.672 98.8555C245.386 97.3555 246.624 98.1095 247.696 98.165Z" fill="#C8C5A2"/>
<path d="M244.672 98.8634C245.188 101.895 245.703 104.935 246.227 107.975C246.727 108.395 247.227 108.816 247.719 109.244C246.989 109.379 245.735 108.975 245.672 109.911C245.41 113.848 245.172 117.816 245.394 121.737C245.481 123.229 247.513 121.753 248.457 122.499C246.18 124.221 244.497 124.181 244.489 120.84C244.465 113.506 244.6 106.181 244.672 98.8634Z" fill="#B57F3C"/>
<path d="M253.306 112.546C251.473 114.451 252.933 116.776 252.497 118.864C252.227 120.165 252.743 122.197 250.187 121.03C250.116 118.991 249.909 116.959 250.663 114.951C251.092 113.816 251.052 112.625 249.497 112.205C249.441 111.768 249.393 111.34 249.338 110.903C250.973 110.721 252.64 110.411 253.306 112.546Z" fill="#AB5E2E"/>
<path d="M206.227 35.6881C206.354 37.585 207.266 39.0136 208.584 40.3866C210.219 42.1009 212.29 43.72 211.838 46.5851C211.608 46.593 211.386 46.5533 211.171 46.474C209.211 45.347 207.409 44.0613 206.687 41.7596C205.806 39.7914 203.441 37.9342 206.227 35.6881Z" fill="#0B2B50"/>
<path d="M216.79 55.9741C216.623 54.2757 213.123 54.7439 214.322 52.1645C218.234 53.4899 220.806 56.2122 222.425 59.9265C221.695 60.236 221.536 60.863 221.528 61.5694L221.536 61.5614C221.25 61.5773 220.965 61.6011 220.679 61.617C220.528 61.5218 220.377 61.4265 220.219 61.3313C218.965 59.6249 217.441 58.0773 216.79 55.9741Z" fill="#C5640A"/>
<path d="M231.14 63.117C234.227 65.9583 235.624 69.8552 237.544 73.4267C236.338 74.4902 235.87 73.26 235.537 72.6012C233.989 69.4742 231.909 66.5932 231.14 63.117Z" fill="#F4D373"/>
<path d="M245.22 135.427C245.283 137.054 244.22 138.213 243.513 139.658C242.474 138.951 241.498 138.3 240.529 137.642C240.871 134.332 243.307 135.435 245.22 135.427Z" fill="#6B6D65"/>
<path d="M243.774 90.0856C243.774 89.4665 243.774 88.8554 243.774 87.1728C246.274 90.4586 245.925 93.6173 246.79 96.3475C246.655 96.292 246.52 96.2602 246.378 96.2523C244.497 96.1729 244.266 94.8554 244.155 93.3792C244.084 92.2761 244.497 91.1173 243.774 90.0856Z" fill="#C2C8B3"/>
<path d="M158.535 120.483C159.646 119.546 160.44 119.618 160.472 121.237C160.511 123.03 160.392 124.832 160.345 126.626C160.083 126.753 159.821 126.88 159.559 127.007C157.694 125.07 159.154 122.61 158.535 120.483Z" fill="#EBF1F0"/>
<path d="M206.687 41.7597C208.647 42.8946 210.013 44.5851 211.171 46.474C209.822 46.855 208.711 46.1883 207.584 45.6327C207.187 44.3629 206.052 43.2676 206.687 41.7597Z" fill="#E9F6F9"/>
<path d="M239.886 117.11C239.814 115.252 239.735 113.387 239.663 111.53C238.608 109.951 238.465 108.403 239.822 106.903C240.044 106.641 240.266 106.379 240.489 106.117C240.386 109.784 241.203 113.506 239.886 117.11Z" fill="#B59761"/>
<path d="M234.918 82.903C234.735 80.7998 232.211 78.9981 234.108 76.633C235.084 78.6251 236.465 80.5775 234.918 82.903Z" fill="#F0CE7E"/>
<path d="M243.774 90.0856C245.1 91.9507 243.814 94.9189 246.377 96.2523C244.917 98.1491 244.242 96.8237 243.909 95.5062C243.6 94.2919 243.687 92.9665 243.6 91.6967C243.663 91.1649 243.719 90.6253 243.774 90.0856Z" fill="#B57F3C"/>
<path d="M253.806 99.2206C251.291 96.3158 248.799 94.3793 249.656 89.5935C251.759 92.9348 254.386 94.7999 253.806 99.2206Z" fill="#B89D6D"/>
<path d="M253.949 109.268C253.56 108.594 252.965 107.967 252.822 107.244C252.513 105.633 251.782 103.879 252.909 102.395C253.314 101.863 254.322 102.594 254.267 103.213C254.068 105.252 257.957 107.49 253.997 109.324L253.949 109.268Z" fill="#999F93"/>
<path d="M164.115 188.642C163.242 188.428 162.734 187.912 162.71 186.983C163.369 185.15 165.035 184.475 166.623 183.944C179.821 179.491 193.409 178.158 207.258 179.023C207.345 180.92 208.56 181.348 210.195 181.396C219.465 181.674 228.711 182.285 237.885 183.729C238.528 183.833 239.306 183.975 239.83 183.714C244.711 181.309 248.378 185.063 252.568 186.134C253.52 187.023 253.449 187.809 252.33 188.483C245.314 187.404 238.338 186.071 231.258 185.42C225.615 184.896 219.988 183.888 214.314 184.214C210.647 184.42 207.306 182.618 203.806 182.698C191.798 182.968 179.805 183.61 168.305 187.626C166.932 188.087 165.623 188.753 164.115 188.642Z" fill="#063367"/>
<path d="M164.115 188.642C168.068 185.745 172.742 184.729 177.393 183.904C185.592 182.436 194.004 180.594 202.195 181.61C215.901 183.317 229.775 183.142 243.37 185.793C246.457 186.396 249.711 186.349 252.338 188.476C252.418 190.603 250.616 190.491 249.346 190.928C240.021 194.103 230.267 194.968 220.56 195.412C204.108 196.174 187.608 196.42 171.425 192.507C168.774 191.872 165.52 191.841 164.115 188.642Z" fill="#C8F0FC"/>
<path d="M255.664 190.944C251.291 194.904 245.799 196.087 240.267 197.23C223.704 200.65 206.926 199.769 190.211 199.484C182.727 199.357 175.267 198.222 168.06 195.952C165.814 195.245 163.481 194.618 161.957 192.579C167.052 192.642 171.449 195.484 176.41 196.23C179.529 196.698 182.584 197.325 185.775 197.301C193.553 197.245 201.33 197.23 209.1 197.357C224.958 197.611 240.593 196.341 255.664 190.944Z" fill="#0265B4"/>
<path d="M207.259 179.015C198.862 179.555 190.314 179.317 182.115 180.88C175.544 182.134 168.623 183.221 162.71 186.975C162.242 186.095 161.774 185.214 161.306 184.333C162.56 183.634 163.806 182.936 165.052 182.245C172.599 181.269 179.925 178.833 187.576 178.61C194.131 178.42 200.751 176.158 207.259 179.015Z" fill="#02539C"/>
<path d="M243.783 142.507C243.775 142.316 243.759 142.134 243.751 141.943C244.235 141.046 244.68 140.134 245.211 139.269C245.727 138.435 245.291 136.745 246.854 136.872C249.124 137.054 249.338 137.475 249.362 139.975C249.807 140.531 249.791 141.07 249.307 141.594C247.489 142.062 245.799 143.269 243.783 142.507Z" fill="#6B6D65"/>
<path d="M249.307 141.594C249.323 141.054 249.338 140.515 249.362 139.975C250.624 139.038 249.473 136.062 252.307 136.483C253.751 136.697 253.148 137.88 253.172 138.642C253.267 141.364 251.529 141.832 249.307 141.594Z" fill="#837A75"/>
<path d="M239.814 106.903C239.759 108.443 239.711 109.991 239.655 111.53C234.655 111.165 229.997 112.324 225.631 114.697C223.996 115.586 222.092 116.094 220.854 114.697C217.219 110.594 212.52 111.681 208.028 111.578C204.552 111.498 201.528 108.951 200.774 105.475C200.742 105.26 200.814 105.094 200.98 104.959C207.179 105.617 213.48 105.475 219.52 107.348C220.806 108.784 221.869 111.332 224.044 108.229C227.838 105.99 232.084 105.562 236.338 105.165C237.187 105.213 238.068 105.046 238.846 105.546C239.163 106.006 239.489 106.459 239.814 106.903Z" fill="#1FA1F1"/>
<path d="M209.663 89.3792C211.433 89.3792 213.242 89.6014 214.972 89.3316C217.766 88.8951 218.306 90.3554 218.52 92.6491C219.044 98.1888 218.607 98.7999 212.949 98.4507C211.004 98.3317 209.115 98.3714 207.179 98.538C201.496 99.0301 201.687 98.9507 201.504 93.2364C201.409 90.0935 202.433 88.9903 205.464 89.3554C206.853 89.5141 208.266 89.3792 209.663 89.3792Z" fill="#DBD8D1"/>
<path d="M195.401 107.427C195.115 107.967 194.829 108.506 194.544 109.046C190.901 109.586 187.369 107.816 183.702 108.53C182.591 108.752 182.48 107.864 182.401 107.038C182.377 106.832 182.329 105.173 182.075 107.006C181.94 107.951 181.409 108.467 180.48 108.284C179.202 108.038 179.44 106.943 179.456 106.07C179.48 104.76 179.591 103.443 179.702 102.133C179.909 99.7523 180.948 98.6968 183.536 99.3714C187.401 100.371 191.496 99.3714 195.369 100.522C197.115 102.824 196.488 105.125 195.401 107.427Z" fill="#E1DAD1"/>
<path d="M183.544 86.7998C183.227 84.3474 184.798 82.3156 185.092 79.9902C185.258 78.6648 186.377 78.5775 187.481 78.4823C190.997 78.1886 194.385 79.76 197.941 79.1172C198.83 78.9584 199.235 79.7045 199.108 80.6886C198.893 82.3712 198.592 84.0776 198.655 85.7522C198.759 88.5776 196.314 86.9268 195.346 87.8078C191.346 88.2443 187.33 88.8474 183.544 86.7998Z" fill="#D6D1C6"/>
<path d="M222.56 93.284C221.369 89.5856 222.885 87.9982 226.584 88.1173C226.71 88.1252 226.845 88.1729 226.972 88.157C235.472 87.1649 235.472 87.1649 236.242 95.7047C234.147 97.9825 231.163 96.8476 228.647 97.6015C226.901 98.1253 228.274 95.7285 227.226 95.1015C227.568 97.173 226.798 98.0857 224.734 98.2047C222.329 98.3476 223.282 96.6174 223.028 95.538C222.861 94.792 222.718 94.0301 222.56 93.284Z" fill="#DCD8CF"/>
<path d="M219.521 107.356C213.251 107.244 206.997 107.054 200.981 104.967C200.473 101.633 201.266 99.8555 205.266 100.411C208.52 100.863 211.989 101.078 215.163 100.427C218.901 99.6571 219.727 101.117 219.655 104.236C219.624 105.276 219.568 106.316 219.521 107.356Z" fill="#E0E5E3"/>
<path d="M181.099 75.8394C180.742 75.4822 181.091 74.0775 180.433 74.6727C179.433 75.5854 178.734 74.9981 177.949 74.8235C170.583 73.2282 170.393 72.5536 174.949 66.4901C176.012 65.0694 176.853 64.6567 178.472 65.4504C180.695 66.5536 183.052 67.3314 185.599 67.2361C185.941 70.8711 183.687 75.1886 181.099 75.8394Z" fill="#BEB2A2"/>
<path d="M220.766 78.7839C223.488 78.4664 226.242 78.3235 228.917 77.7759C230.393 77.4743 231.163 77.6489 231.56 79.0854C232.171 81.3156 233.885 83.3315 232.885 85.8395C232.782 86.1014 231.893 86.2998 231.528 86.149C230.607 85.776 231.084 84.7522 230.782 84.0141C229.75 84.6093 230.925 86.0935 229.599 86.6887C228.56 87.157 228.584 85.0776 228.123 85.9982C227.338 87.5935 226.068 86.903 225.044 87.0141C223.909 87.1411 222.726 86.8474 221.56 86.7363C220.353 84.1807 220.504 81.4902 220.766 78.7839Z" fill="#C9C5BA"/>
<path d="M236.521 105.864C232.362 106.657 228.204 107.451 224.045 108.245C224.013 108.118 223.966 107.991 223.958 107.856C223.243 99.4666 223.243 99.4507 231.259 99.1571C234.077 99.0539 232.275 101.594 233.124 102.602C233.72 101.34 231.815 98.9587 234.736 98.792C237.474 98.6333 236.315 100.919 236.64 102.236C236.791 102.863 236.736 103.546 236.775 104.205C237.14 104.824 237.085 105.379 236.521 105.864Z" fill="#DCD0C1"/>
<path d="M168.853 131.816C167.869 133.253 169.464 135.515 167.726 135.848C165.337 136.308 162.694 136.221 160.313 135.689C159.044 135.404 159.671 133.356 159.512 132.102C159.313 130.523 160.456 130.626 161.536 130.459C165.718 129.832 169.885 130.816 174.107 130.316C176.615 130.022 175.877 132.665 176.163 134.205C176.568 136.419 175.036 135.935 173.774 135.959C169.25 136.054 169.258 136.07 168.853 131.816Z" fill="#D1C6B7"/>
<path d="M169.028 86.1093C174.179 85.5617 173.409 89.2998 173.639 92.665C172.504 87.6966 174.774 86.7363 178.766 87.7204C178.504 96.5063 177.615 97.1174 168.314 94.9348C166.385 91.8237 167.544 88.9506 169.028 86.1093Z" fill="#CEBEAD"/>
<path d="M162.797 120.356C168.678 119.237 164.877 124.3 166.393 125.864C166.924 120.443 166.924 120.451 172.869 120.395C173.52 120.387 174.178 120.332 174.829 120.292C174.861 120.951 174.901 121.61 174.916 122.268C175.012 127.618 174.972 127.872 169.742 127.038C167.655 126.705 165.527 128.269 163.599 126.689C162.25 124.721 161.924 122.618 162.797 120.356Z" fill="#E1DDD6"/>
<path d="M193.576 111.102C193.337 113.618 193.091 116.126 192.853 118.641C189.599 120.427 186.472 120.3 183.48 118.014C182.623 116.046 181.758 114.07 183.607 112.157C184.48 109.975 186.377 110.864 187.885 110.832C189.782 110.792 191.679 111.006 193.576 111.102Z" fill="#E5D1AD"/>
<path d="M219.956 75.9108C219.917 75.252 219.822 74.5933 219.853 73.9425C219.949 72.2441 217.536 70.0139 220.274 68.9266C225.131 67.0059 226.457 67.6171 228.266 71.5615C228.853 72.8473 229.385 74.1647 229.845 75.2521C229.076 77.0537 227.084 72.6409 226.552 76.2838C226.472 76.8156 225.837 74.7441 225.028 74.2362C224.512 74.9425 225.218 76.0537 224.242 76.6171C222.599 76.1965 223.242 74.6886 222.71 73.4981C222.337 75.0219 223.044 77.0616 220.726 77.387C220.02 77.133 220.123 76.4505 219.956 75.9108Z" fill="#C8C8C3"/>
<path d="M189.869 135.269C189.623 135.245 189.409 135.324 189.234 135.499C187.297 135.538 185.258 135.197 183.456 135.713C180.742 136.491 180.004 135.134 179.512 133.03C178.583 130.737 178.908 129.522 181.813 129.316C184.837 129.102 187.845 127.737 190.655 129.967C190.401 131.737 190.139 133.507 189.869 135.269Z" fill="#ECEAE4"/>
<path d="M185.782 65.6964C185.258 65.0774 184.321 64.4107 183.925 64.2519C182.385 63.6329 179.25 65.1488 179.599 62.2043C179.94 59.3313 184.242 57.6725 187.171 58.4265C187.782 58.5852 188.401 58.7043 189.02 58.8392C189.623 59.0535 190.655 59.1487 190.766 59.5138C191.234 61.0614 187.671 65.3313 185.782 65.6964Z" fill="#D3CDC1"/>
<path d="M196.425 64.1408C197.179 69.2123 194.06 67.2837 191.6 66.7678C191.584 65.0615 192.981 64.0218 193.544 62.6091C194.727 59.617 196.52 59.9583 198.56 61.6726C198.767 61.8472 198.846 62.1726 198.989 62.4265C199.378 61.0614 200.282 59.9424 201.195 61.6726C202.116 63.4265 201.108 65.5377 200.616 67.3869C200.338 68.4107 198.949 67.871 198.124 67.7837C195.465 67.498 197.393 65.3313 196.425 64.1408Z" fill="#E5E3D7"/>
<path d="M190.663 129.967C187.917 129.975 185.14 130.261 182.433 129.927C179.647 129.578 179.33 130.919 179.512 133.038C176.52 128.761 181.012 129.491 182.671 128.324C183.084 127.411 184.37 127.435 184.679 126.419C184.592 124.713 185.711 122.768 183.679 121.467C183.314 121.427 182.965 121.388 182.6 121.372C181.258 121.268 179.87 121.38 178.743 120.419C178.981 119.919 179.211 119.419 179.449 118.927C180.433 115.133 182.544 118.062 184.179 118.133C187.02 119.134 189.941 118.768 192.846 118.641C192.767 119.403 192.687 120.165 192.616 120.919C191.171 121.919 188.822 120.411 187.838 122.673C186.767 125.134 188.044 126.626 191.854 127.34C191.457 128.213 191.06 129.094 190.663 129.967Z" fill="#905413"/>
<path d="M207.266 70.252C208.266 70.0219 209.266 69.6806 210.282 69.5854C213.854 69.2441 216.957 73.4901 215.56 76.7838C215.441 77.0616 215.052 77.3156 214.735 77.395C214.171 77.5458 213.624 77.2918 213.52 76.7124C213.338 75.6886 213.298 74.633 213.187 73.5378C212.489 74.7679 213.655 77.3077 212.028 77.1489C209.751 76.9267 211.544 74.2997 210.759 73.006C209.941 74.3314 211.624 76.9426 209.195 77.4267C207.187 77.8235 208.346 75.3314 207.425 74.5219C206.505 73.1251 206.743 71.6886 207.266 70.252Z" fill="#BCB7AA"/>
<path d="M171.552 107.887C171.314 107.752 171.076 107.618 170.845 107.483C168.726 104.181 170.306 101.173 171.599 98.1412C173.361 98.7841 176.663 97.2206 176.322 100.903C176.036 103.927 176.901 108.157 171.552 107.887Z" fill="#E5DFD5"/>
<path d="M193.759 76.8473C187.068 78.2203 193.584 72.6568 190.846 72.2044C190.147 73.4028 190.568 77.0219 188.052 76.1171C186.29 75.4822 188.735 72.8552 189.179 71.0933C190.203 66.998 193.33 70.7044 195.171 69.5694C196.663 72.3711 196.497 74.8632 193.759 76.8473Z" fill="#E3E5E2"/>
<path d="M184.187 118.126C182.814 119.602 180.814 117.332 179.456 118.919C176.694 116.483 178.488 113.578 178.861 110.959C179.067 109.483 182.56 110.3 183.607 112.157C182.821 114.245 184.202 116.118 184.187 118.126Z" fill="#EAE3D9"/>
<path d="M165.441 100.125C164.846 100.879 164.703 101.744 164.592 102.681C164.203 106.117 164.179 105.824 161.012 105.729C159.123 105.673 159.869 104.951 160.092 104.173C160.893 101.435 159.996 98.2444 162.282 95.8952C162.933 98.9269 164.925 94.8713 165.83 96.5698C165.877 96.9269 165.933 97.2761 165.98 97.6333C166.909 98.7047 166.592 99.5063 165.441 100.125Z" fill="#D2CBBB"/>
<path d="M194.513 88.6173C195.124 90.276 197.782 88.1966 197.909 90.3236C198.052 92.6808 198.378 95.3316 197.473 97.3396C196.727 98.9904 194.346 98.5142 192.743 97.284C191.457 95.284 191.838 93.0776 192.084 90.9427C192.227 89.6411 192.774 88.4268 194.513 88.6173Z" fill="#E6E2DB"/>
<path d="M182.615 97.4666C180.678 97.1094 180.956 95.665 181.298 94.4269C181.909 92.1888 182.718 90.0141 183.448 87.8078C184.742 87.5458 185.972 87.5379 186.972 88.5935C187.242 89.03 187.464 89.5062 187.52 90.0221C187.726 92.0777 187.901 94.1332 187.131 96.1412C186.186 98.5777 184.004 96.6412 182.615 97.4666Z" fill="#E4E1DA"/>
<path d="M178.751 120.419C180.275 120.427 181.807 120.443 183.33 120.451C185.41 124.459 184.926 126.753 181.814 127.546C179.608 127.84 178.378 127.197 178.711 124.657C178.886 123.261 178.743 121.832 178.751 120.419Z" fill="#EFEDEB"/>
<path d="M209.782 65.0932C210.195 67.1488 209.584 68.5377 207.123 68.5536C205.425 68.5615 204.353 68.1409 204.774 66.0615C205.139 64.244 204.465 61.8551 207.354 61.6249C209.877 61.4186 210.02 63.1329 209.782 65.0932Z" fill="#CFCABF"/>
<path d="M208.148 87.6966C207.06 87.6728 205.965 87.649 204.878 87.6252C203.362 85.9506 203.782 83.9188 203.909 81.9823C204.005 80.5537 204.592 79.4585 206.306 79.4505C207.925 79.4426 209.259 79.9505 209.6 81.6331C210.052 83.8236 210.457 86.1173 208.148 87.6966Z" fill="#D5D0CB"/>
<path d="M198.575 53.8074C199.925 52.3788 201.599 53.3074 202.679 53.8233C204.036 54.4661 202.21 55.736 202.377 56.8154C202.456 57.3154 202.409 57.8392 202.425 58.3471C200.401 60.0138 198.464 57.4741 196.377 58.7916C196.282 56.3233 197.933 55.3154 198.575 53.8074Z" fill="#DED6C3"/>
<path d="M220.679 61.617C220.846 62.6488 221.052 63.6805 221.156 64.7123C221.235 65.4821 222.291 66.6806 220.791 66.8949C219.378 67.1012 220.084 65.5059 219.584 64.7837C218.87 65.7044 220.076 67.9266 217.679 67.6726C217.552 65.2917 215.83 63.2837 216.029 60.8234C217.838 59.6091 219.386 59.9265 220.703 61.617H220.679Z" fill="#D7DAD5"/>
<path d="M161.917 142.507C161.393 143.102 160.877 143.697 160.353 144.3C160.218 138.943 160.218 138.919 165.393 138.777C168.75 138.689 172.107 138.697 175.472 138.665C173.409 139.658 171.179 139.158 169.028 139.364C166.298 139.634 163.663 140.046 161.917 142.507Z" fill="#C7D1CE"/>
<path d="M192.345 97.2841C191.139 98.1968 189.813 98.8952 189.71 96.5618C189.591 93.9507 189.107 91.2999 189.972 88.7125C191.853 87.5697 192.607 88.3633 192.552 90.2919C192.48 92.6253 192.814 94.9666 192.345 97.2841Z" fill="#ECEEE9"/>
<path d="M192.346 97.2841C192.338 95.0936 192.251 92.8951 192.354 90.7126C192.441 88.8792 191.521 88.4903 189.981 88.7125C189.664 88.6728 189.346 88.6252 189.021 88.5855C188.608 88.9824 188.116 89.1728 187.537 89.1094C187.187 88.9982 186.878 88.8078 186.632 88.5379C185.568 88.2919 184.513 88.0459 183.449 87.7998C183.481 87.4665 183.513 87.1252 183.544 86.7919C187.481 87.1332 191.41 87.4744 195.346 87.8078C195.068 88.0776 194.791 88.3395 194.505 88.6093C191.124 90.9268 193.616 94.4507 192.735 97.2761C192.735 97.292 192.346 97.2841 192.346 97.2841Z" fill="#AB560F"/>
<path d="M207.266 70.252C207.321 71.6727 207.377 73.0933 207.433 74.514C207.552 76.1807 207.671 77.514 205.115 77.387C202.329 77.2521 203.821 75.3949 203.464 74.2997C203.385 74.0616 203.417 73.76 203.496 73.514C203.861 72.379 203.226 70.3155 205.004 70.4187C206.679 70.5139 205.528 72.3473 205.75 73.379C205.909 74.133 205.782 74.9505 205.782 75.8473C207.496 74.1886 204.615 71.5219 207.266 70.252Z" fill="#D6DBD9"/>
<path d="M188.1 55.228C189.465 54.3471 190.83 53.4661 192.195 52.5852C193.108 52.6487 194.036 52.6169 194.917 52.7995C196.457 53.1249 196.449 53.6883 195.314 54.7836C192.33 57.617 192.06 57.6963 188.1 55.228Z" fill="#E8DCC2"/>
<path d="M205.727 59.1487C205.655 58.7678 205.528 58.3789 205.52 57.9979C205.473 56.3551 204.925 54.1566 207.243 53.9106C209.139 53.7122 210.116 55.3789 210.338 57.2678C210.386 57.6487 210.489 58.0297 210.568 58.4106C210.465 58.9265 209.886 59.6805 209.751 59.4186C208.489 56.9662 207.012 59.6011 205.727 59.1487Z" fill="#CDCAC0"/>
<path d="M171.456 109.292C172.051 109.34 172.654 109.387 173.25 109.435C174.028 112.181 172.202 115.356 174.631 117.832C174.654 118.126 174.67 118.427 174.694 118.721C172.083 118.189 169.273 119.586 166.773 117.927C169.091 115.451 167.099 111.816 169.099 109.252C169.416 109.268 169.734 109.284 170.051 109.292C171.353 111.03 170.408 113.07 170.781 114.689C170.996 113.054 170.178 111.054 171.456 109.292Z" fill="#C6A886"/>
<path d="M208.148 87.6966C208.918 85.6649 208.791 83.5538 208.608 81.4585C208.489 80.1172 207.537 79.887 206.346 79.895C205.013 79.9029 204.886 80.7204 204.886 81.7045C204.878 83.6807 204.886 85.649 204.878 87.6252C204.354 87.6411 203.822 87.657 203.298 87.6728C203.124 84.8236 203.029 81.9823 203.87 79.2045C206.33 79.2918 208.878 78.395 211.227 79.8236C210.132 82.2998 211.529 85.276 209.656 87.5935C209.156 87.6252 208.656 87.6649 208.148 87.6966Z" fill="#B29276"/>
<path d="M174.639 117.832C173.655 117.848 172.361 118.229 172.464 116.578C172.615 114.189 171.829 111.689 173.258 109.435C173.758 109.594 174.266 109.76 174.766 109.919C175.377 112.57 174.544 115.197 174.639 117.832Z" fill="#EFF2F1"/>
<path d="M178.638 86.1649C178.035 85.8077 177.726 85.3157 177.94 84.6014C178.337 83.1887 177.154 81.4902 178.718 80.2839C179.662 79.2997 179.234 76.7839 181.757 77.5458C181.535 80.7125 180.765 83.6887 178.638 86.1649Z" fill="#E3E2DB"/>
<path d="M197.813 70.2123C198.845 70.2123 200.671 68.7837 200.163 71.5536C199.972 72.5854 199.948 73.6489 199.869 74.7044C199.798 75.641 199.758 76.7679 198.567 76.8076C197.052 76.8553 197.702 75.5298 197.583 74.7521C197.448 73.8632 197.813 72.8949 197.099 72.1092C196.417 71.133 196.369 70.3869 197.813 70.2123Z" fill="#DFE4DD"/>
<path d="M165.44 100.125C165.623 99.292 165.797 98.4666 165.98 97.6333C166.448 97.1888 166.988 97.038 167.607 97.2603C169.48 100.125 168.281 102.721 166.908 105.3C166.742 105.935 166.575 106.673 165.805 106.713C165.186 106.744 165.004 106.149 165.043 105.602C165.162 103.776 165.305 101.951 165.44 100.125Z" fill="#EAEDEB"/>
<path d="M220.719 61.617C219.275 60.6963 217.576 61.2122 216.045 60.8233C215.267 60.5217 214.743 59.9662 214.441 59.1963C215.322 58.2995 215.537 56.9185 216.632 56.1725L216.799 55.9741C218.799 57.3709 220.116 59.2519 220.719 61.617Z" fill="#A0581B"/>
<path d="M162.798 120.356C163.512 122.411 163.806 124.522 163.599 126.697C162.75 126.832 161.877 127.848 161.052 126.642C161.076 124.808 161.052 122.975 161.139 121.149C161.195 120.007 161.615 119.292 162.798 120.356Z" fill="#ECF1EF"/>
<path d="M210.203 65.1805C210.497 63.8472 209.798 61.7757 211.076 61.9265C213.521 62.2202 212.576 65.1091 213.489 66.7281C214.251 68.0853 212.497 67.9583 211.79 67.998C209.013 68.1567 211.179 65.7678 210.203 65.1805Z" fill="#CFCABF"/>
<path d="M195.401 107.427C195.393 105.125 195.377 102.832 195.369 100.53C200.076 101.022 196.615 104.038 197.02 105.864C196.472 106.387 195.941 106.911 195.401 107.427Z" fill="#E7E7E2"/>
<path d="M214.347 79.7204C217.497 79.9902 216.164 82.7204 216.735 84.3315C217.013 85.1252 217.823 86.5935 216.553 87.1728C215.267 87.7681 215.156 86.4982 215.053 85.5696C213.72 83.7522 212.934 81.8633 214.347 79.7204Z" fill="#D3E1E3"/>
<path d="M187.449 88.5776C187.973 88.5776 188.497 88.5776 189.02 88.5855C188.83 91.7522 190.743 95.2523 187.52 97.9348C186.616 94.8237 186.886 91.7046 187.449 88.5776Z" fill="#F5F9F6"/>
<path d="M187.449 88.5776C187.473 91.6967 187.497 94.8158 187.529 97.9348C185.87 98.046 184.188 98.3079 182.624 97.4587C183.846 96.9587 183.243 95.5856 183.886 94.7999C184.648 95.3951 183.957 97.2206 185.473 96.9587C186.386 96.7999 186.561 95.6253 186.584 94.7126C186.632 92.6491 186.624 90.5935 186.64 88.53C186.902 88.5538 187.172 88.5697 187.449 88.5776Z" fill="#CAA16E"/>
<path d="M236.521 105.864C236.608 105.308 236.687 104.76 236.774 104.205C238.155 102.586 236.727 100.387 237.981 98.4031C239.703 100.792 238.933 103.229 238.854 105.562C238.068 105.657 237.29 105.76 236.521 105.864Z" fill="#B59761"/>
<path d="M203.878 79.2045C204.179 82.0617 204.116 84.895 203.306 87.6728C201.537 85.6649 201.822 81.4664 203.878 79.2045Z" fill="#E7EFF2"/>
<path d="M209.663 87.5935C209.647 85.6569 209.679 83.7283 209.6 81.7918C209.552 80.5855 209.83 79.768 211.235 79.8236L211.227 79.8156C212.735 82.4109 212.885 84.9903 211.163 87.5538C210.663 87.5697 210.163 87.5855 209.663 87.5935Z" fill="#DEEEEF"/>
<path d="M171.592 98.1412C171.338 101.252 171.092 104.371 170.838 107.483C169.79 107.197 168.393 108.419 167.655 106.76C169.854 104.467 168.679 101.149 170.116 98.6253C170.298 98.292 170.568 98.046 170.917 97.8872C171.155 97.9348 171.385 98.0222 171.592 98.1412Z" fill="#BC9D78"/>
<path d="M166.908 105.3C167.138 102.617 167.376 99.9349 167.607 97.2603C168.718 97.4269 169.956 96.919 170.916 97.8872L170.654 98.173C169.48 99.3555 169.281 100.895 169.154 102.443C169.059 103.641 168.924 104.776 167.559 105.229C167.345 105.26 167.13 105.284 166.908 105.3Z" fill="#BC9D78"/>
<path d="M213.489 87.5458L213.171 87.5935L212.854 87.5697C211.528 85.1172 211.203 82.5696 212.092 79.895C212.56 79.887 213.028 79.8791 213.497 79.8712C214.338 82.4347 214.695 84.9903 213.489 87.5458Z" fill="#D9EEF4"/>
<path d="M216.624 56.1725C216.283 57.4582 216.838 59.3948 214.433 59.1963C214.83 57.6249 212.799 56.5455 213.568 54.8947C214.592 55.3233 215.608 55.7439 216.624 56.1725Z" fill="#D0CCC2"/>
<path d="M212.092 79.9029C212.346 82.4585 212.6 85.022 212.854 87.5776C212.29 87.5697 211.719 87.5697 211.155 87.5617C211.179 84.9823 211.195 82.4029 211.219 79.8236C211.512 79.8474 211.806 79.8712 212.092 79.9029Z" fill="#B29276"/>
<path d="M181.813 127.538C185.258 125.8 182.877 122.824 183.329 120.443C183.663 120.435 184.004 120.419 184.337 120.411C185.964 122.499 184.052 125.34 185.806 127.396C185.068 128.761 183.679 127.888 182.671 128.316C182.385 128.062 182.099 127.8 181.813 127.538Z" fill="#C9A573"/>
<path d="M197.814 70.2123C197.084 70.6568 196.909 71.3155 197.099 72.1092C197.052 73.6251 197.012 75.141 196.965 76.6648C194.711 77.5537 194.806 75.7759 195.052 74.6568C195.433 72.9505 195.48 71.1409 196.274 69.5298C196.917 69.4584 197.584 69.3393 197.814 70.2123Z" fill="#EAEFEC"/>
<path d="M196.274 69.5298C196.028 71.0854 195.742 72.633 195.559 74.1965C195.432 75.3076 194.932 76.7362 196.964 76.6568C195.972 77.9981 194.869 77.4902 193.758 76.8394C195.194 74.6013 195.226 72.0933 195.171 69.5615C195.536 69.5536 195.901 69.5457 196.274 69.5298Z" fill="#B19571"/>
<path d="M166.782 86.2046C167.29 86.2204 167.798 86.2442 168.306 86.2601C168.385 89.149 168.131 92.0062 167.449 94.8237C167.242 94.911 167.028 94.9507 166.798 94.9269L166.861 94.784C165.004 92.2126 165.576 89.4665 166.29 86.7125C166.449 86.5379 166.615 86.3712 166.782 86.2046Z" fill="#F4F2EB"/>
<path d="M167.448 94.8158C167.512 91.9427 167.488 89.0538 168.305 86.2522C168.536 86.1331 168.774 86.0855 169.028 86.1093C168.79 89.0538 168.559 91.9983 168.321 94.9348C168.028 94.9031 167.742 94.8554 167.448 94.8158Z" fill="#A57F60"/>
<path d="M213.488 87.5458C213.488 84.9903 213.496 82.4347 213.496 79.8791C213.774 79.8235 214.06 79.768 214.338 79.7124C214.576 81.6648 214.806 83.6093 215.044 85.5617C214.306 86.0538 214.83 87.53 213.488 87.5458Z" fill="#B29276"/>
<path d="M191.853 127.34C189.972 126.84 186.576 130.745 186.353 125.34C186.123 119.753 186.607 119.34 192.615 120.927C192.369 123.062 192.115 125.197 191.853 127.34Z" fill="#E2D4BD"/>
<path d="M178.718 80.2839C178.416 81.7125 179.321 83.3633 177.94 84.6014C175.273 86.2046 173.305 84.776 171.392 83.0934C171.281 82.9982 170.948 82.9585 170.94 82.9823C169.797 85.7681 168.289 83.1966 167.13 83.0537C165.273 82.8156 166.734 81.4347 166.916 80.6251C167.146 79.6172 167.591 78.6013 168.178 77.7442C168.956 76.6172 169.511 74.2124 170.781 74.7838C172.623 75.6172 175.44 74.7838 176.353 77.4981C176.456 77.7918 176.662 78.2839 176.837 78.2918C178.75 78.387 178.75 78.3712 178.718 80.2839Z" fill="#D1CBBF"/>
<path d="M164.377 94.292C163.679 93.7443 161.964 94.1332 162.528 92.4269C163.266 90.1888 163.972 87.9268 164.972 85.7998C165.369 84.9585 166.314 85.3554 166.774 86.1966L166.814 86.149C165.861 88.157 166.56 90.284 166.393 92.3475C166.29 93.6888 166.163 94.792 164.377 94.292Z" fill="#D1D2C8"/>
<path d="M167.567 105.221C168.623 103.863 168.353 102.229 168.536 100.689C168.686 99.3952 168.631 97.8952 170.655 98.173C170.401 100.443 170.107 102.713 169.917 104.99C169.798 106.491 169.059 107.006 167.647 106.76C167.623 106.244 167.599 105.737 167.567 105.221Z" fill="#ECF0EF"/>
<path d="M169.107 109.26C169.099 111.189 169.051 113.11 169.099 115.038C169.139 116.689 168.567 117.776 166.782 117.935L166.774 117.919C164.837 114.808 165.821 111.967 167.575 109.197C168.083 109.213 168.599 109.237 169.107 109.26Z" fill="#EEF1EF"/>
<path d="M164.575 108.61C164.988 108.618 165.401 108.618 165.806 108.625C167.504 111.657 166.258 114.713 165.853 117.76C165.123 118.07 164.48 119.475 163.615 117.927C163.345 114.76 162.448 111.53 164.575 108.61Z" fill="#F8FAFA"/>
<path d="M162.822 117.911C162.6 118.022 162.251 118.284 162.179 118.221C160.29 116.546 160.743 109.792 162.822 108.395C164.052 111.57 163.997 114.745 162.822 117.911Z" fill="#F3F3EE"/>
<path d="M160.528 108.046C160.528 110.792 160.544 113.538 160.52 116.284C160.512 116.943 160.417 117.713 159.568 117.745C158.258 117.792 158.599 116.808 158.71 116.07C159.123 113.427 158.25 110.618 160.528 108.046Z" fill="#F2F5F1"/>
<path d="M162.821 117.911C162.821 114.737 162.821 111.57 162.821 108.395C163.409 108.467 163.996 108.538 164.575 108.602C163.853 111.665 164.917 114.911 163.623 117.919C163.353 117.919 163.083 117.919 162.821 117.911Z" fill="#C6A886"/>
<path d="M171.456 109.292C171.472 112.054 171.829 114.856 171.075 117.546C170.734 117.546 170.401 117.546 170.06 117.546C170.06 114.8 170.06 112.054 170.06 109.308C170.52 109.3 170.988 109.3 171.456 109.292Z" fill="#F9FBFB"/>
<path d="M165.853 117.76C165.837 114.713 165.822 111.673 165.806 108.625C166.393 108.816 166.988 109.006 167.576 109.197C167.306 112.102 167.044 115.014 166.774 117.919C166.464 117.864 166.163 117.808 165.853 117.76Z" fill="#C6A886"/>
<path d="M164.377 94.2919C166.671 93.8396 165.988 91.9824 166.115 90.538C166.242 89.0538 165.329 87.4109 166.813 86.149C166.829 89.0221 166.845 91.903 166.861 94.7761C165.996 94.8078 165.06 95.2126 164.377 94.2919Z" fill="#A57F60"/>
<path d="M221.528 61.5694C222.552 62.998 223.568 64.4266 224.592 65.8551C224.219 66.1012 223.838 66.3393 223.465 66.5853C222.171 65.3313 221.401 63.744 221.544 61.5614C221.536 61.5614 221.528 61.5694 221.528 61.5694Z" fill="#D6DEDD"/>
<path d="M185.813 127.403C182.67 125.634 184.742 122.761 184.345 120.419C186.321 120.118 186.028 121.562 186.02 122.689C186.004 124.261 185.885 125.832 185.813 127.403Z" fill="#F4F7F4"/>
</svg>