<svg width="18" height="18" viewBox="0 0 18 18" fill="none" xmlns="http://www.w3.org/2000/svg">
<path opacity="0.1" fill-rule="evenodd" clip-rule="evenodd" d="M14.0273 1.022C14.515 0.926036 15.0207 0.977254 15.4795 1.16849C15.9383 1.35981 16.3304 1.68315 16.6055 2.0972C16.8805 2.51122 17.0268 2.99762 17.0254 3.49466C17.0237 4.05561 16.832 4.59531 16.4902 5.03275C16.4943 5.1045 16.4971 5.17676 16.4971 5.24954V10.938C16.5011 12.0191 16.0766 13.058 15.3164 13.8267C14.5562 14.5953 13.5224 15.0316 12.4414 15.0396H11.2959C11.2267 15.0396 11.1583 15.056 11.0967 15.0874C11.0351 15.1189 10.9819 15.1643 10.9414 15.2202L10.1348 16.3658V16.3433C9.97616 16.5688 9.76521 16.7533 9.52051 16.8804C9.27588 17.0074 9.00413 17.0738 8.72852 17.0738C8.45288 17.0737 8.18116 17.0074 7.93652 16.8804C7.69182 16.7533 7.48087 16.5688 7.32227 16.3433L6.51562 15.1978C6.47509 15.1418 6.42193 15.0954 6.36035 15.064C6.29899 15.0327 6.23098 15.0172 6.16211 15.0171H5.01562C3.93467 15.0151 2.89814 14.5842 2.13379 13.8199C1.36953 13.0555 0.939492 12.0189 0.9375 10.938V5.57865C0.939492 4.49773 1.36955 3.46119 2.13379 2.69681C2.89814 1.93246 3.93467 1.5016 5.01562 1.49954H12.7471C12.8215 1.49954 12.8954 1.5021 12.9688 1.50638C13.2778 1.26553 13.6401 1.09829 14.0273 1.022Z" fill="#BCBFC5"/>
<path d="M14.5069 6.05616C14.0012 6.05615 13.5068 5.90608 13.0863 5.62493C12.6659 5.34379 12.3384 4.94422 12.1452 4.47681C11.952 4.0094 11.9018 3.49517 12.001 2.99924C12.1002 2.5033 12.3444 2.04795 12.7025 1.69085C13.0607 1.33375 13.5168 1.09095 14.013 0.993197C14.5092 0.895443 15.0233 0.947129 15.4901 1.14171C15.957 1.33629 16.3556 1.66502 16.6355 2.08627C16.9154 2.50752 17.064 3.00236 17.0625 3.50812C17.0605 4.18459 16.7904 4.83268 16.3113 5.31031C15.8323 5.78795 15.1834 6.05616 14.5069 6.05616ZM14.5069 2.08333C14.2251 2.08333 13.9497 2.16689 13.7153 2.32345C13.481 2.48001 13.2984 2.70253 13.1906 2.96288C13.0827 3.22322 13.0545 3.5097 13.1095 3.78608C13.1645 4.06246 13.3002 4.31634 13.4994 4.5156C13.6987 4.71486 13.9526 4.85056 14.229 4.90553C14.5053 4.96051 14.7918 4.93229 15.0522 4.82445C15.3125 4.71661 15.535 4.534 15.6916 4.29969C15.8481 4.06539 15.9317 3.78992 15.9317 3.50812C15.9347 3.31912 15.9001 3.13141 15.8298 2.95593C15.7596 2.78045 15.6551 2.6207 15.5225 2.48599C15.3899 2.35128 15.2318 2.24431 15.0574 2.17129C14.8831 2.09828 14.6959 2.06069 14.5069 2.06072V2.08333ZM10.1345 16.3388L10.9412 15.1929C10.9817 15.1369 11.035 15.0913 11.0966 15.0598C11.1582 15.0283 11.2263 15.012 11.2955 15.012H12.4413C13.5224 15.004 14.5562 14.5679 15.3164 13.7993C16.0765 13.0306 16.5011 11.992 16.4971 10.911V7.02109C16.4971 6.87114 16.4375 6.72733 16.3315 6.6213C16.2255 6.51527 16.0817 6.4557 15.9317 6.4557C15.7818 6.4557 15.6379 6.51527 15.5319 6.6213C15.4259 6.72733 15.3663 6.87114 15.3663 7.02109V10.911C15.3643 11.6921 15.0531 12.4407 14.5008 12.993C13.9484 13.5454 13.1999 13.8566 12.4187 13.8586H11.2955C11.0447 13.8545 10.7969 13.913 10.5744 14.0288C10.3519 14.1446 10.1619 14.3141 10.0215 14.522L9.21484 15.6678C9.15701 15.7415 9.08318 15.8011 8.99895 15.842C8.91471 15.883 8.82227 15.9043 8.72861 15.9043C8.63494 15.9043 8.5425 15.883 8.45826 15.842C8.37403 15.8011 8.30021 15.7415 8.24237 15.6678L7.45082 14.522C7.30757 14.317 7.11693 14.1496 6.89512 14.0341C6.67331 13.9186 6.42688 13.8584 6.1768 13.8586H5.01586C4.23473 13.8566 3.48616 13.5454 2.93381 12.993C2.38146 12.4407 2.07027 11.6921 2.06828 10.911V5.55107C2.06828 4.76933 2.37883 4.0196 2.93161 3.46682C3.48439 2.91404 4.23412 2.60349 5.01586 2.60349H10.9864C11.1364 2.60349 11.2802 2.54392 11.3862 2.43789C11.4922 2.33186 11.5518 2.18805 11.5518 2.0381C11.5518 1.88815 11.4922 1.74434 11.3862 1.63831C11.2802 1.53228 11.1364 1.47271 10.9864 1.47271H5.01586C3.93483 1.4747 2.89864 1.90502 2.13423 2.66943C1.36982 3.43384 0.939493 4.47003 0.9375 5.55107V10.911C0.939493 11.992 1.36982 13.0282 2.13423 13.7926C2.89864 14.557 3.93483 14.9874 5.01586 14.9894H6.16173C6.23088 14.9893 6.29906 15.0057 6.36065 15.0372C6.42224 15.0686 6.4755 15.1143 6.51604 15.1703L7.32266 16.3161C7.48127 16.5417 7.69181 16.7257 7.93651 16.8528C8.18121 16.9799 8.45288 17.0462 8.72861 17.0462C9.00433 17.0462 9.27601 16.9799 9.5207 16.8528C9.7654 16.7257 9.97594 16.5417 10.1345 16.3161V16.3388ZM5.83757 7.82018C5.68847 7.82018 5.54272 7.86439 5.41875 7.94723C5.29478 8.03006 5.19815 8.1478 5.14109 8.28555C5.08404 8.4233 5.06911 8.57487 5.0982 8.72111C5.12728 8.86734 5.19908 9.00166 5.30451 9.10709C5.40994 9.21252 5.54426 9.28432 5.6905 9.31341C5.83673 9.34249 5.98831 9.32757 6.12606 9.27051C6.2638 9.21345 6.38154 9.11683 6.46438 8.99286C6.54721 8.86888 6.59142 8.72313 6.59142 8.57404C6.59142 8.3741 6.512 8.18235 6.37062 8.04098C6.22925 7.8996 6.0375 7.82018 5.83757 7.82018ZM8.72484 7.82018C8.57574 7.82018 8.42999 7.86439 8.30602 7.94723C8.18205 8.03006 8.08542 8.1478 8.02837 8.28555C7.97131 8.4233 7.95638 8.57487 7.98547 8.72111C8.01455 8.86734 8.08635 9.00166 8.19178 9.10709C8.29721 9.21252 8.43153 9.28432 8.57777 9.31341C8.724 9.34249 8.87558 9.32757 9.01333 9.27051C9.15107 9.21345 9.26881 9.11683 9.35165 8.99286C9.43448 8.86888 9.47869 8.72313 9.47869 8.57404C9.47869 8.47504 9.45919 8.37701 9.42131 8.28555C9.38342 8.19409 9.3279 8.11098 9.25789 8.04098C9.18789 7.97098 9.10479 7.91545 9.01333 7.87756C8.92186 7.83968 8.82383 7.82018 8.72484 7.82018ZM8.72484 7.82018C8.57574 7.82018 8.42999 7.86439 8.30602 7.94723C8.18205 8.03006 8.08542 8.1478 8.02837 8.28555C7.97131 8.4233 7.95638 8.57487 7.98547 8.72111C8.01455 8.86734 8.08635 9.00166 8.19178 9.10709C8.29721 9.21252 8.43153 9.28432 8.57777 9.31341C8.724 9.34249 8.87558 9.32757 9.01333 9.27051C9.15107 9.21345 9.26881 9.11683 9.35165 8.99286C9.43448 8.86888 9.47869 8.72313 9.47869 8.57404C9.47869 8.47504 9.45919 8.37701 9.42131 8.28555C9.38342 8.19409 9.3279 8.11098 9.25789 8.04098C9.18789 7.97098 9.10479 7.91545 9.01333 7.87756C8.92186 7.83968 8.82383 7.82018 8.72484 7.82018ZM11.6196 7.82018C11.4705 7.82018 11.3248 7.86439 11.2008 7.94723C11.0769 8.03006 10.9802 8.1478 10.9232 8.28555C10.8661 8.4233 10.8512 8.57487 10.8803 8.72111C10.9094 8.86734 10.9812 9.00166 11.0866 9.10709C11.192 9.21252 11.3263 9.28432 11.4726 9.31341C11.6188 9.34249 11.7704 9.32757 11.9081 9.27051C12.0459 9.21345 12.1636 9.11683 12.2465 8.99286C12.3293 8.86888 12.3735 8.72313 12.3735 8.57404C12.3735 8.47504 12.354 8.37701 12.3161 8.28555C12.2782 8.19409 12.2227 8.11098 12.1527 8.04098C12.0827 7.97098 11.9996 7.91545 11.9081 7.87756C11.8167 7.83968 11.7186 7.82018 11.6196 7.82018Z" fill="#BCBFC5"/>
</svg>
