<svg width="16" height="16" viewBox="0 0 16 16" fill="none" xmlns="http://www.w3.org/2000/svg">
<path opacity="0.1" d="M14.9667 8.80001C14.9667 12.6476 11.8476 15.7667 8.00003 15.7667C4.15245 15.7667 1.03336 12.6476 1.03336 8.80001C1.03336 4.95243 4.15245 1.83334 8.00003 1.83334C11.8476 1.83334 14.9667 4.95243 14.9667 8.80001Z" fill="#BCBFC5"/>
<path fill-rule="evenodd" clip-rule="evenodd" d="M8.00024 1.79883C11.8755 1.79899 15.0166 4.94015 15.0168 8.81543C15.0168 12.6909 11.8757 15.8328 8.00024 15.833C4.12466 15.833 0.982666 12.691 0.982666 8.81543C0.982901 4.94005 4.12481 1.79883 8.00024 1.79883ZM8.00024 2.91699C4.7427 2.91699 2.10204 5.55794 2.10181 8.81543C2.10181 12.0731 4.74255 14.7148 8.00024 14.7148C11.2578 14.7147 13.8987 12.073 13.8987 8.81543C13.8984 5.55804 11.2577 2.91715 8.00024 2.91699ZM8.16333 4.41016C8.31751 4.41016 8.46544 4.46988 8.57446 4.57617C8.68345 4.68245 8.74535 4.82627 8.74536 4.97656V8.20312C8.74536 8.35345 8.68348 8.4982 8.57446 8.60449C8.46547 8.71065 8.3174 8.77051 8.16333 8.77051C8.00928 8.77042 7.86113 8.71071 7.7522 8.60449C7.64326 8.49821 7.58228 8.35339 7.58228 8.20312V4.97656C7.58229 4.82644 7.64343 4.68242 7.7522 4.57617C7.86113 4.46996 8.00928 4.41025 8.16333 4.41016ZM10.4856 0.166992C10.5649 0.167932 10.6435 0.183686 10.7161 0.214844C10.7887 0.246031 10.8542 0.29218 10.9084 0.348633C10.9626 0.405005 11.0043 0.471425 11.0315 0.543945C11.0574 0.613069 11.0681 0.686286 11.0657 0.759766C11.0588 0.904762 10.9954 1.04199 10.8879 1.14258C10.7797 1.24374 10.6356 1.29987 10.4856 1.2998H5.83325C5.67908 1.2998 5.53114 1.24008 5.42212 1.13379C5.31322 1.02751 5.2522 0.883633 5.2522 0.733398C5.25221 0.583158 5.3132 0.439275 5.42212 0.333008C5.53114 0.226714 5.67908 0.166992 5.83325 0.166992H10.4856ZM11.0667 0.771484C11.0669 0.767676 11.0655 0.763573 11.0657 0.759766C11.0657 0.75854 11.0666 0.757086 11.0667 0.755859V0.771484Z" fill="#BCBFC5"/>
</svg>
