<svg width="18" height="18" viewBox="0 0 18 18" fill="none" xmlns="http://www.w3.org/2000/svg">
<path opacity="0.1" fill-rule="evenodd" clip-rule="evenodd" d="M8.7617 1.42529C9.48675 1.42904 10.1887 1.68268 10.748 2.14404C11.3074 2.60552 11.6905 3.2463 11.832 3.95752H12.3232C13.08 3.9609 13.8141 4.21514 14.4111 4.68018C15.0082 5.14536 15.4347 5.79571 15.623 6.52881L15.6162 8.17529H15.9228C16.253 8.17533 16.5701 8.30436 16.8056 8.53564C17.0413 8.7671 17.1767 9.08234 17.1826 9.4126V11.1147C17.1826 11.4489 17.0497 11.7701 16.8135 12.0063C16.5773 12.2424 16.2568 12.3744 15.9228 12.3745H15.5996L15.5928 14.1948C15.3824 14.8977 14.9496 15.5136 14.3603 15.9507C13.7712 16.3877 13.0568 16.6232 12.3232 16.6206H4.16502C3.71556 16.6196 3.2703 16.5299 2.85545 16.3569C2.44077 16.184 2.06405 15.9312 1.74705 15.6128C1.43 15.2943 1.17887 14.916 1.00779 14.5005C0.836728 14.0849 0.748987 13.6394 0.749978 13.1899V4.59424C0.754085 3.75363 1.09039 2.94868 1.68552 2.35498C2.28059 1.76136 3.08622 1.42743 3.92674 1.42529H8.7617Z" fill="#BCBFC5"/>
<path fill-rule="evenodd" clip-rule="evenodd" d="M8.7617 1.40234C9.48683 1.40609 10.1887 1.66061 10.748 2.12207C11.3074 2.58355 11.6905 3.22433 11.832 3.93555H12.3232C13.08 3.93893 13.8141 4.19308 14.4111 4.6582C15.0082 5.12334 15.4346 5.77284 15.623 6.50586C15.6606 6.65428 15.6378 6.81176 15.5595 6.94336C15.4812 7.07495 15.3535 7.17029 15.2051 7.20801C15.0565 7.24566 14.8983 7.22297 14.7666 7.14453C14.6351 7.06609 14.5405 6.93845 14.5029 6.79004C14.3796 6.30187 14.096 5.86928 13.6982 5.56055C13.3005 5.25182 12.8111 5.08431 12.3076 5.08594H4.17283C3.56888 5.08585 2.98924 5.32366 2.55857 5.74707C2.12789 6.17058 1.88016 6.74665 1.8701 7.35059C1.87772 7.37549 1.87773 7.40185 1.8701 7.42676V13.1445C1.87012 13.7551 2.11315 14.3407 2.5449 14.7725C2.97666 15.2042 3.56225 15.4463 4.17283 15.4463H12.331C12.8167 15.4411 13.2887 15.2826 13.6787 14.9932C14.0686 14.7037 14.3573 14.2982 14.5029 13.835C14.549 13.6911 14.6491 13.5706 14.7822 13.499C14.9151 13.4276 15.0705 13.4104 15.2158 13.4512C15.3613 13.497 15.4832 13.5991 15.5537 13.7344C15.6241 13.8696 15.6384 14.0274 15.5928 14.1729C15.3824 14.8757 14.9496 15.4916 14.3603 15.9287C13.7712 16.3656 13.0567 16.6003 12.3232 16.5977H4.16502C3.71556 16.5966 3.2703 16.5069 2.85545 16.334C2.44076 16.161 2.06404 15.9083 1.74705 15.5898C1.42997 15.2713 1.17885 14.8932 1.00779 14.4775C0.836776 14.0619 0.748969 13.6164 0.749978 13.167V4.57227C0.754027 3.73165 1.09044 2.92674 1.68552 2.33301C2.2806 1.73937 3.08621 1.40448 3.92674 1.40234H8.7617ZM15.9609 8.11816C16.2988 8.11821 16.6232 8.25056 16.8642 8.4873C17.1053 8.72407 17.2439 9.04598 17.25 9.38379V11.126C17.25 11.4679 17.1138 11.7963 16.872 12.0381C16.6304 12.2797 16.3026 12.4149 15.9609 12.415H14.3261C13.7563 12.415 13.2096 12.189 12.8066 11.7861C12.4036 11.3831 12.1767 10.8365 12.1767 10.2666C12.1767 9.69671 12.4036 9.15005 12.8066 8.74707C13.2096 8.34418 13.7563 8.11816 14.3261 8.11816H15.9609ZM14.3261 9.26855C14.0616 9.26855 13.8072 9.37442 13.6201 9.56152C13.4332 9.74858 13.3281 10.0022 13.3281 10.2666C13.3281 10.531 13.4332 10.7846 13.6201 10.9717C13.8072 11.1588 14.0616 11.2646 14.3261 11.2646H15.9609C15.9974 11.2646 16.0328 11.2495 16.0586 11.2236C16.0843 11.1978 16.0986 11.1625 16.0986 11.126V9.40723C16.0986 9.37071 16.0843 9.33545 16.0586 9.30957C16.0328 9.28375 15.9974 9.26865 15.9609 9.26855H14.3261ZM8.91502 7.33496C9.06767 7.33496 9.2143 7.39596 9.32224 7.50391C9.43005 7.61178 9.49112 7.75765 9.49119 7.91016C9.49119 8.06281 9.43019 8.20944 9.32224 8.31738C9.21431 8.42526 9.06762 8.48633 8.91502 8.48633H4.18845C4.03583 8.48633 3.88916 8.42529 3.78123 8.31738C3.67329 8.20944 3.61228 8.06281 3.61228 7.91016C3.61235 7.75767 3.67345 7.61177 3.78123 7.50391C3.88917 7.39596 4.0358 7.33496 4.18845 7.33496H8.91502ZM3.92674 2.55371C3.39167 2.55584 2.87914 2.76894 2.49998 3.14648C2.12067 3.52435 1.90538 4.03688 1.90135 4.57227L1.8701 4.87109C1.8757 4.85767 2.26818 3.93555 4.17283 3.93555H10.6504C10.5185 3.53155 10.2609 3.17997 9.91599 2.93164C9.5711 2.68332 9.1564 2.55065 8.73142 2.55371H3.92674Z" fill="#BCBFC5"/>
</svg>
