<svg xmlns="http://www.w3.org/2000/svg" fill="none" viewBox="86 41 240.18 152.59">
<path d="M309.38 90.68L309.688 90.7709C310.402 91.9669 310.038 93.2747 310.038 94.5266C310.066 116.886 310.087 139.238 310.024 161.598C310.01 165.326 310.982 168.941 310.842 172.697C310.716 175.921 309.576 178.159 306.898 179.957C301.575 183.517 296.421 187.321 291.357 191.245C288.546 193.427 285.545 194.014 282.328 192.084C282.356 191.972 282.356 191.776 282.412 191.755C287.007 190.077 286.266 186.195 286.259 182.572C286.238 172.963 286.28 163.353 286.238 153.751C286.224 149.967 287.916 146.232 286.538 142.414C286.077 136.693 286.063 130.979 286.524 125.258C287.56 117.334 287.07 109.396 286.804 101.465C286.622 100.709 286.238 99.9888 286.441 99.1776C290.238 96.1422 295.134 95.5687 299.358 93.4496C301.198 92.5264 303.219 91.9039 305.177 91.1766C306.548 90.722 307.884 90.0156 309.38 90.68Z" fill="#0677AC"/>
<path d="M282.413 192.014C285.833 193.336 288.497 192.252 291.309 190C296.561 185.789 302.142 181.985 307.654 178.096C309.101 177.075 309.836 176.026 309.829 174.131C309.738 146.344 309.724 118.55 309.696 90.7637C310.955 91.8967 310.381 93.3864 310.381 94.7152C310.423 118.327 310.43 141.931 310.437 165.542C313.263 167.06 316.249 168.291 318.76 170.368C323.068 173.928 322.76 177.795 317.907 180.495C315.892 181.614 313.696 182.383 311.815 183.733C308.346 185.852 304.765 187.748 301.415 190.098C297.708 192.699 293.141 193.252 288.756 193.434C272.565 194.098 256.507 192.51 240.484 190.258C232.218 189.097 223.986 187.587 215.607 187.188C211.285 186.978 207.047 185.719 203.305 183.614C195.388 179.166 187.254 178.705 178.47 180.404C169.259 182.188 159.859 182.95 150.501 183.817C142.626 184.544 134.744 184.894 126.855 185.363C115.56 186.041 105.566 182.859 96.047 177.236C93.4523 175.704 90.5918 174.641 87.9621 173.165C85.3045 171.669 85.3604 170.242 88.046 168.724C90.2561 167.472 92.2424 165.738 94.914 165.437C96.5716 166.654 95.4526 168.759 96.4527 170.186C103.356 174.739 110.238 179.32 117.707 182.922C130.988 181.509 144.228 179.803 157.481 178.25C163.132 177.586 168.762 176.781 174.434 176.327C177.057 176.117 178.896 175.285 178.75 172.151C178.687 170.871 179.057 169.578 180.603 169.151C185.611 170.829 190.338 168.815 195.171 168.06C199.864 167.535 204.459 166.409 209.117 165.689C210.369 165.493 211.614 165.227 212.88 165.542C214.887 166.207 214.845 167.92 214.873 169.55C214.936 173.263 214.943 176.977 214.88 180.691C214.838 182.915 215.488 183.978 217.978 184.223C234.666 185.866 251.353 187.489 267.984 189.615C270.831 189.979 273.698 190.608 276.615 190.419C278.643 190.573 280.937 189.832 282.413 192.014Z" fill="#ABBED8"/>
<path d="M116.672 183.551C109.699 179.397 102.726 175.243 95.7536 171.081C95.0682 169.878 95.4109 168.571 95.4109 167.319C95.3829 150.212 95.3899 133.105 95.3899 115.998C95.3899 99.9747 95.3969 83.9517 95.3759 67.9358C95.3759 66.6699 95.6067 65.383 95.1381 64.1451C95.1591 63.1589 94.5646 62.0539 95.6627 61.2636C100.936 60.774 106.209 61.1027 111.483 61.0888C111.923 61.3335 112.056 61.6972 111.874 62.1658C110.154 63.4947 108.126 63.0051 106.195 63.117C103.915 63.2499 101.572 62.5715 99.3694 63.6555C97.1384 64.6556 97.53 66.6978 97.523 68.4953C97.4811 78.6224 97.5021 88.7425 97.5021 98.8696C97.5021 120.516 97.607 142.162 97.4111 163.808C97.3692 168.088 98.684 170.809 102.447 172.774C105.734 174.494 108.839 176.593 111.993 178.572C115.134 180.537 115.616 180.257 115.623 176.467C115.644 159.709 115.651 142.952 115.623 126.195C115.623 125.495 115.588 124.796 115.672 124.097C115.833 116.76 115.602 109.423 115.672 102.087C115.686 100.59 115.476 99.0305 116.602 97.7646C118.973 98.3731 118.47 100.401 118.477 101.961C118.547 111.724 118.617 121.495 118.47 131.258C118.596 146.848 118.533 162.43 118.491 178.019C118.498 179.978 119.141 182.327 116.672 183.551Z" fill="#704B34"/>
<path d="M234.504 42.352C236.35 43.0933 235.623 44.7369 235.623 45.9748C235.679 60.7948 235.651 75.6078 235.651 90.4278C235.637 91.0503 235.357 91.5259 234.889 91.9175C233.483 92.7218 232.063 93.3653 230.58 92.0854C230.559 91.6797 230.692 91.33 230.965 91.0363C233.259 89.7774 233.951 87.8261 233.937 85.2524C233.854 73.5236 233.944 61.7949 233.826 50.0662C233.819 49.206 234.987 47.0518 232.329 47.4575C231.986 47.6253 231.636 47.6463 231.273 47.5414C229.559 45.8839 227.734 45.709 225.552 46.7511C222.076 48.4156 218.215 47.5764 214.536 48.059C206.808 49.0801 199.199 50.7516 191.499 51.8916C188.477 52.3392 186.337 53.8569 185.645 57.0111C185.414 57.3398 185.106 57.5776 184.736 57.7245C183.952 57.9833 183.176 57.9763 182.4 57.7035C179.679 55.3186 182.246 53.0386 182.54 50.7096C183.022 49.7515 183.84 49.178 184.785 48.7444C192.317 46.5833 200.157 46.3455 207.836 45.0936C213.327 44.1983 218.803 43.1073 224.391 42.8835C226.468 42.6527 228.363 43.7018 230.399 43.6318C229.755 43.0234 228.328 44.1144 227.874 42.5548C230.07 41.7994 232.287 42.1282 234.504 42.352Z" fill="#61372A"/>
<path d="M234.504 42.3523C232.553 42.4362 230.609 42.5272 228.601 42.6111C229.287 43.6881 230.609 42.7579 231.644 43.7441C228.965 43.7441 226.622 43.7441 224.272 43.7441C218.265 43.7651 212.271 43.9679 206.256 43.5483C201.283 43.1986 196.276 43.6532 191.303 42.9048C187.806 42.3733 184.365 43.2755 180.938 43.9119C176.938 44.6533 172.951 45.4296 168.958 45.8842C173.224 46.6815 177.567 47.3459 181.882 48.1712C182.897 48.367 183.946 48.6118 184.582 49.584C184.113 50.0106 183.638 50.4442 183.169 50.8708C182.05 51.4583 180.882 51.2205 179.756 50.9688C173.525 49.577 167.111 49.0594 161.006 47.0452C159.824 44.8141 162.593 46.2129 162.719 45.1778C171.65 43.3314 180.519 40.9116 189.716 41.0025C203.773 41.1424 217.824 41.548 231.875 41.8627C232.763 41.8907 233.756 41.506 234.504 42.3523Z" fill="#6E5C54"/>
<path d="M311.815 183.734C313.346 181.489 316.109 181.111 318.137 179.579C321.837 176.796 322.089 174.012 318.389 171.18C316.57 169.788 314.752 168.305 312.493 167.557C311.521 167.235 310.423 166.92 310.43 165.542C315.633 166.235 320.627 167.473 324.676 171.096C326.697 172.907 326.628 174.718 324.781 176.768C321.27 180.663 316.354 181.817 311.815 183.734Z" fill="#D7DFEB"/>
<path d="M234.791 91.4634C235.078 91.1207 235.365 90.778 235.644 90.4353C248.247 87.0783 261.032 89.4212 273.726 89.3093C284.741 89.2114 295.757 89.7779 306.772 90.0646C307.667 90.0856 308.66 89.8338 309.374 90.6731C307.842 90.5123 306.681 91.4145 305.422 92.0439C293.819 91.6243 282.202 91.988 270.593 91.7362C263.207 90.764 255.787 91.2326 248.38 91.1207C245.24 91.0718 242.135 91.1837 239.064 91.988C237.631 92.3656 236.099 92.6454 234.791 91.4634Z" fill="#497AA0"/>
<path d="M111.748 61.9841C111.769 61.8023 111.776 61.6135 111.769 61.4316C113.594 60.4455 115.658 61.5295 117.504 60.7672C129.198 60.3126 140.898 59.823 152.599 59.4384C154.18 59.3894 155.781 59.858 157.376 60.0888C157.439 60.5924 157.243 60.956 156.789 61.1798C152.271 62.4248 147.578 61.9841 142.997 62.194C133.989 62.6066 124.987 63.5578 115.951 63.1451C114.469 63.0822 112.895 63.278 111.748 61.9841Z" fill="#6C6461"/>
<path d="M95.6336 115.984C95.6756 134.35 95.7105 152.716 95.7525 171.082C94.2348 169.382 95.4448 167.27 94.9062 165.423C94.9412 150.876 94.9692 136.329 95.0112 121.782C95.0182 119.809 95.1021 117.837 95.151 115.858C95.3818 115.62 95.5497 115.648 95.6336 115.984Z" fill="#959A95"/>
<path d="M95.6341 115.984C95.4732 115.928 95.3124 115.886 95.1515 115.858C95.1515 98.618 95.1445 81.3781 95.1445 64.1382C95.6831 64.6837 95.711 65.3831 95.711 66.0895C95.6831 82.7209 95.6621 99.3523 95.6341 115.984Z" fill="#6C6461"/>
<path d="M157.397 60.5432C157.383 60.3893 157.376 60.2425 157.369 60.0886C157.957 60.0187 158.551 59.9487 159.139 59.8788C160.453 57.4309 159.439 54.8082 159.705 52.2764C159.929 50.1293 159.439 47.9402 159.971 45.8001C160.761 45.0308 161.782 45.2896 162.719 45.1917C162.545 46.2827 161.104 45.7651 160.81 46.6953C162.475 49.2621 161.726 52.1436 161.663 54.8642C161.586 57.9275 162.67 59.599 165.664 60.3823C168.58 61.1447 171.413 62.2357 174.301 63.1449C175.574 63.5436 177.113 63.6974 177.602 65.341C177.288 65.8935 176.777 66.1173 176.19 66.2222C170.119 65.6207 164.594 62.9211 158.698 61.6412C158.131 61.5153 157.67 61.0957 157.397 60.5432Z" fill="#6C2B1B"/>
<path d="M117.504 60.767C115.672 61.6482 113.657 60.9978 111.769 61.4314C106.398 61.3755 101.033 61.3195 95.6621 61.2636C99.5227 60.1026 103.481 60.8369 107.391 60.6971C110.755 60.5712 114.133 60.732 117.504 60.767Z" fill="#BCC1CB"/>
<path d="M159.977 45.8003C160.026 49.7448 160.096 53.6824 160.117 57.6269C160.117 58.4732 160.494 59.5712 159.145 59.879C159.214 56.2491 159.242 52.6193 159.382 48.9895C159.424 47.9194 158.893 46.6955 159.977 45.8003Z" fill="#877D7A"/>
<path d="M282.412 192.014C280.643 191.084 278.726 191.517 276.866 191.426C268.788 189.818 260.577 189.223 252.415 188.23C247.492 187.629 242.498 187.664 237.651 186.461C239.386 184.146 240.211 181.425 241.057 178.712C242.099 178.096 243.072 178.544 244.051 178.914C255.143 183.118 265.144 179.95 271.698 170.214C275.348 164.787 277.782 159.01 277.356 152.296C277.265 150.918 277.244 149.484 278.181 148.288C281.377 146.596 283.902 146.589 286.713 148.246C286.406 146.267 285.755 144.218 287.455 142.462C288.462 143.819 288.119 145.414 287.972 146.841C286.685 159.444 287.63 172.088 287.336 184.705C287.203 190.517 287.301 190.524 282.412 192.014Z" fill="#0195CF"/>
<path d="M287.455 142.456C287.196 147.925 287.196 147.946 281.545 148.058C280.384 148.079 279.279 148.191 278.258 148.764C277.209 148.449 276.929 147.568 276.754 146.652C275.782 141.547 273.271 137.238 269.949 133.336C267.214 130.51 264.319 127.88 260.843 125.957C259.773 125.37 258.388 124.999 258.367 123.369C260.752 121.236 262.773 118.593 266.13 117.816C268.459 117.697 270.795 117.767 273.131 117.746C273.922 117.739 274.698 117.851 275.474 118.012C277.936 118.774 280.468 118.362 282.965 118.432C283.762 118.383 284.559 118.439 285.35 118.502C286.182 118.579 286.972 118.747 287.532 119.446C287.741 121.264 287.832 123.09 287.476 124.901C287.469 130.755 287.462 136.602 287.455 142.456Z" fill="#29B1E6"/>
<path d="M270.543 90.6941C281.671 91.0018 292.826 90.2535 303.939 91.3515C304.534 91.4075 305.093 91.4704 305.429 92.0439C299.19 94.4218 292.952 96.7997 286.713 99.1777C282.643 100.884 278.579 100.227 274.523 99.1217C272.355 96.7158 270.11 94.3379 270.543 90.6941Z" fill="#66C7F2"/>
<path d="M274.055 98.408C278.237 99.2403 282.489 98.9326 286.714 99.1774C286.951 99.604 287.196 100.024 287.434 100.443C287.287 100.59 287.133 100.737 286.986 100.884C283.454 101.178 279.929 100.653 276.398 100.814C257.122 100.422 237.868 99.5411 218.586 99.5061C217.425 99.5061 216.257 99.4641 215.187 98.8836C214.558 96.5547 214.907 96.17 217.782 96.0581C219.055 96.8414 220.468 96.6806 221.866 96.6386C237.945 96.1141 253.989 97.6807 270.061 97.338C271.502 97.31 272.838 97.6317 274.055 98.408Z" fill="#4186AB"/>
<path d="M287.477 124.901C287.414 123.061 287.358 121.229 287.295 119.39C286.645 118.662 286.344 117.781 286.337 116.823C286.288 112.165 286.239 107.5 286.358 102.842C286.379 102.01 286.652 101.241 287.239 100.618L287.428 100.45C288.61 102.143 288.058 104.073 287.995 105.87C287.778 112.207 288.75 118.585 287.477 124.901Z" fill="#4186AB"/>
<path d="M116.671 183.551C117.811 182.132 117.475 180.446 117.475 178.845C117.475 163.003 117.454 147.169 117.44 131.328C118.286 130.769 119.217 131.314 120.105 131.118C121.217 130.867 121.993 129.027 123.385 130.265C124.728 131.461 125.413 132.993 124.959 134.867C123.979 138.35 125.455 141.462 126.455 144.645C126.56 144.973 126.714 145.442 127.015 145.484C132.176 146.218 133.351 151.729 137.275 154.051C138.848 154.982 140.1 156.184 142.08 156.422C143.744 156.625 146.052 156.744 145.122 159.639C143.115 160.36 141.282 159.639 139.422 159.115C143.842 160.64 148.472 159.604 152.983 159.996C150.759 159.73 148.472 160.374 146.29 159.583C145.577 157.366 147.185 157.317 148.549 157.345C150.172 157.373 151.78 157.59 153.424 157.576C162.537 157.513 166.978 151.52 170.489 144.302C172.594 139.973 173.531 135.399 173.244 130.587C175.853 130.797 177.769 132.293 179.595 133.986C180.385 142.295 179.721 150.617 179.951 158.926C180.049 162.472 179.406 166.088 180.945 169.501C178.93 170.144 179.742 171.844 179.812 173.047C179.958 175.55 179.357 176.746 176.51 177.061C159.285 178.97 142.08 181.139 124.861 183.083C122.154 183.384 119.454 184.58 116.671 183.551Z" fill="#243C54"/>
<path d="M237.637 185.838C243.134 187.293 248.813 187.307 254.415 187.936C261.08 188.685 267.745 189.454 274.403 190.307C275.25 190.419 276.292 190.524 276.872 191.426C267.661 190.412 258.45 189.37 249.239 188.398C238.861 187.307 228.496 186.083 218.089 185.328C214.669 185.076 213.627 183.992 213.816 180.726C214.046 176.788 213.885 172.823 213.844 168.871C213.83 167.808 214.326 166.416 212.557 166.144C212.641 164.759 213.976 163.717 213.641 162.206C213.347 153.513 213.634 144.826 213.627 136.133C213.683 126.083 213.389 116.039 213.508 105.996C213.529 104.5 213.424 102.989 213.878 101.527C214.039 101.087 214.305 100.723 214.662 100.422C216.634 101.031 216.319 102.765 216.361 104.178C216.48 107.892 216.494 111.605 216.354 115.326C216.508 128.747 216.508 142.169 216.361 155.59C216.487 160.66 216.445 165.738 216.34 170.808C216.452 173.592 216.445 176.383 216.333 179.159C216.214 182.264 217.879 183.237 220.586 183.341C225.23 183.516 229.825 184.174 234.426 184.761C235.566 184.894 236.769 184.873 237.637 185.838Z" fill="#4186AB"/>
<path d="M214.335 163.374C214.978 165.095 213.782 165.626 212.551 166.144C206.711 167.067 200.871 167.99 195.032 168.914C192.765 168.389 190.709 169.41 188.569 169.781C187.359 169.991 186.128 170.732 184.939 169.697C184.177 168.361 184.198 167.025 184.904 165.675C185.065 165.508 185.261 165.242 185.436 165.27C192.444 166.249 198.843 163.172 205.564 162.255C207.509 161.99 209.439 161.521 211.397 161.332C212.873 161.192 214.237 161.423 214.335 163.374Z" fill="#653328"/>
<path d="M185.204 169.683C187.4 169.879 189.372 168.9 191.464 168.522C192.652 168.305 193.925 168.032 195.037 168.914C192.555 169.48 190.023 169.9 187.596 170.648C185.106 171.41 183.057 170.48 180.945 169.494C178.882 168.962 178.952 167.389 178.958 165.71C178.986 154.933 178.958 144.155 178.952 133.378C177.937 132.259 177.867 130.867 177.86 129.482C177.818 123.027 177.784 116.578 177.888 110.123C177.916 108.605 177.567 106.78 179.553 105.983C181.218 107.577 180.742 109.668 180.742 111.585C180.791 128.475 180.742 145.358 180.798 162.248C180.805 164.13 180.238 166.284 182.19 167.711C183.211 168.34 184.344 168.802 185.204 169.683Z" fill="#1D212A"/>
<path d="M116.594 124.328C116.657 142.833 116.706 161.346 116.797 179.852C116.811 182.111 116.329 182.545 114.286 181.223C108.908 177.768 103.439 174.439 97.9418 171.18C96.585 170.375 96.4031 169.34 96.4031 167.99C96.4101 133.762 96.4241 99.5344 96.3262 65.3064C96.3192 62.8236 97.4242 62.6137 99.2846 62.8515C99.942 62.4459 100.537 62.8375 101.145 63.0054C105.194 64.4811 109.265 65.8869 113.447 66.9779C113.811 67.0828 114.14 67.2437 114.461 67.4395C115.385 68.034 115.825 68.8593 115.657 69.9713C115.622 82.7701 115.475 95.5689 115.727 108.354C115.846 113.683 115.587 119.047 116.594 124.328Z" fill="#DA7222"/>
<path d="M124.315 134.902C124.763 132.979 123.504 131.762 122.308 130.167C121.245 133.371 119.349 132.44 117.433 131.335C117.412 121.383 117.398 111.438 117.342 101.485C117.335 100.255 117.755 98.9257 116.846 97.8067C115.901 97.1143 115.706 96.0862 115.713 95.0372C115.762 86.8543 115.405 78.6645 115.88 70.4817C116.349 68.5374 117.699 69.0409 118.986 69.3627C121.972 68.8171 124.993 68.6843 128.015 68.7962C137.904 69.1459 147.759 68.0058 157.648 67.9149C162.732 67.866 167.831 67.2575 172.936 67.5862C173.314 67.6841 173.657 67.866 173.965 68.1108C174.16 70.139 172.503 69.7963 171.433 69.9152C169.474 70.132 167.488 69.9571 165.523 70.0061C164.754 70.0271 163.753 69.7263 163.348 70.6425C162.928 71.5727 163.509 72.44 163.977 73.2373C164.208 73.6359 164.593 73.9157 164.963 74.2024C169.747 77.8462 170.873 82.8678 167.859 87.9104C166.999 89.3511 166.957 90.4422 168.013 91.6661C169.537 93.4356 170.621 95.4078 169.258 97.6669C167.719 100.213 164.907 100.975 162.313 100.947C158.984 100.912 160.438 97.5969 159.732 95.7855C159.389 94.8903 160.361 93.8412 160.403 92.7851C160.655 91.1556 161.425 89.6099 161.194 88.1832C160.683 91.2675 160.774 94.9532 156.899 96.6807C155.396 96.5129 155.606 95.5127 156.193 94.7644C158.41 91.9599 156.969 91.0087 154.235 90.603C153.759 88.358 154.298 86.3717 156.235 85.1198C157.767 84.1337 157.501 83.0916 156.809 81.9027C155.011 78.8114 152.388 77.3077 148.731 77.6574C145.513 77.9651 143.443 79.6646 142.373 83.1476C141.968 84.4764 141.849 85.8822 141.373 87.19C141.051 88.0643 140.702 89.1833 139.527 88.7916C138.436 88.4279 138.694 87.3789 139.044 86.057C138.862 90.1135 138.939 89.8547 142.576 90.624C145.108 91.1625 147.388 92.7781 150.046 93.1488C150.262 93.2887 150.479 93.6104 150.395 93.6664C148.507 94.9392 148.143 97.0514 147.416 98.9747C145.52 99.5202 144.08 98.3732 142.52 97.6529C148.857 100.814 150.689 101.395 155.906 97.8627C156.403 97.527 156.969 97.4011 157.522 97.7997C158.354 99.3104 157.9 100.583 156.515 101.318C154.543 102.367 154.291 105.185 151.843 105.654C152.479 105.871 153.396 105.794 153.151 106.927C151.738 108.067 150.039 107.752 148.451 107.717C134.526 107.416 125.763 121.488 126.071 132.363C126.126 134.357 127.029 135.902 128.399 137.252C128.952 138.553 129.197 139.931 129.26 141.323C129.295 142.141 129.169 143.015 128.253 143.351C127.322 143.694 126.623 143.113 126.196 142.428C124.742 140.134 123.644 137.728 124.315 134.902Z" fill="#2F4C6C"/>
<path d="M100.551 63.5786C100.131 63.3408 99.7116 63.1031 99.292 62.8653C103.362 61.3756 107.629 62.6904 111.748 61.984C124.197 62.3757 136.611 61.3896 149.032 60.8301C151.816 60.7042 154.607 60.6412 157.397 60.5503C163.615 62.2218 169.832 63.9004 176.05 65.5719C175.875 67.5092 174.28 67.2155 173.147 67.1805C164.531 66.9427 155.949 67.789 147.361 68.1107C138.325 68.4464 129.24 68.1247 120.225 69.1947C117.959 69.4605 115.909 68.5863 113.916 67.6141L113.958 67.6491C109.405 66.551 105.188 64.3689 100.551 63.5786Z" fill="#F0C0A5"/>
<path d="M116.65 69.8874C116.713 79.1893 116.783 88.4911 116.845 97.7999C116.762 106.647 116.678 115.487 116.594 124.335C114.551 119.6 115.034 114.473 114.866 109.585C114.412 96.6739 114.684 83.7353 114.677 70.8106C114.677 70.1182 114.621 69.3978 115.272 68.9013C116.125 68.6775 116.405 69.258 116.65 69.8874Z" fill="#E6C09D"/>
<path d="M217.432 96.2961C215.949 96.3311 214.97 96.9745 214.732 98.5202C214.634 98.681 214.543 98.8349 214.452 98.9957C213.452 99.856 211.725 100.206 211.494 99.1426C211.214 97.8417 210.879 98.3663 210.242 98.4362C207.494 98.716 205.696 97.2752 205.402 94.6316C205.102 91.9109 206.011 90.8828 209.193 90.4632C210.578 90.2814 211.97 90.0925 213.333 89.8058C218.047 88.8336 220.572 85.8543 220.614 80.9865C220.684 72.7128 220.628 64.439 220.635 56.1653C220.635 55.1162 220.607 54.0671 220.677 53.018C220.831 50.794 221.32 49.0245 224.342 50.794C221.838 48.7378 219.628 49.9617 217.404 50.808C213.788 52.4865 209.857 51.3955 206.13 52.0879C204.535 52.5005 202.899 52.4026 201.276 52.4725C199.94 52.5285 198.94 52.8572 198.192 54.249C196.877 56.6898 195.534 56.6968 194.037 54.2C192.834 52.1928 192.1 53.004 191.436 54.3539C190.142 56.9906 188.114 58.4383 185.19 58.6551C184.861 58.1935 184.812 57.7249 185.162 57.2493C184.729 53.5006 186.799 51.7871 190.156 51.2416C200.73 49.5351 211.158 46.7375 221.964 46.6956C223.691 46.6886 225.104 46.0032 226.538 45.2548C228.881 44.0379 230.545 44.5135 231.371 47.1502C231.755 49.2134 231.734 51.2766 231.336 53.3398C230.622 56.1933 231.014 59.0887 230.986 61.9632C230.902 71.5518 231.035 81.1334 230.916 90.722C230.888 90.9388 230.853 91.1486 230.825 91.3654C230.825 91.6242 230.832 91.89 230.832 92.1487C230.825 92.6383 230.65 93.1209 230.196 93.2608C226.006 94.5057 222.132 97.1424 217.432 96.2961Z" fill="#232C38"/>
<path d="M217.432 96.296C221.929 95.0022 226.531 94.051 230.846 92.1487C232.238 92.3305 233.497 91.785 234.797 91.4633C242.798 89.547 250.939 90.0016 259.059 90.1414C262.892 90.2044 266.717 90.5051 270.55 90.6939C271.047 93.5754 273.767 95.4428 274.061 98.4082C255.961 98.1564 237.868 97.9046 219.768 97.6528C218.732 97.6458 217.565 97.8557 217.432 96.296Z" fill="#86CFF1"/>
<path d="M177.623 65.5021C172.937 63.8795 168.293 62.11 163.544 60.7043C161.523 60.1098 160.6 59.3405 160.697 57.1654C160.858 53.6824 160.788 50.1855 160.816 46.6956C168.349 47.6467 175.797 49.0595 183.176 50.8779C183.442 53.081 181.113 54.9203 182.295 57.2493C183.071 57.8718 183.428 58.739 183.421 59.6762C183.386 64.6138 183.882 69.5655 183.148 74.4892C182.364 76.0698 181.553 75.5313 181.148 74.3283C180.574 72.6218 179.567 71.0342 179.497 69.1809C179.448 67.845 179.028 66.754 177.902 65.9847C177.797 65.8238 177.707 65.6629 177.623 65.5021Z" fill="#C3561E"/>
<path d="M184.581 49.5907C177.993 48.4787 171.405 47.3597 164.327 46.1637C170.831 43.9257 188.309 41.8905 194.401 42.2262C202.64 42.6808 210.899 42.8276 219.152 43.1633C220.866 43.2333 222.649 42.8556 224.279 43.7578C211.039 45.6951 197.807 47.6394 184.581 49.5907Z" fill="#F0CBB3"/>
<path d="M232.064 47.2199C232.372 46.1289 232.567 44.9679 233.826 44.3455C234.721 45.8282 234.777 47.4088 234.777 49.0104C234.791 61.5853 234.742 74.1673 234.896 86.7423C234.931 89.7986 234.015 91.4212 230.84 91.3653L230.763 91.3303C229.882 84.2385 230.567 77.1257 230.392 70.0269C231.371 63.6905 230.924 57.2841 231.399 50.9197C231.483 49.6538 231.232 48.346 232.064 47.2199Z" fill="#CF6922"/>
<path d="M185.169 57.2424C185.225 57.669 185.281 58.0956 185.337 58.5293C186.148 59.3266 186.309 60.3756 186.302 61.4247C186.274 71.1602 186.715 80.9026 186.071 90.6381C185.309 92.8831 185.547 95.2051 185.54 97.5061C185.512 105.122 185.617 112.746 185.477 120.362C185.442 122.215 185.638 124.719 182.337 123.747C181.504 122.81 181.379 121.642 181.372 120.474C181.288 110.822 181.288 101.178 181.372 91.5263C181.379 90.5962 181.511 89.673 181.861 88.7987C183.12 87.2041 183.589 85.4487 183.554 83.3645C183.442 76.1888 183.498 69.0131 183.519 61.8444C183.526 60.2428 183.302 58.5712 184.547 57.2354C184.75 57.2004 184.959 57.2074 185.169 57.2424Z" fill="#C06236"/>
<path d="M184.539 57.2354C184.532 66.4043 184.511 75.5733 184.539 84.7422C184.546 86.4487 184.546 88.0433 182.483 88.5889C180.609 84.1827 180.811 79.7556 182.336 75.3145C182.315 69.2928 182.301 63.2711 182.28 57.2493C183.035 57.2423 183.791 57.2354 184.539 57.2354Z" fill="#E39C6A"/>
<path d="M232.062 47.2202C231.902 54.7456 232.853 62.3339 230.797 69.7544C229.936 64.1943 230.342 58.6202 230.58 53.0461C231.083 51.1158 230.034 48.9756 231.377 47.1572C231.601 47.2272 231.832 47.2551 232.062 47.2202Z" fill="#DE9967"/>
<path d="M116.65 69.8871C116.188 69.5584 115.733 69.2227 115.272 68.894C114.817 68.4674 114.37 68.0337 113.915 67.6071C122.224 68.866 130.518 67.4952 138.82 67.4253C150.164 67.3343 161.501 66.6489 172.845 66.1664C173.922 66.1244 175.181 66.7679 176.056 65.5649C176.58 65.5439 177.105 65.5229 177.629 65.502L177.58 65.509C177.916 66.1664 179.65 65.7607 178.902 67.2504C177.475 68.3555 176.119 69.7892 174.09 68.4114L173.992 68.1596C169.621 67.3903 165.222 67.9708 160.858 68.0897C152.878 68.3135 144.891 68.5443 136.911 69.0199C132.057 69.3136 127.189 69.5234 122.315 69.4255C120.825 69.3975 119.307 69.6074 117.944 70.3557C117.419 70.4466 117.531 68.8031 116.65 69.8871Z" fill="#6E5E5A"/>
<path d="M237.638 185.838C231.406 185.335 225.175 184.824 218.943 184.321C216.18 184.097 214.866 182.908 215.229 179.845C215.565 176.97 215.32 174.033 215.327 171.123C218.642 166.158 226.252 165.039 230.945 168.822C234.372 172.144 238.477 174.774 241.205 178.816C240.764 181.544 242.303 185.265 237.638 185.838Z" fill="#0FA8DF"/>
<path d="M241.197 178.817C237.35 176.257 234.364 172.718 230.888 169.739C230.286 169.403 230.3 168.913 230.545 168.368C231.944 167.822 232.783 168.823 233.524 169.627C242.071 178.866 259.283 180.104 268.774 169.319C269.151 168.886 269.655 168.557 270.13 168.221C274.697 164.451 275.222 159.031 275.879 153.744C276.355 149.883 275.376 146.127 274.215 142.449C272.97 139.308 270.606 136.756 269.508 133.539C269.613 132.986 269.844 132.58 270.508 132.692C274.83 137.21 276.935 142.798 278.257 148.764C279.271 158.57 275.963 166.899 269.83 174.411C264.675 180.719 250.652 184.566 243.148 179.488C242.595 179.111 241.847 179.034 241.197 178.817Z" fill="#0D6EA0"/>
<path d="M215.389 155.702C215.375 142.204 215.368 128.705 215.354 115.207C218.327 113.249 221.684 114.074 224.817 114.207C230.126 114.438 235.434 114.76 240.735 115.074C248.575 115.879 256.388 117.012 264.291 117.166C264.696 117.236 265.067 117.389 265.417 117.606C265.787 117.879 265.878 118.236 265.703 118.655C263.346 120.313 260.996 121.97 258.64 123.635C257.066 124.831 255.506 123.824 253.975 123.558C247.393 122.404 241.323 123.565 235.812 127.384C231.706 131.566 227.482 135.664 226.083 141.693C225.929 142.357 225.524 142.945 224.999 143.428C223.922 145.057 224.02 146.917 223.873 148.743C223.544 152.925 219.67 156.079 215.389 155.702Z" fill="#5BC0ED"/>
<path d="M275.564 118.774C274.83 118.725 274.103 118.683 273.368 118.634C270.851 117.816 268.172 118.893 265.661 118.019L265.64 118.012C263.171 117.222 260.626 117.823 258.122 117.648C254.695 117.403 254.408 116.907 255.282 113.69C255.863 111.564 255.926 109.361 255.072 107.241C254.513 105.934 253.653 104.703 254.065 103.157C255.037 101.346 256.8 101.681 258.367 101.667C263.682 101.604 269.004 101.639 274.32 101.646C275.942 101.646 277.558 101.625 279.117 101.101C280.495 100.835 281.88 100.821 283.258 100.982C284.468 101.122 285.797 101.583 285.873 102.863C286.195 108.311 287.314 113.816 285.237 119.173C284.461 119.173 283.677 119.173 282.901 119.166C280.474 118.732 277.984 119.439 275.564 118.774Z" fill="#F79B15"/>
<path d="M285.238 119.173C285.266 114.788 285.147 110.389 285.378 106.018C285.539 102.961 284.791 101.353 281.406 102.01C280.629 102.164 279.797 102.017 278.986 102.003C270.439 102.514 261.886 102.241 253.339 102.157C253.311 99.5553 255.395 100.325 256.689 100.241C262.019 99.898 267.348 100.73 272.684 100.527C274.069 100.472 275.482 100.667 276.776 99.9679C280.294 99.6952 283.783 99.933 287.245 100.618C287.266 106.878 287.28 113.13 287.301 119.39C286.616 119.32 285.924 119.243 285.238 119.173Z" fill="#A1C4C9"/>
<path d="M234.89 127.44C238.254 123.188 243.268 122.985 248.003 122.187C251.661 121.572 255.116 122.978 258.648 123.635C262.991 126.146 267.229 128.797 270.509 132.692C270.307 132.902 270.104 133.112 269.901 133.329C268.306 133.958 267.649 132.559 266.775 131.783C265.565 130.72 264.502 129.482 262.851 129.055C258.452 126.803 254.249 124.174 248.926 124.467C245.408 124.663 242.065 125.223 238.827 126.552C237.568 127.062 236.386 127.971 234.89 127.44Z" fill="#3486AF"/>
<path d="M283.075 127.643C282.984 128.727 282.698 129.804 281.397 129.776C280.411 129.755 279.753 128.971 279.711 127.929C279.662 126.691 280.145 125.398 281.397 125.342C282.446 125.3 282.908 126.552 283.075 127.643Z" fill="#1D4B62"/>
<path d="M275.565 118.774C278.027 118.592 280.503 118.312 282.902 119.166C280.44 119.313 277.964 119.809 275.565 118.774Z" fill="#A1C4C9"/>
<path d="M265.662 118.019C268.257 117.935 270.865 117.606 273.369 118.634C270.809 118.641 268.257 118.648 265.697 118.655C265.669 118.445 265.655 118.236 265.662 118.019Z" fill="#B8B89C"/>
<path d="M276.775 99.9678C275.943 101.569 274.425 101.185 273.082 101.192C267.634 101.213 262.186 101.171 256.737 101.213C255.507 101.22 254.164 100.842 253.08 101.835C251.604 103.402 249.667 102.709 247.904 102.877C246.45 103.017 244.925 102.584 243.561 103.395C242.204 105.808 243.197 108.493 242.687 111.011C242.043 112.606 242.568 114.571 241.12 115.907C232.518 116.25 223.964 114.725 215.355 115.207C215.32 111.487 215.299 107.773 215.257 104.052C215.243 102.8 215.662 101.486 214.739 100.359C213.991 99.772 214.152 99.1216 214.606 98.4502L214.746 98.5201C228.468 97.8907 242.169 99.0796 255.884 99.1775C262.843 99.2335 269.809 99.6951 276.775 99.9678Z" fill="#99D8F1"/>
<path d="M174.083 68.4043C175.999 68.81 177.153 66.9356 178.888 66.8027C181.042 68.838 180.447 71.6845 180.573 74.0694C181.056 83.574 180.79 93.0997 180.741 102.618C180.734 103.884 180.678 105.199 179.545 106.115C178.454 107.829 179.042 109.724 179.021 111.529C178.93 118.816 178.958 126.104 178.944 133.384C176.286 134.049 175.181 131.622 173.37 130.594C173.188 129.804 172.621 129.831 172.006 129.957C170.719 126.649 170.992 122.838 168.88 120.019C170.166 122.635 171.369 125.481 171.265 128.705C171.516 131.384 171.537 134.014 170.873 136.678C168.614 145.771 155.787 154.499 146.541 153.107C145.842 153.002 145.17 152.834 144.681 152.261C144.303 151.275 145.114 150.995 145.681 150.568C145.996 150.4 146.331 150.275 146.681 150.191C148.688 149.785 150.773 150.226 152.766 149.645C157.592 148.505 161.06 145.533 163.739 141.504C164.383 140.742 164.921 139.91 165.32 138.993C167.054 135.762 166.858 132.251 166.809 128.768C166.173 116.83 153.22 109.612 142.89 115.417C140.023 117.026 137.407 118.914 135.379 121.53C131.008 126.88 130.791 132.888 132.553 139.21C132.812 140.001 133.022 140.812 133.337 141.588C133.938 143.225 134.966 144.561 136.183 145.792C137.044 146.666 138.079 147.491 137.946 148.946C137.687 149.638 137.428 150.324 136.526 150.379C131.826 147.148 129.483 142.56 129.092 136.979C128.735 131.783 128.959 126.614 130.812 121.649C132.26 115.326 140.799 108.535 148.171 108.123C151.591 107.927 155.137 107.451 158.326 109.228C156.85 107.927 154.332 108.57 153.087 106.654C153.22 105.947 150.381 106.626 152.381 104.849C153.941 103.465 154.241 100.884 156.745 100.184C157.564 99.9607 157.2 98.7437 157.291 97.9604C157.92 95.8693 159.165 94.1977 160.851 92.8409C161.648 94.5264 159.298 96.6875 161.655 98.1353C159.676 102.003 162.375 100.163 163.767 99.8488C164.439 99.6949 165.089 99.4221 165.739 99.1913C169.502 97.8485 170.278 95.1769 167.502 92.4493C165.613 90.5959 164.914 89.316 167.327 87.1479C170.397 84.3923 168.453 76.9439 164.508 75.2793C162.103 74.2582 162.075 71.8803 162.124 69.9849C162.173 68.2924 164.124 69.2506 165.215 69.0897C168.159 68.6561 171.216 69.7961 174.083 68.4043Z" fill="#25425F"/>
<path d="M131.261 121.439C132.533 122.285 131.687 123.076 131.365 124.076C128.491 132.965 129.155 143.218 136.492 149.841C136.653 149.981 136.912 150.009 137.128 150.093C138.261 149.855 139.143 150.498 139.996 151.03C145.262 154.303 150.738 154.695 156.466 152.415C157.208 152.121 157.991 151.897 158.795 151.834C162.138 153.023 162.614 152.737 163.083 149.296C163.313 148.456 163.88 147.911 164.621 147.505C166.74 146.561 168.23 145.106 168.594 142.707C169.832 139.903 170.881 137.042 171.279 133.986C171.454 132.58 171.552 131.153 172.573 130.027C172.713 129.734 172.86 129.44 173 129.139C173.58 129.51 173.252 130.104 173.364 130.594C175.049 138.854 169.769 151.652 162.502 156.212C158.523 158.709 153.886 158.758 149.361 158.297C147.997 158.157 146.878 157.723 146.074 159.178C145.857 159.395 145.633 159.416 145.402 159.206C144.85 158.29 144.164 157.283 143.073 157.269C136.443 157.192 133.764 151.848 130.176 147.722C129.491 146.939 129.218 145.211 127.896 147.092C127.12 148.205 126.533 147.197 126.4 146.792C125.127 142.938 122.658 139.266 124.323 134.895C124.497 137.986 125.54 140.686 128.001 143.169C129.057 140.749 127.519 138.735 127.757 136.686C125.847 131.671 127.631 123.908 131.261 121.439Z" fill="#152B3F"/>
<path d="M145.395 159.199C145.626 159.296 145.849 159.289 146.066 159.171C148.731 159.171 151.395 159.171 154.249 159.171C151.018 161.542 143.255 161.332 137.688 158.695C140.541 158.52 142.926 159.723 145.395 159.199Z" fill="#B5C5D0"/>
<path d="M214.599 98.4498C214.641 99.0862 214.69 99.7227 214.732 100.359C214.648 100.646 214.564 100.933 214.48 101.219C213.767 101.478 213.124 101.191 212.466 100.996C202.01 99.1772 194.205 107.815 192.576 117.109C192.205 119.229 191.575 121.39 191.785 122.858C191.785 124.075 192.583 123.649 192.121 123.712C192.079 123.719 192.044 123.663 192.051 123.551C192.156 122.551 190.883 120.998 193.128 120.851C194.359 123.033 193.827 125.362 193.653 127.649C193.611 128.216 193.394 128.859 192.771 129.048C191.939 129.3 191.52 128.607 191.156 128.055C189.694 125.859 189.869 123.145 188.806 120.921C188.554 121.662 188.757 123.054 187.421 123.04C185.847 123.019 186.295 121.655 186.218 120.669C186.099 119.152 184.84 117.984 184.896 116.396C185.036 107.85 184.638 99.31 185.106 90.7775C185.183 80.0279 185.253 69.2784 185.33 58.5358C187.694 56.8922 190.785 56.025 191.268 52.4511C191.38 51.6398 192.513 51.5139 193.366 51.6538C194.443 51.8287 195.198 52.542 194.898 53.5632C194.464 55.0459 195.436 55.1158 196.303 55.2836C197.702 55.5494 197.387 54.6612 197.289 53.794C197.073 51.9196 198.611 51.7727 199.807 51.6538C201.647 51.472 203.521 51.5769 205.381 51.5559C209.403 51.5069 213.473 52.0315 217.341 50.3949C220.425 47.0449 223.23 48.8003 226.139 50.8216C224.642 52.1714 223.279 51.5 221.6 50.276C221.6 60.0884 221.194 69.3833 221.712 78.6222C222.237 87.98 217.341 90.8824 209.585 91.421C207.801 91.5469 206.032 91.1972 206.186 93.9877C206.319 96.3796 207.221 98.0302 209.69 97.6385C211.543 97.3308 212.697 99.9815 214.599 98.4498Z" fill="#343D49"/>
<path d="M185.365 117.354C187.085 118.669 187.82 120.362 186.421 123.397C188.652 121.572 187.47 119.516 189.072 118.725C190.624 121.782 190.484 125.46 192.785 128.475C192.785 125.859 192.785 123.243 192.785 120.628C192.037 118.865 191.736 117.173 193.499 115.788C195.457 116.033 195.079 117.571 194.884 118.704C193.96 123.999 195.415 129.027 196.38 134.112C199.786 139.245 204.801 140.574 210.585 140.175C212.088 140.071 212.977 139.469 213.054 137.895C213.124 137.371 213.27 136.881 213.536 136.427C213.662 136.308 213.795 136.189 213.921 136.063C214.096 136.105 214.264 136.14 214.438 136.182C214.613 145.246 214.858 154.31 214.327 163.374C213.473 161.808 212.123 162.031 210.697 162.29C204.794 163.332 199.003 164.976 193.016 165.591C192.464 165.647 191.778 165.78 191.422 166.137C189.617 167.962 188.037 168.438 186.596 165.745C186.47 165.507 185.722 165.598 185.267 165.535C183.945 164.248 184.127 162.556 184.12 160.954C184.078 149.82 183.959 138.686 184.183 127.559C184.26 124.166 184.694 120.726 185.365 117.354Z" fill="#1D212A"/>
<path d="M214.447 136.182C214.251 136.168 214.062 136.154 213.866 136.126C212.083 133.399 213.699 130.216 212.642 127.104C210.181 128.405 207.761 129.601 206.117 131.895C205.348 132.958 204.816 134.175 205.411 135.469C206.082 136.923 207.516 136.595 208.761 136.651C210.488 136.735 212.083 135.525 213.859 136.14C213.859 136.644 213.866 137.154 213.866 137.658C209.509 140.7 203.928 140.371 199.137 136.84C198.06 136.049 197.298 134.699 195.696 134.769C194.326 129.405 192.815 124.062 194.109 118.439C194.319 117.522 194.549 116.627 193.682 115.9C193.353 115.543 193.186 115.131 193.269 114.641C194.661 106.388 204.537 99.3384 213.111 100.471C213.573 100.716 214.027 100.968 214.489 101.213C214.475 112.879 214.461 124.53 214.447 136.182Z" fill="#32292B"/>
<path d="M215.389 155.702C216.634 154.842 218.334 155.269 219.523 154.052C221.446 152.079 223.719 150.513 223.111 147.093C222.887 145.862 223.013 144.071 224.565 143.162C225.489 144.225 225.433 145.547 225.328 146.778C224.81 153.191 226.398 159.087 229.44 164.675C230.035 165.759 230.748 166.871 230.524 168.235C230.643 168.739 230.755 169.235 230.874 169.739C225.852 166.312 221.096 166.738 215.312 171.124C215.34 165.983 215.368 160.843 215.389 155.702Z" fill="#34B1E5"/>
<path d="M185.365 117.355C184.946 133.412 185.141 149.47 185.274 165.535C185.253 166.92 185.225 168.305 185.204 169.683C184.169 169.969 183.281 169.683 182.484 169.004C181.344 167.515 181.316 165.773 181.309 164.018C181.302 152.17 181.288 140.315 181.33 128.468C181.337 126.761 181.071 124.936 182.512 123.551C185.057 123.768 184.512 121.873 184.519 120.488C184.568 111.815 184.547 103.143 184.596 94.4636C184.603 93.2257 184.225 91.9038 185.106 90.7778C185.19 99.6321 185.281 108.493 185.365 117.355Z" fill="#9E3F23"/>
<path d="M182.511 123.544C182.504 138.7 182.49 153.848 182.483 169.004C180.035 168.605 179.581 167.088 179.588 164.78C179.644 145.225 179.574 125.67 179.539 106.115C179.567 93.9809 179.609 81.8465 179.623 69.7192C179.623 68.6981 179.811 67.607 178.881 66.8167C178.441 66.3831 178 65.9495 177.566 65.5159C179.154 65.4739 180.434 65.9635 180.357 67.7959C180.238 70.5375 181.763 72.7895 182.343 75.3143C182.392 79.7414 182.441 84.1615 182.483 88.5886C182.49 100.24 182.497 111.892 182.511 123.544Z" fill="#6C2B1B"/>
<path d="M100.552 63.5786C105.426 63.5856 109.595 65.9425 113.952 67.642C109.231 67.1315 104.93 65.2432 100.552 63.5786Z" fill="#6E5E5A"/>
<path d="M150.298 93.6522C147.892 93.5472 145.486 93.785 143.542 91.6869C142.227 90.2671 140.793 91.6939 139.569 92.4632C138.136 90.0084 138.443 87.5955 138.576 85.0847C139.597 85.9799 138.562 87.4626 139.933 88.4487C140.682 86.7912 140.919 85.1756 141.234 83.525C142.08 79.1469 145.116 76.748 149.578 76.713C153.921 76.678 157.404 79.2238 158.369 83.1404C158.642 84.2594 159.145 85.0847 157.166 85.4763C154.634 85.9799 155.264 88.8474 154.452 90.6588C154.11 93.1136 152.788 94.1977 150.298 93.6522Z" fill="#1B1F29"/>
<path d="M131.261 121.439C128.078 126.062 127.75 131.336 127.75 136.686C125.742 136.21 124.7 134.749 124.868 132.063C125.686 119.341 134.45 105.857 150.298 106.696C151.221 106.745 152.158 106.668 153.081 106.647C156.117 107.354 159.012 108.347 161.467 110.746C145.094 107.389 137.226 110.207 131.261 121.439Z" fill="#C0CCD5"/>
<path d="M150.298 93.6522C152.172 93.3305 153.445 92.1835 154.452 90.6588C155.718 90.1832 157.243 89.33 158.25 90.5119C159.411 91.8687 158.117 93.2256 157.425 94.4984C157.103 95.0859 155.823 95.3097 156.634 96.3728C154.585 99.9746 150.242 101.01 147.361 98.5829C145.339 95.1559 147.829 94.4075 150.298 93.6522Z" fill="#747F8C"/>
<path d="M117.937 70.3559C118.405 68.7893 119.72 69.139 120.825 69.125C136.267 68.8452 151.661 67.1247 167.117 67.6772C169.397 67.7612 171.873 65.656 173.978 68.1598C155.305 68.8942 136.624 69.6215 117.937 70.3559Z" fill="#97A4B1"/>
<path d="M147.361 98.5829C150.9 99.716 153.928 98.7088 156.635 96.3729C159.782 93.8761 160.992 90.498 161.034 85.8821C161.621 88.7076 161.307 90.7778 160.852 92.841C159.936 94.7363 158.831 96.4988 157.292 97.9605C150.242 103.402 146.598 101.241 140.381 96.5058C143.143 96.7785 144.934 98.8697 147.361 98.5829Z" fill="#BBC7D2"/>
<path d="M230.588 53.0386C230.657 58.6057 230.727 64.1798 230.797 69.7469C230.783 76.9436 230.769 84.1333 230.755 91.323C229.846 90.8404 230 89.9662 230 89.1689C230 77.7689 230.014 66.3689 230.021 54.9689C230.028 54.2765 230.007 53.5701 230.588 53.0386Z" fill="#61372A"/>
<path d="M217.334 50.3882C213.508 52.3884 209.535 52.927 205.374 51.5492C209.256 50.0805 213.41 51.3743 217.334 50.3882Z" fill="#78808A"/>
<path d="M230.531 168.235C225.349 160.64 223.195 152.324 224.566 143.162C226.188 137.812 228.692 133 232.748 129.034C233.42 128.377 234.196 127.992 234.889 127.44C244.659 122.118 254.227 121.817 263.508 128.587C269.494 132.93 273.376 138.728 275.383 145.82C276.719 151.499 276.243 157.024 274.131 162.458C273.201 164.857 272.173 167.144 270.368 169.018C259.059 180.873 243.589 181.048 232.126 169.473C231.657 168.997 231.07 168.641 230.531 168.235Z" fill="#E9ECE9"/>
<path d="M270.367 169.018C274.473 161.598 276.375 153.779 274.717 145.302C274.298 144.12 274.165 142.931 274.731 141.756C278.228 150.135 277.242 158.269 273.312 166.207C272.696 167.452 271.794 168.543 270.367 169.018Z" fill="#658093"/>
<path d="M274.733 141.749C274.726 142.931 274.726 144.113 274.719 145.295C272.523 138.693 268.606 133.238 263.508 128.58C266.508 128.985 267.48 132.118 269.893 133.321C271.677 136.035 273.53 138.707 274.733 141.749Z" fill="#9DB4BF"/>
<path d="M241.12 115.907C241.197 114.235 241.008 112.522 241.882 110.969C242.288 110.452 242.659 109.864 243.47 110.011C243.981 110.193 244.253 110.571 244.344 111.088C244.337 111.92 244.442 112.914 245.281 113.123C247.806 113.746 250.352 114.543 252.996 114.026C254.234 113.781 254.975 112.942 254.884 111.564C255.031 109.948 254.548 108.193 255.919 106.857C257.073 110.13 257.381 113.312 254.744 116.18C258.304 118.117 262.249 116.425 265.648 118.005C257.388 118.243 249.247 117.18 241.12 115.907Z" fill="#B8B89C"/>
<path d="M243.274 110.263C242.813 110.501 242.344 110.738 241.882 110.969C242.036 108.165 241.477 105.325 242.379 102.562C245.33 102.898 248.324 102.29 251.275 102.933C252.387 103.178 253.569 103.143 254.408 104.087C254.912 105.01 255.416 105.934 255.912 106.857C255.842 108.675 255.772 110.487 255.702 112.298C255.374 112.774 254.884 112.878 254.353 112.864C252.422 112.466 250.408 112.809 248.499 112.291C247.54 112.032 246.079 111.836 246.198 110.64C246.331 109.305 247.785 109.696 248.869 109.633C247.575 109.409 246.128 108.745 246.596 107.549C247.499 105.276 249.82 107.053 251.331 106.458C249.632 106.598 247.848 106.619 246.086 106.731C243.47 106.913 243.967 108.913 243.274 110.263Z" fill="#59A4C3"/>
<path d="M277.613 110.011C277.264 111.893 276.97 114.452 274.11 114.466C271.683 114.48 270.543 112.606 270.501 110.186C270.459 107.913 271.214 106.172 273.781 106.214C275.921 106.242 277.697 107.025 277.613 110.011Z" fill="#655445"/>
<path d="M254.415 104.094C251.079 103.877 247.764 103.003 244.4 103.562C243.4 103.73 242.889 103.255 242.393 102.569C245.869 101.017 249.547 102.499 253.086 101.835C261.724 101.891 270.354 101.947 278.991 102.003C272.501 103.255 265.948 102.283 259.43 102.569C258.395 102.611 257.359 102.576 256.324 102.541C255.212 102.506 254.583 103.01 254.415 104.094Z" fill="#CBB072"/>
<path d="M283.215 104.339C283.096 105.269 282.669 105.905 281.718 105.905C280.942 105.905 280.48 105.374 280.438 104.612C280.389 103.716 280.816 102.989 281.711 102.898C282.648 102.8 283.054 103.527 283.215 104.339Z" fill="#908B64"/>
<path d="M233.658 108.109C233.245 109.396 232.273 109.64 231.168 109.459C230.259 109.312 229.266 109.102 229.608 107.738C229.867 106.689 230.525 106.115 231.588 106.192C232.749 106.276 233.42 106.99 233.658 108.109Z" fill="#5A7477"/>
<path d="M220.524 102.933C220.51 103.668 220.083 104.031 219.461 104.08C218.468 104.157 217.957 103.591 217.95 102.626C217.943 102.01 218.174 101.346 218.86 101.402C219.727 101.458 220.202 102.192 220.524 102.933Z" fill="#71746E"/>
<path d="M132.751 141.756C132.031 141.232 132.206 140.427 132.101 139.707C129.835 132.923 131.185 126.677 134.912 120.782C139.151 115.914 144.088 112.361 150.893 112.382C159.538 112.41 167.196 119.76 167.762 128.552C164.615 128.244 162.111 130.181 159.286 131.007C157.216 131.608 155.299 132.972 152.97 132.161C152.558 131.72 152.404 131.167 152.257 130.601C150.46 123.586 146.76 122.621 141.452 127.657C139.878 129.146 138.85 130.615 139.766 132.832C140.766 135.245 142.375 136.93 145.088 137.301C146.34 137.476 147.627 136.742 148.858 137.441C148.984 140.714 146.312 141.323 144.123 141.98C141.403 142.798 139.318 144.169 137.955 146.645C134.814 146.512 134.332 143.547 132.751 141.756Z" fill="#8A3620"/>
<path d="M137.688 146.659C137.799 143.812 139.597 142.427 142.094 141.77C144.793 141.057 147.367 140.21 148.92 137.63C149.892 135.447 151.493 133.748 153.165 132.104C157.529 130.678 161.949 129.426 165.999 127.167C167.509 126.327 166.838 128.496 167.754 128.552C167.978 132.531 168.335 136.532 165.698 140.001C162.726 140.567 160.383 138.909 157.879 137.797C156.263 137.084 154.62 136.266 153.48 138.518C152.459 139.896 151.144 140.896 149.612 141.63C147.612 142.225 146.996 143.728 146.975 145.631C146.961 147.379 146.814 149.107 146.003 150.701C146.045 150.827 146.066 150.96 146.059 151.093C142.38 151.282 139.394 150.191 137.688 146.659Z" fill="#CC621B"/>
<path d="M149.486 140.959C150.647 140.036 151.801 139.12 152.962 138.197C154.585 136.252 156.459 136.147 158.32 137.707C160.222 139.295 163.075 139.511 164.341 141.98C161.872 146.344 158.369 149.324 153.319 150.254C150.396 149.716 148.836 147.289 147.325 145.246C145.856 143.274 148.192 142.134 149.486 140.959Z" fill="#F8CA96"/>
<path d="M164.824 147.988C164.376 148.435 163.929 148.89 163.481 149.337C162.887 151.38 161.201 151.911 159.404 152.303C151.536 155.989 144.052 155.835 137.121 150.1C137.058 149.547 137.142 149.051 137.695 148.757C140.381 148.806 142.325 150.61 144.598 151.638C151.564 153.709 156.963 150.526 162.551 146.869C169.44 142.351 170.853 135.867 170.692 128.468C172.979 129.916 171.286 132.182 171.832 133.986C171.874 137.308 170.202 140.127 169.118 143.12C168.048 145.05 166.726 146.778 164.824 147.988Z" fill="#6294B5"/>
<path d="M149.488 140.959C147.48 143.274 146.886 145.288 150.229 147.092C151.467 147.757 152.292 149.177 153.313 150.254C150.942 151.436 148.473 151.142 146.005 150.701C146.033 148.659 145.928 146.603 146.123 144.575C146.312 142.623 147.103 140.98 149.488 140.959Z" fill="#EEA256"/>
<path d="M164.342 141.973C162.565 140.966 160.509 140.252 159.076 138.882C157.04 136.937 155.166 136.944 152.963 138.196C153.32 135.329 155.229 135.72 156.977 136.483C159.852 137.742 162.656 139.154 165.706 139.994C165.461 140.805 165.09 141.518 164.342 141.973Z" fill="#EEA256"/>
<path d="M171.824 133.979C170.573 132.322 171.957 130.112 170.684 128.461C170.3 125.041 169.23 121.796 168.139 118.544C171.062 121.824 171.95 125.873 172.566 130.028C172.321 131.342 172.076 132.657 171.824 133.979Z" fill="#B1C9D5"/>
<path d="M144.599 151.632C141.948 151.499 139.934 149.862 137.696 148.75C136.234 146.288 133.101 145.008 132.751 141.756C134.66 143.127 135.346 145.736 137.696 146.659C140.06 148.939 142.948 150.226 146.067 151.079C145.571 151.268 145.088 151.45 144.599 151.632Z" fill="#152B3F"/>
<path d="M134.91 120.782C134.078 122.915 133.357 125.097 132.392 127.167C130.441 131.328 131.93 135.525 132.098 139.707C129.196 134.042 130.497 125.328 134.91 120.782Z" fill="#152B3F"/>
<path d="M159.411 152.296C160.768 151.309 162.125 150.323 163.489 149.337C164.363 151.302 163.307 152.449 161.817 153.498C160.18 154.638 159.761 153.589 159.411 152.296Z" fill="#243C54"/>
<path d="M164.823 147.988C165.886 146.037 167.467 144.54 169.117 143.106C169.096 145.974 167.383 147.358 164.823 147.988Z" fill="#243C54"/>
<path d="M196.478 73.2719C197.905 73.188 198.233 72.1529 198.716 71.0199C199.709 68.6979 200.604 66.271 202.66 64.5715C203.577 63.8162 204.43 62.9769 205.906 64.3337C204.241 65.8024 202.339 67.1802 202.045 69.6561C203.276 69.5582 203.199 68.4671 203.682 67.8587C205.577 65.4807 207.976 64.2988 210.969 65.2289C213.956 66.1521 216.026 69.691 216.089 72.5236C216.145 75.1603 213.984 77.5312 215.305 80.2518C215.466 80.8952 215.235 81.126 214.592 80.9372C212.06 80.9861 209.955 82.7696 207.234 82.4688C204.801 82.1961 202.458 82.0842 200.394 80.5595C199.366 79.8042 198.205 79.3496 196.821 79.6923C195.345 80.063 195.939 78.7761 195.723 78.1536C195.177 76.3982 195.037 74.7196 196.478 73.2719Z" fill="#1B1F28"/>
<path d="M214.6 80.9308C214.837 80.7 215.075 80.4762 215.313 80.2454C216.586 80.5601 218.544 79.4131 218.796 81.8959C219.111 85.0152 216.915 86.6378 214.684 87.6729C212.55 88.666 210.033 88.8968 207.655 89.2605C206.186 89.4843 204.472 89.5962 204.158 87.47C203.864 85.4838 204.815 84.7005 206.829 84.3158C209.613 83.7843 213.061 84.4137 214.6 80.9308Z" fill="#59646F"/>
<path d="M213.11 100.478C202.899 101.325 196.373 106.5 193.681 115.907C192.485 117.313 193.016 119.04 192.786 120.628C191.932 121.642 192.226 123.006 191.883 124.775C189.568 114.354 195.933 102.555 206.186 100.213C208.466 99.695 210.865 98.8907 213.11 100.478Z" fill="#929CA3"/>
<path d="M209.242 61.3126C208.235 60.6762 209.9 58.8578 207.725 58.8368C206.172 58.8298 206.508 59.4313 206.382 60.4384C206.151 62.2498 205.06 61.1308 204.535 60.6412C202.563 58.7948 203.353 56.8016 204.633 55.0461C206.032 53.1228 208.137 53.0389 209.844 54.3397C211.529 55.6266 212.711 57.5149 210.977 59.718C210.494 60.3335 209.816 60.7881 209.242 61.3126Z" fill="#1A1D26"/>
<path d="M196.478 73.2721C195.981 74.8597 195.645 76.4683 195.736 78.1468C194.037 73.5029 195.436 68.9918 196.478 64.4668C196.478 67.4042 196.478 70.3416 196.478 73.2721Z" fill="#727B82"/>
<path d="M209.151 152.247C210.375 154.905 209.802 156.08 206.62 156.576C202.227 157.262 197.709 157.52 193.513 159.297C189.799 160.87 188.128 159.59 188.82 155.583C189.694 150.512 189.785 145.47 188.883 140.413C188.757 139.721 188.645 138.952 189.387 138.553C190.317 138.049 191.261 138.308 191.911 139.07C193.667 141.127 195.982 142.476 198.066 144.113C199.563 145.288 201.444 146.204 203.214 145.854C206.403 145.218 209.515 145.596 213.648 145.743C210.074 146.813 208.263 148.407 209.018 151.589C207.774 152.065 206.536 150.967 205.305 151.603C207.109 153.688 207.109 153.688 209.151 152.247Z" fill="#2E343D"/>
<path d="M195.701 134.769C196.226 133.706 196.855 133.405 197.771 134.406C202.345 139.378 207.891 139.595 213.871 137.658C214.445 140.197 213.473 141.12 210.843 141.211C204.723 141.42 199.352 140.21 195.701 134.769Z" fill="#4E5D6D"/>
<path d="M209.151 152.247C209.102 153.443 209.011 154.695 207.529 154.954C206.27 155.177 205.619 154.443 205.417 153.212C205.13 151.478 203.409 153.919 202.969 152.128C204.752 150.226 206.689 149.512 209.011 151.59C208.997 151.82 209.046 152.037 209.151 152.247Z" fill="#908D8E"/>
<path d="M213.858 136.14C211.977 137.064 210.067 137.728 207.899 137.644C204.101 137.497 203.087 135.819 204.703 132.252C206.311 128.699 210.228 127.874 212.781 125.419C213.669 124.565 213.928 126.048 213.935 126.783C213.949 129.895 213.9 133.014 213.872 136.126C213.865 136.126 213.858 136.14 213.858 136.14Z" fill="#947F6F"/>
<path d="M209.738 119.627C209.57 120.565 209.675 122.194 208.507 121.579C206.877 120.719 204.688 119.977 204.262 117.809C203.968 116.305 205.269 115.851 206.528 115.893C208.969 115.984 209.409 117.816 209.738 119.627Z" fill="#6D5D58"/>
<path d="M257.178 128.531C264.605 131.398 269.088 136.909 271.375 144.379C271.41 147.253 271.62 150.128 271.431 153.002C271.229 156.107 270.55 156.401 267.844 154.751C263.43 152.051 262.731 152.114 259.136 155.506C257.164 156.989 255.052 158.101 252.492 158.045C250.387 157.94 248.554 157.184 247.037 155.716C246.337 154.723 245.33 153.834 245.897 152.408C249.051 153.219 252.051 153.051 255.003 151.436C259.08 149.204 259.248 146.876 255.353 144.099C251.093 142.84 249.079 143.518 246.715 147.022C245.799 148.687 247.631 150.68 246.093 152.261C243.75 152.345 243.092 149.4 240.456 149.435C238.05 149.47 235.651 149.281 233.21 149.561C230.468 149.876 229.909 151.352 230.461 153.653C231.531 158.122 233.266 162.269 236.574 165.591C239.225 168.522 242.337 170.613 246.379 171.053C255.339 173.075 262.276 169.794 267.823 162.878C268.851 162.073 269.27 160.821 270.04 159.828C270.375 159.395 270.816 158.877 271.382 159.548C271.725 159.947 271.494 160.416 271.348 160.849C266.69 175.243 248.547 179.635 235.994 169.41C226.678 161.821 223.95 149.044 229.188 137.518C231.496 136.406 232.385 133.902 234.308 132.377C241.253 126.88 248.883 125.817 257.178 128.531Z" fill="#19212B"/>
<path d="M271.361 160.85C271.305 160.633 271.291 160.388 271.193 160.199C270.99 159.822 270.732 159.829 270.585 160.234C270.123 161.493 269.829 162.857 268.375 163.431C266.927 162.088 265.983 160.339 264.584 158.933C262.856 157.199 261.108 155.611 258.66 155.017C262.514 150.394 263.311 150.401 270.263 155.248C271.263 151.646 269.606 147.82 271.375 144.386C273.487 149.869 273.424 155.36 271.361 160.85Z" fill="#273442"/>
<path d="M257.178 128.531C252.933 128.489 248.8 127.272 244.422 128.307C239.162 129.545 235.106 132.167 231.952 136.406C231.252 137.35 230.658 138.462 229.21 137.511C234.308 127.817 248.681 123.201 257.178 128.531Z" fill="#4B525B"/>
<path d="M243.274 110.263C242.379 106.353 242.519 106.102 246.463 106.06C248.421 106.039 250.387 106.29 252.338 106.542C252.96 106.626 253.87 107.046 253.415 107.927C252.856 109.032 252.394 108.221 251.974 107.661C251.527 107.067 250.883 106.738 250.156 106.808C249.093 106.913 247.442 106.123 247.149 107.563C246.862 108.941 248.554 108.682 249.464 108.997C250.1 109.214 250.855 109.228 251.198 110.305C250.324 110.305 249.547 110.305 248.778 110.305C248.1 110.305 247.414 110.305 246.498 110.305C248.946 112.669 252.17 110.655 254.471 112.41C250.282 114.361 246.064 113.802 243.854 111.004C243.659 110.766 243.47 110.515 243.274 110.263Z" fill="#21556B"/>
<path d="M243.854 111.018C247.169 113.207 250.848 112.606 254.471 112.424C254.883 112.382 255.296 112.347 255.715 112.305C255.82 112.9 255.743 113.452 255.289 113.893C253.428 115.676 245.644 115.355 243.952 113.424C243.273 112.648 242.973 111.858 243.854 111.018Z" fill="#96D0E2"/>
<path d="M153.172 132.105C152.494 134.518 151.102 136.378 148.92 137.63C146.661 138.155 144.416 138.854 142.206 137.371C139.765 135.742 137.806 131.818 138.45 129.636C139.17 127.195 145.08 123.321 147.584 123.649C150.563 124.041 152.612 126.559 153.039 130.37C153.102 130.944 153.123 131.524 153.172 132.105Z" fill="#48353B"/>
<path d="M211.725 76.5172C211.249 78.0558 210.9 79.5595 208.907 79.5105C207.857 79.4826 206.494 79.4966 206.48 78.2237C206.459 76.0765 208.795 76.741 209.942 75.9157C210.158 75.7548 211.543 75.2653 211.725 76.5172Z" fill="#4D5663"/>
<path d="M258.66 155.009C260.15 154.499 261.451 154.415 262.584 155.891C264.514 158.401 267.885 159.793 268.375 163.416C262.92 170.99 255.233 173.893 246.099 171.823C244.491 170.99 244.582 169.606 245.141 168.27C246.869 164.129 249.415 160.506 252.436 157.212C254.863 157.478 256.702 156.093 258.66 155.009Z" fill="#8E97A1"/>
<path d="M246.079 152.261C245.981 153.478 247.128 154.08 247.47 155.08C246.176 156.234 244.442 156.639 243.064 157.695C240.064 159.996 237.133 162.297 236.273 166.27C231.874 162.563 230.188 157.507 229.335 152.079C228.972 149.778 230.014 148.582 232.468 148.757C234.637 148.911 236.637 147.848 238.952 148.261C241.917 148.785 244.694 149.149 246.086 152.268L246.079 152.261Z" fill="#273442"/>
<path d="M236.266 166.27C236.329 161.311 242.203 155.443 247.463 155.08C248.862 156.387 250.533 157.066 252.428 157.22C251.198 160.773 248.421 163.388 246.742 166.668C245.91 168.298 244.84 169.921 246.092 171.823C241.987 171.452 238.783 169.473 236.266 166.27Z" fill="#3F4E5C"/>
<path d="M246.086 152.275C246.737 150.407 244.338 148.54 246.072 146.673C246.814 147.022 247.268 147.757 248.01 148.099C251.227 149.575 253.877 148.435 254.919 145.12C255.129 144.456 255.311 143.798 255.787 143.274C260.71 146.722 260.55 149.932 255.115 152.24C252.227 153.464 249.087 155.877 246.079 152.275C246.079 152.261 246.086 152.275 246.086 152.275Z" fill="#273442"/>
<path d="M255.793 143.26C255.877 149.051 254.101 150.554 248.519 149.414C247.016 149.107 245.939 148.428 246.079 146.673C248.03 142.756 250.862 141.763 255.793 143.26Z" fill="#445260"/>
<path d="M151.759 130.335C151.556 131.105 152.165 132.342 150.675 132.384C149.787 132.405 145.339 127.419 145.465 126.608C145.674 125.3 146.646 124.852 147.766 125.062C150.633 125.6 151.773 127.552 151.759 130.335Z" fill="#A76C5A"/>
</svg>