<svg xmlns="http://www.w3.org/2000/svg" fill="none" viewBox="110.67 36.29 190.33 177.8">
<path d="M276.918 162.221C280.896 162.474 284.722 163.497 288.501 164.666C290.035 165.137 291.616 165.815 291.623 168.013C291.623 170.032 290.421 170.936 288.893 171.772C281.427 175.851 273.896 179.816 266.098 183.243C260.818 185.561 255.949 188.616 251.12 191.725C249.633 192.681 248.198 193.717 246.378 193.956C243.283 190.881 243.23 189.865 246.033 186.949C246.71 186.239 247.388 185.528 248.079 184.824C253.419 179.211 260.579 176.741 267.38 173.659C269.08 172.888 270.94 172.496 272.687 171.819C277.522 169.946 278.153 168.737 277.044 163.517C276.944 163.078 276.811 162.666 276.918 162.221Z" fill="#B9CDDF"/>
<path d="M276.917 162.221C279.693 165.356 278.943 169.913 275.217 171.62C270.129 173.958 264.636 175.286 259.655 177.976C255.67 180.128 251.704 182.22 248.39 185.348C246.929 186.371 245.268 186.969 243.595 187.547C241.164 188.384 238.965 189.354 237.982 192.163C237.139 194.574 234.449 194.913 232.476 196.022V196.015C229.527 196.706 226.678 196.52 224.021 194.973C222.752 194.229 221.557 193.392 222.547 191.625C223.735 190.536 224.546 191.579 225.422 192.156C229.262 194.7 232.669 193.452 233.991 189.008C234.183 188.371 234.23 187.706 234.362 187.055C234.582 185.966 234.568 185.946 233.705 185.608C232.503 185.136 233.107 184.365 233.506 183.754C234.475 182.26 236.182 181.456 237.132 179.929C237.664 179.51 238.275 179.411 238.925 179.477C239.556 179.57 240.094 179.862 240.586 180.261C240.925 180.546 241.224 180.872 241.569 181.151C245.501 180.135 249.054 178.288 252.555 176.302C255.723 174.509 258.765 172.51 261.946 170.743C263.547 169.853 264.982 169.501 266.868 170.544C269.345 171.912 271.717 171.042 273.563 168.963C271.856 170.789 270.567 170.909 269.312 169.209C268.641 168.299 268.356 167.216 268.276 166.107C268.03 162.633 269.658 159.458 269.89 156.044C269.963 155.022 271.119 154.583 272.321 154.178C271.112 154.457 270.156 155.075 269.12 154.464C268.01 153.301 268.86 152.219 269.319 151.163C269.797 150.067 270.461 149.037 270.189 147.755C272.022 146.168 274.234 145.172 276.213 143.803C276.99 143.265 277.94 142.727 278.936 143.531C278.617 146.699 280.059 150.186 276.14 152.531C273.955 153.833 274.878 161.132 276.917 162.221Z" fill="#7C95B3"/>
<path d="M214.589 193.232C212.643 191.366 210.113 191.12 207.642 190.728C198.875 189.333 190.101 187.965 181.334 186.564C180.802 186.477 180.304 186.178 179.793 185.979C178.903 184.697 178.345 183.236 177.501 181.928C177.089 180.526 176.292 179.39 175.256 178.361C174.685 177.796 173.888 176.986 175.283 176.322C187.809 176.873 200.024 179.45 212.258 181.881C214.052 182.705 215.765 183.661 217.479 184.657C221.245 186.849 219.969 191.014 216.735 192.402C216.031 192.701 215.34 193.039 214.589 193.232Z" fill="#AFC6DA"/>
<path d="M176.519 100.253C177.223 89.0344 177.966 77.8163 178.611 66.5915C179.116 57.8972 179.521 49.203 179.913 40.5021C180.052 37.4535 182.403 36.2181 184.562 36.2911C189.258 36.4572 194.027 36.0985 198.676 37.1811C197.5 38.5826 195.727 37.5531 194.379 38.2372C192.247 38.2771 190.115 38.3169 187.976 38.2638C192.24 38.5361 196.531 37.5863 200.775 38.5826C203.398 39.4128 205.471 41.339 208.068 42.2356C208.579 42.415 208.858 42.9662 208.353 43.5374C203.883 45.0518 199.48 43.0526 195.03 43.285C194.385 43.3183 193.734 43.0725 193.077 43.0061C187.292 42.4017 185.06 44.4009 184.914 50.3255C183.825 62.8587 183.087 75.4119 182.31 87.9584C182.124 90.934 181.686 93.8764 181.573 96.8652C181.46 100.259 180.245 100.957 176.519 100.253Z" fill="#899EB6"/>
<path d="M126.245 142.847C126.179 142.648 126.106 142.448 126.026 142.249C126.039 141.213 126.836 140.894 127.58 140.954C130.23 141.166 130.562 139.659 130.596 137.5C130.709 129.922 130.762 129.928 123.396 128.766C122.107 128.56 120.732 128.6 119.597 127.85C118.441 127.092 118.023 126.056 118.806 124.761C123.662 123.878 128.444 123.552 132.754 126.661C133.199 126.986 133.644 127.404 134.169 127.458C137.962 127.836 138.234 130.327 137.762 133.302C137.696 137.905 137.736 142.515 137.769 147.118C137.776 148.685 137.749 150.306 139.901 150.551C141.043 151.322 142.498 152.019 140.718 153.574C138.732 155.865 139.855 158.369 140.319 160.767C140.911 163.782 142.086 166.585 144.265 168.87C146.37 172.875 145.314 175.193 141.077 175.618C139.715 175.757 138.579 176.262 137.437 176.893C134.747 175.804 137.297 173.513 136.321 172.031C133.93 165.967 130.503 160.242 130.197 153.487C130.005 152.079 131.665 151.82 131.931 150.565C132.542 147.669 131.585 145.497 128.749 144.282C127.846 143.896 126.896 143.644 126.245 142.847Z" fill="#6B8BAD"/>
<path d="M176.519 100.252C180.079 100.239 180.63 98.2797 180.816 95.0319C181.659 79.988 182.868 64.9706 183.951 49.94C185.133 48.4655 186.302 46.9313 188.261 48.9902C187.803 61.7825 187.896 74.5948 187.072 87.387C186.833 91.1198 186.661 94.8857 187.252 98.6118C187.418 98.758 187.597 99.0104 187.77 98.9971C194.79 98.5521 201.419 101.388 208.386 101.415C209.821 101.421 211.256 101.468 212.69 101.395C215.34 101.322 217.911 102.032 220.534 102.185C221.404 102.238 222.294 102.451 222.62 103.474C221.916 104.663 220.594 104.629 219.511 105.061C213.335 105.028 207.217 104.071 201.06 103.7C193.03 103.208 185.067 101.813 176.99 101.973C174.287 102.072 171.863 103.142 169.432 104.184C168.429 104.722 167.286 104.762 166.224 105.108C162.59 105.938 159.077 107.173 155.504 108.216C154.042 108.641 152.628 109.345 151.027 108.92C150.522 108.714 150.084 108.448 150.17 107.798C158.187 105.353 166.197 102.903 174.22 100.485C174.951 100.272 175.755 100.325 176.519 100.252Z" fill="#5A6C83"/>
<path d="M135.498 194.634C131.234 193.398 126.983 194.162 122.732 194.7C122.187 194.767 121.284 195.178 121.185 195.019C118.9 191.525 115.18 193.392 112.245 192.469C110.186 191.818 110.783 190.463 112.264 189.334C115.021 187.235 118.348 186.278 121.371 184.718C124.572 183.064 128.657 182.439 128.232 177.438C133.054 178.853 138.048 179.344 142.997 180.081C143.827 182.2 143.03 184.226 142.631 186.272C141.874 187.487 140.652 186.757 139.649 186.982C137.358 187.507 135.159 188.171 135.046 191.127C134.807 192.342 135.936 193.392 135.498 194.634Z" fill="#D2E0EB"/>
<path d="M298.164 42.1294C300.496 43.2187 301.1 45.2312 300.987 47.5691C300.15 64.7251 299.294 81.8745 298.463 99.0239C298.291 102.65 298.184 106.283 298.085 109.917C298.058 110.78 298.397 111.697 297.454 112.301C297.062 112.68 296.61 112.945 296.072 113.052C294.99 113.198 293.92 113.171 292.904 112.706C292.253 112.314 291.848 111.75 291.662 111.019C291.622 109.717 291.562 108.402 293.462 108.409C293.761 108.409 293.807 108.303 293.661 107.931C293.382 107.213 293.316 106.476 293.316 105.719C293.894 100.943 293.781 96.1213 294.153 91.3392C294.319 90.4757 294.651 89.6455 294.618 88.7356C294.352 81.4361 295.381 74.1832 295.381 66.8771C295.388 61.258 296.119 55.639 295.926 50C295.893 49.0038 296.165 47.9078 295.813 47.0311C294.95 44.8459 295.833 43.6969 297.753 42.9463C297.826 42.6342 297.959 42.3619 298.164 42.1294Z" fill="#5F7899"/>
<path d="M178.768 191.28C180.515 191.977 182.268 192.675 184.015 193.372C185.935 195.378 185.609 196.819 183.557 198.845C180.661 201.701 177.221 203.082 173.561 204.358C168.254 206.198 162.954 208.09 157.428 209.16C154.844 209.658 152.187 209.937 149.617 208.927C148.833 207.904 149.424 207.174 150.168 206.51C150.46 206.244 150.826 205.474 150.653 205.301C152.924 204.285 155.322 203.415 155.927 200.545C156.358 200.26 156.823 200.213 157.301 200.393C157.979 202.863 159.075 203.215 161.652 202.226C165.325 200.811 168.785 198.745 172.671 198.074C169.469 196.886 167.576 196.899 164.541 198.187C163.525 198.619 162.535 199.144 161.366 198.865C160.769 198.473 160.41 197.975 160.636 197.218C163.89 194.242 167.816 192.535 171.973 191.286C172.711 191.067 173.455 190.848 174.072 190.39C175.985 188.949 177.486 189.5 178.768 191.28Z" fill="#CC601C"/>
<path d="M278.923 143.525C275.569 144.189 273.563 147.37 270.262 148.134C268.9 150.06 266.689 150.758 264.696 151.502C258.413 153.86 252.727 157.546 246.278 159.558C243.801 160.329 241.416 160.893 238.839 160.614C236.614 159.963 234.289 159.804 232.051 159.259C229.554 158.655 228.591 159.625 228.664 162.122C228.717 163.862 228.79 165.702 227.109 166.931C226.226 166.977 225.662 166.526 225.276 165.775C224.433 162.58 224.944 159.326 224.831 156.098C225.23 152.239 224.267 148.307 225.436 144.495C225.675 144.129 226.02 143.983 226.452 144.063C227.794 145.418 227.242 147.158 227.402 148.759C227.608 150.798 226.864 152.943 228.046 154.869C232.337 156.589 236.707 157.632 241.356 156.722C245.986 156.231 249.778 153.561 253.876 151.754C260.93 148.639 267.565 144.641 274.646 141.559C276.91 141.087 278.491 138.942 280.955 138.942C281.613 139.095 282.343 139.181 282.231 140.151C280.597 140.755 279.6 141.984 278.923 143.525Z" fill="#496080"/>
<path d="M118.847 124.974C118.841 126.74 119.731 127.524 121.491 127.611C122.799 127.67 124.088 127.996 125.39 128.168C131.42 128.985 131.42 128.979 131.46 135.149C131.46 135.7 131.467 136.252 131.473 136.803C131.513 141.466 131.507 141.452 127.123 141.618C126.751 141.632 126.399 142.023 126.034 142.243C125.748 142.077 125.483 141.818 125.177 141.751C120.023 140.536 119.432 139.798 119.153 134.186C120.541 134.983 119.937 136.59 120.627 137.633C120.92 138.072 121.086 138.716 121.79 138.59C122.387 138.483 122.746 137.992 122.806 137.434C123.071 134.79 122.314 132.439 120.66 130.367C120.528 130.201 120.342 130.035 120.149 129.962C117.127 128.793 117.127 128.799 116.861 124.396C117.751 123.785 118.323 124.29 118.847 124.974Z" fill="#C4D3E0"/>
<path d="M118.846 124.974C118.056 125.226 117.498 124.642 116.853 124.396C115.997 124.31 115.14 124.223 114.29 124.137C110.869 123.785 110.211 122.775 110.942 118.97C112.895 118.219 114.595 119.328 116.395 119.687C117.73 120.225 119.158 119.992 120.54 120.158C125.375 121.314 130.35 121.659 135.205 122.662C136.606 122.955 138.048 123.114 139.283 123.918C139.575 125.332 140.731 125.2 141.78 125.299C147.971 125.884 154.075 127.205 160.305 127.518C161.673 127.584 163.154 127.81 164.197 128.979C163.094 131.337 161.015 130.48 159.315 130.287C153.636 129.623 147.937 129.205 142.272 128.447C140.053 128.149 138.811 128.726 139.183 131.217C138.898 135.023 139.894 138.908 138.466 142.641C136.965 143.292 137.244 142.083 137.204 141.359C137.065 138.855 137.383 136.338 137.031 133.834C136.992 133.17 136.752 132.446 136.938 131.861C137.682 129.55 136.686 128.873 134.514 128.64C133.272 128.507 131.512 128.587 131.326 126.488C131.253 125.678 130.396 125.691 129.732 125.651C126.092 125.425 122.472 125.2 118.846 124.974Z" fill="#5A7391"/>
<path d="M184.64 193.272C186.434 193.784 188.333 194.089 190.007 194.866C191.947 195.763 193.707 197.304 193.746 199.569C193.786 201.568 191.82 202.405 190.24 203.142C183.83 206.111 177.388 209.053 170.56 210.913C162.337 213.158 153.975 214.706 145.393 213.855C142.046 213.523 138.572 213.636 135.464 211.949C136.434 210.913 137.676 211.072 138.865 211.272C152.72 213.663 165.731 210.714 178.344 205.121C181.087 203.906 183.305 201.873 185.889 200.426C184.521 200.97 183.498 202.212 181.931 202.345C181.286 202.179 181.041 201.794 181.266 201.136C181.532 200.372 182.057 199.735 182.688 199.35C185.119 197.855 185.995 195.942 184.64 193.272Z" fill="#B0C3D9"/>
<path d="M184.641 193.272C186.7 195.179 186.56 196.892 184.362 198.666C183.193 199.615 181.964 200.612 181.333 202.086C180.748 204.524 178.523 204.969 176.69 205.759C172.659 207.493 168.315 208.316 164.23 209.944C153.39 212.255 142.651 212.135 132.03 208.728C129.938 207.586 127.925 206.337 126.73 204.145C126.145 202.916 125.933 201.694 126.803 200.499C128.271 199.496 129.646 198.333 131.412 197.862C131.718 198.081 131.917 198.373 132.017 198.739C131.877 204.843 132.488 205.58 138.566 207.121C140.824 207.692 143.109 207.692 145.407 207.732C146.795 207.758 148.283 207.453 149.458 208.569C157.635 209.273 165.087 206.403 172.552 203.747C175.827 202.584 179.281 201.854 181.964 199.184C183.731 197.43 185.278 196.022 184.01 193.379C184.215 193.272 184.421 193.239 184.641 193.272Z" fill="#E9C488"/>
<path d="M282.231 140.15C281.972 139.586 281.434 139.612 280.943 139.539C280.604 139.26 281.109 139.426 280.71 139.32C276.234 138.105 273.305 134.797 270.249 131.655C270.136 130.154 271.398 129.922 272.348 129.483C274.859 128.314 277.422 127.285 280.033 126.368C284.403 124.834 286.934 126.388 287.651 131.111C287.624 131.283 287.598 131.456 287.571 131.629C286.708 134.631 287.279 138.357 283.427 139.845C283.048 139.984 282.63 140.044 282.231 140.15Z" fill="#738FAF"/>
<path d="M178.77 191.28C177.13 190.529 175.901 190.549 173.908 191.326C169.432 193.073 165.207 195.225 160.963 197.397C160.193 197.311 159.914 196.806 159.854 196.108C160.04 195.491 160.552 195.165 161.149 194.78C160.14 195.152 159.323 195.71 158.346 195.863C157.058 195.969 156.121 195.504 155.696 194.222C156.287 190.576 156.659 190.403 160.014 190.337C161.654 190.303 164.298 191.678 164.337 187.985C164.344 187.095 166.224 187.255 167.326 187.348C167.632 187.394 167.924 187.467 168.216 187.554C170.069 187.939 171.956 189.188 173.676 187.255C174.32 186.405 174.128 185.388 174.287 184.432C174.639 182.3 175.655 180.985 178.093 181.895C179.368 182.957 180.045 184.273 179.793 185.973C179.448 187.746 179.109 189.513 178.77 191.28Z" fill="#F3B322"/>
<path d="M214.59 193.233C215.174 192.09 216.243 191.692 217.333 191.134C219.584 189.985 219.578 187.614 217.711 185.927C216.164 184.525 214.264 183.788 212.544 182.712C214.915 181.118 216.675 182.572 218.469 183.888C219.159 184.392 219.797 185.362 220.733 184.864C221.763 184.313 221.039 183.283 220.946 182.46C220.846 181.589 220.508 180.726 221.139 179.916C226.824 179.205 227.608 179.703 229.507 185.189C229.773 187.022 228.345 186.929 227.209 187.268C226 187.627 224.486 186.996 223.616 188.391C223.257 189.321 223.948 190.377 223.251 191.253C222.726 193.492 225.177 195.703 228.518 195.936C229.833 196.029 231.161 195.989 232.476 196.016C226.186 197.218 220.202 196.407 214.59 193.233Z" fill="#9EB4CB"/>
<path d="M127.448 203.972C128.484 205.573 130.131 206.51 131.559 207.679C132.197 208.721 133.333 208.96 134.355 209.206C143.415 211.405 152.547 212.042 161.747 210.203C162.763 209.997 163.938 209.983 164.709 209.053C167.904 207.214 171.623 206.888 174.997 205.527C177.269 204.61 179.48 203.693 181.34 202.079C183.519 201.435 184.993 199.715 186.953 198.307C187.657 199.735 187.105 200.698 186.109 201.402C176.83 207.971 166.31 211.139 155.178 212.687C148.542 213.61 142.04 212.222 135.471 211.943C134.608 211.717 133.751 211.484 132.887 211.259C130.098 210.375 128.716 207.918 126.976 205.885C126.471 205.301 125.973 204.271 127.448 203.972Z" fill="#6B768C"/>
<path d="M298.164 42.129C298.177 42.3682 298.197 42.6073 298.211 42.8464C295.939 43.6368 293.588 43.6102 291.23 43.5836C290.267 43.4707 289.297 43.5903 288.334 43.5238C287.378 43.484 286.415 43.4641 285.478 43.2382C282.669 42.4279 279.793 43.132 276.956 42.8397C276.359 42.7866 275.761 42.7069 275.176 42.5408C269.378 41.9099 263.547 42.149 257.728 41.7571C246.537 41.0132 235.312 40.7475 224.12 40.0435C219.677 39.7645 215.107 40.2627 210.737 38.9077C210.385 38.5756 210.338 38.2037 210.597 37.7985C214.582 37.5661 218.568 37.4797 222.553 37.8384C247.466 38.6022 272.314 40.6213 297.194 41.8966C297.526 41.9032 297.845 42.0427 298.164 42.129Z" fill="#3C506C"/>
<path d="M296.305 112.307C296.69 112.307 297.069 112.307 297.454 112.307C297.261 117.767 297.075 123.226 296.87 128.693C296.723 132.558 296.139 132.917 292.187 131.642C292.054 130.42 291.788 129.217 291.702 127.989C291.709 127.663 291.749 127.338 291.815 127.019C292.194 123.851 291.988 120.676 291.868 117.508C291.935 116.399 291.629 115.276 291.988 114.173C292.971 112.486 294.917 113.051 296.305 112.307Z" fill="#49688B"/>
<path d="M131.665 198.798C131.585 198.486 131.505 198.167 131.419 197.855C132.163 197.489 132.913 197.117 133.657 196.752C138.3 195.762 142.996 195.583 147.725 195.749C149.266 195.802 150.813 195.756 152.255 196.427C152.766 196.613 153.258 196.838 153.736 197.091C156.08 198.12 155.868 199.502 154.287 201.076C150.986 202.989 147.466 202.232 144.019 201.753C142.292 201.514 140.718 200.91 138.884 201.587C137.51 202.092 136.075 201.255 134.886 200.438C133.87 199.734 132.688 199.435 131.665 198.798Z" fill="#DAC349"/>
<path d="M232.476 196.022C232.443 194.614 233.758 194.786 234.502 194.275C235.392 193.664 236.754 193.139 237.006 192.302C238.759 186.504 244.066 186.776 248.384 185.348C248.218 185.627 248.118 185.999 247.872 186.172C244.877 188.291 243.973 190.788 246.371 193.936C241.901 195.69 237.331 196.805 232.476 196.022Z" fill="#9EB4CB"/>
<path d="M126.246 142.847C132.343 144.043 132.668 144.621 132.954 149.994C133.08 152.372 131.692 152.79 130.197 153.494C127.687 153.036 126.704 151.648 126.611 148.998C126.538 146.965 126.199 144.913 126.246 142.847Z" fill="#ABC3D9"/>
<path d="M292.212 116.937C293.521 120.543 293.096 124.157 292.212 127.763C289.994 127.212 291.315 125.259 290.744 124.044C288.951 126.269 289.967 127.491 292.232 128.281C292.611 129.404 293.341 130.533 292.192 131.635C290.651 131.629 289.117 131.629 287.576 131.622L287.689 131.443C286.872 130.387 287.045 129.065 287.184 127.969C287.53 125.14 287.178 122.516 285.902 119.985C287.344 117.608 289.755 117.222 292.212 116.937Z" fill="#2A364B"/>
<path d="M142.83 180.088C139.443 181.456 136.169 180.075 132.967 179.384C131.406 179.045 129.128 179.649 128.231 177.438C130.085 175.91 132.183 174.754 134.495 174.21C135.863 173.884 136.242 173.2 136.321 172.031C137.616 173.393 136.115 175.432 137.464 176.78C139.509 177.112 141.429 177.896 143.395 178.507C143.886 179.278 143.455 179.723 142.83 180.088Z" fill="#ACC1D6"/>
<path d="M116.156 120.317C114.25 120.51 112.868 118.67 110.936 118.969C120.101 116.326 129.267 113.675 138.44 111.052C142.345 109.936 146.264 108.88 150.176 107.797C150.402 108.023 150.628 108.249 150.853 108.475C150.368 110.242 148.735 110.162 147.433 110.547C138.486 113.184 129.486 115.641 120.314 117.886C121.363 118.949 122.353 119.912 120.108 120.231C118.806 120.41 117.471 120.258 116.156 120.317Z" fill="#8091A5"/>
<path d="M127.448 203.972C126.644 204.53 127.023 205.108 127.481 205.6C129.261 207.499 131.074 209.372 132.874 211.258C130.364 211.239 128.265 210.05 126.193 208.828C124.393 207.765 122.234 206.596 122.374 204.304C122.513 201.966 124.824 201.209 126.804 200.492C126.87 201.681 126.87 202.876 127.448 203.972Z" fill="#A3B8D4"/>
<path d="M152.787 197.396C147.672 195.968 142.518 196.626 137.358 197.038C136.116 197.137 134.794 198.001 133.651 196.745C134.548 195.869 136.155 196.075 136.727 194.713C138.334 193.053 140.546 192.342 142.425 191.093C142.977 191.312 143.269 191.764 143.495 192.282C144.896 195.477 146.364 195.982 149.12 194.009C150.283 193.179 151.339 192.302 152.587 193.544C153.73 194.68 153.903 196.055 152.787 197.396Z" fill="#58764B"/>
<path d="M142.047 191.187C141.483 194.175 138.919 194.162 136.734 194.72C136.322 194.693 135.91 194.66 135.498 194.634C134.847 193.617 133.898 192.721 134.17 191.333C135.897 188.862 137.717 186.577 141.283 187.58C141.888 187.859 142.246 188.344 142.419 188.975C142.472 189.739 142.492 190.502 142.047 191.187Z" fill="#BEC9C1"/>
<path d="M210.545 37.9182C210.545 38.1108 210.551 38.3034 210.551 38.4961C210.153 39.0141 209.588 39.1138 208.984 39.0872C205.743 38.702 202.462 38.9278 199.214 38.6023C197.693 38.4363 196.119 38.5359 194.697 37.8119C195.913 36.8887 197.407 37.6924 198.682 37.1743C202.389 37.2407 206.101 37.3138 209.808 37.3802C210.113 37.4865 210.359 37.6658 210.545 37.9182Z" fill="#415771"/>
<path d="M210.544 37.9184C210.298 37.739 210.059 37.5597 209.813 37.387C214.071 37.221 218.342 36.9221 222.559 37.832C218.554 37.8586 214.549 37.8918 210.544 37.9184Z" fill="#9CAEC1"/>
<path d="M239.111 160.103C249.638 159.219 258.067 152.843 267.552 149.243C268.468 148.898 269.365 148.506 270.268 148.134C271.457 148.307 271.225 148.958 270.879 149.755C270.242 151.236 269.112 152.524 269.039 154.238C266.628 156.377 266.436 159.412 265.798 162.268C264.098 163.019 262.311 162.52 260.737 162.129C258.399 161.544 256.526 162.095 254.646 163.271C252.846 164.048 251.14 164.998 249.565 166.187C245.501 168.432 241.409 170.517 236.547 168.837C236.023 168.657 235.544 168.405 235.146 168.007C233.731 166.027 234.01 163.769 234.382 161.65C234.94 158.542 237.311 159.977 239.111 160.103Z" fill="#ADC3D5"/>
<path d="M249.565 165.31C250.807 163.809 252.7 163.517 254.341 162.753C256.858 162.128 259.329 162.646 261.813 163.052C263.221 163.284 264.689 163.703 265.532 161.976C265.579 161.431 265.791 160.833 265.638 160.355C264.582 157.067 266.382 155.42 269.039 154.225C270.454 154.404 271.716 153.115 273.21 153.786C268.86 157.087 269.736 162.049 269.218 166.499C269.066 167.807 269.531 169.674 271.277 169.826C273.456 170.019 272.699 167.827 273.297 166.452C274.558 167.482 274.379 168.531 273.688 169.574C271.902 172.277 268.315 172.981 265.738 170.869C264.542 169.893 263.898 170.623 263.148 171.048C258.459 173.699 253.749 176.329 249.16 179.145C246.955 180.5 244.225 180.593 242.226 182.473C241.435 183.216 240.499 182.765 241.077 181.363C241.316 180.42 242.06 179.882 242.85 179.57C246.988 177.903 248.868 174.874 248.516 170.437C249.08 168.777 248.482 166.871 249.565 165.31Z" fill="#324664"/>
<path d="M249.167 170.803C250.694 177.558 245.447 179.132 241.077 181.377C240.844 181.197 240.605 181.018 240.373 180.839C240.951 178.155 240.977 175.452 240.825 172.051C240.267 175.193 240.121 177.717 239.111 180.055C238.427 180.081 237.749 180.101 237.065 180.128C236.899 180.141 236.74 180.161 236.574 180.181C235.89 180.221 235.212 180.148 234.548 179.955C231.705 177.411 231.28 172.649 233.518 168.684C234.003 168.319 234.555 168.212 235.146 168.292C238.626 169.441 242.047 169.388 245.461 167.953C249.625 166.2 249.645 166.24 249.167 170.803Z" fill="#ADC3D5"/>
<path d="M223.249 191.253C223.017 190.204 222.784 189.148 222.552 188.099C224.943 186.465 227.666 186.949 229.858 189.44C228.974 187.056 229.22 185.043 231.385 183.549C233.212 182.293 234.461 180.082 237.071 180.128L237.064 180.122C237.762 181.138 237.197 181.596 236.354 182.181C235.284 182.918 234.381 183.894 233.086 185.05C235.058 185.322 235.557 182.998 237.542 183.695C235.656 184.89 235.039 186.398 234.919 188.47C234.766 191.087 233.305 193.226 230.648 194.269C227.208 195.617 225.368 193.1 223.249 191.253Z" fill="#3B4F6E"/>
<path d="M239.111 180.048C238.426 177.059 240.107 174.25 239.808 171.281C239.781 170.982 240.193 170.523 240.519 170.331C240.95 170.078 241.329 170.371 241.581 170.789C242.305 171.998 241.402 179.537 240.373 180.832C239.954 180.573 239.529 180.307 239.111 180.048Z" fill="#F4F8FA"/>
<path d="M221.205 180.042C221.438 181.111 221.71 182.167 221.883 183.243C222.029 184.186 223.204 185.262 221.511 186.019C220.269 186.577 219.425 186.146 218.668 185.189C217.094 183.21 215.022 182.453 212.544 182.712C201.12 180.739 189.763 178.361 178.192 177.358C176.997 177.252 175.821 177.006 174.632 176.82C173.855 177.106 173.085 176.933 172.361 176.681C166.024 174.482 159.549 174.695 153.026 175.465C151.917 175.598 150.821 175.685 149.778 175.173C148.49 173.805 149.28 172.41 149.719 171.029C149.911 170.723 150.197 170.55 150.555 170.517C153.564 171.454 156.387 170.61 159.057 169.342C160.279 168.764 161.475 168.398 162.577 168.319C159.482 167.787 156.367 169.667 153.053 169.036C151.326 167.708 150.462 166.3 152.641 164.619C157.596 165.27 162.511 166.652 167.572 165.436C170.521 164.998 173.43 165.091 176.366 165.695C177.947 166.021 179.634 166.001 181.241 165.522C181.453 165.489 181.673 165.449 181.892 165.463C183.028 165.516 184.542 165.788 184.476 166.937C184.383 168.531 182.742 167.601 181.792 167.734C181.101 167.827 180.304 168.026 179.833 167.728C187.531 167.628 195.023 170.325 202.814 171.135C203.896 171.248 205.026 171.221 205.882 172.085C206.035 172.39 206.009 172.689 205.829 172.975C209.841 172.603 213.6 174.157 217.519 174.529C221.205 174.868 221.969 176.056 221.205 180.042Z" fill="#7890AF"/>
<path d="M149.506 174.794C153.876 174.502 158.22 173.937 162.624 173.917C166.908 173.904 170.84 174.967 174.625 176.82C175.994 178.361 178.577 179.085 178.079 181.894C176.213 182.446 173.636 182.379 175.27 185.667C175.768 186.67 174.845 187.447 173.968 187.972C172.002 188.888 170.009 187.586 168.037 188.038L168.023 188.031C167.459 187.294 165.938 188.171 165.792 186.723C166.801 182.014 164.689 178.952 160.604 176.946C159.934 176.614 159.216 176.096 158.499 176.767C158.16 177.086 158.339 177.59 158.492 177.995C158.758 178.706 158.944 179.317 160.007 179.37C164.45 179.59 165.048 180.732 163.148 185.049C162.896 185.813 163.201 186.67 162.73 187.394C159.156 188.908 155.264 188.297 151.585 189.061C151.273 189.18 150.94 189.267 150.615 189.327C149.147 189.479 147.719 189.904 146.238 189.944C144.916 189.513 143.389 190.243 142.16 189.267C141.947 188.901 141.741 188.543 141.529 188.178C141.443 187.586 141.635 187.115 142.1 186.75C141.907 184.478 142.399 182.286 142.824 180.081C143.05 179.656 143.276 179.231 143.502 178.812C143.149 176.72 144.664 175.837 146.045 174.861C147.194 174.608 148.337 174.083 149.506 174.794Z" fill="#F8F8F6"/>
<path d="M188.055 48.658C186.441 48.2927 185.279 49.3753 183.95 49.9333C183.963 43.3976 187.039 41.0995 194.099 42.0892C198.881 42.76 203.697 43.2847 208.545 43.1519C209.741 42.0958 211.235 42.1224 212.617 42.2951C217.2 42.8729 221.822 42.76 226.412 43.1652C231.685 43.743 237.006 44.0353 242.293 44.1216C249.705 44.2412 257.084 45.1312 264.496 45.0116C265.101 45.0913 265.679 45.2441 266.17 45.616C266.469 45.9016 266.549 46.247 266.403 46.6389C264.596 47.2101 262.736 46.7451 261.488 46.8647C260.471 46.8846 260.89 47.5023 260.79 47.0706C260.77 46.9776 260.857 46.9245 261.056 46.9245C262.577 46.9178 264.105 46.9776 265.626 46.8979C266.901 46.8315 268.521 46.2669 268.913 48.0005C269.279 49.6078 267.731 50.086 266.516 50.5908C258.97 51.2882 251.485 50.0462 243.96 49.993C242.997 49.7738 242.047 49.4949 241.037 49.5015C229.015 49.5812 217.04 48.3193 205.025 48.2462C202.362 48.2329 199.771 47.6219 197.121 47.5023C195.321 47.4226 193.594 47.5289 191.98 48.3857C190.705 49.0565 189.436 49.6941 188.055 48.658Z" fill="#374D68"/>
<path d="M266.503 46.4735C266.39 46.3207 266.29 46.1613 266.19 46.0019C268.342 45.092 270.733 46.0949 272.859 44.9791C270.335 46.2676 267.539 44.8794 264.995 45.9554C252.402 45.4772 239.809 44.999 227.222 44.5075C226.924 44.4942 226.638 44.2485 226.352 44.1156C224.154 41.2862 221.026 40.9607 217.784 40.9275C212.225 40.8677 206.606 41.4124 201.233 39.36C196.663 38.8818 192.093 38.3372 187.471 38.1445C189.882 38.0383 192.286 37.932 194.697 37.8191C196.205 37.8988 197.712 37.9719 199.22 38.0516C202.568 38.7025 205.975 37.9187 209.329 38.47C209.734 38.4766 210.139 38.4899 210.545 38.4966C231.201 39.4796 251.857 40.4626 272.514 41.4655C273.603 41.5186 274.685 41.7179 275.768 41.8507C274.433 42.6345 272.992 42.0965 271.61 42.3157C273.377 42.0301 275.184 42.6677 276.93 41.9703C279.873 41.9504 282.828 41.7511 285.724 42.5149C284.495 43.1857 283.24 42.9931 281.985 42.8404C284.057 42.7607 286.129 43.2455 288.208 42.661C289.092 42.681 289.968 42.6942 290.852 42.7142C291.23 43.7702 291.695 44.8396 290.4 45.6432C285.917 45.0787 281.62 46.1148 277.329 47.2041C276.426 47.4498 275.502 47.4698 274.586 47.5428C271.836 47.6092 269.08 47.7155 266.503 46.4735Z" fill="#E0E6EC"/>
<path d="M201.232 39.3594C208.432 40.2959 215.718 39.5055 222.918 40.5084C225.196 40.8272 226.173 41.9896 226.345 44.1083C220.414 43.7895 214.483 43.4707 208.552 43.1519C205.749 42.5807 203.504 40.9401 201.232 39.3594Z" fill="#A4B7CB"/>
<path d="M146.138 175.326C145.261 176.488 144.385 177.65 143.508 178.819C141.117 179.251 139.098 178.594 137.464 176.787C137.271 174.542 138.792 174.721 140.293 174.715C144.81 174.701 145.66 173.087 143.488 168.763C141.476 165.13 141.748 163.875 145.042 161.643C147.726 159.83 150.754 158.774 153.776 157.725C155.271 157.207 156.539 156.556 157.19 155.028C159.528 154.238 161.793 155.672 164.118 155.221C169.87 155.706 175.502 156.855 181.061 158.382C181.586 158.714 181.732 159.212 181.686 159.797C181.413 160.7 180.769 161.258 179.952 161.65C175.349 158.714 170.72 160.428 166.057 161.511C162.862 162.248 159.754 163.417 156.44 163.609C155.437 163.623 154.48 163.317 153.497 163.198C152.235 163.038 152.734 163.802 152.906 164.386C152.866 164.526 152.827 164.659 152.787 164.792C151.638 166.286 151.87 167.561 153.391 168.637C152.813 169.813 151.95 170.603 150.575 170.703C150.422 170.723 150.269 170.743 150.117 170.763C148.164 171.739 147.188 173.572 146.138 175.326Z" fill="#527297"/>
<path d="M137.013 133.834C137.889 135.806 137.192 137.892 137.438 139.904C137.557 140.907 136.946 142.136 138.268 142.794C139.543 141.698 140.998 142.149 142.393 142.362C154.069 144.169 165.739 146.048 177.435 147.702C189.344 149.382 201.273 150.99 213.209 152.497C214.749 152.69 216.284 152.876 217.745 153.434C218.741 153.979 220.276 154.198 220.01 155.745C219.811 156.881 218.602 156.894 217.612 156.934C217.234 156.928 216.855 156.874 216.483 156.795C213.952 156.317 211.402 155.931 208.832 155.646C198.822 153.959 188.813 152.325 178.737 151.05C173.264 150.359 167.791 149.675 162.345 148.811C160.352 148.499 158.386 148.506 156.407 148.459C152.874 148.293 149.387 147.722 145.893 147.211C143.668 146.885 141.609 146.619 141.29 149.741C141.237 150.279 140.706 150.651 140.141 150.824C137.856 152.909 136.966 151.866 136.953 149.316C136.926 144.149 136.986 138.994 137.013 133.834Z" fill="#314A69"/>
<path d="M140.134 150.817C141.675 149.462 139.716 146.427 142.1 145.856C143.78 145.457 145.753 146.294 147.599 146.533C150.422 146.898 153.258 147.224 156.088 147.569C158.512 148.267 161.189 147.669 163.493 148.984C160.538 151.966 160.538 151.966 163.985 155.433C164.131 155.579 164.124 155.819 164.091 156.044C161.468 155.825 158.851 155.599 156.227 155.38C155.37 156.217 154.248 156.43 153.185 156.204C149.565 155.44 145.833 155.38 142.253 154.417C141.389 154.185 140.174 154.291 140.141 152.87C142.02 152.185 139.47 151.508 140.134 150.817Z" fill="#BBCFE1"/>
<path d="M140.134 152.876C145.367 154.557 150.754 155.221 156.22 155.387C156.772 155.732 157.329 156.078 157.941 156.456C157.11 157.824 155.603 157.937 154.314 158.402C151.405 159.452 148.589 160.68 145.819 162.062C142.704 163.616 142.02 165.742 143.488 168.757C139.064 164.041 138.659 158.814 138.845 153.879C138.872 152.976 139.41 152.83 140.134 152.876Z" fill="#FCFDFD"/>
<path d="M222.706 103.6C219.398 102.677 215.978 102.67 212.597 102.298C208.16 100.459 203.378 99.9871 198.788 98.745C196.132 98.0277 195.54 95.9754 195.62 93.6042C195.879 85.6671 196.437 77.7567 197.214 69.8528C197.719 64.692 198.024 59.5313 196.875 54.3838C196.218 51.4215 197.055 50.4186 200.323 50.2924C206.174 50.0666 211.992 50.8171 217.824 51.1359C222.898 51.4149 227.953 51.5212 233.027 51.5809C235.305 51.7669 237.743 50.9367 239.782 52.6237C238.846 55.1676 236.567 53.5337 234.834 54.3108C241.363 55.5196 247.832 55.8583 254.295 56.2834C256.626 56.4362 258.944 56.5292 261.109 57.4524C263.633 58.5284 264.005 59.9697 262.285 62.0552C260.95 63.6758 259.362 65.064 257.755 66.4256C253.491 70.0321 250.469 74.6815 247.374 79.2312C244.843 82.9506 244.245 87.0553 245.408 91.5784C246.583 96.1414 245.986 96.8056 241.522 98.1207C240.313 98.4794 239.337 99.1568 238.427 99.9738C237.351 100.943 236.222 101.827 234.714 102.019C231.5 101.116 230.463 98.0875 228.683 95.7894C227.774 94.6071 227.295 93.033 225.575 92.4684C224.758 93.757 225.708 94.4079 226.272 95.1053C228.006 97.2639 229.806 99.376 231.194 101.774C232.522 104.078 231.852 105.36 229.341 105.002C227.136 104.683 224.685 105.141 222.706 103.6Z" fill="#DBE6EE"/>
<path d="M233.087 52.5236C222.161 52.8159 211.302 51.5871 200.402 51.2019C196.875 51.0757 196.929 51.2085 197.951 54.6955C199.419 59.677 198.675 64.7713 198.217 69.7992C197.486 77.9156 196.889 86.032 196.583 94.1816C196.497 96.4133 197.095 97.6553 199.532 97.9874C201.591 98.273 203.584 99.1033 205.696 99.0568C208.559 98.9903 210.199 101.415 212.59 102.291C206.752 102.763 200.708 102.258 195.408 100.571C192.186 99.5416 189.27 101.521 186.561 99.7542C186.82 99.3224 187.218 99.07 187.656 98.8575C189.775 97.6686 188.799 95.3904 189.463 93.6901C191.801 86.218 191.236 78.4536 191.595 70.8088C191.847 65.5218 192.033 60.2548 192.85 55.0276C193.003 54.038 193.023 53.0417 192.385 52.1716C191.887 51.6602 191.502 51.0757 191.31 50.3783C191.05 49.5547 191.223 48.7112 191.236 47.8743C193.714 45.1246 196.842 46.6522 199.665 46.7386C206.055 46.9445 212.424 47.5157 218.814 47.8079C226.419 48.1599 234.03 48.3791 241.642 48.6514C242.412 48.678 243.196 48.6315 243.847 49.1695C242.532 50.5576 240.812 50.0329 239.237 50.1193C236.773 50.2588 234.276 49.9399 231.832 50.3916C231.805 51.534 233.459 51.3812 233.087 52.5236Z" fill="#869AB2"/>
<path d="M222.705 103.6C225.588 103.381 228.384 104.278 231.771 104.497C230.005 100.864 227.66 98.1471 225.422 95.3642C224.691 94.4542 223.349 93.8498 224 92.3421C224.273 91.7112 224.811 91.2462 225.521 91.1931C227.009 91.0802 227.667 92.1429 228.205 93.272C229.739 96.5066 232.097 99.1368 234.408 101.8C235.371 101.867 235.816 102.584 236.301 103.261C236.66 103.826 237.072 104.351 237.45 104.902C237.742 105.347 238.021 105.799 238.387 106.19C239.064 106.888 239.987 107.386 240.28 108.416C240.857 111.059 243.435 112.235 244.69 114.446C245.826 116.446 247.938 113.922 249.565 114.712C250.355 116.24 248.416 116.97 248.509 118.299C247.599 119.454 246.337 119.727 244.962 119.753C244.099 119.707 243.308 119.488 242.75 118.764C241.794 117.309 237.39 116.007 235.71 117.349C232.668 119.78 228.902 119.561 225.601 120.896C224.485 121.347 223.363 121.786 222.28 122.304C217.843 123.599 216.276 127.019 215.685 131.177C215.18 131.377 214.695 131.33 214.223 131.064C211.985 128.521 213.42 126.096 214.456 123.659C215.618 121.713 217.671 121.088 219.583 120.331C224.983 118.206 230.323 115.934 235.71 113.782C236.387 113.51 237.264 113.443 237.357 112.447C236.235 110.528 235.019 108.688 233.438 107.114C230.582 106.323 227.627 106.31 224.724 105.905C223.011 105.666 221.217 105.686 219.882 104.298C220.653 103.374 221.782 103.906 222.705 103.6Z" fill="#5F5C62"/>
<path d="M191.249 47.8745C192.06 48.4059 191.9 49.2228 191.874 49.9999C190.871 50.8169 191.037 52.0058 191.023 53.0618C190.831 67.3353 188.832 81.5157 188.951 95.8024C188.964 97.1374 188.885 98.4459 188.108 99.6016C187.596 99.6547 187.091 99.7079 186.58 99.761C185.351 96.015 185.763 92.1361 186.155 88.3901C186.7 83.216 186.467 78.0619 186.627 72.9012C186.859 65.6482 187.125 58.4019 187.351 51.149C187.377 50.2457 187.503 49.3955 188.061 48.6583C189.117 48.3992 190.187 48.1335 191.249 47.8745Z" fill="#A8B4C2"/>
<path d="M219.876 104.291C223.675 104.756 227.481 105.22 231.28 105.699C232.449 105.845 233.751 105.699 234.415 107.04C233.977 108.86 232.496 108.176 231.519 108.037C221.503 106.648 211.381 106.389 201.365 105.088C194.823 103.998 188.174 104.012 181.619 103.095C179.938 101.986 177.262 103.713 176.086 101.156C183.996 100.345 191.761 102.192 199.605 102.564C206.373 102.876 213.121 103.693 219.876 104.291Z" fill="#EAEFF2"/>
<path d="M116.157 120.317C117.539 119.122 119.339 119.985 121.278 119.215C119.943 119.022 119.02 118.889 117.672 118.69C120.142 116.531 122.932 116.319 125.509 115.648C134.011 113.436 142.519 111.244 150.854 108.468C155.006 107.804 158.891 106.217 162.916 105.107C164.178 104.762 165.493 104.589 166.782 104.337C165.712 107.027 162.836 106.376 160.93 107.518C160.618 107.638 160.299 107.724 159.98 107.797C149.586 110.985 139.085 113.822 128.783 117.315C127.017 117.913 126.18 118.916 125.961 120.643C124.101 121.586 122.135 120.331 120.262 120.922C118.874 120.829 117.419 121.247 116.157 120.317Z" fill="#C0CFDC"/>
<path d="M160.544 106.841C162.623 106.004 164.702 105.174 166.781 104.337C167.412 104.231 168.043 104.124 168.68 104.018C172.38 101.886 176.392 101.74 180.496 102.119C181.712 103.64 180.948 105.034 180.224 106.436C178.915 107.465 177.348 107.293 175.854 107.246C173.615 107.18 171.563 107.658 169.683 108.88C168.149 109.617 166.555 109.996 164.841 109.803C162.988 109.431 161.627 108.342 160.544 106.841Z" fill="#60697A"/>
<path d="M180.582 102.477C176.424 101.521 172.578 103.002 168.68 104.025C170.752 102.046 173.455 101.687 176.085 101.149C177.666 102.371 179.818 100.91 181.366 102.278C181.16 102.564 180.901 102.637 180.582 102.477Z" fill="#C0CFDC"/>
<path d="M142.106 186.757C142.112 187.314 142.033 187.833 141.535 188.185C138.858 187.799 136.533 188.131 135.477 191.127C135.198 191.924 134.64 191.486 134.162 191.333C134.215 187.109 137.769 185.063 142.106 186.757Z" fill="#EEC059"/>
<path d="M120.261 120.922C122.14 119.587 124.306 120.67 126.285 120.225C127.421 119.195 128.749 119.594 130.044 119.713C139.536 120.63 148.874 122.656 158.365 123.552C160.883 124.13 163.46 124.363 166.01 124.728C166.575 124.774 167.133 124.861 167.677 125.007C176.471 126.335 185.365 126.973 194.112 128.613C198.887 128.6 203.504 130.207 208.299 130.028C208.87 130.035 209.435 130.128 209.986 130.261C218.514 131.841 227.135 132.771 235.73 133.9C237.616 134.146 239.695 134.505 241.528 133.336C241.894 132.957 242.306 132.638 242.757 132.379C247.008 130.991 250.847 128.66 254.952 126.92C259.475 125.372 263.925 123.652 268.156 121.394C273.615 119.082 278.836 116.246 284.375 113.822C274.931 112.168 265.433 111.683 256.008 110.574C251.71 110.109 247.453 109.266 243.109 109.299C241.914 109.279 240.718 109.252 239.808 108.302C239.144 107.658 238.48 107.014 237.816 106.37C239.071 105.088 240.718 105.307 242.186 105.493C251.551 106.675 260.963 107.373 270.334 108.475C276.438 109.192 282.542 109.903 288.639 110.68C290.24 110.886 291.602 111.338 292.89 112.215C294.026 112.474 295.162 112.679 296.311 112.308C294.962 113.005 293.621 113.702 292.273 114.4C290.287 116.718 287.178 116.857 284.734 118.292C283.598 118.963 282.383 119.494 281.2 120.092C280.463 120.457 279.713 120.776 278.949 121.075C268.654 126.07 258.133 130.606 248.104 136.139C246.53 137.009 244.803 137.341 243.083 137.726C236.129 138.503 229.354 136.936 222.526 136.159C221.33 136.019 220.142 135.9 218.946 135.813C218.202 135.793 217.452 135.74 216.721 135.574C215.359 135.069 213.931 135.116 212.51 135.129C211.434 135.122 210.358 135.109 209.302 134.87C207.734 134.305 206.094 134.525 204.487 134.405C204.108 134.392 203.736 134.332 203.364 134.246C192.93 132.798 182.442 131.682 172.074 129.789C162.038 127.949 151.909 126.847 141.834 125.299C140.944 125.16 140.113 124.94 139.403 124.369C133.02 123.22 126.637 122.071 120.261 120.922Z" fill="#F3F7F8"/>
<path d="M277.641 46.4333C281.984 45.1647 286.315 43.7234 290.911 45.2311C294.325 44.8857 295.68 46.0347 295.846 49.5682C296.125 55.6323 295.7 61.6897 295.507 67.7471C295.288 74.7875 294.564 81.808 295.189 88.8617C295.255 89.6122 295.348 90.4092 294.923 91.1266C294.949 96.1943 294.85 101.262 294.139 106.297C292.465 106.748 290.752 107.007 289.569 108.588C288.925 109.445 288.035 109.365 287.584 108.176C286.953 103.534 287.763 98.8843 288.181 94.3346C288.693 88.8351 288.706 83.3157 289.045 77.8295C289.569 69.3677 291.144 60.9392 290.453 52.4176C289.257 49.7542 287.125 48.3196 284.322 47.7616C282.184 46.9248 279.573 48.3993 277.641 46.4333Z" fill="#F7F9FA"/>
<path d="M290.946 51.2019C292.115 52.4041 291.71 53.9251 291.63 55.2933C290.893 67.3882 290.069 79.4698 289.299 91.5647C288.927 97.3764 288.628 103.188 288.296 109C289.246 110.368 291.099 109.903 292.214 110.932C292.44 111.358 292.666 111.789 292.892 112.214C281.906 110.66 270.901 109.325 259.855 108.276C254.376 107.758 248.909 107.067 243.43 106.529C241.57 106.35 239.69 106.409 237.824 106.363C237.193 106.084 237.16 105.519 237.146 104.948C238.907 103.573 240.979 103.972 242.872 104.204C251.261 105.24 259.656 106.117 268.065 106.927C272.495 107.844 277.018 108.05 281.501 108.555C284.563 108.9 286.23 107.093 286.522 103.381C286.788 99.98 287.001 96.5528 287.107 93.1588C287.379 84.2321 288.747 75.3718 288.628 66.4318C288.621 65.9934 288.555 65.5285 288.668 65.1101C290.195 59.6571 288.907 55.1738 284.198 51.8329C284.563 49.9865 286.057 50.5444 287.206 50.4713C288.488 50.3983 289.657 51.1555 290.946 51.2019Z" fill="#687F96"/>
<path d="M294.93 91.1265C293.097 77.6501 295.395 64.1804 295.016 50.704C294.93 47.5026 294.1 45.7093 290.918 45.2377C290.341 44.4141 290.234 43.5772 290.865 42.7271C293.316 42.7669 295.76 42.8068 298.211 42.8466C298.703 43.6304 300.144 44.3942 299.254 45.2975C297.945 46.6192 297.514 44.1152 296.365 44.1949C297.686 49.4022 296.876 54.6692 296.737 59.8964C296.484 69.1419 295.953 78.3874 295.515 87.6263C295.455 88.8019 295.767 90.0638 294.93 91.1265Z" fill="#CAD4DF"/>
<path d="M292.207 110.933C291.038 110.827 289.849 110.807 288.7 110.581C287.704 110.388 287.492 109.771 288.289 109C289.849 107.253 290.905 104.404 294.147 106.297C294.014 107.32 295.15 108.927 292.745 108.9C292.148 108.894 292.3 110.202 292.207 110.933Z" fill="#C7D1DE"/>
<path d="M131.665 198.798C132.788 198.333 133.571 198.147 134.72 199.309C135.836 200.439 137.49 202.072 139.622 200.133C140.359 199.462 141.681 200.312 142.737 200.551C146.457 201.375 150.209 202.106 153.922 200.458C154.361 200.253 154.806 200.186 155.264 200.399C156.041 202.072 154.493 202.358 153.663 203.069C152.707 203.886 151.152 203.979 150.767 205.486C151.431 205.752 152.096 206.011 153.298 206.489C151.305 206.542 149.877 206.828 149.452 208.568C144.697 208.814 139.948 208.847 135.405 207.12C130.529 205.254 129.872 203.733 131.665 198.798Z" fill="#A7571C"/>
<path d="M161.401 198.473C164.708 196.978 168.01 195.624 171.795 196.593C172.851 196.866 173.987 196.773 175.289 197.948C169.159 200.193 163.261 202.345 157.07 204.61C157.25 203.056 157.396 201.8 157.549 200.545C158.047 198.387 159.568 198.141 161.401 198.473Z" fill="#ECC12A"/>
<path d="M161.4 198.473C159.966 198.885 158.671 199.555 157.548 200.545C156.977 200.625 156.399 200.704 155.828 200.784L155.742 200.758C155.137 200.658 154.533 200.558 153.928 200.459C154.061 199.575 156.233 198.34 153.49 197.961C153.178 195.803 152.361 193.657 153.304 191.459C155.449 190.835 155.449 192.814 156.213 193.863C156.406 195.331 157.422 195.411 158.578 195.278C159.375 194.899 160.026 194.926 160.338 195.909C160.544 196.407 160.756 196.899 160.962 197.397C161.108 197.755 161.254 198.114 161.4 198.473Z" fill="#58764B"/>
<path d="M155.735 200.757L155.821 200.784C155.895 204.53 155.343 205.041 150.774 205.48C150.109 205.075 148.801 204.862 150.508 203.939C152.301 202.969 154.002 201.827 155.735 200.757Z" fill="#DAC349"/>
<path d="M205.955 172.649C200.063 171.586 194.185 170.437 188.274 169.501C185.066 168.989 182.077 167.302 178.683 167.555C180.417 167.462 182.15 167.375 184.076 167.269C183.312 166.113 182.263 166.166 181.214 166.22C179.752 166.459 178.537 166.133 177.793 164.725C177.76 164.347 177.893 164.041 178.198 163.815C178.869 163.463 179.566 163.463 180.284 163.629C183.127 164.632 186.109 164.838 189.064 165.17C191.469 165.442 193.587 165.064 195.009 162.6C196.165 160.607 198.343 161.158 200.15 161.484C203.198 162.035 206.2 162.799 209.335 162.527C212.915 162.394 216.429 162.699 219.79 164.041C221.583 165.349 224.027 164.752 225.807 166.1C226.305 166.286 226.797 166.465 227.295 166.651C227.694 166.313 228.159 166.113 228.677 166.047C230.257 165.934 231.732 166.306 233.127 167.043C233.685 167.501 234.156 167.993 233.837 168.803C233.034 171.619 233.233 174.489 233.412 177.358C233.499 178.746 234.017 179.689 235.624 179.51C234.229 181.224 230.895 182.652 228.756 182.446C228.311 176.355 223.708 175.684 219.099 175.086C214.669 174.509 210.272 173.785 205.955 172.649Z" fill="#395375"/>
<path d="M216.575 134.837C217.199 134.883 217.817 134.93 218.441 134.976C219.079 135.229 217.551 135.76 218.481 135.793C225.428 136.052 232.203 137.567 239.038 138.583C241.223 138.908 243.149 139.088 245.035 137.859C245.434 137.673 245.022 137.959 245.294 137.666C247.665 135.149 251.657 139.094 253.975 135.162C255.735 132.174 259.667 131.629 262.61 129.975C265.479 128.361 268.647 127.298 271.57 125.738C273.031 124.96 274.578 124.363 276.099 123.712C277.6 123.074 278.71 122.098 279.002 120.398C279.64 120.092 280.271 119.793 280.908 119.488C282.682 120.577 284.528 119.129 286.321 119.647C288.885 122.118 288.599 125.14 287.915 128.208C287.676 129.291 287.484 130.34 287.69 131.436C287.045 131.25 287.052 130.692 286.879 130.168C285.717 126.721 283.764 125.857 280.457 127.146C277.016 128.481 273.443 129.504 270.321 131.576C268.999 133.92 266.475 134.445 264.303 135.362C259.515 137.381 255.051 140.111 250.063 141.678C248.668 142.116 247.665 143.246 246.437 143.99C245.142 144.508 243.86 145.112 242.432 144.454C242.159 144.249 241.934 143.996 241.754 143.711C241.01 142.057 239.383 141.911 237.922 141.512C236.647 141.167 235.345 140.948 234.043 140.722C232.309 140.423 230.549 140.004 228.816 140.124C226.252 140.303 228.112 143.352 226.418 144.222C226.265 144.222 226.113 144.215 225.96 144.215C224.837 143.804 225.362 141.964 223.901 141.851C221.643 142.289 219.457 142.714 219.411 139.234C219.398 138.503 218.388 138.583 217.737 138.503C201.657 136.152 185.517 134.279 169.484 131.622C168.268 131.131 166.873 131.377 165.718 130.819C163.924 129.955 164.668 129.351 166.05 128.946C173.316 129.198 180.357 131.124 187.556 131.828C193.023 132.366 198.422 133.422 203.922 133.628C204.121 133.622 204.32 133.635 204.513 133.668C205.968 134.95 207.721 133.555 209.242 134.199C210.305 134.246 211.368 134.299 212.43 134.345C212.337 135.488 211.726 135.348 211.547 135.255C212.869 135.674 214.702 133.993 216.575 134.837Z" fill="#5A7391"/>
<path d="M242.493 144.122C243.775 143.91 245.063 143.697 246.345 143.485C252.974 140.27 259.775 138.656 267.041 141.186C269.107 141.904 270.582 140.449 272.275 139.778C274.6 138.849 275.251 139.453 274.932 142.09C265.135 147.476 254.953 152.066 244.911 156.948C243.881 157.446 242.845 157.652 241.729 157.353C241.523 152.916 240.474 148.433 242.493 144.122Z" fill="#A6BDD2"/>
<path d="M242.493 144.122C242.473 147.39 242.446 150.651 242.433 153.919C242.426 155.115 242.552 156.33 241.729 157.353C238.454 159 235.293 157.506 232.098 157.001C230.477 156.742 228.863 156.403 227.249 156.098C226.293 151.561 226.984 146.972 226.897 142.409C226.864 140.728 228.452 140.722 229.621 140.835C233.971 141.266 238.308 141.831 242.353 143.644C242.38 143.81 242.426 143.97 242.493 144.122Z" fill="#E2E9EF"/>
<path d="M274.93 142.09C275.017 140.071 274.166 139.147 272.453 140.589C269.936 142.707 267.578 142.402 264.615 141.459C259.754 139.911 254.852 141.08 250.149 142.721C248.887 143.159 247.712 143.71 246.337 143.485C247.227 141.964 248.721 141.24 250.269 140.662C257.15 138.078 263.672 134.697 270.314 131.582C272.207 131.356 273.396 131.954 273.927 134C274.445 135.993 275.84 137.148 278.105 136.909C279.991 136.71 281.081 137.494 280.928 139.539C278.63 139.679 277.328 142.176 274.93 142.09Z" fill="#91A9C1"/>
<path d="M218.389 137.686C221.69 137.307 219.856 140.09 220.906 141.452C221.849 140.668 223.171 140.821 224.479 140.881C225.568 143.591 224.851 146.447 225.143 149.223C225.382 151.481 224.658 153.826 225.701 156.018C225.734 159.378 225.768 162.746 225.801 166.107C223.755 165.914 221.53 166.591 219.797 164.884C219.757 164.453 219.544 164.028 219.611 163.603C220.056 160.707 219.372 158.196 217.146 156.197C217.904 155.812 219.159 156.615 219.484 155.666C219.929 154.377 218.163 154.961 217.817 154.198C218.256 151.999 218.329 149.774 218.242 147.536C218.216 144.255 218.521 140.974 218.389 137.686Z" fill="#6F89A6"/>
<path d="M242.353 143.644C240.878 144.129 239.65 143.896 238.082 143.325C235.253 142.282 232.104 142.097 229.076 141.612C227.256 141.319 227.196 142.561 227.203 143.877C227.236 147.948 227.229 152.019 227.243 156.084C225.682 153.687 226.817 151.023 226.532 148.499C226.372 147.091 226.446 145.65 226.412 144.229C226.519 139.088 226.519 139.128 231.646 139.526C234.628 139.759 237.491 140.496 240.367 141.226C241.609 141.539 242.738 141.984 242.353 143.644Z" fill="#7F95AD"/>
<path d="M228.524 166.718C228.112 166.698 227.7 166.678 227.295 166.658C227.793 164.739 227.806 162.773 227.773 160.813C227.74 158.874 228.676 157.804 230.596 158.23C233.432 158.861 236.467 158.621 239.111 160.109C234.721 160.308 233.784 162.593 235.85 168.066C235.71 168.372 235.484 168.571 235.166 168.677C234.721 168.724 234.282 168.77 233.837 168.81C233.591 168.372 233.339 167.933 233.093 167.502C233.359 165.901 233.857 164.313 233.299 162.68C232.867 161.418 232.044 160.574 230.656 160.727C229.327 160.873 229.44 162.049 229.361 163.005C229.254 164.274 229.507 165.635 228.524 166.718Z" fill="#6F89A6"/>
<path d="M225.707 156.018C224.857 155.726 224.505 155.055 224.572 154.231C224.91 149.781 223.635 145.338 224.485 140.881C226.89 141.153 225.442 143.119 225.96 144.222C225.873 148.154 225.787 152.086 225.707 156.018Z" fill="#BCCBDC"/>
<path d="M219.125 147.523C218.594 149.728 220.899 152.491 217.83 154.205C200.468 151.754 183.106 149.323 165.751 146.846C156.585 145.537 147.433 144.149 138.267 142.794C138.234 138.842 138.207 134.89 138.174 130.938C139.263 128.992 141.169 129.178 142.876 129.384C147.818 129.969 152.806 130.035 157.721 130.852C162.231 131.158 166.037 134.193 170.639 134.2C171.363 134.2 172.16 134.565 172.107 135.601C170.228 137.022 168.096 136.491 166.056 136.265C164.19 136.059 162.337 135.76 160.457 135.847C158.843 135.92 156.824 135.594 156.612 137.932C156.412 140.137 157.19 142.09 159.415 143.066C160.424 143.511 161.547 143.604 162.643 143.757C175.847 145.577 189.011 147.716 202.288 148.951C202.946 149.011 203.596 149.15 204.261 149.111C205.755 149.024 207.176 148.699 207.781 147.138C208.332 145.71 207.542 144.621 206.658 143.565C205.609 142.309 203.65 141.419 204.792 139.214C209.229 137.693 213.36 139.905 217.637 140.303C218.866 140.416 218.793 141.652 218.846 142.661C218.933 144.289 218.527 145.936 219.125 147.523Z" fill="#D4E0E9"/>
<path d="M203.923 133.635C201.199 134.943 198.45 133.648 195.853 133.323C187.451 132.28 178.976 131.642 170.68 129.789C169.192 129.457 167.591 129.617 166.044 129.55C165.479 128.939 164.536 129.63 163.985 128.952C155.364 127.87 146.743 126.794 137.663 125.651C138.58 124.974 138.985 124.668 139.397 124.363C145.155 124.296 150.701 125.877 156.367 126.581C171.63 128.474 186.727 131.563 202.063 133.004C202.694 133.07 203.298 133.422 203.923 133.635Z" fill="#94A7B9"/>
<path d="M163.986 128.952C164.736 128.932 165.52 128.793 166.045 129.55C165.938 129.576 165.799 129.563 165.732 129.629C165.606 129.742 165.527 129.902 165.427 130.041C166.689 130.626 168.276 129.676 169.412 130.872C168.084 132.3 166.277 132.625 164.563 132.406C162.405 132.127 160.206 132.1 158.074 131.602C153.266 131.184 148.457 130.719 143.635 130.38C141.808 130.254 139.889 129.736 138.175 130.931C137.817 127.956 138.262 126.661 142.027 127.418C147.999 128.62 154.156 128.925 160.246 129.497C161.475 129.616 162.896 130.121 163.986 128.952Z" fill="#899EB5"/>
<path d="M164.708 209.06C162.795 211.352 159.946 211.152 157.455 211.524C149.625 212.693 141.893 211.458 134.235 209.844C133.1 209.605 131.851 209.147 131.559 207.685C142.478 211.259 153.55 211.265 164.708 209.06Z" fill="#936F52"/>
<path d="M156.214 193.863C154.474 193.837 154.627 192.143 153.903 191.233C152.741 190.503 151.724 189.599 150.748 188.656C153.392 187.7 156.155 187.54 158.924 187.388C160.18 187.321 161.534 187.793 162.65 186.803C163.401 185.807 164.41 185.926 165.447 186.159C165.779 186.285 166.031 186.504 166.197 186.816C166.808 187.222 167.419 187.627 168.03 188.039C166.948 188.039 165.858 188.039 164.683 188.039C164.995 188.922 166.37 188.895 166.031 190.051C165.679 191.267 164.636 190.709 163.899 190.974C162.723 191.393 161.435 191.771 160.392 191.326C157.616 190.124 156.659 191.466 156.214 193.863Z" fill="#F5D895"/>
<path d="M168.036 188.045C169.995 186.471 171.988 187.567 173.967 187.979C172.015 190.131 170.029 188.975 168.036 188.045Z" fill="#F5D895"/>
<path d="M160.338 195.909C159.754 195.696 159.169 195.484 158.578 195.278C159.853 194.554 161.129 193.83 162.497 193.053C162.902 195.052 161.474 195.364 160.338 195.909Z" fill="#CC601C"/>
<path d="M205.954 172.649C212.875 173.619 219.795 174.609 226.73 175.538C228.111 175.724 228.51 176.448 228.603 177.73C228.716 179.357 229.028 180.978 229.26 182.599C230.004 183.555 229.884 184.458 229.101 185.329C228.211 180.971 224.784 180.394 221.204 180.042C220.918 176.747 219.663 175.107 215.817 175.113C212.091 175.127 208.358 173.825 204.705 173.114C204.725 173.088 204.831 172.875 204.984 172.822C205.29 172.722 205.628 172.702 205.954 172.649Z" fill="#CDD7E0"/>
<path d="M229.096 185.329C229.149 184.419 229.202 183.509 229.255 182.599C230.936 180.659 233.479 180.493 235.618 179.51C236.223 179.437 236.767 179.49 237.073 180.121C234.927 181.828 232.789 183.542 230.63 185.236C228.737 186.717 231.494 188.563 230.178 190.038C227.993 188.158 225.556 187.016 222.547 188.092C222.613 186.345 223.968 186.883 224.958 186.697C226.393 186.424 228.119 186.989 229.096 185.329Z" fill="#7C95B3"/>
<path d="M288.221 42.6671C286.069 43.8361 283.831 43.0922 281.605 42.7867C282.98 42.7003 284.362 42.6073 285.737 42.521C286.56 42.5675 287.391 42.6206 288.221 42.6671Z" fill="#F7F9FA"/>
<path d="M276.938 41.9696C275.018 43.132 272.999 42.4811 270.993 42.1091C272.587 42.0228 274.181 41.9364 275.775 41.8501C276.167 41.8899 276.552 41.9298 276.938 41.9696Z" fill="#F7F9FA"/>
<path d="M286.315 119.66C284.501 120.032 282.622 122.529 280.901 119.501C284.422 117.216 288.374 115.881 292.259 114.406C292.279 115.25 292.837 116.107 292.206 116.943C290.506 118.411 288.274 118.73 286.315 119.66Z" fill="#708AA8"/>
<path d="M292.225 128.281C291.156 127.989 289.568 129.55 289.05 127.982C288.207 125.432 289.409 123.38 291.787 121.739C292.57 123.825 290.585 125.963 292.205 127.763C292.212 127.936 292.218 128.109 292.225 128.281Z" fill="#5A7391"/>
<path d="M150.748 188.656C152.508 188.649 153.624 189.433 153.903 191.24C153.053 193.438 153.504 195.716 153.491 197.961C153.259 197.775 153.026 197.589 152.794 197.403C152.727 196.434 152.867 195.378 152.535 194.508C152.07 193.312 151.007 192.608 150.243 194.222C148.762 197.37 146.079 195.683 143.913 195.936C142.924 196.055 143.615 194.866 143.289 194.428C142.572 193.445 143.249 191.957 142.047 191.187C141.702 190.522 141.204 189.852 142.167 189.274C143.475 189.314 144.81 188.184 146.092 189.38C147.812 190.27 149.426 190.463 150.735 188.669L150.748 188.656Z" fill="#B9B042"/>
<path d="M209.329 38.4696C205.955 38.4098 202.547 39.1603 199.22 38.0511C202.594 38.0777 205.994 37.46 209.329 38.4696Z" fill="#9CAEC1"/>
<path d="M265.532 161.982C265.878 163.835 265.732 164.885 263.268 164.247C260.358 163.503 257.323 163.231 254.341 162.759C257.828 159.013 261.793 162.088 265.532 161.982Z" fill="#597394"/>
<path d="M235.166 168.671C235.392 168.465 235.618 168.265 235.85 168.06C240.938 169.713 245.282 167.661 249.566 165.31C249.532 167.15 250.137 169.029 249.167 170.803C249.074 169.62 248.975 168.438 248.855 166.964C244.385 169.328 239.935 170.564 235.166 168.671Z" fill="#677E99"/>
<path d="M180.012 164.187C179.361 164.187 178.71 164.187 178.052 164.187C174.133 163.609 170.221 163.025 167.007 163.457C170.261 163.218 174.233 163.49 178.112 164.632C179.141 165.164 180.171 165.688 181.207 166.22C180.105 167.342 178.67 166.99 177.481 166.731C174.127 166.001 170.746 166.18 167.372 166.1C167.199 166.074 167.027 166.054 166.854 166.027C164.091 165.363 161.175 165.914 158.445 164.984C157.356 164.612 155.941 164.612 156.174 162.846C160.989 162.314 165.619 160.807 170.361 159.897C173.894 159.219 177.295 158.854 179.912 161.59C180.37 161.889 180.53 162.341 180.576 162.852C180.569 163.377 180.417 163.835 180.012 164.187Z" fill="#B8CAD9"/>
<path d="M150.561 170.697C151.444 169.933 152.008 168.737 153.377 168.631C156.91 168.379 160.391 166.399 164.362 168.432C160.643 169.647 157.209 170.823 153.735 171.866C152.5 172.244 151.045 172.629 150.561 170.697Z" fill="#BDD2E3"/>
<path d="M167.379 166.107C162.331 167.694 157.509 166.731 152.773 164.792C153.192 163.869 154.022 163.291 154.892 163.656C158.233 165.044 161.747 165.097 165.267 165.283C166.017 165.323 166.761 165.669 167.399 166.134L167.379 166.107Z" fill="#B3C7D7"/>
<path d="M146.138 175.326C146.045 172.569 147.187 170.896 150.11 170.75C150.063 172.118 150.183 173.513 149.512 174.788C148.456 175.405 147.327 175.591 146.138 175.326Z" fill="#2D3F5B"/>
<path d="M162.085 184.731C162.636 183.954 163.427 183.336 163.294 182.174C163.194 181.29 163.281 180.453 162.364 179.882C161.388 179.271 160.73 179.683 160.046 180.34C159.056 181.303 157.907 181.775 158.127 179.769C158.299 178.208 155.676 176.926 157.442 175.704C159.216 174.482 160.81 176.09 162.411 177.119C166.648 179.856 167.492 181.788 166.196 186.816L165.977 186.624C165.087 185.162 163.002 186.145 162.085 184.731Z" fill="#F5D895"/>
<path d="M150.734 188.669C151.246 189.652 151.12 190.35 149.904 190.589C148.41 190.881 146.835 191.439 146.085 189.38C147.619 189.028 149.1 188.337 150.734 188.669Z" fill="#F5D895"/>
<path d="M162.085 184.731C163.141 185.86 166.17 182.951 165.977 186.63C164.868 186.69 163.759 186.743 162.649 186.803C162.125 186.205 161.746 185.568 162.085 184.731Z" fill="#D38C30"/>
<path d="M233.086 52.5239C232.269 51.149 229.174 52.67 229.659 50.5845C230.031 48.9771 232.574 49.2561 234.308 49.2494C237.489 49.2362 240.664 49.1963 243.846 49.1631C251.544 49.4221 259.242 49.6812 266.933 49.9402C266.993 50.1062 267.059 50.2723 267.119 50.4383C266.933 50.7505 266.667 50.9763 266.335 51.1158C262.556 50.8435 259.421 52.8095 256.093 54.1179C254.772 54.1844 253.457 54.2242 252.135 54.1711C248.555 54.0515 244.975 54.2773 241.395 54.0449C240.771 53.9386 240.219 53.7061 239.821 53.1814C237.682 52.0191 235.324 52.929 233.086 52.5239Z" fill="#A4B5C8"/>
<path d="M290.945 51.2021C290.792 51.9991 290.453 52.2781 289.616 51.8796C287.909 51.0692 286.076 51.0958 284.243 51.2619C280.749 53.3009 277.249 51.5275 273.749 51.2818C271.59 50.2988 268.986 51.5143 266.947 49.9335H266.941C267.266 49.1232 268.847 49.1032 268.482 48.0538C268.09 46.9181 266.815 47.2634 265.865 47.2502C263.587 47.217 261.308 47.2369 259.03 46.4531C261.521 46.4531 264.005 46.4531 266.496 46.4531C269.305 46.5195 272.108 46.586 274.918 46.6524C278.265 47.3365 281.679 46.5129 285.033 47.0908C287.624 47.5889 289.656 48.8641 290.945 51.2021Z" fill="#263448"/>
<path d="M264.994 45.9547C265.193 45.5961 265.492 44.892 265.585 44.9186C268.262 45.6359 270.746 45.1444 273.23 44.0352C274.034 43.6766 275.229 44.0087 275.263 45.0847C275.296 46.1606 274.147 45.8684 273.443 45.8817C271.025 45.9481 268.607 45.9614 266.19 45.9946C265.791 45.9813 265.393 45.968 264.994 45.9547Z" fill="#F7F9FA"/>
<path d="M285.046 47.1108C281.659 47.2636 278.272 47.5492 274.931 46.6725C275.834 46.5928 276.744 46.5131 277.647 46.4333C280.098 46.8252 282.649 46.1345 285.046 47.1108Z" fill="#767E89"/>
<path d="M164.084 156.051C163.407 155.719 162.636 155.5 162.065 155.041C160.684 153.932 159.136 152.644 159.674 150.698C160.179 148.865 162.125 149.801 163.42 149.476C165.791 148.114 168.209 149.429 170.474 149.681C182.721 151.056 194.903 152.923 207.064 154.942C207.675 155.181 208.326 155.34 208.917 155.593C211.003 156.496 211.76 158.429 211.607 160.401C211.428 162.706 209.276 162.215 207.708 162.348C205.729 162.514 203.776 162.108 201.803 162.102C196.742 161.411 191.648 161.032 186.587 160.348C184.76 160.103 182.901 159.956 181.32 158.834C175.568 157.904 169.829 156.981 164.084 156.051Z" fill="#FAFBFB"/>
<path d="M181.313 158.834C187.118 159.219 192.85 160.142 198.568 161.152C199.644 161.338 200.74 161.411 201.823 161.537C203.716 162.155 205.735 161.524 207.648 162.122C208.385 162.354 209.195 162.348 209.275 163.37C206.731 163.702 204.267 163.078 201.776 162.726C199.292 162.374 196.463 160.614 194.975 164.559C194.696 165.303 193.135 165.974 192.159 165.987C188.028 166.047 183.843 166.213 180.004 164.187C179.998 163.722 179.991 163.257 179.984 162.786C182.05 162.055 183.83 163.191 185.69 163.702C187.277 164.141 188.825 164.745 190.512 164.426C191.176 164.3 191.913 164.074 192.033 163.364C192.186 162.474 191.335 162.401 190.724 162.248C188.938 161.81 187.244 161.039 185.271 161.311C183.883 161.497 182.415 161.258 181.346 160.083C181.346 159.671 181.333 159.252 181.313 158.834Z" fill="#7890AF"/>
<path d="M181.36 160.089C184.754 160.574 188.248 160.209 191.556 161.424C192.333 161.71 193.515 161.378 193.495 162.653C193.475 163.782 193.07 164.845 191.768 165.17C190.36 165.522 188.919 165.609 187.524 165.19C185 164.433 182.503 163.59 179.999 162.779C179.972 162.381 179.946 161.982 179.919 161.584C179.985 160.7 180.437 160.169 181.36 160.089Z" fill="#4E5C6F"/>
<path d="M167.399 166.127C163.307 165.011 158.884 166.034 154.899 164.188C154.115 163.822 153.451 164.46 152.773 164.792C152.501 163.842 150.448 164.281 151.033 162.886C151.584 161.577 152.893 162.215 153.929 162.401C154.679 162.534 155.43 162.7 156.174 162.853C158.319 164.918 161.069 164.672 163.712 164.819C165.087 164.892 166.621 164.407 167.399 166.127Z" fill="#7890AF"/>
<path d="M165.485 157.632C163.572 158.754 161.42 160.474 159.979 156.868C161.871 157.134 163.678 157.379 165.485 157.632Z" fill="#CDDDE7"/>
<path d="M209.283 163.37C207.005 161.929 204.196 162.64 201.831 161.537C203.797 161.524 205.77 161.617 207.722 161.444C208.865 161.344 210.778 162.334 210.977 160.408C211.15 158.754 209.815 157.359 208.619 156.184C208.267 155.838 207.683 155.739 207.204 155.526C207.835 154.895 208.632 155.26 209.356 155.167C211.727 155.632 214.138 155.759 216.523 156.15C216.729 156.197 216.941 156.217 217.147 156.204C220.734 157.406 221.65 160.415 219.797 164.891C216.39 163.749 212.837 163.53 209.283 163.37Z" fill="#D1DDE8"/>
<path d="M209.255 155.407C208.571 155.447 207.887 155.486 207.203 155.526C192.67 153.062 178.065 151.07 163.413 149.476C161.115 148.267 158.345 148.898 156.08 147.576C164.01 147.695 171.795 149.183 179.612 150.266C189.502 151.641 199.345 153.321 209.202 154.869C209.414 154.968 209.494 155.081 209.441 155.207C209.381 155.34 209.322 155.407 209.255 155.407Z" fill="#92A4B8"/>
<path d="M209.256 155.406C209.236 155.227 209.216 155.048 209.203 154.868C211.661 155.181 214.185 155.147 216.522 156.15C214.052 156.389 211.647 155.938 209.256 155.406Z" fill="#6F89A6"/>
<path d="M239.841 53.1814C240.26 53.208 240.685 53.2279 241.103 53.2545C244.856 53.7659 248.615 53.7593 252.368 53.2611C253.696 53.2545 255.025 53.2479 256.36 53.2412C257.934 54.1777 259.328 52.9025 260.836 52.8626C268.468 52.67 276.059 53.1217 283.611 54.1844C286.919 54.6493 287.636 55.7186 287.63 59.0728C287.596 73.9573 286.295 88.7953 285.916 103.666C285.83 107.16 285.039 107.877 281.526 108.017C278.537 108.136 275.568 107.977 272.652 107.286C266.462 106.43 260.212 105.978 253.988 105.493C247.958 105.021 241.94 104.643 235.969 103.647C235.444 103.029 234.926 102.418 234.401 101.8C237.59 100.332 239.456 96.4733 243.72 96.8652C244.843 96.9715 245.155 95.6032 245.042 94.5605C244.896 93.1457 244.73 91.7111 244.358 90.3428C242.637 84.033 245.733 79.3704 249.472 74.8739C250.515 73.6186 251.451 72.257 252.321 70.8688C254.653 67.1427 258.558 65.0107 261.414 61.8159C263.294 59.7104 263.148 58.7673 260.411 58.03C255.709 56.7614 250.814 57.067 246.011 56.6419C241.96 56.2832 237.955 55.6854 233.937 55.1342C233.226 55.0345 232.416 54.8154 231.997 53.2014C234.727 53.1814 237.284 53.1814 239.841 53.1814Z" fill="#E6EAF0"/>
<path d="M188.101 99.6016C187.649 87.4536 188.844 75.3786 189.735 63.2904C190 59.6573 189.867 55.9976 190.08 52.3645C190.14 51.3748 189.522 49.4288 191.873 50C192.092 50.4317 192.318 50.87 192.537 51.3018C193.7 54.6559 192.657 58.0367 192.405 61.3377C191.933 67.4814 191.627 73.6451 191.388 79.7889C191.196 84.7105 191.103 89.5923 190.013 94.4143C189.462 96.1744 190.864 98.6585 188.101 99.6016Z" fill="#F6F8FA"/>
<path d="M190.008 94.4143C190.526 80.0213 191.27 65.6483 192.532 51.3018C194.611 51.3947 194 53.0353 193.86 54.0183C192.233 65.3959 192.499 76.873 191.848 88.2971C191.728 90.3627 190.645 92.3752 190.008 94.4143Z" fill="#B3C0D0"/>
<path d="M239.809 108.303C240.905 108.363 242 108.422 243.096 108.475C247.493 109.179 251.897 109.83 256.367 109.804C266.416 110.734 276.465 111.664 286.508 112.593C286.627 113.005 286.747 113.41 286.866 113.822C280.703 116.625 274.539 119.428 268.375 122.231C267.818 121.792 267.612 121.175 267.519 120.511C266.801 117.01 266.416 116.824 261.242 117.482C260.81 117.522 260.286 117.469 260.013 117.794C257.543 120.71 257.556 120.723 256.141 117.342C254.514 115.27 251.631 116.505 249.811 114.951C247.991 114.779 246.012 117.754 244.411 115.004C243.037 112.64 239.397 111.85 239.809 108.303Z" fill="#59718F"/>
<path d="M243.17 132.791C242.917 132.944 242.665 133.097 242.412 133.25C240.247 135.216 237.557 134.405 235.286 134.073C229.235 133.19 223.151 132.499 217.113 131.496C216.662 131.423 216.296 131.204 216.004 130.852C214.795 128.295 216.177 124.589 219.079 122.835C219.916 122.33 220.913 122.091 221.836 121.733C224.771 123.127 227.827 122.895 230.909 122.437C233.612 122.038 236.302 121.593 239.291 121.414C239.43 121.473 238.992 120.809 239.005 121.254C239.012 121.487 238.932 121.434 238.7 121.367C237.305 120.975 237.172 120.165 238.095 119.235C239.477 117.84 241.024 116.798 243.023 118.246C243.435 119.136 244.305 119.056 245.062 119.222C245.043 119.328 245.049 119.448 245.009 119.547C244.969 119.64 244.876 119.713 244.81 119.793C245.946 120.371 248.277 119.873 247.819 121.892C247.427 123.625 245.414 122.808 244.053 122.842C243.07 122.868 242.127 123.048 241.356 123.606C242.233 124.821 245.295 124.157 244.126 127.033C243.15 128.129 241.516 128.049 240.519 129.059C241.788 130.042 244.146 130.241 243.17 132.791Z" fill="#E8801C"/>
<path d="M201.352 104.291C211.859 105.267 222.373 106.237 232.881 107.226C233.425 107.28 233.957 107.479 234.422 107.034C235.777 108.781 237.132 110.527 238.486 112.274C234.807 114.758 230.895 116.684 226.398 117.163C224.751 112.108 221.211 110.016 216.004 110.501C213.387 110.747 211.673 108.369 209.222 108.156C205.609 109.644 201.265 108.375 198.011 111.165C196.496 110.992 195.048 110.634 193.833 109.637C195.055 107.924 197.499 107.373 197.838 104.649C197.971 103.527 200.083 103.992 201.352 104.291Z" fill="#6A7B94"/>
<path d="M243.713 126.78C243.162 124.037 240.479 124.827 238.586 123.705C241.382 121.978 244.351 121.746 247.406 122.151C247.187 120.238 243.893 121.859 245.055 119.222C246.204 118.863 247.566 118.943 248.27 117.668C250.369 116.02 252.062 117.342 253.796 118.411C255.211 119.6 257.004 119.74 258.684 120.198C260.225 120.617 261.773 121.267 261.945 123.021C262.112 124.661 260.471 124.987 259.335 125.598C257.887 126.375 256.36 126.979 254.885 127.697C251.152 129.802 247.393 131.835 243.169 132.798C242.797 131.19 242.08 130.055 240.14 130.201C239.429 130.254 238.174 130.453 238.925 128.939C244.278 129.151 248.436 125.81 253.152 124.143C250.594 125.439 247.639 125.658 245.148 127.145C244.657 127.424 244.079 127.351 243.713 126.78Z" fill="#F3AB3A"/>
<path d="M243.016 118.245C241.768 118.704 240.486 118.531 239.157 119.408C236.069 121.434 239.775 120.637 239.722 121.786C234.408 123.028 228.936 124.057 223.277 123.4C222.745 123.34 222.32 122.304 221.849 121.726C224.12 120.284 226.651 119.501 229.261 119.062C231.32 118.717 233.359 118.671 234.727 116.638C235.265 115.841 236.441 115.542 237.437 116.16C238.407 116.764 239.284 116.685 240.227 116.167C242.671 114.805 243.149 116.12 243.016 118.245Z" fill="#F3C147"/>
<path d="M235.976 103.633C240.791 103.128 245.493 104.377 250.262 104.629C253.145 104.782 256.021 103.832 258.963 104.948C263.234 106.575 267.963 104.921 272.327 106.356C272.792 107.272 272.513 107.883 271.496 107.937C270.42 107.996 269.311 108.222 268.268 107.704C260.245 107.379 252.315 106.17 244.358 105.253C241.947 104.974 239.556 104.768 237.131 104.941C236.746 104.516 236.361 104.071 235.976 103.633Z" fill="#DBE6EE"/>
<path d="M209.761 131.011C209.363 130.978 208.958 130.945 208.559 130.911C205.783 130.825 203.139 129.603 200.31 129.902C199.725 129.962 199.241 129.742 198.981 129.165C198.975 127.79 199.971 127.464 201.027 127.205C204.913 126.96 208.127 124.668 211.78 123.685C212.91 123.38 213.972 122.629 215.181 123.419C214.716 125.903 212.843 128.255 214.47 130.938C212.91 131.463 211.335 131.323 209.761 131.011Z" fill="#476C97"/>
<path d="M215.18 123.419C211.487 124.807 207.807 126.235 204.081 127.55C203.178 127.869 202.202 129.045 201.159 127.723C200.906 126.355 202.009 126.016 202.872 125.697C209.992 123.04 216.873 119.812 224.027 117.242C224.751 116.983 225.488 116.711 226.272 117.003C230.682 116.312 234.408 113.855 238.48 112.281C238.147 113.762 238.121 113.709 236.607 114.359C229.473 117.401 222.054 119.773 215.18 123.419Z" fill="#B3C7D6"/>
<path d="M209.762 131.011C211.329 130.984 212.903 130.964 214.471 130.938C214.982 130.911 215.494 130.878 216.012 130.851C221.989 131.582 227.98 132.206 233.932 133.096C236.788 133.521 239.584 133.701 242.42 133.249C242.46 135.633 240.793 135.049 239.411 134.989C231.155 134.624 223.052 133.09 214.922 131.808C213.202 131.535 211.369 131.941 209.762 131.011Z" fill="#82909F"/>
<path d="M253.723 119.016C251.956 118.378 250.342 117.11 248.276 117.668C246.842 115.662 249.598 116.027 249.81 114.958C252.434 114.772 255.091 114.446 256.944 116.983C256.884 119.268 255.576 119.574 253.723 119.016Z" fill="#FAD448"/>
<path d="M201.352 104.291C199.34 104.331 197.174 104.191 198.097 107.373C198.45 108.588 197.613 108.867 196.656 108.974C195.713 109.08 194.67 108.741 193.906 109.618C192.625 111.478 190.931 110.667 189.31 110.342C188.666 110.149 188.075 109.83 187.497 109.485C185.352 107.599 182.037 108.296 180.038 106.104C179.713 104.822 180.503 103.7 180.583 102.478C180.842 102.411 181.108 102.345 181.367 102.279C188.035 102.856 194.757 102.983 201.352 104.291Z" fill="#8098B2"/>
<path d="M158.671 124.382C147.878 122.994 137.078 121.613 126.285 120.224C125.74 119.886 124.738 119.54 124.744 119.208C124.757 118.132 125.654 117.481 126.611 117.143C129.42 116.16 132.236 115.183 135.086 114.333C143.415 111.836 151.763 109.398 160.106 106.941C160.185 108.734 158.651 109.093 157.522 109.392C154.141 110.288 151.245 111.975 148.602 114.187C146.795 116.027 143.72 115.575 142.146 117.807C141.86 120.085 143.687 120.244 145.095 120.557C151.265 121.925 157.469 121.652 163.672 120.696C164.755 120.995 164.848 121.965 165.114 122.821C165.167 123.2 165.127 123.565 165.007 123.924C162.988 125.385 160.796 124.396 158.671 124.382Z" fill="#60697A"/>
<path d="M148.104 113.709C151.072 109.631 156.472 109.85 160.099 106.941C160.245 106.914 160.398 106.881 160.544 106.848C162.576 106.476 162.928 109.053 164.668 109.199C163.546 111.351 161.221 110.614 159.494 111.305C157.967 111.916 156.26 111.876 154.573 112.168C159.029 112.726 160.776 112.494 164.648 110.753C165.685 110.288 166.754 110.176 167.863 110.162C168.507 110.156 169.145 110.195 169.776 110.328C170.095 110.415 170.387 110.561 170.653 110.747C170.865 111.006 170.965 111.305 170.965 111.637C170.613 114.114 168.846 114.526 166.774 114.493C165.95 114.506 165.266 114.832 164.688 115.416C162.802 116.784 160.63 117.05 158.405 117.037C157.761 117.037 156.997 116.864 156.818 116.107C156.532 114.918 158.119 115.854 158.186 115.263C154.712 115.542 151.358 115.024 148.104 113.709Z" fill="#E48E25"/>
<path d="M170.679 111.55C170.686 111.371 170.692 111.198 170.699 111.019C171.111 110.248 172.021 110.487 172.698 110.029C171.828 110.454 170.812 110.155 170.154 110.919C169.43 110.932 168.706 110.946 167.982 110.959C167.504 109.485 169.211 109.226 169.523 108.189C171.303 106.051 173.714 106.243 176.139 106.336C177.434 106.389 178.736 106.19 180.037 106.097C182.681 106.901 185.683 106.722 187.808 108.933C185.211 113.357 179.38 115.216 174.173 113.297C173.495 111.723 174.631 112.194 175.355 111.982C173.854 111.769 172.027 113.31 170.679 111.55Z" fill="#E89739"/>
<path d="M169.524 108.189C170.148 109.744 168.209 109.876 167.989 110.959C166.528 111.165 165.22 111.404 163.805 112.241C160.584 114.141 156.884 113.41 153.351 112.938C152.7 112.852 152.148 112.38 152.354 111.311C156.579 111.51 160.577 110.089 164.675 109.192C166.289 108.86 167.903 108.522 169.524 108.189Z" fill="#FAE3A4"/>
<path d="M279.003 120.404C280.265 121.38 280.431 122.231 278.803 123.028C274.453 125.153 270.235 127.597 265.759 129.384C262.258 130.785 259.303 133.196 255.696 134.312C255.132 134.485 254.228 135.308 254.308 135.554C255.769 139.931 252.369 137.587 251.14 137.726C249.34 137.939 247.434 137.055 245.68 138.184C244.777 138.111 243.621 138.404 243.721 136.856C254.673 131.662 265.626 126.461 276.585 121.274C277.355 120.909 278.04 120.251 279.003 120.404Z" fill="#708AA8"/>
<path d="M189.164 109.777C190.738 109.644 192.352 110.527 193.899 109.617C195.234 109.81 196.895 109.099 197.625 110.972C198.017 111.065 198.157 111.304 198.057 111.689C197.745 112.095 197.32 112.34 196.862 112.526C193.8 114.041 189.914 113.715 187.497 116.691C185.477 118.477 182.874 118.67 180.43 118.936C177.992 119.201 176.644 120.331 175.966 122.536C175.515 123.485 175.461 124.635 174.512 125.319C172.141 125.777 169.749 125.83 167.352 125.664C166.933 125.637 166.508 125.604 166.09 125.578C166.834 124.09 165.127 123.871 164.735 122.974L164.715 122.928C163.998 120.669 165.983 120.676 167.126 120.317C172.34 118.67 177.368 116.492 182.648 115.044C183.764 114.738 185.086 114.672 185.703 113.39C186.7 112.041 188.287 111.251 189.164 109.777Z" fill="#55697C"/>
<path d="M243.714 136.856C244.371 137.301 245.022 137.746 245.673 138.184C243.78 140.104 241.721 140.084 239.097 139.572C231.645 138.105 224.1 137.122 216.562 135.939C217.199 135.614 217.817 135.295 218.435 134.976C222.632 134.916 226.757 135.68 230.862 136.338C235.159 137.022 239.423 136.995 243.714 136.856Z" fill="#94A7B9"/>
<path d="M253.724 119.016C255.006 118.664 256.307 118.352 256.945 116.977C257.516 117.262 257.689 117.734 257.616 118.338C257.556 118.83 257.184 119.541 258.147 119.481C258.825 119.441 259.05 118.883 258.878 118.279C257.988 115.157 259.721 116.419 261.036 116.977C262.65 119.853 265.075 120.922 268.289 120.225C268.323 120.896 268.349 121.56 268.382 122.231C264.005 124.336 259.595 126.375 254.893 127.684C256.161 126.395 257.895 125.904 259.422 125.067C260.292 124.588 261.402 124.163 261.415 123.094C261.428 121.978 260.133 121.739 259.376 121.181C258.38 120.444 257.197 120.231 255.942 120.258C255.006 120.278 253.837 120.537 253.724 119.016Z" fill="#B18043"/>
<path d="M167.352 125.665C169.756 125.047 172.207 124.901 174.678 124.994C175.926 124.31 177.261 124.575 178.543 124.748C184.189 125.532 189.834 126.349 195.46 127.299C196.423 127.458 197.453 127.498 198.03 128.494C196.988 130.155 195.287 128.727 194.025 129.351C185.132 128.129 176.245 126.9 167.352 125.665Z" fill="#899199"/>
<path d="M194.026 129.357C195.288 128.533 196.723 129.138 198.045 128.865C198.417 128.553 198.789 128.553 199.147 128.885C202.242 129.736 205.583 129.47 208.552 130.905C203.644 131.044 198.882 129.762 194.026 129.357Z" fill="#82909F"/>
<path d="M256.367 109.81C251.837 110.408 247.401 110.069 243.097 108.482C247.573 108.395 251.957 109.206 256.367 109.81Z" fill="#5F5C62"/>
<path d="M164.728 122.975C165.93 123.314 167.139 123.652 168.348 123.991C168.129 125.519 166.462 124.556 166.083 125.578C163.579 125.366 161.082 125.147 158.671 124.376C159.986 124.37 161.294 124.363 162.61 124.363C163.626 124.37 164.662 124.416 164.728 122.975Z" fill="#98ADBB"/>
<path d="M216.575 134.837C214.596 135.169 212.649 135.886 210.378 135.275C211.182 134.917 211.806 134.631 212.43 134.352C213.845 134.226 215.28 133.96 216.575 134.837Z" fill="#94A7B9"/>
<path d="M209.243 134.213C207.635 134.339 205.842 136.066 204.514 133.681C206.121 133.588 207.762 133.216 209.243 134.213Z" fill="#94A7B9"/>
<path d="M268.269 107.711C269.584 107.147 271.617 108.741 272.327 106.363C275.575 107.087 278.876 106.981 282.171 107.061C284.057 107.107 285.02 106.649 284.954 104.503C284.714 96.8985 285.498 89.3134 285.81 81.7284C286.03 76.5012 285.764 71.1811 286.82 65.9539C287.378 63.2041 285.917 60.4013 286.74 57.4855C287.105 56.1903 285.817 55.3733 284.183 55.1807C276.087 54.2044 267.97 53.7129 259.814 53.8391C258.652 53.859 257.363 54.2708 256.354 53.2413C256.573 53.2214 256.905 53.2944 256.991 53.1749C259.655 49.5617 263.646 50.9366 267.133 50.4716C269.299 50.1395 271.464 50.0798 273.622 50.5115C277.163 50.7639 280.696 51.0163 284.236 51.2687C290.054 54.6959 290.739 56.3099 289.749 63.0447C289.058 67.7472 289.49 72.5094 289.045 77.2584C288.235 85.9327 287.969 94.6535 287.444 103.361C287.179 107.824 285.139 110.614 279.965 109.425C276.133 108.535 272.088 108.894 268.269 107.711Z" fill="#C2CDDA"/>
<path d="M228.523 166.718C228.49 165.396 228.344 164.068 228.45 162.759C228.55 161.511 227.673 159.551 230.071 159.558C231.984 159.565 234.009 159.917 234.162 162.374C234.268 164.114 235.75 166.286 233.093 167.495C231.565 167.236 230.044 166.977 228.523 166.718Z" fill="#ADC3D5"/>
<path d="M178.119 164.639C173.39 164.366 168.654 164.088 163.925 163.815C163.951 163.543 163.978 163.264 164.005 162.992C168.74 162.626 173.509 161.77 178.059 164.194C178.085 164.34 178.105 164.486 178.119 164.639Z" fill="#7890AF"/>
<path d="M158.073 131.609C161.866 131.615 165.658 131.589 169.411 130.878C182.901 132.791 196.39 134.71 209.887 136.603C212.716 137.002 215.559 137.327 218.388 137.686C218.986 138.25 220.075 138.569 219.637 139.712C218.667 142.269 219.497 144.932 219.119 147.523C218.953 147.25 218.601 146.945 218.641 146.706C219.404 142.189 217.518 140.382 212.968 140.376C210.186 140.369 207.429 139.26 204.56 139.566C203.457 140.402 202.209 140.064 201.04 139.904C192.399 138.715 183.751 137.606 175.083 136.643C174.001 136.524 172.851 136.484 172.054 135.541C167.153 135.082 162.742 132.884 158.073 131.609Z" fill="#B7C6D6"/>
<path d="M172.055 135.534C182.961 136.284 193.781 137.799 204.56 139.559C205.112 140.628 205.623 141.651 206.752 142.362C208.692 143.571 209.847 145.483 208.957 147.702C208.067 149.933 205.856 150.378 203.637 150.139C197.64 149.508 191.635 148.917 185.664 148.094C176.99 146.898 168.342 145.503 159.674 144.202C156.619 143.743 154.275 138.483 155.928 135.906C156.699 134.704 157.808 135.016 158.871 134.916C163.308 134.524 167.631 136.025 172.055 135.534Z" fill="#F9FAFB"/>
<path d="M252.374 53.261C248.621 54.2839 244.862 54.2706 241.109 53.2544C244.862 53.2544 248.615 53.2544 252.374 53.261Z" fill="#DBE6EE"/>
<path d="M273.629 50.5044C271.464 50.4911 269.305 50.4778 267.14 50.4646C267.06 50.2985 266.994 50.1258 266.947 49.9398C269.186 50.0461 271.49 49.2956 273.629 50.5044Z" fill="#374D68"/>
<path d="M268.282 120.231C263.739 122.29 262.471 121.719 261.029 116.983C265.745 115.217 268.036 116.246 268.282 120.231Z" fill="#ECA424"/>
<path d="M243.714 126.78C247.447 125.352 251.187 123.931 254.919 122.503C255.032 122.828 255.152 123.147 255.265 123.473C251.552 126.495 246.949 127.79 242.585 129.49C241.529 129.902 239.975 130.174 238.919 128.932C240.207 127.518 242.087 127.431 243.714 126.78Z" fill="#FCF1BF"/>
<path d="M219.312 125.857C221.596 125.439 223.615 125.06 225.641 124.715C226.365 124.588 227.767 123.957 227.009 125.605C226.598 126.488 228.823 128.434 225.914 128.315C223.503 128.222 221.105 128.328 219.312 125.857Z" fill="#FAD35E"/>
<path d="M199.154 128.886C198.782 128.879 198.417 128.873 198.045 128.866C191.396 127.365 184.615 126.634 177.88 125.665C176.791 125.512 175.675 125.545 174.672 124.994C174.964 124.07 174.546 122.988 175.296 122.164C176.884 121.387 178.584 121.4 180.291 121.447C184.621 121.586 188.56 123.453 192.744 124.256C194.285 124.555 195.806 124.542 197.327 124.197C199.532 123.692 201.658 122.901 203.89 122.423C205.69 122.038 207.988 121.447 207.941 118.724C205.158 117.209 201.93 117.973 199.068 116.95C195.541 115.582 195.541 115.582 196.67 111.816C197.048 111.703 197.434 111.597 197.812 111.484C199.22 111.092 200.336 111.703 201.392 112.52C202.9 114.626 204.72 113.656 206.506 113.038C206.918 112.939 207.35 112.959 207.762 112.859C206.885 110.607 209.834 109.266 209.143 107.061C212.75 108.781 216.403 109.83 220.547 109.956C224.247 110.069 226.286 113.271 226.279 116.99C219.365 119.84 212.438 122.669 205.537 125.552C204.036 126.176 202.296 126.335 201.166 127.717C200.496 128.109 199.825 128.501 199.154 128.886Z" fill="#E5921F"/>
<path d="M209.143 107.067C209.88 108.024 210.85 109.133 209.362 110.063C207.443 111.258 208.266 112.215 209.588 113.184C208.479 113.902 207.503 113.629 206.566 113.669C205.962 112.766 206.367 111.178 204.6 111.052C202.946 110.933 201.93 111.69 201.193 113.025C200.07 112.513 198.941 112.002 197.819 111.491C197.792 111.305 197.732 111.132 197.633 110.966C198.231 109.033 200.031 108.581 201.545 108.555C204.208 108.515 206.672 107.871 209.143 107.067Z" fill="#F9D571"/>
<path d="M189.164 109.777C189.569 112.334 187.258 112.613 185.89 113.689C183.233 115.814 179.832 116.027 176.784 117.136C172.613 118.651 168.528 120.537 164.031 121.028C156.639 123.678 149.247 122.589 141.96 120.69C140.287 120.251 140.227 118.345 141.535 116.904C142.186 116.857 142.857 116.392 143.468 116.698C147.506 118.744 151.85 118.039 156.094 118.086C157.595 118.099 159.422 118.817 160.405 116.784C160.544 116.499 161.209 116.412 161.64 116.545C165.612 117.754 169.445 116.518 173.37 115.961C173.091 115.203 172.267 115.376 171.842 114.951C171.543 114.758 171.324 114.506 171.178 114.181C171.59 112.6 172.486 112.122 173.961 112.952C179.255 113.961 183.904 112.746 187.809 108.953C188.261 109.219 188.713 109.498 189.164 109.777Z" fill="#CD6410"/>
<path d="M171.954 114.386C173.395 114.287 174.352 115.217 176.251 116.167C170.606 116.904 165.956 119.361 160.557 116.944C161.008 117.668 161.606 118.226 161.5 118.551C161.247 119.341 160.384 119.029 159.779 119.009C153.642 118.79 147.339 119.972 141.534 116.897C143.261 114.885 146.11 115.17 148.103 113.702C151.783 113.218 155.19 114.851 158.763 115.011C158.889 116.12 157.581 115.369 157.475 116.286C160.065 116.193 162.596 116.127 164.708 114.347C167.125 113.928 169.53 115.795 171.954 114.386Z" fill="#F8BE42"/>
<path d="M164.038 121.022C171.324 118.577 178.61 116.133 185.897 113.682C187.856 114.446 186.388 114.712 185.677 114.944C180.251 116.764 174.785 118.458 169.405 120.411C167.771 121.002 165.552 120.769 164.709 122.928C164.018 122.456 164.071 121.726 164.038 121.022Z" fill="#98ADBB"/>
<path d="M173.968 112.939C172.946 113.058 171.723 112.793 171.438 114.287C169.757 115.303 168.177 115.423 166.769 113.809C168.907 114.5 169.478 112.48 170.687 111.544C172.547 111.544 174.4 111.544 176.326 111.544C175.954 112.806 174.467 112.049 173.968 112.939Z" fill="#FAE3A4"/>
<path d="M166.761 113.809C168.236 114.812 169.876 114.094 171.431 114.287C171.603 114.32 171.776 114.347 171.949 114.38C169.518 117.429 167.12 115.024 164.709 114.34C165.26 113.643 165.978 113.59 166.761 113.809Z" fill="#F8E3B2"/>
<path d="M170.154 110.926C170.679 108.435 173.037 110.521 174.007 109.133C173.435 110.88 172.054 110.919 170.699 111.026C170.526 110.939 170.347 110.913 170.154 110.926Z" fill="#FAE3A4"/>
<path d="M180.098 122.204C178.497 122.097 176.897 122.762 175.303 122.171C175.721 119.68 177.136 118.418 179.706 118.192C182.303 117.96 184.887 117.495 187.258 116.272C187.411 116.272 187.57 116.266 187.723 116.266C188.626 116.372 189.39 116.784 190.048 117.395C190.373 117.694 190.745 118.092 190.619 118.517C190.254 119.72 189.397 119.414 188.567 119.062C189.171 119.607 190.068 120.085 189.218 121.055C188.62 121.739 187.716 121.911 186.88 122.164C186.043 122.423 185.239 122.542 184.322 122.43C182.974 122.263 181.911 121.373 180.596 121.234C180.337 121.207 179.826 120.563 179.759 121.367C179.74 121.553 180.111 121.858 180.098 122.204Z" fill="#F0B335"/>
<path d="M196.67 111.823C196.942 112.348 198.178 112.793 197.56 113.251C194.445 115.542 198.185 115.317 198.583 116.286C194.903 118.226 191.197 117.389 187.478 116.432L187.252 116.273C187.464 114.865 188.447 114.241 189.69 113.875C192.014 113.185 194.345 112.507 196.67 111.823Z" fill="#F0B335"/>
<path d="M187.478 116.432C191.178 116.386 194.877 116.339 198.583 116.286C202.017 117.355 206.002 115.668 209.118 118.365C207.982 121.075 202.084 124.064 199.454 123.24C198.291 122.875 197.574 122.005 197.521 120.836C197.454 119.421 198.417 118.983 199.766 119.029C197.262 118.219 195.674 121.035 193.954 120.557C197.826 120.882 198.464 121.5 197.813 124.841C194.246 125.817 190.905 125.418 187.598 123.638C185.32 122.41 182.484 123.34 180.092 122.204C179.083 121.885 178.073 121.566 176.705 121.134C178.532 119.76 180.524 119.806 181.72 120.729C184.483 122.861 186.675 121.394 189.145 120.537C188.641 119.056 187.213 120.178 186.655 119.281C187.598 117.674 189.092 119.414 190.228 118.77C189.77 117.322 188.229 117.355 187.478 116.432Z" fill="#FBE592"/>
<path d="M197.813 124.841C197.613 122.297 196.71 120.776 193.721 121.593C192.765 121.852 191.131 121.872 191.197 120.351C191.257 118.943 192.758 119.753 193.608 119.594C196.624 119.036 199.473 116.784 202.708 118.817C202.389 119.853 201.373 119.448 200.569 119.594C199.626 119.767 197.999 118.989 198.078 120.77C198.151 122.264 199.765 123.486 200.835 122.822C203.511 121.155 207.423 121.772 209.117 118.365C209.243 120.318 207.649 122.224 204.68 123.187C202.449 123.911 200.104 124.303 197.813 124.841Z" fill="#F1BC42"/>
<path d="M201.187 113.031C201.466 112.214 200.277 110.773 201.771 110.607C203.279 110.441 204.926 109.551 206.387 110.521C207.656 111.364 207.217 112.573 206.56 113.669C204.634 114.645 202.661 115.901 201.187 113.031Z" fill="#F9F0D8"/>
<path d="M215.353 117.083C213.726 116.466 211.946 116.226 210.086 116.904C209.495 117.116 208.638 116.944 208.459 116.18C208.26 115.31 209.057 115.111 209.694 115.058C211.733 114.878 213.746 113.829 215.831 114.825C216.635 115.21 218.262 114.427 218.203 115.828C218.136 117.19 216.582 116.957 215.353 117.083Z" fill="#FAD45F"/>
</svg>