<svg xmlns="http://www.w3.org/2000/svg" fill="none" viewBox="102.2 32.91 231.8 169.31">
<path d="M271.167 200.672C270.807 200.62 270.447 200.562 270.093 200.51C269.472 200.266 268.647 200.289 268.247 199.772C266 196.881 262.656 197.224 259.608 196.771C253.994 195.941 248.385 195.105 242.76 194.367C241.802 194.239 240.867 194.025 240.048 193.462C238.765 191.766 240.548 191.145 241.198 190.146C241.343 190.506 241.076 189.81 241.424 189.961C241.622 190.048 241.755 189.641 241.709 189.641C239.572 189.752 237.465 189.763 235.659 188.323C235.688 187.818 236.002 187.551 236.42 187.354C238.371 186.64 240.304 187.575 242.249 187.383C242.533 187.261 242.76 187.075 242.916 186.797C243.334 181.386 243.044 175.986 243.085 170.587C243.143 162.575 243.102 154.569 243.096 146.557C243.096 145.309 243.212 144.043 242.777 142.83C242.51 141.779 242.585 140.705 242.481 139.637C242.423 137.396 242.516 135.155 242.498 132.914C242.527 130.771 241.268 130.144 239.346 130.052C234.812 129.831 230.353 128.722 225.784 128.85C224.907 128.873 224.059 128.658 223.258 128.281C220.007 126.905 216.582 127.067 213.168 127.166C207.687 127.091 202.311 125.993 196.883 125.407C194.88 125.192 193.016 124.884 192.778 127.758C192.709 128.565 192.087 129.146 191.106 128.641C189.997 124.757 189.794 124.612 185.393 124.304C175.228 123.601 165.178 121.883 155.047 120.861C153.892 120.745 152.434 120.913 151.993 119.282C152.748 117.517 154.397 118.185 155.703 117.906C164.272 118.254 172.801 119.096 181.312 120.112C191.838 121.372 202.404 122.208 212.941 123.346C217.627 124.019 222.312 124.699 227.049 124.96C232.228 125.639 237.424 126.127 242.632 126.446C245.169 125.767 246.266 124.112 246.04 121.517C245.837 119.166 246.847 116.571 243.822 114.939C242.742 114.359 242.934 112.495 244.182 111.404C248.136 110.196 252.049 111.473 255.95 111.74C263.26 112.24 270.546 113.07 277.826 113.923C280.235 114.324 282.668 114.608 285.077 115.015C285.855 115.125 286.657 115.142 287.336 115.624C287.922 116.379 287.376 116.867 286.889 117.331C286.326 117.871 285.577 118.138 284.897 118.504C281.809 120.153 279.957 122.458 280.688 126.208C280.816 126.858 280.839 127.555 280.729 128.229C280.276 129.157 279.562 129.181 278.732 128.815C278.494 128.589 278.32 128.316 278.209 128.008C277.907 126.928 277.965 125.813 277.971 124.71C277.96 123.003 277.983 121.297 278.198 118.997C278.122 119.218 277.907 119.526 277.936 119.607C278.18 120.362 277.745 120.908 277.129 121.238C275.748 121.976 275.028 121.059 274.36 120.048C274.256 119.892 274.093 119.781 273.925 119.688C271.138 118.556 268.223 119.061 265.355 119.021C265.065 119.015 264.659 119.009 264.525 119.201C261.384 123.741 258.899 118.847 256.107 118.597C255.677 118.556 255.254 118.179 254.795 118.022C249.703 116.28 248.316 117.401 248.786 122.748C248.983 124.989 250.139 126.034 252.304 126.104C253.941 126.156 255.579 126.098 257.216 126.127C258.087 126.162 258.929 126.493 259.782 126.498C261.419 126.51 263.161 127.636 264.67 125.825C265.135 125.268 266.319 125.541 267.167 125.813C267.451 125.924 267.683 126.104 267.863 126.342C268.014 129.036 265.576 128.397 264.235 129.169C263.428 129.785 263.19 130.841 262.435 131.497C261.262 132.426 259.863 132.264 258.51 132.327C255.544 132.049 252.554 131.846 249.663 131.068C248.234 130.684 247.224 130.8 246.905 132.536C246.638 133.994 246.51 135.265 248.426 135.602C251.369 136.124 254.296 136.769 257.297 136.78C259.201 136.786 261.019 136.467 261.466 134.11C262.551 132.49 263.753 133.018 264.85 134.028C266.284 135.346 264.833 136.223 264.177 137.291C265.274 137.135 266.203 136.571 267.248 136.629C268.792 136.717 269.367 136.322 269.716 134.464C270.18 131.985 272.851 131.149 275.057 130.313C275.841 130.017 276.775 130.173 277.646 130.104C278.32 130.046 278.923 130.144 279.249 130.847C279.98 134.237 279.597 137.657 279.521 141.071C279.492 142.313 278.72 143.167 277.849 143.939C275.643 144.978 273.263 144.682 271.01 144.467C268.043 144.183 265.199 145.158 262.273 144.879C259.794 142.842 256.676 143.335 253.825 142.807C252.618 142.586 251.352 142.65 250.208 142.11C248.937 141.617 247.433 140.897 246.713 142.615C245.953 144.427 247.253 145.437 248.803 146.145C249.959 146.667 251.207 146.882 252.38 147.318C253.552 147.753 255.056 148.142 255.306 149.454C255.712 151.579 257.158 151.736 258.812 152.131C264.392 153.466 270.076 153.617 275.753 153.948C277.594 154.052 277.902 153.089 277.902 151.678C277.896 149.071 277.785 146.464 278.308 143.881C279.347 142.516 280.328 140.966 282.384 142.406C283.121 144.351 284.468 146.087 284.183 148.386C284.009 149.785 284.863 149.663 285.838 149.234C287.707 148.421 289.455 147.445 290.941 146.017C291.382 145.593 292.062 145.001 292.695 145.657C293.275 146.261 292.811 146.958 292.393 147.469C290.622 149.628 288.259 151.202 286.54 153.443C285.432 154.888 284.671 156.322 284.729 158.163C284.787 160.09 284.323 162.024 284.352 163.91C284.421 168.654 284.979 173.351 289.873 175.957C290.041 176.05 290.186 176.178 290.337 176.3C293.978 179.226 295.806 178.599 297.2 173.879C297.722 172.108 298.338 170.395 299.574 168.99C299.905 168.619 300.346 168.427 300.869 168.555C302.106 171.951 301.066 176.323 298.523 178.529C295.023 181.566 291.086 184.027 287.562 187.046C286.297 188.132 284.642 188.765 282.744 188.538C280.828 188.306 279.574 189.055 279.167 191.267C278.749 193.56 279.736 195.656 279.591 197.868C279.423 198.472 278.958 199.052 278.447 199.035C275.852 198.977 273.617 200.283 271.167 200.672Z" fill="#294669"/>
<path d="M248.547 35.7668C248.837 35.7319 249.122 35.6971 249.412 35.6681C250.962 35.5113 252.745 33.8567 253.975 35.2965C255.479 37.0614 255.218 39.4302 254.283 41.5841C253.598 42.1298 252.942 42.7626 251.961 42.2517C251.2 41.3693 251.386 40.2778 251.311 39.2444C251.253 38.4664 251.264 37.6014 250.15 37.6594C249.226 37.7059 248.385 38.1123 248.292 39.1225C248.152 40.7248 247.914 42.4549 249.999 43.1574C251.781 44.6495 250.422 47.0937 251.822 49.0502C252.733 47.6859 252.414 46.368 252.28 45.1372C252.089 43.3955 252.71 42.3388 254.469 42.0253C258.057 47.2969 260.46 53.1839 263.177 58.9025C263.416 68.598 263.578 78.2994 263.096 87.9949L263.056 87.9717C261.14 89.7134 259.352 91.5654 257.685 93.5626C255.636 96.0184 253.441 96.2042 251.328 93.7484C249.639 91.786 247.874 89.9979 245.83 88.4478C246.016 84.7669 248.17 81.7712 249.343 78.4271C250.515 75.0888 252.559 72.0524 252.774 68.3948C253.389 66.2874 252.193 64.7372 251.136 63.1465C250.132 59.7153 247.821 56.8531 246.927 53.3581C246.55 51.8776 245.784 50.4842 245.499 48.9631C245.255 47.6685 244.605 47.6801 243.676 48.2665C239.792 49.3115 235.815 48.9631 231.92 48.7309C223.681 48.2432 215.449 47.7904 207.205 47.564C206.862 47.5349 206.52 47.4711 206.189 47.3898C205.277 47.0647 204.313 47.0414 203.367 46.9137C202.665 46.8208 201.59 46.8208 201.683 45.8397C201.765 44.9398 202.81 44.9688 203.553 44.8643C205.736 44.5682 207.837 45.7584 210.166 45.2301C210.427 45.2126 209.957 44.7888 210.113 45.143C210.148 45.2243 210.061 45.2649 209.858 45.2765C207.53 45.381 207.53 45.381 206.955 44.2025C209.074 43.0065 211.309 43.6915 213.469 43.9064C218.085 44.365 222.717 43.9064 227.321 44.3592C229.644 45.1023 232.036 44.7308 234.399 44.812C234.886 44.8062 235.368 44.8062 235.856 44.8062C236.239 44.8004 235.751 44.8004 236.14 44.783C238.335 44.6901 240.773 45.4739 242.66 44.4347C244.82 43.2445 243.142 40.5042 243.961 38.6058C244.077 38.3445 244.17 38.0716 244.303 37.8162C245.226 36.4809 246.649 36.0628 248.129 35.7435C248.257 35.7493 248.402 35.761 248.547 35.7668Z" fill="#8D96A4"/>
<path d="M311.964 118.086C309.63 118.04 307.243 118.713 304.979 117.598C303.743 117.871 302.477 117.749 301.229 117.819C300.097 117.825 298.97 117.802 297.856 117.581C295.951 116.762 293.612 117.964 291.887 116.309C291.835 113.917 290.761 112.814 288.236 113.087C286.36 113.29 284.526 112.396 282.61 112.571C281.042 112.565 279.544 111.961 277.971 112.031C275.028 112.042 272.061 112.228 269.251 111.061C268.229 109.546 269.599 109.54 270.4 109.412C272.125 109.139 273.878 109.244 275.614 109.296C278.935 109.401 280.531 106.974 282.291 104.826C282.929 104.048 282.401 103.189 281.994 102.393C279.98 98.4685 279.986 98.4627 284.09 96.4772C284.264 96.3959 284.404 96.2565 284.543 96.1172C292.178 96.0533 299.731 97.5744 307.377 97.3306C307.696 97.319 308.027 97.6615 308.352 97.8415C308.056 98.3814 307.313 98.3118 306.866 99.0259C311.592 101.075 316.01 103.81 321.444 103.554C322.751 103.49 324.19 103.624 324.777 105.226C323.018 108.042 320.004 109.308 317.392 111.009C314.675 112.768 312.062 114.411 311.964 118.086Z" fill="#F2F5F7"/>
<path d="M298.065 116.908C299.145 116.971 300.225 117.029 301.31 117.093C304.567 117.523 304.608 117.523 304.55 120.972C304.527 122.556 304.852 124.17 304.294 125.726C304.26 128.908 304.143 132.089 304.231 135.265C304.294 137.669 304.37 140.055 303.871 142.424C304.143 151.864 303.934 161.31 303.975 170.75C303.981 172.584 304.027 174.396 304.451 176.178C304.445 177.763 303.598 178.907 302.396 179.795C295.603 184.852 289.35 190.559 282.813 195.923C281.826 196.736 280.926 197.926 279.365 197.711C277.629 194.849 278.436 191.813 278.773 188.811C280.462 189.903 280.764 185.769 283.08 187.801C284.056 188.654 286.204 187.453 287.278 186.443C290.587 183.336 294.465 180.991 297.972 178.164C301.142 175.603 300.457 172.01 300.788 168.665C299.754 167.528 300.062 166.117 300.039 164.799C299.917 157.942 299.801 151.068 300.068 144.235C300.178 141.46 300.898 138.905 299.638 136.171C299.11 135.027 299.975 133.535 299.975 132.177C299.981 130.835 299.58 129.947 298.117 130.893C294.222 133.419 290.163 135.648 286.047 137.779C285.054 138.29 284.468 139.155 284.143 140.223C283.829 141.251 283.469 142.267 282.227 142.54C280.63 141.692 279.847 143.236 278.703 143.736C278.308 144.055 277.948 143.991 277.617 143.625C278.656 142.499 278.819 141.152 278.773 139.672C278.685 136.542 278.714 133.407 278.697 130.278C278.14 130.075 277.855 129.686 277.89 129.082C278.035 128.687 278.244 128.385 278.738 128.6C279.376 128.589 280.056 128.711 280.508 128.066C280.95 126.708 282.32 126.423 283.313 125.767C287.144 123.236 290.657 120.24 294.634 117.929C295.69 117.326 296.683 116.478 298.065 116.908Z" fill="#1B3557"/>
<path d="M239.886 192.985C247.689 194.141 255.492 195.319 263.3 196.434C265.344 196.724 267.591 196.382 268.253 199.232C268.38 199.772 269.454 200.092 270.093 200.51C257.71 198.704 245.349 196.736 232.937 195.128C217.07 193.067 201.348 190.071 185.521 187.766C176.464 186.448 167.495 184.486 158.414 183.406C148.44 182.216 138.768 179.429 128.794 178.355C128.643 178.338 128.509 178.117 128.364 177.995C127.708 176.816 127.534 175.696 128.776 174.761C133.653 175.754 138.483 177.008 143.471 177.409C144.847 177.931 146.397 177.6 147.744 178.268C152.191 179.597 156.812 179.928 161.364 180.625C174.514 182.634 187.658 184.706 200.831 186.582C212.866 188.294 224.919 189.908 236.896 192.01C237.935 192.178 239.015 192.271 239.886 192.985Z" fill="#93ABC5"/>
<path d="M246.231 88.57C248.478 88.7035 249.691 90.2943 250.742 91.9547C252.913 95.3743 254.905 95.6007 257.529 92.6862C259.155 90.8806 260.223 88.39 263.05 87.9778C263.056 90.1143 263.062 92.245 263.068 94.3815C265.576 96.6689 264.542 99.6647 264.235 102.254C263.962 104.536 263.155 106.811 262.894 109.163C260.269 110.156 257.488 109.947 254.893 109.523C250.487 108.809 246.057 109.308 241.645 108.629C237.389 107.973 237.163 108.019 238.858 103.926C239.079 103.392 239.299 102.858 239.543 102.335C239.618 102.028 239.723 101.726 239.845 101.43C242.127 98.1958 242.887 94.3002 244.46 90.7587C244.832 89.8995 244.745 88.5642 246.231 88.57Z" fill="#ADB7C2"/>
<path d="M304.329 174.448C308.433 175.417 312.573 176.259 316.631 177.397C319.122 178.094 319.424 179.812 317.682 181.705C315.766 183.795 313.194 185.008 310.965 186.675C305.345 190.872 299.673 195 294.128 199.302C290.953 201.769 287.097 200.858 283.637 201.822C280.398 202.727 277.239 201.891 274.087 201.183C283.074 198.75 290.058 192.829 297.525 187.743C299.44 186.442 300.845 184.544 302.558 183.005C304.451 181.31 303.615 179.057 304.004 177.06C304.126 176.189 303.702 175.255 304.329 174.448Z" fill="#C7D8E6"/>
<path d="M134.21 86.8339C135.795 85.7715 137.589 85.5451 139.412 85.6902C146.199 86.2185 152.963 86.9849 159.79 86.8339C160.324 86.8223 160.864 87.1939 161.404 87.3913C162.333 90.5612 160.708 93.0983 159.361 95.7051C156.795 96.8023 154.35 98.2712 151.442 98.335C148.295 98.1957 145.334 99.6181 142.135 99.3104C140.051 99.1072 137.961 99.0724 135.946 98.4512C134.454 97.7022 133.589 96.2392 132.318 95.2058C130.663 93.8589 130.849 92.8022 132.66 91.5772C132.898 91.4146 133.165 91.2985 133.421 91.165C136.701 89.4059 136.701 89.4059 134.21 86.8339Z" fill="#C6D1DC"/>
<path d="M143.412 178.007C138.244 177.862 133.24 176.857 128.369 175.156C126.964 175.069 126.616 174.14 126.807 172.979C127.051 171.458 126.877 169.943 126.958 168.433C128.427 167.487 128.619 169.107 129.199 169.67C130.86 171.278 132.311 172.875 134.784 170.808C135.806 169.954 137.217 170.465 138.424 170.796C140.015 171.232 141.676 171.22 143.272 171.603C144.166 171.818 144.973 172.352 144.799 173.391C144.631 174.407 143.673 174.274 142.918 174.239C141.374 174.164 139.841 173.972 138.308 173.833C137.844 173.792 137.281 173.833 137.188 174.465C137.107 175.069 137.583 175.296 138.047 175.441C139.806 176.004 141.652 176.05 143.47 176.271C143.754 176.306 144.131 176.288 144.3 176.097C145.803 174.326 144.927 172.224 145.02 170.262C145.089 168.904 144.091 168.486 142.941 168.329C138.831 167.76 134.825 166.541 130.697 166.14C128.09 165.89 127.115 164.793 127.504 162.256C127.62 161.519 127.649 160.718 127.359 159.969C127.278 159.783 127.19 159.597 127.109 159.405C126.743 156.706 127.051 153.995 126.941 151.301C128.81 149.321 130.691 150.761 132.259 151.585C135.899 153.507 139.87 153.356 143.748 153.902C142.912 153.077 141.821 153.199 140.793 153.147C139.632 153.083 138.506 152.804 137.35 152.665C136.677 152.584 135.998 152.595 135.342 152.415C134.686 152.235 133.966 152.038 134.03 151.15C134.082 150.436 134.691 150.25 135.272 150.163C138.349 149.693 140.816 146.958 144.329 147.904C145.565 148.241 145.595 146.377 146.518 145.861C146.872 145.843 147.133 145.988 147.319 146.29C148.375 149.245 147.191 152.404 148.166 155.371C148.468 157.118 148.439 158.877 148.399 160.642C148.329 165.101 148.613 169.56 148.323 174.018C148.288 174.373 148.213 174.721 148.12 175.063C147.162 178.506 147.162 178.506 143.412 178.007Z" fill="#2E5074"/>
<path d="M163.088 43.3434C162.171 41.143 162.513 38.8091 162.809 36.6262C163.065 34.7393 165.097 34.3852 166.786 34.0601C167.674 34.5245 168.592 34.1762 169.497 34.1646C170.194 34.1588 171.053 34.1936 170.647 35.3489C169.73 35.5812 168.772 35.3141 167.326 35.6334C175.437 34.5768 183.048 34.8845 190.659 35.0993C191.809 35.6102 193.539 35.3605 193.678 37.2416C193.794 38.8382 191.106 42.5422 189.504 43.0879C191.931 42.6873 191.931 42.6873 191.809 44.3129C190.903 44.731 189.933 44.8064 188.976 44.7251C180.366 43.9762 171.721 43.7324 163.088 43.3434Z" fill="#C4CCD5"/>
<path d="M191.071 35.7552C182.583 35.7552 174.095 35.7552 165.607 35.7552C165.601 35.6043 165.596 35.4533 165.59 35.2966C167.349 35.2153 169.108 35.134 170.873 35.0586C172.4 33.8974 174.2 34.2516 175.883 34.2922C179.036 34.3619 182.223 33.8278 185.323 34.7857C186.984 35.0353 188.668 34.7683 190.229 34.9366C190.717 34.9192 190.409 34.6115 190.392 34.6173C188.958 35.1224 187.472 34.7625 186.008 34.8554C185.515 34.7625 185.056 34.6464 185.428 33.9787C190.067 33.6129 194.642 34.5883 199.269 34.6754C201.428 34.716 203.234 36.4519 205.527 36.8235C207.159 37.0906 206.764 38.931 205.719 39.8018C203.507 41.6364 204.709 42.5015 206.578 42.6176C211.861 42.9543 217.139 43.6104 222.445 43.2794C223.008 43.2446 223.664 43.3723 223.955 42.7105C224.297 41.9325 223.757 41.4042 223.258 40.9688C222.393 40.2082 221.429 39.5638 220.564 38.8032C219.507 37.8743 219.6 37.0848 221.087 36.9396C223.026 36.748 224.692 34.9715 227.043 36.7132C228.408 37.7234 230.73 36.8525 232.419 35.8017C232.826 35.9933 233.075 36.2778 233.017 36.7596C232.077 38.2169 232.982 39.738 232.849 41.201C232.663 43.2562 234.306 43.3665 235.432 44.098C235.914 44.4116 236.309 44.8818 235.671 45.4566C235.328 45.4682 234.985 45.474 234.637 45.4856C232.315 44.9631 229.917 45.6598 227.595 45.0966C220.634 45.3172 213.708 44.1735 206.741 44.5509C206.172 44.9747 205.533 45.0096 204.865 44.9109C202.799 44.4638 200.709 44.696 198.624 44.696C197.521 44.6844 196.407 44.7367 195.373 44.2316C194.061 42.844 195.205 41.799 195.896 40.7133C196.662 39.5173 198.084 38.8903 198.886 37.3286C196.227 36.7364 193.626 36.3242 191.071 35.7552Z" fill="#E7E9ED"/>
<path d="M240.339 101.812C240.269 103.397 239.497 104.785 238.742 106.068C237.83 107.618 238.591 107.647 239.752 107.705C247.52 108.082 255.265 108.988 263.062 108.878C264.937 108.471 266.865 108.977 268.606 108.628C268.885 108.373 268.99 108.175 268.879 108.013C266.557 104.553 266.627 104.14 270.273 101.824C271.521 101.034 272.607 100.163 273.03 98.6772C273.46 97.1793 274.755 96.4478 275.84 95.5363C278.761 95.4144 281.664 95.6002 284.543 96.1169C283.388 97.7367 283.039 100.872 283.661 103.705C283.736 104.047 283.783 104.605 283.591 104.767C281.083 106.904 279.672 110.556 275.324 110.132C273.234 109.929 270.94 109.395 268.879 110.614C266.963 111.972 264.914 110.962 262.981 110.811C256.722 110.329 250.458 109.987 244.188 109.76C241.86 109.679 239.572 109.319 237.291 108.93C236.153 108.547 235.81 107.752 236.257 106.672C236.6 105.853 236.704 105.005 236.785 104.146C237.842 103.165 238.44 101.505 240.339 101.812Z" fill="#E1E7ED"/>
<path d="M134.21 86.8337C134.57 86.9382 135.051 86.9324 135.278 87.1647C135.975 87.8962 137.519 87.9252 137.42 89.2141C137.327 90.3926 135.911 90.5262 135.144 91.1938C134.813 91.4841 134.25 91.4899 133.815 91.6815C131.202 92.8252 131.138 93.429 133.374 95.1475C134.268 95.8326 135.289 96.4712 135.33 97.8065C134.424 98.7877 133.234 98.7064 132.085 98.6135C123.904 97.9807 115.747 97.1098 107.596 96.1925C106.296 96.0474 104.606 96.2158 104.066 94.3928C113.048 92.7381 121.78 90.0733 130.598 87.7452C131.8 87.4433 133.008 87.1414 134.21 86.8337Z" fill="#B1C0CF"/>
<path d="M104.067 94.4045C106.946 96.0418 110.227 95.4496 113.298 95.9198C120.584 97.0287 127.957 97.5338 135.33 97.8183C140.341 98.4627 145.345 99.0433 150.298 97.3364C150.646 97.2145 151.163 97.5803 151.598 97.7196C151.302 98.5324 149.218 98.544 150.53 100.088C148.718 100.936 147.099 102.115 145.392 103.148C139.9 103.351 134.454 102.985 129.054 101.981C128.787 101.882 128.358 101.772 128.329 101.569C127.917 98.904 126.181 98.3815 123.829 98.5614C121.78 98.7124 119.556 98.126 118.111 100.28C117.971 100.489 117.617 100.564 117.391 100.744C113.251 101.197 109.187 100.071 105.065 100.083C103.997 100.083 102.296 100.019 102.337 98.2305C102.36 96.7791 101.431 94.7297 104.067 94.4045Z" fill="#DEE3E9"/>
<path d="M128.399 101.284C134.193 101.714 139.987 102.144 145.781 102.573C146.217 102.701 146.565 102.921 146.681 103.398C146.722 103.688 146.71 103.972 146.664 104.263C146.548 106.422 146.35 108.588 146.919 110.724C147.064 111.491 147.059 112.251 146.797 112.994C145.804 115.113 144.04 115.003 142.222 114.486C140.579 114.022 138.977 113.459 137.258 114.057C136.393 114.463 135.581 115.212 134.536 114.504C133.136 113.912 131.609 113.97 130.146 113.685C129.212 113.505 128.283 113.383 127.859 112.362C127.429 111.793 126.994 111.224 126.564 110.655C126.141 107.978 126.46 105.279 126.379 102.596C126.332 101.081 127.081 100.715 128.399 101.284Z" fill="#264568"/>
<path d="M146.385 146.035C146.739 148.491 145.659 149.698 143.337 148.735C141.421 147.939 140.144 149.025 138.774 149.658C137.386 150.296 136.353 151.754 134.28 150.471C134.338 150.831 134.39 151.185 134.448 151.545C136.713 151.835 138.977 152.148 141.247 152.404C142.007 152.491 142.791 152.381 143.552 152.462C144.585 152.572 145.601 153.106 145.537 154.169C145.444 155.626 144.231 154.668 143.499 154.773C140.515 155.191 137.537 154.256 134.797 153.669C132.399 153.159 129.955 151.469 127.342 150.726C126.715 150.186 126.947 149.536 127.116 148.897C127.952 146.407 127.638 143.91 127.18 141.408C130.634 139.846 134.768 140.351 137.171 142.877C137.856 143.602 138.419 143.301 139.087 143.446C141.618 143.991 144.672 143.202 146.385 146.035Z" fill="#4E7193"/>
<path d="M127.4 127.439C126.204 123.52 126.419 119.636 127.737 115.787C129.246 115.346 129.867 116.478 130.616 117.395C132.701 119.886 135.679 120.304 138.611 120.838C140.027 121.099 142.181 120.519 142.309 122.638C142.413 124.385 141.252 125.895 139.307 126.394C139.04 126.464 138.733 126.498 138.634 126.905C140.486 127.776 142.53 127.811 144.503 128.165C145.398 128.327 146.512 128.078 146.954 129.285C147.459 132.606 147.157 135.939 147.151 139.265C147.151 140.281 147.11 141.448 145.653 141.622C144.126 140.229 144.701 138.325 144.475 136.629C144.335 135.602 144.445 134.545 144.399 133.506C144.3 131.973 143.22 131.515 141.955 131.073C138.349 129.819 134.552 129.97 130.848 129.436C129.391 129.221 127.893 129.239 127.4 127.439Z" fill="#27476A"/>
<path d="M127.359 159.98C127.469 160.131 127.62 160.27 127.69 160.444C128.282 161.925 126.924 164.05 128.578 164.955C129.914 165.693 131.748 165.501 133.35 165.768C136.938 166.372 140.526 166.987 144.108 167.626C145.618 167.893 146.344 168.491 145.908 170.337C145.519 171.98 145.757 173.792 145.81 175.528C145.85 176.898 145.287 177.548 143.923 177.333C141.751 176.991 139.597 176.491 137.414 176.253C135.824 176.079 135.882 175.086 135.963 173.995C136.073 172.544 137.136 172.694 138.1 172.816C140.155 173.078 142.21 173.391 144.254 173.681C144.492 172.526 143.807 172.224 143.151 172.23C140.91 172.247 138.75 171.847 136.642 171.139C135.214 170.657 134.512 171.829 133.676 172.503C132.416 173.519 131.278 173.525 130.546 172.16C129.705 170.593 127.464 170.192 127.342 168.114C126.982 168.015 126.906 167.812 127.115 167.504C127.208 164.99 127.284 162.488 127.359 159.98Z" fill="#3F6488"/>
<path d="M304.283 177.368C306.332 182.994 301.554 185.258 298.524 187.813C293.252 192.254 287.266 195.778 281.246 199.215C278.877 200.568 276.723 201.398 274.093 201.183C273.129 200.968 272.044 201.41 271.173 200.672C271.8 200.463 272.613 200.475 272.909 199.772C273.536 198.304 274.534 198.1 275.934 198.582C277.222 199.029 278.395 198.71 279.359 197.711C287.51 190.948 295.656 184.19 303.807 177.426C303.929 177.118 304.085 177.113 304.283 177.368Z" fill="#9DB6CF"/>
<path d="M324.568 105.325C323.795 104.477 322.791 104.152 321.705 104.268C315.882 104.889 311.267 101.499 306.187 99.6469C305.658 99.4553 305.031 99.1418 305.177 98.4451C305.339 97.6846 306.082 97.9168 306.616 97.8761C307.191 97.8297 307.772 97.8529 308.346 97.8413C315.842 98.2883 323.319 98.9734 330.838 99.0953C334.048 99.1476 334.67 100.657 333.352 104.262C332.289 103.125 332.481 101.905 332.87 101.098C330.339 102.347 328.347 105.47 324.568 105.325Z" fill="#C7D1DD"/>
<path d="M275.84 95.537C273.994 98.3818 272.96 101.807 269.285 103.259C267.265 104.06 267.224 105.668 269.14 106.968C269.825 107.433 270.522 108.066 270.336 108.797C270.04 109.941 268.861 109.494 268.101 109.43C266.423 109.291 264.629 110.063 263.067 108.884C261.982 107.23 262.034 105.825 262.957 103.88C264.362 100.913 263.973 97.5748 263.067 94.3933C267.323 94.7649 271.579 95.1481 275.84 95.537Z" fill="#CAD3DD"/>
<path d="M324.568 105.325C327.697 104.297 329.967 101.696 333.108 100.53C333.654 101.813 333.247 103.061 333.358 104.268C326.228 108.872 319.099 113.482 311.969 118.086C311.302 115.125 312.068 113.128 315.035 111.613C318.402 109.888 321.404 107.45 324.568 105.325Z" fill="#6C7C92"/>
<path d="M195.153 43.8312C196.262 43.8602 197.365 43.8951 198.474 43.9241C200.61 44.5801 202.851 43.7964 204.994 44.3711C205.586 44.435 206.172 44.4989 206.764 44.5627C207.937 45.6252 209.563 44.5453 211.235 45.6426C207.92 45.6426 205.052 45.6426 201.707 45.6426C203.42 46.6702 205.052 45.5961 206.201 46.7399C204.123 48.3016 201.766 47.6049 199.525 47.4714C191.182 46.9837 182.845 46.4786 174.508 45.9387C172.296 45.7935 170.107 45.5265 167.912 45.271C166.397 45.0968 165.282 45.4568 164.487 46.7631C162.722 46.4554 163.668 45.2942 163.75 44.406C163.529 44.0518 163.309 43.6977 163.088 43.3435C167.013 42.0256 171.024 42.8326 174.99 42.9371C180.743 43.0881 186.496 43.4771 192.25 43.7615C193.237 43.001 194.201 43.1345 195.153 43.8312Z" fill="#747986"/>
<path d="M145.213 141.384C146.815 141.141 146.357 139.869 146.368 138.917C146.415 135.497 146.391 132.078 146.397 128.652C146.804 128.6 147.117 128.751 147.338 129.094C147.872 134.754 148.481 140.415 146.972 146.035C146.78 146.035 146.583 146.035 146.391 146.035C144.284 144.508 141.654 144.816 139.337 144.026C137.851 143.521 138.693 145.64 137.625 145.715C136.446 142.006 135.616 141.413 131.494 141.379C130.06 141.367 128.626 141.396 127.192 141.408C126.965 140.839 126.739 140.275 126.513 139.707C126.217 137.454 126.408 135.19 126.402 132.931C127.877 132.118 127.813 133.576 127.883 134.145C128.127 136.2 129.386 136.589 131.128 136.496C132.278 136.438 133.439 136.467 134.588 136.496C136.26 136.537 137.921 136.548 138.275 138.801C138.467 140.014 139.645 139.956 140.539 140.223C142.078 140.688 143.86 140.188 145.213 141.384Z" fill="#223F63"/>
<path d="M127.4 127.439C129.815 129.512 132.886 128.74 135.615 129.053C138.297 129.361 140.84 130.058 143.441 130.598C144.95 130.911 145.496 131.805 145.235 133.274C144.184 134.371 144.764 135.602 144.892 136.821C144.979 137.646 145.182 138.696 144.091 139.045C143.139 139.353 142.64 138.47 142.378 137.831C140.671 133.57 136.753 133.767 133.229 133.262C131.812 133.059 130.36 133.361 128.909 133.326C126.488 133.262 128.723 130.656 127.08 130.284C126.831 130.174 126.627 130.011 126.471 129.802C126.784 129.013 127.092 128.229 127.4 127.439Z" fill="#587B9C"/>
<path d="M159.128 95.3856C159.999 92.7499 160.974 90.1431 161.404 87.3854C161.654 86.4565 161.903 85.5275 162.147 84.5986C162.24 84.1748 162.397 83.8091 162.913 83.78C163.906 86.0326 166.803 85.7075 168.08 87.5828C168.26 89.4348 167.651 91.4494 169.172 93.0401C166.176 95.2347 162.786 96.1752 159.111 96.2275C158.902 95.943 158.902 95.6643 159.128 95.3856Z" fill="#927E75"/>
<path d="M128.398 101.284C126.999 101.209 126.407 101.749 126.488 103.258C126.627 105.714 126.546 108.187 126.564 110.649C125.385 108.564 126.134 106.306 126.082 104.14C126.029 102.19 125.803 101.069 123.429 101.203C121.431 101.313 119.399 100.913 117.385 100.738C118.256 99.8501 118.54 98.0213 119.748 97.9574C122.372 97.8239 125.042 97.5104 127.672 98.2941C129.797 98.927 127.185 100.535 128.398 101.284Z" fill="#B1BFCC"/>
<path d="M185.434 33.9786C185.568 34.1876 185.707 34.3908 185.841 34.5998C186.044 34.7217 186.113 34.8436 186.044 34.9655C185.974 35.0816 185.904 35.1397 185.829 35.1397C180.842 35.1107 175.855 35.0816 170.873 35.0584C169.631 34.2456 167.918 35.3313 166.786 34.0598C172.476 32.6781 178.223 32.6955 183.994 33.2993C184.569 33.3632 185.173 33.2877 185.434 33.9786Z" fill="#7A8290"/>
<path d="M130.106 117.633C129.456 116.837 128.707 116.17 127.737 115.787C127.778 114.643 127.819 113.499 127.859 112.355C129.618 113.308 131.563 113.267 133.456 113.232C134.257 113.215 134.768 113.151 134.861 114.08C135.436 115.851 133.99 115.386 133.16 115.642C135.511 114.985 137.665 115.787 139.807 116.553C140.44 116.779 141.189 117.186 141.079 117.935C140.969 118.69 140.121 118.893 139.453 118.869C136.307 118.742 133.189 118.301 130.106 117.633Z" fill="#6A89A4"/>
<path d="M162.67 83.9601C162.496 84.1749 162.328 84.3839 162.154 84.5987C160.818 84.5233 160.813 83.902 161.178 82.7757C162.554 78.5492 164.667 74.6652 166.641 70.7173C168.203 67.5938 169.573 64.4297 168.969 60.7953C169.202 60.5457 169.48 60.447 169.817 60.4876C171.663 61.9971 170.978 63.9827 170.653 65.7766C170.206 68.2324 169.144 70.5025 167.959 72.697C167.686 73.2253 167.402 73.7479 167.135 74.2762C165.167 77.2835 164.534 80.9063 162.67 83.9601Z" fill="#D8DBE0"/>
<path d="M232.785 36.4402C232.669 36.2254 232.553 36.0164 232.437 35.8016C233.087 35.0236 233.917 34.5069 234.921 34.5127C239.351 34.5418 243.775 34.5998 248.205 34.6927C249.076 34.7101 248.489 35.3836 248.553 35.761L248.582 35.7203C247.293 36.2254 245.958 36.568 244.634 36.9628C240.675 36.9802 236.68 37.8046 232.785 36.4402Z" fill="#7E8595"/>
<path d="M127.127 167.499C127.203 167.702 127.278 167.905 127.354 168.108C127.638 170.465 126.07 173.089 128.37 175.156C129.043 176.103 128.178 177.043 128.364 177.989C127.052 177.757 125.734 177.583 124.439 177.281C123.562 177.078 122.906 176.492 122.692 175.574C122.512 174.82 122.947 174.024 123.522 173.908C127.017 173.194 126.703 170.483 126.819 167.957C126.819 167.8 127.017 167.649 127.127 167.499Z" fill="#C1D1E0"/>
<path d="M254.463 42.0313C252.722 42.9835 252.994 44.4233 253.151 46.0953C253.279 47.4597 254.301 49.8981 252.019 50.0954C249.54 50.3161 250.428 47.8428 250.301 46.3914C250.208 45.3522 250.33 44.2955 249.749 43.3492C250.254 42.5016 250.887 41.8746 251.99 42.0952C252.751 41.9268 253.517 41.7585 254.278 41.5901C254.365 41.7294 254.423 41.8746 254.463 42.0313Z" fill="#5B6577"/>
<path d="M304.283 177.368C304.12 177.38 303.963 177.397 303.807 177.426C303.83 165.757 303.847 154.087 303.87 142.418C304.701 143.231 304.26 144.247 304.265 145.17C304.306 154.929 304.318 164.688 304.335 174.448C304.312 175.423 304.294 176.399 304.283 177.368Z" fill="#76849D"/>
<path d="M169.596 60.7139C169.387 60.743 169.184 60.7662 168.975 60.7952C164.296 56.2668 161.904 51.0126 163.75 44.3999C163.918 45.2185 164.087 46.0313 164.255 46.8499C165.283 51.5816 166.961 56.0345 169.892 59.9534C170.038 60.1566 169.782 60.4875 169.596 60.7139Z" fill="#A6AAB2"/>
<path d="M263.085 88.0009C263.114 78.3053 263.143 68.6098 263.166 58.9084C263.729 59.431 263.66 60.1218 263.66 60.7895C263.66 69.1497 263.66 77.5099 263.648 85.8643C263.648 86.6191 263.799 87.4261 263.085 88.0009Z" fill="#C2C9D3"/>
<path d="M304.294 125.721C304.294 124.194 304.119 122.638 304.328 121.14C304.677 118.673 303.986 117.192 301.304 117.088C302.575 116.919 303.87 116.583 304.979 117.599C304.416 120.281 305.606 123.108 304.294 125.721Z" fill="#A4B3C1"/>
<path d="M127.121 148.891C127.196 149.501 127.272 150.11 127.347 150.72C127.266 153.623 127.191 156.52 127.109 159.423C126.262 155.91 126.424 152.398 127.121 148.891Z" fill="#B0C0CD"/>
<path d="M126.749 132.769C126.668 135.079 126.592 137.39 126.511 139.706C125.698 136.409 125.896 133.105 126.47 129.802C126.569 129.761 126.668 129.755 126.767 129.779C127.504 130.777 127.376 131.776 126.749 132.769Z" fill="#9FB0BF"/>
<path d="M243.323 139.66C243.358 140.606 243.393 141.558 243.427 142.505C243.851 145.767 243.584 149.042 243.596 152.311C243.636 163.295 243.619 174.285 243.596 185.27C243.596 186.303 243.892 187.389 243.3 188.381L243.027 188.463L242.748 188.399C241.273 186.077 242.028 183.499 241.982 181.043C241.866 174.529 241.384 174.192 235.416 176.509C230.097 178.57 224.53 179.098 218.869 178.634C216.57 178.448 214.59 177.374 212.913 175.858C211.124 174.244 209.325 173.681 207.188 175.104C206.875 175.313 207.287 175.081 206.927 175.226C200.616 177.769 195.641 176.195 191.629 170.389C191.211 158.732 191.46 147.074 191.495 135.416C191.495 134.928 191.658 134.47 191.884 134.04C192.877 132.89 194.143 133.03 195.432 133.285C196.79 133.697 197.446 134.713 197.673 136.037C198.038 138.185 199.374 139.161 201.458 139.335C212.808 140.269 224.071 141.901 235.288 143.828C239.189 144.502 239.979 144.049 242.046 140.606C242.347 140.113 242.58 139.55 243.323 139.66Z" fill="#E1E6EA"/>
<path d="M146.292 112.913C146.292 112.164 146.286 111.41 146.286 110.661C145.984 108.315 146.024 105.964 146.263 103.618C146.315 103.438 146.361 103.258 146.39 103.078C147.215 102.277 148.254 102.3 149.299 102.324C149.821 102.359 150.338 102.422 150.849 102.556C156.498 103.212 162.176 103.444 167.831 104.019C177.509 105.006 187.228 105.505 196.888 106.707C202.142 107.363 207.472 107.334 212.72 108.095C220.738 109.267 228.849 109.366 236.878 110.382C238.771 110.841 240.739 110.794 242.637 111.253C244.571 112.373 243.618 114.411 243.868 115.932C244.489 119.735 244.936 123.671 243.27 127.416C237.877 126.841 232.483 126.272 227.095 125.698C227.095 124.136 229.046 124.629 229.423 123.468C230.741 121.535 232.065 119.607 229.847 117.424C229.116 116.855 228.518 116.019 227.589 115.828C226.776 115.665 227.455 116.217 227.432 116.449C227.542 116.687 227.606 116.931 227.653 117.181C227.781 119.108 227.148 120.025 225.197 118.905C223.536 117.953 221.563 119.021 219.931 118.017C217.661 116.89 213.969 118.185 213.673 120.217C213.371 121.854 214.7 122.719 215.606 123.787C214.654 124.49 213.824 124.246 212.993 124.043C201.957 123.282 190.978 121.959 179.982 120.827C171.947 119.996 163.889 119.363 155.836 118.638C154.414 118.307 153.032 118.446 151.598 118.719C149.491 119.12 147.383 119.137 145.932 117.088C145.293 115.642 145.955 114.295 146.292 112.913Z" fill="#E2E7EC"/>
<path d="M282.221 142.545C283.144 137.1 287.997 136.002 291.858 133.784C294.198 132.443 296.532 131.085 298.773 129.587C300.451 128.461 300.799 129.268 300.787 130.754C300.782 131.903 300.828 133.099 300.549 134.197C300.021 136.234 299.882 137.999 302.105 139.161C303.359 139.817 303.173 140.902 302.128 141.373C300.038 142.313 300.729 143.869 300.747 145.46C300.822 153.193 300.782 160.926 300.782 168.659C299.121 170.122 298.302 172.05 297.919 174.152C297.554 176.184 296.363 177.635 294.831 178.843C294.175 179.359 293.298 179.951 292.462 179.255C290.598 177.71 287.864 176.677 286.796 174.883C284.607 171.202 282.29 167.161 283.817 162.412C284.015 161.791 284.061 161.054 283.951 160.404C283.08 155.26 286.186 152.189 289.629 149.251C290.714 148.322 291.852 147.422 292.404 145.889C290.401 147.747 288.16 149.135 285.658 150.168C284.113 150.813 283.225 151.283 283.347 148.908C283.428 147.323 284.055 145.454 281.925 144.374C281.292 144.072 282.017 143.166 282.221 142.545Z" fill="#32577C"/>
<path d="M192.361 170.97C193.435 171.609 194.811 172.015 195.536 172.932C198.875 177.153 203.008 176.073 206.782 174.331C209.424 173.112 211.189 172.967 213.273 175.086C217.168 179.046 222.173 178.186 226.934 177.664C230.934 177.229 234.864 176.422 238.412 174.181C240.159 173.077 242.65 175.017 242.708 177.379C242.801 181.049 242.743 184.729 242.748 188.399C240.67 188.184 238.591 187.975 236.513 187.76C231.282 188.271 226.243 186.843 221.151 186.117C212.309 184.857 203.473 183.574 194.637 182.291C192.343 181.96 191.263 180.996 191.478 178.779C191.728 176.178 190.567 173.397 192.361 170.97Z" fill="#BBC6D2"/>
<path d="M277.611 143.637C277.971 143.672 278.337 143.707 278.697 143.747C278.703 146.429 278.691 149.112 278.72 151.794C278.744 154.093 277.989 154.917 275.382 154.807C268.897 154.534 262.517 153.698 256.148 152.543C255.381 152.403 254.789 152.514 254.929 151.585C255.37 148.723 253.204 148.252 251.306 147.846C250.04 147.579 249.001 146.876 247.817 146.575C244.931 145.837 245.181 143.422 245.877 141.791C246.69 139.881 248.711 140.705 250.278 141.407C249.587 142.929 250.812 143.172 251.741 143.59C255.219 145.158 258.818 144.734 262.418 144.241C262.639 144.415 262.964 144.786 263.062 144.734C267.759 142.203 272.81 144.531 277.611 143.637Z" fill="#446588"/>
<path d="M243.323 139.66C241.088 145.199 240.234 145.53 234.185 144.491C223.38 142.633 212.535 140.984 201.591 140.189C198.706 139.98 196.697 139.039 196.866 135.718C196.918 134.766 196.186 134.412 195.635 133.907C197.301 132.525 198.898 133.123 200.494 134.058C201.864 135.852 203.397 136.496 205.766 135.672C208.483 134.731 211.328 135.863 214.08 136.154C218.207 136.595 222.37 136.386 226.469 137.065C227.735 137.053 229 137.082 230.26 137.082C231.595 137.152 232.931 137.204 234.254 137.448C238.167 138.162 239.805 137.187 241.239 133.39C241.761 132.705 242.417 132.386 243.282 132.647C243.532 134.987 243.567 137.321 243.323 139.66Z" fill="#8193AA"/>
<path d="M243.275 132.647C242.683 132.896 242.091 133.152 241.505 133.401C240.239 134.505 238.764 134.632 237.197 134.348C228.686 133.68 220.233 132.467 211.727 131.753C205.422 131.224 199.158 130.284 192.835 129.93C192.15 129.889 191.506 129.697 191.082 129.088C191.099 128.914 191.111 128.74 191.129 128.565C193.155 128.542 192.127 127.027 192.092 126.266C191.999 124.408 192.644 123.979 194.449 124.211C200.661 125.006 206.897 125.639 213.126 126.336C216.575 126.806 220.122 126.458 223.495 127.584C228.941 128.101 234.375 128.705 239.833 129.094C242.219 129.262 243.751 129.877 243.275 132.647Z" fill="#E1E5E8"/>
<path d="M239.885 192.985C235.142 192.951 230.584 191.563 225.905 191.064C213.951 189.792 202.171 187.336 190.223 185.96C180.109 184.794 170.083 182.854 160.01 181.275C156.503 180.724 152.991 180.213 149.473 179.731C148.613 179.615 147.655 179.795 147.557 178.535C147.684 178.419 147.806 178.309 147.934 178.192C149.037 177.635 150.192 177.809 151.319 178.041C156.979 179.226 162.669 179.853 168.44 178.907C174.6 179.499 180.742 180.23 186.786 181.6C188.301 183.307 190.432 183.586 192.487 183.992C196.539 184.788 200.661 185.223 204.679 186.204C206.345 186.611 207.698 186.216 208.894 185.061C212.418 184.259 215.733 185.67 219.129 186.094C225.974 186.947 232.813 187.9 239.583 189.293C240.343 189.45 241.11 189.514 241.609 190.216C241.766 191.586 239.856 191.685 239.885 192.985Z" fill="#4E6886"/>
<path d="M152.085 119.456C155.401 120.565 158.896 120.484 162.309 120.896C171.384 121.987 180.481 122.905 189.567 123.921C193.329 124.345 190.856 126.934 191.123 128.571L191.042 128.739C187.367 129.343 183.756 128.449 180.15 128.095C173.091 127.404 166.019 126.783 158.971 125.976C155.528 125.581 152.091 125.291 148.625 125.343C147.557 125.361 146.489 125.244 145.798 124.24C146.46 122.417 147.929 121.082 148.811 119.352C149.339 118.318 151.006 118.405 152.085 119.456Z" fill="#DBE0E3"/>
<path d="M270.076 173.838C268.508 174.082 269.019 175.069 269.263 176.015C269.664 177.583 269.362 178.349 267.405 178.645C263.068 179.307 258.859 180.886 254.36 180.277C253.983 180.225 253.576 180.323 253.204 180.254C245.692 178.866 245.466 178.971 245.686 171.284C245.75 169.159 247.37 168.12 249.408 168.114C253.419 168.102 257.263 169.24 260.81 170.883C263.626 172.189 266.43 172.602 269.397 172.718C269.96 172.886 270.244 173.223 270.076 173.838Z" fill="#43678B"/>
<path d="M257.174 126.83C255.34 126.841 253.511 126.859 251.676 126.859C249.168 126.859 247.996 125.523 247.943 123.085C247.937 122.893 247.903 122.69 247.943 122.504C248.35 120.524 246.765 117.622 249.064 116.699C251.624 115.671 254.527 116.699 256.994 118.196C257.482 118.492 258.179 119.253 258.341 119.149C260.971 117.384 261.296 119.688 262.15 121.488C262.127 118.249 263.961 117.953 266.33 118.104C269.105 118.284 271.909 117.964 274.632 118.777C275.306 119.642 274.737 120.286 274.11 120.681C273.094 121.314 272.316 121.935 272.089 123.253C271.834 124.745 270.475 124.751 269.32 124.612C267.125 124.356 264.966 123.909 262.806 123.439C260.246 122.882 257.813 123.276 255.81 125.082C255.038 125.779 254.19 126.11 253.145 126.011C254.533 126.504 256.141 124.472 257.174 126.83Z" fill="#547696"/>
<path d="M152.086 119.456C150.193 119.148 148.364 118.765 148.724 121.836C149.009 124.269 146.425 122.794 145.642 123.863C145.798 124.554 146.036 125.221 146.251 125.895C146.431 126.736 146.907 127.48 147.087 128.316C147.029 128.426 146.965 128.536 146.907 128.647L146.652 128.641L146.396 128.658C143.261 129.517 140.411 128.188 137.479 127.491C137.096 127.398 136.683 127.172 136.817 126.725C136.91 126.406 137.229 126.011 137.525 125.929C138.164 125.755 138.866 125.825 139.516 125.68C141.101 125.326 141.676 123.706 141.787 122.649C141.938 121.14 140.236 121.842 139.313 121.668C135.934 121.024 132.219 121.169 130.105 117.639C133.635 116.408 137.026 118.696 140.591 117.883C138.042 116.844 135.551 115.642 132.538 115.601C133.403 115.183 134.837 115.566 134.86 114.086C135.754 114.87 135.969 113.848 136.434 113.494C139.104 114.701 141.705 116.211 144.829 115.305C146.588 114.794 145.81 116.455 146.292 117.035C148.266 118.359 150.542 118.005 152.719 118.202C153.77 118.301 154.855 118.092 155.831 118.661C154.611 119.061 153.119 118.167 152.086 119.456Z" fill="#3D6287"/>
<path d="M192.36 170.97C192.319 173.676 192.377 176.381 192.209 179.081C192.099 180.869 192.795 181.247 194.485 181.485C208.239 183.389 221.975 185.432 235.711 187.441C235.99 187.482 236.245 187.65 236.512 187.761C236.274 187.946 236.042 188.132 235.804 188.318C232.524 188.817 229.342 187.929 226.184 187.401C215.815 185.676 205.342 184.747 194.943 183.232C194.148 183 193.335 182.872 192.511 182.843C185.689 181.636 178.873 180.399 172.005 179.482C167.999 178.947 163.947 178.767 159.97 178.001C156.893 177.252 153.723 177.066 150.611 176.515C149.584 176.335 148.48 176.393 147.714 175.487C147.65 175.336 147.586 175.185 147.528 175.034C147.552 174.808 147.581 174.587 147.604 174.361C149.415 173.682 151.232 174.21 153.015 174.454C164.098 175.992 175.158 177.682 186.218 179.389C190.16 179.998 190.218 179.946 190.235 175.824C190.241 174.28 190.212 172.735 190.241 171.191C190.113 161.757 190.142 152.328 190.247 142.9C190.212 141.808 190.165 140.717 190.247 139.625C190.345 137.483 189.736 135.26 190.943 133.233C191.75 132.908 192.389 132.897 192.424 134.023C192.401 146.337 192.383 158.651 192.36 170.97Z" fill="#424D61"/>
<path d="M242.277 111.735C240.407 111.967 238.59 111.77 236.814 111.137C235.856 110.585 235.687 109.749 235.948 108.756C236.059 108.507 236.233 108.321 236.477 108.205C247.252 109.343 258.132 109.047 268.878 110.614C271.961 110.899 275.021 111.439 278.139 111.235C279.642 112.35 278.887 113.488 278.168 114.626C270.016 113.865 261.871 113.041 253.714 112.373C250.457 112.106 247.212 111.444 243.914 111.862C243.38 111.688 242.869 111.218 242.277 111.735Z" fill="#CAD3DD"/>
<path d="M256.061 163.515C255.329 163.579 254.54 163.248 253.936 164.026C252.014 166.482 250.273 166.378 248.572 163.748C248.264 163.272 248.032 162.714 247.649 162.319C246.946 161.6 245.477 161.414 245.715 160.061C245.994 158.459 246.435 156.856 247.045 155.353C247.44 154.371 248.572 154.76 249.396 154.755C253.977 154.737 258.221 156.694 262.726 157.118C267.742 157.588 272.154 160.171 277.037 161.1C276.933 161.257 276.811 161.42 276.642 161.466C275.319 161.861 275.313 161.855 276.3 162.923C276.66 164.427 275.766 165.408 274.872 166.389C272.497 166.633 271.719 164.479 270.442 163.231C269.67 162.482 269.199 161.716 267.969 161.756C266.685 161.803 265.623 160.973 264.456 160.549C263.283 160.125 261.931 159.237 260.874 159.719C256.984 161.483 253.466 158.43 250.006 159.242C251.98 160.375 254.401 161.391 256.061 163.515Z" fill="#4C6F92"/>
<path d="M298.064 116.907C292.851 119.201 288.712 123.131 283.991 126.185C282.859 126.916 281.652 127.427 280.508 128.083C278.697 123.433 280.299 119.566 284.903 117.587C285.861 117.174 286.912 116.942 287.44 115.897C288.99 114.724 290.511 114.637 291.98 116.042C294.006 116.333 296.032 116.617 298.064 116.907Z" fill="#36587C"/>
<path d="M261.907 133.843C261.779 137.088 260.42 138.185 256.612 137.733C253.488 137.361 250.405 136.629 247.282 136.229C245.807 136.037 245.54 135.288 245.72 134.087C245.819 133.425 246.173 132.774 246.144 132.13C246.04 129.541 247.462 129.535 249.308 130.15C252.252 131.131 255.34 131.143 258.371 131.573C259.509 132.397 261.233 132.304 261.907 133.843Z" fill="#597D9C"/>
<path d="M257.175 126.829C255.834 125.686 254.162 126.708 252.217 125.935C255.056 126.069 255.48 123.358 257.767 122.783C261.599 121.819 264.949 123.445 268.525 123.764C270 123.898 272.084 124.914 271.277 121.761C271.021 120.751 271.904 120.507 272.763 120.495C273.89 120.478 274.615 120.014 274.633 118.783C276.043 121.564 276.043 121.564 278.714 119.044C278.714 121.047 278.714 122.823 278.714 124.6C276.438 125.802 273.901 125.674 271.457 125.93C270.226 126.057 268.984 126.098 267.753 126.284C266.191 126.324 264.815 126.591 263.283 127.305C261.483 128.136 259.207 127.247 257.175 126.829Z" fill="#36587C"/>
<path d="M246.249 187.708C246.301 183.232 246.853 182.854 251.23 183.545C253.872 183.963 256.56 184.103 259.225 184.393C260.467 184.527 261.826 184.544 261.913 186.309C262.006 188.19 260.49 187.667 259.486 187.958C255.707 189.061 251.805 189.368 247.927 189.897C245.471 190.234 246.557 188.492 246.249 187.708Z" fill="#6284A1"/>
<path d="M274.651 166.384C274.691 165.089 276.195 164.282 275.841 162.848C277.722 163.144 277.855 163.493 276.985 165.786C272.967 169.815 268.224 168.015 263.777 167.145C261.605 166.721 259.167 166.692 257.251 165.2C256.786 161.147 257.083 160.828 261.268 160.967C263.695 161.049 266.018 161.757 268.38 162.216C269.298 162.39 269.878 163.023 270.383 163.76C271.417 165.258 272.921 166.007 274.651 166.384Z" fill="#466A8D"/>
<path d="M229.969 123.956C229.603 125.523 227.803 124.722 227.084 125.703C222.335 125.61 217.644 124.972 212.987 124.06C213.556 123.99 214.131 123.921 214.7 123.851C211.832 123.596 213.272 121.506 213.098 120.101C214.09 119.346 214.613 120.304 215.217 120.739C217.719 122.539 218.915 122.109 219.652 119.073C219.78 118.539 219.641 117.923 220.215 117.563C222.352 118.324 224.935 116.826 226.933 119.369C227.008 118.254 227.049 117.622 227.095 116.983C229.011 117.54 228.506 119.177 227.833 119.909C225.539 122.4 227.687 122.736 229.29 123.439C229.551 123.549 229.772 123.741 229.969 123.956Z" fill="#C7D0DA"/>
<path d="M274.649 166.384C272.484 166.477 270.324 166.546 269.686 163.754C269.558 163.202 269.128 163.005 268.641 162.918C266.283 162.511 263.932 161.96 261.558 161.762C259.531 161.594 256.536 160.77 257.958 164.851C257.97 164.88 257.499 165.077 257.25 165.194C256.855 164.63 256.454 164.067 256.06 163.51C253.099 163.133 251.624 159.678 248.402 159.8C248.042 159.812 247.711 159.399 247.81 158.976C247.937 158.43 248.437 158.192 248.919 158.256C251.09 158.529 253.25 158.958 255.427 158.244C255.752 158.14 256.315 158.232 256.222 158.749C255.822 160.95 257.592 160.032 258.01 159.719C260.396 157.925 262.632 159.034 264.838 159.91C266.44 160.543 267.921 161.373 269.755 161.153C271.497 160.944 270.208 163.225 271.758 163.667C272.89 163.986 273.697 165.437 274.649 166.384Z" fill="#6C8CA8"/>
<path d="M261.907 133.843C260.664 133.187 259.079 133.065 258.377 131.567C259.77 131.439 261.239 131.776 262.528 130.946C263.538 129.367 264.885 129.1 266.726 129.384C269.379 129.79 272.107 129.5 274.796 129.599C275.875 129.639 277.187 129.349 277.658 130.859C274.616 129.936 272.984 132.833 270.523 133.512C269.925 133.674 269.878 134.569 270.168 135.033C271.591 137.315 270.093 137.408 268.479 137.309C266.441 137.193 264.56 137.564 263.016 139.323C262.487 137.779 263.306 137.222 263.608 136.479C263.887 135.794 265.634 135.869 264.67 134.644C264.014 133.814 263.085 133.222 261.907 133.843Z" fill="#36587C"/>
<path d="M277.989 190.681C276.921 188.654 275.765 188.544 273.89 189.235C271.173 190.239 268.119 189.427 265.216 190.564C263.358 191.29 262.517 189.438 262.424 187.516C262.325 185.473 263.527 185.531 265.013 185.455C268.827 185.264 272.444 186.396 276.148 186.93C278.233 187.232 278.204 187.412 277.989 190.681Z" fill="#577899"/>
<path d="M194.637 182.483C207.786 184.376 220.936 186.274 234.092 188.167C234.661 188.248 235.236 188.271 235.811 188.323C238.237 188.712 240.664 189.101 243.143 189.496C242.766 190.419 242.104 190.077 241.616 190.21C235.155 189.241 228.704 188.173 222.225 187.336C217.645 186.744 213.134 185.589 208.489 185.467C203.92 186.059 199.554 184.863 195.171 183.911C194.248 183.708 194.288 183.534 194.637 182.483Z" fill="#B1BDCC"/>
<path d="M242.278 111.734C242.888 110.974 243.416 111.206 243.915 111.862C244.229 113.064 243.068 115.2 245.826 114.887C246.017 114.864 246.371 115.183 246.453 115.415C247.155 117.476 246.702 119.613 246.83 121.714C246.958 123.81 246.969 125.825 244.316 126.504C243.91 126.609 243.608 127.108 243.254 127.421C243.759 122.632 243.265 117.836 243.376 113.046C243.399 112.263 243.172 111.729 242.278 111.734Z" fill="#6A7C93"/>
<path d="M262.424 144.241C257.976 146.702 253.738 145.204 249.518 143.556C248.96 143.335 248.565 142.847 248.676 142.203C248.838 141.251 249.669 141.524 250.284 141.413C252.949 142.354 255.817 141.942 258.516 142.627C259.881 142.969 261.71 142.284 262.424 144.241Z" fill="#7491AB"/>
<path d="M291.975 116.042C290.46 115.996 288.95 115.944 287.435 115.897C286.669 115.81 285.908 115.723 285.142 115.642C284.875 114.063 282.715 113.627 282.837 111.816C285.281 112.002 287.725 112.315 290.175 112.344C293.45 112.379 292.73 114.161 291.975 116.042Z" fill="#CAD3DD"/>
<path d="M243.3 188.382C243.3 174.047 243.294 159.713 243.306 145.379C243.306 144.421 243.387 143.463 243.428 142.505C243.556 143.056 243.794 143.608 243.794 144.154C243.84 158.302 243.869 172.451 243.887 186.593C243.887 187.232 244.084 187.981 243.3 188.382Z" fill="#8193AA"/>
<path d="M267.741 126.278C268.049 125.616 268.554 125.111 269.286 125.187C272.461 125.518 275.527 124.147 278.702 124.6C278.714 125.75 278.726 126.899 278.737 128.043C274.9 128.531 271.155 128.42 267.735 126.284L267.741 126.278Z" fill="#547696"/>
<path d="M277.663 130.864C275.172 129.848 272.565 130.65 270.028 130.406C268.798 130.29 267.532 130.383 266.324 130.156C265.099 129.93 263.927 129.309 263.665 131.329C263.625 131.637 262.823 131.416 262.533 130.952C262.649 130.034 263.079 129.268 263.659 128.571C268.525 127.718 273.367 127.398 278.104 129.256C278.301 129.605 278.499 129.947 278.696 130.296C278.348 130.487 278.005 130.673 277.663 130.864Z" fill="#7E96AA"/>
<path d="M282.842 111.81C283.161 113.355 286.523 113.07 285.147 115.636C282.819 115.34 280.432 115.416 278.174 114.62C277.878 113.494 278.813 112.356 278.145 111.23C279.707 111.427 281.274 111.619 282.842 111.81Z" fill="#E1E7ED"/>
<path d="M278.098 129.256C273.262 129.436 268.495 128.205 263.653 128.571C264.832 127.48 267.317 128.722 267.735 126.284C271.404 126.87 275.067 127.456 278.737 128.043C278.742 128.234 278.737 128.426 278.731 128.618C278.528 128.832 278.313 129.041 278.098 129.256Z" fill="#36587C"/>
<path d="M270.075 173.838C269.848 173.467 269.622 173.095 269.396 172.718C272.002 171.33 274.615 172.619 277.222 172.718C277.756 172.735 278.104 173.113 277.988 173.693C277.878 174.251 277.431 174.413 276.92 174.454C274.603 174.651 272.333 174.314 270.075 173.838Z" fill="#7F99B3"/>
<path d="M280.648 164.746C280.166 162.79 281.391 161.019 281.147 159.126C281.095 158.72 281.443 158.43 281.867 158.395C282.291 158.354 282.529 158.621 282.709 158.999C283.521 160.735 282.494 163.736 280.648 164.746Z" fill="#32577C"/>
<path d="M276.984 165.786C276.769 164.741 277.716 163.243 275.841 162.848C275.121 161.774 273.541 162.842 272.537 161.1C274.227 161.1 275.626 161.1 277.031 161.1C279.243 162.105 277.82 164.015 278.064 165.489C278.174 166.163 277.553 166.389 276.984 165.786Z" fill="#6C8CA8"/>
<path d="M223.484 127.584C220.03 127.178 216.517 127.219 213.115 126.336C216.622 126.33 220.175 125.959 223.484 127.584Z" fill="#828F9E"/>
<path d="M206.718 46.8153C216.558 46.5134 226.329 47.8662 236.153 47.9475C238.934 47.9707 241.755 48.261 244.478 47.3611C246.469 50.6819 247.95 54.1712 248.025 58.1249C247.271 58.9493 246.301 58.8448 245.332 58.7577C241.517 58.4035 237.819 59.0073 234.243 60.2846C231.659 61.2077 229.041 61.6547 226.306 61.5502C219.868 61.2948 213.447 60.6213 206.985 60.6678C205.092 60.6794 203.298 59.6692 201.411 59.257C198.462 58.6125 195.675 59.6402 192.825 59.5589C189.347 59.4602 186.049 58.1539 182.583 57.7997C180.615 57.5965 179.704 56.3193 180.656 54.2699C181.318 53.1087 182.514 53.0158 183.64 52.8359C187.327 52.2495 191.025 51.6341 194.723 51.2103C199.118 50.7052 203.078 49.2595 206.718 46.8153Z" fill="#5F636F"/>
<path d="M206.718 46.8152C204.79 49.7703 201.701 50.734 198.532 51.3843C192.79 52.5628 186.885 52.7892 181.202 54.3045C180.551 55.0186 179.663 55.0535 178.804 55.0825C176.505 55.158 175.657 56.1798 176.452 58.4382C176.696 59.1407 176.505 59.9593 176.952 60.656C176.272 58.7169 177.097 58.055 178.966 58.1537C181.532 58.2873 184.157 57.9273 186.299 59.9999C187.251 60.9172 188.702 60.4063 189.939 60.476C194.398 60.5747 198.816 61.2133 203.275 61.254C204.79 61.6372 206.253 62.0726 206.799 63.8201C207.763 66.9145 206.439 68.3427 202.433 68.4879C201.394 68.5634 200.366 68.4589 199.35 68.2731C194.299 67.7622 189.144 68.0699 184.168 67.2048C179.03 66.3107 176 68.3369 173.84 72.5925C173.706 72.8538 173.509 73.0628 173.323 73.2892C172.075 74.491 170.56 74.9612 168.882 74.7406C167.86 74.6071 166.658 74.4387 167.239 72.8364C168.15 70.5257 169.166 68.2499 169.95 65.8985C170.519 64.1801 170.862 62.3571 169.602 60.7082C169.544 59.64 168.725 59.0246 168.104 58.3163C165.213 55.0244 164.075 51.1637 164.255 46.85C164.336 45.805 164.423 44.7658 164.487 43.9878C178.415 45.5495 192.296 46.3681 206.207 46.7339C206.375 46.7629 206.543 46.792 206.718 46.8152Z" fill="#3C4152"/>
<path d="M202.108 67.6807C206.236 67.6285 206.393 67.3672 206.23 64.3657C206.114 62.2118 204.135 62.833 203.281 61.875C198.677 60.9635 194.038 60.9403 189.382 61.2596C187.652 61.2132 186.154 61.428 184.587 59.7327C182.816 57.8168 179.809 59.5411 177.318 58.6006C177.231 60.0578 177.962 61.3351 176.79 62.5369C176.401 61.0506 176.058 59.6572 175.663 58.2755C174.763 55.152 175.286 54.4379 178.618 54.316C179.484 54.287 180.349 54.3044 181.214 54.2986C180.912 55.5294 180.5 57.0911 182.386 57.0505C185.138 56.9866 187.652 57.9155 190.259 58.409C194.567 59.2276 198.927 57.2072 203.148 58.5658C210.927 61.068 219.02 59.576 226.905 60.6791C229.238 61.0042 231.456 60.3539 233.674 59.5934C237.877 58.1536 242.156 57.1608 246.65 58.171C247.05 58.2639 247.55 57.9271 248.002 57.7936C250.04 58.9141 250.545 61.0971 251.55 62.9317C253.187 64.4005 254.337 66.0261 253.291 68.3542C252.781 71.3267 251.254 73.8986 250.04 76.5983C249.767 77.2021 249.384 77.8001 248.531 77.6666C246.447 75.9829 244.391 74.2644 242.475 72.4008C241.593 71.5473 240.722 70.9203 239.486 70.8971C232.449 70.752 225.488 69.5676 218.428 69.6198C213.813 69.6547 209.209 68.958 204.57 69.0335C203.624 69.0451 202.329 69.2076 202.108 67.6807Z" fill="#515765"/>
<path d="M232.786 36.44C236.896 36.4284 241.001 36.4168 245.111 36.3994C244.676 37.8218 243.497 37.1193 242.679 37.1483C239.846 37.2412 237.012 37.1716 234.185 37.3748C233.819 37.6651 234.487 37.8102 234.231 37.5257C237.831 36.9626 241.436 37.0729 245.047 37.456C243.962 39.3197 244.49 41.3691 244.496 43.3256C244.496 45.0093 244.043 45.7872 242.243 45.6595C240.066 45.5086 237.877 45.5202 235.689 45.4621C235.648 45.2763 235.625 44.9396 235.561 44.9338C231.601 44.4868 232.443 41.0962 231.613 38.6753C231.131 37.2935 232.275 37.1135 232.786 36.44Z" fill="#BCC5CF"/>
<path d="M249.064 77.5041C250.469 74.4561 251.88 71.4022 253.285 68.3542C254.278 69.765 253.082 70.8739 252.687 72.0293C250.771 77.6318 247.752 82.8105 246.225 88.5697C245.116 91.4029 243.955 94.2245 242.916 97.0867C242.318 98.7355 241.598 100.251 240.245 101.406C239.694 101.348 239.624 100.971 239.659 100.518C240.472 98.1898 241.598 95.9778 242.306 93.6033C243.369 89.1445 245.546 85.1153 247.212 80.8946C247.63 79.6522 247.984 78.3749 249.064 77.5041Z" fill="#D9DFE5"/>
<path d="M251.997 42.0951C251.213 42.455 250.725 43.3259 249.756 43.3491C248.676 43.4362 247.306 44.2374 247.66 41.8803C247.834 40.7365 247.137 39.349 247.532 38.182C248.072 36.5855 249.825 36.8641 251.045 36.7538C252.688 36.6029 251.852 38.1298 251.956 38.9135C252.101 39.9528 251.997 41.0326 251.997 42.0951Z" fill="#D2D6DB"/>
<path d="M251.549 62.9317C250.365 61.219 249.18 59.5063 248.002 57.7936C246.829 54.316 245.656 50.8384 244.483 47.3608C244.814 47.0705 245.267 46.0371 245.575 47.1053C247.131 52.4698 249.209 57.602 251.874 62.5079C251.903 62.5775 251.659 62.7865 251.549 62.9317Z" fill="#D4D9DF"/>
<path d="M245.047 37.4622C241.395 37.4622 237.744 37.4622 234.092 37.4622C237.732 36.4288 241.517 37.7351 245.111 36.4056C246.232 35.9876 247.335 35.4941 248.577 35.7263C247.636 36.7829 246.15 36.7365 245.047 37.4622Z" fill="#FEFEFE"/>
<path d="M227.612 45.1084C229.964 45.1374 232.344 44.6323 234.655 45.5031C232.298 45.5089 229.917 45.985 227.612 45.1084Z" fill="#BCC5CF"/>
<path d="M143.412 178.007C145.874 178.523 147.139 177.38 147.528 175.028L147.598 175.208C148.341 176.34 148.452 177.461 147.523 178.552L147.552 178.523C146.164 178.465 144.707 178.901 143.412 178.007Z" fill="#3F6488"/>
<path d="M239.903 100.785C240.019 100.994 240.141 101.197 240.257 101.406C240.28 101.546 240.309 101.679 240.338 101.819C239.026 102.364 238.469 103.92 237.029 104.298C235.873 105.743 234.242 106.475 232.518 106.637C226.933 107.177 221.365 106.55 215.803 106.074C214.927 105.999 214.137 105.586 213.661 104.768C213.469 103.926 214.038 103.618 214.648 103.34C217.539 103.351 220.337 104.141 223.205 104.385C226.102 104.628 228.971 104.837 231.415 102.811C231.833 102.463 232.251 102.44 232.75 102.533C233.017 102.585 233.394 102.805 233.441 102.184C233.586 100.245 233.609 100.17 235.2 100.03C236.489 99.9143 237.604 99.415 238.724 98.8518C239.868 99.0318 240.367 99.6182 239.903 100.785Z" fill="#D89228"/>
<path d="M150.367 103.148C150.019 103.113 149.67 103.084 149.328 103.05C148.892 101.912 149.206 101.029 150.292 100.501C150.855 100.222 150.994 100.019 150.414 99.6416C149.81 99.659 148.962 99.4209 149.107 98.91C149.427 97.7547 150.739 98.0798 151.604 97.7199C154.28 97.476 156.515 95.8098 159.14 95.386C159.163 95.6008 159.192 95.8214 159.215 96.0362C158.954 97.5225 156.806 97.9637 157.137 99.7867C157.078 100.048 156.945 100.269 156.742 100.443C155.186 100.826 153.212 100.681 153.305 103.154C152.312 103.479 151.337 103.468 150.367 103.148Z" fill="#444F66"/>
<path d="M191.03 142.563C191.019 152.223 191.001 161.89 190.99 171.551C188.94 173.101 186.49 172.213 184.249 172.607C179.982 173.356 175.697 173.867 171.308 173.06C167.842 172.422 164.504 171.62 161.497 169.774C159.935 168.816 158.408 168.311 156.579 169.008C154.379 169.844 152.475 169.112 151.273 167.22C149.914 165.089 147.592 163.446 147.644 160.543C147.586 158.801 147.528 157.06 147.47 155.318C147.017 146.58 147.389 137.837 147.273 129.099C149.786 126.974 153.914 127.985 154.361 130.946C154.704 133.227 155.987 133.988 158.071 134.174C162.199 134.551 166.327 134.928 170.449 135.352C171.511 135.462 172.551 135.619 173.543 136.026C176.638 136.716 177.271 139.213 178.002 141.808C179.68 147.759 181.404 153.716 185.614 158.523C186.095 159.074 186.357 159.916 187.489 159.928C188.371 157.6 188.737 155.19 188.29 152.659C187.831 150.07 187.802 147.445 188.151 144.862C188.348 143.405 188.627 141.5 191.03 142.563Z" fill="#E2E7EB"/>
<path d="M147.638 160.543C148.823 163.243 151 165.24 152.643 167.615C153.618 169.02 155.145 168.996 156.527 168.201C158.176 167.255 159.546 167.58 161.079 168.543C166.919 172.218 173.288 173.211 180.092 172.3C183.692 171.818 187.32 171.266 190.984 171.545C191.007 173.954 190.949 176.37 191.088 178.779C191.181 180.451 190.693 180.962 188.975 180.695C177.079 178.843 165.172 177.089 153.27 175.249C151.383 174.959 149.374 175.371 147.604 174.355C147.615 169.751 147.627 165.147 147.638 160.543Z" fill="#C1CBD6"/>
<path d="M128.3 155.992C129.403 156.218 130.512 156.427 131.603 156.682C132.381 156.862 133.322 157.606 133.223 155.864C133.177 155.068 133.937 154.738 134.68 154.83C137.63 155.196 140.602 155.469 143.511 156.032C145.908 156.497 146.791 158.244 146.35 160.601C145.874 163.127 143.9 162.204 142.396 162.18C141.548 162.169 140.625 162.029 139.876 161.658C138.286 160.868 137.183 160.741 137.043 162.964C136.985 163.858 136.3 164.131 135.603 163.98C133.56 163.527 131.505 163.069 129.531 162.395C128.77 162.134 127.859 160.88 128.729 160.346C131.957 158.366 129.142 157.577 128.3 155.992Z" fill="#4E7295"/>
<path d="M147.54 128.624C147.517 137.524 147.494 146.418 147.465 155.318C146.489 152.27 147.227 149.124 146.965 146.035C146.948 140.235 146.925 134.441 146.907 128.641L147.012 128.612C147.192 128.449 147.366 128.449 147.54 128.624Z" fill="#4E7193"/>
<path d="M195.152 43.8312C194.182 43.808 193.219 43.7847 192.249 43.7615C191.28 42.85 190.026 43.5235 188.679 43.0823C191.744 42.3043 191.791 39.4014 192.987 37.4275C193.921 35.889 191.338 36.8063 191.071 35.7613C193.672 35.4652 196.203 36.1212 198.763 36.336C199.326 36.3825 199.988 36.2954 200.203 36.9863C200.447 37.77 199.895 38.1764 199.321 38.6003C197.469 39.9588 195.605 41.3406 195.152 43.8312Z" fill="#E5E9ED"/>
<path d="M204.993 44.3706C202.81 44.3648 200.61 44.6029 198.474 43.9236C200.645 44.0861 202.88 43.314 204.993 44.3706Z" fill="#E5E9ED"/>
<path d="M185.828 35.14C185.886 34.9601 185.892 34.7801 185.84 34.6001C187.552 34.6001 189.259 34.6001 190.972 34.6001C190.972 34.7801 190.978 34.9601 190.978 35.14C189.265 35.14 187.547 35.14 185.828 35.14Z" fill="#C4CCD5"/>
<path d="M153.323 102.527C152.563 99.2234 154.955 100.193 156.58 100.129C159.402 99.3163 162.276 99.8563 165.062 100.112C169.527 100.524 174.02 100.518 178.456 101.18C179.449 101.302 180.389 101.732 181.417 101.679C184.384 101.412 187.269 102.364 190.224 102.26C190.718 102.271 191.217 102.277 191.71 102.289C192.547 102.266 193.377 102.359 194.195 102.538C198.747 103.56 203.403 103.229 208.007 103.589C209.4 103.99 210.776 104.228 212.205 103.613C212.733 103.386 213.552 102.974 213.668 104.153C214.109 105.029 214.91 105.267 215.804 105.331C219.346 105.592 222.893 105.772 226.423 106.144C230.162 106.539 233.633 105.674 237.036 104.292C238.772 105.865 235.967 106.806 236.49 108.205L236.368 108.309C235.474 110.266 233.651 110.446 231.938 110.283C218.33 108.989 204.727 107.665 191.124 106.306C181.742 105.372 172.319 104.785 162.932 103.891C159.715 103.584 156.336 104.24 153.323 102.527Z" fill="#CAD3DD"/>
<path d="M150.403 99.6413C150.78 99.6529 151.233 99.5368 151.511 99.7109C152.051 100.048 151.57 100.46 151.297 100.512C149.845 100.779 149.758 102.039 149.323 103.055C148.347 103.067 147.366 103.072 146.391 103.084C146.188 102.916 145.984 102.747 145.781 102.579C146.501 100.303 148.609 100.216 150.403 99.6413Z" fill="#718CA6"/>
<path d="M134.03 104.623C137.072 105.017 140.12 105.383 143.162 105.819C144.602 106.028 145.513 106.846 145.159 108.408C144.735 110.272 143.493 108.948 142.599 108.948C139.406 108.936 136.218 108.907 133.025 108.867C132.172 108.855 131.156 109.087 130.587 108.298C129.972 107.438 129.646 106.283 129.913 105.313C130.151 104.454 131.249 104.861 131.975 104.797C132.648 104.739 133.327 104.785 134.007 104.785C134.012 104.727 134.024 104.675 134.03 104.623Z" fill="#517899"/>
<path d="M146.293 117.029C145.724 116.861 146.118 115.624 144.603 116.205C142.049 117.186 139.477 115.595 137.004 114.724C136.707 114.62 136.62 113.911 136.435 113.488C138.409 112.483 140.313 112.959 142.234 113.691C143.721 114.26 145.23 114.672 146.293 112.913C146.293 114.283 146.293 115.659 146.293 117.029Z" fill="#718CA6"/>
<path d="M146.262 103.618C146.268 105.964 146.274 108.315 146.286 110.66C145.548 108.315 145.653 105.969 146.262 103.618Z" fill="#718CA6"/>
<path d="M139.389 148.154C136.3 149.361 134.117 148.107 131.476 146.754C134.407 146.447 136.753 146.783 139.389 148.154Z" fill="#2E5074"/>
<path d="M126.749 132.768C126.755 131.77 126.761 130.771 126.766 129.773C127.771 129.924 128.868 129.442 129.826 130.191C129.739 131.311 127.672 130.899 128.166 132.112C128.601 133.186 129.965 132.827 130.761 132.617C133.815 131.816 136.59 133.61 139.58 133.343C141.159 133.204 141.014 134.922 141.681 135.77C142.436 136.728 143.139 137.727 143.887 138.743C145.037 137.767 144.706 136.722 144.143 135.816C143.237 134.353 143.992 133.738 145.234 133.262C144.787 135.967 146.018 138.673 145.211 141.378C143.185 141.477 141.205 141.198 139.196 140.879C137.699 140.641 136.7 140.449 137.315 138.644C137.722 137.454 136.961 137.349 136.108 137.343C134.18 137.332 132.241 137.198 130.325 137.361C128.009 137.558 126.836 136.856 127.202 134.359C127.289 133.802 127.254 133.198 126.749 132.768Z" fill="#3D6287"/>
<path d="M162.67 83.96C163.158 80.3024 164.597 77.028 166.635 73.9916C168.714 74.5141 170.751 74.4909 172.876 73.9858C178.194 72.7202 183.634 73.3123 189.022 73.2078C191.344 73.1614 193.411 73.0221 195.507 71.4835C197.853 69.7651 200.97 69.7418 203.885 69.7244C213.824 69.6605 223.769 69.4283 233.639 70.9842C234.788 71.1642 235.955 71.083 237.105 71.1642C238.841 71.2862 240.855 71.3558 241.349 73.4343C241.79 75.2979 240.751 76.7609 239.05 77.6666C231.735 72.2267 223.473 72.0525 214.95 73.382C214.474 73.4575 213.981 73.6897 213.534 73.591C207.838 72.3138 202.578 75.1121 197.051 75.3559C195.896 75.4663 194.735 75.4256 193.574 75.4256C192.389 75.4256 191.501 75.7682 191.193 77.057C190.653 79.3619 188.813 80.2153 186.822 80.8423C184.598 81.5448 182.438 82.3402 180.627 83.8961C178.601 85.6321 178.607 85.8004 181.12 87.0022C181.382 87.1241 181.626 87.2751 181.724 87.8731C179.756 89.3825 177.538 88.6336 175.332 88.3317C173.12 88.0298 170.891 88.1401 168.667 88.3027C168.348 88.2969 168.075 88.1808 167.843 87.9659C167.547 87.3331 167.076 86.799 166.368 86.8629C164.168 87.0777 163.291 85.7075 162.67 83.96Z" fill="#8C95A2"/>
<path d="M156.707 99.6645C155.232 96.8661 158.576 97.3887 159.203 96.0359C162.484 94.9212 165.764 93.8065 169.044 92.6976C172.464 90.6192 175.912 90.6773 179.372 92.5873C180.249 93.0692 180.963 93.5337 180.452 94.8341C179.814 96.4597 181.451 95.6934 182.008 96.0649C182.24 96.2217 182.339 96.2507 182.177 95.7863C181.346 93.4001 183.402 93.1679 184.801 92.7963C187.727 92.0242 190.717 92.4016 193.649 92.895C194.926 93.1098 196.075 93.7775 196.18 95.2754C196.319 97.2667 194.595 97.6905 193.312 98.4743C191.135 99.4845 188.9 100.129 186.479 99.5368C185.538 99.142 184.685 99.2871 183.703 99.6471C180.168 100.948 176.742 101.517 172.748 100.715C169.416 100.048 165.694 100.373 162.141 100.193C160.318 100.106 158.495 100.117 156.707 99.6645Z" fill="#EEBA3C"/>
<path d="M193.498 97.859C193.702 97.2088 194.363 97.1681 194.834 96.8546C196.349 95.8503 196.134 94.8168 194.729 93.9808C192.221 92.4887 184.627 93.1041 182.148 95.0142C182.56 95.8444 183.803 95.4438 184.076 96.396C184.07 96.4076 183.971 96.6572 183.901 96.6514C182.212 96.4715 180.209 97.4817 178.914 96.1638C178.049 95.2871 179.948 94.9039 180.372 93.7486C177.817 92.8081 175.518 91.1128 172.464 92.2101C171.408 92.5932 170.194 92.5468 169.056 92.6977C165.561 91.9082 167.837 89.6556 167.855 87.9719C168.087 87.9545 168.313 87.9313 168.545 87.9138C172.029 87.1707 175.437 88.3435 178.903 88.3319C182.357 88.3202 185.817 88.3667 189.26 88.895C191.223 89.1969 191.24 89.0692 192.657 91.2347C192.738 91.3566 192.958 91.1708 193.109 91.1302C197.307 89.9226 201.58 91.2405 205.801 90.7412C206.538 90.6541 207.519 90.747 207.804 91.5656C208.158 92.57 207.008 92.6861 206.503 93.1796C206.259 93.377 205.992 93.5338 205.708 93.6615C202.625 94.5207 199.832 96.0534 196.97 97.441C195.884 97.9635 194.787 98.8576 193.498 97.859Z" fill="#6C6B70"/>
<path d="M238.713 77.5858C238.788 77.5219 238.893 77.4755 238.933 77.4C239.636 76.0066 241.72 74.7874 240.617 73.1734C239.688 71.8091 237.691 72.0762 235.908 72.0704C232.384 72.0646 228.866 71.3504 225.336 71.0485C216.303 70.2822 207.263 70.0616 198.258 71.2808C197.01 71.4491 195.344 71.3853 194.914 73.3824C194.694 74.4159 193.428 74.0037 192.615 74.0095C188.273 74.0501 183.924 74.1488 179.581 74.0037C177.23 73.9282 174.949 74.352 172.719 74.7816C170.484 75.2171 168.597 74.7236 166.629 73.992C166.832 73.6089 167.03 73.2257 167.233 72.8367C169.172 75.5073 171.105 73.725 173.038 72.8309C173.364 72.6277 173.718 72.3664 174.095 72.4245C179.216 73.2605 183.854 70.9324 188.743 70.288C192.36 69.8119 195.774 68.7495 199.211 67.6638C200.174 67.6638 201.144 67.6696 202.108 67.6696C202.508 68.1805 203.077 68.2734 203.664 68.2328C209.342 67.8786 214.973 68.6798 220.628 68.8598C227.322 69.0688 234.01 69.6145 240.704 69.9977C241.517 70.0442 242.225 70.2067 242.643 70.9847C244.158 73.7714 247.456 74.799 249.064 77.4929C249.157 78.7934 248.13 79.7107 247.891 80.9008C245.639 81.0924 243.392 80.4828 241.099 81.2376C239.897 81.6324 238.788 80.5467 238.242 79.2752C238.115 78.6424 238.173 78.0444 238.713 77.5858Z" fill="#6A7382"/>
<path d="M147.539 128.623C147.365 128.623 147.185 128.617 147.011 128.612C145.983 127.921 145.571 126.969 145.798 125.744C149.188 124.333 152.654 125.297 156.033 125.645C166.774 126.748 177.526 127.799 188.243 129.059C195.5 129.912 202.757 130.928 210.026 131.683C217.98 132.507 225.911 133.57 233.882 134.156C234.66 134.214 235.426 134.261 236.135 134.626C237.307 137.134 236.791 137.947 234.184 137.75C232.982 137.657 231.751 137.065 230.584 137.895C229.226 137.901 227.861 137.901 226.503 137.907C223.751 136.833 220.842 136.867 217.963 136.757C213.057 136.571 208.244 135.352 203.303 135.544C202.264 135.584 201.207 135.184 200.383 134.423C198.833 133.982 197.265 133.674 195.64 133.906C194.571 133.947 193.497 133.982 192.429 134.023C192.214 133.361 191.692 133.25 191.094 133.262C189.282 134.592 187.192 134.005 185.23 133.97C183.697 133.941 182.728 134.208 182.136 135.782C181.375 137.808 179.633 138.255 177.63 137.994C176.382 137.343 175.047 136.972 173.671 136.74C168.463 135.724 163.168 135.48 157.897 135.062C154.547 134.795 153.577 133.866 153.711 130.411C153.74 129.697 153.711 129.25 152.968 129.25C151.122 129.273 149.409 128.263 147.539 128.623Z" fill="#6F7F90"/>
<path d="M153.323 102.527C159.361 103.084 165.393 103.694 171.437 104.187C177.771 104.698 184.123 104.965 190.451 105.575C199.659 106.457 208.843 107.566 218.04 108.542C222.638 109.029 227.242 109.418 231.846 109.883C233.616 110.063 234.975 109.163 236.368 108.309C236.519 109.25 236.67 110.196 236.827 111.137C224.333 110.01 211.839 108.878 199.345 107.758C183.292 106.318 167.234 104.884 151.181 103.438C150.908 103.415 150.641 103.247 150.374 103.148C151.315 102.771 152.493 103.479 153.323 102.527Z" fill="#6A7C93"/>
<path d="M220.221 117.558C220.094 118.405 220.692 119.166 220.372 120.083C219.426 122.789 217.342 123.439 215.118 121.645C214.462 121.117 213.777 120.612 213.104 120.101C212.395 119.242 212.111 118.342 213.295 117.72C214.439 117.128 216.912 119.195 216.744 115.973C217.998 116.286 219.362 116.374 220.221 117.558Z" fill="#72849E"/>
<path d="M229.97 123.956C227.996 124.252 226.666 122.864 224.878 122.197C226.521 120.67 228.686 119.561 227.096 116.977C227.049 116.78 227.009 116.588 226.962 116.391C228.216 115.427 228.924 117.076 229.987 117.03C232.588 117.662 231.682 119.613 231.508 121.233C231.392 122.319 230.585 123.102 229.97 123.956Z" fill="#687A95"/>
<path d="M180.453 116.304C182.386 115.996 181.515 114.545 181.927 113.72C182.496 112.582 183.158 111.845 184.279 112.936C185.37 113.999 185.422 115.421 184.615 116.646C183.913 117.715 183.204 119.137 181.509 118.696C180 118.307 178.368 117.639 177.933 116.106C177.608 114.951 180.377 114.788 179.617 112.977C180.424 112.965 180.963 113.424 180.975 114.15C180.987 114.823 180.662 115.497 180.453 116.304Z" fill="#8190A7"/>
<path d="M195.38 114.04C197.098 116.844 197.452 118.684 195.165 120.048C193.551 121.012 192.053 120.675 190.729 119.334C189.963 118.562 189.702 117.622 190.021 116.687C190.491 115.311 191.461 116.507 192.192 116.461C193.539 116.385 195.444 117.68 195.38 114.04Z" fill="#9CAABB"/>
<path d="M200.308 119.381C199.344 118.864 198.595 118.109 198.177 117.105C197.707 115.973 197.602 114.968 199.373 115.183C200.627 115.334 201.585 115.166 202.479 113.964C203.687 112.35 204.308 113.86 204.918 114.794C204.215 117.163 203.1 119.114 200.308 119.381Z" fill="#95A6BB"/>
<path d="M171.924 112.193C171.749 114.399 172.626 116.048 170.896 116.919C169.305 117.72 168.208 116.402 167.018 115.677C166.17 115.16 165.485 114.481 165.555 113.372C165.601 112.675 166.077 112.466 166.716 112.35C167.796 112.152 168.812 111.996 169.415 113.221C170.362 115.166 171.134 114.765 171.924 112.193Z" fill="#99A6B7"/>
<path d="M158.571 115.857C158.176 115.584 157.735 115.363 157.404 115.032C156.353 113.958 154.641 112.762 156.22 111.224C157.665 109.813 159.007 111.154 159.999 112.408C160.957 111.624 159.599 109.894 161.294 109.558C162.095 109.401 162.6 109.755 162.641 110.626C161.549 112.577 160.946 114.905 158.571 115.857Z" fill="#A2B1C3"/>
<path d="M158.57 115.857C159.273 114.278 161.322 113.5 161.032 111.276C160.898 110.231 162.739 112.519 162.64 110.626C163.708 111.032 163.813 111.961 163.871 112.913C164.364 114.841 163.633 116.327 161.99 117.25C160.411 118.139 159.644 116.519 158.588 115.851L158.57 115.857Z" fill="#586984"/>
<path d="M200.309 119.381C202.375 118.382 203.409 116.35 204.918 114.794H204.93C206.718 116.228 206.079 117.848 205.174 119.375C204.378 120.722 203.368 121.912 201.499 121.111C201.104 120.536 200.703 119.955 200.309 119.381Z" fill="#566A86"/>
<path d="M158.588 115.845C162.222 117.319 162.838 116.977 163.871 112.913C165.497 116.478 163.714 118.62 160.463 118.202C158.745 117.975 159.041 116.745 158.588 115.845Z" fill="#97A9BE"/>
<path d="M201.498 121.111C205.185 119.839 205.992 118.353 204.929 114.794C206.23 115.079 207.048 115.822 206.717 117.215C206.241 119.207 205.359 121.035 203.437 122.016C202.624 122.429 201.713 122.336 201.498 121.111Z" fill="#95A6BB"/>
<path d="M229.986 117.035C229.928 117.633 229.876 118.231 229.092 117.528C228.477 116.983 227.867 116.414 226.967 116.396C226.491 116.123 225.649 115.914 225.783 115.374C225.969 114.626 226.77 114.614 227.455 114.898C228.517 115.34 229.504 115.891 229.986 117.035Z" fill="#C7D0DA"/>
<path d="M200.377 134.423C208.429 135.219 216.488 136.008 224.54 136.839C225.283 136.914 226.027 137.216 226.497 137.907C220.726 137.181 214.874 137.402 209.126 136.351C207.843 136.119 206.496 135.973 205.19 136.589C202.531 137.843 201.526 137.367 200.377 134.423Z" fill="#44566E"/>
<path d="M230.579 137.895C231.276 136.206 232.53 137.257 233.546 137.326C235.282 137.442 236.698 137.297 236.35 134.981C236.158 134.04 236.629 133.715 237.488 133.75C238.887 134.33 240.124 133.053 241.505 133.402C241.442 136.804 239.566 138.65 236.222 138.47C234.335 138.371 232.46 138.093 230.579 137.895Z" fill="#44566F"/>
<path d="M237.488 133.756C237.111 134.168 236.727 134.574 236.35 134.987C229.186 135.05 222.155 133.698 215.061 132.995C203.745 131.875 192.453 130.487 181.155 129.21C171.198 128.084 161.242 126.928 151.279 125.854C149.468 125.657 147.621 125.779 145.793 125.75C145.131 125.169 144.899 124.554 145.642 123.863C146.838 124.705 148.208 124.548 149.555 124.571C157.828 124.745 166.02 125.86 174.229 126.76C178.908 127.271 183.605 127.654 188.296 128.043C189.266 128.124 190.235 128.06 191.036 128.734C193.678 129.814 196.517 129.303 199.252 129.645C209.522 130.928 219.862 131.619 230.144 132.804C232.588 133.082 235.125 132.833 237.488 133.756Z" fill="#FAFBFB"/>
<path d="M147.528 178.553C147.552 177.438 147.581 176.323 147.604 175.208C151.668 175.992 155.842 176.126 159.842 177.281C161.892 178.169 164.121 178.135 166.258 178.576C167.053 178.738 168.22 178.326 168.464 179.667C161.369 181.339 154.501 178.988 147.528 178.553Z" fill="#93A1B1"/>
<path d="M194.637 182.483C196.041 183.615 197.528 183.882 201.783 184.422C204.018 184.707 206.341 184.596 208.489 185.473C209.157 188.469 206.707 187.232 205.812 187.128C202.323 186.704 198.875 185.966 195.42 185.293C193.179 184.858 190.973 184.265 188.726 183.871C187.635 183.679 186.909 183.354 186.967 182.117C188.895 180.898 190.805 183.174 192.732 182.14C193.4 182.042 194.073 181.966 194.637 182.483Z" fill="#8396AB"/>
<path d="M192.726 182.134C190.798 183.446 188.888 181.565 186.96 182.111C180.795 181.298 174.623 180.486 168.458 179.673C165.485 178.651 162.338 178.517 159.285 177.896C159.238 177.885 159.18 177.716 159.186 177.71C159.395 177.559 159.616 177.426 159.836 177.287C170.803 178.901 181.764 180.515 192.726 182.134Z" fill="#C0CAD7"/>
<path d="M249.488 170.39C251.92 170.837 254.359 171.249 256.78 171.748C257.36 171.864 257.923 172.404 257.563 173.008C256.884 174.152 256.013 175.621 254.655 175.499C252.53 175.307 250.422 174.622 248.39 173.908C247.421 173.565 247.258 172.427 247.438 171.411C247.665 170.181 248.663 170.454 249.488 170.39Z" fill="#7291AA"/>
<path d="M173.672 136.746C175.088 136.508 176.401 136.966 177.719 137.355C181.138 138.197 184.674 138.18 188.122 138.789C189.144 138.969 190.23 138.865 191.06 139.666C191.048 140.63 191.043 141.599 191.031 142.563C189.487 142.412 188.871 143.434 188.836 144.665C188.767 147.167 188.535 149.762 189.069 152.16C189.696 154.964 188.755 157.501 188.569 160.154C188.529 160.77 188.186 161.519 187.356 161.594C186.648 161.658 186.462 160.979 186.096 160.555C181.312 155.028 178.775 148.444 177.149 141.437C176.668 139.347 175.983 137.454 173.672 136.746Z" fill="#C9D2DB"/>
<path d="M191.059 139.666C187.303 139.834 183.657 138.981 179.97 138.487C179.094 138.371 178.298 138.069 177.718 137.361C180.319 137.738 181.718 136.467 182.014 134.005C182.113 133.163 182.066 132.925 183.088 133.007C185.747 133.221 188.423 133.198 191.094 133.268C191.077 135.399 191.071 137.529 191.059 139.666Z" fill="#9AAABB"/>
<path d="M199.211 67.6693C196.895 69.5156 194.34 70.3864 191.315 70.6825C187.739 71.0367 184.203 72.0759 180.72 73.0803C178.073 73.8466 175.588 73.3009 173.045 72.8306C173.893 70.4096 175.866 68.7318 177.155 66.6011C177.504 66.0263 178.067 65.8812 178.659 65.9567C185.254 66.7985 191.884 66.9785 198.515 67.1991C198.753 67.2107 198.979 67.5068 199.211 67.6693Z" fill="#505A6C"/>
<path d="M189.376 61.2598C193.655 60.1102 197.997 60.8243 202.311 60.9114C202.642 60.9172 202.956 61.5384 203.281 61.8752C198.619 62.2293 194.015 61.312 189.376 61.2598Z" fill="#5F636F"/>
<path d="M238.672 79.2923C239.839 80.5522 240.896 81.1211 242.777 80.14C244.344 79.3214 246.272 80.0064 247.892 80.9179C246.208 85.2258 244.53 89.5394 242.846 93.8473C235.102 93.0809 227.304 93.7776 219.548 92.9996C215.728 92.6164 211.844 92.6919 208.035 93.5221C207.182 93.7079 206.323 93.9169 205.585 93.2086C205.794 92.2739 206.897 92.2855 207.379 91.6759C202.108 91.6759 196.9 91.6759 191.64 91.6759C191.721 90.6193 192.569 91.0663 192.702 90.6947C192.923 90.0677 192.238 90.2477 192.017 90.2129C189.84 89.8645 187.663 89.4814 185.469 89.2898C179.831 88.7847 174.182 88.3725 168.539 87.9196C170.96 86.9675 173.451 87.2752 175.877 87.7164C177.671 88.0415 179.396 87.9254 181.166 87.5074C180.714 87.4726 180.261 87.4494 179.808 87.4029C179.082 87.3216 178.165 87.6351 177.851 86.6249C177.55 85.6554 178.107 84.9471 178.775 84.3607C180.957 82.4332 183.367 80.9528 186.241 80.2096C188.505 79.6291 190.804 78.9324 190.578 75.7625C190.502 74.7174 191.448 74.6652 192.25 74.6594C193.794 74.6536 195.332 74.6536 196.877 74.6536C209.075 74.4214 221.023 77.0107 233.116 77.9512C235.009 78.0847 237.017 78.0499 238.672 79.2923Z" fill="#ACB4BE"/>
<path d="M205.585 93.2027C211.135 91.5365 216.738 91.9835 222.392 92.5351C226.584 92.9473 230.846 92.088 234.997 92.4364C237.563 92.6512 240.419 92.419 242.852 93.8356C242.138 96.2623 241.441 98.7007 239.903 100.779C239.775 99.978 239.572 99.2349 238.596 99.0897C235.989 99.1826 234.126 96.8255 231.507 96.9648C230.944 96.8952 230.381 96.8836 229.812 96.8777C225.998 96.6165 222.567 97.0287 220.111 100.628C218.984 102.283 216.331 102.033 214.909 103.612C214.491 103.792 214.079 103.972 213.661 104.152C211.913 104.199 210.241 105.488 208.436 104.448C209.399 102.649 211.292 101.958 212.79 100.797C213.243 100.442 213.852 100.309 214.294 99.9374C215.246 99.1478 216.633 98.2944 216.372 97.0519C216.07 95.6179 214.369 95.9256 213.173 95.6818C208.993 94.8225 205.167 95.5366 201.608 97.9576C200.36 98.8053 198.955 99.6181 197.277 99.1013C195.965 98.4743 195.895 97.9228 197.277 97.2261C200.029 95.8327 202.85 94.5845 205.602 93.1969L205.585 93.2027Z" fill="#727A85"/>
<path d="M214.91 103.618C214.841 102.794 215.183 101.685 215.77 101.673C218.835 101.638 220.159 99.3509 222.063 97.5685C224.199 95.5655 227.207 95.9255 229.988 96.2564C230.65 99.8095 230.22 100.936 227.967 101.54C230.046 102.643 230.249 98.5555 232.206 99.8966C232.809 99.9895 232.594 99.5889 232.455 99.676C231.683 100.135 230.888 99.856 230.551 99.107C230.005 97.882 230.33 96.8486 231.712 96.3435C234.394 96.2913 236.519 97.6556 238.603 99.0954C237.64 101.859 234.899 100.1 233.314 101.017C233.007 102.376 234.946 101.493 234.545 102.387C234.238 103.067 233.593 104.309 232.368 103.2C231.474 105.046 229.738 104.75 228.124 105.029C223.549 105.807 219.236 104.785 214.91 103.618Z" fill="#F2BD3B"/>
<path d="M156.707 99.6646C159.761 99.682 162.814 99.3801 165.868 100.065C167.32 100.39 168.881 100.088 170.414 99.891C171.674 99.7343 173.543 97.9345 174.554 100.623C174.676 100.948 176.435 100.936 177.288 100.652C179.599 99.8794 182.252 100.17 184.232 98.3177C185.091 97.5107 185.77 98.3583 186.391 98.9273C185.48 100.907 183.332 100.419 181.817 101.203C180.893 101.679 179.779 101.517 178.821 101.923C171.401 101.406 163.964 101.11 156.585 100.135C156.684 99.9955 156.73 99.8388 156.707 99.6646Z" fill="#D08B26"/>
<path d="M197.33 98.6368C199.24 98.9503 200.721 97.8995 202.073 96.8835C206.637 93.4581 211.571 94.5264 216.448 95.6353C217.894 95.9662 218.393 96.9764 216.884 98.5323C214.41 101.081 211.299 102.544 208.436 104.448C203.571 104.077 198.625 104.628 193.852 103.177C193.852 102.306 193.754 101.441 193.73 100.57C194.294 98.7355 195.902 98.8574 197.33 98.6368Z" fill="#E9AE2D"/>
<path d="M197.33 98.6367C196.401 99.6005 194.752 99.3508 194.009 100.622C193.376 101.482 192.331 101.969 191.838 102.956C191.362 102.962 190.886 102.974 190.41 102.979C190.328 102.799 190.224 102.521 190.09 102.527C187.17 102.579 184.267 100.506 181.329 102.422C180.424 102.614 179.622 102.277 178.821 101.917C180.894 99.7863 184.052 100.39 186.392 98.927C188.906 99.5424 191.158 98.3929 193.498 97.8588C196.163 97.6323 198.189 95.9081 200.511 94.8804C202.16 94.1489 203.734 93.2548 205.597 93.1968C203.159 95.5655 199.902 96.4364 196.987 97.9342C196.918 97.9691 196.865 98.0445 196.807 98.0968C196.982 98.2826 197.156 98.4568 197.33 98.6367Z" fill="#ACB4BE"/>
<path d="M220.303 107.497C225.296 107.079 230.41 107.671 236.007 106.411C234.852 108.309 233.894 108.727 232.35 108.547C228.349 108.083 224.32 107.833 220.303 107.497Z" fill="#6A7C93"/>
<path d="M181.329 102.422C182.473 100.448 184.725 101.139 186.345 100.152C186.473 100.82 184.458 101.964 186.775 101.772C187.814 101.685 188.842 101.343 189.875 101.331C191.536 101.313 190.862 102.219 190.415 102.986C187.379 102.794 184.354 102.608 181.329 102.422Z" fill="#666E78"/>
<path d="M191.838 102.956C191.356 101.058 192.343 100.524 194.009 100.623C194.875 101.528 194.66 102.37 193.853 103.177C193.179 103.102 192.506 103.032 191.838 102.956Z" fill="#695244"/>
<path d="M238.672 79.2922C230.736 78.8858 222.892 77.6201 215.008 76.726C209.975 76.1571 204.924 75.7158 199.884 75.2108C198.868 75.1062 197.742 75.5707 196.877 74.6418C200.471 74.1251 204.064 73.649 207.53 72.4356C208.448 72.1163 209.615 72.4705 210.666 72.5575C211.618 72.6388 212.727 73.1497 213.487 72.8246C218.3 70.7462 223.194 72.3718 228.042 72.3311C231.305 72.3021 234.115 73.9683 237.076 75.0366C238.19 75.4372 238.55 76.4822 238.701 77.5853C238.701 78.1543 238.684 78.7232 238.672 79.2922Z" fill="#939AA7"/>
<path d="M237.558 85.6845C237.383 89.4756 234.051 87.9255 231.949 88.7848C233.035 90.3117 234.602 89.4466 235.729 90.2652C222.184 90.3813 208.68 89.226 195.164 88.5235C194.56 88.1287 193.875 88.2855 193.225 88.268C192.372 88.2448 191.408 88.3784 191.315 87.1417C191.24 86.1548 191.832 85.5394 192.691 85.2084C194.061 84.6859 195.489 84.7962 196.906 84.924C199.443 85.6323 202.05 85.5161 204.668 85.371C203.681 85.2084 202.671 85.2026 201.696 84.9646C200.848 84.6975 199.966 84.7904 199.106 84.6859C198.079 84.564 196.72 84.6511 196.72 83.1939C196.72 81.8121 197.823 81.516 199.101 81.2373C202.932 80.3955 206.77 80.5871 210.584 80.9761C216.431 81.5683 222.248 82.4275 227.926 84.0589C230.44 84.7788 233.023 85.0517 235.659 84.4537C236.472 84.2679 237.987 83.6583 237.558 85.6845Z" fill="#EDEFF2"/>
<path d="M197.58 85.6029C196.343 85.6261 195.101 85.6551 193.864 85.6784C192.854 85.6958 191.791 85.8351 191.82 87.1066C191.844 88.2038 192.9 87.931 193.609 87.9774C194.189 88.0181 194.758 88.0297 195.164 88.529C192.453 88.7554 189.788 88.3548 187.118 87.96C186.433 87.8613 185.724 87.7974 185.521 86.9905C185.347 86.317 185.881 85.9222 186.293 85.539C189.788 82.2588 193.818 80.4764 198.735 80.6971C201.696 80.8306 204.686 80.3836 207.653 80.4532C215.914 80.639 224.106 81.7189 232.304 82.6362C233.447 82.7639 234.62 82.7697 235.775 82.7349C238.179 82.6594 238.76 83.6173 237.558 85.6842C237.482 85.3068 237.337 84.7436 236.937 84.8888C231.299 86.9208 226.225 84.0644 220.895 83.2109C213.853 82.0846 206.851 79.8727 199.571 81.5389C198.909 81.6898 198.224 81.7131 197.731 82.253C197.411 82.6013 196.929 82.9555 197.254 83.4664C197.411 83.716 197.876 83.8263 198.224 83.8902C199.519 84.1282 200.935 83.478 202.131 84.4301C200.883 85.8758 198.956 84.6682 197.58 85.6029Z" fill="#CED5DC"/>
<path d="M231.7 96.3436C230.336 98.9504 230.336 98.9504 234.905 99.6587C231.77 99.1129 229.894 103.055 225.981 101.499C230.574 101.714 229.529 98.5092 229.987 96.2507C230.556 96.2856 231.125 96.3146 231.7 96.3436Z" fill="#D89228"/>
<path d="M197.58 85.603C197.412 85.0631 197.086 84.4593 198.12 84.4651C199.455 84.4709 200.796 84.4477 202.132 84.4419C203.386 84.529 204.634 84.6045 205.882 84.7031C206.439 84.7496 207.223 84.738 207.171 85.4753C207.13 86.0036 206.532 86.4623 205.871 86.3926C203.113 86.0849 200.285 86.4971 197.58 85.603Z" fill="#5F6168"/>
</svg>