<svg xmlns="http://www.w3.org/2000/svg" fill="none" viewBox="73 56 265.62 122.89">
<path d="M335.354 104.441C333 104.217 332.841 102.26 332.316 100.59C331.075 99.458 331.19 98.1979 331.958 96.8737C333.173 96.0102 334.574 95.6135 335.994 95.2617C335.777 98.3194 335.566 101.383 335.354 104.441Z" fill="#369ED4"/>
<path d="M237.507 64.9087C248.113 66.316 258.457 69.0283 268.89 71.2799C273.56 72.2842 278.198 73.4421 282.848 74.5359C282.912 75.9944 281.799 76.1991 280.769 76.4806C263.958 81.1503 247.128 85.7112 230.26 90.1634C226.959 91.0334 224.132 90.8606 220.952 90.0418C208.383 86.7987 195.819 83.5171 183.237 80.3251C182.821 80.2227 182.386 80.1715 182.008 79.9796C181.362 79.647 180.518 79.3591 180.614 78.47C180.691 77.7727 181.446 77.5616 182.053 77.3761C185.213 76.4166 188.482 75.8985 191.706 75.2332C206.707 72.1371 221.682 68.9643 236.561 65.3437C236.906 65.2541 237.22 65.1134 237.507 64.9087Z" fill="#2D5578"/>
<path d="M74.3305 78.2014C93.5082 74.6575 112.686 71.1137 131.864 67.5762C132.689 67.4227 133.533 67.3651 134.371 67.2628C138.139 66.4888 141.459 68.2863 144.881 69.2458C153.677 71.715 162.549 73.8835 171.39 76.1672C173.046 76.5958 175.138 76.551 175.676 78.8602C175.439 80.0692 174.505 80.05 173.584 80.0628C171.754 79.4232 169.976 80.082 168.255 80.4722C155.621 83.3572 142.77 85.1419 130.175 88.142C123.797 89.6581 117.24 90.6048 111.144 93.2275C109.954 93.6625 108.822 93.2851 107.76 92.8373C97.7173 88.6026 87.2968 85.3658 77.273 81.1055C76.0448 80.581 73.7931 80.6705 74.3305 78.2014Z" fill="#436B8F"/>
<path d="M237.507 64.9085C237.514 65.0493 237.52 65.19 237.533 65.3307C225.968 68.4012 214.261 70.864 202.568 73.3652C195.096 74.9644 187.574 76.2885 180.166 78.1628C178.887 78.4826 177.563 78.6681 176.392 78.2267C167.232 74.7533 157.509 73.3715 148.182 70.5186C145.131 69.5846 142.035 68.817 139.022 67.7743C138.497 67.5952 137.64 67.7615 137.762 66.7572C155.506 62.9255 173.443 60.1237 191.258 56.6566C194.943 55.9402 198.506 55.6715 202.267 56.5671C212.701 59.0554 223.211 61.2367 233.676 63.5844C234.974 63.8786 236.228 64.4608 237.507 64.9085Z" fill="#2E577A"/>
<path d="M77.9076 88.4298C76.7625 87.176 74.3637 87.9948 73.7368 85.8966C73.353 83.9264 72.6558 81.3869 74.0183 80.1779C75.3169 79.02 77.2807 81.0094 78.9055 81.6491C98.0128 89.1526 117.382 95.978 136.56 103.302C155.559 110.556 174.621 117.638 193.671 124.764C200.253 127.227 206.874 129.581 213.508 131.915C214.979 132.434 216.674 132.645 217.557 134.238C218.171 137.001 218.273 139.758 217.487 142.509C216.278 143.967 214.896 143.231 213.546 142.828C212.036 141.958 210.54 141.057 208.78 140.775C207.597 140.378 206.414 139.982 205.281 139.451C201.149 137.609 196.953 135.926 192.635 134.57C191.221 133.95 189.775 133.425 188.272 133.067C185.234 132.018 182.483 130.271 179.361 129.421C178.197 129.062 177.122 128.5 176.029 127.981C174.749 127.239 173.355 126.772 171.947 126.35C171.09 126.069 170.265 125.73 169.446 125.352C167.15 124.188 164.681 123.529 162.211 122.87C161.367 122.557 160.574 122.116 159.755 121.744C158.457 121.022 157.068 120.58 155.591 120.408C154.714 120.196 153.857 119.928 153.013 119.614C151.049 118.591 149.156 117.388 146.853 117.254C146.117 117.107 145.413 116.857 144.703 116.608C144.422 116.512 144.153 116.384 143.897 116.243C141.921 115.073 140.034 113.716 137.724 113.205C136.663 112.731 135.575 112.316 134.494 111.887C133.611 111.362 132.69 110.915 131.692 110.64C128.762 109.725 125.935 108.522 122.986 107.671C120.479 106.859 118.406 105.1 115.828 104.454C114.497 103.725 113.077 103.296 111.568 103.136C110.122 102.695 109.067 101.498 107.608 101.083C105.894 100.181 104.096 99.4643 102.286 98.7735C101.467 98.3896 100.597 98.1402 99.7528 97.8203C95.3006 96.1508 91.1938 93.6496 86.5753 92.3958C85.8588 92.1463 85.1488 91.8649 84.4196 91.6602C83.4089 91.3148 82.347 91.1676 81.3491 90.7646C80.0633 90.1825 79.059 89.2038 77.9076 88.4298Z" fill="#E37027"/>
<path d="M286.853 75.5657C293.103 76.6531 299.34 77.8173 305.487 79.3974C308.577 81.2205 308.481 81.2461 305.775 83.8176C302.346 87.0672 298.546 89.869 294.363 91.8904C290.256 93.8798 285.996 95.607 281.019 94.737C277.245 94.0781 273.305 95.14 269.78 96.5473C265.622 98.2041 261.291 98.4024 257.018 99.202C248.139 97.1358 239.28 94.9929 230.516 92.4853C229.589 92.223 228.495 91.9032 228.584 90.7326C228.667 89.6771 229.851 89.741 230.599 89.5619C246.879 85.6471 262.993 81.1181 279.094 76.5508C281.608 75.8407 284.134 74.8492 286.853 75.5657Z" fill="#2E577A"/>
<path d="M257.352 98.6263C258.465 97.5004 260.032 97.8779 261.279 97.7819C267.19 97.3469 272.384 93.867 278.372 93.8926C278.992 93.8926 279.677 93.4577 280.233 93.6048C288.223 95.7669 294.242 91.0205 300.357 87.4318C302.897 85.9414 305.014 83.3059 307.663 81.2269C306.562 80.8303 305.545 80.7152 304.918 80.165C304.048 79.4038 305.264 79.6533 305.488 79.4038C316.561 81.5084 327.672 83.4402 338.547 86.4851C337.958 87.7453 336.813 88.2378 335.604 88.724C320.648 94.7306 305.405 99.9888 290.398 105.868C288.907 106.45 287.34 106.757 285.722 106.705C285.21 106.635 284.73 106.462 284.263 106.271C276.76 104.479 269.282 102.58 261.81 100.667C260.243 100.264 258.362 100.334 257.352 98.6263Z" fill="#254C6D"/>
<path d="M285.503 106.405C302.589 100.891 319.144 93.9182 335.993 87.758C336.883 87.4318 337.695 86.9137 338.546 86.4851C338.539 86.9456 338.539 87.4062 338.533 87.8668C337.138 89.837 334.823 90.2272 332.821 91.11C321.837 95.9396 310.419 99.637 299.256 104.012C288.497 108.183 277.686 112.22 266.997 116.589C251.779 122.007 236.823 128.128 221.592 133.515C220.14 134.026 218.663 134.947 217.019 134.02C169.055 116.966 121.597 98.5623 73.7296 80.4401C73.7296 82.3015 73.7296 84.0991 73.7296 85.8966C72.9044 83.2547 72.4119 80.632 74.3245 78.2012C74.4205 79.666 75.783 79.6469 76.653 79.9859C87.7323 84.3166 98.8372 88.5704 109.942 92.8307C110.211 92.9331 110.569 92.8115 110.889 92.7923C111.535 92.6516 112.175 92.69 112.814 92.8627C127.06 98.2616 141.331 103.571 155.603 108.906C156.761 109.456 157.989 109.821 159.217 110.185C169.593 114.004 179.904 117.996 190.216 121.975C198.442 125.141 206.816 127.962 215.087 131.033C216.705 131.634 218.196 131.461 219.731 130.847C239.785 122.851 260.312 116.096 280.341 108.03C282.017 107.352 283.68 106.616 285.503 106.405Z" fill="#E7DFC8"/>
<path d="M158.853 110.774C157.701 110.55 156.55 110.307 155.565 109.61C157.036 107.928 159.045 107.23 161.105 106.661C169.305 104.377 177.583 102.362 185.816 100.181C197.336 97.1233 208.838 93.976 220.665 91.0207C206.42 87.2466 192.385 83.7475 178.408 80.0181C177.397 79.7495 176.265 79.7687 175.478 78.9051C174.73 77.6833 173.418 77.5618 172.216 77.2483C160.394 74.1778 148.445 71.5807 136.861 67.6147C136.08 67.346 135.197 67.378 134.359 67.2692C135.402 66.54 136.592 66.7703 137.743 66.7639C149.059 70.6724 160.919 72.6874 172.273 76.3719C178.824 78.5021 184.632 76.5255 190.639 75.3165C206.305 72.1628 221.9 68.6829 237.528 65.3374C233.267 67.6083 228.489 68.1456 223.902 69.1883C209.669 72.4123 195.372 75.3484 180.225 78.5788C183.417 79.4616 185.809 80.1653 188.221 80.7858C200.119 83.8626 212.055 86.8052 223.909 90.0612C226.947 90.8928 229.378 89.4855 231.924 88.833C248.543 84.5599 265.091 79.999 281.653 75.4956C282.107 75.374 282.453 74.8623 282.856 74.5297C284.192 74.8751 285.523 75.2205 286.86 75.5659C279.926 76.1481 273.497 78.7708 266.863 80.5427C254.997 83.7091 243.24 87.2721 231.207 89.8053C230.433 89.9716 229.704 90.3554 228.93 91.2638C238.404 93.7138 247.878 96.1702 257.358 98.6201C266.185 100.801 274.911 103.379 283.841 105.151C284.224 105.228 284.563 105.535 284.922 105.74C283.169 107.147 281.256 106.495 279.433 106.053C262.789 102.042 246.195 97.8525 229.666 93.4003C227.005 92.6839 224.529 92.5879 221.855 93.3619C202.447 98.9656 182.841 103.834 163.363 109.175C161.808 109.604 160.279 110.038 158.853 110.774Z" fill="#4983A6"/>
<path d="M298.956 103.302C312.165 98.204 325.535 93.5215 338.527 87.8667C338.514 90.6173 339.377 93.6686 335.987 95.2614C335.187 96.624 333.697 96.7903 332.418 97.3276C331.97 97.4492 331.516 97.5259 331.062 97.5899C329.84 97.6922 328.816 98.4023 327.658 98.6965C324.37 99.2787 321.901 101.895 318.588 102.394C318.197 102.599 317.801 102.791 317.398 102.957C315.568 103.398 313.809 103.98 312.466 105.4C311.839 105.855 311.148 106.174 310.425 106.437C307.815 107.076 305.308 108.081 302.717 108.791C300.152 107.857 298.617 106.219 298.956 103.302Z" fill="#F4993D"/>
<path d="M77.9072 88.4297C79.4489 88.5001 80.6515 89.3124 81.8029 90.2336C82.6921 94.0269 83.3253 97.8458 82.8264 101.754C82.8008 101.959 82.7496 102.164 82.7049 102.368C81.611 107.23 81.8605 107.678 86.4406 109.245C87.1379 109.482 87.8607 109.642 88.5644 109.872C92.588 112.194 96.9442 113.748 101.256 115.405C102.529 115.898 103.866 116.237 104.883 117.222C108.017 119.282 111.35 120.862 115.124 121.341C121.898 123.919 128.538 126.823 135.191 129.715C135.709 130.195 136.003 130.77 136.01 131.487C135.767 132.254 135.146 132.465 134.436 132.549C128.161 130.847 122.519 127.591 116.487 125.288C105.881 121.239 95.7096 116.166 85.0845 112.162C78.9435 110.665 78.4957 106.053 79.2378 100.852C79.0331 102.375 79.6216 103.827 78.758 105.202C77.7281 99.6625 78.7004 94.0013 77.9072 88.4297Z" fill="#1C84BE"/>
<path d="M336.653 119.793C337.766 122.327 336.506 123.331 334.171 123.555C332.789 123.689 331.388 123.644 330.09 123.069C328.318 122.282 327.301 121.137 329.29 119.595C330.384 118.751 330.499 117.689 330.051 116.806C329.316 115.367 328.382 116.768 327.704 117.081C315.569 122.742 303.517 128.595 291.319 134.109C288.235 135.504 286.777 137.174 287.378 140.513C287.512 141.242 287.493 141.99 287.538 142.732C287.199 142.988 286.866 142.982 286.54 142.707C285.657 139.476 284.807 136.246 287.928 133.63C295.067 130.227 302.219 126.849 309.511 123.772C310.97 123.158 312.377 122.429 313.682 121.514C313.944 121.341 314.219 121.201 314.507 121.079C318.978 119.397 323.239 117.279 327.384 114.9C329.105 113.915 330.889 112.821 333.179 114.241C333.269 111.861 333.563 109.987 333.973 108.132C334.139 107.39 334.03 106.315 335.316 106.386C335.252 109.846 335.214 113.307 335.111 116.768C335.073 118.098 335.098 119.314 336.653 119.793Z" fill="#176298"/>
<path d="M78.7649 105.215C78.8672 103.693 78.9696 102.164 79.0719 100.642C79.2255 100.648 79.379 100.648 79.5325 100.654C79.5325 101.697 79.5453 102.733 79.5325 103.776C79.4813 106.667 79.3214 109.565 83.2747 110.192C84.1894 110.339 84.8611 111.209 85.2833 112.111C85.5136 112.233 85.5903 112.354 85.5136 112.476C85.4368 112.597 85.36 112.661 85.2833 112.661C84.4645 112.629 83.4474 111.312 82.9036 112.744C82.5838 113.589 82.3279 114.843 83.8632 115.31C84.7395 115.578 85.2001 116.429 85.0274 117.325C84.8419 118.284 83.9335 118.463 83.0955 118.706C81.7458 119.096 80.3705 119.167 79.008 118.962C76.8267 118.63 75.6624 117.625 76.9226 115.297C78.3043 115.022 79.0783 114.433 78.944 112.77C78.7329 110.262 78.8097 107.736 78.7649 105.215Z" fill="#0E5E97"/>
<path d="M335.316 106.392C334.126 109.251 334.132 112.296 333.96 115.859C331.26 112.872 329.047 114.842 326.878 116.058C322.829 118.328 318.831 120.67 314.245 121.719C314.078 120.273 315.409 120.209 316.177 119.621C316.97 119.007 318.3 119.198 318.652 117.932C320.526 116.154 322.631 114.778 325.19 114.202C332.802 112.271 332.552 111.273 331.542 104.185C331.343 103.034 331.235 101.895 331.849 100.82C334.382 100.705 333.877 103.533 335.354 104.447C335.341 105.093 335.329 105.739 335.316 106.392Z" fill="#2C90C7"/>
<path d="M134.474 131.96C134.998 131.935 135.491 131.845 135.804 131.359C138.548 130.764 135.99 128.749 136.789 127.63C136.738 123.907 136.713 120.19 136.77 116.474C136.789 115.124 136.604 113.672 137.794 112.616C140.391 112.878 142.412 114.267 144.28 115.949C144.286 116.09 144.286 116.237 144.299 116.378C144.293 117.388 144.158 118.386 143.947 119.378C143.5 122.659 143.448 125.941 142.047 129.133C140.973 131.583 141.664 133.867 145.22 133.38C145.495 133.419 145.758 133.508 146.001 133.643C146.436 134.474 146.986 135.171 148.048 135.191C155.718 138.568 163.56 141.556 171.032 145.368C171.159 146.091 171.71 146.308 172.324 146.539C176.539 148.138 180.774 149.679 184.804 151.714C185.597 152.11 186.435 152.065 187.273 152.04C193.465 154.605 199.792 156.863 205.613 160.247C207.071 161.84 209.253 161.942 211.063 162.812C212.515 163.509 212.931 162.403 212.976 161.207C213.072 158.776 213.155 156.332 212.393 153.959C212.048 151.029 212.202 148.099 212.227 145.176C212.234 144.037 212.246 142.854 213.187 141.971C214.536 141.875 215.592 143.276 217.025 142.726C217.722 142.195 218.47 142.144 219.264 142.477C220.185 143.065 220.447 144.018 220.294 144.959C219.66 148.822 220.191 152.744 219.654 156.607C219.104 160.036 218.522 163.465 218.573 166.957C218.592 168.115 218.643 169.286 218.49 170.437C217.991 174.064 215.777 174.909 212.413 172.778C212.752 170.936 212.809 169.1 212.387 167.264C211.799 165.582 210.103 165.435 208.824 164.949C198.135 160.906 187.862 155.872 177.249 151.656C166.643 147.07 156.076 142.381 145.566 137.57C143.717 136.726 142.534 136.368 142.796 139.093C142.879 139.95 142.591 140.781 142.412 141.607C141.926 143.814 142.035 144.236 143.506 145.003C142.45 146.922 140.506 146.046 138.996 146.462C135.005 145.074 135.164 145.087 137.416 141.364C138.491 139.585 137.89 137.257 137.666 135.171C137 133.7 134.39 134.174 134.474 131.96Z" fill="#0E81C0"/>
<path d="M212.427 172.772C212.938 172.76 213.495 172.606 213.943 172.76C216.591 173.649 217.679 173.06 217.634 170.239C217.57 166.324 217.973 162.454 218.325 158.571C218.382 157.932 218.401 157.298 218.996 156.883C219.681 157.298 219.399 158.303 220.288 158.821C223.384 154.138 226.122 149.232 229.167 144.524C230.133 143.033 228.662 143.117 227.869 142.765C226.487 142.144 224.133 142.432 224.875 139.714C225.073 139.483 225.31 139.304 225.579 139.17C226.788 138.76 227.939 139.055 228.956 139.656C231.131 140.935 232.289 140.193 232.916 137.935C233.204 136.893 233.856 136.029 234.694 135.319C236.779 134.251 238.756 132.882 241.219 132.773C243.227 133.995 241.724 135.14 241.021 136.106C239.165 138.639 236.984 140.929 235.366 143.641C235.321 144.012 234.329 144.562 235.321 144.709C238.187 145.138 240.931 146.245 243.874 146.174C245.089 146.232 245.895 147.14 246.893 147.665C246.938 144.402 248.735 145.88 250.174 146.392C252.375 149.053 252.17 150.735 249.132 151.951C246.81 152.885 244.788 155.008 241.903 154.177C242.114 152.015 244.181 151.995 245.466 151.004C241.91 149.891 238.187 149.379 234.528 148.592C233.031 148.272 231.854 148.535 230.952 149.891C228.54 153.492 226.417 157.279 223.871 160.797C223.404 161.444 224.133 161.341 224.453 161.469C225.24 161.802 225.924 162.256 224.945 163.017C223.947 163.791 222.77 164.29 221.581 164.725C226.775 162.371 231.816 159.704 237.074 157.478C251.735 151.253 265.7 143.539 280.259 137.084C284.334 135.281 284.903 135.613 285.031 140.206C285.044 140.628 285.056 141.057 285.056 141.479C284.922 142.682 285.459 143.865 285.197 145.061C285.082 144.639 285.427 145.567 285.076 145.33C284.717 145.093 284.41 145.535 284.82 145.49C285.658 145.4 286.534 145.381 287.308 145.036C287.417 144.985 286.815 145.061 286.649 144.786C286.361 144.415 286.278 144.012 286.329 143.564C286.406 143.257 286.572 143.008 286.809 142.81C287.059 142.784 287.308 142.758 287.551 142.733C288.907 142.694 289.88 143.206 289.956 144.671C290.02 146.021 288.901 146.392 287.909 146.776C285.67 147.639 283.502 147.179 281.404 146.27C279.453 145.426 279.05 144.179 280.719 142.65C281.186 142.221 281.768 141.952 281.852 141.217C281.935 140.494 282.357 139.662 281.672 139.131C281.097 138.684 280.476 139.253 279.913 139.515C276.638 141.057 273.363 142.598 270.094 144.147C253.853 151.855 237.611 159.576 221.363 167.271C219.201 168.295 218.721 171.909 220.595 173.438C223.167 175.536 223.007 176.905 219.962 178.101C217.276 179.15 214.563 179.195 211.896 177.979C210.655 177.41 209.727 176.585 209.862 175.062C209.983 173.502 210.987 172.881 212.427 172.772Z" fill="#0E5B92"/>
<path d="M139.004 146.456C140.104 145.515 141.812 146.468 142.816 145.176C142.222 144.223 141.16 145.087 140.482 144.639C140.149 144.53 140.111 144.37 140.334 144.153C142.19 142.342 141.934 139.95 142.062 137.686C142.1 137.001 141.204 136.233 141.902 135.626C142.714 134.922 143.469 135.798 144.179 136.125C155.041 141.082 165.89 146.059 176.739 151.029C176.924 151.112 177.148 151.125 177.359 151.17C177.462 151.778 177.353 152.142 176.63 151.829C165.608 147.588 154.906 142.585 143.776 137.583C143.821 139.617 142.413 141.453 145.247 142.713C146.898 143.449 146.757 145.023 144.927 145.733C143.047 146.468 141.07 146.993 139.004 146.456Z" fill="#0B5890"/>
<path d="M134.474 131.961C134.916 133.649 137.724 132.978 137.666 135.166C120.203 127.662 102.74 120.159 85.2764 112.655C85.2764 112.476 85.2764 112.29 85.2764 112.111C89.7797 112.374 93.4003 115.06 97.3984 116.666C109.316 121.444 121.111 126.543 132.958 131.5C133.445 131.705 133.969 131.807 134.474 131.961Z" fill="#105C94"/>
<path d="M176.624 151.829C176.867 151.611 177.11 151.387 177.353 151.17C184.275 153.991 191.318 156.486 198.021 159.87C202.32 162.038 207.003 163.445 211.519 165.185C212.549 165.582 213.764 165.863 212.395 167.258C206.542 165.665 201.226 162.767 195.706 160.375C189.315 157.599 182.797 155.104 176.624 151.829Z" fill="#0B5D98"/>
<path d="M175.484 78.8984C181.158 79.1991 186.397 81.3804 191.841 82.6918C202.216 85.1865 212.535 87.9564 223.313 90.7262C220.607 92.3766 217.774 92.6452 215.176 93.3681C202.53 96.8863 189.864 100.379 177.109 103.456C171.761 104.748 166.535 106.546 161.123 107.486C159.057 107.844 157.746 109.795 155.571 109.61C144.248 105.752 133.041 101.575 121.898 97.2254C118.667 95.9652 115.431 94.705 112.2 93.4512C113.256 90.611 115.846 91.6217 117.868 91.1932C123.714 95.6581 130.847 96.7904 137.647 98.7862C138.261 98.9653 138.92 99.1508 139.534 99.0357C145.668 97.9034 151.285 100.123 156.997 101.71C159.901 102.516 162.71 101.876 165.441 100.987C167.226 100.405 167.738 98.799 167.443 97.0782C167.059 94.8202 167.232 92.7604 168.051 90.5471C169.337 87.0736 167.43 84.3997 163.637 83.6897C162.575 83.4914 161.098 83.7664 161.424 81.8666C165.396 80.7535 169.33 79.4294 173.533 79.4869C174.243 79.4869 174.985 79.5957 175.484 78.8984Z" fill="#2D5679"/>
<path d="M117.895 91.6026C115.899 91.9288 113.73 91.7049 112.195 93.4513C111.76 93.2338 111.331 93.0099 110.896 92.7924C113.909 90.0162 117.971 90.2656 121.554 89.3509C129.946 87.208 138.448 85.4616 146.962 83.8304C154.951 82.3016 162.954 80.8751 170.873 79.0136C171.782 78.8025 172.779 78.585 173.534 79.487C169.504 80.3633 165.474 81.2397 161.438 82.1161C160.453 83.4466 158.93 83.6641 157.485 83.9136C145.254 86.0437 133.189 88.9735 121.042 91.481C119.986 91.6985 118.957 91.8457 117.895 91.6026Z" fill="#4983A6"/>
<path d="M241.263 133.285C239.082 133.783 237.214 134.999 235.218 135.914C232.077 137.577 228.879 139.08 225.322 139.643L225.399 139.624C223.48 140.974 221.644 142.49 219.149 142.637C218.445 142.662 217.742 142.694 217.045 142.72C217.038 139.816 217.032 136.918 217.025 134.014C229.032 130.438 240.495 125.384 252.234 121.086C257.095 119.307 261.995 117.631 266.876 115.904C269.076 115.84 270.138 117.337 270.573 119.096C271.168 121.514 269.032 122.25 267.477 123.261C266.933 123.561 266.377 123.843 265.846 124.169C264.816 124.809 263.684 125.205 262.52 125.525C260.044 125.992 257.984 127.438 255.745 128.455C255.227 128.717 254.703 128.954 254.159 129.171C253.475 129.421 252.784 129.638 252.099 129.881C251.677 130.035 251.242 130.15 250.801 130.24C247.634 131.295 244.768 133.297 241.263 133.285Z" fill="#F29B3F"/>
<path d="M137.097 128.845C137.27 129.095 137.41 129.37 137.615 129.594C138.274 130.323 138.837 131.263 138.114 132.037C137.167 133.054 136.63 131.455 135.798 131.353C135.536 130.86 135.274 130.368 135.012 129.875C132.171 127.656 130.86 124.297 128.794 121.502C126.094 117.849 126.178 117.862 121.988 119.295C119.589 120.114 117.26 121.182 114.753 121.668C110.71 121.905 107.505 119.999 104.467 117.657C102.548 115.035 100.405 112.591 98.4858 109.962C97.3727 108.439 95.8503 108.938 94.3918 109.213C92.4279 109.578 90.6176 110.781 88.5003 110.243C86.0695 110.634 83.6451 109.584 82.0331 108.414C80.5746 107.352 81.1247 104.544 81.9883 102.529C83.5108 105.081 83.7986 105.113 85.9096 102.97C86.5109 102.362 86.9267 101.595 87.5344 101.013C89.3575 99.2664 88.9801 97.8527 87.2593 96.2215C85.7624 94.8014 84.0929 93.3237 84.176 90.9121C84.982 91.1808 85.788 91.443 86.5876 91.7117C87.931 92.5881 88.8777 93.8802 90.0099 94.9869C90.8479 95.8057 91.5836 96.778 92.9589 95.8952C93.4067 95.6074 94.315 95.4987 94.4302 95.8633C95.5624 99.6566 98.313 96.5157 100.123 97.2578C100.968 97.5264 101.806 97.8015 102.65 98.0702C102.503 99.7269 100.981 100.034 99.9442 100.821C99.3429 101.281 98.1211 101.416 98.6905 102.586C99.0998 103.431 100.027 103.546 100.891 103.444C103.277 103.168 105.637 102.721 108.011 102.33C109.405 103.642 108.567 104.537 107.448 105.382C105.951 106.584 103.008 105.849 102.548 107.678C102.113 109.412 104.665 110.627 105.477 112.367C106.021 113.525 106.917 114.472 107.71 115.457C108.241 116.032 108.567 115.879 108.733 115.169C108.983 114.101 108.593 112.789 109.93 112.073C111.708 113.237 110.518 115.278 111.318 116.672C112.891 115.905 113.288 114.254 114.171 112.988C114.766 111.382 115.316 109.757 115.924 108.158C116.87 106.719 115.066 105.254 115.955 103.808C118.687 103.942 120.574 105.951 122.922 106.936C123.401 107.352 124.227 107.461 124.463 108.024C126.12 111.919 128.947 111.28 131.96 110.064C132.965 110.141 133.847 110.486 134.583 111.19C134.103 112.751 132.562 112.968 131.385 113.519C129.414 114.446 129.274 115.585 130.393 117.28C131.916 119.589 133.713 121.687 135.248 123.977C136.233 125.455 137.442 126.862 137.097 128.845Z" fill="#105C94"/>
<path d="M146.015 133.828C141.556 134.96 140.143 134.154 141.102 129.99C141.927 126.408 142.676 122.793 143.501 119.198C144.895 120.855 144.121 122.838 144.345 124.674C144.582 126.625 143.821 128.653 144.812 130.514C147.102 129.491 148.478 127.361 150.441 125.953C151.606 125.115 151.094 124.15 150.173 123.318C148.753 122.045 147.39 120.702 146.117 119.282C145.292 118.36 144.243 117.471 144.723 115.974C145.541 115.763 146.066 116.339 146.667 116.716C149.77 116.998 150.377 120.663 153.128 121.469C153.346 120.535 152.29 119.704 152.911 118.751C153.755 119.071 154.593 119.39 155.437 119.71C156.877 120.446 158.162 121.636 159.979 121.201C160.721 121.508 161.457 121.808 162.199 122.115C162.403 122.544 162.263 122.909 162.064 123.305C161.732 123.964 160.273 124.156 161.124 125.275C161.828 126.209 162.851 126.395 163.996 126.081C165.922 125.55 167.738 124.54 169.83 124.77C170.63 125.135 171.436 125.499 172.235 125.864C171.206 128.02 168.903 127.853 167.131 128.615C164.572 129.721 164.406 129.99 166.197 132.133C169.255 135.798 171.826 139.828 175.248 144.037C175.37 140.852 175.236 138.184 175.338 135.53C175.389 134.231 174.922 132.728 176.381 131.8C178.735 134.321 177.276 137.346 177.468 140.148C177.513 140.794 177.007 141.242 178.069 140.5C179.016 139.841 179.189 141.21 179.438 141.926C179.515 142.451 179.496 142.988 179.515 143.519C179.624 146.679 179.848 146.865 182.841 146.136C184.178 145.809 185.464 145.227 186.891 145.355C190.332 145.976 193.038 143.749 196.115 142.969C198.373 142.4 198.763 142.758 198.239 145.099C193.703 147.146 188.893 148.387 183.98 149.731C184.645 151.259 186.596 151.106 186.98 152.584C184.485 153.562 182.969 151.362 180.993 150.677C177.916 149.615 174.916 148.317 171.916 147.037C171.551 146.884 170.419 146.929 171.058 145.88C168.781 140.673 164.706 136.783 161.226 132.465C160.197 131.186 158.943 131.839 157.759 132.363C154.471 133.809 151.062 134.89 147.576 135.721C146.149 135.862 145.023 135.753 146.092 133.879C147.761 132.299 150.461 132.817 152.002 130.975C153.256 129.977 154.855 129.664 156.211 128.87C156.896 128.474 157.51 128.013 157.017 127.143C156.486 126.209 155.764 126.241 154.906 126.823C152.463 128.487 150.768 130.994 148.311 132.632C147.48 132.926 146.725 133.329 146.015 133.828Z" fill="#115E95"/>
<path d="M186.813 145.924C186.218 146.065 185.604 146.161 185.028 146.359C179.009 148.4 179.009 148.406 178.759 142.329C178.657 139.08 178.049 135.856 178.318 132.593C178.427 131.237 178.222 129.804 179.322 128.704C182.61 129.082 185.195 131.224 188.214 132.261C190.491 134.487 192.493 136.962 194.476 139.438C196.146 141.523 195.839 142.835 193.389 143.903C191.284 144.818 189.218 145.963 186.813 145.924Z" fill="#B0D2E2"/>
<path d="M186.813 145.925C189.046 145.004 191.266 144.051 193.511 143.161C195.219 142.483 195.404 141.748 194.202 140.212C192.155 137.603 189.225 135.645 188.208 132.261C189.698 132.536 191.151 132.901 192.404 133.822C194.611 134.686 195.865 136.598 197.164 138.364C198.5 140.187 199.869 140.942 201.961 139.637C202.972 139.003 204.13 138.818 205.326 138.901C206.503 139.195 207.744 139.298 208.755 140.085C208 142.317 205.799 142.272 204.111 142.906C202.102 143.66 201.686 144.466 203.004 146.341C205.927 150.505 209.209 154.401 212.068 158.885C212.849 157.529 211.972 155.885 213.284 154.976C214.473 157.599 213.674 160.35 213.763 163.043C213.789 163.798 213.079 164.725 212.343 164.29C210.13 162.985 207.168 163.081 205.563 160.676C206.292 159.979 207.091 160.561 207.955 160.58C204.948 156.269 202.307 151.804 198.967 147.818C198.245 146.955 197.317 146.091 197.854 144.735C198.628 143.065 198.283 142.861 196.626 143.603C194.413 144.601 192.04 145.234 189.814 146.213C188.656 146.718 187.773 146.424 186.813 145.925Z" fill="#0D65A4"/>
<path d="M213.278 154.976C213.278 156.742 213.278 158.514 213.278 160.414C211.653 160.139 211.237 159.109 210.649 158.284C207.636 154.036 204.719 149.718 201.572 145.573C200.376 143.993 200.945 143.539 202.333 142.835C204.418 141.773 206.843 141.53 208.749 140.078C210.329 140.481 212.133 140.366 213.201 141.972C213.227 146.309 213.252 150.639 213.278 154.976Z" fill="#B2D2E3"/>
<path d="M176.118 131.96C176.118 136.413 176.118 140.871 176.118 145.298C174.704 145.663 174.525 144.575 174.077 143.993C170.853 139.784 168.026 135.268 164.373 131.385C163.055 129.984 163.151 129.159 165.09 128.532C167.501 127.745 169.849 126.76 172.222 125.858C173.687 125.986 175.024 126.395 176.073 127.495C177.199 128.973 177.288 130.464 176.118 131.96Z" fill="#B2D2E1"/>
<path d="M137.097 128.845C135.178 124.572 132.063 121.092 129.453 117.28C128.071 115.271 127.975 113.979 130.617 113.141C132.005 112.699 133.265 111.862 134.583 111.203C135.709 111.542 136.918 111.708 137.794 112.616C137.826 116.973 137.897 121.329 137.865 125.685C137.858 126.76 138.447 128.065 137.097 128.845Z" fill="#B4D6E7"/>
<path d="M84.1822 90.9248C85.6471 93.1189 86.9457 95.4537 89.0055 97.1681C90.2784 98.2299 90.2656 99.1831 89.1718 100.309C87.7005 101.825 86.2868 103.392 84.8027 104.895C84.227 105.471 83.6001 106.348 82.7046 106.04C81.6683 105.682 82.2376 104.576 82.0969 103.802C82.0201 103.386 82.0265 102.964 81.9945 102.541C82.7046 98.4282 80.8751 94.3535 81.809 90.2403C82.7238 90.0484 83.4594 90.4514 84.1822 90.9248Z" fill="#FBFCFD"/>
<path d="M144.722 115.975C146.308 118.917 148.874 121.002 151.292 123.158C152.776 124.482 152.571 125.218 151.221 126.331C149.021 128.135 146.91 130.048 144.76 131.922C144.274 132.011 143.858 131.807 143.871 131.333C143.954 126.216 143.443 121.086 144.14 115.975L144.293 115.955C144.434 115.917 144.575 115.923 144.722 115.975Z" fill="#C5DFED"/>
<path d="M107.013 104.934C107.717 104.269 109.08 103.802 107.736 102.522C107.071 101.806 107.071 101.07 107.685 100.322C109.348 100.456 110.276 101.889 111.632 102.561C111.798 102.957 111.805 103.373 111.798 103.795C111.766 108.9 111.766 108.9 116.551 108.177C115.943 109.911 115.342 111.644 114.734 113.378C112.79 112.949 111.459 113.301 111.645 115.713C111.715 116.653 111.44 117.542 110.986 118.374C109.188 116.781 110.903 114.523 109.898 112.789C108.849 114.222 110.621 116.455 108.747 117.516C108.146 117.856 107.397 116.742 107.026 115.956C107.135 114.305 106.847 112.872 105.312 111.862C104.659 111.433 103.668 110.538 104.838 109.898C106.969 108.727 106.719 106.763 107.013 104.934Z" fill="#2277B2"/>
<path d="M107.684 100.315C107.703 101.051 107.716 101.78 107.735 102.516C105.311 104.339 102.304 103.917 99.573 104.499C98.2041 104.793 97.3981 103.143 96.9247 102.113C96.5281 101.249 97.9099 100.987 98.5943 100.558C99.9376 99.7202 101.294 98.9014 102.65 98.0698C104.358 98.7607 106.187 99.1637 107.684 100.315Z" fill="#F6FAFC"/>
<path d="M176.117 131.961C176.105 130.47 176.092 128.986 176.079 127.496C177.154 127.899 178.235 128.295 179.31 128.698C178.894 133.234 179.7 137.814 178.753 142.323C178.689 141.908 178.619 141.492 178.542 140.999C177.352 141.882 178.708 143.539 177.205 144.486C176.348 142.451 176.968 140.372 176.738 138.402C176.488 136.253 177.346 134.008 176.117 131.961Z" fill="#0E81C0"/>
<path d="M205.319 138.894C198.999 141.773 199.005 141.773 194.649 136.47C193.914 135.574 193.152 134.705 192.397 133.822C196.946 134.896 201.257 136.572 205.319 138.894Z" fill="#B5D4E1"/>
<path d="M116.556 108.17C115.021 109.616 112.206 110.467 111.515 109.194C110.588 107.492 109.839 104.722 111.637 102.554C113.262 102.343 114.746 102.631 115.961 103.814C115.942 105.298 118.213 106.462 116.556 108.17Z" fill="#C4DBE5"/>
<path d="M100.13 97.2638C99.004 97.7948 97.8974 98.3769 96.7396 98.8438C95.2747 99.4323 94.2064 99.2596 94.328 97.2958C94.3536 96.8288 94.7438 96.2531 93.9633 96.0036C93.3365 95.8053 92.8951 96.0804 92.6968 96.6113C91.9803 98.5048 91.1999 97.3662 90.5091 96.6497C89.0378 95.1401 87.5473 93.6432 86.6006 91.7178C91.379 92.9012 95.7225 95.1593 100.13 97.2638Z" fill="#F2F5F7"/>
<path d="M169.824 124.77C168.346 125.34 166.881 125.947 165.385 126.466C161.713 127.739 161.713 127.719 158.924 123.958C160.037 123.363 161.719 123.645 162.199 122.109C164.803 122.813 167.451 123.389 169.824 124.77Z" fill="#B2D2E1"/>
<path d="M131.967 110.077C130.822 111.446 128.986 111.535 127.598 112.456C126.69 113.058 126.331 112.405 125.922 111.74C124.943 110.134 123.926 108.548 122.922 106.955C126.095 107.531 129.018 108.829 131.967 110.077Z" fill="#ADD9EB"/>
<path d="M152.903 118.751C153.108 119.231 153.345 119.704 153.511 120.197C153.825 121.124 155.744 121.732 154.765 122.679C153.626 123.779 152.488 122.289 151.618 121.515C149.891 119.992 148.304 118.323 146.66 116.711C149.085 116.34 151.004 117.529 152.903 118.751Z" fill="#ACE4F3"/>
<path d="M159.978 121.201C157.426 123.855 156.716 120.926 155.437 119.71C157.157 119.557 158.641 120.158 159.978 121.201Z" fill="#98CADA"/>
<path d="M158.853 110.774C158.885 109.379 159.863 109.188 160.976 108.893C178.887 104.185 197.022 100.142 214.588 94.3789C223.403 91.4875 231.002 92.8116 239.229 95.0057C252.72 98.6072 266.326 101.786 279.861 105.241C281.557 105.676 283.226 105.586 284.909 105.733C285.107 105.951 285.299 106.175 285.497 106.392C285.184 107.371 284.256 107.467 283.482 107.755C261.989 115.84 240.483 123.907 219.002 132.031C217.588 132.568 216.418 132.453 215.042 131.947C205.997 128.621 196.767 125.755 187.901 122.013C178.331 117.983 168.422 114.823 158.853 110.774Z" fill="#2C5578"/>
<path d="M266.986 122.928C267.395 122.602 267.766 122.225 268.214 121.969C270.606 120.587 270.683 119.039 268.598 117.305C268.028 116.838 267.453 116.378 266.877 115.917C277.4 111.273 288.236 107.435 298.963 103.309C299.878 105.279 300.601 107.39 302.84 108.331C302.949 108.638 302.91 108.926 302.718 109.194C301.298 110.448 299.328 110.518 297.774 111.497C294.204 113.141 290.136 113.422 286.739 115.546C286.394 115.834 286.035 116.096 285.652 116.333C284.635 116.928 283.509 117.254 282.421 117.683C282.153 117.798 281.878 117.887 281.602 117.977C280.054 118.386 278.718 119.308 277.221 119.839C274.726 120.696 272.148 121.348 269.883 122.794C269.218 123.19 268.547 123.555 267.728 123.44C267.433 123.344 267.178 123.178 266.986 122.928Z" fill="#F7B255"/>
<path d="M297.606 110.671C299.333 110.076 301.054 109.482 302.781 108.88C306.677 110.262 306.671 110.262 309.498 106.507C309.754 106.162 310.138 105.957 310.464 105.682C311.008 105.375 311.545 105.061 312.089 104.754C313.726 104.844 313.24 106.046 313.003 106.82C312.332 109.015 313.554 109.059 315.146 109.002C317.251 108.931 318.255 107.364 319.4 106.015C319.931 105.388 319.426 104.844 318.914 104.409C318.274 103.865 317.526 103.398 317.462 102.432C317.756 102.189 318.051 101.946 318.338 101.697C321.985 101.569 325.496 101.076 327.998 97.9737C328.976 97.398 329.929 96.7583 331.145 96.8734C330.697 99.042 328.983 100.449 327.902 102.234C326.507 104.53 327.543 107.454 330.109 108.26C330.972 108.528 331.247 108.132 331.362 107.39C331.522 106.379 331.241 105.228 332.232 104.466C333.409 106.757 332.808 109.207 332.699 111.561C332.629 113.038 327.422 114.996 325.029 114.676C324.287 114.42 323.565 114.855 322.855 114.765C319.266 114.298 316.726 115.661 315.377 118.93C316.343 118.693 317.347 117.702 318.626 118.399C318.038 120.644 315.268 120.03 314.257 121.719L314.283 121.7C311.839 122.806 309.562 124.354 306.786 124.604C306.165 124.399 305.737 123.894 305.174 123.593C299.186 120.407 296.813 121.06 293.378 126.836C292.674 128.026 291.913 129.184 291.267 130.399C291.497 132.792 289.476 132.945 288.017 133.662C285.83 133.387 286.776 132.203 287.358 131.224C289.476 127.655 292.118 124.437 294.248 120.881C294.6 120.299 295.636 119.601 294.203 119.013C293.89 117.222 292.514 116.461 291.107 115.687C290.506 115.354 289.623 114.893 290.128 114.017C290.423 113.499 291.216 113.448 291.875 113.537C291.894 113.537 292.003 113.563 292.188 113.595C296.448 114.458 296.448 114.458 297.606 110.671Z" fill="#176298"/>
<path d="M332.227 104.46C331.856 106.315 332.444 108.298 331.402 110.249C329.316 109.053 327.973 107.102 326.233 105.637C325.254 104.812 325.6 103.987 326.259 103.149C327.896 101.063 329.515 98.9653 331.139 96.8735C331.414 96.8735 331.683 96.8799 331.958 96.8799C332.08 98.1209 332.195 99.3555 332.316 100.596C332.284 101.882 332.259 103.168 332.227 104.46Z" fill="#F8FAFB"/>
<path d="M317.456 102.432C317.533 102.503 317.635 102.56 317.693 102.644C318.55 103.878 321.006 103.629 320.859 105.618C320.731 107.339 316.637 109.13 314.641 109.603C310.618 110.55 311.891 108.298 312.351 106.392C312.492 105.797 312.927 105.189 312.096 104.761C313.548 103.226 315.307 102.375 317.456 102.432Z" fill="#F7F9FA"/>
<path d="M310.464 105.688C310.662 107.966 307.847 108.861 307.95 111.247C307.975 111.836 306.485 111.222 305.705 111.03C304.432 110.716 303.472 109.987 302.788 108.887C302.768 108.695 302.788 108.509 302.839 108.33C305.276 107.153 307.764 106.123 310.464 105.688Z" fill="#BFD1DD"/>
<path d="M327.992 97.9736C327.384 98.8372 326.815 99.7328 326.149 100.552C325.254 101.639 324.921 104.038 322.606 101.658C321.921 100.955 319.797 101.652 318.339 101.703C321.825 101.166 324.333 98.076 327.992 97.9736Z" fill="#E2E7E5"/>
<path d="M114.76 121.674C117.862 119.096 122.052 119.013 125.423 117.03C126.312 116.506 126.76 117.395 127.15 117.97C129.812 121.911 132.818 125.634 135.025 129.881C131.129 129.19 127.669 127.291 124.035 125.896C120.862 124.681 117.843 123.094 114.76 121.674Z" fill="#B2D2E3"/>
<path d="M88.5 110.256C88.6919 110.173 88.8838 110.077 89.0821 110.007C97.4236 107.038 97.4172 107.045 102.554 114.062C103.302 115.079 104.255 115.943 105.042 116.934C105.707 117.772 104.985 117.676 104.466 117.67C99.5921 115.597 94.7177 113.525 89.8369 111.465C89.2484 111.209 88.6343 111.004 88.5 110.256Z" fill="#B3D2E3"/>
<path d="M294.236 119.096C294.792 118.809 295.355 118.521 296.161 118.105C295.944 120.337 294.556 121.815 293.532 123.408C291.632 126.344 289.611 129.203 287.577 132.056C287.007 132.856 287.167 133.137 288.063 133.221C288.299 133.425 288.664 133.489 288.715 133.873C286.438 134.98 286.758 137.065 286.771 139.035C286.777 140.296 286.79 141.556 286.796 142.809C286.777 143.021 286.758 143.232 286.732 143.449C284.308 144.837 284.794 142.502 284.237 141.498C284.231 136.438 284.11 136.189 279.689 138.319C271.393 142.311 262.936 145.95 254.774 150.275C245.607 155.136 235.89 158.974 226.416 163.26C225.06 163.874 223.755 164.616 222.348 165.07C221.305 165.409 219.962 167.233 219.233 165.653C218.644 164.367 220.806 164.469 221.715 163.938C222.706 163.363 223.781 162.94 224.811 162.435C224.83 162.422 224.798 162.192 224.747 162.173C224.555 162.09 224.344 162.051 224.139 161.994C223.832 160.951 224.715 160.746 225.316 160.452C229.96 158.2 234.713 156.192 239.306 153.831C240.119 153.415 241.033 152.929 241.942 153.742C245.37 153.978 247.859 151.714 250.52 150.191C251.633 149.552 251.121 147.684 249.695 146.801C249.426 142.055 248.959 137.302 249.893 132.568C250.091 131.545 250.066 130.432 250.993 129.683C251.428 129.587 251.857 129.491 252.292 129.389C253.98 129.658 253.59 131.257 254.14 132.255C254.825 136.361 253.936 140.551 254.761 144.645C255.554 146.149 253.782 146.827 253.603 148.368C256.104 147.319 258.554 146.609 260.454 144.761C264.855 141.319 270.344 140.02 275.096 137.283C275.826 136.86 276.651 136.611 277.406 136.227C279.056 135.888 280.706 135.568 282.19 134.705C282.824 134.423 283.483 134.18 283.802 133.477C284.142 131.724 283.854 129.92 284.308 128.18C284.762 125.48 284.385 122.762 284.5 120.062C284.564 118.604 284.436 117.12 285.389 115.86C285.6 115.674 285.811 115.489 286.016 115.303C288.152 114.273 288.69 115.693 288.869 117.305C289.137 119.832 289.093 122.372 288.862 124.892C288.811 125.717 288.319 126.459 288.351 127.937C289.489 125.845 291.101 124.706 291.485 122.73C291.997 121.227 292.445 119.659 294.236 119.096Z" fill="#1682BF"/>
<path d="M288.715 133.873C288.497 133.655 288.28 133.438 288.062 133.22C288.728 132.235 290.807 132.606 290.506 130.687C294.837 127.962 299.724 126.376 304.234 124.022C304.899 123.676 305.673 123.625 306.332 124.182C309.159 123.919 311.417 121.84 314.277 121.693C312.185 124.163 309.031 124.681 306.306 125.954C300.479 128.685 294.581 131.244 288.715 133.873Z" fill="#2C90C7"/>
<path d="M318.613 118.393C317.091 118.987 315.562 119.576 313.777 120.273C317.148 113.723 319.528 112.597 325.017 114.67C322.886 115.911 320.75 117.152 318.613 118.393Z" fill="#ADC8DA"/>
<path d="M197.848 144.735C201.801 150.351 205.755 155.961 209.906 161.859C208.281 161.418 206.919 161.047 205.55 160.676C199.351 157.983 193.159 155.283 186.961 152.59C185.317 151.778 183.666 150.965 181.396 149.846C187.357 147.991 192.603 146.36 197.848 144.735Z" fill="#B0D1E2"/>
<path d="M147.562 135.728C151.259 133.201 155.935 133.028 159.722 130.687C160.355 130.297 160.937 130.758 161.347 131.282C164.647 135.53 168.422 139.419 171.211 144.057C171.505 144.549 172.701 145.438 171.051 145.886C163.221 142.502 155.391 139.118 147.562 135.728Z" fill="#B0D0E0"/>
<path d="M219.15 142.636C221.05 141.255 223.084 140.148 225.4 139.624C224.28 141.216 225.656 141.376 226.628 141.651C227.747 141.971 228.912 142.125 230.05 142.4C230.997 142.624 231.291 143.167 230.645 143.999C226.813 148.989 224.05 154.643 220.634 159.895C220.436 160.202 220.026 160.375 219.329 160.906C219.201 159.307 219.099 158.091 219.003 156.882C219.048 152.129 219.099 147.383 219.15 142.636Z" fill="#A7CADD"/>
<path d="M144.133 115.968C144.089 120.325 144.012 124.681 144.031 129.037C144.037 130.016 143.551 131.206 144.754 131.916C143.078 132.658 143.468 131.308 143.468 130.559C143.449 126.773 143.487 122.979 143.5 119.192C143.724 118.124 143.11 116.883 144.133 115.968Z" fill="#6993AE"/>
<path d="M250.999 129.683C250.475 134.839 250.052 139.995 250.692 145.17C250.794 146.001 250.692 146.654 249.701 146.795C249.029 146.59 248.357 146.385 247.673 146.181C247.116 147.53 248.946 147.645 248.613 148.848C246.553 149.2 245.479 147.383 243.95 146.577C240.777 146.008 237.579 145.515 234.924 143.455C235.755 140.398 238.474 138.651 240.048 136.112C240.585 135.248 242.075 134.743 241.269 133.285C244.545 132.178 247.5 130.201 250.999 129.683Z" fill="#B2D2E2"/>
<path d="M241.947 153.742C236.011 156.492 230.081 159.243 224.144 161.994C223.306 161.731 222.667 162.851 221.867 162.416C224.65 158.123 227.528 153.921 230.138 149.558C231.277 147.652 232.448 147.268 234.546 147.761C238.576 148.714 242.708 149.232 246.693 150.626C245.427 152.232 243.482 152.68 241.947 153.742Z" fill="#ADCCDE"/>
<path d="M225.322 139.643C228.553 138.223 231.585 136.278 235.218 135.914C231.866 140.02 231.188 140.295 225.949 139.707C225.738 139.688 225.527 139.662 225.322 139.643Z" fill="#C4D8DB"/>
<path d="M234.924 143.456C238.059 144.134 241.04 145.253 243.95 146.577C240.457 147.562 237.342 145.419 233.971 145.311C233.338 145.291 233.351 144.978 234.924 143.456Z" fill="#508BB7"/>
<path d="M284.243 141.504C284.934 142.33 285.075 143.865 286.738 143.455C286.744 143.871 286.751 144.287 286.757 144.703C286.591 146.353 285.644 145.611 284.845 145.33C284.608 144.057 283.949 142.854 284.243 141.504Z" fill="#176298"/>
<path d="M284.839 145.323C285.555 145.349 286.297 145.477 286.751 144.697C287.436 144.741 287.903 143.244 288.517 144.178C289.048 144.984 288.018 145.496 287.353 145.65C286.342 145.88 285.28 145.88 284.237 145.957C284.033 145.97 283.821 145.906 283.61 145.88C283.738 145.087 284.423 145.503 284.839 145.323Z" fill="#1682BF"/>
<path d="M117.894 91.6028C124.885 89.1336 132.261 88.3276 139.432 86.6388C146.718 84.9181 154.093 83.6003 161.437 82.1099C161.744 82.7368 162.14 82.9478 162.927 82.9287C168.198 82.7943 171.096 87.3361 168.524 91.7819C167.738 93.1444 167.827 94.2958 168.153 95.7031C169.183 100.079 167.495 101.78 163.158 102.618C156.831 103.84 151.515 100.2 145.598 99.7076C145.182 99.6756 144.709 99.279 144.389 99.3941C138.562 101.524 133.463 97.8717 128.001 97.1936C124.22 96.7266 120.779 94.3598 117.894 91.6028Z" fill="#376286"/>
<path d="M267.465 123.03C268.105 122.749 268.745 122.467 269.384 122.186C272.813 123.561 274.853 121.405 276.888 119.237C278.506 118.706 279.798 117.382 281.615 117.331C282.012 119.41 280.591 120.798 279.382 121.943C277.367 123.849 276.817 125.621 278.672 127.841C278.544 128.749 279.127 129.401 279.485 130.15C279.798 130.802 280.182 131.576 279.408 132.126C278.73 132.613 278.014 132.35 277.406 131.832C276.024 130.463 274.476 129.363 272.634 128.717C271.028 128.435 270.235 129.267 269.902 130.713C269.64 131.474 270.088 132.529 268.988 132.952C267.228 133.028 265.943 132.312 265.181 130.7C264.759 129.312 264.126 128.084 263.051 127.041C262.501 126.51 261.382 125.813 262.751 124.911C263.729 124.501 264.708 124.086 265.687 123.676C267.875 122.691 267.024 125.301 268.188 125.64C268.175 124.725 266.749 124.124 267.465 123.03Z" fill="#1769A3"/>
<path d="M277.79 131.244C278.129 131.449 278.493 131.858 278.801 131.82C279.766 131.698 279.069 131.084 279.069 130.636C279.069 129.709 276.997 129.446 278.289 128.141C279.773 128.25 280.425 129.574 281.481 130.31C282.952 131.717 282.895 133.4 282.338 135.171C280.995 136.284 279.536 136.995 277.732 136.483C275.724 137.468 273.843 136.425 271.924 136.099C270.171 135.805 268.508 135.088 266.717 134.986C265.162 134.8 265.156 132.242 263.186 132.683C260.243 132.082 257.275 131.551 254.601 130.06C254.262 129.677 254.077 129.229 254.083 128.711C254.537 128.404 254.992 128.103 255.446 127.796C259.009 128.129 262.278 129.523 265.629 130.617C266.627 131.915 268.022 132.37 269.576 132.491C273.293 131.685 276.344 133.751 279.639 134.781C276.92 133.726 274.22 132.606 271.342 132.018C270.613 131.871 269.915 131.602 269.64 130.796C268.892 127.988 270.741 127.885 272.679 127.866C273.747 129.945 276.216 129.913 277.79 131.244Z" fill="#124C7F"/>
<path d="M265.622 130.624C261.848 131.052 258.778 128.941 255.438 127.803C257.85 126.779 259.929 124.905 262.756 124.911C262.449 126.037 263.371 126.446 264.042 126.849C265.533 127.751 266.019 128.98 265.622 130.624Z" fill="#CAE6EE"/>
<path d="M267.464 123.03C267.477 124.226 268.763 124.341 269.243 125.115C269.505 125.538 269.607 126.056 269.78 126.529C269.191 126.727 268.603 126.932 268.008 127.118C267.234 127.354 267.304 126.625 266.997 126.273C266.313 125.506 267.855 123.638 265.692 123.67C266.121 123.42 266.55 123.171 266.985 122.921C267.138 122.998 267.298 123.03 267.464 123.03Z" fill="#C5E7EF"/>
<path d="M254.076 128.711C254.287 128.967 254.492 129.216 254.703 129.472C254.53 130.387 254.786 131.5 253.57 131.941C252.47 131.429 253.244 129.977 252.291 129.389C252.739 128.768 253.366 128.628 254.076 128.711Z" fill="#1769A3"/>
<path d="M112.418 119.928C114.83 116.212 116.838 113 117.881 109.29C118.399 107.441 119.448 107.883 120.324 109.009C121.553 110.589 122.647 112.278 123.836 113.89C124.482 114.766 124.073 115.105 123.267 115.514C119.992 117.177 116.813 119.058 112.418 119.928Z" fill="#A8CADE"/>
<path d="M107.013 104.934C108.196 107.991 107.761 109.296 104.767 110.953C108.011 111.637 108.765 113.326 107.038 115.962C105.094 113.493 103.731 110.601 101.447 108.369C100.418 107.358 100.59 106.59 102.151 106.245C103.789 105.887 105.394 105.375 107.013 104.934Z" fill="#BBD7E4"/>
<path d="M85.5391 108.484C87.2982 105.445 90.2535 104.556 92.9274 103.296C94.1172 102.733 94.8081 103.846 95.2303 104.876C95.7612 106.175 94.6546 106.283 93.9189 106.475C91.1299 107.185 88.3345 107.819 85.5391 108.484Z" fill="#E5EFF2"/>
<path d="M110.998 118.373C110.921 117.222 110.729 116.058 110.793 114.913C110.851 113.966 110.134 112.616 111.542 112.175C112.783 111.785 114.088 111.881 114.74 113.378C113.8 115.271 112.827 117.145 110.998 118.373Z" fill="#BAD6E3"/>
<path d="M89.582 102.567C90.2985 101.377 90.5032 100.155 91.8081 100.175C92.2687 100.181 92.8764 100.859 92.6461 101.326C92.1344 102.337 91.0789 102.497 89.582 102.567Z" fill="#CDDEE9"/>
<path d="M147.812 132.594C150.21 130.233 152.616 127.879 155.002 125.506C155.456 125.052 155.961 124.399 156.537 125.058C157.356 125.992 158.098 127.041 158.629 128.154C158.891 128.704 158.008 128.877 157.586 129.069C155.878 129.856 154.138 130.579 152.411 131.321C150.952 132.018 149.654 133.297 147.812 132.594Z" fill="#A7D1E4"/>
<path d="M147.812 132.594C149.488 132.69 150.677 131.007 152.417 131.327C151.074 134.091 148.093 132.798 146.078 133.886L146.021 133.822C146.392 133.086 146.922 132.581 147.812 132.594Z" fill="#0E81C0"/>
<path d="M287.942 126.21C287.973 123.242 287.929 120.273 288.063 117.312C288.133 115.725 287.43 115.239 286.022 115.316C288.249 112.572 291.882 113.205 294.652 111.747C295.573 111.26 296.622 111.024 297.614 110.678C298.592 112.943 297.677 114.83 295.816 115.802C293.91 116.794 292.841 113.538 290.104 114.286C291.383 114.99 292.247 115.604 293.2 115.962C294.946 116.608 295.106 117.657 294.236 119.103C293.456 120.414 292.675 121.719 291.895 123.031C291.46 124.598 290.251 125.602 289.144 126.645C288.76 127.003 287.986 127.336 287.942 126.21Z" fill="#A7CAD8"/>
<path d="M281.032 130.719C280.118 129.862 279.203 129.005 278.282 128.141C275.448 125.832 276.113 123.855 278.589 121.655C279.868 120.523 280.623 118.789 281.615 117.331C281.774 117.196 281.954 117.152 282.152 117.203C283.553 118.437 283.214 120.12 283.278 121.681C283.374 123.913 283.227 126.152 283.086 128.384C283.022 129.555 283.143 131.212 281.032 130.719Z" fill="#AACBE2"/>
<path d="M281.032 130.72C282.113 130.688 282.427 130.035 282.401 129.069C282.318 125.116 282.779 121.15 282.152 117.209C283.143 116.551 284.192 116.045 285.382 115.873C285.216 120.165 286.099 124.502 284.832 128.743C283.45 128.404 283.45 128.404 283.386 126.606C283.322 129.28 284.071 131.897 284.218 134.551C283.751 135.249 283.015 135.127 282.331 135.172C281.486 133.816 282.382 131.941 281.032 130.72Z" fill="#1769A3"/>
<path d="M276.894 119.243C276.606 119.685 276.337 120.139 276.024 120.567C273.145 124.495 273.145 124.495 269.384 122.192C271.629 120.548 274.316 120.03 276.894 119.243Z" fill="#C4DFE3"/>
<path d="M306.325 124.182C302.155 126.011 297.984 127.841 293.813 129.664C292.751 130.131 291.74 130.783 290.506 130.681C291.472 127.969 293.161 125.66 294.689 123.267C296.864 119.864 304.189 120.459 306.325 124.182Z" fill="#A8CCDF"/>
<path d="M320.188 111.593C321.358 109.725 322.26 106.961 323.699 107.115C325.983 107.358 327.07 110.154 329.162 112.015C325.83 112.552 323.226 111.388 320.188 111.593Z" fill="#F7FBFC"/>
<path d="M306.715 113.454C307.751 113.41 309.012 113.154 309.076 114.695C309.146 116.237 309.485 117.881 308.769 119.307C308.462 119.922 307.662 119.192 307.086 119.045C305.154 118.54 304.444 116.813 303.434 115.386C304.259 114.286 305.481 113.864 306.715 113.454Z" fill="#2C90C7"/>
<path d="M306.229 121.31C302.794 120.024 300.274 119.084 297.747 118.143C299.372 114.83 299.391 114.836 301.886 117.235C303.088 118.393 304.323 119.519 306.229 121.31Z" fill="#93B7D1"/>
<path d="M306.716 113.454C305.885 114.535 304.919 115.405 303.441 115.386C302.955 114.996 302.494 114.548 301.963 114.222C301.151 113.717 301.1 113.026 301.477 112.309C301.88 111.548 302.635 111.906 303.172 112.079C304.381 112.456 305.539 112.981 306.716 113.454Z" fill="#D3E1EA"/>
<path d="M253.571 131.941C254.108 131.192 253.533 129.932 254.703 129.472C257.537 130.681 260.512 131.436 263.524 132.037C264.625 132.734 263.953 133.572 263.531 134.148C260.94 137.698 258.247 141.171 255.803 144.83C255.567 145.182 255.119 145.291 254.684 145.317C252.982 145.144 253.565 143.813 253.552 142.905C253.513 139.252 253.558 135.593 253.571 131.941Z" fill="#B8D5E3"/>
<path d="M266.345 134.583C268.999 133.604 271.2 135.543 273.682 135.735C275.044 135.843 276.381 136.227 277.731 136.483C274.482 139.054 270.432 140.072 266.876 142.048C264.771 143.219 262.551 144.185 260.389 145.247C259.941 145.937 259.167 146.078 258.477 146.238C257.536 146.456 256.807 145.854 257.428 145.042C260.191 141.389 262.219 137.084 266.345 134.583Z" fill="#ACCCDD"/>
<path d="M266.346 134.583C263.461 138.274 260.576 141.958 257.595 145.771C258.599 145.586 259.495 145.419 260.39 145.253C258.637 147.831 255.605 148.298 253.079 149.552C252.381 149.897 252.279 148.912 252.42 148.24C252.701 146.89 253.897 146.264 254.697 145.323C257.109 141.613 259.488 137.884 262.437 134.557C263.045 133.867 263.723 133.118 263.531 132.043C265.827 131.372 266 133.073 266.346 134.583Z" fill="#1769A3"/>
<path d="M284.224 134.551C281.844 132.056 283.399 129.037 282.893 125.985C283.987 126.887 283.073 128.736 284.838 128.736C284.582 130.674 285.343 132.715 284.224 134.551Z" fill="#124C7F"/>
<path d="M287.94 126.21C290.409 126.581 290.422 123.9 291.893 123.03C291.848 125.858 289.245 126.945 287.991 129.677C287.281 128.001 287.166 127.099 287.94 126.21Z" fill="#176298"/>
<path d="M269.626 130.803C273.554 131.359 276.951 133.355 280.443 135.255C276.816 134.334 273.189 133.419 269.562 132.498C268.999 131.909 269.179 131.353 269.626 130.803Z" fill="#7AB3D7"/>
<path d="M277.79 131.244C276.043 130.623 274.303 129.977 272.544 129.389C270.472 128.691 272.467 128.365 272.666 127.873C274.623 128.621 276.401 129.632 277.79 131.244Z" fill="#7DB7D5"/>
</svg>